G75*
%MOIN*%
%OFA0B0*%
%FSLAX24Y24*%
%IPPOS*%
%LPD*%
%AMOC8*
5,1,8,0,0,1.08239X$1,22.5*
%
%ADD10C,0.0040*%
%ADD11C,0.0080*%
%ADD12R,0.0007X0.0042*%
%ADD13R,0.0007X0.0035*%
%ADD14R,0.0007X0.0028*%
%ADD15R,0.0007X0.0099*%
%ADD16R,0.0007X0.0106*%
%ADD17R,0.0007X0.0092*%
%ADD18R,0.0007X0.0120*%
%ADD19R,0.0007X0.0113*%
%ADD20R,0.0007X0.0085*%
%ADD21R,0.0007X0.0333*%
%ADD22R,0.0007X0.0099*%
%ADD23R,0.0007X0.0106*%
%ADD24R,0.0007X0.0092*%
%ADD25R,0.0007X0.0163*%
%ADD26R,0.0007X0.0149*%
%ADD27R,0.0007X0.0092*%
%ADD28R,0.0007X0.0127*%
%ADD29R,0.0007X0.0333*%
%ADD30R,0.0007X0.0099*%
%ADD31R,0.0007X0.0106*%
%ADD32R,0.0007X0.0092*%
%ADD33R,0.0007X0.0113*%
%ADD34R,0.0007X0.0191*%
%ADD35R,0.0007X0.0177*%
%ADD36R,0.0007X0.0092*%
%ADD37R,0.0007X0.0149*%
%ADD38R,0.0007X0.0333*%
%ADD39R,0.0007X0.0120*%
%ADD40R,0.0007X0.0212*%
%ADD41R,0.0007X0.0191*%
%ADD42R,0.0007X0.0092*%
%ADD43R,0.0007X0.0177*%
%ADD44R,0.0007X0.0120*%
%ADD45R,0.0007X0.0234*%
%ADD46R,0.0007X0.0205*%
%ADD47R,0.0007X0.0099*%
%ADD48R,0.0007X0.0120*%
%ADD49R,0.0007X0.0092*%
%ADD50R,0.0007X0.0113*%
%ADD51R,0.0007X0.0120*%
%ADD52R,0.0007X0.0255*%
%ADD53R,0.0007X0.0220*%
%ADD54R,0.0007X0.0092*%
%ADD55R,0.0007X0.0106*%
%ADD56R,0.0007X0.0198*%
%ADD57R,0.0007X0.0333*%
%ADD58R,0.0007X0.0135*%
%ADD59R,0.0007X0.0127*%
%ADD60R,0.0007X0.0269*%
%ADD61R,0.0007X0.0326*%
%ADD62R,0.0007X0.0212*%
%ADD63R,0.0007X0.0135*%
%ADD64R,0.0007X0.0127*%
%ADD65R,0.0007X0.0127*%
%ADD66R,0.0007X0.0283*%
%ADD67R,0.0007X0.0333*%
%ADD68R,0.0007X0.0227*%
%ADD69R,0.0007X0.0135*%
%ADD70R,0.0007X0.0127*%
%ADD71R,0.0007X0.0290*%
%ADD72R,0.0007X0.0333*%
%ADD73R,0.0007X0.0135*%
%ADD74R,0.0007X0.0297*%
%ADD75R,0.0007X0.0340*%
%ADD76R,0.0007X0.0149*%
%ADD77R,0.0007X0.0135*%
%ADD78R,0.0007X0.0142*%
%ADD79R,0.0007X0.0312*%
%ADD80R,0.0007X0.0156*%
%ADD81R,0.0007X0.0340*%
%ADD82R,0.0007X0.0142*%
%ADD83R,0.0007X0.0120*%
%ADD84R,0.0007X0.0142*%
%ADD85R,0.0007X0.0326*%
%ADD86R,0.0007X0.0149*%
%ADD87R,0.0007X0.0142*%
%ADD88R,0.0007X0.0106*%
%ADD89R,0.0007X0.0127*%
%ADD90R,0.0007X0.0135*%
%ADD91R,0.0007X0.0113*%
%ADD92R,0.0007X0.0163*%
%ADD93R,0.0007X0.0163*%
%ADD94R,0.0007X0.0156*%
%ADD95R,0.0007X0.0113*%
%ADD96R,0.0007X0.0120*%
%ADD97R,0.0007X0.0163*%
%ADD98R,0.0007X0.0163*%
%ADD99R,0.0007X0.0085*%
%ADD100R,0.0007X0.0170*%
%ADD101R,0.0007X0.0177*%
%ADD102R,0.0007X0.0085*%
%ADD103R,0.0007X0.0078*%
%ADD104R,0.0007X0.0177*%
%ADD105R,0.0007X0.0106*%
%ADD106R,0.0007X0.0113*%
%ADD107R,0.0007X0.0085*%
%ADD108R,0.0007X0.0177*%
%ADD109R,0.0007X0.0085*%
%ADD110R,0.0007X0.0177*%
%ADD111R,0.0007X0.0177*%
%ADD112R,0.0007X0.0099*%
%ADD113R,0.0007X0.0184*%
%ADD114R,0.0007X0.0099*%
%ADD115R,0.0007X0.0368*%
%ADD116R,0.0007X0.0191*%
%ADD117R,0.0007X0.0368*%
%ADD118R,0.0007X0.0163*%
%ADD119R,0.0007X0.0184*%
%ADD120R,0.0007X0.0368*%
%ADD121R,0.0007X0.0290*%
%ADD122R,0.0007X0.0113*%
%ADD123R,0.0007X0.0085*%
%ADD124R,0.0007X0.0368*%
%ADD125R,0.0007X0.0276*%
%ADD126R,0.0007X0.0361*%
%ADD127R,0.0007X0.0255*%
%ADD128R,0.0007X0.0085*%
%ADD129R,0.0007X0.0361*%
%ADD130R,0.0007X0.0220*%
%ADD131R,0.0007X0.0361*%
%ADD132R,0.0007X0.0099*%
%ADD133R,0.0007X0.0106*%
%ADD134R,0.0007X0.0106*%
%ADD135R,0.0007X0.0120*%
%ADD136R,0.0007X0.0219*%
%ADD137R,0.0007X0.0142*%
%ADD138R,0.0007X0.0219*%
%ADD139R,0.0007X0.0312*%
%ADD140R,0.0007X0.0219*%
%ADD141R,0.0007X0.0347*%
%ADD142R,0.0007X0.0312*%
%ADD143R,0.0007X0.0304*%
%ADD144R,0.0007X0.0340*%
%ADD145R,0.0007X0.0312*%
%ADD146R,0.0007X0.0234*%
%ADD147R,0.0007X0.0297*%
%ADD148R,0.0007X0.0219*%
%ADD149R,0.0007X0.0312*%
%ADD150R,0.0007X0.0227*%
%ADD151R,0.0007X0.0283*%
%ADD152R,0.0007X0.0290*%
%ADD153R,0.0007X0.0269*%
%ADD154R,0.0007X0.0205*%
%ADD155R,0.0007X0.0184*%
%ADD156R,0.0007X0.0255*%
%ADD157R,0.0007X0.0198*%
%ADD158R,0.0007X0.0191*%
%ADD159R,0.0007X0.0184*%
%ADD160R,0.0007X0.0241*%
%ADD161R,0.0007X0.0255*%
%ADD162R,0.0007X0.0191*%
%ADD163R,0.0007X0.0198*%
%ADD164R,0.0007X0.0184*%
%ADD165R,0.0007X0.0234*%
%ADD166R,0.0007X0.0212*%
%ADD167R,0.0007X0.0184*%
%ADD168R,0.0007X0.0170*%
%ADD169R,0.0007X0.0170*%
%ADD170R,0.0007X0.0156*%
%ADD171R,0.0007X0.0035*%
%ADD172R,0.0007X0.0170*%
%ADD173R,0.0007X0.0042*%
%ADD174R,0.0007X0.0064*%
%ADD175R,0.0007X0.0028*%
%ADD176R,0.0007X0.0035*%
%ADD177R,0.0007X0.0156*%
%ADD178R,0.0007X0.0177*%
%ADD179R,0.0007X0.0170*%
%ADD180R,0.0007X0.0028*%
%ADD181R,0.0007X0.0028*%
%ADD182R,0.0007X0.0057*%
%ADD183R,0.0007X0.0057*%
%ADD184R,0.0007X0.0042*%
%ADD185R,0.0007X0.0043*%
%ADD186R,0.0007X0.0050*%
%ADD187R,0.0007X0.0050*%
%ADD188R,0.0007X0.0043*%
%ADD189R,0.0007X0.0043*%
%ADD190R,0.0007X0.0035*%
%ADD191R,0.0007X0.0035*%
%ADD192R,0.0007X0.0078*%
%ADD193R,0.0007X0.0064*%
%ADD194C,0.0050*%
%ADD195C,0.0300*%
%ADD196R,0.0160X0.0280*%
D10*
X002242Y001693D02*
X002442Y001693D01*
X002442Y001827D01*
X002442Y001914D02*
X002242Y001914D01*
X002242Y002014D01*
X002276Y002048D01*
X002342Y002048D01*
X002376Y002014D01*
X002376Y001914D01*
X002442Y002135D02*
X002242Y002135D01*
X002376Y002202D02*
X002442Y002269D01*
X002242Y002269D01*
X002376Y002202D02*
X002442Y002135D01*
X001955Y002441D02*
X001955Y002642D01*
X001822Y002642D02*
X001822Y002441D01*
X001889Y002508D01*
X001955Y002441D01*
X001734Y002542D02*
X001701Y002508D01*
X001601Y002508D01*
X001601Y002441D02*
X001601Y002642D01*
X001701Y002642D01*
X001734Y002608D01*
X001734Y002542D01*
X001513Y002441D02*
X001380Y002441D01*
X001380Y002642D01*
X001492Y003426D02*
X001459Y003459D01*
X001492Y003426D02*
X001559Y003426D01*
X001592Y003459D01*
X001592Y003492D01*
X001559Y003526D01*
X001492Y003526D01*
X001459Y003559D01*
X001459Y003592D01*
X001492Y003626D01*
X001559Y003626D01*
X001592Y003592D01*
X001680Y003592D02*
X001680Y003459D01*
X001713Y003426D01*
X001780Y003426D01*
X001813Y003459D01*
X001901Y003426D02*
X002034Y003426D01*
X001901Y003426D02*
X001901Y003626D01*
X001813Y003592D02*
X001780Y003626D01*
X001713Y003626D01*
X001680Y003592D01*
X002242Y003735D02*
X002276Y003701D01*
X002309Y003701D01*
X002342Y003735D01*
X002342Y003801D01*
X002376Y003835D01*
X002409Y003835D01*
X002442Y003801D01*
X002442Y003735D01*
X002409Y003701D01*
X002242Y003735D02*
X002242Y003801D01*
X002276Y003835D01*
X002242Y003922D02*
X002242Y004022D01*
X002276Y004056D01*
X002409Y004056D01*
X002442Y004022D01*
X002442Y003922D01*
X002242Y003922D01*
X002309Y004143D02*
X002242Y004210D01*
X002309Y004277D01*
X002442Y004277D01*
X002342Y004277D02*
X002342Y004143D01*
X002309Y004143D02*
X002442Y004143D01*
X001995Y004449D02*
X001995Y004583D01*
X001928Y004649D01*
X001861Y004583D01*
X001861Y004449D01*
X001774Y004483D02*
X001774Y004616D01*
X001740Y004649D01*
X001640Y004649D01*
X001640Y004449D01*
X001740Y004449D01*
X001774Y004483D01*
X001861Y004549D02*
X001995Y004549D01*
X002242Y004680D02*
X002276Y004646D01*
X002409Y004646D01*
X002442Y004680D01*
X002442Y004746D01*
X002409Y004780D01*
X002342Y004780D01*
X002342Y004713D01*
X002342Y004780D01*
X002409Y004780D01*
X002442Y004746D01*
X002442Y004680D01*
X002409Y004646D01*
X002276Y004646D01*
X002242Y004680D01*
X002242Y004746D01*
X002276Y004780D01*
X002242Y004746D01*
X002242Y004680D01*
X002242Y004867D02*
X002442Y005001D01*
X002242Y005001D01*
X002442Y005001D01*
X002242Y004867D01*
X002442Y004867D01*
X002242Y004867D01*
X002242Y005088D02*
X002242Y005188D01*
X002276Y005222D01*
X002409Y005222D01*
X002442Y005188D01*
X002442Y005088D01*
X002242Y005088D01*
X002242Y005188D01*
X002276Y005222D01*
X002409Y005222D01*
X002442Y005188D01*
X002442Y005088D01*
X002242Y005088D01*
X002451Y005319D02*
X002484Y005286D01*
X002551Y005286D01*
X002584Y005319D01*
X002672Y005319D02*
X002705Y005286D01*
X002772Y005286D01*
X002805Y005319D01*
X002805Y005386D01*
X002772Y005419D01*
X002738Y005419D01*
X002672Y005386D01*
X002672Y005486D01*
X002805Y005486D01*
X003007Y005450D02*
X003007Y005317D01*
X003040Y005283D01*
X003107Y005283D01*
X003140Y005317D01*
X003228Y005317D02*
X003228Y005283D01*
X003228Y005317D02*
X003361Y005450D01*
X003361Y005483D01*
X003228Y005483D01*
X003140Y005450D02*
X003107Y005483D01*
X003040Y005483D01*
X003007Y005450D01*
X002584Y005452D02*
X002551Y005486D01*
X002484Y005486D01*
X002451Y005452D01*
X002451Y005319D01*
X002379Y005715D02*
X002246Y005715D01*
X002379Y005715D02*
X002446Y005782D01*
X002379Y005849D01*
X002246Y005849D01*
X002279Y005936D02*
X002413Y005936D01*
X002446Y005970D01*
X002446Y006037D01*
X002413Y006070D01*
X002413Y006157D02*
X002279Y006157D01*
X002246Y006191D01*
X002246Y006258D01*
X002279Y006291D01*
X002413Y006291D02*
X002446Y006258D01*
X002446Y006191D01*
X002413Y006157D01*
X002279Y006070D02*
X002246Y006037D01*
X002246Y005970D01*
X002279Y005936D01*
X001955Y005600D02*
X001922Y005634D01*
X001822Y005634D01*
X001822Y005434D01*
X001922Y005434D01*
X001955Y005467D01*
X001955Y005600D01*
X001734Y005634D02*
X001734Y005434D01*
X001601Y005634D01*
X001601Y005434D01*
X001513Y005467D02*
X001513Y005534D01*
X001447Y005534D01*
X001513Y005600D02*
X001480Y005634D01*
X001413Y005634D01*
X001380Y005600D01*
X001380Y005467D01*
X001413Y005434D01*
X001480Y005434D01*
X001513Y005467D01*
X001519Y004649D02*
X001453Y004649D01*
X001419Y004616D01*
X001419Y004583D01*
X001453Y004549D01*
X001519Y004549D01*
X001553Y004516D01*
X001553Y004483D01*
X001519Y004449D01*
X001453Y004449D01*
X001419Y004483D01*
X001553Y004616D02*
X001519Y004649D01*
X002434Y003316D02*
X002434Y003183D01*
X002234Y003183D01*
X002268Y003095D02*
X002234Y003062D01*
X002234Y002995D01*
X002268Y002962D01*
X002401Y002962D01*
X002434Y002995D01*
X002434Y003062D01*
X002401Y003095D01*
X002401Y002874D02*
X002434Y002841D01*
X002434Y002774D01*
X002401Y002741D01*
X002334Y002774D02*
X002334Y002841D01*
X002368Y002874D01*
X002401Y002874D01*
X002334Y002774D02*
X002301Y002741D01*
X002268Y002741D01*
X002234Y002774D01*
X002234Y002841D01*
X002268Y002874D01*
X002962Y002299D02*
X003062Y002299D01*
X003095Y002266D01*
X003095Y002199D01*
X003062Y002166D01*
X002962Y002166D01*
X003028Y002166D02*
X003095Y002099D01*
X003183Y002199D02*
X003316Y002199D01*
X003283Y002099D02*
X003283Y002299D01*
X003183Y002199D01*
X002962Y002099D02*
X002962Y002299D01*
X003836Y002243D02*
X003836Y002043D01*
X003969Y002043D01*
X004057Y002043D02*
X004057Y002077D01*
X004190Y002210D01*
X004190Y002243D01*
X004057Y002243D01*
X003969Y002243D02*
X003836Y002243D01*
X003836Y002143D02*
X003902Y002143D01*
X004057Y002043D02*
X004190Y002043D01*
X004278Y002143D02*
X004411Y002143D01*
X004499Y002043D02*
X004565Y002043D01*
X004532Y002043D02*
X004532Y002243D01*
X004499Y002243D02*
X004565Y002243D01*
X004646Y002210D02*
X004679Y002243D01*
X004746Y002243D01*
X004779Y002210D01*
X004779Y002177D01*
X004646Y002043D01*
X004779Y002043D01*
X004867Y002077D02*
X004900Y002043D01*
X004967Y002043D01*
X005000Y002077D01*
X005000Y002210D02*
X004967Y002243D01*
X004900Y002243D01*
X004867Y002210D01*
X004867Y002077D01*
X004867Y001883D02*
X004934Y001817D01*
X005000Y001883D01*
X005000Y001683D01*
X005088Y001717D02*
X005121Y001683D01*
X005188Y001683D01*
X005221Y001717D01*
X005221Y001883D01*
X005309Y002043D02*
X005309Y002243D01*
X005376Y002177D01*
X005442Y002243D01*
X005442Y002043D01*
X005530Y002043D02*
X005530Y002243D01*
X005630Y002243D01*
X005663Y002210D01*
X005663Y002143D01*
X005630Y002110D01*
X005530Y002110D01*
X005530Y001883D02*
X005530Y001750D01*
X005597Y001683D01*
X005663Y001750D01*
X005663Y001883D01*
X005751Y001817D02*
X005818Y001883D01*
X005818Y001683D01*
X005884Y001683D02*
X005751Y001683D01*
X005784Y002043D02*
X005851Y002043D01*
X005884Y002077D01*
X005884Y002243D01*
X005972Y002210D02*
X005972Y002177D01*
X006005Y002143D01*
X006105Y002143D01*
X006105Y002077D02*
X006105Y002210D01*
X006072Y002243D01*
X006005Y002243D01*
X005972Y002210D01*
X005972Y002077D02*
X006005Y002043D01*
X006072Y002043D01*
X006105Y002077D01*
X006193Y002043D02*
X006326Y002177D01*
X006326Y002210D01*
X006293Y002243D01*
X006226Y002243D01*
X006193Y002210D01*
X006193Y002043D02*
X006326Y002043D01*
X006414Y002077D02*
X006447Y002043D01*
X006514Y002043D01*
X006547Y002077D01*
X006547Y002143D01*
X006514Y002177D01*
X006481Y002177D01*
X006414Y002143D01*
X006414Y002243D01*
X006547Y002243D01*
X006635Y002210D02*
X006635Y002077D01*
X006768Y002210D01*
X006768Y002077D01*
X006735Y002043D01*
X006668Y002043D01*
X006635Y002077D01*
X006635Y002210D02*
X006668Y002243D01*
X006735Y002243D01*
X006768Y002210D01*
X007185Y002005D02*
X007185Y001805D01*
X007185Y001872D02*
X007285Y001872D01*
X007318Y001905D01*
X007318Y001972D01*
X007285Y002005D01*
X007185Y002005D01*
X007251Y001872D02*
X007318Y001805D01*
X007406Y001838D02*
X007439Y001805D01*
X007506Y001805D01*
X007539Y001838D01*
X007539Y001872D01*
X007506Y001905D01*
X007472Y001905D01*
X007506Y001905D02*
X007539Y001939D01*
X007539Y001972D01*
X007506Y002005D01*
X007439Y002005D01*
X007406Y001972D01*
X008018Y001958D02*
X008018Y002058D01*
X008051Y002091D01*
X008118Y002091D01*
X008151Y002058D01*
X008151Y001958D01*
X008218Y001958D02*
X008018Y001958D01*
X008218Y001870D02*
X008218Y001737D01*
X008018Y001737D01*
X008018Y002179D02*
X008218Y002179D01*
X008151Y002245D01*
X008218Y002312D01*
X008018Y002312D01*
X008380Y002441D02*
X008513Y002441D01*
X008601Y002441D02*
X008601Y002642D01*
X008701Y002642D01*
X008734Y002608D01*
X008734Y002542D01*
X008701Y002508D01*
X008601Y002508D01*
X008822Y002441D02*
X008822Y002642D01*
X008955Y002642D02*
X008955Y002441D01*
X008889Y002508D01*
X008822Y002441D01*
X008380Y002441D02*
X008380Y002642D01*
X008218Y002833D02*
X008185Y002800D01*
X008218Y002833D02*
X008218Y002900D01*
X008185Y002933D01*
X008151Y002933D01*
X008118Y002900D01*
X008118Y002833D01*
X008085Y002800D01*
X008051Y002800D01*
X008018Y002833D01*
X008018Y002900D01*
X008051Y002933D01*
X008051Y003021D02*
X008185Y003021D01*
X008218Y003054D01*
X008218Y003121D01*
X008185Y003154D01*
X008218Y003242D02*
X008018Y003242D01*
X008051Y003154D02*
X008018Y003121D01*
X008018Y003054D01*
X008051Y003021D01*
X008218Y003242D02*
X008218Y003375D01*
X008459Y003459D02*
X008492Y003426D01*
X008559Y003426D01*
X008592Y003459D01*
X008592Y003492D01*
X008559Y003526D01*
X008492Y003526D01*
X008459Y003559D01*
X008459Y003592D01*
X008492Y003626D01*
X008559Y003626D01*
X008592Y003592D01*
X008680Y003592D02*
X008680Y003459D01*
X008713Y003426D01*
X008780Y003426D01*
X008813Y003459D01*
X008901Y003426D02*
X009034Y003426D01*
X008901Y003426D02*
X008901Y003626D01*
X008813Y003592D02*
X008780Y003626D01*
X008713Y003626D01*
X008680Y003592D01*
X008218Y003778D02*
X008185Y003745D01*
X008218Y003778D02*
X008218Y003845D01*
X008185Y003878D01*
X008151Y003878D01*
X008118Y003845D01*
X008118Y003778D01*
X008085Y003745D01*
X008051Y003745D01*
X008018Y003778D01*
X008018Y003845D01*
X008051Y003878D01*
X008018Y003966D02*
X008018Y004066D01*
X008051Y004099D01*
X008185Y004099D01*
X008218Y004066D01*
X008218Y003966D01*
X008018Y003966D01*
X008085Y004187D02*
X008018Y004253D01*
X008085Y004320D01*
X008218Y004320D01*
X008118Y004320D02*
X008118Y004187D01*
X008085Y004187D02*
X008218Y004187D01*
X008453Y004449D02*
X008419Y004483D01*
X008453Y004449D02*
X008519Y004449D01*
X008553Y004483D01*
X008553Y004516D01*
X008519Y004549D01*
X008453Y004549D01*
X008419Y004583D01*
X008419Y004616D01*
X008453Y004649D01*
X008519Y004649D01*
X008553Y004616D01*
X008640Y004649D02*
X008740Y004649D01*
X008774Y004616D01*
X008774Y004483D01*
X008740Y004449D01*
X008640Y004449D01*
X008640Y004649D01*
X008861Y004583D02*
X008861Y004449D01*
X008861Y004549D02*
X008995Y004549D01*
X008995Y004583D02*
X008995Y004449D01*
X008995Y004583D02*
X008928Y004649D01*
X008861Y004583D01*
X008218Y004762D02*
X008218Y004829D01*
X008185Y004862D01*
X008118Y004862D01*
X008118Y004796D01*
X008051Y004862D02*
X008018Y004829D01*
X008018Y004762D01*
X008051Y004729D01*
X008185Y004729D01*
X008218Y004762D01*
X008218Y004950D02*
X008018Y004950D01*
X008218Y005083D01*
X008018Y005083D01*
X008018Y005171D02*
X008018Y005271D01*
X008051Y005304D01*
X008185Y005304D01*
X008218Y005271D01*
X008218Y005171D01*
X008018Y005171D01*
X008380Y005467D02*
X008413Y005434D01*
X008480Y005434D01*
X008513Y005467D01*
X008513Y005534D01*
X008447Y005534D01*
X008513Y005600D02*
X008480Y005634D01*
X008413Y005634D01*
X008380Y005600D01*
X008380Y005467D01*
X008601Y005434D02*
X008601Y005634D01*
X008734Y005434D01*
X008734Y005634D01*
X008822Y005634D02*
X008922Y005634D01*
X008955Y005600D01*
X008955Y005467D01*
X008922Y005434D01*
X008822Y005434D01*
X008822Y005634D01*
X008218Y005780D02*
X008151Y005847D01*
X008018Y005847D01*
X008051Y005934D02*
X008185Y005934D01*
X008218Y005967D01*
X008218Y006034D01*
X008185Y006068D01*
X008185Y006155D02*
X008051Y006155D01*
X008018Y006188D01*
X008018Y006255D01*
X008051Y006288D01*
X008185Y006288D02*
X008218Y006255D01*
X008218Y006188D01*
X008185Y006155D01*
X008051Y006068D02*
X008018Y006034D01*
X008018Y005967D01*
X008051Y005934D01*
X008218Y005780D02*
X008151Y005713D01*
X008018Y005713D01*
X008486Y006418D02*
X008553Y006485D01*
X008553Y006618D01*
X008640Y006585D02*
X008640Y006451D01*
X008674Y006418D01*
X008740Y006418D01*
X008774Y006451D01*
X008861Y006451D02*
X008895Y006418D01*
X008961Y006418D01*
X008995Y006451D01*
X008861Y006451D02*
X008861Y006585D01*
X008895Y006618D01*
X008961Y006618D01*
X008995Y006585D01*
X008774Y006585D02*
X008740Y006618D01*
X008674Y006618D01*
X008640Y006585D01*
X008419Y006618D02*
X008419Y006485D01*
X008486Y006418D01*
X008194Y006863D02*
X007994Y006863D01*
X007994Y006963D01*
X008028Y006996D01*
X008061Y006996D01*
X008094Y006963D01*
X008094Y006863D01*
X008094Y006963D02*
X008128Y006996D01*
X008161Y006996D01*
X008194Y006963D01*
X008194Y006863D01*
X008194Y007084D02*
X008061Y007084D01*
X007994Y007150D01*
X008061Y007217D01*
X008194Y007217D01*
X008094Y007217D02*
X008094Y007084D01*
X007994Y007305D02*
X007994Y007438D01*
X007994Y007371D02*
X008194Y007371D01*
X008459Y007441D02*
X008559Y007441D01*
X008592Y007475D01*
X008592Y007508D01*
X008559Y007542D01*
X008459Y007542D01*
X008459Y007642D02*
X008459Y007441D01*
X008559Y007542D02*
X008592Y007575D01*
X008592Y007608D01*
X008559Y007642D01*
X008459Y007642D01*
X008680Y007575D02*
X008680Y007441D01*
X008680Y007542D02*
X008813Y007542D01*
X008813Y007575D02*
X008813Y007441D01*
X008813Y007575D02*
X008746Y007642D01*
X008680Y007575D01*
X008901Y007642D02*
X009034Y007642D01*
X008967Y007642D02*
X008967Y007441D01*
X007706Y007124D02*
X007640Y007091D01*
X007573Y007024D01*
X007673Y007024D01*
X007706Y006991D01*
X007706Y006958D01*
X007673Y006924D01*
X007606Y006924D01*
X007573Y006958D01*
X007573Y007024D01*
X007485Y006958D02*
X007452Y006924D01*
X007385Y006924D01*
X007352Y006958D01*
X007352Y007091D01*
X007385Y007124D01*
X007452Y007124D01*
X007485Y007091D01*
X006520Y006916D02*
X006520Y006783D01*
X006320Y006783D01*
X006353Y006695D02*
X006320Y006662D01*
X006320Y006595D01*
X006353Y006562D01*
X006487Y006562D01*
X006520Y006595D01*
X006520Y006662D01*
X006487Y006695D01*
X006049Y006657D02*
X006049Y006557D01*
X005849Y006557D01*
X005849Y006657D01*
X005883Y006690D01*
X006016Y006690D01*
X006049Y006657D01*
X006049Y006778D02*
X005916Y006778D01*
X005849Y006844D01*
X005916Y006911D01*
X006049Y006911D01*
X005949Y006911D02*
X005949Y006778D01*
X005324Y006809D02*
X005290Y006776D01*
X005324Y006809D02*
X005324Y006876D01*
X005290Y006909D01*
X005257Y006909D01*
X005224Y006876D01*
X005224Y006809D01*
X005190Y006776D01*
X005157Y006776D01*
X005124Y006809D01*
X005124Y006876D01*
X005157Y006909D01*
X004983Y006939D02*
X004983Y006805D01*
X004783Y006805D01*
X004816Y006718D02*
X004783Y006685D01*
X004783Y006618D01*
X004816Y006584D01*
X004949Y006584D01*
X004983Y006618D01*
X004983Y006685D01*
X004949Y006718D01*
X005124Y006655D02*
X005124Y006588D01*
X005157Y006555D01*
X005290Y006555D01*
X005324Y006588D01*
X005324Y006655D01*
X005290Y006688D01*
X005157Y006688D02*
X005124Y006655D01*
X005124Y006467D02*
X005324Y006467D01*
X005124Y006334D01*
X005324Y006334D01*
X004983Y006397D02*
X004949Y006363D01*
X004983Y006397D02*
X004983Y006464D01*
X004949Y006497D01*
X004916Y006497D01*
X004883Y006464D01*
X004883Y006397D01*
X004849Y006363D01*
X004816Y006363D01*
X004783Y006397D01*
X004783Y006464D01*
X004816Y006497D01*
X004579Y006551D02*
X004579Y006651D01*
X004546Y006684D01*
X004412Y006684D01*
X004379Y006651D01*
X004379Y006551D01*
X004579Y006551D01*
X004546Y006463D02*
X004579Y006430D01*
X004579Y006363D01*
X004546Y006330D01*
X004479Y006363D02*
X004479Y006430D01*
X004513Y006463D01*
X004546Y006463D01*
X004479Y006363D02*
X004446Y006330D01*
X004412Y006330D01*
X004379Y006363D01*
X004379Y006430D01*
X004412Y006463D01*
X004061Y006469D02*
X003928Y006469D01*
X003861Y006402D01*
X003928Y006335D01*
X004061Y006335D01*
X003961Y006335D02*
X003961Y006469D01*
X003861Y006556D02*
X003861Y006656D01*
X003894Y006690D01*
X004028Y006690D01*
X004061Y006656D01*
X004061Y006556D01*
X003861Y006556D01*
X003894Y006777D02*
X003861Y006810D01*
X003861Y006877D01*
X003894Y006911D01*
X004028Y006777D01*
X004061Y006810D01*
X004061Y006877D01*
X004028Y006911D01*
X003894Y006911D01*
X003894Y006777D02*
X004028Y006777D01*
X004379Y006838D02*
X004446Y006905D01*
X004579Y006905D01*
X004479Y006905D02*
X004479Y006772D01*
X004446Y006772D02*
X004379Y006838D01*
X004446Y006772D02*
X004579Y006772D01*
X003559Y006732D02*
X003359Y006732D01*
X003359Y006819D02*
X003359Y006953D01*
X003359Y006886D02*
X003559Y006886D01*
X003559Y006732D02*
X003359Y006598D01*
X003559Y006598D01*
X003559Y006518D02*
X003559Y006451D01*
X003559Y006484D02*
X003359Y006484D01*
X003359Y006451D02*
X003359Y006518D01*
X002430Y006662D02*
X002430Y006762D01*
X002397Y006796D01*
X002364Y006796D01*
X002330Y006762D01*
X002330Y006662D01*
X002230Y006662D02*
X002230Y006762D01*
X002264Y006796D01*
X002297Y006796D01*
X002330Y006762D01*
X002330Y006883D02*
X002330Y007017D01*
X002297Y007017D02*
X002430Y007017D01*
X002297Y007017D02*
X002230Y006950D01*
X002297Y006883D01*
X002430Y006883D01*
X002430Y006662D02*
X002230Y006662D01*
X001995Y006585D02*
X001961Y006618D01*
X001895Y006618D01*
X001861Y006585D01*
X001861Y006451D01*
X001895Y006418D01*
X001961Y006418D01*
X001995Y006451D01*
X001774Y006451D02*
X001740Y006418D01*
X001674Y006418D01*
X001640Y006451D01*
X001640Y006585D01*
X001674Y006618D01*
X001740Y006618D01*
X001774Y006585D01*
X001553Y006618D02*
X001553Y006485D01*
X001486Y006418D01*
X001419Y006485D01*
X001419Y006618D01*
X002230Y007104D02*
X002230Y007238D01*
X002230Y007171D02*
X002430Y007171D01*
X001967Y007441D02*
X001967Y007642D01*
X001901Y007642D02*
X002034Y007642D01*
X001813Y007575D02*
X001813Y007441D01*
X001813Y007542D02*
X001680Y007542D01*
X001680Y007575D02*
X001746Y007642D01*
X001813Y007575D01*
X001680Y007575D02*
X001680Y007441D01*
X001592Y007475D02*
X001592Y007508D01*
X001559Y007542D01*
X001459Y007542D01*
X001459Y007642D02*
X001459Y007441D01*
X001559Y007441D01*
X001592Y007475D01*
X001559Y007542D02*
X001592Y007575D01*
X001592Y007608D01*
X001559Y007642D01*
X001459Y007642D01*
X005826Y005773D02*
X005826Y005606D01*
X005859Y005573D01*
X005926Y005573D01*
X005959Y005606D01*
X005959Y005773D01*
X006047Y005740D02*
X006080Y005773D01*
X006147Y005773D01*
X006180Y005740D01*
X006180Y005706D01*
X006047Y005573D01*
X006180Y005573D01*
X003849Y003296D02*
X003716Y003296D01*
X003716Y003196D01*
X003783Y003229D01*
X003816Y003229D01*
X003849Y003196D01*
X003849Y003129D01*
X003816Y003096D01*
X003749Y003096D01*
X003716Y003129D01*
X003628Y003096D02*
X003562Y003163D01*
X003595Y003163D02*
X003495Y003163D01*
X003495Y003096D02*
X003495Y003296D01*
X003595Y003296D01*
X003628Y003263D01*
X003628Y003196D01*
X003595Y003163D01*
X004720Y001883D02*
X004786Y001883D01*
X004753Y001883D02*
X004753Y001683D01*
X004720Y001683D02*
X004786Y001683D01*
X004867Y001683D02*
X004867Y001883D01*
X005088Y001883D02*
X005088Y001717D01*
X005751Y002077D02*
X005784Y002043D01*
X005751Y002077D02*
X005751Y002243D01*
D11*
X001480Y001634D02*
X001309Y001805D01*
X001309Y002305D01*
X001362Y002555D01*
X001309Y002805D01*
X001309Y003305D01*
X001362Y003555D01*
X001309Y003805D01*
X001309Y004305D01*
X001362Y004555D01*
X001309Y004805D01*
X001309Y005305D01*
X001362Y005555D01*
X001309Y005805D01*
X001309Y006305D01*
X001362Y006555D01*
X001309Y006805D01*
X001309Y007305D01*
X001480Y007673D01*
X001980Y007673D01*
X002151Y007305D01*
X002151Y006805D01*
X002098Y006555D01*
X002151Y006305D01*
X002151Y005805D01*
X002098Y005555D01*
X002151Y005305D01*
X002151Y004805D01*
X002098Y004555D01*
X002151Y004305D01*
X002151Y003805D01*
X002098Y003555D01*
X002151Y003305D01*
X002151Y002805D01*
X002098Y002555D01*
X002151Y002305D01*
X002151Y001805D01*
X001980Y001634D01*
X001480Y001634D01*
X008309Y001805D02*
X008480Y001634D01*
X008980Y001634D01*
X009151Y001805D01*
X009151Y002305D01*
X009098Y002555D01*
X009151Y002805D01*
X009151Y003305D01*
X009098Y003555D01*
X009151Y003805D01*
X009151Y004305D01*
X009098Y004555D01*
X009151Y004805D01*
X009151Y005305D01*
X009098Y005555D01*
X009151Y005805D01*
X009151Y006305D01*
X009098Y006555D01*
X009151Y006805D01*
X009151Y007305D01*
X008980Y007673D01*
X008480Y007673D01*
X008309Y007305D01*
X008309Y006805D01*
X008362Y006555D01*
X008309Y006305D01*
X008309Y005805D01*
X008362Y005555D01*
X008309Y005305D01*
X008309Y004805D01*
X008362Y004555D01*
X008309Y004305D01*
X008309Y003805D01*
X008362Y003555D01*
X008309Y003305D01*
X008309Y002805D01*
X008362Y002555D01*
X008309Y002305D01*
X008309Y001805D01*
D12*
X006188Y004450D03*
X006839Y005987D03*
X006882Y006001D03*
X006839Y006072D03*
X006832Y006072D03*
X006839Y006121D03*
X006882Y006136D03*
X006839Y006206D03*
X006832Y006206D03*
X006839Y006256D03*
X006882Y006270D03*
X006783Y006298D03*
X006783Y006433D03*
X006832Y006475D03*
X006839Y006475D03*
X006882Y006405D03*
X006783Y006164D03*
X006783Y006029D03*
D13*
X006931Y006436D03*
X006188Y004121D03*
D14*
X006592Y003650D03*
X006188Y003324D03*
D15*
X006195Y003324D03*
X006344Y003211D03*
X006358Y003211D03*
X006393Y003211D03*
X006407Y003211D03*
X006457Y003218D03*
X006457Y003069D03*
X006443Y003069D03*
X006407Y003069D03*
X006393Y003069D03*
X006358Y003069D03*
X006344Y003069D03*
X006308Y003069D03*
X006294Y003069D03*
X006266Y003069D03*
X006245Y003069D03*
X006216Y003069D03*
X006195Y003069D03*
X006485Y003069D03*
X006507Y003069D03*
X006535Y003069D03*
X006556Y003069D03*
X006634Y003069D03*
X006662Y003069D03*
X006684Y003069D03*
X006712Y003069D03*
X006443Y003480D03*
X006407Y003806D03*
X006393Y003806D03*
X006358Y003806D03*
X006344Y003806D03*
X006308Y003806D03*
X006294Y003806D03*
X006266Y003806D03*
X006245Y003806D03*
X006216Y003806D03*
X006195Y003806D03*
X006344Y003955D03*
X006358Y003955D03*
X006457Y003955D03*
X006485Y003955D03*
X006485Y004181D03*
X006344Y004188D03*
X006308Y004330D03*
X006294Y004337D03*
X006443Y004330D03*
X006485Y004344D03*
X006457Y004585D03*
X006443Y004585D03*
X006308Y004578D03*
X006393Y004741D03*
X006407Y004734D03*
X006443Y004726D03*
X006457Y004719D03*
X006485Y004712D03*
X006443Y004861D03*
X006507Y004875D03*
X006393Y005123D03*
X006195Y005066D03*
X006195Y004797D03*
X006195Y005491D03*
X006216Y005491D03*
X006245Y005491D03*
X006266Y005491D03*
X006294Y005491D03*
X006308Y005491D03*
X006344Y005491D03*
X006358Y005491D03*
X006393Y005491D03*
X006407Y005491D03*
X006443Y005491D03*
X006457Y005491D03*
X006457Y005739D03*
X006443Y005739D03*
X006443Y005888D03*
X006457Y005888D03*
X006485Y005888D03*
X006507Y005888D03*
X006535Y005888D03*
X006556Y005888D03*
X006634Y005888D03*
X006662Y005888D03*
X006684Y005888D03*
X006712Y005888D03*
X006535Y006036D03*
X006507Y006036D03*
X006485Y006036D03*
X006457Y006036D03*
X006443Y006036D03*
X006407Y006036D03*
X006393Y006036D03*
X006358Y006036D03*
X006344Y006036D03*
X006308Y006036D03*
X006294Y006036D03*
X006266Y006036D03*
X006245Y006036D03*
X006216Y006036D03*
X006195Y006036D03*
X006195Y005888D03*
X006216Y005888D03*
X006245Y005888D03*
X006266Y005888D03*
X006294Y005888D03*
X006308Y005888D03*
X006344Y005888D03*
X006358Y005888D03*
X006393Y005888D03*
X006407Y005888D03*
X006407Y006440D03*
X006393Y006440D03*
X006358Y006440D03*
X006344Y006440D03*
X006308Y006440D03*
X006294Y006440D03*
X006266Y006440D03*
X006245Y006440D03*
X006216Y006440D03*
X006195Y006440D03*
X006443Y006440D03*
X006457Y006440D03*
X006485Y006440D03*
X006507Y006440D03*
X006535Y006440D03*
D16*
X006195Y006238D03*
X006485Y005502D03*
X006556Y005169D03*
X006535Y005162D03*
X006507Y005155D03*
X006485Y005148D03*
X006457Y005141D03*
X006407Y005126D03*
X006584Y005176D03*
X006507Y004709D03*
X006535Y004702D03*
X006556Y004695D03*
X006634Y004673D03*
X006662Y004666D03*
X006684Y004659D03*
X006712Y004652D03*
X006485Y004574D03*
X006294Y004574D03*
X006308Y003958D03*
X006443Y003958D03*
X006556Y003689D03*
X006457Y003477D03*
X006308Y003477D03*
X006294Y003625D03*
X006266Y003625D03*
X006245Y003625D03*
X006216Y003625D03*
X006195Y003625D03*
X006308Y003222D03*
D17*
X006344Y003484D03*
X006358Y003484D03*
X006393Y003484D03*
X006407Y003484D03*
X006535Y003484D03*
X006556Y003484D03*
X006584Y003484D03*
X006634Y003484D03*
X006662Y003484D03*
X006684Y003484D03*
X006712Y003484D03*
X006556Y003809D03*
X006535Y003809D03*
X006245Y003484D03*
X006216Y003484D03*
X006195Y003484D03*
X006457Y004192D03*
X006457Y004333D03*
X006344Y004588D03*
X006393Y004850D03*
X006407Y004850D03*
X006457Y004864D03*
X006485Y004872D03*
X006485Y004992D03*
X006457Y004999D03*
X006393Y005013D03*
X006393Y005346D03*
X006407Y005346D03*
X006443Y005346D03*
X006457Y005346D03*
X006485Y005346D03*
X006507Y005346D03*
X006535Y005346D03*
X006556Y005346D03*
X006634Y005346D03*
X006662Y005346D03*
X006684Y005346D03*
X006712Y005346D03*
X006358Y005346D03*
X006344Y005346D03*
X006308Y005346D03*
X006294Y005346D03*
X006266Y005346D03*
X006245Y005346D03*
X006216Y005346D03*
X006195Y005346D03*
X006195Y005743D03*
X006216Y005743D03*
X006245Y005743D03*
X006266Y005743D03*
X006294Y005743D03*
X006308Y005743D03*
X006344Y005743D03*
X006358Y005743D03*
X006393Y005743D03*
X006407Y005743D03*
X006535Y005743D03*
X006556Y005743D03*
X006811Y006033D03*
X006811Y006302D03*
X006811Y006436D03*
X006535Y006337D03*
X006507Y006330D03*
X006485Y006323D03*
X006407Y006302D03*
X006393Y006302D03*
X006344Y006288D03*
X006393Y006174D03*
X006507Y006146D03*
X006535Y006139D03*
D18*
X006507Y004553D03*
X006584Y004454D03*
X006195Y004454D03*
X006535Y003696D03*
X006485Y003470D03*
X006294Y003470D03*
X006443Y002769D03*
D19*
X006407Y002800D03*
X006344Y002857D03*
X006294Y002900D03*
X006294Y003232D03*
X006485Y003232D03*
X006294Y003962D03*
X006195Y004125D03*
X006266Y004188D03*
X006358Y004174D03*
X006507Y004167D03*
X006216Y004797D03*
X006216Y005066D03*
X006662Y005194D03*
X006684Y005201D03*
X006712Y005208D03*
X006485Y005732D03*
D20*
X006443Y006164D03*
X006407Y006171D03*
X006443Y006313D03*
X006195Y003948D03*
D21*
X006195Y002818D03*
X006216Y002818D03*
X006245Y002818D03*
X006266Y002818D03*
D22*
X006252Y003069D03*
X006301Y003069D03*
X006351Y003069D03*
X006400Y003069D03*
X006450Y003069D03*
X006499Y003069D03*
X006549Y003069D03*
X006669Y003069D03*
X006719Y003069D03*
X006450Y003218D03*
X006400Y003211D03*
X006351Y003211D03*
X006202Y003069D03*
X006450Y003480D03*
X006400Y003806D03*
X006351Y003806D03*
X006301Y003806D03*
X006252Y003806D03*
X006202Y003806D03*
X006351Y003955D03*
X006450Y003955D03*
X006499Y004174D03*
X006450Y004330D03*
X006301Y004337D03*
X006301Y004578D03*
X006450Y004585D03*
X006499Y004712D03*
X006450Y004726D03*
X006549Y004698D03*
X006202Y004797D03*
X006202Y005066D03*
X006400Y005123D03*
X006450Y005137D03*
X006499Y005151D03*
X006450Y005491D03*
X006400Y005491D03*
X006351Y005491D03*
X006301Y005491D03*
X006252Y005491D03*
X006202Y005491D03*
X006450Y005739D03*
X006450Y005888D03*
X006499Y005888D03*
X006549Y005888D03*
X006669Y005888D03*
X006719Y005888D03*
X006499Y006036D03*
X006450Y006036D03*
X006400Y006036D03*
X006351Y006036D03*
X006301Y006036D03*
X006252Y006036D03*
X006202Y006036D03*
X006202Y005888D03*
X006252Y005888D03*
X006301Y005888D03*
X006351Y005888D03*
X006400Y005888D03*
X006400Y006440D03*
X006351Y006440D03*
X006301Y006440D03*
X006252Y006440D03*
X006202Y006440D03*
X006450Y006440D03*
X006499Y006440D03*
D23*
X006202Y006238D03*
X006549Y005162D03*
X006669Y005197D03*
X006669Y004666D03*
X006499Y004355D03*
X006351Y004185D03*
X006301Y003958D03*
X006499Y003965D03*
X006252Y003625D03*
X006202Y003625D03*
X006301Y003229D03*
D24*
X006351Y003484D03*
X006400Y003484D03*
X006549Y003484D03*
X006669Y003484D03*
X006719Y003484D03*
X006549Y003809D03*
X006202Y003484D03*
X006400Y004850D03*
X006450Y004864D03*
X006499Y004872D03*
X006450Y004999D03*
X006450Y005346D03*
X006499Y005346D03*
X006549Y005346D03*
X006669Y005346D03*
X006719Y005346D03*
X006400Y005346D03*
X006351Y005346D03*
X006301Y005346D03*
X006252Y005346D03*
X006202Y005346D03*
X006202Y005743D03*
X006252Y005743D03*
X006301Y005743D03*
X006351Y005743D03*
X006400Y005743D03*
X006549Y005743D03*
X006499Y006146D03*
X006450Y006160D03*
X006400Y006302D03*
X006351Y006288D03*
X006499Y006330D03*
D25*
X006669Y006068D03*
X006202Y004454D03*
D26*
X006202Y004121D03*
D27*
X006301Y004199D03*
X006202Y003951D03*
X006400Y004737D03*
X006450Y006316D03*
D28*
X006669Y004932D03*
X006252Y004797D03*
X006202Y003324D03*
D29*
X006252Y003363D03*
X006252Y002818D03*
X006202Y002818D03*
D30*
X006209Y003069D03*
X006223Y003069D03*
X006237Y003069D03*
X006259Y003069D03*
X006273Y003069D03*
X006287Y003069D03*
X006315Y003069D03*
X006322Y003069D03*
X006337Y003069D03*
X006365Y003069D03*
X006379Y003069D03*
X006386Y003069D03*
X006414Y003069D03*
X006429Y003069D03*
X006436Y003069D03*
X006464Y003069D03*
X006478Y003069D03*
X006492Y003069D03*
X006514Y003069D03*
X006528Y003069D03*
X006542Y003069D03*
X006563Y003069D03*
X006577Y003069D03*
X006627Y003069D03*
X006641Y003069D03*
X006655Y003069D03*
X006676Y003069D03*
X006691Y003069D03*
X006705Y003069D03*
X006436Y003211D03*
X006429Y003211D03*
X006414Y003211D03*
X006386Y003211D03*
X006379Y003211D03*
X006365Y003211D03*
X006322Y003218D03*
X006322Y003480D03*
X006337Y003480D03*
X006436Y003480D03*
X006563Y003686D03*
X006436Y003806D03*
X006429Y003806D03*
X006414Y003806D03*
X006386Y003806D03*
X006379Y003806D03*
X006365Y003806D03*
X006337Y003806D03*
X006322Y003806D03*
X006315Y003806D03*
X006287Y003806D03*
X006273Y003806D03*
X006259Y003806D03*
X006237Y003806D03*
X006223Y003806D03*
X006209Y003806D03*
X006315Y003955D03*
X006322Y003955D03*
X006337Y003955D03*
X006365Y003955D03*
X006464Y003955D03*
X006478Y003955D03*
X006492Y003962D03*
X006492Y004181D03*
X006436Y004330D03*
X006322Y004195D03*
X006287Y004195D03*
X006315Y004585D03*
X006322Y004585D03*
X006464Y004585D03*
X006514Y004705D03*
X006528Y004705D03*
X006542Y004698D03*
X006577Y004691D03*
X006606Y004684D03*
X006627Y004677D03*
X006655Y004670D03*
X006676Y004663D03*
X006705Y004656D03*
X006492Y004712D03*
X006478Y004719D03*
X006464Y004719D03*
X006436Y004726D03*
X006414Y004734D03*
X006386Y004741D03*
X006386Y004847D03*
X006414Y004854D03*
X006379Y005116D03*
X006429Y005130D03*
X006478Y005144D03*
X006528Y005158D03*
X006436Y005491D03*
X006429Y005491D03*
X006414Y005491D03*
X006386Y005491D03*
X006379Y005491D03*
X006365Y005491D03*
X006337Y005491D03*
X006322Y005491D03*
X006315Y005491D03*
X006287Y005491D03*
X006273Y005491D03*
X006259Y005491D03*
X006237Y005491D03*
X006223Y005491D03*
X006209Y005491D03*
X006436Y005739D03*
X006436Y005888D03*
X006429Y005888D03*
X006414Y005888D03*
X006386Y005888D03*
X006379Y005888D03*
X006365Y005888D03*
X006337Y005888D03*
X006322Y005888D03*
X006315Y005888D03*
X006287Y005888D03*
X006273Y005888D03*
X006259Y005888D03*
X006237Y005888D03*
X006223Y005888D03*
X006209Y005888D03*
X006209Y006036D03*
X006223Y006036D03*
X006237Y006036D03*
X006259Y006036D03*
X006273Y006036D03*
X006287Y006036D03*
X006315Y006036D03*
X006322Y006036D03*
X006337Y006036D03*
X006365Y006036D03*
X006379Y006036D03*
X006386Y006036D03*
X006414Y006036D03*
X006429Y006036D03*
X006436Y006036D03*
X006464Y006036D03*
X006478Y006036D03*
X006492Y006036D03*
X006514Y006036D03*
X006528Y006036D03*
X006542Y006036D03*
X006542Y005888D03*
X006528Y005888D03*
X006514Y005888D03*
X006492Y005888D03*
X006478Y005888D03*
X006464Y005888D03*
X006563Y005888D03*
X006577Y005888D03*
X006627Y005888D03*
X006641Y005888D03*
X006655Y005888D03*
X006676Y005888D03*
X006691Y005888D03*
X006705Y005888D03*
X006542Y006440D03*
X006528Y006440D03*
X006514Y006440D03*
X006492Y006440D03*
X006478Y006440D03*
X006464Y006440D03*
X006436Y006440D03*
X006429Y006440D03*
X006414Y006440D03*
X006386Y006440D03*
X006379Y006440D03*
X006365Y006440D03*
X006337Y006440D03*
X006322Y006440D03*
X006315Y006440D03*
X006287Y006440D03*
X006273Y006440D03*
X006259Y006440D03*
X006237Y006440D03*
X006223Y006440D03*
X006209Y006440D03*
D31*
X006209Y006238D03*
X006464Y005735D03*
X006464Y005495D03*
X006478Y005495D03*
X006563Y005169D03*
X006577Y005169D03*
X006592Y005176D03*
X006641Y005190D03*
X006676Y005197D03*
X006705Y005204D03*
X006542Y005162D03*
X006514Y005155D03*
X006492Y005148D03*
X006464Y005141D03*
X006414Y005126D03*
X006386Y005119D03*
X006209Y005070D03*
X006563Y004695D03*
X006613Y004680D03*
X006641Y004673D03*
X006691Y004659D03*
X006492Y004567D03*
X006478Y004574D03*
X006287Y004567D03*
X006287Y004341D03*
X006273Y004192D03*
X006273Y003625D03*
X006287Y003625D03*
X006259Y003625D03*
X006237Y003625D03*
X006223Y003625D03*
X006209Y003625D03*
X006315Y003477D03*
X006464Y003477D03*
X006478Y003229D03*
X006464Y003222D03*
X006315Y003222D03*
D32*
X006365Y003484D03*
X006379Y003484D03*
X006386Y003484D03*
X006414Y003484D03*
X006429Y003484D03*
X006528Y003484D03*
X006542Y003484D03*
X006563Y003484D03*
X006577Y003484D03*
X006592Y003484D03*
X006606Y003484D03*
X006613Y003484D03*
X006627Y003484D03*
X006641Y003484D03*
X006655Y003484D03*
X006676Y003484D03*
X006691Y003484D03*
X006705Y003484D03*
X006577Y003809D03*
X006563Y003809D03*
X006542Y003809D03*
X006237Y003484D03*
X006223Y003484D03*
X006209Y003484D03*
X006337Y004192D03*
X006478Y004185D03*
X006464Y004333D03*
X006478Y004341D03*
X006429Y004326D03*
X006337Y004588D03*
X006379Y004744D03*
X006429Y004730D03*
X006379Y004843D03*
X006429Y004857D03*
X006436Y004857D03*
X006464Y004864D03*
X006478Y004872D03*
X006492Y004872D03*
X006514Y004879D03*
X006528Y004879D03*
X006492Y004992D03*
X006478Y004992D03*
X006464Y004999D03*
X006429Y005006D03*
X006429Y005346D03*
X006436Y005346D03*
X006414Y005346D03*
X006386Y005346D03*
X006379Y005346D03*
X006365Y005346D03*
X006337Y005346D03*
X006322Y005346D03*
X006315Y005346D03*
X006287Y005346D03*
X006273Y005346D03*
X006259Y005346D03*
X006237Y005346D03*
X006223Y005346D03*
X006209Y005346D03*
X006464Y005346D03*
X006478Y005346D03*
X006492Y005346D03*
X006514Y005346D03*
X006528Y005346D03*
X006542Y005346D03*
X006563Y005346D03*
X006577Y005346D03*
X006627Y005346D03*
X006641Y005346D03*
X006655Y005346D03*
X006676Y005346D03*
X006691Y005346D03*
X006705Y005346D03*
X006577Y005743D03*
X006563Y005743D03*
X006542Y005743D03*
X006528Y005743D03*
X006429Y005743D03*
X006414Y005743D03*
X006386Y005743D03*
X006379Y005743D03*
X006365Y005743D03*
X006337Y005743D03*
X006322Y005743D03*
X006315Y005743D03*
X006287Y005743D03*
X006273Y005743D03*
X006259Y005743D03*
X006237Y005743D03*
X006223Y005743D03*
X006209Y005743D03*
X006478Y006153D03*
X006528Y006139D03*
X006492Y006323D03*
X006478Y006323D03*
X006514Y006330D03*
X006528Y006337D03*
X006542Y006337D03*
X006436Y006309D03*
X006429Y006309D03*
X006379Y006295D03*
D33*
X006478Y005732D03*
X006492Y005505D03*
X006655Y005194D03*
X006691Y005201D03*
X006223Y005066D03*
X006223Y004797D03*
X006209Y004797D03*
X006436Y003962D03*
X006478Y003473D03*
X006287Y002907D03*
X006322Y002878D03*
X006464Y002751D03*
D34*
X006223Y003321D03*
X006386Y004107D03*
X006209Y004454D03*
X006365Y004794D03*
X006365Y005070D03*
X006563Y006082D03*
X006563Y006394D03*
X006577Y006394D03*
D35*
X006627Y006401D03*
X006641Y006401D03*
X006322Y006238D03*
X006315Y006238D03*
X006337Y005070D03*
X006209Y004121D03*
D36*
X006315Y004199D03*
X006379Y003951D03*
X006386Y003951D03*
X006223Y003951D03*
X006209Y003951D03*
X006577Y003314D03*
X006528Y004985D03*
X006514Y004985D03*
X006464Y006316D03*
D37*
X006287Y006238D03*
X006273Y006238D03*
X006287Y005070D03*
X006287Y004794D03*
X006273Y003455D03*
X006209Y003321D03*
X006563Y003314D03*
D38*
X006259Y003363D03*
X006259Y002818D03*
X006237Y002818D03*
X006223Y002818D03*
X006209Y002818D03*
X006514Y005622D03*
D39*
X006216Y006238D03*
X006507Y004362D03*
X006507Y003972D03*
X006308Y002889D03*
X006358Y002846D03*
X006457Y002754D03*
X006485Y002733D03*
D40*
X006216Y004457D03*
D41*
X006216Y004121D03*
X006358Y004794D03*
X006535Y004928D03*
X006556Y006082D03*
X006584Y006394D03*
D42*
X006457Y006316D03*
X006811Y006167D03*
X006507Y004985D03*
X006308Y004199D03*
X006294Y004199D03*
X006216Y003951D03*
D43*
X006216Y003321D03*
X006556Y003314D03*
X006344Y004794D03*
X006556Y005573D03*
D44*
X006237Y005070D03*
X006287Y003965D03*
X006287Y003236D03*
X006492Y003236D03*
X006315Y002882D03*
X006365Y002839D03*
X006414Y002797D03*
X006429Y002783D03*
X006478Y002740D03*
X006223Y006238D03*
D45*
X006223Y004454D03*
X006528Y003314D03*
D46*
X006223Y004121D03*
D47*
X006280Y004195D03*
X006330Y004195D03*
X006471Y004337D03*
X006471Y004578D03*
X006330Y004585D03*
X006422Y004734D03*
X006471Y004719D03*
X006521Y004705D03*
X006570Y004691D03*
X006599Y004684D03*
X006620Y004677D03*
X006648Y004670D03*
X006471Y005144D03*
X006422Y005130D03*
X006422Y005491D03*
X006372Y005491D03*
X006330Y005491D03*
X006280Y005491D03*
X006230Y005491D03*
X006230Y005888D03*
X006280Y005888D03*
X006330Y005888D03*
X006372Y005888D03*
X006422Y005888D03*
X006471Y005888D03*
X006521Y005888D03*
X006570Y005888D03*
X006648Y005888D03*
X006698Y005888D03*
X006521Y006036D03*
X006471Y006036D03*
X006422Y006036D03*
X006372Y006036D03*
X006330Y006036D03*
X006280Y006036D03*
X006230Y006036D03*
X006230Y006440D03*
X006280Y006440D03*
X006330Y006440D03*
X006372Y006440D03*
X006422Y006440D03*
X006471Y006440D03*
X006521Y006440D03*
X006471Y003955D03*
X006330Y003955D03*
X006330Y003806D03*
X006372Y003806D03*
X006422Y003806D03*
X006280Y003806D03*
X006230Y003806D03*
X006330Y003480D03*
X006330Y003218D03*
X006372Y003211D03*
X006422Y003211D03*
X006422Y003069D03*
X006471Y003069D03*
X006521Y003069D03*
X006570Y003069D03*
X006648Y003069D03*
X006698Y003069D03*
X006372Y003069D03*
X006330Y003069D03*
X006280Y003069D03*
X006230Y003069D03*
D48*
X006280Y003243D03*
X006372Y002832D03*
X006422Y002790D03*
X006230Y006238D03*
D49*
X006372Y006295D03*
X006422Y006309D03*
X006471Y006323D03*
X006521Y006330D03*
X006471Y006153D03*
X006422Y005743D03*
X006372Y005743D03*
X006330Y005743D03*
X006280Y005743D03*
X006230Y005743D03*
X006521Y005743D03*
X006570Y005743D03*
X006889Y006033D03*
X006889Y006302D03*
X006889Y006436D03*
X006698Y005346D03*
X006648Y005346D03*
X006570Y005346D03*
X006521Y005346D03*
X006471Y005346D03*
X006422Y005346D03*
X006372Y005346D03*
X006330Y005346D03*
X006280Y005346D03*
X006230Y005346D03*
X006422Y005006D03*
X006521Y004879D03*
X006471Y004864D03*
X006422Y004857D03*
X006471Y004185D03*
X006570Y003809D03*
X006570Y003682D03*
X006570Y003484D03*
X006599Y003484D03*
X006620Y003484D03*
X006648Y003484D03*
X006698Y003484D03*
X006422Y003484D03*
X006372Y003484D03*
X006230Y003484D03*
D50*
X006471Y003473D03*
X006471Y002744D03*
X006280Y004564D03*
X006230Y005066D03*
D51*
X006230Y004794D03*
X006471Y003795D03*
D52*
X006230Y004457D03*
D53*
X006230Y004121D03*
D54*
X006230Y003951D03*
X006372Y003951D03*
X006521Y004985D03*
X006422Y006167D03*
X006889Y006167D03*
D55*
X006471Y005735D03*
X006471Y005495D03*
X006570Y005169D03*
X006599Y005176D03*
X006648Y005190D03*
X006698Y005204D03*
X006521Y005155D03*
X006698Y004659D03*
X006280Y003625D03*
X006230Y003625D03*
X006471Y003222D03*
D56*
X006230Y003317D03*
D57*
X006521Y003363D03*
X006230Y002818D03*
D58*
X006429Y003972D03*
X006259Y006238D03*
X006237Y006238D03*
D59*
X006492Y005725D03*
X006676Y004932D03*
X006237Y004797D03*
X006365Y004160D03*
X006287Y003466D03*
X006492Y003466D03*
D60*
X006542Y004068D03*
X006237Y004457D03*
D61*
X006237Y004068D03*
D62*
X006237Y003317D03*
D63*
X006245Y006238D03*
D64*
X006245Y005066D03*
D65*
X006245Y004797D03*
X006662Y004932D03*
X006684Y004932D03*
D66*
X006245Y004457D03*
X006535Y004068D03*
D67*
X006245Y004071D03*
D68*
X006556Y004457D03*
X006245Y003317D03*
D69*
X006252Y006238D03*
D70*
X006252Y005066D03*
X006499Y003246D03*
D71*
X006252Y004454D03*
D72*
X006252Y004071D03*
D73*
X006478Y003788D03*
X006273Y003250D03*
X006259Y004794D03*
X006259Y005070D03*
D74*
X006259Y004457D03*
D75*
X006259Y004075D03*
D76*
X006485Y003781D03*
X006294Y005070D03*
X006712Y006061D03*
X006266Y006238D03*
D77*
X006266Y005070D03*
D78*
X006266Y004797D03*
X006634Y004932D03*
D79*
X006266Y004457D03*
D80*
X006294Y004797D03*
X006266Y003983D03*
X006684Y006065D03*
X006712Y006412D03*
D81*
X006507Y005619D03*
X006266Y003360D03*
D82*
X006577Y004068D03*
X006273Y004797D03*
X006273Y005066D03*
X006641Y004932D03*
X006655Y004932D03*
D83*
X006691Y004935D03*
X006273Y004553D03*
X006273Y004355D03*
X006542Y003696D03*
X006379Y002825D03*
X006386Y002818D03*
X006436Y002776D03*
X006492Y002726D03*
D84*
X006273Y003976D03*
D85*
X006273Y002815D03*
D86*
X006280Y004794D03*
X006280Y006238D03*
D87*
X006280Y005066D03*
X006648Y004932D03*
D88*
X006620Y005183D03*
X006280Y004348D03*
D89*
X006280Y003969D03*
D90*
X006280Y003462D03*
X006570Y003314D03*
X006570Y005573D03*
D91*
X006698Y004932D03*
X006280Y002914D03*
X006330Y002871D03*
D92*
X006308Y006238D03*
X006294Y006238D03*
D93*
X006301Y006238D03*
D94*
X006301Y005066D03*
X006301Y004797D03*
D95*
X006499Y004564D03*
X006549Y003693D03*
X006301Y003473D03*
X006351Y002850D03*
X006400Y002807D03*
D96*
X006301Y002896D03*
X006499Y005509D03*
D97*
X006308Y005070D03*
X006308Y004794D03*
X006662Y006068D03*
X006684Y006408D03*
D98*
X006691Y006408D03*
X006676Y006408D03*
X006676Y006068D03*
X006655Y006068D03*
X006563Y005573D03*
X006322Y005070D03*
X006315Y005070D03*
X006315Y004794D03*
X006322Y004794D03*
D99*
X006471Y004995D03*
X006521Y006143D03*
X006372Y006178D03*
X006330Y006192D03*
X006330Y006284D03*
D100*
X006330Y005066D03*
D101*
X006330Y004794D03*
X006422Y003994D03*
X006599Y006075D03*
X006620Y006075D03*
D102*
X006542Y006136D03*
X006514Y006143D03*
X006492Y006150D03*
X006464Y006157D03*
X006386Y006178D03*
X006379Y006178D03*
X006365Y006185D03*
X006337Y006284D03*
X006365Y006291D03*
X006386Y006298D03*
X006414Y006305D03*
X006804Y006298D03*
X006804Y006433D03*
X006804Y006029D03*
X006436Y005003D03*
X006414Y005010D03*
X006386Y005017D03*
X006379Y005017D03*
X006464Y004188D03*
D103*
X006577Y003675D03*
X006896Y006033D03*
X006903Y006033D03*
X006903Y006302D03*
X006896Y006302D03*
X006896Y006436D03*
X006903Y006436D03*
X006337Y006189D03*
D104*
X006606Y006075D03*
X006613Y006075D03*
X006563Y004928D03*
X006337Y004794D03*
D105*
X006592Y004687D03*
X006492Y004348D03*
X006436Y005134D03*
X006613Y005183D03*
X006627Y005183D03*
X006577Y005573D03*
X006337Y003215D03*
D106*
X006337Y002864D03*
X006464Y003799D03*
X006705Y004932D03*
X006606Y005180D03*
D107*
X006443Y005003D03*
X006407Y005010D03*
X006485Y006150D03*
X006457Y006157D03*
X006358Y006185D03*
X006344Y006185D03*
X006358Y006291D03*
D108*
X006634Y006401D03*
X006344Y005070D03*
D109*
X006400Y005010D03*
X006351Y006185D03*
D110*
X006351Y005070D03*
D111*
X006351Y004794D03*
D112*
X006351Y004592D03*
D113*
X006358Y005073D03*
X006584Y006079D03*
D114*
X006358Y004592D03*
D115*
X006365Y004457D03*
X006379Y004457D03*
X006386Y004457D03*
D116*
X006372Y004794D03*
X006372Y005070D03*
X006570Y006394D03*
D117*
X006372Y004457D03*
D118*
X006372Y004142D03*
X006698Y006408D03*
D119*
X006613Y006398D03*
X006606Y006398D03*
X006592Y006398D03*
X006592Y006079D03*
X006577Y006079D03*
X006379Y004125D03*
D120*
X006393Y004457D03*
D121*
X006393Y004050D03*
D122*
X006457Y003799D03*
X006393Y002815D03*
X006712Y004932D03*
X006634Y005187D03*
D123*
X006499Y004988D03*
X006400Y006171D03*
D124*
X006400Y004457D03*
D125*
X006400Y004043D03*
D126*
X006407Y004461D03*
D127*
X006407Y004032D03*
D128*
X006429Y006164D03*
X006436Y006164D03*
X006414Y006171D03*
X006804Y006164D03*
D129*
X006414Y004461D03*
D130*
X006414Y004015D03*
D131*
X006422Y004461D03*
D132*
X006429Y004592D03*
X006436Y004592D03*
D133*
X006584Y004687D03*
X006443Y005134D03*
X006443Y003802D03*
X006443Y003215D03*
D134*
X006450Y003802D03*
D135*
X006450Y002761D03*
D136*
X006492Y003746D03*
X006514Y003746D03*
X006528Y003746D03*
D137*
X006499Y003459D03*
X006499Y005718D03*
D138*
X006499Y003746D03*
D139*
X006499Y002815D03*
X006549Y002815D03*
D140*
X006535Y003314D03*
X006507Y003746D03*
X006535Y005573D03*
D141*
X006507Y003356D03*
D142*
X006507Y002815D03*
X006535Y002815D03*
X006556Y002815D03*
D143*
X006514Y004071D03*
X006514Y004461D03*
D144*
X006514Y003360D03*
D145*
X006514Y002815D03*
X006528Y002815D03*
X006542Y002815D03*
X006563Y002815D03*
X006577Y002815D03*
D146*
X006521Y005573D03*
D147*
X006521Y004457D03*
X006521Y004068D03*
D148*
X006521Y003746D03*
D149*
X006521Y002815D03*
X006570Y002815D03*
D150*
X006528Y005576D03*
D151*
X006528Y004457D03*
D152*
X006528Y004071D03*
D153*
X006535Y004457D03*
D154*
X006542Y005573D03*
X006542Y003314D03*
D155*
X006542Y004932D03*
D156*
X006542Y004457D03*
D157*
X006549Y006390D03*
D158*
X006549Y006082D03*
X006549Y005573D03*
D159*
X006549Y004932D03*
D160*
X006549Y004457D03*
D161*
X006549Y004068D03*
D162*
X006549Y003314D03*
D163*
X006556Y006390D03*
D164*
X006556Y004932D03*
D165*
X006556Y004071D03*
D166*
X006563Y004068D03*
X006563Y004457D03*
D167*
X006570Y004457D03*
X006570Y004068D03*
X006570Y006079D03*
X006599Y006398D03*
D168*
X006648Y006405D03*
X006648Y006072D03*
X006570Y004932D03*
D169*
X006577Y004932D03*
X006592Y004932D03*
X006627Y006072D03*
X006641Y006072D03*
X006655Y006405D03*
D170*
X006705Y006412D03*
X006705Y006065D03*
X006691Y006065D03*
X006627Y004932D03*
X006613Y004932D03*
X006606Y004932D03*
X006577Y004457D03*
D171*
X006584Y005573D03*
D172*
X006634Y006072D03*
X006662Y006405D03*
X006584Y004932D03*
D173*
X006584Y004068D03*
X006861Y005987D03*
X006924Y006029D03*
X006875Y006065D03*
X006861Y006072D03*
X006825Y006065D03*
X006776Y006029D03*
X006861Y006121D03*
X006875Y006128D03*
X006924Y006164D03*
X006875Y006199D03*
X006861Y006206D03*
X006825Y006199D03*
X006776Y006164D03*
X006861Y006256D03*
X006875Y006263D03*
X006924Y006298D03*
X006875Y006334D03*
X006825Y006334D03*
X006776Y006298D03*
X006776Y006433D03*
X006825Y006468D03*
X006875Y006468D03*
X006924Y006433D03*
X006875Y006398D03*
D174*
X006910Y006302D03*
X006910Y006167D03*
X006910Y006033D03*
X006584Y003668D03*
D175*
X006584Y003317D03*
D176*
X006592Y004454D03*
X006931Y006033D03*
X006931Y006167D03*
X006931Y006302D03*
D177*
X006698Y006065D03*
X006620Y004932D03*
X006599Y004932D03*
D178*
X006620Y006401D03*
D179*
X006669Y006405D03*
D180*
X006769Y006433D03*
X006769Y006298D03*
D181*
X006769Y006164D03*
X006769Y006029D03*
D182*
X006790Y006029D03*
X006790Y006164D03*
X006790Y006298D03*
X006790Y006433D03*
D183*
X006797Y006433D03*
X006797Y006298D03*
X006797Y006164D03*
X006797Y006029D03*
D184*
X006818Y006001D03*
X006818Y006058D03*
X006868Y006072D03*
X006917Y006029D03*
X006917Y006164D03*
X006868Y006206D03*
X006818Y006270D03*
X006818Y006327D03*
X006818Y006405D03*
X006818Y006461D03*
X006868Y006475D03*
X006917Y006433D03*
X006917Y006298D03*
X006818Y006136D03*
D185*
X006818Y006192D03*
X006868Y006341D03*
D186*
X006825Y006401D03*
X006861Y006479D03*
X006825Y006267D03*
X006825Y006132D03*
X006825Y005997D03*
D187*
X006832Y005990D03*
X006882Y006061D03*
X006832Y006125D03*
X006882Y006196D03*
X006832Y006259D03*
X006882Y006330D03*
X006832Y006394D03*
X006882Y006465D03*
D188*
X006839Y006390D03*
X006839Y006341D03*
X006832Y006341D03*
D189*
X006861Y006341D03*
X006861Y006390D03*
X006875Y005994D03*
D190*
X006868Y005990D03*
X006868Y006394D03*
D191*
X006868Y006259D03*
X006868Y006125D03*
D192*
X006896Y006167D03*
X006903Y006167D03*
D193*
X006910Y006436D03*
D194*
X007334Y006807D02*
X007834Y006807D01*
X007834Y005707D01*
X007334Y005707D01*
X007334Y006807D01*
X005830Y005547D02*
X005830Y004366D01*
X004649Y004366D01*
X004649Y005336D01*
X004860Y005547D01*
X005830Y005547D01*
X003456Y005204D02*
X003456Y004104D01*
X002956Y004104D01*
X002956Y005204D01*
X003456Y005204D01*
X002904Y005201D02*
X002404Y005201D01*
X002404Y004101D01*
X002904Y004101D01*
X002904Y005201D01*
D195*
X004490Y005707D03*
D196*
X002879Y003228D03*
X002829Y002573D03*
X007358Y002289D03*
M02*
