G75*
%MOIN*%
%OFA0B0*%
%FSLAX24Y24*%
%IPPOS*%
%LPD*%
%AMOC8*
5,1,8,0,0,1.08239X$1,22.5*
%
%ADD10C,0.0039*%
%ADD11C,0.0303*%
%ADD12C,0.0088*%
%ADD13R,0.0276X0.0354*%
D10*
X004866Y004189D02*
X004866Y004465D01*
X004866Y004189D02*
X004826Y004189D01*
X004826Y004465D01*
X004866Y004465D01*
X004866Y004227D02*
X004826Y004227D01*
X004826Y004265D02*
X004866Y004265D01*
X004866Y004303D02*
X004826Y004303D01*
X004826Y004341D02*
X004866Y004341D01*
X004866Y004379D02*
X004826Y004379D01*
X004826Y004417D02*
X004866Y004417D01*
X004866Y004455D02*
X004826Y004455D01*
X005024Y004465D02*
X005024Y004189D01*
X004984Y004189D01*
X004984Y004465D01*
X005024Y004465D01*
X005024Y004227D02*
X004984Y004227D01*
X004984Y004265D02*
X005024Y004265D01*
X005024Y004303D02*
X004984Y004303D01*
X004984Y004341D02*
X005024Y004341D01*
X005024Y004379D02*
X004984Y004379D01*
X004984Y004417D02*
X005024Y004417D01*
X005024Y004455D02*
X004984Y004455D01*
X005181Y004465D02*
X005181Y004189D01*
X005141Y004189D01*
X005141Y004465D01*
X005181Y004465D01*
X005181Y004227D02*
X005141Y004227D01*
X005141Y004265D02*
X005181Y004265D01*
X005181Y004303D02*
X005141Y004303D01*
X005141Y004341D02*
X005181Y004341D01*
X005181Y004379D02*
X005141Y004379D01*
X005141Y004417D02*
X005181Y004417D01*
X005181Y004455D02*
X005141Y004455D01*
X005339Y004465D02*
X005339Y004189D01*
X005299Y004189D01*
X005299Y004465D01*
X005339Y004465D01*
X005339Y004227D02*
X005299Y004227D01*
X005299Y004265D02*
X005339Y004265D01*
X005339Y004303D02*
X005299Y004303D01*
X005299Y004341D02*
X005339Y004341D01*
X005339Y004379D02*
X005299Y004379D01*
X005299Y004417D02*
X005339Y004417D01*
X005339Y004455D02*
X005299Y004455D01*
X005496Y004465D02*
X005496Y004189D01*
X005456Y004189D01*
X005456Y004465D01*
X005496Y004465D01*
X005496Y004227D02*
X005456Y004227D01*
X005456Y004265D02*
X005496Y004265D01*
X005496Y004303D02*
X005456Y004303D01*
X005456Y004341D02*
X005496Y004341D01*
X005496Y004379D02*
X005456Y004379D01*
X005456Y004417D02*
X005496Y004417D01*
X005496Y004455D02*
X005456Y004455D01*
X005654Y004465D02*
X005654Y004189D01*
X005614Y004189D01*
X005614Y004465D01*
X005654Y004465D01*
X005654Y004227D02*
X005614Y004227D01*
X005614Y004265D02*
X005654Y004265D01*
X005654Y004303D02*
X005614Y004303D01*
X005614Y004341D02*
X005654Y004341D01*
X005654Y004379D02*
X005614Y004379D01*
X005614Y004417D02*
X005654Y004417D01*
X005654Y004455D02*
X005614Y004455D01*
X005732Y004583D02*
X006008Y004583D01*
X006008Y004543D01*
X005732Y004543D01*
X005732Y004583D01*
X005732Y004581D02*
X006008Y004581D01*
X006008Y004741D02*
X005732Y004741D01*
X006008Y004741D02*
X006008Y004701D01*
X005732Y004701D01*
X005732Y004741D01*
X005732Y004739D02*
X006008Y004739D01*
X006008Y004898D02*
X005732Y004898D01*
X006008Y004898D02*
X006008Y004858D01*
X005732Y004858D01*
X005732Y004898D01*
X005732Y004896D02*
X006008Y004896D01*
X006008Y005056D02*
X005732Y005056D01*
X006008Y005056D02*
X006008Y005016D01*
X005732Y005016D01*
X005732Y005056D01*
X005732Y005054D02*
X006008Y005054D01*
X006008Y005213D02*
X005732Y005213D01*
X006008Y005213D02*
X006008Y005173D01*
X005732Y005173D01*
X005732Y005213D01*
X005732Y005211D02*
X006008Y005211D01*
X006008Y005371D02*
X005732Y005371D01*
X006008Y005371D02*
X006008Y005331D01*
X005732Y005331D01*
X005732Y005371D01*
X005732Y005369D02*
X006008Y005369D01*
X005614Y005449D02*
X005614Y005725D01*
X005654Y005725D01*
X005654Y005449D01*
X005614Y005449D01*
X005614Y005487D02*
X005654Y005487D01*
X005654Y005525D02*
X005614Y005525D01*
X005614Y005563D02*
X005654Y005563D01*
X005654Y005601D02*
X005614Y005601D01*
X005614Y005639D02*
X005654Y005639D01*
X005654Y005677D02*
X005614Y005677D01*
X005614Y005715D02*
X005654Y005715D01*
X005456Y005725D02*
X005456Y005449D01*
X005456Y005725D02*
X005496Y005725D01*
X005496Y005449D01*
X005456Y005449D01*
X005456Y005487D02*
X005496Y005487D01*
X005496Y005525D02*
X005456Y005525D01*
X005456Y005563D02*
X005496Y005563D01*
X005496Y005601D02*
X005456Y005601D01*
X005456Y005639D02*
X005496Y005639D01*
X005496Y005677D02*
X005456Y005677D01*
X005456Y005715D02*
X005496Y005715D01*
X005299Y005725D02*
X005299Y005449D01*
X005299Y005725D02*
X005339Y005725D01*
X005339Y005449D01*
X005299Y005449D01*
X005299Y005487D02*
X005339Y005487D01*
X005339Y005525D02*
X005299Y005525D01*
X005299Y005563D02*
X005339Y005563D01*
X005339Y005601D02*
X005299Y005601D01*
X005299Y005639D02*
X005339Y005639D01*
X005339Y005677D02*
X005299Y005677D01*
X005299Y005715D02*
X005339Y005715D01*
X005141Y005725D02*
X005141Y005449D01*
X005141Y005725D02*
X005181Y005725D01*
X005181Y005449D01*
X005141Y005449D01*
X005141Y005487D02*
X005181Y005487D01*
X005181Y005525D02*
X005141Y005525D01*
X005141Y005563D02*
X005181Y005563D01*
X005181Y005601D02*
X005141Y005601D01*
X005141Y005639D02*
X005181Y005639D01*
X005181Y005677D02*
X005141Y005677D01*
X005141Y005715D02*
X005181Y005715D01*
X004984Y005725D02*
X004984Y005449D01*
X004984Y005725D02*
X005024Y005725D01*
X005024Y005449D01*
X004984Y005449D01*
X004984Y005487D02*
X005024Y005487D01*
X005024Y005525D02*
X004984Y005525D01*
X004984Y005563D02*
X005024Y005563D01*
X005024Y005601D02*
X004984Y005601D01*
X004984Y005639D02*
X005024Y005639D01*
X005024Y005677D02*
X004984Y005677D01*
X004984Y005715D02*
X005024Y005715D01*
X004826Y005725D02*
X004826Y005449D01*
X004826Y005725D02*
X004866Y005725D01*
X004866Y005449D01*
X004826Y005449D01*
X004826Y005487D02*
X004866Y005487D01*
X004866Y005525D02*
X004826Y005525D01*
X004826Y005563D02*
X004866Y005563D01*
X004866Y005601D02*
X004826Y005601D01*
X004826Y005639D02*
X004866Y005639D01*
X004866Y005677D02*
X004826Y005677D01*
X004826Y005715D02*
X004866Y005715D01*
X004748Y005331D02*
X004472Y005331D01*
X004472Y005371D01*
X004748Y005371D01*
X004748Y005331D01*
X004748Y005369D02*
X004472Y005369D01*
X004472Y005173D02*
X004748Y005173D01*
X004472Y005173D02*
X004472Y005213D01*
X004748Y005213D01*
X004748Y005173D01*
X004748Y005211D02*
X004472Y005211D01*
X004472Y005016D02*
X004748Y005016D01*
X004472Y005016D02*
X004472Y005056D01*
X004748Y005056D01*
X004748Y005016D01*
X004748Y005054D02*
X004472Y005054D01*
X004472Y004858D02*
X004748Y004858D01*
X004472Y004858D02*
X004472Y004898D01*
X004748Y004898D01*
X004748Y004858D01*
X004748Y004896D02*
X004472Y004896D01*
X004472Y004701D02*
X004748Y004701D01*
X004472Y004701D02*
X004472Y004741D01*
X004748Y004741D01*
X004748Y004701D01*
X004748Y004739D02*
X004472Y004739D01*
X004472Y004543D02*
X004748Y004543D01*
X004472Y004543D02*
X004472Y004583D01*
X004748Y004583D01*
X004748Y004543D01*
X004748Y004581D02*
X004472Y004581D01*
D11*
X005057Y004805D02*
X005423Y004805D01*
X005057Y004805D02*
X005057Y005109D01*
X005423Y005109D01*
X005423Y004805D01*
X005423Y005107D02*
X005057Y005107D01*
D12*
X003337Y005085D02*
X003337Y004823D01*
X003075Y004823D01*
X003075Y005085D01*
X003337Y005085D01*
X003337Y004910D02*
X003075Y004910D01*
X003075Y004997D02*
X003337Y004997D01*
X003337Y005084D02*
X003075Y005084D01*
X002523Y005082D02*
X002523Y004820D01*
X002523Y005082D02*
X002785Y005082D01*
X002785Y004820D01*
X002523Y004820D01*
X002523Y004907D02*
X002785Y004907D01*
X002785Y004994D02*
X002523Y004994D01*
X002523Y005081D02*
X002785Y005081D01*
X002523Y004482D02*
X002523Y004220D01*
X002523Y004482D02*
X002785Y004482D01*
X002785Y004220D01*
X002523Y004220D01*
X002523Y004307D02*
X002785Y004307D01*
X002785Y004394D02*
X002523Y004394D01*
X002523Y004481D02*
X002785Y004481D01*
X003337Y004485D02*
X003337Y004223D01*
X003075Y004223D01*
X003075Y004485D01*
X003337Y004485D01*
X003337Y004310D02*
X003075Y004310D01*
X003075Y004397D02*
X003337Y004397D01*
X003337Y004484D02*
X003075Y004484D01*
X007715Y005826D02*
X007715Y006088D01*
X007715Y005826D02*
X007453Y005826D01*
X007453Y006088D01*
X007715Y006088D01*
X007715Y005913D02*
X007453Y005913D01*
X007453Y006000D02*
X007715Y006000D01*
X007715Y006087D02*
X007453Y006087D01*
X007715Y006426D02*
X007715Y006688D01*
X007715Y006426D02*
X007453Y006426D01*
X007453Y006688D01*
X007715Y006688D01*
X007715Y006513D02*
X007453Y006513D01*
X007453Y006600D02*
X007715Y006600D01*
X007715Y006687D02*
X007453Y006687D01*
D13*
X002573Y002573D03*
X003085Y002573D03*
X003135Y003228D03*
X002623Y003228D03*
X007102Y002289D03*
X007614Y002289D03*
M02*
