G75*
%MOIN*%
%OFA0B0*%
%FSLAX24Y24*%
%IPPOS*%
%LPD*%
%AMOC8*
5,1,8,0,0,1.08239X$1,22.5*
%
%ADD10C,0.0040*%
D10*
X001188Y000320D02*
X001188Y000453D01*
X001188Y000541D02*
X001388Y000541D01*
X001388Y000641D01*
X001355Y000674D01*
X001288Y000674D01*
X001255Y000641D01*
X001255Y000541D01*
X001188Y000762D02*
X001255Y000829D01*
X001188Y000895D01*
X001388Y000895D01*
X001388Y000762D02*
X001188Y000762D01*
X001188Y000320D02*
X001388Y000320D01*
X001347Y001367D02*
X001314Y001367D01*
X001280Y001401D01*
X001280Y001467D01*
X001247Y001501D01*
X001214Y001501D01*
X001180Y001467D01*
X001180Y001401D01*
X001214Y001367D01*
X001347Y001367D02*
X001380Y001401D01*
X001380Y001467D01*
X001347Y001501D01*
X001347Y001588D02*
X001214Y001588D01*
X001180Y001622D01*
X001180Y001688D01*
X001214Y001722D01*
X001180Y001809D02*
X001180Y001943D01*
X001180Y001809D02*
X001380Y001809D01*
X001347Y001722D02*
X001380Y001688D01*
X001380Y001622D01*
X001347Y001588D01*
X001355Y002328D02*
X001322Y002328D01*
X001288Y002361D01*
X001288Y002428D01*
X001255Y002461D01*
X001222Y002461D01*
X001188Y002428D01*
X001188Y002361D01*
X001222Y002328D01*
X001355Y002328D02*
X001388Y002361D01*
X001388Y002428D01*
X001355Y002461D01*
X001388Y002549D02*
X001188Y002549D01*
X001188Y002649D01*
X001222Y002682D01*
X001355Y002682D01*
X001388Y002649D01*
X001388Y002549D01*
X001322Y002770D02*
X001188Y002770D01*
X001288Y002770D02*
X001288Y002903D01*
X001322Y002903D02*
X001188Y002903D01*
X001322Y002903D02*
X001388Y002837D01*
X001322Y002770D01*
X001355Y003273D02*
X001222Y003273D01*
X001188Y003306D01*
X001188Y003373D01*
X001222Y003406D01*
X001288Y003406D01*
X001288Y003339D01*
X001355Y003273D02*
X001388Y003306D01*
X001388Y003373D01*
X001355Y003406D01*
X001388Y003494D02*
X001188Y003494D01*
X001188Y003627D02*
X001388Y003627D01*
X001388Y003715D02*
X001388Y003815D01*
X001355Y003848D01*
X001222Y003848D01*
X001188Y003815D01*
X001188Y003715D01*
X001388Y003715D01*
X001188Y003627D02*
X001388Y003494D01*
X001385Y004342D02*
X001251Y004342D01*
X001184Y004409D01*
X001251Y004476D01*
X001385Y004476D01*
X001351Y004563D02*
X001218Y004563D01*
X001184Y004596D01*
X001184Y004663D01*
X001218Y004697D01*
X001218Y004784D02*
X001184Y004817D01*
X001184Y004884D01*
X001218Y004917D01*
X001218Y004784D02*
X001351Y004784D01*
X001385Y004817D01*
X001385Y004884D01*
X001351Y004917D01*
X001351Y004697D02*
X001385Y004663D01*
X001385Y004596D01*
X001351Y004563D01*
X001308Y005289D02*
X001308Y005389D01*
X001275Y005422D01*
X001241Y005422D01*
X001208Y005389D01*
X001208Y005289D01*
X001408Y005289D01*
X001408Y005389D01*
X001375Y005422D01*
X001341Y005422D01*
X001308Y005389D01*
X001308Y005510D02*
X001308Y005643D01*
X001341Y005643D02*
X001208Y005643D01*
X001208Y005510D02*
X001341Y005510D01*
X001408Y005577D01*
X001341Y005643D01*
X001408Y005731D02*
X001408Y005864D01*
X001408Y005798D02*
X001208Y005798D01*
X006924Y005844D02*
X007058Y005844D01*
X007125Y005777D01*
X007058Y005710D01*
X006924Y005710D01*
X006958Y005623D02*
X006924Y005589D01*
X006924Y005489D01*
X007125Y005489D01*
X007125Y005589D01*
X007091Y005623D01*
X007058Y005623D01*
X007024Y005589D01*
X007024Y005489D01*
X007024Y005589D02*
X006991Y005623D01*
X006958Y005623D01*
X007024Y005710D02*
X007024Y005844D01*
X007125Y005931D02*
X007125Y006065D01*
X007125Y005998D02*
X006924Y005998D01*
X007021Y004915D02*
X006987Y004882D01*
X006987Y004815D01*
X007021Y004782D01*
X007154Y004782D01*
X007188Y004815D01*
X007188Y004882D01*
X007154Y004915D01*
X007154Y004694D02*
X007188Y004661D01*
X007188Y004594D01*
X007154Y004561D01*
X007021Y004561D01*
X006987Y004594D01*
X006987Y004661D01*
X007021Y004694D01*
X007054Y004473D02*
X007188Y004473D01*
X007188Y004340D02*
X007054Y004340D01*
X006987Y004406D01*
X007054Y004473D01*
X007115Y003931D02*
X006981Y003931D01*
X006948Y003897D01*
X006948Y003797D01*
X007148Y003797D01*
X007148Y003897D01*
X007115Y003931D01*
X007148Y003710D02*
X006948Y003710D01*
X007148Y003576D01*
X006948Y003576D01*
X006981Y003489D02*
X007048Y003489D01*
X007048Y003422D01*
X006981Y003355D02*
X006948Y003389D01*
X006948Y003456D01*
X006981Y003489D01*
X006981Y003355D02*
X007115Y003355D01*
X007148Y003389D01*
X007148Y003456D01*
X007115Y003489D01*
X007121Y002947D02*
X006987Y002947D01*
X007087Y002947D02*
X007087Y002813D01*
X007121Y002813D02*
X006987Y002813D01*
X007021Y002726D02*
X007154Y002726D01*
X007188Y002692D01*
X007188Y002592D01*
X006987Y002592D01*
X006987Y002692D01*
X007021Y002726D01*
X007121Y002813D02*
X007188Y002880D01*
X007121Y002947D01*
X007154Y002505D02*
X007188Y002471D01*
X007188Y002405D01*
X007154Y002371D01*
X007121Y002371D01*
X007087Y002405D01*
X007087Y002471D01*
X007054Y002505D01*
X007021Y002505D01*
X006987Y002471D01*
X006987Y002405D01*
X007021Y002371D01*
X006948Y002002D02*
X006948Y001868D01*
X007148Y001868D01*
X007115Y001781D02*
X007148Y001747D01*
X007148Y001681D01*
X007115Y001647D01*
X006981Y001647D01*
X006948Y001681D01*
X006948Y001747D01*
X006981Y001781D01*
X006981Y001560D02*
X006948Y001526D01*
X006948Y001460D01*
X006981Y001426D01*
X007048Y001460D02*
X007048Y001526D01*
X007015Y001560D01*
X006981Y001560D01*
X007048Y001460D02*
X007081Y001426D01*
X007115Y001426D01*
X007148Y001460D01*
X007148Y001526D01*
X007115Y001560D01*
X007148Y000939D02*
X006948Y000939D01*
X007015Y000872D01*
X006948Y000805D01*
X007148Y000805D01*
X007115Y000718D02*
X007048Y000718D01*
X007015Y000684D01*
X007015Y000584D01*
X006948Y000584D02*
X007148Y000584D01*
X007148Y000684D01*
X007115Y000718D01*
X006948Y000497D02*
X006948Y000363D01*
X007148Y000363D01*
M02*
