G75*
%MOIN*%
%OFA0B0*%
%FSLAX24Y24*%
%IPPOS*%
%LPD*%
%AMOC8*
5,1,8,0,0,1.08239X$1,22.5*
%
%ADD10C,0.0000*%
%ADD11R,0.0276X0.0354*%
%ADD12R,0.0118X0.0315*%
%ADD13R,0.0315X0.0118*%
%ADD14C,0.0740*%
%ADD15C,0.0160*%
%ADD16C,0.0376*%
%ADD17C,0.0120*%
%ADD18C,0.0100*%
D10*
X000278Y000276D02*
X000278Y006265D01*
X008095Y006272D01*
X008091Y000276D01*
X000278Y000276D01*
D11*
X003952Y000635D03*
X004463Y000635D03*
X004471Y001371D03*
X003960Y001371D03*
X003975Y002060D03*
X004487Y002060D03*
X004412Y004835D03*
X003900Y004835D03*
D12*
X004176Y003643D03*
X004176Y002894D03*
D13*
X003802Y002973D03*
X003802Y003170D03*
X003802Y003367D03*
X003802Y003564D03*
X004550Y003564D03*
X004550Y003367D03*
X004550Y003170D03*
X004550Y002973D03*
D14*
X007684Y002682D03*
X007684Y003682D03*
X007684Y004682D03*
X007684Y005682D03*
X007684Y001682D03*
X007684Y000682D03*
X000684Y000682D03*
X000684Y001682D03*
X000684Y002682D03*
X000684Y003682D03*
X000684Y004682D03*
X000684Y005682D03*
D15*
X001052Y006035D02*
X007322Y006042D01*
X007252Y005971D01*
X007174Y005783D01*
X007174Y005580D01*
X007252Y005393D01*
X007395Y005250D01*
X007558Y005182D01*
X007395Y005114D01*
X007371Y005090D01*
X007361Y005100D01*
X004663Y005100D01*
X004653Y005110D01*
X004650Y005110D01*
X004608Y005153D01*
X004216Y005153D01*
X004156Y005092D01*
X004096Y005153D01*
X003705Y005153D01*
X003623Y005071D01*
X003623Y004840D01*
X003610Y004828D01*
X003610Y004826D01*
X003609Y004825D01*
X003610Y004744D01*
X003610Y004662D01*
X003611Y004661D01*
X003619Y004037D01*
X002338Y004037D01*
X002261Y004038D01*
X002260Y004037D01*
X002259Y004037D01*
X002204Y003982D01*
X002148Y003928D01*
X002148Y003927D01*
X002147Y003926D01*
X002147Y003848D01*
X002138Y002884D01*
X001152Y002884D01*
X001116Y002971D01*
X000973Y003114D01*
X000860Y003161D01*
X000895Y003172D01*
X000972Y003211D01*
X001042Y003262D01*
X001103Y003324D01*
X001154Y003394D01*
X001194Y003471D01*
X001220Y003553D01*
X001234Y003639D01*
X001234Y003662D01*
X000704Y003662D01*
X000704Y003702D01*
X001234Y003702D01*
X001234Y003725D01*
X001220Y003811D01*
X001194Y003893D01*
X001154Y003970D01*
X001103Y004040D01*
X001042Y004101D01*
X000972Y004152D01*
X000895Y004192D01*
X000860Y004203D01*
X000973Y004250D01*
X001116Y004393D01*
X001194Y004580D01*
X001194Y004783D01*
X001116Y004971D01*
X000973Y005114D01*
X000810Y005182D01*
X000973Y005250D01*
X001116Y005393D01*
X001194Y005580D01*
X001194Y005783D01*
X001116Y005971D01*
X001052Y006035D01*
X001139Y005916D02*
X007229Y005916D01*
X007174Y005758D02*
X001194Y005758D01*
X001194Y005599D02*
X007174Y005599D01*
X007232Y005441D02*
X001136Y005441D01*
X001005Y005282D02*
X007363Y005282D01*
X007417Y005124D02*
X004637Y005124D01*
X004770Y004720D02*
X007092Y004720D01*
X007092Y004687D01*
X007092Y004609D01*
X007092Y004608D01*
X007092Y004607D01*
X007147Y004552D01*
X007202Y004497D01*
X007203Y004497D01*
X007204Y004496D01*
X007209Y004496D01*
X007252Y004393D01*
X007395Y004250D01*
X007508Y004203D01*
X007473Y004192D01*
X007396Y004152D01*
X007326Y004101D01*
X007264Y004040D01*
X007214Y003970D01*
X007174Y003893D01*
X007147Y003811D01*
X007134Y003725D01*
X007134Y003702D01*
X007664Y003702D01*
X007664Y003662D01*
X007134Y003662D01*
X007134Y003639D01*
X007147Y003553D01*
X007174Y003471D01*
X007214Y003394D01*
X007264Y003324D01*
X007326Y003262D01*
X007396Y003211D01*
X007473Y003172D01*
X007508Y003161D01*
X007395Y003114D01*
X007252Y002971D01*
X007174Y002783D01*
X007174Y002580D01*
X007252Y002393D01*
X007395Y002250D01*
X007558Y002182D01*
X007395Y002114D01*
X007252Y001971D01*
X007174Y001783D01*
X007174Y001580D01*
X007252Y001393D01*
X007395Y001250D01*
X007558Y001182D01*
X007395Y001114D01*
X007252Y000971D01*
X007211Y000873D01*
X006016Y000875D01*
X006016Y001832D01*
X006018Y001907D01*
X006016Y001910D01*
X006016Y001914D01*
X005962Y001967D01*
X005911Y002022D01*
X005907Y002023D01*
X005904Y002025D01*
X005889Y002025D01*
X005887Y002029D01*
X005795Y002121D01*
X005674Y002171D01*
X005544Y002171D01*
X005423Y002121D01*
X005331Y002029D01*
X005281Y001909D01*
X005281Y001778D01*
X005331Y001657D01*
X005423Y001565D01*
X005544Y001515D01*
X005636Y001515D01*
X005636Y000686D01*
X005636Y000608D01*
X005636Y000607D01*
X005691Y000552D01*
X005736Y000506D01*
X004781Y000506D01*
X004781Y000635D01*
X004781Y000836D01*
X004769Y000881D01*
X004745Y000922D01*
X004712Y000956D01*
X004671Y000980D01*
X004664Y000981D01*
X004665Y001054D01*
X004667Y001054D01*
X004749Y001136D01*
X004749Y001606D01*
X004696Y001659D01*
X004695Y001689D01*
X004700Y001760D01*
X004765Y001825D01*
X004765Y002295D01*
X004703Y002357D01*
X004720Y002580D01*
X004883Y002580D01*
X004884Y002579D01*
X004965Y002580D01*
X005046Y002580D01*
X005048Y002582D01*
X005631Y002592D01*
X005712Y002592D01*
X005713Y002594D01*
X005715Y002594D01*
X005771Y002652D01*
X005829Y002709D01*
X005829Y002711D01*
X005830Y002713D01*
X005829Y002794D01*
X005829Y004332D01*
X005712Y004449D01*
X004770Y004449D01*
X004770Y004720D01*
X004770Y004648D02*
X007092Y004648D01*
X007212Y004490D02*
X004770Y004490D01*
X004764Y004049D02*
X005429Y004049D01*
X005429Y003310D01*
X005350Y003389D01*
X005230Y003439D01*
X005099Y003439D01*
X004978Y003389D01*
X004959Y003370D01*
X004888Y003370D01*
X004888Y003450D01*
X004875Y003495D01*
X004852Y003537D01*
X004848Y003541D01*
X004848Y003681D01*
X004766Y003763D01*
X004756Y003763D01*
X004764Y004049D01*
X004763Y004014D02*
X005429Y004014D01*
X005429Y003856D02*
X004759Y003856D01*
X004831Y003697D02*
X005429Y003697D01*
X005429Y003539D02*
X004850Y003539D01*
X004888Y003380D02*
X004969Y003380D01*
X005359Y003380D02*
X005429Y003380D01*
X005829Y003380D02*
X007223Y003380D01*
X007152Y003539D02*
X005829Y003539D01*
X005829Y003697D02*
X007664Y003697D01*
X007245Y004014D02*
X005829Y004014D01*
X005829Y004173D02*
X007435Y004173D01*
X007314Y004331D02*
X005829Y004331D01*
X005829Y003856D02*
X007162Y003856D01*
X007382Y003222D02*
X005829Y003222D01*
X005829Y003063D02*
X007344Y003063D01*
X007224Y002905D02*
X005829Y002905D01*
X005830Y002746D02*
X007174Y002746D01*
X007174Y002588D02*
X005371Y002588D01*
X005414Y002112D02*
X004765Y002112D01*
X004765Y001954D02*
X005300Y001954D01*
X005281Y001795D02*
X004735Y001795D01*
X004719Y001637D02*
X005352Y001637D01*
X005636Y001478D02*
X004749Y001478D01*
X004749Y001320D02*
X005636Y001320D01*
X005636Y001161D02*
X004749Y001161D01*
X004664Y001003D02*
X005636Y001003D01*
X005636Y000844D02*
X004779Y000844D01*
X004781Y000686D02*
X005636Y000686D01*
X005636Y000607D02*
X005636Y000607D01*
X005716Y000527D02*
X004781Y000527D01*
X004781Y000635D02*
X004463Y000635D01*
X004781Y000635D01*
X004463Y000635D02*
X004463Y000635D01*
X006016Y001003D02*
X007283Y001003D01*
X007508Y001161D02*
X006016Y001161D01*
X006016Y001320D02*
X007325Y001320D01*
X007216Y001478D02*
X006016Y001478D01*
X006016Y001637D02*
X007174Y001637D01*
X007179Y001795D02*
X006016Y001795D01*
X005976Y001954D02*
X007244Y001954D01*
X007393Y002112D02*
X005804Y002112D01*
X004765Y002271D02*
X007374Y002271D01*
X007237Y002429D02*
X004709Y002429D01*
X003617Y004173D02*
X000932Y004173D01*
X001054Y004331D02*
X003615Y004331D01*
X003613Y004490D02*
X001156Y004490D01*
X001194Y004648D02*
X003611Y004648D01*
X003609Y004807D02*
X001184Y004807D01*
X001119Y004965D02*
X003623Y004965D01*
X003676Y005124D02*
X000950Y005124D01*
X001122Y004014D02*
X002236Y004014D01*
X002147Y003856D02*
X001206Y003856D01*
X001216Y003539D02*
X002144Y003539D01*
X002143Y003380D02*
X001144Y003380D01*
X000986Y003222D02*
X002141Y003222D01*
X002139Y003063D02*
X001024Y003063D01*
X001144Y002905D02*
X002138Y002905D01*
X002146Y003697D02*
X000704Y003697D01*
X004125Y005124D02*
X004187Y005124D01*
D16*
X005184Y003851D03*
X005164Y003111D03*
X006294Y003706D03*
X005609Y001843D03*
X003428Y002686D03*
X003349Y001835D03*
X001837Y003792D03*
X001881Y005426D03*
D17*
X003810Y004745D02*
X003822Y003847D01*
X003802Y003564D01*
X003802Y003367D02*
X003381Y003371D01*
X002865Y003379D01*
X002873Y001367D01*
X003960Y001371D01*
X003948Y000954D02*
X004463Y000954D01*
X004475Y001564D01*
X004471Y001371D01*
X004495Y001694D01*
X004483Y002103D01*
X004487Y002060D01*
X004483Y002103D02*
X004550Y002973D01*
X004550Y003170D01*
X005152Y003170D01*
X005164Y003111D01*
X004893Y003371D02*
X005184Y003851D01*
X005629Y004249D02*
X004570Y004249D01*
X004550Y003564D01*
X004550Y003367D02*
X004893Y003371D01*
X004550Y002973D02*
X004550Y002780D01*
X004963Y002780D01*
X005629Y002792D01*
X005629Y004249D01*
X004570Y004249D02*
X004570Y004910D01*
X004499Y004894D01*
X004412Y004835D01*
X003900Y004835D02*
X003810Y004745D01*
X003802Y003170D02*
X003412Y003170D01*
X003428Y002686D01*
X003948Y000954D02*
X003952Y000635D01*
D18*
X002873Y001367D02*
X002873Y001686D01*
X000684Y001682D01*
X000684Y002682D02*
X000774Y002694D01*
X002326Y002694D01*
X002337Y003847D01*
X003822Y003847D01*
X003802Y002973D02*
X003975Y002981D01*
X003975Y002060D01*
X003330Y002060D01*
X003349Y001835D01*
X002873Y001824D02*
X002873Y001686D01*
X005609Y001843D02*
X005826Y001835D01*
X005826Y000686D01*
X007684Y000682D01*
X007684Y004682D02*
X007282Y004686D01*
X007282Y004910D01*
X004570Y004910D01*
M02*
