G75*
%MOIN*%
%OFA0B0*%
%FSLAX24Y24*%
%IPPOS*%
%LPD*%
%AMOC8*
5,1,8,0,0,1.08239X$1,22.5*
%
%ADD10C,0.0740*%
%ADD11C,0.0160*%
%ADD12C,0.0376*%
%ADD13C,0.0120*%
%ADD14C,0.0100*%
D10*
X000684Y000682D03*
X000684Y001682D03*
X000684Y002682D03*
X000684Y003682D03*
X000684Y004682D03*
X000684Y005682D03*
X007684Y005682D03*
X007684Y004682D03*
X007684Y003682D03*
X007684Y002682D03*
X007684Y001682D03*
X007684Y000682D03*
D11*
X006293Y002569D02*
X005337Y002568D01*
X005372Y002603D01*
X005372Y002605D01*
X005374Y002607D01*
X005372Y002688D01*
X005372Y002769D01*
X005371Y002770D01*
X005369Y002852D01*
X005442Y002925D01*
X005492Y003046D01*
X005492Y003176D01*
X005442Y003297D01*
X005350Y003389D01*
X005230Y003439D01*
X005099Y003439D01*
X004978Y003389D01*
X004886Y003297D01*
X004836Y003176D01*
X004836Y003046D01*
X004886Y002925D01*
X004925Y002886D01*
X003692Y002886D01*
X003614Y002964D01*
X003493Y003014D01*
X003363Y003014D01*
X003242Y002964D01*
X003150Y002872D01*
X003100Y002751D01*
X003100Y002621D01*
X003123Y002566D01*
X002354Y002565D01*
X002354Y002607D01*
X002354Y002608D01*
X002354Y002686D01*
X002354Y002765D01*
X002298Y002820D01*
X002243Y002876D01*
X002243Y002876D01*
X002242Y002876D01*
X002164Y002876D01*
X002086Y002876D01*
X002085Y002876D01*
X001157Y002873D01*
X001116Y002971D01*
X000973Y003114D01*
X000860Y003161D01*
X000895Y003172D01*
X000972Y003211D01*
X001042Y003262D01*
X001103Y003324D01*
X001154Y003394D01*
X001194Y003471D01*
X001220Y003553D01*
X001234Y003639D01*
X001234Y003662D01*
X000704Y003662D01*
X000704Y003702D01*
X001234Y003702D01*
X001234Y003725D01*
X001220Y003811D01*
X001194Y003893D01*
X001154Y003970D01*
X001103Y004040D01*
X001042Y004101D01*
X000972Y004152D01*
X000895Y004192D01*
X000860Y004203D01*
X000973Y004250D01*
X001116Y004393D01*
X001157Y004492D01*
X007211Y004492D01*
X007252Y004393D01*
X007395Y004250D01*
X007508Y004203D01*
X007473Y004192D01*
X007396Y004152D01*
X007326Y004101D01*
X007264Y004040D01*
X007214Y003970D01*
X007174Y003893D01*
X007147Y003811D01*
X007134Y003725D01*
X007134Y003702D01*
X007664Y003702D01*
X007664Y003662D01*
X007134Y003662D01*
X007134Y003639D01*
X007147Y003553D01*
X007174Y003471D01*
X007214Y003394D01*
X007264Y003324D01*
X007326Y003262D01*
X007396Y003211D01*
X007473Y003172D01*
X007508Y003161D01*
X007395Y003114D01*
X007252Y002971D01*
X007220Y002895D01*
X007217Y002895D01*
X007213Y002892D01*
X006404Y002892D01*
X006293Y002780D01*
X006293Y002569D01*
X006293Y002588D02*
X005357Y002588D01*
X005372Y002746D02*
X006293Y002746D01*
X005492Y003063D02*
X007344Y003063D01*
X007224Y002905D02*
X005422Y002905D01*
X005474Y003222D02*
X007382Y003222D01*
X007223Y003380D02*
X005359Y003380D01*
X004969Y003380D02*
X001144Y003380D01*
X001216Y003539D02*
X007152Y003539D01*
X007162Y003856D02*
X001206Y003856D01*
X001122Y004014D02*
X007245Y004014D01*
X007435Y004173D02*
X000932Y004173D01*
X001054Y004331D02*
X007314Y004331D01*
X007212Y004490D02*
X001156Y004490D01*
X001157Y004872D02*
X001116Y004971D01*
X000973Y005114D01*
X000810Y005182D01*
X000973Y005250D01*
X001116Y005393D01*
X001158Y005495D01*
X001377Y005496D01*
X001456Y005496D01*
X001457Y005496D01*
X001512Y005552D01*
X001567Y005607D01*
X001567Y005608D01*
X001567Y005608D01*
X001567Y005686D01*
X001567Y005752D01*
X006514Y005752D01*
X006514Y005627D01*
X006625Y005516D01*
X007201Y005516D01*
X007252Y005393D01*
X007395Y005250D01*
X007558Y005182D01*
X007395Y005114D01*
X007252Y004971D01*
X007211Y004872D01*
X001157Y004872D01*
X001119Y004965D02*
X007249Y004965D01*
X007417Y005124D02*
X000950Y005124D01*
X001005Y005282D02*
X007363Y005282D01*
X007232Y005441D02*
X001136Y005441D01*
X001456Y005496D02*
X001456Y005496D01*
X001559Y005599D02*
X006541Y005599D01*
X007664Y003697D02*
X000704Y003697D01*
X000986Y003222D02*
X004855Y003222D01*
X004836Y003063D02*
X001024Y003063D01*
X001144Y002905D02*
X003183Y002905D01*
X003100Y002746D02*
X002354Y002746D01*
X002354Y002765D02*
X002354Y002765D01*
X002354Y002765D01*
X002354Y002588D02*
X003114Y002588D01*
X003673Y002905D02*
X004907Y002905D01*
D12*
X005164Y003111D03*
X005184Y003851D03*
X006294Y003706D03*
X005609Y001843D03*
X003428Y002686D03*
X003349Y001835D03*
X001837Y003792D03*
X001881Y005426D03*
D13*
X005164Y003111D02*
X005172Y002686D01*
X003428Y002686D01*
D14*
X003349Y001835D02*
X005609Y001843D01*
X006483Y002379D02*
X006483Y002702D01*
X007286Y002702D01*
X007684Y002682D01*
X007684Y001682D02*
X006534Y001686D01*
X006534Y001308D01*
X001377Y001308D01*
X001377Y001686D01*
X000684Y001682D01*
X000684Y002682D02*
X002164Y002686D01*
X002164Y002375D01*
X006483Y002379D01*
X007684Y000682D02*
X000684Y000682D01*
X000684Y004682D02*
X007684Y004682D01*
X007684Y005682D02*
X007286Y005706D01*
X006704Y005706D01*
X006704Y005942D01*
X001377Y005942D01*
X001377Y005686D01*
X000684Y005682D01*
M02*
