G75*
%MOIN*%
%OFA0B0*%
%FSLAX24Y24*%
%IPPOS*%
%LPD*%
%AMOC8*
5,1,8,0,0,1.08239X$1,22.5*
%
%ADD10C,0.0040*%
%ADD11C,0.0030*%
%ADD12C,0.0080*%
%ADD13R,0.0042X0.0007*%
%ADD14R,0.0035X0.0007*%
%ADD15R,0.0028X0.0007*%
%ADD16R,0.0099X0.0007*%
%ADD17R,0.0106X0.0007*%
%ADD18R,0.0092X0.0007*%
%ADD19R,0.0120X0.0007*%
%ADD20R,0.0113X0.0007*%
%ADD21R,0.0085X0.0007*%
%ADD22R,0.0333X0.0007*%
%ADD23R,0.0099X0.0007*%
%ADD24R,0.0106X0.0007*%
%ADD25R,0.0092X0.0007*%
%ADD26R,0.0163X0.0007*%
%ADD27R,0.0149X0.0007*%
%ADD28R,0.0092X0.0007*%
%ADD29R,0.0127X0.0007*%
%ADD30R,0.0333X0.0007*%
%ADD31R,0.0099X0.0007*%
%ADD32R,0.0106X0.0007*%
%ADD33R,0.0092X0.0007*%
%ADD34R,0.0113X0.0007*%
%ADD35R,0.0191X0.0007*%
%ADD36R,0.0177X0.0007*%
%ADD37R,0.0092X0.0007*%
%ADD38R,0.0149X0.0007*%
%ADD39R,0.0333X0.0007*%
%ADD40R,0.0120X0.0007*%
%ADD41R,0.0212X0.0007*%
%ADD42R,0.0191X0.0007*%
%ADD43R,0.0092X0.0007*%
%ADD44R,0.0177X0.0007*%
%ADD45R,0.0120X0.0007*%
%ADD46R,0.0234X0.0007*%
%ADD47R,0.0205X0.0007*%
%ADD48R,0.0099X0.0007*%
%ADD49R,0.0120X0.0007*%
%ADD50R,0.0092X0.0007*%
%ADD51R,0.0113X0.0007*%
%ADD52R,0.0120X0.0007*%
%ADD53R,0.0255X0.0007*%
%ADD54R,0.0220X0.0007*%
%ADD55R,0.0092X0.0007*%
%ADD56R,0.0106X0.0007*%
%ADD57R,0.0198X0.0007*%
%ADD58R,0.0333X0.0007*%
%ADD59R,0.0135X0.0007*%
%ADD60R,0.0127X0.0007*%
%ADD61R,0.0269X0.0007*%
%ADD62R,0.0326X0.0007*%
%ADD63R,0.0212X0.0007*%
%ADD64R,0.0135X0.0007*%
%ADD65R,0.0127X0.0007*%
%ADD66R,0.0127X0.0007*%
%ADD67R,0.0283X0.0007*%
%ADD68R,0.0333X0.0007*%
%ADD69R,0.0227X0.0007*%
%ADD70R,0.0135X0.0007*%
%ADD71R,0.0127X0.0007*%
%ADD72R,0.0290X0.0007*%
%ADD73R,0.0333X0.0007*%
%ADD74R,0.0135X0.0007*%
%ADD75R,0.0297X0.0007*%
%ADD76R,0.0340X0.0007*%
%ADD77R,0.0149X0.0007*%
%ADD78R,0.0135X0.0007*%
%ADD79R,0.0142X0.0007*%
%ADD80R,0.0312X0.0007*%
%ADD81R,0.0156X0.0007*%
%ADD82R,0.0340X0.0007*%
%ADD83R,0.0142X0.0007*%
%ADD84R,0.0120X0.0007*%
%ADD85R,0.0142X0.0007*%
%ADD86R,0.0326X0.0007*%
%ADD87R,0.0149X0.0007*%
%ADD88R,0.0142X0.0007*%
%ADD89R,0.0106X0.0007*%
%ADD90R,0.0127X0.0007*%
%ADD91R,0.0135X0.0007*%
%ADD92R,0.0113X0.0007*%
%ADD93R,0.0163X0.0007*%
%ADD94R,0.0163X0.0007*%
%ADD95R,0.0156X0.0007*%
%ADD96R,0.0113X0.0007*%
%ADD97R,0.0120X0.0007*%
%ADD98R,0.0163X0.0007*%
%ADD99R,0.0163X0.0007*%
%ADD100R,0.0085X0.0007*%
%ADD101R,0.0170X0.0007*%
%ADD102R,0.0177X0.0007*%
%ADD103R,0.0085X0.0007*%
%ADD104R,0.0078X0.0007*%
%ADD105R,0.0177X0.0007*%
%ADD106R,0.0106X0.0007*%
%ADD107R,0.0113X0.0007*%
%ADD108R,0.0085X0.0007*%
%ADD109R,0.0177X0.0007*%
%ADD110R,0.0085X0.0007*%
%ADD111R,0.0177X0.0007*%
%ADD112R,0.0177X0.0007*%
%ADD113R,0.0099X0.0007*%
%ADD114R,0.0184X0.0007*%
%ADD115R,0.0099X0.0007*%
%ADD116R,0.0368X0.0007*%
%ADD117R,0.0191X0.0007*%
%ADD118R,0.0368X0.0007*%
%ADD119R,0.0163X0.0007*%
%ADD120R,0.0184X0.0007*%
%ADD121R,0.0368X0.0007*%
%ADD122R,0.0290X0.0007*%
%ADD123R,0.0113X0.0007*%
%ADD124R,0.0085X0.0007*%
%ADD125R,0.0368X0.0007*%
%ADD126R,0.0276X0.0007*%
%ADD127R,0.0361X0.0007*%
%ADD128R,0.0255X0.0007*%
%ADD129R,0.0085X0.0007*%
%ADD130R,0.0361X0.0007*%
%ADD131R,0.0220X0.0007*%
%ADD132R,0.0361X0.0007*%
%ADD133R,0.0099X0.0007*%
%ADD134R,0.0106X0.0007*%
%ADD135R,0.0106X0.0007*%
%ADD136R,0.0120X0.0007*%
%ADD137R,0.0219X0.0007*%
%ADD138R,0.0142X0.0007*%
%ADD139R,0.0219X0.0007*%
%ADD140R,0.0312X0.0007*%
%ADD141R,0.0219X0.0007*%
%ADD142R,0.0347X0.0007*%
%ADD143R,0.0312X0.0007*%
%ADD144R,0.0304X0.0007*%
%ADD145R,0.0340X0.0007*%
%ADD146R,0.0312X0.0007*%
%ADD147R,0.0234X0.0007*%
%ADD148R,0.0297X0.0007*%
%ADD149R,0.0219X0.0007*%
%ADD150R,0.0312X0.0007*%
%ADD151R,0.0227X0.0007*%
%ADD152R,0.0283X0.0007*%
%ADD153R,0.0290X0.0007*%
%ADD154R,0.0269X0.0007*%
%ADD155R,0.0205X0.0007*%
%ADD156R,0.0184X0.0007*%
%ADD157R,0.0255X0.0007*%
%ADD158R,0.0198X0.0007*%
%ADD159R,0.0191X0.0007*%
%ADD160R,0.0184X0.0007*%
%ADD161R,0.0241X0.0007*%
%ADD162R,0.0255X0.0007*%
%ADD163R,0.0191X0.0007*%
%ADD164R,0.0198X0.0007*%
%ADD165R,0.0184X0.0007*%
%ADD166R,0.0234X0.0007*%
%ADD167R,0.0212X0.0007*%
%ADD168R,0.0184X0.0007*%
%ADD169R,0.0170X0.0007*%
%ADD170R,0.0170X0.0007*%
%ADD171R,0.0156X0.0007*%
%ADD172R,0.0035X0.0007*%
%ADD173R,0.0170X0.0007*%
%ADD174R,0.0042X0.0007*%
%ADD175R,0.0064X0.0007*%
%ADD176R,0.0028X0.0007*%
%ADD177R,0.0035X0.0007*%
%ADD178R,0.0156X0.0007*%
%ADD179R,0.0177X0.0007*%
%ADD180R,0.0170X0.0007*%
%ADD181R,0.0028X0.0007*%
%ADD182R,0.0028X0.0007*%
%ADD183R,0.0057X0.0007*%
%ADD184R,0.0057X0.0007*%
%ADD185R,0.0042X0.0007*%
%ADD186R,0.0043X0.0007*%
%ADD187R,0.0050X0.0007*%
%ADD188R,0.0050X0.0007*%
%ADD189R,0.0043X0.0007*%
%ADD190R,0.0043X0.0007*%
%ADD191R,0.0035X0.0007*%
%ADD192R,0.0035X0.0007*%
%ADD193R,0.0078X0.0007*%
%ADD194R,0.0064X0.0007*%
%ADD195C,0.0020*%
%ADD196C,0.0010*%
D10*
X001422Y001410D02*
X001555Y001410D01*
X001643Y001410D02*
X001643Y001610D01*
X001743Y001610D01*
X001776Y001577D01*
X001776Y001510D01*
X001743Y001477D01*
X001643Y001477D01*
X001864Y001410D02*
X001864Y001610D01*
X001997Y001610D02*
X001997Y001410D01*
X001931Y001477D01*
X001864Y001410D01*
X001422Y001410D02*
X001422Y001610D01*
X002276Y001743D02*
X002310Y001709D01*
X002343Y001709D01*
X002376Y001743D01*
X002376Y001809D01*
X002410Y001843D01*
X002443Y001843D01*
X002476Y001809D01*
X002476Y001743D01*
X002443Y001709D01*
X002276Y001743D02*
X002276Y001809D01*
X002310Y001843D01*
X002310Y001930D02*
X002443Y001930D01*
X002476Y001964D01*
X002476Y002030D01*
X002443Y002064D01*
X002476Y002151D02*
X002476Y002285D01*
X002476Y002151D02*
X002276Y002151D01*
X002310Y002064D02*
X002276Y002030D01*
X002276Y001964D01*
X002310Y001930D01*
X002076Y002394D02*
X001943Y002394D01*
X001943Y002595D01*
X001855Y002561D02*
X001822Y002595D01*
X001755Y002595D01*
X001722Y002561D01*
X001722Y002428D01*
X001755Y002394D01*
X001822Y002394D01*
X001855Y002428D01*
X001634Y002428D02*
X001601Y002394D01*
X001534Y002394D01*
X001501Y002428D01*
X001534Y002494D02*
X001601Y002494D01*
X001634Y002461D01*
X001634Y002428D01*
X001534Y002494D02*
X001501Y002528D01*
X001501Y002561D01*
X001534Y002595D01*
X001601Y002595D01*
X001634Y002561D01*
X002284Y002703D02*
X002318Y002670D01*
X002351Y002670D01*
X002384Y002703D01*
X002384Y002770D01*
X002418Y002803D01*
X002451Y002803D01*
X002484Y002770D01*
X002484Y002703D01*
X002451Y002670D01*
X002284Y002703D02*
X002284Y002770D01*
X002318Y002803D01*
X002284Y002891D02*
X002284Y002991D01*
X002318Y003024D01*
X002451Y003024D01*
X002484Y002991D01*
X002484Y002891D01*
X002284Y002891D01*
X002351Y003112D02*
X002284Y003179D01*
X002351Y003245D01*
X002484Y003245D01*
X002384Y003245D02*
X002384Y003112D01*
X002351Y003112D02*
X002484Y003112D01*
X002852Y003144D02*
X002986Y003144D01*
X003073Y003144D02*
X003073Y003178D01*
X003207Y003311D01*
X003207Y003345D01*
X003073Y003345D01*
X002986Y003345D02*
X002852Y003345D01*
X002852Y003144D01*
X002852Y003245D02*
X002919Y003245D01*
X003073Y003144D02*
X003207Y003144D01*
X003294Y003245D02*
X003428Y003245D01*
X003515Y003144D02*
X003582Y003144D01*
X003548Y003144D02*
X003548Y003345D01*
X003515Y003345D02*
X003582Y003345D01*
X003662Y003311D02*
X003696Y003345D01*
X003763Y003345D01*
X003796Y003311D01*
X003796Y003278D01*
X003662Y003144D01*
X003796Y003144D01*
X003883Y003178D02*
X003917Y003144D01*
X003984Y003144D01*
X004017Y003178D01*
X004017Y003311D02*
X003984Y003345D01*
X003917Y003345D01*
X003883Y003311D01*
X003883Y003178D01*
X004325Y003345D02*
X004459Y003345D01*
X004392Y003345D02*
X004392Y003144D01*
X004546Y003144D02*
X004613Y003144D01*
X004580Y003144D02*
X004580Y003345D01*
X004613Y003345D02*
X004546Y003345D01*
X004694Y003345D02*
X004827Y003144D01*
X004827Y003345D01*
X004915Y003345D02*
X004915Y003311D01*
X004981Y003245D01*
X004981Y003144D01*
X004981Y003245D02*
X005048Y003311D01*
X005048Y003345D01*
X005357Y003345D02*
X005357Y003144D01*
X005457Y003144D01*
X005490Y003178D01*
X005490Y003211D01*
X005457Y003245D01*
X005357Y003245D01*
X005457Y003245D02*
X005490Y003278D01*
X005490Y003311D01*
X005457Y003345D01*
X005357Y003345D01*
X005578Y003278D02*
X005644Y003345D01*
X005711Y003278D01*
X005711Y003144D01*
X005711Y003245D02*
X005578Y003245D01*
X005578Y003278D02*
X005578Y003144D01*
X005865Y003144D02*
X005865Y003345D01*
X005799Y003345D02*
X005932Y003345D01*
X006020Y003345D02*
X006153Y003345D01*
X006086Y003345D02*
X006086Y003144D01*
X006241Y003144D02*
X006374Y003144D01*
X006462Y003144D02*
X006462Y003345D01*
X006562Y003345D01*
X006595Y003311D01*
X006595Y003245D01*
X006562Y003211D01*
X006462Y003211D01*
X006528Y003211D02*
X006595Y003144D01*
X006749Y003144D02*
X006749Y003245D01*
X006816Y003311D01*
X006816Y003345D01*
X006749Y003245D02*
X006683Y003311D01*
X006683Y003345D01*
X006374Y003345D02*
X006241Y003345D01*
X006241Y003144D01*
X006241Y003245D02*
X006307Y003245D01*
X007125Y003211D02*
X007191Y003144D01*
X007258Y003211D01*
X007258Y003345D01*
X007346Y003278D02*
X007412Y003345D01*
X007412Y003144D01*
X007346Y003144D02*
X007479Y003144D01*
X007125Y003211D02*
X007125Y003345D01*
X008060Y003222D02*
X008126Y003289D01*
X008260Y003289D01*
X008160Y003289D02*
X008160Y003155D01*
X008126Y003155D02*
X008060Y003222D01*
X008126Y003155D02*
X008260Y003155D01*
X008227Y003068D02*
X008093Y003068D01*
X008060Y003034D01*
X008060Y002934D01*
X008260Y002934D01*
X008260Y003034D01*
X008227Y003068D01*
X008227Y002847D02*
X008260Y002813D01*
X008260Y002747D01*
X008227Y002713D01*
X008160Y002747D02*
X008160Y002813D01*
X008193Y002847D01*
X008227Y002847D01*
X008160Y002747D02*
X008126Y002713D01*
X008093Y002713D01*
X008060Y002747D01*
X008060Y002813D01*
X008093Y002847D01*
X008501Y002561D02*
X008501Y002528D01*
X008534Y002494D01*
X008601Y002494D01*
X008634Y002461D01*
X008634Y002428D01*
X008601Y002394D01*
X008534Y002394D01*
X008501Y002428D01*
X008501Y002561D02*
X008534Y002595D01*
X008601Y002595D01*
X008634Y002561D01*
X008722Y002561D02*
X008722Y002428D01*
X008755Y002394D01*
X008822Y002394D01*
X008855Y002428D01*
X008943Y002394D02*
X009076Y002394D01*
X008943Y002394D02*
X008943Y002595D01*
X008855Y002561D02*
X008822Y002595D01*
X008755Y002595D01*
X008722Y002561D01*
X008260Y002344D02*
X008260Y002210D01*
X008060Y002210D01*
X008093Y002123D02*
X008060Y002089D01*
X008060Y002023D01*
X008093Y001989D01*
X008227Y001989D01*
X008260Y002023D01*
X008260Y002089D01*
X008227Y002123D01*
X008227Y001902D02*
X008260Y001869D01*
X008260Y001802D01*
X008227Y001768D01*
X008160Y001802D02*
X008160Y001869D01*
X008193Y001902D01*
X008227Y001902D01*
X008093Y001902D02*
X008060Y001869D01*
X008060Y001802D01*
X008093Y001768D01*
X008126Y001768D01*
X008160Y001802D01*
X008422Y001610D02*
X008422Y001410D01*
X008555Y001410D01*
X008643Y001410D02*
X008643Y001610D01*
X008743Y001610D01*
X008776Y001577D01*
X008776Y001510D01*
X008743Y001477D01*
X008643Y001477D01*
X008864Y001410D02*
X008864Y001610D01*
X008997Y001610D02*
X008997Y001410D01*
X008931Y001477D01*
X008864Y001410D01*
X008260Y001281D02*
X008060Y001281D01*
X008060Y001147D02*
X008260Y001147D01*
X008193Y001214D01*
X008260Y001281D01*
X008160Y001060D02*
X008193Y001027D01*
X008193Y000926D01*
X008260Y000926D02*
X008060Y000926D01*
X008060Y001027D01*
X008093Y001060D01*
X008160Y001060D01*
X008260Y000839D02*
X008260Y000705D01*
X008060Y000705D01*
X004694Y003144D02*
X004694Y003345D01*
X002484Y003648D02*
X002451Y003615D01*
X002318Y003615D01*
X002284Y003648D01*
X002284Y003715D01*
X002318Y003748D01*
X002284Y003715D01*
X002284Y003648D01*
X002318Y003615D01*
X002451Y003615D01*
X002484Y003648D01*
X002484Y003715D01*
X002451Y003748D01*
X002384Y003748D01*
X002384Y003682D01*
X002384Y003748D01*
X002451Y003748D01*
X002484Y003715D01*
X002484Y003648D01*
X002484Y003836D02*
X002284Y003836D01*
X002484Y003969D01*
X002284Y003969D01*
X002484Y003969D01*
X002284Y003836D01*
X002484Y003836D01*
X002484Y004057D02*
X002284Y004057D01*
X002284Y004157D01*
X002318Y004190D01*
X002451Y004190D01*
X002484Y004157D01*
X002484Y004057D01*
X002484Y004157D01*
X002451Y004190D01*
X002318Y004190D01*
X002284Y004157D01*
X002284Y004057D01*
X002484Y004057D01*
X001997Y004436D02*
X001964Y004402D01*
X001864Y004402D01*
X001864Y004602D01*
X001964Y004602D01*
X001997Y004569D01*
X001997Y004436D01*
X001776Y004402D02*
X001776Y004602D01*
X001643Y004602D02*
X001776Y004402D01*
X001643Y004402D02*
X001643Y004602D01*
X001555Y004569D02*
X001522Y004602D01*
X001455Y004602D01*
X001422Y004569D01*
X001422Y004436D01*
X001455Y004402D01*
X001522Y004402D01*
X001555Y004436D01*
X001555Y004502D01*
X001489Y004502D01*
X002288Y004684D02*
X002421Y004684D01*
X002488Y004751D01*
X002421Y004818D01*
X002288Y004818D01*
X002321Y004905D02*
X002455Y004905D01*
X002488Y004939D01*
X002488Y005005D01*
X002455Y005039D01*
X002455Y005126D02*
X002321Y005126D01*
X002288Y005160D01*
X002288Y005226D01*
X002321Y005260D01*
X002455Y005260D02*
X002488Y005226D01*
X002488Y005160D01*
X002455Y005126D01*
X002321Y005039D02*
X002288Y005005D01*
X002288Y004939D01*
X002321Y004905D01*
X002003Y005387D02*
X001937Y005387D01*
X001903Y005420D01*
X001903Y005553D01*
X001937Y005587D01*
X002003Y005587D01*
X002037Y005553D01*
X002037Y005420D02*
X002003Y005387D01*
X001816Y005420D02*
X001782Y005387D01*
X001716Y005387D01*
X001682Y005420D01*
X001682Y005553D01*
X001716Y005587D01*
X001782Y005587D01*
X001816Y005553D01*
X001595Y005587D02*
X001595Y005453D01*
X001528Y005387D01*
X001461Y005453D01*
X001461Y005587D01*
X002272Y005631D02*
X002272Y005731D01*
X002306Y005764D01*
X002339Y005764D01*
X002372Y005731D01*
X002372Y005631D01*
X002472Y005631D02*
X002272Y005631D01*
X002372Y005731D02*
X002406Y005764D01*
X002439Y005764D01*
X002472Y005731D01*
X002472Y005631D01*
X002472Y005852D02*
X002339Y005852D01*
X002272Y005919D01*
X002339Y005985D01*
X002472Y005985D01*
X002372Y005985D02*
X002372Y005852D01*
X002272Y006073D02*
X002272Y006206D01*
X002272Y006140D02*
X002472Y006140D01*
X002009Y006410D02*
X002009Y006610D01*
X001943Y006610D02*
X002076Y006610D01*
X001855Y006544D02*
X001855Y006410D01*
X001722Y006410D02*
X001722Y006544D01*
X001788Y006610D01*
X001855Y006544D01*
X001855Y006510D02*
X001722Y006510D01*
X001634Y006477D02*
X001634Y006444D01*
X001601Y006410D01*
X001501Y006410D01*
X001501Y006610D01*
X001601Y006610D01*
X001634Y006577D01*
X001634Y006544D01*
X001601Y006510D01*
X001501Y006510D01*
X001601Y006510D02*
X001634Y006477D01*
X001682Y003618D02*
X001782Y003618D01*
X001816Y003585D01*
X001816Y003451D01*
X001782Y003418D01*
X001682Y003418D01*
X001682Y003618D01*
X001595Y003585D02*
X001561Y003618D01*
X001495Y003618D01*
X001461Y003585D01*
X001461Y003551D01*
X001495Y003518D01*
X001561Y003518D01*
X001595Y003485D01*
X001595Y003451D01*
X001561Y003418D01*
X001495Y003418D01*
X001461Y003451D01*
X001903Y003418D02*
X001903Y003551D01*
X001970Y003618D01*
X002037Y003551D01*
X002037Y003418D01*
X002037Y003518D02*
X001903Y003518D01*
X002284Y001238D02*
X002484Y001238D01*
X002418Y001171D01*
X002484Y001104D01*
X002284Y001104D01*
X002318Y001017D02*
X002284Y000983D01*
X002284Y000883D01*
X002484Y000883D01*
X002418Y000883D02*
X002418Y000983D01*
X002384Y001017D01*
X002318Y001017D01*
X002484Y000796D02*
X002484Y000662D01*
X002284Y000662D01*
X008060Y003731D02*
X008093Y003698D01*
X008227Y003698D01*
X008260Y003731D01*
X008260Y003798D01*
X008227Y003831D01*
X008160Y003831D01*
X008160Y003764D01*
X008093Y003831D02*
X008060Y003798D01*
X008060Y003731D01*
X008060Y003919D02*
X008260Y004052D01*
X008060Y004052D01*
X008060Y004140D02*
X008060Y004240D01*
X008093Y004273D01*
X008227Y004273D01*
X008260Y004240D01*
X008260Y004140D01*
X008060Y004140D01*
X008060Y003919D02*
X008260Y003919D01*
X008495Y003618D02*
X008461Y003585D01*
X008461Y003551D01*
X008495Y003518D01*
X008561Y003518D01*
X008595Y003485D01*
X008595Y003451D01*
X008561Y003418D01*
X008495Y003418D01*
X008461Y003451D01*
X008495Y003618D02*
X008561Y003618D01*
X008595Y003585D01*
X008682Y003618D02*
X008782Y003618D01*
X008816Y003585D01*
X008816Y003451D01*
X008782Y003418D01*
X008682Y003418D01*
X008682Y003618D01*
X008903Y003551D02*
X008903Y003418D01*
X008903Y003518D02*
X009037Y003518D01*
X009037Y003551D02*
X008970Y003618D01*
X008903Y003551D01*
X009037Y003551D02*
X009037Y003418D01*
X008964Y004402D02*
X008864Y004402D01*
X008864Y004602D01*
X008964Y004602D01*
X008997Y004569D01*
X008997Y004436D01*
X008964Y004402D01*
X008776Y004402D02*
X008776Y004602D01*
X008643Y004602D02*
X008776Y004402D01*
X008643Y004402D02*
X008643Y004602D01*
X008555Y004569D02*
X008522Y004602D01*
X008455Y004602D01*
X008422Y004569D01*
X008422Y004436D01*
X008455Y004402D01*
X008522Y004402D01*
X008555Y004436D01*
X008555Y004502D01*
X008489Y004502D01*
X008260Y004749D02*
X008193Y004682D01*
X008060Y004682D01*
X008060Y004815D02*
X008193Y004815D01*
X008260Y004749D01*
X008227Y004903D02*
X008093Y004903D01*
X008060Y004936D01*
X008060Y005003D01*
X008093Y005036D01*
X008093Y005124D02*
X008227Y005124D01*
X008260Y005157D01*
X008260Y005224D01*
X008227Y005257D01*
X008093Y005257D02*
X008060Y005224D01*
X008060Y005157D01*
X008093Y005124D01*
X008227Y005036D02*
X008260Y005003D01*
X008260Y004936D01*
X008227Y004903D01*
X008528Y005387D02*
X008595Y005453D01*
X008595Y005587D01*
X008682Y005553D02*
X008682Y005420D01*
X008716Y005387D01*
X008782Y005387D01*
X008816Y005420D01*
X008903Y005420D02*
X008937Y005387D01*
X009003Y005387D01*
X009037Y005420D01*
X009037Y005553D02*
X009003Y005587D01*
X008937Y005587D01*
X008903Y005553D01*
X008903Y005420D01*
X008816Y005553D02*
X008782Y005587D01*
X008716Y005587D01*
X008682Y005553D01*
X008461Y005587D02*
X008461Y005453D01*
X008528Y005387D01*
X008236Y005831D02*
X008036Y005831D01*
X008036Y005932D01*
X008069Y005965D01*
X008103Y005965D01*
X008136Y005932D01*
X008136Y005831D01*
X008236Y005831D02*
X008236Y005932D01*
X008203Y005965D01*
X008170Y005965D01*
X008136Y005932D01*
X008136Y006052D02*
X008136Y006186D01*
X008103Y006186D02*
X008236Y006186D01*
X008103Y006186D02*
X008036Y006119D01*
X008103Y006052D01*
X008236Y006052D01*
X008236Y006340D02*
X008036Y006340D01*
X008036Y006273D02*
X008036Y006407D01*
X008501Y006410D02*
X008601Y006410D01*
X008634Y006444D01*
X008634Y006477D01*
X008601Y006510D01*
X008501Y006510D01*
X008601Y006510D02*
X008634Y006544D01*
X008634Y006577D01*
X008601Y006610D01*
X008501Y006610D01*
X008501Y006410D01*
X008722Y006410D02*
X008722Y006544D01*
X008788Y006610D01*
X008855Y006544D01*
X008855Y006410D01*
X009009Y006410D02*
X009009Y006610D01*
X008943Y006610D02*
X009076Y006610D01*
X008855Y006510D02*
X008722Y006510D01*
D11*
X007227Y005020D02*
X007227Y004773D01*
X007103Y004649D01*
X006980Y004773D01*
X006980Y005020D01*
X007348Y004834D02*
X007595Y004834D01*
X007472Y004711D02*
X007472Y004958D01*
X006184Y005013D02*
X006184Y004766D01*
X006122Y004704D01*
X005937Y004704D01*
X005937Y005075D01*
X006122Y005075D01*
X006184Y005013D01*
X005816Y005075D02*
X005816Y004704D01*
X005569Y005075D01*
X005569Y004704D01*
X005447Y004766D02*
X005447Y004890D01*
X005324Y004890D01*
X005200Y005013D02*
X005200Y004766D01*
X005262Y004704D01*
X005386Y004704D01*
X005447Y004766D01*
X005447Y005013D02*
X005386Y005075D01*
X005262Y005075D01*
X005200Y005013D01*
X004452Y005048D02*
X004452Y004802D01*
X004390Y004740D01*
X004205Y004740D01*
X004205Y005110D01*
X004390Y005110D01*
X004452Y005048D01*
X004083Y005110D02*
X004083Y004740D01*
X003836Y005110D01*
X003836Y004740D01*
X003715Y004802D02*
X003715Y004925D01*
X003592Y004925D01*
X003715Y005048D02*
X003653Y005110D01*
X003530Y005110D01*
X003468Y005048D01*
X003468Y004802D01*
X003530Y004740D01*
X003653Y004740D01*
X003715Y004802D01*
X003882Y004122D02*
X003882Y003875D01*
X004005Y003752D01*
X004128Y003875D01*
X004128Y004122D01*
X004250Y003937D02*
X004497Y003937D01*
X004373Y004060D02*
X004373Y003813D01*
X004063Y002874D02*
X003878Y002874D01*
X003878Y002504D01*
X004063Y002504D01*
X004125Y002565D01*
X004125Y002812D01*
X004063Y002874D01*
X003757Y002874D02*
X003757Y002504D01*
X003510Y002874D01*
X003510Y002504D01*
X003388Y002565D02*
X003388Y002689D01*
X003265Y002689D01*
X003388Y002812D02*
X003327Y002874D01*
X003203Y002874D01*
X003141Y002812D01*
X003141Y002565D01*
X003203Y002504D01*
X003327Y002504D01*
X003388Y002565D01*
X003382Y001311D02*
X003382Y001064D01*
X003505Y000941D01*
X003628Y001064D01*
X003628Y001311D01*
X003873Y001249D02*
X003873Y001002D01*
X003750Y001126D02*
X003997Y001126D01*
D12*
X001522Y000603D02*
X001351Y000774D01*
X001351Y001274D01*
X001404Y001524D01*
X001351Y001774D01*
X001351Y002274D01*
X001404Y002524D01*
X001351Y002774D01*
X001351Y003274D01*
X001404Y003524D01*
X001351Y003774D01*
X001351Y004274D01*
X001404Y004524D01*
X001351Y004774D01*
X001351Y005274D01*
X001404Y005524D01*
X001351Y005774D01*
X001351Y006274D01*
X001522Y006642D01*
X002022Y006642D01*
X002193Y006274D01*
X002193Y005774D01*
X002140Y005524D01*
X002193Y005274D01*
X002193Y004774D01*
X002140Y004524D01*
X002193Y004274D01*
X002193Y003774D01*
X002140Y003524D01*
X002193Y003274D01*
X002193Y002774D01*
X002140Y002524D01*
X002193Y002274D01*
X002193Y001774D01*
X002140Y001524D01*
X002193Y001274D01*
X002193Y000774D01*
X002022Y000603D01*
X001522Y000603D01*
X008351Y000774D02*
X008522Y000603D01*
X009022Y000603D01*
X009193Y000774D01*
X009193Y001274D01*
X009140Y001524D01*
X009193Y001774D01*
X009193Y002274D01*
X009140Y002524D01*
X009193Y002774D01*
X009193Y003274D01*
X009140Y003524D01*
X009193Y003774D01*
X009193Y004274D01*
X009140Y004524D01*
X009193Y004774D01*
X009193Y005274D01*
X009140Y005524D01*
X009193Y005774D01*
X009193Y006274D01*
X009022Y006642D01*
X008522Y006642D01*
X008351Y006274D01*
X008351Y005774D01*
X008404Y005524D01*
X008351Y005274D01*
X008351Y004774D01*
X008404Y004524D01*
X008351Y004274D01*
X008351Y003774D01*
X008404Y003524D01*
X008351Y003274D01*
X008351Y002774D01*
X008404Y002524D01*
X008351Y002274D01*
X008351Y001774D01*
X008404Y001524D01*
X008351Y001274D01*
X008351Y000774D01*
D13*
X005216Y005292D03*
X003679Y005943D03*
X003665Y005986D03*
X003594Y005943D03*
X003594Y005936D03*
X003545Y005943D03*
X003530Y005986D03*
X003460Y005943D03*
X003460Y005936D03*
X003410Y005943D03*
X003396Y005986D03*
X003261Y005986D03*
X003190Y005943D03*
X003190Y005936D03*
X003233Y005886D03*
X003368Y005886D03*
X003502Y005886D03*
X003637Y005886D03*
D14*
X003229Y006035D03*
X005545Y005292D03*
D15*
X006016Y005695D03*
X006342Y005292D03*
D16*
X006342Y005299D03*
X006455Y005447D03*
X006455Y005462D03*
X006455Y005497D03*
X006455Y005511D03*
X006448Y005561D03*
X006596Y005561D03*
X006596Y005547D03*
X006596Y005511D03*
X006596Y005497D03*
X006596Y005462D03*
X006596Y005447D03*
X006596Y005412D03*
X006596Y005398D03*
X006596Y005370D03*
X006596Y005348D03*
X006596Y005320D03*
X006596Y005299D03*
X006596Y005589D03*
X006596Y005610D03*
X006596Y005639D03*
X006596Y005660D03*
X006596Y005738D03*
X006596Y005766D03*
X006596Y005787D03*
X006596Y005816D03*
X006186Y005547D03*
X005860Y005511D03*
X005860Y005497D03*
X005860Y005462D03*
X005860Y005447D03*
X005860Y005412D03*
X005860Y005398D03*
X005860Y005370D03*
X005860Y005348D03*
X005860Y005320D03*
X005860Y005299D03*
X005711Y005447D03*
X005711Y005462D03*
X005711Y005561D03*
X005711Y005589D03*
X005485Y005589D03*
X005478Y005447D03*
X005336Y005412D03*
X005329Y005398D03*
X005336Y005547D03*
X005322Y005589D03*
X005081Y005561D03*
X005081Y005547D03*
X004954Y005589D03*
X004947Y005561D03*
X004939Y005547D03*
X004932Y005511D03*
X004925Y005497D03*
X004805Y005547D03*
X004791Y005610D03*
X004543Y005497D03*
X004600Y005299D03*
X004869Y005299D03*
X005088Y005412D03*
X004175Y005412D03*
X004175Y005398D03*
X004175Y005370D03*
X004175Y005348D03*
X004175Y005320D03*
X004175Y005299D03*
X004175Y005447D03*
X004175Y005462D03*
X004175Y005497D03*
X004175Y005511D03*
X004175Y005547D03*
X004175Y005561D03*
X003927Y005561D03*
X003927Y005547D03*
X003778Y005547D03*
X003778Y005561D03*
X003778Y005589D03*
X003778Y005610D03*
X003778Y005639D03*
X003778Y005660D03*
X003778Y005738D03*
X003778Y005766D03*
X003778Y005787D03*
X003778Y005816D03*
X003630Y005639D03*
X003630Y005610D03*
X003630Y005589D03*
X003630Y005561D03*
X003630Y005547D03*
X003630Y005511D03*
X003630Y005497D03*
X003630Y005462D03*
X003630Y005447D03*
X003630Y005412D03*
X003630Y005398D03*
X003630Y005370D03*
X003630Y005348D03*
X003630Y005320D03*
X003630Y005299D03*
X003778Y005299D03*
X003778Y005320D03*
X003778Y005348D03*
X003778Y005370D03*
X003778Y005398D03*
X003778Y005412D03*
X003778Y005447D03*
X003778Y005462D03*
X003778Y005497D03*
X003778Y005511D03*
X003226Y005511D03*
X003226Y005497D03*
X003226Y005462D03*
X003226Y005447D03*
X003226Y005412D03*
X003226Y005398D03*
X003226Y005370D03*
X003226Y005348D03*
X003226Y005320D03*
X003226Y005299D03*
X003226Y005547D03*
X003226Y005561D03*
X003226Y005589D03*
X003226Y005610D03*
X003226Y005639D03*
D17*
X003428Y005299D03*
X004164Y005589D03*
X004497Y005660D03*
X004504Y005639D03*
X004511Y005610D03*
X004518Y005589D03*
X004525Y005561D03*
X004539Y005511D03*
X004490Y005688D03*
X004957Y005610D03*
X004964Y005639D03*
X004971Y005660D03*
X004993Y005738D03*
X005000Y005766D03*
X005007Y005787D03*
X005014Y005816D03*
X005092Y005589D03*
X005092Y005398D03*
X005708Y005412D03*
X005708Y005547D03*
X005977Y005660D03*
X006189Y005561D03*
X006189Y005412D03*
X006041Y005398D03*
X006041Y005370D03*
X006041Y005348D03*
X006041Y005320D03*
X006041Y005299D03*
X006444Y005412D03*
D18*
X006182Y005447D03*
X006182Y005462D03*
X006182Y005497D03*
X006182Y005511D03*
X006182Y005639D03*
X006182Y005660D03*
X006182Y005688D03*
X006182Y005738D03*
X006182Y005766D03*
X006182Y005787D03*
X006182Y005816D03*
X005856Y005660D03*
X005856Y005639D03*
X005474Y005561D03*
X005332Y005561D03*
X005078Y005447D03*
X004816Y005497D03*
X004816Y005511D03*
X004801Y005561D03*
X004794Y005589D03*
X004674Y005589D03*
X004667Y005561D03*
X004653Y005497D03*
X004320Y005497D03*
X004320Y005511D03*
X004320Y005547D03*
X004320Y005561D03*
X004320Y005589D03*
X004320Y005610D03*
X004320Y005639D03*
X004320Y005660D03*
X004320Y005738D03*
X004320Y005766D03*
X004320Y005787D03*
X004320Y005816D03*
X003923Y005660D03*
X003923Y005639D03*
X003923Y005511D03*
X003923Y005497D03*
X003923Y005462D03*
X003923Y005447D03*
X003923Y005412D03*
X003923Y005398D03*
X003923Y005370D03*
X003923Y005348D03*
X003923Y005320D03*
X003923Y005299D03*
X004320Y005299D03*
X004320Y005320D03*
X004320Y005348D03*
X004320Y005370D03*
X004320Y005398D03*
X004320Y005412D03*
X004320Y005447D03*
X004320Y005462D03*
X003633Y005915D03*
X003364Y005915D03*
X003229Y005915D03*
X003329Y005639D03*
X003336Y005610D03*
X003343Y005589D03*
X003364Y005511D03*
X003364Y005497D03*
X003378Y005447D03*
X003491Y005497D03*
X003520Y005610D03*
X003527Y005639D03*
X006182Y005348D03*
X006182Y005320D03*
X006182Y005299D03*
D19*
X006196Y005398D03*
X006196Y005589D03*
X005970Y005639D03*
X005212Y005688D03*
X005113Y005610D03*
X005212Y005299D03*
X006897Y005547D03*
D20*
X006866Y005511D03*
X006809Y005447D03*
X006766Y005398D03*
X006434Y005398D03*
X006434Y005589D03*
X005704Y005398D03*
X005541Y005299D03*
X005478Y005370D03*
X005492Y005462D03*
X005499Y005610D03*
X004869Y005320D03*
X004600Y005320D03*
X004472Y005766D03*
X004465Y005787D03*
X004458Y005816D03*
X003934Y005589D03*
D21*
X003502Y005547D03*
X003495Y005511D03*
X003353Y005547D03*
X005718Y005299D03*
D22*
X006848Y005299D03*
X006848Y005320D03*
X006848Y005348D03*
X006848Y005370D03*
D23*
X006596Y005355D03*
X006596Y005306D03*
X006596Y005405D03*
X006596Y005455D03*
X006596Y005504D03*
X006596Y005554D03*
X006596Y005603D03*
X006596Y005653D03*
X006448Y005554D03*
X006455Y005504D03*
X006455Y005455D03*
X006186Y005554D03*
X005860Y005504D03*
X005860Y005455D03*
X005860Y005405D03*
X005860Y005355D03*
X005860Y005306D03*
X005711Y005455D03*
X005711Y005554D03*
X005492Y005603D03*
X005336Y005554D03*
X005329Y005405D03*
X005088Y005405D03*
X005081Y005554D03*
X004954Y005603D03*
X004939Y005554D03*
X004968Y005653D03*
X004869Y005306D03*
X004600Y005306D03*
X004543Y005504D03*
X004529Y005554D03*
X004515Y005603D03*
X004175Y005554D03*
X004175Y005504D03*
X004175Y005455D03*
X004175Y005405D03*
X004175Y005355D03*
X004175Y005306D03*
X003927Y005554D03*
X003778Y005554D03*
X003778Y005603D03*
X003778Y005653D03*
X003630Y005603D03*
X003630Y005554D03*
X003630Y005504D03*
X003630Y005455D03*
X003630Y005405D03*
X003630Y005355D03*
X003630Y005306D03*
X003778Y005306D03*
X003778Y005355D03*
X003778Y005405D03*
X003778Y005455D03*
X003778Y005504D03*
X003778Y005773D03*
X003778Y005823D03*
X003226Y005603D03*
X003226Y005554D03*
X003226Y005504D03*
X003226Y005455D03*
X003226Y005405D03*
X003226Y005355D03*
X003226Y005306D03*
X006596Y005773D03*
X006596Y005823D03*
D24*
X006437Y005405D03*
X006041Y005355D03*
X006041Y005306D03*
X005708Y005405D03*
X005481Y005455D03*
X005311Y005603D03*
X005000Y005773D03*
X004504Y005653D03*
X004469Y005773D03*
X003428Y005306D03*
X005701Y005603D03*
D25*
X005856Y005653D03*
X006182Y005653D03*
X006182Y005773D03*
X006182Y005823D03*
X006182Y005504D03*
X006182Y005455D03*
X006182Y005306D03*
X004816Y005504D03*
X004801Y005554D03*
X004794Y005603D03*
X004667Y005554D03*
X004320Y005554D03*
X004320Y005603D03*
X004320Y005653D03*
X004320Y005773D03*
X004320Y005823D03*
X003923Y005653D03*
X003923Y005504D03*
X003923Y005455D03*
X003923Y005405D03*
X003923Y005355D03*
X003923Y005306D03*
X004320Y005306D03*
X004320Y005355D03*
X004320Y005405D03*
X004320Y005455D03*
X004320Y005504D03*
X003520Y005603D03*
X003506Y005554D03*
X003364Y005504D03*
X003378Y005455D03*
X003336Y005603D03*
D26*
X003598Y005773D03*
X005212Y005306D03*
D27*
X005545Y005306D03*
D28*
X005467Y005405D03*
X005715Y005306D03*
X004929Y005504D03*
X003350Y005554D03*
D29*
X004734Y005773D03*
X004869Y005355D03*
X006342Y005306D03*
D30*
X006303Y005355D03*
X006848Y005355D03*
X006848Y005306D03*
D31*
X006596Y005313D03*
X006596Y005327D03*
X006596Y005341D03*
X006596Y005362D03*
X006596Y005377D03*
X006596Y005391D03*
X006596Y005419D03*
X006596Y005426D03*
X006596Y005440D03*
X006596Y005469D03*
X006596Y005483D03*
X006596Y005490D03*
X006596Y005518D03*
X006596Y005532D03*
X006596Y005540D03*
X006596Y005568D03*
X006596Y005582D03*
X006596Y005596D03*
X006596Y005617D03*
X006596Y005632D03*
X006596Y005646D03*
X006596Y005667D03*
X006596Y005681D03*
X006596Y005731D03*
X006596Y005745D03*
X006596Y005759D03*
X006596Y005780D03*
X006596Y005794D03*
X006596Y005809D03*
X006455Y005540D03*
X006455Y005532D03*
X006455Y005518D03*
X006455Y005490D03*
X006455Y005483D03*
X006455Y005469D03*
X006448Y005426D03*
X006186Y005426D03*
X006186Y005440D03*
X006186Y005540D03*
X005980Y005667D03*
X005860Y005540D03*
X005860Y005532D03*
X005860Y005518D03*
X005860Y005490D03*
X005860Y005483D03*
X005860Y005469D03*
X005860Y005440D03*
X005860Y005426D03*
X005860Y005419D03*
X005860Y005391D03*
X005860Y005377D03*
X005860Y005362D03*
X005860Y005341D03*
X005860Y005327D03*
X005860Y005313D03*
X005711Y005419D03*
X005711Y005426D03*
X005711Y005440D03*
X005711Y005469D03*
X005711Y005568D03*
X005711Y005582D03*
X005704Y005596D03*
X005485Y005596D03*
X005336Y005540D03*
X005471Y005426D03*
X005471Y005391D03*
X005081Y005419D03*
X005081Y005426D03*
X005081Y005568D03*
X004961Y005617D03*
X004961Y005632D03*
X004968Y005646D03*
X004975Y005681D03*
X004982Y005709D03*
X004989Y005731D03*
X004996Y005759D03*
X005003Y005780D03*
X005010Y005809D03*
X004954Y005596D03*
X004947Y005582D03*
X004947Y005568D03*
X004939Y005540D03*
X004932Y005518D03*
X004925Y005490D03*
X004819Y005490D03*
X004812Y005518D03*
X004550Y005483D03*
X004536Y005532D03*
X004522Y005582D03*
X004508Y005632D03*
X004175Y005540D03*
X004175Y005532D03*
X004175Y005518D03*
X004175Y005490D03*
X004175Y005483D03*
X004175Y005469D03*
X004175Y005440D03*
X004175Y005426D03*
X004175Y005419D03*
X004175Y005391D03*
X004175Y005377D03*
X004175Y005362D03*
X004175Y005341D03*
X004175Y005327D03*
X004175Y005313D03*
X003927Y005540D03*
X003778Y005540D03*
X003778Y005532D03*
X003778Y005518D03*
X003778Y005490D03*
X003778Y005483D03*
X003778Y005469D03*
X003778Y005440D03*
X003778Y005426D03*
X003778Y005419D03*
X003778Y005391D03*
X003778Y005377D03*
X003778Y005362D03*
X003778Y005341D03*
X003778Y005327D03*
X003778Y005313D03*
X003630Y005313D03*
X003630Y005327D03*
X003630Y005341D03*
X003630Y005362D03*
X003630Y005377D03*
X003630Y005391D03*
X003630Y005419D03*
X003630Y005426D03*
X003630Y005440D03*
X003630Y005469D03*
X003630Y005483D03*
X003630Y005490D03*
X003630Y005518D03*
X003630Y005532D03*
X003630Y005540D03*
X003630Y005568D03*
X003630Y005582D03*
X003630Y005596D03*
X003630Y005617D03*
X003630Y005632D03*
X003630Y005646D03*
X003778Y005646D03*
X003778Y005632D03*
X003778Y005617D03*
X003778Y005596D03*
X003778Y005582D03*
X003778Y005568D03*
X003778Y005667D03*
X003778Y005681D03*
X003778Y005731D03*
X003778Y005745D03*
X003778Y005759D03*
X003778Y005780D03*
X003778Y005794D03*
X003778Y005809D03*
X003226Y005646D03*
X003226Y005632D03*
X003226Y005617D03*
X003226Y005596D03*
X003226Y005582D03*
X003226Y005568D03*
X003226Y005540D03*
X003226Y005532D03*
X003226Y005518D03*
X003226Y005490D03*
X003226Y005483D03*
X003226Y005469D03*
X003226Y005440D03*
X003226Y005426D03*
X003226Y005419D03*
X003226Y005391D03*
X003226Y005377D03*
X003226Y005362D03*
X003226Y005341D03*
X003226Y005327D03*
X003226Y005313D03*
D32*
X003428Y005313D03*
X003930Y005568D03*
X004171Y005568D03*
X004171Y005582D03*
X004497Y005667D03*
X004497Y005681D03*
X004490Y005695D03*
X004504Y005646D03*
X004511Y005617D03*
X004518Y005596D03*
X004525Y005568D03*
X004539Y005518D03*
X004546Y005490D03*
X004596Y005313D03*
X005099Y005391D03*
X005092Y005582D03*
X005099Y005596D03*
X004971Y005667D03*
X004986Y005717D03*
X004993Y005745D03*
X005007Y005794D03*
X005325Y005391D03*
X005474Y005377D03*
X006041Y005377D03*
X006041Y005391D03*
X006041Y005362D03*
X006041Y005341D03*
X006041Y005327D03*
X006041Y005313D03*
X006189Y005419D03*
X006189Y005568D03*
X006437Y005582D03*
X006444Y005568D03*
X006444Y005419D03*
X004476Y005745D03*
X004469Y005780D03*
X004462Y005809D03*
D33*
X004320Y005809D03*
X004320Y005794D03*
X004320Y005780D03*
X004320Y005759D03*
X004320Y005745D03*
X004320Y005731D03*
X004320Y005681D03*
X004320Y005667D03*
X004320Y005646D03*
X004320Y005632D03*
X004320Y005617D03*
X004320Y005596D03*
X004320Y005582D03*
X004320Y005568D03*
X004320Y005540D03*
X004320Y005532D03*
X004320Y005518D03*
X004320Y005490D03*
X004320Y005483D03*
X004320Y005469D03*
X004320Y005440D03*
X004320Y005426D03*
X004320Y005419D03*
X004320Y005391D03*
X004320Y005377D03*
X004320Y005362D03*
X004320Y005341D03*
X004320Y005327D03*
X004320Y005313D03*
X004660Y005532D03*
X004667Y005568D03*
X004674Y005582D03*
X004674Y005596D03*
X004787Y005617D03*
X004787Y005632D03*
X004794Y005596D03*
X004794Y005582D03*
X004801Y005568D03*
X004809Y005540D03*
X004809Y005532D03*
X004823Y005483D03*
X004922Y005483D03*
X004936Y005532D03*
X005078Y005440D03*
X005340Y005532D03*
X005332Y005568D03*
X005325Y005582D03*
X005481Y005582D03*
X005474Y005440D03*
X005856Y005646D03*
X005856Y005667D03*
X005856Y005681D03*
X006182Y005681D03*
X006182Y005667D03*
X006182Y005646D03*
X006182Y005632D03*
X006182Y005695D03*
X006182Y005709D03*
X006182Y005717D03*
X006182Y005731D03*
X006182Y005745D03*
X006182Y005759D03*
X006182Y005780D03*
X006182Y005794D03*
X006182Y005809D03*
X006182Y005532D03*
X006182Y005518D03*
X006182Y005490D03*
X006182Y005483D03*
X006182Y005469D03*
X006182Y005341D03*
X006182Y005327D03*
X006182Y005313D03*
X003923Y005313D03*
X003923Y005327D03*
X003923Y005341D03*
X003923Y005362D03*
X003923Y005377D03*
X003923Y005391D03*
X003923Y005419D03*
X003923Y005426D03*
X003923Y005440D03*
X003923Y005469D03*
X003923Y005483D03*
X003923Y005490D03*
X003923Y005518D03*
X003923Y005532D03*
X003923Y005632D03*
X003923Y005646D03*
X003923Y005667D03*
X003923Y005681D03*
X003527Y005632D03*
X003513Y005582D03*
X003371Y005483D03*
X003357Y005532D03*
X003357Y005540D03*
X003343Y005582D03*
X003343Y005596D03*
X003336Y005617D03*
X003329Y005632D03*
X003329Y005646D03*
D34*
X003934Y005582D03*
X004161Y005596D03*
X004472Y005759D03*
X004465Y005794D03*
X004600Y005327D03*
X004869Y005327D03*
X004869Y005313D03*
X005704Y005540D03*
X006193Y005582D03*
X006759Y005391D03*
X006788Y005426D03*
X006915Y005568D03*
D35*
X006345Y005327D03*
X005559Y005490D03*
X005212Y005313D03*
X004872Y005469D03*
X004596Y005469D03*
X003584Y005667D03*
X003272Y005667D03*
X003272Y005681D03*
D36*
X003265Y005731D03*
X003265Y005745D03*
X003428Y005426D03*
X003428Y005419D03*
X004596Y005440D03*
X005545Y005313D03*
D37*
X005467Y005419D03*
X005715Y005483D03*
X005715Y005490D03*
X005715Y005327D03*
X005715Y005313D03*
X006352Y005681D03*
X004681Y005632D03*
X004681Y005617D03*
X003350Y005568D03*
D38*
X003428Y005391D03*
X003428Y005377D03*
X004596Y005391D03*
X004872Y005391D03*
X006211Y005377D03*
X006345Y005313D03*
X006352Y005667D03*
D39*
X006303Y005362D03*
X006848Y005362D03*
X006848Y005341D03*
X006848Y005327D03*
X006848Y005313D03*
X004044Y005617D03*
D40*
X003428Y005320D03*
X005304Y005610D03*
X005694Y005610D03*
X006777Y005412D03*
X006819Y005462D03*
X006912Y005561D03*
X006933Y005589D03*
D41*
X005209Y005320D03*
D42*
X005545Y005320D03*
X004872Y005462D03*
X004738Y005639D03*
X003584Y005660D03*
X003272Y005688D03*
D43*
X003350Y005561D03*
X003499Y005915D03*
X004681Y005610D03*
X005467Y005412D03*
X005467Y005398D03*
X005715Y005320D03*
D44*
X006345Y005320D03*
X006352Y005660D03*
X004872Y005447D03*
X004093Y005660D03*
D45*
X004596Y005341D03*
X005701Y005391D03*
X006430Y005391D03*
X006430Y005596D03*
X006784Y005419D03*
X006827Y005469D03*
X006869Y005518D03*
X006883Y005532D03*
X006926Y005582D03*
X003428Y005327D03*
D46*
X005212Y005327D03*
X006352Y005632D03*
D47*
X005545Y005327D03*
D48*
X005471Y005384D03*
X005471Y005433D03*
X005329Y005575D03*
X005088Y005575D03*
X004961Y005624D03*
X004947Y005575D03*
X004932Y005525D03*
X004975Y005674D03*
X004982Y005702D03*
X004989Y005724D03*
X004996Y005752D03*
X004522Y005575D03*
X004536Y005525D03*
X004175Y005525D03*
X004175Y005476D03*
X004175Y005433D03*
X004175Y005384D03*
X004175Y005334D03*
X003778Y005334D03*
X003778Y005384D03*
X003778Y005433D03*
X003778Y005476D03*
X003778Y005525D03*
X003778Y005575D03*
X003778Y005624D03*
X003778Y005674D03*
X003778Y005752D03*
X003778Y005802D03*
X003630Y005624D03*
X003630Y005575D03*
X003630Y005525D03*
X003630Y005476D03*
X003630Y005433D03*
X003630Y005384D03*
X003630Y005334D03*
X003226Y005334D03*
X003226Y005384D03*
X003226Y005433D03*
X003226Y005476D03*
X003226Y005525D03*
X003226Y005575D03*
X003226Y005624D03*
X005081Y005433D03*
X005711Y005433D03*
X005860Y005433D03*
X005860Y005476D03*
X005860Y005525D03*
X005711Y005575D03*
X005860Y005384D03*
X005860Y005334D03*
X006186Y005433D03*
X006448Y005433D03*
X006455Y005476D03*
X006455Y005525D03*
X006596Y005525D03*
X006596Y005476D03*
X006596Y005433D03*
X006596Y005384D03*
X006596Y005334D03*
X006596Y005575D03*
X006596Y005624D03*
X006596Y005674D03*
X006596Y005752D03*
X006596Y005802D03*
D49*
X006876Y005525D03*
X006834Y005476D03*
X006423Y005384D03*
X003428Y005334D03*
D50*
X003371Y005476D03*
X003357Y005525D03*
X003343Y005575D03*
X003336Y005624D03*
X003513Y005575D03*
X003923Y005624D03*
X003923Y005674D03*
X003923Y005525D03*
X003923Y005476D03*
X003923Y005433D03*
X003923Y005384D03*
X003923Y005334D03*
X004320Y005334D03*
X004320Y005384D03*
X004320Y005433D03*
X004320Y005476D03*
X004320Y005525D03*
X004320Y005575D03*
X004320Y005624D03*
X004320Y005674D03*
X004320Y005752D03*
X004320Y005802D03*
X004660Y005525D03*
X004809Y005525D03*
X004801Y005575D03*
X004787Y005624D03*
X005481Y005575D03*
X005856Y005674D03*
X005984Y005674D03*
X006182Y005674D03*
X006182Y005702D03*
X006182Y005724D03*
X006182Y005752D03*
X006182Y005802D03*
X006182Y005525D03*
X006182Y005476D03*
X006182Y005334D03*
X003633Y005993D03*
X003364Y005993D03*
X003229Y005993D03*
D51*
X004600Y005334D03*
X005102Y005384D03*
X006193Y005575D03*
X006922Y005575D03*
D52*
X005871Y005575D03*
X004872Y005334D03*
D53*
X005209Y005334D03*
D54*
X005545Y005334D03*
D55*
X005715Y005334D03*
X005715Y005476D03*
X004681Y005624D03*
X003499Y005525D03*
X003499Y005993D03*
D56*
X003930Y005575D03*
X004171Y005575D03*
X004497Y005674D03*
X004490Y005702D03*
X004476Y005752D03*
X004462Y005802D03*
X004511Y005624D03*
X005007Y005802D03*
X006041Y005384D03*
X006041Y005334D03*
X006444Y005575D03*
D57*
X006349Y005334D03*
D58*
X006303Y005624D03*
X006848Y005334D03*
D59*
X005694Y005532D03*
X003428Y005362D03*
X003428Y005341D03*
D60*
X003941Y005596D03*
X004734Y005780D03*
X004869Y005341D03*
X005506Y005469D03*
X006200Y005391D03*
X006200Y005596D03*
D61*
X005598Y005646D03*
X005209Y005341D03*
D62*
X005598Y005341D03*
D63*
X006349Y005341D03*
D64*
X003428Y005348D03*
D65*
X004600Y005348D03*
D66*
X004869Y005348D03*
X004734Y005766D03*
X004734Y005787D03*
D67*
X005209Y005348D03*
X005598Y005639D03*
D68*
X005594Y005348D03*
D69*
X005209Y005660D03*
X006349Y005348D03*
D70*
X003428Y005355D03*
D71*
X004600Y005355D03*
X006419Y005603D03*
D72*
X005212Y005355D03*
D73*
X005594Y005355D03*
D74*
X005878Y005582D03*
X006416Y005377D03*
X004872Y005362D03*
X004596Y005362D03*
D75*
X005209Y005362D03*
D76*
X005591Y005362D03*
D77*
X005885Y005589D03*
X004596Y005398D03*
X003605Y005816D03*
X003428Y005370D03*
D78*
X004596Y005370D03*
D79*
X004869Y005370D03*
X004734Y005738D03*
D80*
X005209Y005370D03*
D81*
X004869Y005398D03*
X005683Y005370D03*
X003601Y005787D03*
X003254Y005816D03*
D82*
X004047Y005610D03*
X006306Y005370D03*
D83*
X005598Y005681D03*
X004869Y005377D03*
X004600Y005377D03*
X004734Y005745D03*
X004734Y005759D03*
D84*
X004731Y005794D03*
X005113Y005377D03*
X005311Y005377D03*
X005970Y005646D03*
X006841Y005483D03*
X006848Y005490D03*
X006890Y005540D03*
X006940Y005596D03*
D85*
X005690Y005377D03*
D86*
X006851Y005377D03*
D87*
X004872Y005384D03*
X003428Y005384D03*
D88*
X004600Y005384D03*
X004734Y005752D03*
D89*
X004483Y005724D03*
X005318Y005384D03*
D90*
X005697Y005384D03*
D91*
X006203Y005384D03*
X006352Y005674D03*
X004093Y005674D03*
D92*
X004734Y005802D03*
X006752Y005384D03*
X006795Y005433D03*
D93*
X003428Y005412D03*
X003428Y005398D03*
D94*
X003428Y005405D03*
D95*
X004600Y005405D03*
X004869Y005405D03*
D96*
X005102Y005603D03*
X005973Y005653D03*
X006193Y005405D03*
X006816Y005455D03*
X006858Y005504D03*
D97*
X006770Y005405D03*
X004157Y005603D03*
D98*
X004596Y005412D03*
X004872Y005412D03*
X003598Y005766D03*
X003258Y005787D03*
D99*
X003258Y005780D03*
X003258Y005794D03*
X003598Y005780D03*
X003598Y005759D03*
X004093Y005667D03*
X004596Y005426D03*
X004596Y005419D03*
X004872Y005419D03*
X004872Y005426D03*
D100*
X004670Y005575D03*
X003523Y005624D03*
X003488Y005476D03*
X003474Y005433D03*
X003382Y005433D03*
D101*
X004600Y005433D03*
D102*
X004872Y005433D03*
X005672Y005525D03*
X003591Y005702D03*
X003591Y005724D03*
D103*
X003530Y005646D03*
X003523Y005617D03*
X003516Y005596D03*
X003509Y005568D03*
X003488Y005490D03*
X003488Y005483D03*
X003481Y005469D03*
X003382Y005440D03*
X003375Y005469D03*
X003368Y005490D03*
X003360Y005518D03*
X003368Y005908D03*
X003233Y005908D03*
X003637Y005908D03*
X004663Y005540D03*
X004656Y005518D03*
X004649Y005490D03*
X004649Y005483D03*
X005478Y005568D03*
D104*
X005991Y005681D03*
X003633Y006000D03*
X003633Y006007D03*
X003364Y006007D03*
X003364Y006000D03*
X003229Y006000D03*
X003229Y006007D03*
X003477Y005440D03*
D105*
X003591Y005709D03*
X003591Y005717D03*
X004738Y005667D03*
X004872Y005440D03*
D106*
X004978Y005695D03*
X005318Y005596D03*
X004532Y005540D03*
X004483Y005717D03*
X004483Y005731D03*
X004093Y005681D03*
X006451Y005440D03*
D107*
X006802Y005440D03*
X005867Y005568D03*
X004734Y005809D03*
X004486Y005709D03*
D108*
X004663Y005547D03*
X004656Y005511D03*
X003516Y005589D03*
X003509Y005561D03*
X003481Y005462D03*
X003481Y005447D03*
X003375Y005462D03*
D109*
X003265Y005738D03*
X004596Y005447D03*
D110*
X004656Y005504D03*
X003481Y005455D03*
D111*
X004596Y005455D03*
D112*
X004872Y005455D03*
D113*
X005074Y005455D03*
D114*
X004593Y005462D03*
X003587Y005688D03*
D115*
X005074Y005462D03*
D116*
X005209Y005469D03*
X005209Y005483D03*
X005209Y005490D03*
D117*
X004872Y005476D03*
X004596Y005476D03*
X003272Y005674D03*
D118*
X005209Y005476D03*
D119*
X005524Y005476D03*
X003258Y005802D03*
D120*
X003268Y005717D03*
X003268Y005709D03*
X003268Y005695D03*
X003587Y005695D03*
X003587Y005681D03*
X005541Y005483D03*
D121*
X005209Y005497D03*
D122*
X005616Y005497D03*
D123*
X005867Y005561D03*
X006851Y005497D03*
X004734Y005816D03*
X004479Y005738D03*
D124*
X004678Y005603D03*
X003495Y005504D03*
D125*
X005209Y005504D03*
D126*
X005623Y005504D03*
D127*
X005205Y005511D03*
D128*
X005633Y005511D03*
D129*
X003502Y005532D03*
X003502Y005540D03*
X003495Y005518D03*
X003502Y005908D03*
D130*
X005205Y005518D03*
D131*
X005651Y005518D03*
D132*
X005205Y005525D03*
D133*
X005074Y005532D03*
X005074Y005540D03*
D134*
X004978Y005688D03*
X004532Y005547D03*
X005864Y005547D03*
X006451Y005547D03*
D135*
X005864Y005554D03*
D136*
X006904Y005554D03*
D137*
X005920Y005596D03*
X005920Y005617D03*
X005920Y005632D03*
D138*
X006207Y005603D03*
X003948Y005603D03*
D139*
X005920Y005603D03*
D140*
X006851Y005603D03*
X006851Y005653D03*
D141*
X006352Y005639D03*
X005920Y005610D03*
X004093Y005639D03*
D142*
X006310Y005610D03*
D143*
X006851Y005610D03*
X006851Y005639D03*
X006851Y005660D03*
D144*
X005594Y005617D03*
X005205Y005617D03*
D145*
X006306Y005617D03*
D146*
X006851Y005617D03*
X006851Y005632D03*
X006851Y005646D03*
X006851Y005667D03*
X006851Y005681D03*
D147*
X004093Y005624D03*
D148*
X005209Y005624D03*
X005598Y005624D03*
D149*
X005920Y005624D03*
D150*
X006851Y005624D03*
X006851Y005674D03*
D151*
X004090Y005632D03*
D152*
X005209Y005632D03*
D153*
X005594Y005632D03*
D154*
X005209Y005639D03*
D155*
X004093Y005646D03*
X006352Y005646D03*
D156*
X004734Y005646D03*
D157*
X005209Y005646D03*
D158*
X003275Y005653D03*
D159*
X003584Y005653D03*
X004093Y005653D03*
D160*
X004734Y005653D03*
D161*
X005209Y005653D03*
D162*
X005598Y005653D03*
D163*
X006352Y005653D03*
D164*
X003275Y005660D03*
D165*
X004734Y005660D03*
D166*
X005594Y005660D03*
D167*
X005598Y005667D03*
X005209Y005667D03*
D168*
X005209Y005674D03*
X005598Y005674D03*
X003587Y005674D03*
X003268Y005702D03*
D169*
X003261Y005752D03*
X003594Y005752D03*
X004734Y005674D03*
D170*
X004734Y005681D03*
X004734Y005695D03*
X003594Y005731D03*
X003594Y005745D03*
X003261Y005759D03*
D171*
X003254Y005809D03*
X003601Y005809D03*
X003601Y005794D03*
X004734Y005731D03*
X004734Y005717D03*
X004734Y005709D03*
X005209Y005681D03*
D172*
X004093Y005688D03*
D173*
X003594Y005738D03*
X003261Y005766D03*
X004734Y005688D03*
D174*
X005598Y005688D03*
X003679Y005964D03*
X003637Y006028D03*
X003601Y005979D03*
X003594Y005964D03*
X003601Y005929D03*
X003637Y005879D03*
X003545Y005964D03*
X003537Y005979D03*
X003502Y006028D03*
X003467Y005979D03*
X003460Y005964D03*
X003467Y005929D03*
X003502Y005879D03*
X003410Y005964D03*
X003403Y005979D03*
X003368Y006028D03*
X003332Y005979D03*
X003332Y005929D03*
X003368Y005879D03*
X003233Y005879D03*
X003198Y005929D03*
X003198Y005979D03*
X003233Y006028D03*
X003268Y005979D03*
D175*
X003364Y006014D03*
X003499Y006014D03*
X003633Y006014D03*
X005998Y005688D03*
D176*
X006349Y005688D03*
D177*
X005212Y005695D03*
X003633Y006035D03*
X003499Y006035D03*
X003364Y006035D03*
D178*
X003601Y005802D03*
X004734Y005724D03*
X004734Y005702D03*
D179*
X003265Y005724D03*
D180*
X003261Y005773D03*
D181*
X003233Y005872D03*
X003368Y005872D03*
D182*
X003502Y005872D03*
X003637Y005872D03*
D183*
X003637Y005894D03*
X003502Y005894D03*
X003368Y005894D03*
X003233Y005894D03*
D184*
X003233Y005901D03*
X003368Y005901D03*
X003502Y005901D03*
X003637Y005901D03*
D185*
X003665Y005922D03*
X003608Y005922D03*
X003594Y005971D03*
X003637Y006021D03*
X003502Y006021D03*
X003460Y005971D03*
X003396Y005922D03*
X003339Y005922D03*
X003261Y005922D03*
X003205Y005922D03*
X003190Y005971D03*
X003233Y006021D03*
X003368Y006021D03*
X003530Y005922D03*
D186*
X003474Y005922D03*
X003325Y005971D03*
D187*
X003265Y005929D03*
X003187Y005964D03*
X003399Y005929D03*
X003534Y005929D03*
X003668Y005929D03*
D188*
X003676Y005936D03*
X003605Y005986D03*
X003541Y005936D03*
X003470Y005986D03*
X003406Y005936D03*
X003336Y005986D03*
X003272Y005936D03*
X003201Y005986D03*
D189*
X003275Y005943D03*
X003325Y005943D03*
X003325Y005936D03*
D190*
X003325Y005964D03*
X003275Y005964D03*
X003672Y005979D03*
D191*
X003676Y005971D03*
X003272Y005971D03*
D192*
X003406Y005971D03*
X003541Y005971D03*
D193*
X003499Y006000D03*
X003499Y006007D03*
D194*
X003229Y006014D03*
D195*
X004482Y002294D02*
X004482Y002148D01*
X004482Y002221D02*
X004262Y002221D01*
X004336Y002148D01*
X004299Y002073D02*
X004372Y002073D01*
X004409Y002037D01*
X004409Y001927D01*
X004482Y001927D02*
X004262Y001927D01*
X004262Y002037D01*
X004299Y002073D01*
X004262Y001852D02*
X004262Y001779D01*
X004262Y001816D02*
X004446Y001816D01*
X004482Y001779D01*
X004482Y001742D01*
X004446Y001706D01*
D196*
X003810Y003545D02*
X003709Y003545D01*
X003810Y003645D01*
X003810Y003670D01*
X003785Y003695D01*
X003735Y003695D01*
X003709Y003670D01*
X003662Y003670D02*
X003662Y003620D01*
X003637Y003595D01*
X003562Y003595D01*
X003562Y003545D02*
X003562Y003695D01*
X003637Y003695D01*
X003662Y003670D01*
X003515Y003695D02*
X003465Y003695D01*
X003490Y003695D02*
X003490Y003570D01*
X003465Y003545D01*
X003440Y003545D01*
X003415Y003570D01*
X006301Y006314D02*
X006326Y006289D01*
X006351Y006289D01*
X006376Y006314D01*
X006376Y006439D01*
X006351Y006439D02*
X006401Y006439D01*
X006448Y006439D02*
X006523Y006439D01*
X006548Y006414D01*
X006548Y006364D01*
X006523Y006339D01*
X006448Y006339D01*
X006448Y006289D02*
X006448Y006439D01*
X006595Y006414D02*
X006620Y006439D01*
X006670Y006439D01*
X006695Y006414D01*
X006695Y006389D01*
X006670Y006364D01*
X006695Y006339D01*
X006695Y006314D01*
X006670Y006289D01*
X006620Y006289D01*
X006595Y006314D01*
X006645Y006364D02*
X006670Y006364D01*
M02*
