G75*
%MOIN*%
%OFA0B0*%
%FSLAX24Y24*%
%IPPOS*%
%LPD*%
%AMOC8*
5,1,8,0,0,1.08239X$1,22.5*
%
%ADD10C,0.0020*%
%ADD11C,0.0040*%
%ADD12C,0.0030*%
%ADD13C,0.0060*%
%ADD14C,0.0010*%
%ADD15R,0.0042X0.0007*%
%ADD16R,0.0035X0.0007*%
%ADD17R,0.0028X0.0007*%
%ADD18R,0.0099X0.0007*%
%ADD19R,0.0106X0.0007*%
%ADD20R,0.0092X0.0007*%
%ADD21R,0.0120X0.0007*%
%ADD22R,0.0113X0.0007*%
%ADD23R,0.0085X0.0007*%
%ADD24R,0.0333X0.0007*%
%ADD25R,0.0099X0.0007*%
%ADD26R,0.0106X0.0007*%
%ADD27R,0.0092X0.0007*%
%ADD28R,0.0163X0.0007*%
%ADD29R,0.0149X0.0007*%
%ADD30R,0.0092X0.0007*%
%ADD31R,0.0127X0.0007*%
%ADD32R,0.0333X0.0007*%
%ADD33R,0.0099X0.0007*%
%ADD34R,0.0106X0.0007*%
%ADD35R,0.0092X0.0007*%
%ADD36R,0.0113X0.0007*%
%ADD37R,0.0191X0.0007*%
%ADD38R,0.0177X0.0007*%
%ADD39R,0.0092X0.0007*%
%ADD40R,0.0149X0.0007*%
%ADD41R,0.0333X0.0007*%
%ADD42R,0.0120X0.0007*%
%ADD43R,0.0212X0.0007*%
%ADD44R,0.0191X0.0007*%
%ADD45R,0.0092X0.0007*%
%ADD46R,0.0177X0.0007*%
%ADD47R,0.0120X0.0007*%
%ADD48R,0.0234X0.0007*%
%ADD49R,0.0205X0.0007*%
%ADD50R,0.0099X0.0007*%
%ADD51R,0.0120X0.0007*%
%ADD52R,0.0092X0.0007*%
%ADD53R,0.0113X0.0007*%
%ADD54R,0.0120X0.0007*%
%ADD55R,0.0255X0.0007*%
%ADD56R,0.0220X0.0007*%
%ADD57R,0.0092X0.0007*%
%ADD58R,0.0106X0.0007*%
%ADD59R,0.0198X0.0007*%
%ADD60R,0.0333X0.0007*%
%ADD61R,0.0135X0.0007*%
%ADD62R,0.0127X0.0007*%
%ADD63R,0.0269X0.0007*%
%ADD64R,0.0326X0.0007*%
%ADD65R,0.0212X0.0007*%
%ADD66R,0.0135X0.0007*%
%ADD67R,0.0127X0.0007*%
%ADD68R,0.0127X0.0007*%
%ADD69R,0.0283X0.0007*%
%ADD70R,0.0333X0.0007*%
%ADD71R,0.0227X0.0007*%
%ADD72R,0.0135X0.0007*%
%ADD73R,0.0127X0.0007*%
%ADD74R,0.0290X0.0007*%
%ADD75R,0.0333X0.0007*%
%ADD76R,0.0135X0.0007*%
%ADD77R,0.0297X0.0007*%
%ADD78R,0.0340X0.0007*%
%ADD79R,0.0149X0.0007*%
%ADD80R,0.0135X0.0007*%
%ADD81R,0.0142X0.0007*%
%ADD82R,0.0312X0.0007*%
%ADD83R,0.0156X0.0007*%
%ADD84R,0.0340X0.0007*%
%ADD85R,0.0142X0.0007*%
%ADD86R,0.0120X0.0007*%
%ADD87R,0.0142X0.0007*%
%ADD88R,0.0326X0.0007*%
%ADD89R,0.0149X0.0007*%
%ADD90R,0.0142X0.0007*%
%ADD91R,0.0106X0.0007*%
%ADD92R,0.0127X0.0007*%
%ADD93R,0.0135X0.0007*%
%ADD94R,0.0113X0.0007*%
%ADD95R,0.0163X0.0007*%
%ADD96R,0.0163X0.0007*%
%ADD97R,0.0156X0.0007*%
%ADD98R,0.0113X0.0007*%
%ADD99R,0.0120X0.0007*%
%ADD100R,0.0163X0.0007*%
%ADD101R,0.0163X0.0007*%
%ADD102R,0.0085X0.0007*%
%ADD103R,0.0170X0.0007*%
%ADD104R,0.0177X0.0007*%
%ADD105R,0.0085X0.0007*%
%ADD106R,0.0078X0.0007*%
%ADD107R,0.0177X0.0007*%
%ADD108R,0.0106X0.0007*%
%ADD109R,0.0113X0.0007*%
%ADD110R,0.0085X0.0007*%
%ADD111R,0.0177X0.0007*%
%ADD112R,0.0085X0.0007*%
%ADD113R,0.0177X0.0007*%
%ADD114R,0.0177X0.0007*%
%ADD115R,0.0099X0.0007*%
%ADD116R,0.0184X0.0007*%
%ADD117R,0.0099X0.0007*%
%ADD118R,0.0368X0.0007*%
%ADD119R,0.0191X0.0007*%
%ADD120R,0.0368X0.0007*%
%ADD121R,0.0163X0.0007*%
%ADD122R,0.0184X0.0007*%
%ADD123R,0.0368X0.0007*%
%ADD124R,0.0290X0.0007*%
%ADD125R,0.0113X0.0007*%
%ADD126R,0.0085X0.0007*%
%ADD127R,0.0368X0.0007*%
%ADD128R,0.0276X0.0007*%
%ADD129R,0.0361X0.0007*%
%ADD130R,0.0255X0.0007*%
%ADD131R,0.0085X0.0007*%
%ADD132R,0.0361X0.0007*%
%ADD133R,0.0220X0.0007*%
%ADD134R,0.0361X0.0007*%
%ADD135R,0.0099X0.0007*%
%ADD136R,0.0106X0.0007*%
%ADD137R,0.0106X0.0007*%
%ADD138R,0.0120X0.0007*%
%ADD139R,0.0219X0.0007*%
%ADD140R,0.0142X0.0007*%
%ADD141R,0.0219X0.0007*%
%ADD142R,0.0312X0.0007*%
%ADD143R,0.0219X0.0007*%
%ADD144R,0.0347X0.0007*%
%ADD145R,0.0312X0.0007*%
%ADD146R,0.0304X0.0007*%
%ADD147R,0.0340X0.0007*%
%ADD148R,0.0312X0.0007*%
%ADD149R,0.0234X0.0007*%
%ADD150R,0.0297X0.0007*%
%ADD151R,0.0219X0.0007*%
%ADD152R,0.0312X0.0007*%
%ADD153R,0.0227X0.0007*%
%ADD154R,0.0283X0.0007*%
%ADD155R,0.0290X0.0007*%
%ADD156R,0.0269X0.0007*%
%ADD157R,0.0205X0.0007*%
%ADD158R,0.0184X0.0007*%
%ADD159R,0.0255X0.0007*%
%ADD160R,0.0198X0.0007*%
%ADD161R,0.0191X0.0007*%
%ADD162R,0.0184X0.0007*%
%ADD163R,0.0241X0.0007*%
%ADD164R,0.0255X0.0007*%
%ADD165R,0.0191X0.0007*%
%ADD166R,0.0198X0.0007*%
%ADD167R,0.0184X0.0007*%
%ADD168R,0.0234X0.0007*%
%ADD169R,0.0212X0.0007*%
%ADD170R,0.0184X0.0007*%
%ADD171R,0.0170X0.0007*%
%ADD172R,0.0170X0.0007*%
%ADD173R,0.0156X0.0007*%
%ADD174R,0.0035X0.0007*%
%ADD175R,0.0170X0.0007*%
%ADD176R,0.0042X0.0007*%
%ADD177R,0.0064X0.0007*%
%ADD178R,0.0028X0.0007*%
%ADD179R,0.0035X0.0007*%
%ADD180R,0.0156X0.0007*%
%ADD181R,0.0177X0.0007*%
%ADD182R,0.0170X0.0007*%
%ADD183R,0.0028X0.0007*%
%ADD184R,0.0028X0.0007*%
%ADD185R,0.0057X0.0007*%
%ADD186R,0.0057X0.0007*%
%ADD187R,0.0042X0.0007*%
%ADD188R,0.0043X0.0007*%
%ADD189R,0.0050X0.0007*%
%ADD190R,0.0050X0.0007*%
%ADD191R,0.0043X0.0007*%
%ADD192R,0.0043X0.0007*%
%ADD193R,0.0035X0.0007*%
%ADD194R,0.0035X0.0007*%
%ADD195R,0.0078X0.0007*%
%ADD196R,0.0064X0.0007*%
D10*
X005736Y001161D02*
X005773Y001125D01*
X005846Y001125D01*
X005883Y001161D01*
X005883Y001308D01*
X005846Y001345D01*
X005773Y001345D01*
X005736Y001308D01*
X005957Y001308D02*
X005994Y001345D01*
X006067Y001345D01*
X006104Y001308D01*
X006104Y001161D01*
X006067Y001125D01*
X005994Y001125D01*
X005957Y001161D01*
X006178Y001198D02*
X006178Y001345D01*
X006178Y001198D02*
X006252Y001125D01*
X006325Y001198D01*
X006325Y001345D01*
X006372Y001762D02*
X006262Y001762D01*
X006225Y001799D01*
X006225Y001836D01*
X006262Y001872D01*
X006372Y001872D01*
X006372Y001762D02*
X006372Y001983D01*
X006262Y001983D01*
X006225Y001946D01*
X006225Y001909D01*
X006262Y001872D01*
X006151Y001872D02*
X006005Y001872D01*
X006005Y001909D02*
X006005Y001762D01*
X006151Y001762D02*
X006151Y001909D01*
X006078Y001983D01*
X006005Y001909D01*
X005930Y001983D02*
X005784Y001983D01*
X005857Y001983D02*
X005857Y001762D01*
D11*
X002276Y000796D02*
X002276Y000662D01*
X002476Y000662D01*
X002476Y000883D02*
X002276Y000883D01*
X002343Y000883D02*
X002343Y000983D01*
X002376Y001017D01*
X002443Y001017D01*
X002476Y000983D01*
X002476Y000883D01*
X002476Y001104D02*
X002276Y001104D01*
X002343Y001171D01*
X002276Y001238D01*
X002476Y001238D01*
X002435Y001709D02*
X002402Y001709D01*
X002369Y001743D01*
X002369Y001809D01*
X002335Y001843D01*
X002302Y001843D01*
X002268Y001809D01*
X002268Y001743D01*
X002302Y001709D01*
X002435Y001709D02*
X002469Y001743D01*
X002469Y001809D01*
X002435Y001843D01*
X002435Y001930D02*
X002302Y001930D01*
X002268Y001964D01*
X002268Y002030D01*
X002302Y002064D01*
X002268Y002151D02*
X002268Y002285D01*
X002268Y002151D02*
X002469Y002151D01*
X002435Y002064D02*
X002469Y002030D01*
X002469Y001964D01*
X002435Y001930D01*
X002443Y002670D02*
X002410Y002670D01*
X002376Y002703D01*
X002376Y002770D01*
X002343Y002803D01*
X002310Y002803D01*
X002276Y002770D01*
X002276Y002703D01*
X002310Y002670D01*
X002443Y002670D02*
X002476Y002703D01*
X002476Y002770D01*
X002443Y002803D01*
X002476Y002891D02*
X002476Y002991D01*
X002443Y003024D01*
X002310Y003024D01*
X002276Y002991D01*
X002276Y002891D01*
X002476Y002891D01*
X002410Y003112D02*
X002276Y003112D01*
X002376Y003112D02*
X002376Y003245D01*
X002410Y003245D02*
X002276Y003245D01*
X002410Y003245D02*
X002476Y003179D01*
X002410Y003112D01*
X002880Y002936D02*
X003013Y002936D01*
X002947Y002936D02*
X002947Y003136D01*
X003013Y003069D01*
X003101Y003003D02*
X003101Y003136D01*
X003234Y003136D02*
X003234Y003003D01*
X003168Y002936D01*
X003101Y003003D01*
X003543Y003103D02*
X003543Y003136D01*
X003543Y003103D02*
X003610Y003036D01*
X003610Y002936D01*
X003764Y002936D02*
X003831Y003003D01*
X003797Y003003D02*
X003897Y003003D01*
X003897Y002936D02*
X003897Y003136D01*
X003797Y003136D01*
X003764Y003103D01*
X003764Y003036D01*
X003797Y003003D01*
X003985Y002936D02*
X004118Y002936D01*
X004118Y003136D01*
X003985Y003136D01*
X004052Y003036D02*
X004118Y003036D01*
X004206Y003136D02*
X004339Y003136D01*
X004273Y003136D02*
X004273Y002936D01*
X004494Y002936D02*
X004494Y003136D01*
X004560Y003136D02*
X004427Y003136D01*
X004648Y003069D02*
X004648Y002936D01*
X004781Y002936D02*
X004781Y003069D01*
X004715Y003136D01*
X004648Y003069D01*
X004648Y003036D02*
X004781Y003036D01*
X004869Y003069D02*
X004869Y003103D01*
X004902Y003136D01*
X005002Y003136D01*
X005002Y002936D01*
X004902Y002936D01*
X004869Y002969D01*
X004869Y003003D01*
X004902Y003036D01*
X005002Y003036D01*
X004902Y003036D02*
X004869Y003069D01*
X005311Y003103D02*
X005311Y003136D01*
X005311Y003103D02*
X005378Y003036D01*
X005378Y002936D01*
X005532Y002936D02*
X005532Y003136D01*
X005444Y003136D02*
X005444Y003103D01*
X005378Y003036D01*
X005532Y002936D02*
X005665Y003136D01*
X005665Y002936D01*
X005746Y002936D02*
X005813Y002936D01*
X005779Y002936D02*
X005779Y003136D01*
X005746Y003136D02*
X005813Y003136D01*
X005900Y003136D02*
X006034Y003136D01*
X005967Y003136D02*
X005967Y002936D01*
X006342Y002969D02*
X006376Y002936D01*
X006442Y002936D01*
X006476Y002969D01*
X006476Y003103D01*
X006442Y003136D01*
X006376Y003136D01*
X006342Y003103D01*
X006563Y003103D02*
X006563Y003069D01*
X006697Y002936D01*
X006563Y002936D01*
X006777Y002936D02*
X006844Y002936D01*
X006811Y002936D02*
X006811Y003136D01*
X006844Y003136D02*
X006777Y003136D01*
X006697Y003103D02*
X006663Y003136D01*
X006597Y003136D01*
X006563Y003103D01*
X006931Y003036D02*
X007065Y003036D01*
X007152Y003103D02*
X007286Y002969D01*
X007286Y002936D01*
X007152Y002936D01*
X007373Y002936D02*
X007507Y002936D01*
X007507Y003136D01*
X007373Y003136D01*
X007286Y003136D02*
X007152Y003136D01*
X007152Y003103D01*
X007440Y003036D02*
X007507Y003036D01*
X008076Y003034D02*
X008076Y002934D01*
X008276Y002934D01*
X008276Y003034D01*
X008242Y003068D01*
X008109Y003068D01*
X008076Y003034D01*
X008076Y003155D02*
X008209Y003155D01*
X008276Y003222D01*
X008209Y003289D01*
X008076Y003289D01*
X008176Y003289D02*
X008176Y003155D01*
X008142Y002847D02*
X008109Y002847D01*
X008076Y002813D01*
X008076Y002747D01*
X008109Y002713D01*
X008176Y002747D02*
X008176Y002813D01*
X008142Y002847D01*
X008242Y002847D02*
X008276Y002813D01*
X008276Y002747D01*
X008242Y002713D01*
X008209Y002713D01*
X008176Y002747D01*
X008036Y002344D02*
X008036Y002210D01*
X008236Y002210D01*
X008203Y002123D02*
X008236Y002089D01*
X008236Y002023D01*
X008203Y001989D01*
X008070Y001989D01*
X008036Y002023D01*
X008036Y002089D01*
X008070Y002123D01*
X008070Y001902D02*
X008036Y001869D01*
X008036Y001802D01*
X008070Y001768D01*
X008136Y001802D02*
X008136Y001869D01*
X008103Y001902D01*
X008070Y001902D01*
X008136Y001802D02*
X008170Y001768D01*
X008203Y001768D01*
X008236Y001802D01*
X008236Y001869D01*
X008203Y001902D01*
X008236Y001281D02*
X008036Y001281D01*
X008103Y001214D01*
X008036Y001147D01*
X008236Y001147D01*
X008203Y001060D02*
X008136Y001060D01*
X008103Y001027D01*
X008103Y000926D01*
X008036Y000926D02*
X008236Y000926D01*
X008236Y001027D01*
X008203Y001060D01*
X008036Y000839D02*
X008036Y000705D01*
X008236Y000705D01*
X008203Y003698D02*
X008070Y003698D01*
X008036Y003731D01*
X008036Y003798D01*
X008070Y003831D01*
X008136Y003831D01*
X008136Y003764D01*
X008203Y003698D02*
X008236Y003731D01*
X008236Y003798D01*
X008203Y003831D01*
X008236Y003919D02*
X008036Y004052D01*
X008236Y004052D01*
X008236Y004140D02*
X008236Y004240D01*
X008203Y004273D01*
X008070Y004273D01*
X008036Y004240D01*
X008036Y004140D01*
X008236Y004140D01*
X008236Y003919D02*
X008036Y003919D01*
X008142Y004682D02*
X008076Y004749D01*
X008142Y004815D01*
X008276Y004815D01*
X008242Y004903D02*
X008109Y004903D01*
X008076Y004936D01*
X008076Y005003D01*
X008109Y005036D01*
X008109Y005124D02*
X008076Y005157D01*
X008076Y005224D01*
X008109Y005257D01*
X008242Y005257D02*
X008276Y005224D01*
X008276Y005157D01*
X008242Y005124D01*
X008109Y005124D01*
X008242Y005036D02*
X008276Y005003D01*
X008276Y004936D01*
X008242Y004903D01*
X008276Y004682D02*
X008142Y004682D01*
X008113Y005831D02*
X008113Y005932D01*
X008079Y005965D01*
X008046Y005965D01*
X008013Y005932D01*
X008013Y005831D01*
X008213Y005831D01*
X008213Y005932D01*
X008179Y005965D01*
X008146Y005965D01*
X008113Y005932D01*
X008113Y006052D02*
X008113Y006186D01*
X008146Y006186D02*
X008013Y006186D01*
X008146Y006186D02*
X008213Y006119D01*
X008146Y006052D01*
X008013Y006052D01*
X008013Y006340D02*
X008213Y006340D01*
X008213Y006273D02*
X008213Y006407D01*
X003676Y003136D02*
X003676Y003103D01*
X003610Y003036D01*
X002476Y003648D02*
X002443Y003615D01*
X002310Y003615D01*
X002276Y003648D01*
X002276Y003715D01*
X002310Y003748D01*
X002376Y003748D01*
X002376Y003682D01*
X002443Y003748D02*
X002476Y003715D01*
X002476Y003648D01*
X002476Y003836D02*
X002276Y003836D01*
X002276Y003969D02*
X002476Y003969D01*
X002476Y004057D02*
X002476Y004157D01*
X002443Y004190D01*
X002310Y004190D01*
X002276Y004157D01*
X002276Y004057D01*
X002476Y004057D01*
X002276Y003969D02*
X002476Y003836D01*
X002473Y004684D02*
X002339Y004684D01*
X002273Y004751D01*
X002339Y004818D01*
X002473Y004818D01*
X002439Y004905D02*
X002306Y004905D01*
X002273Y004939D01*
X002273Y005005D01*
X002306Y005039D01*
X002306Y005126D02*
X002273Y005160D01*
X002273Y005226D01*
X002306Y005260D01*
X002439Y005260D02*
X002473Y005226D01*
X002473Y005160D01*
X002439Y005126D01*
X002306Y005126D01*
X002439Y005039D02*
X002473Y005005D01*
X002473Y004939D01*
X002439Y004905D01*
X002396Y005631D02*
X002396Y005731D01*
X002363Y005764D01*
X002330Y005764D01*
X002296Y005731D01*
X002296Y005631D01*
X002496Y005631D01*
X002496Y005731D01*
X002463Y005764D01*
X002430Y005764D01*
X002396Y005731D01*
X002396Y005852D02*
X002396Y005985D01*
X002430Y005985D02*
X002496Y005919D01*
X002430Y005852D01*
X002296Y005852D01*
X002296Y005985D02*
X002430Y005985D01*
X002496Y006073D02*
X002496Y006206D01*
X002496Y006140D02*
X002296Y006140D01*
D12*
X003644Y005064D02*
X003705Y005126D01*
X003890Y005126D01*
X003890Y004756D01*
X003705Y004756D01*
X003644Y004817D01*
X003644Y005064D01*
X004012Y005126D02*
X004012Y004756D01*
X004259Y005126D01*
X004259Y004756D01*
X004380Y004817D02*
X004380Y004941D01*
X004504Y004941D01*
X004627Y005064D02*
X004565Y005126D01*
X004442Y005126D01*
X004380Y005064D01*
X004627Y005064D02*
X004627Y004817D01*
X004565Y004756D01*
X004442Y004756D01*
X004380Y004817D01*
X004418Y004122D02*
X004418Y003875D01*
X004295Y003752D01*
X004172Y003875D01*
X004172Y004122D01*
X004050Y003937D02*
X003803Y003937D01*
X003927Y004060D02*
X003927Y003813D01*
X004007Y002882D02*
X003760Y002511D01*
X003760Y002882D01*
X003639Y002882D02*
X003453Y002882D01*
X003392Y002820D01*
X003392Y002573D01*
X003453Y002511D01*
X003639Y002511D01*
X003639Y002882D01*
X004007Y002882D02*
X004007Y002511D01*
X004128Y002573D02*
X004128Y002697D01*
X004252Y002697D01*
X004375Y002820D02*
X004375Y002573D01*
X004313Y002511D01*
X004190Y002511D01*
X004128Y002573D01*
X004128Y002820D02*
X004190Y002882D01*
X004313Y002882D01*
X004375Y002820D01*
X004084Y001311D02*
X004084Y001064D01*
X003960Y000941D01*
X003837Y001064D01*
X003837Y001311D01*
X003592Y001249D02*
X003592Y001002D01*
X003469Y001126D02*
X003716Y001126D01*
X007420Y004753D02*
X007543Y004630D01*
X007666Y004753D01*
X007666Y005000D01*
X007420Y005000D02*
X007420Y004753D01*
X007298Y004815D02*
X007051Y004815D01*
X007175Y004938D02*
X007175Y004691D01*
X006379Y004746D02*
X006317Y004685D01*
X006194Y004685D01*
X006132Y004746D01*
X006132Y004870D01*
X006256Y004870D01*
X006379Y004993D02*
X006379Y004746D01*
X006011Y004685D02*
X006011Y005055D01*
X005764Y004685D01*
X005764Y005055D01*
X005642Y005055D02*
X005457Y005055D01*
X005396Y004993D01*
X005396Y004746D01*
X005457Y004685D01*
X005642Y004685D01*
X005642Y005055D01*
X006132Y004993D02*
X006194Y005055D01*
X006317Y005055D01*
X006379Y004993D01*
D13*
X006771Y002183D02*
X007371Y002183D01*
X007388Y002181D01*
X007405Y002177D01*
X007421Y002170D01*
X007435Y002160D01*
X007448Y002147D01*
X007458Y002133D01*
X007465Y002117D01*
X007469Y002100D01*
X007471Y002083D01*
X007471Y001083D01*
X007469Y001066D01*
X007465Y001049D01*
X007458Y001033D01*
X007448Y001019D01*
X007435Y001006D01*
X007421Y000996D01*
X007405Y000989D01*
X007388Y000985D01*
X007371Y000983D01*
X006771Y000983D01*
X006754Y000985D01*
X006737Y000989D01*
X006721Y000996D01*
X006707Y001006D01*
X006694Y001019D01*
X006684Y001033D01*
X006677Y001049D01*
X006673Y001066D01*
X006671Y001083D01*
X006671Y002083D01*
X006673Y002100D01*
X006677Y002117D01*
X006684Y002133D01*
X006694Y002147D01*
X006707Y002160D01*
X006721Y002170D01*
X006737Y002177D01*
X006754Y002181D01*
X006771Y002183D01*
D14*
X006829Y002249D02*
X006929Y002249D01*
X006879Y002249D02*
X006879Y002400D01*
X006929Y002350D01*
X006976Y002400D02*
X007026Y002400D01*
X007001Y002400D02*
X007001Y002275D01*
X007026Y002249D01*
X007051Y002249D01*
X007076Y002275D01*
X007124Y002275D02*
X007149Y002249D01*
X007199Y002249D01*
X007224Y002275D01*
X007199Y002325D02*
X007149Y002325D01*
X007124Y002300D01*
X007124Y002275D01*
X007199Y002325D02*
X007224Y002350D01*
X007224Y002375D01*
X007199Y002400D01*
X007149Y002400D01*
X007124Y002375D01*
D15*
X004907Y005292D03*
X006444Y005943D03*
X006458Y005986D03*
X006529Y005943D03*
X006529Y005936D03*
X006578Y005943D03*
X006592Y005986D03*
X006663Y005943D03*
X006663Y005936D03*
X006713Y005943D03*
X006727Y005986D03*
X006862Y005986D03*
X006932Y005943D03*
X006932Y005936D03*
X006890Y005886D03*
X006755Y005886D03*
X006621Y005886D03*
X006486Y005886D03*
D16*
X006893Y006035D03*
X004578Y005292D03*
D17*
X004107Y005695D03*
X003781Y005292D03*
D18*
X003781Y005299D03*
X003668Y005447D03*
X003668Y005462D03*
X003668Y005497D03*
X003668Y005511D03*
X003675Y005561D03*
X003526Y005561D03*
X003526Y005547D03*
X003526Y005511D03*
X003526Y005497D03*
X003526Y005462D03*
X003526Y005447D03*
X003526Y005412D03*
X003526Y005398D03*
X003526Y005370D03*
X003526Y005348D03*
X003526Y005320D03*
X003526Y005299D03*
X003526Y005589D03*
X003526Y005610D03*
X003526Y005639D03*
X003526Y005660D03*
X003526Y005738D03*
X003526Y005766D03*
X003526Y005787D03*
X003526Y005816D03*
X003937Y005547D03*
X004263Y005511D03*
X004263Y005497D03*
X004263Y005462D03*
X004263Y005447D03*
X004263Y005412D03*
X004263Y005398D03*
X004263Y005370D03*
X004263Y005348D03*
X004263Y005320D03*
X004263Y005299D03*
X004411Y005447D03*
X004411Y005462D03*
X004411Y005561D03*
X004411Y005589D03*
X004638Y005589D03*
X004787Y005547D03*
X004801Y005589D03*
X004645Y005447D03*
X004787Y005412D03*
X004794Y005398D03*
X005035Y005412D03*
X005042Y005547D03*
X005042Y005561D03*
X005169Y005589D03*
X005176Y005561D03*
X005183Y005547D03*
X005190Y005511D03*
X005197Y005497D03*
X005318Y005547D03*
X005332Y005610D03*
X005580Y005497D03*
X005523Y005299D03*
X005254Y005299D03*
X005948Y005299D03*
X005948Y005320D03*
X005948Y005348D03*
X005948Y005370D03*
X005948Y005398D03*
X005948Y005412D03*
X005948Y005447D03*
X005948Y005462D03*
X005948Y005497D03*
X005948Y005511D03*
X005948Y005547D03*
X005948Y005561D03*
X006196Y005561D03*
X006196Y005547D03*
X006345Y005547D03*
X006345Y005561D03*
X006345Y005589D03*
X006345Y005610D03*
X006345Y005639D03*
X006345Y005660D03*
X006345Y005738D03*
X006345Y005766D03*
X006345Y005787D03*
X006345Y005816D03*
X006493Y005639D03*
X006493Y005610D03*
X006493Y005589D03*
X006493Y005561D03*
X006493Y005547D03*
X006493Y005511D03*
X006493Y005497D03*
X006493Y005462D03*
X006493Y005447D03*
X006493Y005412D03*
X006493Y005398D03*
X006493Y005370D03*
X006493Y005348D03*
X006493Y005320D03*
X006493Y005299D03*
X006345Y005299D03*
X006345Y005320D03*
X006345Y005348D03*
X006345Y005370D03*
X006345Y005398D03*
X006345Y005412D03*
X006345Y005447D03*
X006345Y005462D03*
X006345Y005497D03*
X006345Y005511D03*
X006897Y005511D03*
X006897Y005497D03*
X006897Y005462D03*
X006897Y005447D03*
X006897Y005412D03*
X006897Y005398D03*
X006897Y005370D03*
X006897Y005348D03*
X006897Y005320D03*
X006897Y005299D03*
X006897Y005547D03*
X006897Y005561D03*
X006897Y005589D03*
X006897Y005610D03*
X006897Y005639D03*
D19*
X006695Y005299D03*
X005959Y005589D03*
X005626Y005660D03*
X005619Y005639D03*
X005612Y005610D03*
X005605Y005589D03*
X005598Y005561D03*
X005583Y005511D03*
X005633Y005688D03*
X005166Y005610D03*
X005159Y005639D03*
X005151Y005660D03*
X005130Y005738D03*
X005123Y005766D03*
X005116Y005787D03*
X005109Y005816D03*
X005031Y005589D03*
X005031Y005398D03*
X004415Y005412D03*
X004415Y005547D03*
X004146Y005660D03*
X003934Y005561D03*
X003934Y005412D03*
X004082Y005398D03*
X004082Y005370D03*
X004082Y005348D03*
X004082Y005320D03*
X004082Y005299D03*
X003679Y005412D03*
D20*
X003941Y005447D03*
X003941Y005462D03*
X003941Y005497D03*
X003941Y005511D03*
X003941Y005639D03*
X003941Y005660D03*
X003941Y005688D03*
X003941Y005738D03*
X003941Y005766D03*
X003941Y005787D03*
X003941Y005816D03*
X004266Y005660D03*
X004266Y005639D03*
X004649Y005561D03*
X004790Y005561D03*
X005045Y005447D03*
X005307Y005497D03*
X005307Y005511D03*
X005321Y005561D03*
X005329Y005589D03*
X005449Y005589D03*
X005456Y005561D03*
X005470Y005497D03*
X005803Y005497D03*
X005803Y005511D03*
X005803Y005547D03*
X005803Y005561D03*
X005803Y005589D03*
X005803Y005610D03*
X005803Y005639D03*
X005803Y005660D03*
X005803Y005738D03*
X005803Y005766D03*
X005803Y005787D03*
X005803Y005816D03*
X006199Y005660D03*
X006199Y005639D03*
X006199Y005511D03*
X006199Y005497D03*
X006199Y005462D03*
X006199Y005447D03*
X006199Y005412D03*
X006199Y005398D03*
X006199Y005370D03*
X006199Y005348D03*
X006199Y005320D03*
X006199Y005299D03*
X005803Y005299D03*
X005803Y005320D03*
X005803Y005348D03*
X005803Y005370D03*
X005803Y005398D03*
X005803Y005412D03*
X005803Y005447D03*
X005803Y005462D03*
X006490Y005915D03*
X006759Y005915D03*
X006893Y005915D03*
X006794Y005639D03*
X006787Y005610D03*
X006780Y005589D03*
X006759Y005511D03*
X006759Y005497D03*
X006745Y005447D03*
X006631Y005497D03*
X006603Y005610D03*
X006596Y005639D03*
X003941Y005348D03*
X003941Y005320D03*
X003941Y005299D03*
D21*
X003926Y005398D03*
X003926Y005589D03*
X004153Y005639D03*
X004911Y005688D03*
X005010Y005610D03*
X004911Y005299D03*
X003225Y005547D03*
D22*
X003257Y005511D03*
X003314Y005447D03*
X003356Y005398D03*
X003689Y005398D03*
X003689Y005589D03*
X004419Y005398D03*
X004581Y005299D03*
X004645Y005370D03*
X004631Y005462D03*
X004624Y005610D03*
X005254Y005320D03*
X005523Y005320D03*
X005651Y005766D03*
X005658Y005787D03*
X005665Y005816D03*
X006189Y005589D03*
D23*
X006621Y005547D03*
X006628Y005511D03*
X006769Y005547D03*
X004404Y005299D03*
D24*
X003275Y005299D03*
X003275Y005320D03*
X003275Y005348D03*
X003275Y005370D03*
D25*
X003526Y005355D03*
X003526Y005306D03*
X003526Y005405D03*
X003526Y005455D03*
X003526Y005504D03*
X003526Y005554D03*
X003526Y005603D03*
X003526Y005653D03*
X003675Y005554D03*
X003668Y005504D03*
X003668Y005455D03*
X003937Y005554D03*
X004263Y005504D03*
X004263Y005455D03*
X004263Y005405D03*
X004263Y005355D03*
X004263Y005306D03*
X004411Y005455D03*
X004411Y005554D03*
X004631Y005603D03*
X004787Y005554D03*
X004794Y005405D03*
X005035Y005405D03*
X005042Y005554D03*
X005169Y005603D03*
X005183Y005554D03*
X005155Y005653D03*
X005254Y005306D03*
X005523Y005306D03*
X005580Y005504D03*
X005594Y005554D03*
X005608Y005603D03*
X005948Y005554D03*
X005948Y005504D03*
X005948Y005455D03*
X005948Y005405D03*
X005948Y005355D03*
X005948Y005306D03*
X006196Y005554D03*
X006345Y005554D03*
X006345Y005603D03*
X006345Y005653D03*
X006493Y005603D03*
X006493Y005554D03*
X006493Y005504D03*
X006493Y005455D03*
X006493Y005405D03*
X006493Y005355D03*
X006493Y005306D03*
X006345Y005306D03*
X006345Y005355D03*
X006345Y005405D03*
X006345Y005455D03*
X006345Y005504D03*
X006345Y005773D03*
X006345Y005823D03*
X006897Y005603D03*
X006897Y005554D03*
X006897Y005504D03*
X006897Y005455D03*
X006897Y005405D03*
X006897Y005355D03*
X006897Y005306D03*
X003526Y005773D03*
X003526Y005823D03*
D26*
X003686Y005405D03*
X004082Y005355D03*
X004082Y005306D03*
X004415Y005405D03*
X004642Y005455D03*
X004812Y005603D03*
X005123Y005773D03*
X005619Y005653D03*
X005654Y005773D03*
X006695Y005306D03*
X004422Y005603D03*
D27*
X004266Y005653D03*
X003941Y005653D03*
X003941Y005773D03*
X003941Y005823D03*
X003941Y005504D03*
X003941Y005455D03*
X003941Y005306D03*
X005307Y005504D03*
X005321Y005554D03*
X005329Y005603D03*
X005456Y005554D03*
X005803Y005554D03*
X005803Y005603D03*
X005803Y005653D03*
X005803Y005773D03*
X005803Y005823D03*
X006199Y005653D03*
X006199Y005504D03*
X006199Y005455D03*
X006199Y005405D03*
X006199Y005355D03*
X006199Y005306D03*
X005803Y005306D03*
X005803Y005355D03*
X005803Y005405D03*
X005803Y005455D03*
X005803Y005504D03*
X006603Y005603D03*
X006617Y005554D03*
X006759Y005504D03*
X006745Y005455D03*
X006787Y005603D03*
D28*
X006525Y005773D03*
X004911Y005306D03*
D29*
X004578Y005306D03*
D30*
X004656Y005405D03*
X004408Y005306D03*
X005194Y005504D03*
X006773Y005554D03*
D31*
X005389Y005773D03*
X005254Y005355D03*
X003781Y005306D03*
D32*
X003820Y005355D03*
X003275Y005355D03*
X003275Y005306D03*
D33*
X003526Y005313D03*
X003526Y005327D03*
X003526Y005341D03*
X003526Y005362D03*
X003526Y005377D03*
X003526Y005391D03*
X003526Y005419D03*
X003526Y005426D03*
X003526Y005440D03*
X003526Y005469D03*
X003526Y005483D03*
X003526Y005490D03*
X003526Y005518D03*
X003526Y005532D03*
X003526Y005540D03*
X003526Y005568D03*
X003526Y005582D03*
X003526Y005596D03*
X003526Y005617D03*
X003526Y005632D03*
X003526Y005646D03*
X003526Y005667D03*
X003526Y005681D03*
X003526Y005731D03*
X003526Y005745D03*
X003526Y005759D03*
X003526Y005780D03*
X003526Y005794D03*
X003526Y005809D03*
X003668Y005540D03*
X003668Y005532D03*
X003668Y005518D03*
X003668Y005490D03*
X003668Y005483D03*
X003668Y005469D03*
X003675Y005426D03*
X003937Y005426D03*
X003937Y005440D03*
X003937Y005540D03*
X004142Y005667D03*
X004263Y005540D03*
X004263Y005532D03*
X004263Y005518D03*
X004263Y005490D03*
X004263Y005483D03*
X004263Y005469D03*
X004263Y005440D03*
X004263Y005426D03*
X004263Y005419D03*
X004263Y005391D03*
X004263Y005377D03*
X004263Y005362D03*
X004263Y005341D03*
X004263Y005327D03*
X004263Y005313D03*
X004411Y005419D03*
X004411Y005426D03*
X004411Y005440D03*
X004411Y005469D03*
X004411Y005568D03*
X004411Y005582D03*
X004419Y005596D03*
X004638Y005596D03*
X004787Y005540D03*
X004652Y005426D03*
X004652Y005391D03*
X005042Y005419D03*
X005042Y005426D03*
X005197Y005490D03*
X005190Y005518D03*
X005183Y005540D03*
X005176Y005568D03*
X005176Y005582D03*
X005169Y005596D03*
X005162Y005617D03*
X005162Y005632D03*
X005155Y005646D03*
X005148Y005681D03*
X005141Y005709D03*
X005134Y005731D03*
X005127Y005759D03*
X005120Y005780D03*
X005113Y005809D03*
X005042Y005568D03*
X005304Y005490D03*
X005311Y005518D03*
X005573Y005483D03*
X005587Y005532D03*
X005601Y005582D03*
X005615Y005632D03*
X005948Y005540D03*
X005948Y005532D03*
X005948Y005518D03*
X005948Y005490D03*
X005948Y005483D03*
X005948Y005469D03*
X005948Y005440D03*
X005948Y005426D03*
X005948Y005419D03*
X005948Y005391D03*
X005948Y005377D03*
X005948Y005362D03*
X005948Y005341D03*
X005948Y005327D03*
X005948Y005313D03*
X006196Y005540D03*
X006345Y005540D03*
X006345Y005532D03*
X006345Y005518D03*
X006345Y005490D03*
X006345Y005483D03*
X006345Y005469D03*
X006345Y005440D03*
X006345Y005426D03*
X006345Y005419D03*
X006345Y005391D03*
X006345Y005377D03*
X006345Y005362D03*
X006345Y005341D03*
X006345Y005327D03*
X006345Y005313D03*
X006493Y005313D03*
X006493Y005327D03*
X006493Y005341D03*
X006493Y005362D03*
X006493Y005377D03*
X006493Y005391D03*
X006493Y005419D03*
X006493Y005426D03*
X006493Y005440D03*
X006493Y005469D03*
X006493Y005483D03*
X006493Y005490D03*
X006493Y005518D03*
X006493Y005532D03*
X006493Y005540D03*
X006493Y005568D03*
X006493Y005582D03*
X006493Y005596D03*
X006493Y005617D03*
X006493Y005632D03*
X006493Y005646D03*
X006345Y005646D03*
X006345Y005632D03*
X006345Y005617D03*
X006345Y005596D03*
X006345Y005582D03*
X006345Y005568D03*
X006345Y005667D03*
X006345Y005681D03*
X006345Y005731D03*
X006345Y005745D03*
X006345Y005759D03*
X006345Y005780D03*
X006345Y005794D03*
X006345Y005809D03*
X006897Y005646D03*
X006897Y005632D03*
X006897Y005617D03*
X006897Y005596D03*
X006897Y005582D03*
X006897Y005568D03*
X006897Y005540D03*
X006897Y005532D03*
X006897Y005518D03*
X006897Y005490D03*
X006897Y005483D03*
X006897Y005469D03*
X006897Y005440D03*
X006897Y005426D03*
X006897Y005419D03*
X006897Y005391D03*
X006897Y005377D03*
X006897Y005362D03*
X006897Y005341D03*
X006897Y005327D03*
X006897Y005313D03*
D34*
X006695Y005313D03*
X006192Y005568D03*
X005952Y005568D03*
X005952Y005582D03*
X005626Y005667D03*
X005626Y005681D03*
X005633Y005695D03*
X005619Y005646D03*
X005612Y005617D03*
X005605Y005596D03*
X005598Y005568D03*
X005583Y005518D03*
X005576Y005490D03*
X005527Y005313D03*
X005024Y005391D03*
X005031Y005582D03*
X005024Y005596D03*
X005137Y005717D03*
X005130Y005745D03*
X005116Y005794D03*
X005151Y005667D03*
X004797Y005391D03*
X004649Y005377D03*
X004082Y005377D03*
X004082Y005391D03*
X004082Y005362D03*
X004082Y005341D03*
X004082Y005327D03*
X004082Y005313D03*
X003934Y005419D03*
X003934Y005568D03*
X003686Y005582D03*
X003679Y005568D03*
X003679Y005419D03*
X005647Y005745D03*
X005654Y005780D03*
X005661Y005809D03*
D35*
X005803Y005809D03*
X005803Y005794D03*
X005803Y005780D03*
X005803Y005759D03*
X005803Y005745D03*
X005803Y005731D03*
X005803Y005681D03*
X005803Y005667D03*
X005803Y005646D03*
X005803Y005632D03*
X005803Y005617D03*
X005803Y005596D03*
X005803Y005582D03*
X005803Y005568D03*
X005803Y005540D03*
X005803Y005532D03*
X005803Y005518D03*
X005803Y005490D03*
X005803Y005483D03*
X005803Y005469D03*
X005803Y005440D03*
X005803Y005426D03*
X005803Y005419D03*
X005803Y005391D03*
X005803Y005377D03*
X005803Y005362D03*
X005803Y005341D03*
X005803Y005327D03*
X005803Y005313D03*
X005463Y005532D03*
X005456Y005568D03*
X005449Y005582D03*
X005449Y005596D03*
X005336Y005617D03*
X005336Y005632D03*
X005329Y005596D03*
X005329Y005582D03*
X005321Y005568D03*
X005314Y005540D03*
X005314Y005532D03*
X005300Y005483D03*
X005201Y005483D03*
X005187Y005532D03*
X005045Y005440D03*
X004783Y005532D03*
X004790Y005568D03*
X004797Y005582D03*
X004642Y005582D03*
X004649Y005440D03*
X004266Y005646D03*
X004266Y005667D03*
X004266Y005681D03*
X003941Y005681D03*
X003941Y005667D03*
X003941Y005646D03*
X003941Y005632D03*
X003941Y005695D03*
X003941Y005709D03*
X003941Y005717D03*
X003941Y005731D03*
X003941Y005745D03*
X003941Y005759D03*
X003941Y005780D03*
X003941Y005794D03*
X003941Y005809D03*
X003941Y005532D03*
X003941Y005518D03*
X003941Y005490D03*
X003941Y005483D03*
X003941Y005469D03*
X003941Y005341D03*
X003941Y005327D03*
X003941Y005313D03*
X006199Y005313D03*
X006199Y005327D03*
X006199Y005341D03*
X006199Y005362D03*
X006199Y005377D03*
X006199Y005391D03*
X006199Y005419D03*
X006199Y005426D03*
X006199Y005440D03*
X006199Y005469D03*
X006199Y005483D03*
X006199Y005490D03*
X006199Y005518D03*
X006199Y005532D03*
X006199Y005632D03*
X006199Y005646D03*
X006199Y005667D03*
X006199Y005681D03*
X006596Y005632D03*
X006610Y005582D03*
X006766Y005540D03*
X006766Y005532D03*
X006752Y005483D03*
X006780Y005582D03*
X006780Y005596D03*
X006787Y005617D03*
X006794Y005632D03*
X006794Y005646D03*
D36*
X006189Y005582D03*
X005962Y005596D03*
X005651Y005759D03*
X005658Y005794D03*
X005523Y005327D03*
X005254Y005327D03*
X005254Y005313D03*
X004419Y005540D03*
X003930Y005582D03*
X003364Y005391D03*
X003335Y005426D03*
X003208Y005568D03*
D37*
X003778Y005327D03*
X004564Y005490D03*
X004911Y005313D03*
X005251Y005469D03*
X005527Y005469D03*
X006539Y005667D03*
X006851Y005667D03*
X006851Y005681D03*
D38*
X006858Y005731D03*
X006858Y005745D03*
X006695Y005426D03*
X006695Y005419D03*
X005527Y005440D03*
X004578Y005313D03*
D39*
X004656Y005419D03*
X004408Y005483D03*
X004408Y005490D03*
X004408Y005327D03*
X004408Y005313D03*
X003771Y005681D03*
X005442Y005632D03*
X005442Y005617D03*
X006773Y005568D03*
D40*
X006695Y005391D03*
X006695Y005377D03*
X005527Y005391D03*
X005251Y005391D03*
X003912Y005377D03*
X003778Y005313D03*
X003771Y005667D03*
D41*
X003820Y005362D03*
X003275Y005362D03*
X003275Y005341D03*
X003275Y005327D03*
X003275Y005313D03*
X006079Y005617D03*
D42*
X006695Y005320D03*
X004819Y005610D03*
X004429Y005610D03*
X003346Y005412D03*
X003303Y005462D03*
X003211Y005561D03*
X003190Y005589D03*
D43*
X004914Y005320D03*
D44*
X004578Y005320D03*
X005251Y005462D03*
X005385Y005639D03*
X006539Y005660D03*
X006851Y005688D03*
D45*
X006773Y005561D03*
X006624Y005915D03*
X005442Y005610D03*
X004656Y005412D03*
X004656Y005398D03*
X004408Y005320D03*
D46*
X003778Y005320D03*
X003771Y005660D03*
X005251Y005447D03*
X006030Y005660D03*
D47*
X005527Y005341D03*
X004422Y005391D03*
X003693Y005391D03*
X003693Y005596D03*
X003339Y005419D03*
X003296Y005469D03*
X003254Y005518D03*
X003240Y005532D03*
X003197Y005582D03*
X006695Y005327D03*
D48*
X004911Y005327D03*
X003771Y005632D03*
D49*
X004578Y005327D03*
D50*
X004652Y005384D03*
X004652Y005433D03*
X004794Y005575D03*
X005035Y005575D03*
X005162Y005624D03*
X005176Y005575D03*
X005190Y005525D03*
X005148Y005674D03*
X005141Y005702D03*
X005134Y005724D03*
X005127Y005752D03*
X005042Y005433D03*
X005587Y005525D03*
X005601Y005575D03*
X005948Y005525D03*
X005948Y005476D03*
X005948Y005433D03*
X005948Y005384D03*
X005948Y005334D03*
X006345Y005334D03*
X006345Y005384D03*
X006345Y005433D03*
X006345Y005476D03*
X006345Y005525D03*
X006345Y005575D03*
X006345Y005624D03*
X006345Y005674D03*
X006345Y005752D03*
X006345Y005802D03*
X006493Y005624D03*
X006493Y005575D03*
X006493Y005525D03*
X006493Y005476D03*
X006493Y005433D03*
X006493Y005384D03*
X006493Y005334D03*
X006897Y005334D03*
X006897Y005384D03*
X006897Y005433D03*
X006897Y005476D03*
X006897Y005525D03*
X006897Y005575D03*
X006897Y005624D03*
X004411Y005575D03*
X004411Y005433D03*
X004263Y005433D03*
X004263Y005476D03*
X004263Y005525D03*
X004263Y005384D03*
X004263Y005334D03*
X003937Y005433D03*
X003675Y005433D03*
X003668Y005476D03*
X003668Y005525D03*
X003526Y005525D03*
X003526Y005476D03*
X003526Y005433D03*
X003526Y005384D03*
X003526Y005334D03*
X003526Y005575D03*
X003526Y005624D03*
X003526Y005674D03*
X003526Y005752D03*
X003526Y005802D03*
D51*
X003247Y005525D03*
X003289Y005476D03*
X003700Y005384D03*
X006695Y005334D03*
D52*
X006752Y005476D03*
X006766Y005525D03*
X006780Y005575D03*
X006787Y005624D03*
X006610Y005575D03*
X006199Y005624D03*
X006199Y005674D03*
X006199Y005525D03*
X006199Y005476D03*
X006199Y005433D03*
X006199Y005384D03*
X006199Y005334D03*
X005803Y005334D03*
X005803Y005384D03*
X005803Y005433D03*
X005803Y005476D03*
X005803Y005525D03*
X005803Y005575D03*
X005803Y005624D03*
X005803Y005674D03*
X005803Y005752D03*
X005803Y005802D03*
X005463Y005525D03*
X005314Y005525D03*
X005321Y005575D03*
X005336Y005624D03*
X004642Y005575D03*
X004266Y005674D03*
X004139Y005674D03*
X003941Y005674D03*
X003941Y005702D03*
X003941Y005724D03*
X003941Y005752D03*
X003941Y005802D03*
X003941Y005525D03*
X003941Y005476D03*
X003941Y005334D03*
X006490Y005993D03*
X006759Y005993D03*
X006893Y005993D03*
D53*
X005523Y005334D03*
X005020Y005384D03*
X003930Y005575D03*
X003201Y005575D03*
D54*
X004252Y005575D03*
X005251Y005334D03*
D55*
X004914Y005334D03*
D56*
X004578Y005334D03*
D57*
X004408Y005334D03*
X004408Y005476D03*
X005442Y005624D03*
X006624Y005525D03*
X006624Y005993D03*
D58*
X006192Y005575D03*
X005952Y005575D03*
X005626Y005674D03*
X005633Y005702D03*
X005647Y005752D03*
X005661Y005802D03*
X005612Y005624D03*
X005116Y005802D03*
X004082Y005384D03*
X004082Y005334D03*
X003679Y005575D03*
D59*
X003774Y005334D03*
D60*
X003820Y005624D03*
X003275Y005334D03*
D61*
X004429Y005532D03*
X006695Y005362D03*
X006695Y005341D03*
D62*
X006182Y005596D03*
X005389Y005780D03*
X005254Y005341D03*
X004617Y005469D03*
X003923Y005391D03*
X003923Y005596D03*
D63*
X004525Y005646D03*
X004914Y005341D03*
D64*
X004525Y005341D03*
D65*
X003774Y005341D03*
D66*
X006695Y005348D03*
D67*
X005523Y005348D03*
D68*
X005254Y005348D03*
X005389Y005766D03*
X005389Y005787D03*
D69*
X004914Y005348D03*
X004525Y005639D03*
D70*
X004528Y005348D03*
D71*
X004914Y005660D03*
X003774Y005348D03*
D72*
X006695Y005355D03*
D73*
X005523Y005355D03*
X003703Y005603D03*
D74*
X004911Y005355D03*
D75*
X004528Y005355D03*
D76*
X004245Y005582D03*
X003707Y005377D03*
X005251Y005362D03*
X005527Y005362D03*
D77*
X004914Y005362D03*
D78*
X004532Y005362D03*
D79*
X004238Y005589D03*
X005527Y005398D03*
X006518Y005816D03*
X006695Y005370D03*
D80*
X005527Y005370D03*
D81*
X005254Y005370D03*
X005389Y005738D03*
D82*
X004914Y005370D03*
D83*
X005254Y005398D03*
X004440Y005370D03*
X006522Y005787D03*
X006869Y005816D03*
D84*
X006076Y005610D03*
X003817Y005370D03*
D85*
X004525Y005681D03*
X005254Y005377D03*
X005523Y005377D03*
X005389Y005745D03*
X005389Y005759D03*
D86*
X005392Y005794D03*
X005010Y005377D03*
X004812Y005377D03*
X004153Y005646D03*
X003282Y005483D03*
X003275Y005490D03*
X003233Y005540D03*
X003183Y005596D03*
D87*
X004433Y005377D03*
D88*
X003271Y005377D03*
D89*
X005251Y005384D03*
X006695Y005384D03*
D90*
X005523Y005384D03*
X005389Y005752D03*
D91*
X005640Y005724D03*
X004805Y005384D03*
D92*
X004426Y005384D03*
D93*
X003919Y005384D03*
X003771Y005674D03*
X006030Y005674D03*
D94*
X005389Y005802D03*
X003371Y005384D03*
X003328Y005433D03*
D95*
X006695Y005412D03*
X006695Y005398D03*
D96*
X006695Y005405D03*
D97*
X005523Y005405D03*
X005254Y005405D03*
D98*
X005020Y005603D03*
X004150Y005653D03*
X003930Y005405D03*
X003307Y005455D03*
X003264Y005504D03*
D99*
X003353Y005405D03*
X005966Y005603D03*
D100*
X005527Y005412D03*
X005251Y005412D03*
X006525Y005766D03*
X006865Y005787D03*
D101*
X006865Y005780D03*
X006865Y005794D03*
X006525Y005780D03*
X006525Y005759D03*
X006030Y005667D03*
X005527Y005426D03*
X005527Y005419D03*
X005251Y005419D03*
X005251Y005426D03*
D102*
X005452Y005575D03*
X006600Y005624D03*
X006635Y005476D03*
X006649Y005433D03*
X006741Y005433D03*
D103*
X005523Y005433D03*
D104*
X005251Y005433D03*
X004450Y005525D03*
X006532Y005702D03*
X006532Y005724D03*
D105*
X006592Y005646D03*
X006600Y005617D03*
X006607Y005596D03*
X006614Y005568D03*
X006635Y005490D03*
X006635Y005483D03*
X006642Y005469D03*
X006741Y005440D03*
X006748Y005469D03*
X006755Y005490D03*
X006762Y005518D03*
X006755Y005908D03*
X006890Y005908D03*
X006486Y005908D03*
X005467Y005518D03*
X005459Y005540D03*
X005474Y005490D03*
X005474Y005483D03*
X004645Y005568D03*
D106*
X004132Y005681D03*
X006490Y006000D03*
X006490Y006007D03*
X006759Y006007D03*
X006759Y006000D03*
X006893Y006000D03*
X006893Y006007D03*
X006646Y005440D03*
D107*
X006532Y005709D03*
X006532Y005717D03*
X005385Y005667D03*
X005251Y005440D03*
D108*
X005144Y005695D03*
X004805Y005596D03*
X005590Y005540D03*
X005640Y005717D03*
X005640Y005731D03*
X006030Y005681D03*
X003672Y005440D03*
D109*
X003321Y005440D03*
X004256Y005568D03*
X005389Y005809D03*
X005637Y005709D03*
D110*
X005459Y005547D03*
X005467Y005511D03*
X006607Y005589D03*
X006614Y005561D03*
X006642Y005462D03*
X006642Y005447D03*
X006748Y005462D03*
D111*
X006858Y005738D03*
X005527Y005447D03*
D112*
X005467Y005504D03*
X006642Y005455D03*
D113*
X005527Y005455D03*
D114*
X005251Y005455D03*
D115*
X005049Y005455D03*
D116*
X005530Y005462D03*
X006536Y005688D03*
D117*
X005049Y005462D03*
D118*
X004914Y005469D03*
X004914Y005483D03*
X004914Y005490D03*
D119*
X005251Y005476D03*
X005527Y005476D03*
X006851Y005674D03*
D120*
X004914Y005476D03*
D121*
X004599Y005476D03*
X006865Y005802D03*
D122*
X006854Y005717D03*
X006854Y005709D03*
X006854Y005695D03*
X006536Y005695D03*
X006536Y005681D03*
X004581Y005483D03*
D123*
X004914Y005497D03*
D124*
X004507Y005497D03*
D125*
X004256Y005561D03*
X003271Y005497D03*
X005389Y005816D03*
X005644Y005738D03*
D126*
X005445Y005603D03*
X006628Y005504D03*
D127*
X004914Y005504D03*
D128*
X004500Y005504D03*
D129*
X004918Y005511D03*
D130*
X004489Y005511D03*
D131*
X006621Y005532D03*
X006621Y005540D03*
X006628Y005518D03*
X006621Y005908D03*
D132*
X004918Y005518D03*
D133*
X004472Y005518D03*
D134*
X004918Y005525D03*
D135*
X005049Y005532D03*
X005049Y005540D03*
D136*
X005144Y005688D03*
X005590Y005547D03*
X004259Y005547D03*
X003672Y005547D03*
D137*
X004259Y005554D03*
D138*
X003218Y005554D03*
D139*
X004203Y005596D03*
X004203Y005617D03*
X004203Y005632D03*
D140*
X003916Y005603D03*
X006175Y005603D03*
D141*
X004203Y005603D03*
D142*
X003271Y005603D03*
X003271Y005653D03*
D143*
X003771Y005639D03*
X004203Y005610D03*
X006030Y005639D03*
D144*
X003813Y005610D03*
D145*
X003271Y005610D03*
X003271Y005639D03*
X003271Y005660D03*
D146*
X004528Y005617D03*
X004918Y005617D03*
D147*
X003817Y005617D03*
D148*
X003271Y005617D03*
X003271Y005632D03*
X003271Y005646D03*
X003271Y005667D03*
X003271Y005681D03*
D149*
X006030Y005624D03*
D150*
X004914Y005624D03*
X004525Y005624D03*
D151*
X004203Y005624D03*
D152*
X003271Y005624D03*
X003271Y005674D03*
D153*
X006033Y005632D03*
D154*
X004914Y005632D03*
D155*
X004528Y005632D03*
D156*
X004914Y005639D03*
D157*
X006030Y005646D03*
X003771Y005646D03*
D158*
X005389Y005646D03*
D159*
X004914Y005646D03*
D160*
X006847Y005653D03*
D161*
X006539Y005653D03*
X006030Y005653D03*
D162*
X005389Y005653D03*
D163*
X004914Y005653D03*
D164*
X004525Y005653D03*
D165*
X003771Y005653D03*
D166*
X006847Y005660D03*
D167*
X005389Y005660D03*
D168*
X004528Y005660D03*
D169*
X004525Y005667D03*
X004914Y005667D03*
D170*
X004914Y005674D03*
X004525Y005674D03*
X006536Y005674D03*
X006854Y005702D03*
D171*
X006862Y005752D03*
X006529Y005752D03*
X005389Y005674D03*
D172*
X005389Y005681D03*
X005389Y005695D03*
X006529Y005731D03*
X006529Y005745D03*
X006862Y005759D03*
D173*
X006869Y005809D03*
X006522Y005809D03*
X006522Y005794D03*
X005389Y005731D03*
X005389Y005717D03*
X005389Y005709D03*
X004914Y005681D03*
D174*
X006030Y005688D03*
D175*
X006529Y005738D03*
X006862Y005766D03*
X005389Y005688D03*
D176*
X004525Y005688D03*
X006444Y005964D03*
X006486Y006028D03*
X006522Y005979D03*
X006529Y005964D03*
X006522Y005929D03*
X006486Y005879D03*
X006578Y005964D03*
X006585Y005979D03*
X006621Y006028D03*
X006656Y005979D03*
X006663Y005964D03*
X006656Y005929D03*
X006621Y005879D03*
X006713Y005964D03*
X006720Y005979D03*
X006755Y006028D03*
X006791Y005979D03*
X006791Y005929D03*
X006755Y005879D03*
X006890Y005879D03*
X006925Y005929D03*
X006925Y005979D03*
X006890Y006028D03*
X006854Y005979D03*
D177*
X006759Y006014D03*
X006624Y006014D03*
X006490Y006014D03*
X004125Y005688D03*
D178*
X003774Y005688D03*
D179*
X004911Y005695D03*
X006490Y006035D03*
X006624Y006035D03*
X006759Y006035D03*
D180*
X006522Y005802D03*
X005389Y005724D03*
X005389Y005702D03*
D181*
X006858Y005724D03*
D182*
X006862Y005773D03*
D183*
X006890Y005872D03*
X006755Y005872D03*
D184*
X006621Y005872D03*
X006486Y005872D03*
D185*
X006486Y005894D03*
X006621Y005894D03*
X006755Y005894D03*
X006890Y005894D03*
D186*
X006890Y005901D03*
X006755Y005901D03*
X006621Y005901D03*
X006486Y005901D03*
D187*
X006458Y005922D03*
X006515Y005922D03*
X006529Y005971D03*
X006486Y006021D03*
X006592Y005922D03*
X006663Y005971D03*
X006621Y006021D03*
X006755Y006021D03*
X006727Y005922D03*
X006784Y005922D03*
X006862Y005922D03*
X006918Y005922D03*
X006932Y005971D03*
X006890Y006021D03*
D188*
X006798Y005971D03*
X006649Y005922D03*
D189*
X006589Y005929D03*
X006454Y005929D03*
X006723Y005929D03*
X006858Y005929D03*
X006936Y005964D03*
D190*
X006922Y005986D03*
X006851Y005936D03*
X006787Y005986D03*
X006716Y005936D03*
X006653Y005986D03*
X006582Y005936D03*
X006518Y005986D03*
X006447Y005936D03*
D191*
X006798Y005936D03*
X006798Y005943D03*
X006847Y005943D03*
D192*
X006847Y005964D03*
X006798Y005964D03*
X006451Y005979D03*
D193*
X006447Y005971D03*
X006851Y005971D03*
D194*
X006716Y005971D03*
X006582Y005971D03*
D195*
X006624Y006000D03*
X006624Y006007D03*
D196*
X006893Y006014D03*
M02*
