G75*
%MOIN*%
%OFA0B0*%
%FSLAX24Y24*%
%IPPOS*%
%LPD*%
%AMOC8*
5,1,8,0,0,1.08239X$1,22.5*
%
%ADD10C,0.0000*%
%ADD11C,0.0740*%
%ADD12C,0.0570*%
%ADD13C,0.0100*%
%ADD14C,0.0160*%
D10*
X001367Y000622D02*
X001367Y006603D01*
X009176Y006611D01*
X009176Y000622D01*
X001367Y000622D01*
D11*
X001772Y001024D03*
X001772Y002024D03*
X001772Y003024D03*
X001772Y004024D03*
X001772Y005024D03*
X001772Y006024D03*
X008772Y006024D03*
X008772Y005024D03*
X008772Y004024D03*
X008772Y003024D03*
X008772Y002024D03*
X008772Y001024D03*
D12*
X007189Y004209D03*
X006402Y004209D03*
X002985Y003882D03*
X002985Y004670D03*
X002965Y002252D03*
X002965Y001465D03*
D13*
X003329Y001311D02*
X008380Y001311D01*
X008365Y001296D02*
X008297Y001131D01*
X008154Y001131D01*
X008043Y001020D01*
X008043Y000942D01*
X002505Y000942D01*
X002505Y001103D01*
X002394Y001214D01*
X002213Y001214D01*
X002179Y001296D01*
X002044Y001431D01*
X001868Y001504D01*
X001677Y001504D01*
X001567Y001458D01*
X001567Y001590D01*
X001677Y001544D01*
X001868Y001544D01*
X002044Y001617D01*
X002179Y001752D01*
X002213Y001834D01*
X002500Y001834D01*
X002612Y001945D01*
X002612Y001999D01*
X002633Y001969D01*
X002682Y001921D01*
X002737Y001880D01*
X002798Y001849D01*
X002833Y001838D01*
X002741Y001800D01*
X002630Y001689D01*
X002570Y001544D01*
X002570Y001386D01*
X002630Y001241D01*
X002741Y001130D01*
X002886Y001070D01*
X003044Y001070D01*
X003189Y001130D01*
X003300Y001241D01*
X003360Y001386D01*
X003360Y001544D01*
X003300Y001689D01*
X003189Y001800D01*
X003097Y001838D01*
X003132Y001849D01*
X003193Y001880D01*
X003248Y001921D01*
X003297Y001969D01*
X003337Y002024D01*
X003368Y002085D01*
X003389Y002150D01*
X003400Y002218D01*
X003400Y002233D01*
X002984Y002233D01*
X002984Y002271D01*
X003400Y002271D01*
X003400Y002287D01*
X003389Y002354D01*
X003368Y002419D01*
X003337Y002480D01*
X003297Y002536D01*
X003278Y002554D01*
X007976Y002554D01*
X007976Y001953D01*
X008087Y001842D01*
X008328Y001842D01*
X008365Y001752D01*
X008500Y001617D01*
X008677Y001544D01*
X008868Y001544D01*
X008976Y001589D01*
X008976Y001459D01*
X008868Y001504D01*
X008677Y001504D01*
X008500Y001431D01*
X008365Y001296D01*
X008330Y001212D02*
X003271Y001212D01*
X003149Y001114D02*
X008136Y001114D01*
X008043Y001015D02*
X002505Y001015D01*
X002494Y001114D02*
X002781Y001114D01*
X002659Y001212D02*
X002396Y001212D01*
X002601Y001311D02*
X002164Y001311D01*
X002066Y001409D02*
X002570Y001409D01*
X002570Y001508D02*
X001567Y001508D01*
X002018Y001606D02*
X002596Y001606D01*
X002646Y001705D02*
X002132Y001705D01*
X002200Y001803D02*
X002750Y001803D01*
X002707Y001902D02*
X002568Y001902D01*
X003180Y001803D02*
X008344Y001803D01*
X008412Y001705D02*
X003284Y001705D01*
X003334Y001606D02*
X008526Y001606D01*
X008478Y001409D02*
X003360Y001409D01*
X003360Y001508D02*
X008976Y001508D01*
X008027Y001902D02*
X003222Y001902D01*
X003320Y002000D02*
X007976Y002000D01*
X007976Y002099D02*
X003372Y002099D01*
X003397Y002197D02*
X007976Y002197D01*
X007976Y002296D02*
X003399Y002296D01*
X003376Y002394D02*
X007976Y002394D01*
X007976Y002493D02*
X003328Y002493D01*
X002213Y003214D02*
X002179Y003296D01*
X002044Y003431D01*
X001868Y003504D01*
X001677Y003504D01*
X001567Y003458D01*
X001567Y003545D01*
X001572Y003542D01*
X001650Y003517D01*
X001722Y003505D01*
X001722Y003974D01*
X001822Y003974D01*
X001822Y003505D01*
X001894Y003517D01*
X001972Y003542D01*
X002045Y003579D01*
X002111Y003627D01*
X002169Y003685D01*
X002217Y003751D01*
X002254Y003824D01*
X002279Y003902D01*
X002291Y003974D01*
X001822Y003974D01*
X001822Y004074D01*
X001722Y004074D01*
X001722Y004543D01*
X001650Y004531D01*
X001572Y004506D01*
X001567Y004503D01*
X001567Y004590D01*
X001677Y004544D01*
X001868Y004544D01*
X002044Y004617D01*
X002179Y004752D01*
X002213Y004834D01*
X002500Y004834D01*
X002612Y004945D01*
X002612Y005094D01*
X002882Y005094D01*
X002818Y005073D01*
X002757Y005042D01*
X002701Y005001D01*
X002653Y004953D01*
X002613Y004898D01*
X002582Y004837D01*
X002560Y004772D01*
X002550Y004704D01*
X002550Y004689D01*
X002966Y004689D01*
X002966Y004651D01*
X002550Y004651D01*
X002550Y004635D01*
X002560Y004568D01*
X002582Y004503D01*
X002613Y004442D01*
X002653Y004386D01*
X002701Y004338D01*
X002757Y004298D01*
X002818Y004267D01*
X002853Y004255D01*
X002761Y004217D01*
X002650Y004106D01*
X002590Y003961D01*
X002590Y003804D01*
X002650Y003659D01*
X002761Y003547D01*
X002906Y003487D01*
X003063Y003487D01*
X003208Y003547D01*
X003320Y003659D01*
X003380Y003804D01*
X003380Y003961D01*
X003320Y004106D01*
X003208Y004217D01*
X003117Y004255D01*
X003152Y004267D01*
X003213Y004298D01*
X003268Y004338D01*
X003316Y004386D01*
X003357Y004442D01*
X003388Y004503D01*
X003409Y004568D01*
X003420Y004635D01*
X003420Y004651D01*
X003004Y004651D01*
X003004Y004689D01*
X003420Y004689D01*
X003420Y004704D01*
X003409Y004772D01*
X003388Y004837D01*
X003357Y004898D01*
X003316Y004953D01*
X003268Y005001D01*
X003213Y005042D01*
X003152Y005073D01*
X003087Y005094D01*
X007909Y005094D01*
X007909Y005028D01*
X007908Y004950D01*
X007909Y004950D01*
X007909Y004949D01*
X007964Y004894D01*
X008019Y004838D01*
X008020Y004838D01*
X008098Y004838D01*
X008330Y004837D01*
X008365Y004752D01*
X008500Y004617D01*
X008677Y004544D01*
X008868Y004544D01*
X008976Y004589D01*
X008976Y004504D01*
X008972Y004506D01*
X008894Y004531D01*
X008822Y004543D01*
X008822Y004074D01*
X008722Y004074D01*
X008722Y003974D01*
X008253Y003974D01*
X008265Y003902D01*
X008290Y003824D01*
X008327Y003751D01*
X008375Y003685D01*
X008433Y003627D01*
X008500Y003579D01*
X008572Y003542D01*
X008650Y003517D01*
X008722Y003505D01*
X008722Y003974D01*
X008822Y003974D01*
X008822Y003505D01*
X008894Y003517D01*
X008972Y003542D01*
X008976Y003544D01*
X008976Y003459D01*
X008868Y003504D01*
X008677Y003504D01*
X008500Y003431D01*
X008365Y003296D01*
X008331Y003214D01*
X002213Y003214D01*
X002185Y003281D02*
X008359Y003281D01*
X008448Y003379D02*
X002096Y003379D01*
X001931Y003478D02*
X008613Y003478D01*
X008722Y003576D02*
X008822Y003576D01*
X008822Y003675D02*
X008722Y003675D01*
X008722Y003773D02*
X008822Y003773D01*
X008822Y003872D02*
X008722Y003872D01*
X008722Y003970D02*
X008822Y003970D01*
X008722Y004069D02*
X007559Y004069D01*
X007584Y004130D02*
X007524Y003985D01*
X007413Y003874D01*
X007268Y003814D01*
X007111Y003814D01*
X006966Y003874D01*
X006855Y003985D01*
X006816Y004077D01*
X006805Y004042D01*
X006774Y003981D01*
X006734Y003926D01*
X006685Y003877D01*
X006630Y003837D01*
X006569Y003806D01*
X006504Y003785D01*
X006436Y003774D01*
X006421Y003774D01*
X006421Y004190D01*
X006383Y004190D01*
X006383Y003774D01*
X006368Y003774D01*
X006300Y003785D01*
X006235Y003806D01*
X006174Y003837D01*
X006119Y003877D01*
X006070Y003926D01*
X006030Y003981D01*
X005999Y004042D01*
X005978Y004107D01*
X005967Y004175D01*
X005967Y004190D01*
X006383Y004190D01*
X006383Y004228D01*
X005967Y004228D01*
X005967Y004243D01*
X005978Y004311D01*
X005999Y004376D01*
X006030Y004437D01*
X006070Y004492D01*
X006119Y004541D01*
X006174Y004581D01*
X006235Y004612D01*
X006300Y004633D01*
X006368Y004644D01*
X006383Y004644D01*
X006383Y004228D01*
X006421Y004228D01*
X006421Y004644D01*
X006436Y004644D01*
X006504Y004633D01*
X006569Y004612D01*
X006630Y004581D01*
X006685Y004541D01*
X006734Y004492D01*
X006774Y004437D01*
X006805Y004376D01*
X006816Y004341D01*
X006855Y004433D01*
X006966Y004544D01*
X007111Y004604D01*
X007268Y004604D01*
X007413Y004544D01*
X007524Y004433D01*
X007584Y004288D01*
X007584Y004130D01*
X007584Y004167D02*
X008272Y004167D01*
X008265Y004146D02*
X008290Y004224D01*
X008327Y004297D01*
X008375Y004363D01*
X008433Y004421D01*
X008500Y004469D01*
X008572Y004506D01*
X008650Y004531D01*
X008722Y004543D01*
X008722Y004074D01*
X008253Y004074D01*
X008265Y004146D01*
X008312Y004266D02*
X007584Y004266D01*
X007553Y004364D02*
X008377Y004364D01*
X008491Y004463D02*
X007494Y004463D01*
X007371Y004561D02*
X008635Y004561D01*
X008722Y004463D02*
X008822Y004463D01*
X008909Y004561D02*
X008976Y004561D01*
X008822Y004364D02*
X008722Y004364D01*
X008722Y004266D02*
X008822Y004266D01*
X008822Y004167D02*
X008722Y004167D01*
X008254Y003970D02*
X007509Y003970D01*
X007407Y003872D02*
X008275Y003872D01*
X008316Y003773D02*
X003367Y003773D01*
X003326Y003675D02*
X008386Y003675D01*
X008505Y003576D02*
X003237Y003576D01*
X003380Y003872D02*
X006126Y003872D01*
X006038Y003970D02*
X003376Y003970D01*
X003335Y004069D02*
X005990Y004069D01*
X005968Y004167D02*
X003258Y004167D01*
X003149Y004266D02*
X005971Y004266D01*
X005995Y004364D02*
X003294Y004364D01*
X003367Y004463D02*
X006049Y004463D01*
X006147Y004561D02*
X003407Y004561D01*
X003411Y004758D02*
X008363Y004758D01*
X008457Y004660D02*
X003004Y004660D01*
X002966Y004660D02*
X002087Y004660D01*
X001972Y004506D02*
X001894Y004531D01*
X001822Y004543D01*
X001822Y004074D01*
X002291Y004074D01*
X002279Y004146D01*
X002254Y004224D01*
X002217Y004297D01*
X002169Y004363D01*
X002111Y004421D01*
X002045Y004469D01*
X001972Y004506D01*
X001909Y004561D02*
X002562Y004561D01*
X002602Y004463D02*
X002053Y004463D01*
X002167Y004364D02*
X002675Y004364D01*
X002820Y004266D02*
X002232Y004266D01*
X002272Y004167D02*
X002711Y004167D01*
X002634Y004069D02*
X001822Y004069D01*
X001822Y003970D02*
X001722Y003970D01*
X001722Y003872D02*
X001822Y003872D01*
X001822Y003773D02*
X001722Y003773D01*
X001722Y003675D02*
X001822Y003675D01*
X001822Y003576D02*
X001722Y003576D01*
X001613Y003478D02*
X001567Y003478D01*
X002039Y003576D02*
X002732Y003576D01*
X002643Y003675D02*
X002158Y003675D01*
X002228Y003773D02*
X002602Y003773D01*
X002590Y003872D02*
X002269Y003872D01*
X002290Y003970D02*
X002594Y003970D01*
X001822Y004167D02*
X001722Y004167D01*
X001722Y004266D02*
X001822Y004266D01*
X001822Y004364D02*
X001722Y004364D01*
X001722Y004463D02*
X001822Y004463D01*
X001635Y004561D02*
X001567Y004561D01*
X002182Y004758D02*
X002558Y004758D01*
X002592Y004857D02*
X002523Y004857D01*
X002612Y004955D02*
X002655Y004955D01*
X002612Y005054D02*
X002780Y005054D01*
X003189Y005054D02*
X007909Y005054D01*
X007908Y004955D02*
X003314Y004955D01*
X003378Y004857D02*
X008001Y004857D01*
X008020Y004838D02*
X008020Y004838D01*
X007008Y004561D02*
X006657Y004561D01*
X006755Y004463D02*
X006884Y004463D01*
X006826Y004364D02*
X006809Y004364D01*
X006421Y004364D02*
X006383Y004364D01*
X006383Y004266D02*
X006421Y004266D01*
X006421Y004167D02*
X006383Y004167D01*
X006383Y004069D02*
X006421Y004069D01*
X006421Y003970D02*
X006383Y003970D01*
X006383Y003872D02*
X006421Y003872D01*
X006678Y003872D02*
X006971Y003872D01*
X006870Y003970D02*
X006766Y003970D01*
X006814Y004069D02*
X006820Y004069D01*
X006421Y004463D02*
X006383Y004463D01*
X006383Y004561D02*
X006421Y004561D01*
X008931Y003478D02*
X008976Y003478D01*
D14*
X008772Y003024D02*
X001772Y003024D01*
X002382Y003394D02*
X005489Y003394D01*
X005496Y003390D01*
X005489Y004209D01*
X006402Y004209D01*
X005496Y003390D02*
X007949Y003378D01*
X007949Y004024D01*
X008772Y004024D01*
X008772Y005024D02*
X008099Y005028D01*
X008099Y005284D01*
X002422Y005284D01*
X002422Y005024D01*
X001772Y005024D01*
X002347Y004670D02*
X002347Y004031D01*
X001772Y004031D01*
X001772Y004024D01*
X002382Y004024D01*
X002382Y003394D01*
X002422Y002744D02*
X008166Y002744D01*
X008166Y002032D01*
X008772Y002032D01*
X008772Y002024D01*
X008772Y001024D02*
X008772Y000941D01*
X008233Y000941D01*
X008233Y000752D01*
X002315Y000752D01*
X002315Y001024D01*
X001772Y001024D01*
X001772Y002024D02*
X002422Y002024D01*
X002422Y002744D01*
X002347Y004670D02*
X002985Y004670D01*
X001772Y006024D02*
X008772Y006024D01*
M02*
