G75*
%MOIN*%
%OFA0B0*%
%FSLAX24Y24*%
%IPPOS*%
%LPD*%
%AMOC8*
5,1,8,0,0,1.08239X$1,22.5*
%
%ADD10C,0.0740*%
%ADD11C,0.0416*%
%ADD12C,0.0100*%
%ADD13C,0.0160*%
D10*
X001772Y001024D03*
X001772Y002024D03*
X001772Y003024D03*
X001772Y004024D03*
X001772Y005024D03*
X001772Y006024D03*
X008772Y006024D03*
X008772Y005024D03*
X008772Y004024D03*
X008772Y003024D03*
X008772Y002024D03*
X008772Y001024D03*
D11*
X007103Y002524D03*
X006611Y002524D03*
X006556Y004666D03*
X007048Y004666D03*
X003126Y004457D03*
X003126Y003965D03*
X003189Y001823D03*
X003189Y001331D03*
D12*
X003484Y001212D02*
X008330Y001212D01*
X008297Y001131D02*
X008365Y001296D01*
X008500Y001431D01*
X008677Y001504D01*
X008868Y001504D01*
X008976Y001459D01*
X008976Y001589D01*
X008868Y001544D01*
X008677Y001544D01*
X008500Y001617D01*
X008365Y001752D01*
X008331Y001836D01*
X008009Y001831D01*
X008008Y001830D01*
X007931Y001830D01*
X007853Y001829D01*
X007852Y001830D01*
X007851Y001830D01*
X007796Y001885D01*
X007741Y001939D01*
X007741Y001940D01*
X007740Y001941D01*
X007740Y002019D01*
X007738Y002096D01*
X007740Y002097D01*
X007740Y002756D01*
X007376Y002756D01*
X007381Y002752D01*
X007420Y002693D01*
X007447Y002628D01*
X007461Y002559D01*
X007461Y002543D01*
X007122Y002543D01*
X007122Y002505D01*
X007461Y002505D01*
X007461Y002489D01*
X007447Y002420D01*
X007420Y002355D01*
X007381Y002296D01*
X007331Y002246D01*
X007272Y002207D01*
X007207Y002180D01*
X007138Y002166D01*
X007122Y002166D01*
X007122Y002505D01*
X007084Y002505D01*
X007084Y002166D01*
X007068Y002166D01*
X006998Y002180D01*
X006933Y002207D01*
X006875Y002246D01*
X006828Y002292D01*
X006791Y002255D01*
X006674Y002206D01*
X006547Y002206D01*
X006431Y002255D01*
X006341Y002344D01*
X006293Y002461D01*
X006293Y002587D01*
X006341Y002704D01*
X006396Y002759D01*
X002761Y002767D01*
X002761Y001945D01*
X002650Y001834D01*
X002213Y001834D01*
X002179Y001752D01*
X002044Y001617D01*
X001868Y001544D01*
X001677Y001544D01*
X001567Y001590D01*
X001567Y001458D01*
X001677Y001504D01*
X001868Y001504D01*
X002044Y001431D01*
X002179Y001296D01*
X002213Y001214D01*
X002394Y001214D01*
X002505Y001103D01*
X002505Y000942D01*
X008043Y000942D01*
X008043Y001020D01*
X008154Y001131D01*
X008297Y001131D01*
X008136Y001114D02*
X003421Y001114D01*
X003459Y001151D02*
X003507Y001268D01*
X003507Y001394D01*
X003459Y001511D01*
X003421Y001549D01*
X003467Y001595D01*
X003506Y001654D01*
X003533Y001719D01*
X003547Y001788D01*
X003547Y001804D01*
X003208Y001804D01*
X003208Y001842D01*
X003170Y001842D01*
X003170Y001804D01*
X002832Y001804D01*
X002832Y001788D01*
X002845Y001719D01*
X002872Y001654D01*
X002911Y001595D01*
X002958Y001549D01*
X002920Y001511D01*
X002872Y001394D01*
X002872Y001268D01*
X002920Y001151D01*
X003009Y001062D01*
X003126Y001013D01*
X003253Y001013D01*
X003369Y001062D01*
X003459Y001151D01*
X003507Y001311D02*
X008380Y001311D01*
X008478Y001409D02*
X003501Y001409D01*
X003460Y001508D02*
X008976Y001508D01*
X008526Y001606D02*
X003475Y001606D01*
X003528Y001705D02*
X008412Y001705D01*
X008344Y001803D02*
X003547Y001803D01*
X003547Y001842D02*
X003547Y001858D01*
X003533Y001928D01*
X003506Y001993D01*
X003467Y002051D01*
X003417Y002101D01*
X003359Y002140D01*
X003294Y002167D01*
X003225Y002181D01*
X003208Y002181D01*
X003208Y001842D01*
X003547Y001842D01*
X003539Y001902D02*
X007779Y001902D01*
X007740Y002000D02*
X003501Y002000D01*
X003420Y002099D02*
X007740Y002099D01*
X007740Y002197D02*
X007249Y002197D01*
X007122Y002197D02*
X007084Y002197D01*
X007084Y002296D02*
X007122Y002296D01*
X007122Y002394D02*
X007084Y002394D01*
X007084Y002493D02*
X007122Y002493D01*
X007436Y002394D02*
X007740Y002394D01*
X007740Y002296D02*
X007381Y002296D01*
X007461Y002493D02*
X007740Y002493D01*
X007740Y002591D02*
X007454Y002591D01*
X007421Y002690D02*
X007740Y002690D01*
X006957Y002197D02*
X002761Y002197D01*
X002761Y002296D02*
X006389Y002296D01*
X006320Y002394D02*
X002761Y002394D01*
X002761Y002493D02*
X006293Y002493D01*
X006295Y002591D02*
X002761Y002591D01*
X002761Y002690D02*
X006335Y002690D01*
X008327Y003751D02*
X008375Y003685D01*
X008433Y003627D01*
X008500Y003579D01*
X008572Y003542D01*
X008650Y003517D01*
X008722Y003505D01*
X008722Y003974D01*
X008253Y003974D01*
X008265Y003902D01*
X008290Y003824D01*
X008327Y003751D01*
X008316Y003773D02*
X003384Y003773D01*
X003396Y003785D02*
X003306Y003696D01*
X003190Y003647D01*
X003063Y003647D01*
X002946Y003696D01*
X002857Y003785D01*
X002809Y003902D01*
X002809Y004028D01*
X002857Y004145D01*
X002895Y004183D01*
X002848Y004229D01*
X002809Y004288D01*
X002782Y004353D01*
X002769Y004422D01*
X002769Y004438D01*
X003107Y004438D01*
X003107Y004476D01*
X002769Y004476D01*
X002769Y004492D01*
X002782Y004561D01*
X001909Y004561D01*
X001894Y004531D02*
X001822Y004543D01*
X001822Y004074D01*
X001722Y004074D01*
X001722Y004543D01*
X001650Y004531D01*
X001572Y004506D01*
X001567Y004503D01*
X001567Y004590D01*
X001677Y004544D01*
X001868Y004544D01*
X002044Y004617D01*
X002179Y004752D01*
X002213Y004834D01*
X002500Y004834D01*
X002612Y004945D01*
X002612Y005094D01*
X007909Y005094D01*
X007909Y005028D01*
X007908Y004950D01*
X007909Y004950D01*
X007909Y004949D01*
X007964Y004894D01*
X008019Y004838D01*
X008020Y004838D01*
X008098Y004838D01*
X008330Y004837D01*
X008365Y004752D01*
X008500Y004617D01*
X008677Y004544D01*
X008868Y004544D01*
X008976Y004589D01*
X008976Y004504D01*
X008972Y004506D01*
X008894Y004531D01*
X008822Y004543D01*
X008822Y004074D01*
X008722Y004074D01*
X008722Y003974D01*
X008822Y003974D01*
X008822Y003505D01*
X008894Y003517D01*
X008972Y003542D01*
X008976Y003544D01*
X008976Y003459D01*
X008868Y003504D01*
X008677Y003504D01*
X008581Y003464D01*
X008548Y003497D01*
X002004Y003497D01*
X001969Y003462D01*
X001868Y003504D01*
X001677Y003504D01*
X001567Y003458D01*
X001567Y003545D01*
X001572Y003542D01*
X001650Y003517D01*
X001722Y003505D01*
X001722Y003974D01*
X001822Y003974D01*
X001822Y003505D01*
X001894Y003517D01*
X001972Y003542D01*
X002045Y003579D01*
X002111Y003627D01*
X002169Y003685D01*
X002217Y003751D01*
X002254Y003824D01*
X002279Y003902D01*
X002291Y003974D01*
X001822Y003974D01*
X001822Y004074D01*
X002291Y004074D01*
X002279Y004146D01*
X002254Y004224D01*
X002217Y004297D01*
X002169Y004363D01*
X002111Y004421D01*
X002045Y004469D01*
X001972Y004506D01*
X001894Y004531D01*
X001822Y004463D02*
X001722Y004463D01*
X001635Y004561D02*
X001567Y004561D01*
X001722Y004364D02*
X001822Y004364D01*
X001822Y004266D02*
X001722Y004266D01*
X001722Y004167D02*
X001822Y004167D01*
X001822Y004069D02*
X002825Y004069D01*
X002809Y003970D02*
X002290Y003970D01*
X002269Y003872D02*
X002821Y003872D01*
X002869Y003773D02*
X002228Y003773D01*
X002158Y003675D02*
X002996Y003675D01*
X003256Y003675D02*
X008386Y003675D01*
X008505Y003576D02*
X002039Y003576D01*
X001985Y003478D02*
X001931Y003478D01*
X001822Y003576D02*
X001722Y003576D01*
X001722Y003675D02*
X001822Y003675D01*
X001822Y003773D02*
X001722Y003773D01*
X001722Y003872D02*
X001822Y003872D01*
X001822Y003970D02*
X001722Y003970D01*
X002232Y004266D02*
X002824Y004266D01*
X002780Y004364D02*
X002167Y004364D01*
X002053Y004463D02*
X003107Y004463D01*
X003107Y004476D02*
X003107Y004815D01*
X003091Y004815D01*
X003022Y004801D01*
X002957Y004774D01*
X002898Y004735D01*
X002848Y004685D01*
X002809Y004627D01*
X002782Y004561D01*
X002832Y004660D02*
X002087Y004660D01*
X002182Y004758D02*
X002933Y004758D01*
X003107Y004758D02*
X003145Y004758D01*
X003145Y004815D02*
X003145Y004476D01*
X003107Y004476D01*
X003145Y004476D02*
X003484Y004476D01*
X003484Y004492D01*
X003470Y004561D01*
X006255Y004561D01*
X006238Y004603D02*
X006286Y004486D01*
X006375Y004396D01*
X006492Y004348D01*
X006619Y004348D01*
X006736Y004396D01*
X006773Y004434D01*
X006820Y004388D01*
X006878Y004349D01*
X006943Y004322D01*
X007012Y004308D01*
X007029Y004308D01*
X007029Y004647D01*
X007067Y004647D01*
X007067Y004685D01*
X007405Y004685D01*
X007405Y004701D01*
X007392Y004770D01*
X007365Y004835D01*
X007326Y004894D01*
X007276Y004944D01*
X007217Y004983D01*
X007152Y005010D01*
X007083Y005024D01*
X007067Y005024D01*
X007067Y004685D01*
X007029Y004685D01*
X007029Y005024D01*
X007012Y005024D01*
X006943Y005010D01*
X006878Y004983D01*
X006820Y004944D01*
X006773Y004897D01*
X006736Y004935D01*
X006619Y004984D01*
X006492Y004984D01*
X006375Y004935D01*
X006286Y004846D01*
X006238Y004729D01*
X006238Y004603D01*
X006238Y004660D02*
X003421Y004660D01*
X003404Y004685D02*
X003443Y004627D01*
X003470Y004561D01*
X003484Y004438D02*
X003145Y004438D01*
X003145Y004476D01*
X003145Y004463D02*
X006309Y004463D01*
X006453Y004364D02*
X003473Y004364D01*
X003470Y004353D02*
X003484Y004422D01*
X003484Y004438D01*
X003470Y004353D02*
X003443Y004288D01*
X003404Y004229D01*
X003358Y004183D01*
X003396Y004145D01*
X003444Y004028D01*
X003444Y003902D01*
X003396Y003785D01*
X003432Y003872D02*
X008275Y003872D01*
X008254Y003970D02*
X003444Y003970D01*
X003427Y004069D02*
X008722Y004069D01*
X008722Y004074D02*
X008253Y004074D01*
X008265Y004146D01*
X008290Y004224D01*
X008327Y004297D01*
X008375Y004363D01*
X008433Y004421D01*
X008500Y004469D01*
X008572Y004506D01*
X008650Y004531D01*
X008722Y004543D01*
X008722Y004074D01*
X008722Y003970D02*
X008822Y003970D01*
X008822Y003872D02*
X008722Y003872D01*
X008722Y003773D02*
X008822Y003773D01*
X008822Y003675D02*
X008722Y003675D01*
X008722Y003576D02*
X008822Y003576D01*
X008931Y003478D02*
X008976Y003478D01*
X008613Y003478D02*
X008567Y003478D01*
X008722Y004167D02*
X008822Y004167D01*
X008822Y004266D02*
X008722Y004266D01*
X008722Y004364D02*
X008822Y004364D01*
X008822Y004463D02*
X008722Y004463D01*
X008635Y004561D02*
X007392Y004561D01*
X007405Y004631D01*
X007405Y004647D01*
X007067Y004647D01*
X007067Y004308D01*
X007083Y004308D01*
X007152Y004322D01*
X007217Y004349D01*
X007276Y004388D01*
X007326Y004438D01*
X007365Y004496D01*
X007392Y004561D01*
X007342Y004463D02*
X008491Y004463D01*
X008377Y004364D02*
X007240Y004364D01*
X007067Y004364D02*
X007029Y004364D01*
X007029Y004463D02*
X007067Y004463D01*
X007067Y004561D02*
X007029Y004561D01*
X007067Y004660D02*
X008457Y004660D01*
X008363Y004758D02*
X007394Y004758D01*
X007350Y004857D02*
X008001Y004857D01*
X008020Y004838D02*
X008020Y004838D01*
X007908Y004955D02*
X007258Y004955D01*
X007067Y004955D02*
X007029Y004955D01*
X007029Y004857D02*
X007067Y004857D01*
X007067Y004758D02*
X007029Y004758D01*
X006837Y004955D02*
X006687Y004955D01*
X006424Y004955D02*
X002612Y004955D01*
X002612Y005054D02*
X007909Y005054D01*
X008909Y004561D02*
X008976Y004561D01*
X008312Y004266D02*
X003429Y004266D01*
X003373Y004167D02*
X008272Y004167D01*
X006855Y004364D02*
X006658Y004364D01*
X006250Y004758D02*
X003320Y004758D01*
X003296Y004774D02*
X003231Y004801D01*
X003162Y004815D01*
X003145Y004815D01*
X003145Y004660D02*
X003107Y004660D01*
X003107Y004561D02*
X003145Y004561D01*
X003296Y004774D02*
X003354Y004735D01*
X003404Y004685D01*
X002879Y004167D02*
X002272Y004167D01*
X002523Y004857D02*
X006297Y004857D01*
X003170Y002181D02*
X003154Y002181D01*
X003085Y002167D01*
X003020Y002140D01*
X002961Y002101D01*
X002911Y002051D01*
X002872Y001993D01*
X002845Y001928D01*
X002832Y001858D01*
X002832Y001842D01*
X003170Y001842D01*
X003170Y002181D01*
X003170Y002099D02*
X003208Y002099D01*
X003208Y002000D02*
X003170Y002000D01*
X003170Y001902D02*
X003208Y001902D01*
X002959Y002099D02*
X002761Y002099D01*
X002761Y002000D02*
X002877Y002000D01*
X002840Y001902D02*
X002718Y001902D01*
X002832Y001803D02*
X002200Y001803D01*
X002132Y001705D02*
X002851Y001705D01*
X002904Y001606D02*
X002018Y001606D01*
X002066Y001409D02*
X002878Y001409D01*
X002872Y001311D02*
X002164Y001311D01*
X002396Y001212D02*
X002895Y001212D01*
X002957Y001114D02*
X002494Y001114D01*
X002505Y001015D02*
X003121Y001015D01*
X003257Y001015D02*
X008043Y001015D01*
X002919Y001508D02*
X001567Y001508D01*
X001567Y003478D02*
X001613Y003478D01*
D13*
X002083Y003307D02*
X002083Y003024D01*
X001772Y003024D01*
X002083Y003307D02*
X008469Y003307D01*
X008469Y003004D01*
X008772Y003024D01*
X007930Y002945D02*
X007930Y002020D01*
X008772Y002032D01*
X008772Y002024D01*
X008772Y001024D02*
X008772Y000941D01*
X008233Y000941D01*
X008233Y000752D01*
X002315Y000752D01*
X002315Y001024D01*
X001772Y001024D01*
X001772Y002024D02*
X002571Y002024D01*
X002571Y002957D01*
X007930Y002945D01*
X007607Y003567D02*
X007607Y003579D01*
X002433Y003579D01*
X002433Y004024D01*
X001772Y004024D01*
X001772Y004032D01*
X002414Y004032D01*
X002414Y004457D01*
X003126Y004457D01*
X002347Y004031D02*
X001772Y004031D01*
X001772Y004024D01*
X001772Y005024D02*
X002422Y005024D01*
X002422Y005284D01*
X008099Y005284D01*
X008099Y005028D01*
X008772Y005024D01*
X008772Y004024D02*
X007607Y004024D01*
X007607Y003579D01*
X008772Y006024D02*
X001772Y006024D01*
M02*
