G75*
%MOIN*%
%OFA0B0*%
%FSLAX24Y24*%
%IPPOS*%
%LPD*%
%AMOC8*
5,1,8,0,0,1.08239X$1,22.5*
%
%ADD10C,0.0040*%
%ADD11C,0.0060*%
%ADD12C,0.0080*%
%ADD13C,0.0050*%
%ADD14R,0.0042X0.0007*%
%ADD15R,0.0035X0.0007*%
%ADD16R,0.0028X0.0007*%
%ADD17R,0.0099X0.0007*%
%ADD18R,0.0106X0.0007*%
%ADD19R,0.0092X0.0007*%
%ADD20R,0.0120X0.0007*%
%ADD21R,0.0113X0.0007*%
%ADD22R,0.0085X0.0007*%
%ADD23R,0.0333X0.0007*%
%ADD24R,0.0099X0.0007*%
%ADD25R,0.0106X0.0007*%
%ADD26R,0.0092X0.0007*%
%ADD27R,0.0163X0.0007*%
%ADD28R,0.0149X0.0007*%
%ADD29R,0.0092X0.0007*%
%ADD30R,0.0127X0.0007*%
%ADD31R,0.0333X0.0007*%
%ADD32R,0.0099X0.0007*%
%ADD33R,0.0106X0.0007*%
%ADD34R,0.0092X0.0007*%
%ADD35R,0.0113X0.0007*%
%ADD36R,0.0191X0.0007*%
%ADD37R,0.0177X0.0007*%
%ADD38R,0.0092X0.0007*%
%ADD39R,0.0149X0.0007*%
%ADD40R,0.0333X0.0007*%
%ADD41R,0.0120X0.0007*%
%ADD42R,0.0212X0.0007*%
%ADD43R,0.0191X0.0007*%
%ADD44R,0.0092X0.0007*%
%ADD45R,0.0177X0.0007*%
%ADD46R,0.0120X0.0007*%
%ADD47R,0.0234X0.0007*%
%ADD48R,0.0205X0.0007*%
%ADD49R,0.0099X0.0007*%
%ADD50R,0.0120X0.0007*%
%ADD51R,0.0092X0.0007*%
%ADD52R,0.0113X0.0007*%
%ADD53R,0.0120X0.0007*%
%ADD54R,0.0255X0.0007*%
%ADD55R,0.0220X0.0007*%
%ADD56R,0.0092X0.0007*%
%ADD57R,0.0106X0.0007*%
%ADD58R,0.0198X0.0007*%
%ADD59R,0.0333X0.0007*%
%ADD60R,0.0135X0.0007*%
%ADD61R,0.0127X0.0007*%
%ADD62R,0.0269X0.0007*%
%ADD63R,0.0326X0.0007*%
%ADD64R,0.0212X0.0007*%
%ADD65R,0.0135X0.0007*%
%ADD66R,0.0127X0.0007*%
%ADD67R,0.0127X0.0007*%
%ADD68R,0.0283X0.0007*%
%ADD69R,0.0333X0.0007*%
%ADD70R,0.0227X0.0007*%
%ADD71R,0.0135X0.0007*%
%ADD72R,0.0127X0.0007*%
%ADD73R,0.0290X0.0007*%
%ADD74R,0.0333X0.0007*%
%ADD75R,0.0135X0.0007*%
%ADD76R,0.0297X0.0007*%
%ADD77R,0.0340X0.0007*%
%ADD78R,0.0149X0.0007*%
%ADD79R,0.0135X0.0007*%
%ADD80R,0.0142X0.0007*%
%ADD81R,0.0312X0.0007*%
%ADD82R,0.0156X0.0007*%
%ADD83R,0.0340X0.0007*%
%ADD84R,0.0142X0.0007*%
%ADD85R,0.0120X0.0007*%
%ADD86R,0.0142X0.0007*%
%ADD87R,0.0326X0.0007*%
%ADD88R,0.0149X0.0007*%
%ADD89R,0.0142X0.0007*%
%ADD90R,0.0106X0.0007*%
%ADD91R,0.0127X0.0007*%
%ADD92R,0.0135X0.0007*%
%ADD93R,0.0113X0.0007*%
%ADD94R,0.0163X0.0007*%
%ADD95R,0.0163X0.0007*%
%ADD96R,0.0156X0.0007*%
%ADD97R,0.0113X0.0007*%
%ADD98R,0.0120X0.0007*%
%ADD99R,0.0163X0.0007*%
%ADD100R,0.0163X0.0007*%
%ADD101R,0.0085X0.0007*%
%ADD102R,0.0170X0.0007*%
%ADD103R,0.0177X0.0007*%
%ADD104R,0.0085X0.0007*%
%ADD105R,0.0078X0.0007*%
%ADD106R,0.0177X0.0007*%
%ADD107R,0.0106X0.0007*%
%ADD108R,0.0113X0.0007*%
%ADD109R,0.0085X0.0007*%
%ADD110R,0.0177X0.0007*%
%ADD111R,0.0085X0.0007*%
%ADD112R,0.0177X0.0007*%
%ADD113R,0.0177X0.0007*%
%ADD114R,0.0099X0.0007*%
%ADD115R,0.0184X0.0007*%
%ADD116R,0.0099X0.0007*%
%ADD117R,0.0368X0.0007*%
%ADD118R,0.0191X0.0007*%
%ADD119R,0.0368X0.0007*%
%ADD120R,0.0163X0.0007*%
%ADD121R,0.0184X0.0007*%
%ADD122R,0.0368X0.0007*%
%ADD123R,0.0290X0.0007*%
%ADD124R,0.0113X0.0007*%
%ADD125R,0.0085X0.0007*%
%ADD126R,0.0368X0.0007*%
%ADD127R,0.0276X0.0007*%
%ADD128R,0.0361X0.0007*%
%ADD129R,0.0255X0.0007*%
%ADD130R,0.0085X0.0007*%
%ADD131R,0.0361X0.0007*%
%ADD132R,0.0220X0.0007*%
%ADD133R,0.0361X0.0007*%
%ADD134R,0.0099X0.0007*%
%ADD135R,0.0106X0.0007*%
%ADD136R,0.0106X0.0007*%
%ADD137R,0.0120X0.0007*%
%ADD138R,0.0219X0.0007*%
%ADD139R,0.0142X0.0007*%
%ADD140R,0.0219X0.0007*%
%ADD141R,0.0312X0.0007*%
%ADD142R,0.0219X0.0007*%
%ADD143R,0.0347X0.0007*%
%ADD144R,0.0312X0.0007*%
%ADD145R,0.0304X0.0007*%
%ADD146R,0.0340X0.0007*%
%ADD147R,0.0312X0.0007*%
%ADD148R,0.0234X0.0007*%
%ADD149R,0.0297X0.0007*%
%ADD150R,0.0219X0.0007*%
%ADD151R,0.0312X0.0007*%
%ADD152R,0.0227X0.0007*%
%ADD153R,0.0283X0.0007*%
%ADD154R,0.0290X0.0007*%
%ADD155R,0.0269X0.0007*%
%ADD156R,0.0205X0.0007*%
%ADD157R,0.0184X0.0007*%
%ADD158R,0.0255X0.0007*%
%ADD159R,0.0198X0.0007*%
%ADD160R,0.0191X0.0007*%
%ADD161R,0.0184X0.0007*%
%ADD162R,0.0241X0.0007*%
%ADD163R,0.0255X0.0007*%
%ADD164R,0.0191X0.0007*%
%ADD165R,0.0198X0.0007*%
%ADD166R,0.0184X0.0007*%
%ADD167R,0.0234X0.0007*%
%ADD168R,0.0212X0.0007*%
%ADD169R,0.0184X0.0007*%
%ADD170R,0.0170X0.0007*%
%ADD171R,0.0170X0.0007*%
%ADD172R,0.0156X0.0007*%
%ADD173R,0.0035X0.0007*%
%ADD174R,0.0170X0.0007*%
%ADD175R,0.0042X0.0007*%
%ADD176R,0.0064X0.0007*%
%ADD177R,0.0028X0.0007*%
%ADD178R,0.0035X0.0007*%
%ADD179R,0.0156X0.0007*%
%ADD180R,0.0177X0.0007*%
%ADD181R,0.0170X0.0007*%
%ADD182R,0.0028X0.0007*%
%ADD183R,0.0028X0.0007*%
%ADD184R,0.0057X0.0007*%
%ADD185R,0.0057X0.0007*%
%ADD186R,0.0042X0.0007*%
%ADD187R,0.0043X0.0007*%
%ADD188R,0.0050X0.0007*%
%ADD189R,0.0050X0.0007*%
%ADD190R,0.0043X0.0007*%
%ADD191R,0.0043X0.0007*%
%ADD192R,0.0035X0.0007*%
%ADD193R,0.0035X0.0007*%
%ADD194R,0.0078X0.0007*%
%ADD195R,0.0064X0.0007*%
%ADD196C,0.0010*%
D10*
X002266Y000661D02*
X002467Y000661D01*
X002467Y000795D01*
X002467Y000882D02*
X002266Y000882D01*
X002266Y000982D01*
X002300Y001016D01*
X002366Y001016D01*
X002400Y000982D01*
X002400Y000882D01*
X002467Y001103D02*
X002266Y001103D01*
X002400Y001170D02*
X002467Y001237D01*
X002266Y001237D01*
X002400Y001170D02*
X002467Y001103D01*
X002429Y001716D02*
X002463Y001750D01*
X002463Y001817D01*
X002429Y001850D01*
X002396Y001850D01*
X002363Y001817D01*
X002363Y001750D01*
X002329Y001716D01*
X002296Y001716D01*
X002262Y001750D01*
X002262Y001817D01*
X002296Y001850D01*
X002296Y001937D02*
X002429Y001937D01*
X002463Y001971D01*
X002463Y002038D01*
X002429Y002071D01*
X002463Y002158D02*
X002262Y002158D01*
X002296Y002071D02*
X002262Y002038D01*
X002262Y001971D01*
X002296Y001937D01*
X002463Y002158D02*
X002463Y002292D01*
X002437Y002697D02*
X002470Y002730D01*
X002470Y002797D01*
X002437Y002830D01*
X002404Y002830D01*
X002370Y002797D01*
X002370Y002730D01*
X002337Y002697D01*
X002304Y002697D01*
X002270Y002730D01*
X002270Y002797D01*
X002304Y002830D01*
X002270Y002918D02*
X002270Y003018D01*
X002304Y003051D01*
X002437Y003051D01*
X002470Y003018D01*
X002470Y002918D01*
X002270Y002918D01*
X002337Y003139D02*
X002270Y003205D01*
X002337Y003272D01*
X002470Y003272D01*
X002370Y003272D02*
X002370Y003139D01*
X002337Y003139D02*
X002470Y003139D01*
X002445Y003685D02*
X002312Y003685D01*
X002278Y003718D01*
X002278Y003785D01*
X002312Y003818D01*
X002378Y003818D02*
X002378Y003752D01*
X002378Y003818D02*
X002445Y003818D01*
X002478Y003785D01*
X002478Y003718D01*
X002445Y003685D01*
X002478Y003906D02*
X002278Y003906D01*
X002478Y004039D01*
X002278Y004039D01*
X002278Y004127D02*
X002278Y004227D01*
X002312Y004260D01*
X002445Y004260D01*
X002478Y004227D01*
X002478Y004127D01*
X002278Y004127D01*
X002282Y004677D02*
X002416Y004677D01*
X002482Y004744D01*
X002416Y004811D01*
X002282Y004811D01*
X002315Y004898D02*
X002449Y004898D01*
X002482Y004931D01*
X002482Y004998D01*
X002449Y005032D01*
X002449Y005119D02*
X002315Y005119D01*
X002282Y005152D01*
X002282Y005219D01*
X002315Y005253D01*
X002449Y005253D02*
X002482Y005219D01*
X002482Y005152D01*
X002449Y005119D01*
X002315Y005032D02*
X002282Y004998D01*
X002282Y004931D01*
X002315Y004898D01*
X002286Y005746D02*
X002286Y005846D01*
X002319Y005879D01*
X002353Y005879D01*
X002386Y005846D01*
X002386Y005746D01*
X002486Y005746D02*
X002286Y005746D01*
X002386Y005846D02*
X002419Y005879D01*
X002453Y005879D01*
X002486Y005846D01*
X002486Y005746D01*
X002486Y005967D02*
X002353Y005967D01*
X002286Y006034D01*
X002353Y006100D01*
X002486Y006100D01*
X002386Y006100D02*
X002386Y005967D01*
X002286Y006188D02*
X002286Y006321D01*
X002286Y006255D02*
X002486Y006255D01*
X002872Y006235D02*
X002872Y006435D01*
X003005Y006435D01*
X003093Y006435D02*
X003226Y006435D01*
X003226Y006402D01*
X003093Y006268D01*
X003093Y006235D01*
X003226Y006235D01*
X003314Y006335D02*
X003447Y006335D01*
X003535Y006235D02*
X003602Y006235D01*
X003568Y006235D02*
X003568Y006435D01*
X003535Y006435D02*
X003602Y006435D01*
X003682Y006402D02*
X003715Y006435D01*
X003782Y006435D01*
X003816Y006402D01*
X003816Y006368D01*
X003682Y006235D01*
X003816Y006235D01*
X003903Y006268D02*
X003936Y006235D01*
X004003Y006235D01*
X004037Y006268D01*
X003903Y006268D02*
X003903Y006402D01*
X003936Y006435D01*
X004003Y006435D01*
X004037Y006402D01*
X004345Y006435D02*
X004479Y006435D01*
X004412Y006435D02*
X004412Y006235D01*
X004566Y006235D02*
X004633Y006235D01*
X004599Y006235D02*
X004599Y006435D01*
X004566Y006435D02*
X004633Y006435D01*
X004713Y006435D02*
X004847Y006235D01*
X004847Y006435D01*
X004934Y006435D02*
X004934Y006402D01*
X005001Y006335D01*
X005001Y006235D01*
X005001Y006335D02*
X005068Y006402D01*
X005068Y006435D01*
X005376Y006435D02*
X005376Y006235D01*
X005476Y006235D01*
X005510Y006268D01*
X005510Y006302D01*
X005476Y006335D01*
X005376Y006335D01*
X005476Y006335D02*
X005510Y006368D01*
X005510Y006402D01*
X005476Y006435D01*
X005376Y006435D01*
X005597Y006368D02*
X005664Y006435D01*
X005731Y006368D01*
X005731Y006235D01*
X005731Y006335D02*
X005597Y006335D01*
X005597Y006368D02*
X005597Y006235D01*
X005885Y006235D02*
X005885Y006435D01*
X005818Y006435D02*
X005952Y006435D01*
X006039Y006435D02*
X006173Y006435D01*
X006106Y006435D02*
X006106Y006235D01*
X006260Y006235D02*
X006394Y006235D01*
X006481Y006235D02*
X006481Y006435D01*
X006581Y006435D01*
X006615Y006402D01*
X006615Y006335D01*
X006581Y006302D01*
X006481Y006302D01*
X006548Y006302D02*
X006615Y006235D01*
X006769Y006235D02*
X006769Y006335D01*
X006836Y006402D01*
X006836Y006435D01*
X006769Y006335D02*
X006702Y006402D01*
X006702Y006435D01*
X006394Y006435D02*
X006260Y006435D01*
X006260Y006235D01*
X006260Y006335D02*
X006327Y006335D01*
X007144Y006302D02*
X007211Y006235D01*
X007278Y006302D01*
X007278Y006435D01*
X007365Y006402D02*
X007399Y006435D01*
X007465Y006435D01*
X007499Y006402D01*
X007499Y006368D01*
X007365Y006235D01*
X007499Y006235D01*
X007144Y006302D02*
X007144Y006435D01*
X008073Y006327D02*
X008073Y006194D01*
X008073Y006261D02*
X008274Y006261D01*
X008274Y006106D02*
X008140Y006106D01*
X008073Y006040D01*
X008140Y005973D01*
X008274Y005973D01*
X008174Y005973D02*
X008174Y006106D01*
X008207Y005885D02*
X008240Y005885D01*
X008274Y005852D01*
X008274Y005752D01*
X008073Y005752D01*
X008073Y005852D01*
X008107Y005885D01*
X008140Y005885D01*
X008174Y005852D01*
X008174Y005752D01*
X008174Y005852D02*
X008207Y005885D01*
X008217Y005308D02*
X008250Y005274D01*
X008250Y005208D01*
X008217Y005174D01*
X008083Y005174D01*
X008050Y005208D01*
X008050Y005274D01*
X008083Y005308D01*
X008083Y005087D02*
X008050Y005053D01*
X008050Y004987D01*
X008083Y004953D01*
X008217Y004953D01*
X008250Y004987D01*
X008250Y005053D01*
X008217Y005087D01*
X008183Y004866D02*
X008050Y004866D01*
X008183Y004866D02*
X008250Y004799D01*
X008183Y004732D01*
X008050Y004732D01*
X008099Y004308D02*
X008066Y004274D01*
X008066Y004174D01*
X008266Y004174D01*
X008266Y004274D01*
X008232Y004308D01*
X008099Y004308D01*
X008066Y004087D02*
X008266Y004087D01*
X008066Y003953D01*
X008266Y003953D01*
X008232Y003866D02*
X008166Y003866D01*
X008166Y003799D01*
X008232Y003866D02*
X008266Y003832D01*
X008266Y003766D01*
X008232Y003732D01*
X008099Y003732D01*
X008066Y003766D01*
X008066Y003832D01*
X008099Y003866D01*
X008113Y003280D02*
X008246Y003280D01*
X008146Y003280D02*
X008146Y003147D01*
X008113Y003147D02*
X008046Y003213D01*
X008113Y003280D01*
X008113Y003147D02*
X008246Y003147D01*
X008213Y003059D02*
X008079Y003059D01*
X008046Y003026D01*
X008046Y002926D01*
X008246Y002926D01*
X008246Y003026D01*
X008213Y003059D01*
X008213Y002838D02*
X008246Y002805D01*
X008246Y002738D01*
X008213Y002705D01*
X008146Y002738D02*
X008146Y002805D01*
X008179Y002838D01*
X008213Y002838D01*
X008146Y002738D02*
X008113Y002705D01*
X008079Y002705D01*
X008046Y002738D01*
X008046Y002805D01*
X008079Y002838D01*
X008262Y002331D02*
X008262Y002198D01*
X008062Y002198D01*
X008095Y002110D02*
X008062Y002077D01*
X008062Y002010D01*
X008095Y001977D01*
X008228Y001977D01*
X008262Y002010D01*
X008262Y002077D01*
X008228Y002110D01*
X008228Y001889D02*
X008262Y001856D01*
X008262Y001789D01*
X008228Y001756D01*
X008162Y001789D02*
X008162Y001856D01*
X008195Y001889D01*
X008228Y001889D01*
X008095Y001889D02*
X008062Y001856D01*
X008062Y001789D01*
X008095Y001756D01*
X008128Y001756D01*
X008162Y001789D01*
X008066Y001292D02*
X008266Y001292D01*
X008199Y001225D01*
X008266Y001158D01*
X008066Y001158D01*
X008099Y001071D02*
X008166Y001071D01*
X008199Y001038D01*
X008199Y000937D01*
X008266Y000937D02*
X008066Y000937D01*
X008066Y001038D01*
X008099Y001071D01*
X008266Y000850D02*
X008266Y000716D01*
X008066Y000716D01*
X004713Y006235D02*
X004713Y006435D01*
X003005Y006235D02*
X002872Y006235D01*
X002872Y006335D02*
X002939Y006335D01*
D11*
X003905Y004671D02*
X003848Y004614D01*
X003848Y004387D01*
X003905Y004330D01*
X004018Y004330D01*
X004075Y004387D01*
X004075Y004501D01*
X003961Y004501D01*
X004075Y004614D02*
X004018Y004671D01*
X003905Y004671D01*
X004216Y004671D02*
X004443Y004330D01*
X004443Y004671D01*
X004585Y004671D02*
X004755Y004671D01*
X004811Y004614D01*
X004811Y004387D01*
X004755Y004330D01*
X004585Y004330D01*
X004585Y004671D01*
X004216Y004671D02*
X004216Y004330D01*
X004165Y004159D02*
X004165Y003932D01*
X004051Y003819D01*
X003938Y003932D01*
X003938Y004159D01*
X004306Y003989D02*
X004533Y003989D01*
X004419Y004102D02*
X004419Y003875D01*
X006440Y003503D02*
X006667Y003503D01*
X006781Y003390D01*
X006667Y003276D01*
X006440Y003276D01*
X006952Y003290D02*
X006952Y003176D01*
X007009Y003120D01*
X007236Y003120D01*
X007292Y003176D01*
X007292Y003290D01*
X007236Y003347D01*
X007122Y003347D01*
X007122Y003233D01*
X007009Y003347D02*
X006952Y003290D01*
X006952Y003488D02*
X007292Y003715D01*
X006952Y003715D01*
X006952Y003856D02*
X006952Y004026D01*
X007009Y004083D01*
X007236Y004083D01*
X007292Y004026D01*
X007292Y003856D01*
X006952Y003856D01*
X006724Y003758D02*
X006497Y003758D01*
X006610Y003645D02*
X006610Y003871D01*
X006952Y003488D02*
X007292Y003488D01*
X004855Y001917D02*
X004798Y001974D01*
X004628Y001974D01*
X004628Y001634D01*
X004798Y001634D01*
X004855Y001690D01*
X004855Y001917D01*
X004486Y001974D02*
X004486Y001634D01*
X004260Y001974D01*
X004260Y001634D01*
X004118Y001690D02*
X004118Y001804D01*
X004005Y001804D01*
X003891Y001917D02*
X003891Y001690D01*
X003948Y001634D01*
X004061Y001634D01*
X004118Y001690D01*
X004200Y001509D02*
X004200Y001282D01*
X004087Y001169D01*
X003973Y001282D01*
X003973Y001509D01*
X004341Y001339D02*
X004568Y001339D01*
X004455Y001226D02*
X004455Y001453D01*
X004118Y001917D02*
X004061Y001974D01*
X003948Y001974D01*
X003891Y001917D01*
D12*
X001522Y000603D02*
X001351Y000774D01*
X001351Y001274D01*
X001404Y001524D01*
X001351Y001774D01*
X001351Y002274D01*
X001404Y002524D01*
X001351Y002774D01*
X001351Y003274D01*
X001404Y003524D01*
X001351Y003774D01*
X001351Y004274D01*
X001404Y004524D01*
X001351Y004774D01*
X001351Y005274D01*
X001404Y005524D01*
X001351Y005774D01*
X001351Y006274D01*
X001522Y006642D01*
X002022Y006642D01*
X002193Y006274D01*
X002193Y005774D01*
X002140Y005524D01*
X002193Y005274D01*
X002193Y004774D01*
X002140Y004524D01*
X002193Y004274D01*
X002193Y003774D01*
X002140Y003524D01*
X002193Y003274D01*
X002193Y002774D01*
X002140Y002524D01*
X002193Y002274D01*
X002193Y001774D01*
X002140Y001524D01*
X002193Y001274D01*
X002193Y000774D01*
X002022Y000603D01*
X001522Y000603D01*
X002575Y000662D02*
X002575Y000918D01*
X003697Y000918D01*
X002575Y000662D02*
X005075Y000662D01*
X005075Y002493D01*
X002575Y002493D01*
X002575Y002197D01*
X003697Y002197D01*
X002512Y003296D02*
X002512Y003552D01*
X003634Y003552D01*
X002512Y003296D02*
X005012Y003296D01*
X005012Y005126D01*
X002512Y005126D01*
X002512Y004831D01*
X003634Y004831D01*
X005941Y003138D02*
X006197Y003138D01*
X006197Y002016D01*
X007477Y002016D02*
X007477Y003138D01*
X007772Y003138D01*
X007772Y000638D01*
X005941Y000638D01*
X005941Y003138D01*
X008351Y003274D02*
X008351Y002774D01*
X008404Y002524D01*
X008351Y002274D01*
X008351Y001774D01*
X008404Y001524D01*
X008351Y001274D01*
X008351Y000774D01*
X008522Y000603D01*
X009022Y000603D01*
X009193Y000774D01*
X009193Y001274D01*
X009140Y001524D01*
X009193Y001774D01*
X009193Y002274D01*
X009140Y002524D01*
X009193Y002774D01*
X009193Y003274D01*
X009140Y003524D01*
X009193Y003774D01*
X009193Y004274D01*
X009140Y004524D01*
X009193Y004774D01*
X009193Y005274D01*
X009140Y005524D01*
X009193Y005774D01*
X009193Y006274D01*
X009022Y006642D01*
X008522Y006642D01*
X008351Y006274D01*
X008351Y005774D01*
X008404Y005524D01*
X008351Y005274D01*
X008351Y004774D01*
X008404Y004524D01*
X008351Y004274D01*
X008351Y003774D01*
X008404Y003524D01*
X008351Y003274D01*
D13*
X008576Y003476D02*
X008594Y003457D01*
X008631Y003457D01*
X008649Y003476D01*
X008649Y003494D01*
X008631Y003512D01*
X008594Y003512D01*
X008576Y003531D01*
X008576Y003549D01*
X008594Y003567D01*
X008631Y003567D01*
X008649Y003549D01*
X008723Y003567D02*
X008723Y003457D01*
X008778Y003457D01*
X008797Y003476D01*
X008797Y003549D01*
X008778Y003567D01*
X008723Y003567D01*
X008871Y003531D02*
X008907Y003567D01*
X008944Y003531D01*
X008944Y003457D01*
X008944Y003512D02*
X008871Y003512D01*
X008871Y003531D02*
X008871Y003457D01*
X008894Y002563D02*
X008894Y002453D01*
X008968Y002453D01*
X008820Y002472D02*
X008802Y002453D01*
X008765Y002453D01*
X008747Y002472D01*
X008747Y002545D01*
X008765Y002563D01*
X008802Y002563D01*
X008820Y002545D01*
X008673Y002545D02*
X008655Y002563D01*
X008618Y002563D01*
X008600Y002545D01*
X008600Y002527D01*
X008618Y002508D01*
X008655Y002508D01*
X008673Y002490D01*
X008673Y002472D01*
X008655Y002453D01*
X008618Y002453D01*
X008600Y002472D01*
X008588Y001567D02*
X008588Y001457D01*
X008661Y001457D01*
X008735Y001457D02*
X008735Y001567D01*
X008790Y001567D01*
X008809Y001549D01*
X008809Y001512D01*
X008790Y001494D01*
X008735Y001494D01*
X008883Y001457D02*
X008883Y001567D01*
X008956Y001567D02*
X008956Y001457D01*
X008919Y001494D01*
X008883Y001457D01*
X008875Y004461D02*
X008930Y004461D01*
X008948Y004479D01*
X008948Y004553D01*
X008930Y004571D01*
X008875Y004571D01*
X008875Y004461D01*
X008801Y004461D02*
X008801Y004571D01*
X008727Y004571D02*
X008801Y004461D01*
X008727Y004461D02*
X008727Y004571D01*
X008653Y004553D02*
X008635Y004571D01*
X008598Y004571D01*
X008580Y004553D01*
X008580Y004479D01*
X008598Y004461D01*
X008635Y004461D01*
X008653Y004479D01*
X008653Y004516D01*
X008617Y004516D01*
X008609Y005457D02*
X008572Y005494D01*
X008572Y005567D01*
X008646Y005567D02*
X008646Y005494D01*
X008609Y005457D01*
X008719Y005476D02*
X008719Y005549D01*
X008738Y005567D01*
X008774Y005567D01*
X008793Y005549D01*
X008793Y005476D02*
X008774Y005457D01*
X008738Y005457D01*
X008719Y005476D01*
X008867Y005476D02*
X008867Y005549D01*
X008885Y005567D01*
X008922Y005567D01*
X008940Y005549D01*
X008940Y005476D02*
X008922Y005457D01*
X008885Y005457D01*
X008867Y005476D01*
X008820Y006441D02*
X008820Y006515D01*
X008784Y006552D01*
X008747Y006515D01*
X008747Y006441D01*
X008747Y006497D02*
X008820Y006497D01*
X008894Y006552D02*
X008968Y006552D01*
X008931Y006552D02*
X008931Y006441D01*
X008673Y006460D02*
X008655Y006441D01*
X008600Y006441D01*
X008600Y006552D01*
X008655Y006552D01*
X008673Y006533D01*
X008673Y006515D01*
X008655Y006497D01*
X008600Y006497D01*
X008655Y006497D02*
X008673Y006478D01*
X008673Y006460D01*
X001974Y006552D02*
X001900Y006552D01*
X001937Y006552D02*
X001937Y006441D01*
X001826Y006441D02*
X001826Y006515D01*
X001790Y006552D01*
X001753Y006515D01*
X001753Y006441D01*
X001753Y006497D02*
X001826Y006497D01*
X001679Y006515D02*
X001661Y006497D01*
X001606Y006497D01*
X001606Y006552D02*
X001661Y006552D01*
X001679Y006533D01*
X001679Y006515D01*
X001661Y006497D02*
X001679Y006478D01*
X001679Y006460D01*
X001661Y006441D01*
X001606Y006441D01*
X001606Y006552D01*
X001576Y005567D02*
X001576Y005494D01*
X001613Y005457D01*
X001649Y005494D01*
X001649Y005567D01*
X001723Y005549D02*
X001723Y005476D01*
X001742Y005457D01*
X001778Y005457D01*
X001797Y005476D01*
X001797Y005549D02*
X001778Y005567D01*
X001742Y005567D01*
X001723Y005549D01*
X001871Y005549D02*
X001871Y005476D01*
X001889Y005457D01*
X001926Y005457D01*
X001944Y005476D01*
X001944Y005549D02*
X001926Y005567D01*
X001889Y005567D01*
X001871Y005549D01*
X001890Y004563D02*
X001945Y004563D01*
X001964Y004545D01*
X001964Y004472D01*
X001945Y004453D01*
X001890Y004453D01*
X001890Y004563D01*
X001816Y004563D02*
X001816Y004453D01*
X001743Y004563D01*
X001743Y004453D01*
X001669Y004472D02*
X001669Y004508D01*
X001632Y004508D01*
X001596Y004472D02*
X001614Y004453D01*
X001651Y004453D01*
X001669Y004472D01*
X001669Y004545D02*
X001651Y004563D01*
X001614Y004563D01*
X001596Y004545D01*
X001596Y004472D01*
X001602Y003567D02*
X001584Y003549D01*
X001584Y003531D01*
X001602Y003512D01*
X001639Y003512D01*
X001657Y003494D01*
X001657Y003476D01*
X001639Y003457D01*
X001602Y003457D01*
X001584Y003476D01*
X001602Y003567D02*
X001639Y003567D01*
X001657Y003549D01*
X001731Y003567D02*
X001731Y003457D01*
X001786Y003457D01*
X001805Y003476D01*
X001805Y003549D01*
X001786Y003567D01*
X001731Y003567D01*
X001879Y003531D02*
X001915Y003567D01*
X001952Y003531D01*
X001952Y003457D01*
X001952Y003512D02*
X001879Y003512D01*
X001879Y003531D02*
X001879Y003457D01*
X001894Y002571D02*
X001894Y002461D01*
X001968Y002461D01*
X001820Y002479D02*
X001802Y002461D01*
X001765Y002461D01*
X001747Y002479D01*
X001747Y002553D01*
X001765Y002571D01*
X001802Y002571D01*
X001820Y002553D01*
X001673Y002553D02*
X001655Y002571D01*
X001618Y002571D01*
X001600Y002553D01*
X001600Y002535D01*
X001618Y002516D01*
X001655Y002516D01*
X001673Y002498D01*
X001673Y002479D01*
X001655Y002461D01*
X001618Y002461D01*
X001600Y002479D01*
X001588Y001563D02*
X001588Y001453D01*
X001661Y001453D01*
X001735Y001453D02*
X001735Y001563D01*
X001790Y001563D01*
X001809Y001545D01*
X001809Y001508D01*
X001790Y001490D01*
X001735Y001490D01*
X001883Y001453D02*
X001883Y001563D01*
X001956Y001563D02*
X001956Y001453D01*
X001919Y001490D01*
X001883Y001453D01*
D14*
X005216Y005292D03*
X003679Y005943D03*
X003665Y005986D03*
X003594Y005943D03*
X003594Y005936D03*
X003545Y005943D03*
X003530Y005986D03*
X003460Y005943D03*
X003460Y005936D03*
X003410Y005943D03*
X003396Y005986D03*
X003368Y005886D03*
X003233Y005886D03*
X003190Y005936D03*
X003190Y005943D03*
X003261Y005986D03*
X003502Y005886D03*
X003637Y005886D03*
D15*
X003229Y006035D03*
X005545Y005292D03*
D16*
X006016Y005695D03*
X006342Y005292D03*
D17*
X006342Y005299D03*
X006455Y005447D03*
X006455Y005462D03*
X006455Y005497D03*
X006455Y005511D03*
X006448Y005561D03*
X006596Y005561D03*
X006596Y005547D03*
X006596Y005511D03*
X006596Y005497D03*
X006596Y005462D03*
X006596Y005447D03*
X006596Y005412D03*
X006596Y005398D03*
X006596Y005370D03*
X006596Y005348D03*
X006596Y005320D03*
X006596Y005299D03*
X006596Y005589D03*
X006596Y005610D03*
X006596Y005639D03*
X006596Y005660D03*
X006596Y005738D03*
X006596Y005766D03*
X006596Y005787D03*
X006596Y005816D03*
X006186Y005547D03*
X005860Y005511D03*
X005860Y005497D03*
X005860Y005462D03*
X005860Y005447D03*
X005860Y005412D03*
X005860Y005398D03*
X005860Y005370D03*
X005860Y005348D03*
X005860Y005320D03*
X005860Y005299D03*
X005711Y005447D03*
X005711Y005462D03*
X005711Y005561D03*
X005711Y005589D03*
X005485Y005589D03*
X005336Y005547D03*
X005322Y005589D03*
X005478Y005447D03*
X005336Y005412D03*
X005329Y005398D03*
X005088Y005412D03*
X005081Y005547D03*
X005081Y005561D03*
X004954Y005589D03*
X004947Y005561D03*
X004939Y005547D03*
X004932Y005511D03*
X004925Y005497D03*
X004805Y005547D03*
X004791Y005610D03*
X004543Y005497D03*
X004600Y005299D03*
X004869Y005299D03*
X004175Y005299D03*
X004175Y005320D03*
X004175Y005348D03*
X004175Y005370D03*
X004175Y005398D03*
X004175Y005412D03*
X004175Y005447D03*
X004175Y005462D03*
X004175Y005497D03*
X004175Y005511D03*
X004175Y005547D03*
X004175Y005561D03*
X003927Y005561D03*
X003927Y005547D03*
X003778Y005547D03*
X003778Y005561D03*
X003778Y005589D03*
X003778Y005610D03*
X003778Y005639D03*
X003778Y005660D03*
X003778Y005738D03*
X003778Y005766D03*
X003778Y005787D03*
X003778Y005816D03*
X003630Y005639D03*
X003630Y005610D03*
X003630Y005589D03*
X003630Y005561D03*
X003630Y005547D03*
X003630Y005511D03*
X003630Y005497D03*
X003630Y005462D03*
X003630Y005447D03*
X003630Y005412D03*
X003630Y005398D03*
X003630Y005370D03*
X003630Y005348D03*
X003630Y005320D03*
X003630Y005299D03*
X003778Y005299D03*
X003778Y005320D03*
X003778Y005348D03*
X003778Y005370D03*
X003778Y005398D03*
X003778Y005412D03*
X003778Y005447D03*
X003778Y005462D03*
X003778Y005497D03*
X003778Y005511D03*
X003226Y005511D03*
X003226Y005497D03*
X003226Y005462D03*
X003226Y005447D03*
X003226Y005412D03*
X003226Y005398D03*
X003226Y005370D03*
X003226Y005348D03*
X003226Y005320D03*
X003226Y005299D03*
X003226Y005547D03*
X003226Y005561D03*
X003226Y005589D03*
X003226Y005610D03*
X003226Y005639D03*
D18*
X003428Y005299D03*
X004164Y005589D03*
X004497Y005660D03*
X004504Y005639D03*
X004511Y005610D03*
X004518Y005589D03*
X004525Y005561D03*
X004539Y005511D03*
X004490Y005688D03*
X004957Y005610D03*
X004964Y005639D03*
X004971Y005660D03*
X004993Y005738D03*
X005000Y005766D03*
X005007Y005787D03*
X005014Y005816D03*
X005092Y005589D03*
X005092Y005398D03*
X005708Y005412D03*
X005708Y005547D03*
X005977Y005660D03*
X006189Y005561D03*
X006189Y005412D03*
X006041Y005398D03*
X006041Y005370D03*
X006041Y005348D03*
X006041Y005320D03*
X006041Y005299D03*
X006444Y005412D03*
D19*
X006182Y005447D03*
X006182Y005462D03*
X006182Y005497D03*
X006182Y005511D03*
X006182Y005639D03*
X006182Y005660D03*
X006182Y005688D03*
X006182Y005738D03*
X006182Y005766D03*
X006182Y005787D03*
X006182Y005816D03*
X005856Y005660D03*
X005856Y005639D03*
X005474Y005561D03*
X005332Y005561D03*
X005078Y005447D03*
X004816Y005497D03*
X004816Y005511D03*
X004801Y005561D03*
X004794Y005589D03*
X004674Y005589D03*
X004667Y005561D03*
X004653Y005497D03*
X004320Y005497D03*
X004320Y005511D03*
X004320Y005547D03*
X004320Y005561D03*
X004320Y005589D03*
X004320Y005610D03*
X004320Y005639D03*
X004320Y005660D03*
X004320Y005738D03*
X004320Y005766D03*
X004320Y005787D03*
X004320Y005816D03*
X003923Y005660D03*
X003923Y005639D03*
X003923Y005511D03*
X003923Y005497D03*
X003923Y005462D03*
X003923Y005447D03*
X003923Y005412D03*
X003923Y005398D03*
X003923Y005370D03*
X003923Y005348D03*
X003923Y005320D03*
X003923Y005299D03*
X004320Y005299D03*
X004320Y005320D03*
X004320Y005348D03*
X004320Y005370D03*
X004320Y005398D03*
X004320Y005412D03*
X004320Y005447D03*
X004320Y005462D03*
X003633Y005915D03*
X003364Y005915D03*
X003229Y005915D03*
X003329Y005639D03*
X003336Y005610D03*
X003343Y005589D03*
X003364Y005511D03*
X003364Y005497D03*
X003378Y005447D03*
X003491Y005497D03*
X003520Y005610D03*
X003527Y005639D03*
X006182Y005348D03*
X006182Y005320D03*
X006182Y005299D03*
D20*
X006196Y005398D03*
X006196Y005589D03*
X005970Y005639D03*
X005212Y005688D03*
X005113Y005610D03*
X005212Y005299D03*
X006897Y005547D03*
D21*
X006866Y005511D03*
X006809Y005447D03*
X006766Y005398D03*
X006434Y005398D03*
X006434Y005589D03*
X005704Y005398D03*
X005541Y005299D03*
X005478Y005370D03*
X005492Y005462D03*
X005499Y005610D03*
X004869Y005320D03*
X004600Y005320D03*
X004472Y005766D03*
X004465Y005787D03*
X004458Y005816D03*
X003934Y005589D03*
D22*
X003502Y005547D03*
X003495Y005511D03*
X003353Y005547D03*
X005718Y005299D03*
D23*
X006848Y005299D03*
X006848Y005320D03*
X006848Y005348D03*
X006848Y005370D03*
D24*
X006596Y005355D03*
X006596Y005306D03*
X006596Y005405D03*
X006596Y005455D03*
X006596Y005504D03*
X006596Y005554D03*
X006596Y005603D03*
X006596Y005653D03*
X006448Y005554D03*
X006455Y005504D03*
X006455Y005455D03*
X006186Y005554D03*
X005860Y005504D03*
X005860Y005455D03*
X005860Y005405D03*
X005860Y005355D03*
X005860Y005306D03*
X005711Y005455D03*
X005711Y005554D03*
X005492Y005603D03*
X005336Y005554D03*
X005329Y005405D03*
X005088Y005405D03*
X005081Y005554D03*
X004968Y005653D03*
X004954Y005603D03*
X004939Y005554D03*
X004869Y005306D03*
X004600Y005306D03*
X004543Y005504D03*
X004529Y005554D03*
X004515Y005603D03*
X004175Y005554D03*
X004175Y005504D03*
X004175Y005455D03*
X004175Y005405D03*
X004175Y005355D03*
X004175Y005306D03*
X003927Y005554D03*
X003778Y005554D03*
X003778Y005603D03*
X003778Y005653D03*
X003630Y005603D03*
X003630Y005554D03*
X003630Y005504D03*
X003630Y005455D03*
X003630Y005405D03*
X003630Y005355D03*
X003630Y005306D03*
X003778Y005306D03*
X003778Y005355D03*
X003778Y005405D03*
X003778Y005455D03*
X003778Y005504D03*
X003778Y005773D03*
X003778Y005823D03*
X003226Y005603D03*
X003226Y005554D03*
X003226Y005504D03*
X003226Y005455D03*
X003226Y005405D03*
X003226Y005355D03*
X003226Y005306D03*
X006596Y005773D03*
X006596Y005823D03*
D25*
X006437Y005405D03*
X006041Y005355D03*
X006041Y005306D03*
X005708Y005405D03*
X005481Y005455D03*
X005311Y005603D03*
X005000Y005773D03*
X004504Y005653D03*
X004469Y005773D03*
X003428Y005306D03*
X005701Y005603D03*
D26*
X005856Y005653D03*
X006182Y005653D03*
X006182Y005773D03*
X006182Y005823D03*
X006182Y005504D03*
X006182Y005455D03*
X006182Y005306D03*
X004816Y005504D03*
X004801Y005554D03*
X004794Y005603D03*
X004667Y005554D03*
X004320Y005554D03*
X004320Y005603D03*
X004320Y005653D03*
X004320Y005773D03*
X004320Y005823D03*
X003923Y005653D03*
X003923Y005504D03*
X003923Y005455D03*
X003923Y005405D03*
X003923Y005355D03*
X003923Y005306D03*
X003506Y005554D03*
X003520Y005603D03*
X003336Y005603D03*
X003364Y005504D03*
X003378Y005455D03*
X004320Y005455D03*
X004320Y005504D03*
X004320Y005405D03*
X004320Y005355D03*
X004320Y005306D03*
D27*
X003598Y005773D03*
X005212Y005306D03*
D28*
X005545Y005306D03*
D29*
X005467Y005405D03*
X005715Y005306D03*
X004929Y005504D03*
X003350Y005554D03*
D30*
X004734Y005773D03*
X004869Y005355D03*
X006342Y005306D03*
D31*
X006303Y005355D03*
X006848Y005355D03*
X006848Y005306D03*
D32*
X006596Y005313D03*
X006596Y005327D03*
X006596Y005341D03*
X006596Y005362D03*
X006596Y005377D03*
X006596Y005391D03*
X006596Y005419D03*
X006596Y005426D03*
X006596Y005440D03*
X006596Y005469D03*
X006596Y005483D03*
X006596Y005490D03*
X006596Y005518D03*
X006596Y005532D03*
X006596Y005540D03*
X006596Y005568D03*
X006596Y005582D03*
X006596Y005596D03*
X006596Y005617D03*
X006596Y005632D03*
X006596Y005646D03*
X006596Y005667D03*
X006596Y005681D03*
X006596Y005731D03*
X006596Y005745D03*
X006596Y005759D03*
X006596Y005780D03*
X006596Y005794D03*
X006596Y005809D03*
X006455Y005540D03*
X006455Y005532D03*
X006455Y005518D03*
X006455Y005490D03*
X006455Y005483D03*
X006455Y005469D03*
X006448Y005426D03*
X006186Y005426D03*
X006186Y005440D03*
X006186Y005540D03*
X005980Y005667D03*
X005860Y005540D03*
X005860Y005532D03*
X005860Y005518D03*
X005860Y005490D03*
X005860Y005483D03*
X005860Y005469D03*
X005860Y005440D03*
X005860Y005426D03*
X005860Y005419D03*
X005860Y005391D03*
X005860Y005377D03*
X005860Y005362D03*
X005860Y005341D03*
X005860Y005327D03*
X005860Y005313D03*
X005711Y005419D03*
X005711Y005426D03*
X005711Y005440D03*
X005711Y005469D03*
X005711Y005568D03*
X005711Y005582D03*
X005704Y005596D03*
X005485Y005596D03*
X005336Y005540D03*
X005471Y005426D03*
X005471Y005391D03*
X005081Y005419D03*
X005081Y005426D03*
X005081Y005568D03*
X004968Y005646D03*
X004961Y005632D03*
X004961Y005617D03*
X004954Y005596D03*
X004947Y005582D03*
X004947Y005568D03*
X004939Y005540D03*
X004932Y005518D03*
X004925Y005490D03*
X004819Y005490D03*
X004812Y005518D03*
X004975Y005681D03*
X004982Y005709D03*
X004989Y005731D03*
X004996Y005759D03*
X005003Y005780D03*
X005010Y005809D03*
X004522Y005582D03*
X004536Y005532D03*
X004550Y005483D03*
X004508Y005632D03*
X004175Y005540D03*
X004175Y005532D03*
X004175Y005518D03*
X004175Y005490D03*
X004175Y005483D03*
X004175Y005469D03*
X004175Y005440D03*
X004175Y005426D03*
X004175Y005419D03*
X004175Y005391D03*
X004175Y005377D03*
X004175Y005362D03*
X004175Y005341D03*
X004175Y005327D03*
X004175Y005313D03*
X003927Y005540D03*
X003778Y005540D03*
X003778Y005532D03*
X003778Y005518D03*
X003778Y005490D03*
X003778Y005483D03*
X003778Y005469D03*
X003778Y005440D03*
X003778Y005426D03*
X003778Y005419D03*
X003778Y005391D03*
X003778Y005377D03*
X003778Y005362D03*
X003778Y005341D03*
X003778Y005327D03*
X003778Y005313D03*
X003630Y005313D03*
X003630Y005327D03*
X003630Y005341D03*
X003630Y005362D03*
X003630Y005377D03*
X003630Y005391D03*
X003630Y005419D03*
X003630Y005426D03*
X003630Y005440D03*
X003630Y005469D03*
X003630Y005483D03*
X003630Y005490D03*
X003630Y005518D03*
X003630Y005532D03*
X003630Y005540D03*
X003630Y005568D03*
X003630Y005582D03*
X003630Y005596D03*
X003630Y005617D03*
X003630Y005632D03*
X003630Y005646D03*
X003778Y005646D03*
X003778Y005632D03*
X003778Y005617D03*
X003778Y005596D03*
X003778Y005582D03*
X003778Y005568D03*
X003778Y005667D03*
X003778Y005681D03*
X003778Y005731D03*
X003778Y005745D03*
X003778Y005759D03*
X003778Y005780D03*
X003778Y005794D03*
X003778Y005809D03*
X003226Y005646D03*
X003226Y005632D03*
X003226Y005617D03*
X003226Y005596D03*
X003226Y005582D03*
X003226Y005568D03*
X003226Y005540D03*
X003226Y005532D03*
X003226Y005518D03*
X003226Y005490D03*
X003226Y005483D03*
X003226Y005469D03*
X003226Y005440D03*
X003226Y005426D03*
X003226Y005419D03*
X003226Y005391D03*
X003226Y005377D03*
X003226Y005362D03*
X003226Y005341D03*
X003226Y005327D03*
X003226Y005313D03*
D33*
X003428Y005313D03*
X003930Y005568D03*
X004171Y005568D03*
X004171Y005582D03*
X004497Y005667D03*
X004497Y005681D03*
X004490Y005695D03*
X004504Y005646D03*
X004511Y005617D03*
X004518Y005596D03*
X004525Y005568D03*
X004539Y005518D03*
X004546Y005490D03*
X004596Y005313D03*
X005099Y005391D03*
X005092Y005582D03*
X005099Y005596D03*
X004971Y005667D03*
X004986Y005717D03*
X004993Y005745D03*
X005007Y005794D03*
X005325Y005391D03*
X005474Y005377D03*
X006041Y005377D03*
X006041Y005391D03*
X006041Y005362D03*
X006041Y005341D03*
X006041Y005327D03*
X006041Y005313D03*
X006189Y005419D03*
X006189Y005568D03*
X006437Y005582D03*
X006444Y005568D03*
X006444Y005419D03*
X004476Y005745D03*
X004469Y005780D03*
X004462Y005809D03*
D34*
X004320Y005809D03*
X004320Y005794D03*
X004320Y005780D03*
X004320Y005759D03*
X004320Y005745D03*
X004320Y005731D03*
X004320Y005681D03*
X004320Y005667D03*
X004320Y005646D03*
X004320Y005632D03*
X004320Y005617D03*
X004320Y005596D03*
X004320Y005582D03*
X004320Y005568D03*
X004320Y005540D03*
X004320Y005532D03*
X004320Y005518D03*
X004320Y005490D03*
X004320Y005483D03*
X004320Y005469D03*
X004320Y005440D03*
X004320Y005426D03*
X004320Y005419D03*
X004320Y005391D03*
X004320Y005377D03*
X004320Y005362D03*
X004320Y005341D03*
X004320Y005327D03*
X004320Y005313D03*
X004660Y005532D03*
X004667Y005568D03*
X004674Y005582D03*
X004674Y005596D03*
X004787Y005617D03*
X004787Y005632D03*
X004794Y005596D03*
X004794Y005582D03*
X004801Y005568D03*
X004809Y005540D03*
X004809Y005532D03*
X004823Y005483D03*
X004922Y005483D03*
X004936Y005532D03*
X005078Y005440D03*
X005340Y005532D03*
X005332Y005568D03*
X005325Y005582D03*
X005481Y005582D03*
X005474Y005440D03*
X005856Y005646D03*
X005856Y005667D03*
X005856Y005681D03*
X006182Y005681D03*
X006182Y005667D03*
X006182Y005646D03*
X006182Y005632D03*
X006182Y005695D03*
X006182Y005709D03*
X006182Y005717D03*
X006182Y005731D03*
X006182Y005745D03*
X006182Y005759D03*
X006182Y005780D03*
X006182Y005794D03*
X006182Y005809D03*
X006182Y005532D03*
X006182Y005518D03*
X006182Y005490D03*
X006182Y005483D03*
X006182Y005469D03*
X006182Y005341D03*
X006182Y005327D03*
X006182Y005313D03*
X003923Y005313D03*
X003923Y005327D03*
X003923Y005341D03*
X003923Y005362D03*
X003923Y005377D03*
X003923Y005391D03*
X003923Y005419D03*
X003923Y005426D03*
X003923Y005440D03*
X003923Y005469D03*
X003923Y005483D03*
X003923Y005490D03*
X003923Y005518D03*
X003923Y005532D03*
X003923Y005632D03*
X003923Y005646D03*
X003923Y005667D03*
X003923Y005681D03*
X003527Y005632D03*
X003513Y005582D03*
X003357Y005540D03*
X003357Y005532D03*
X003371Y005483D03*
X003343Y005582D03*
X003343Y005596D03*
X003336Y005617D03*
X003329Y005632D03*
X003329Y005646D03*
D35*
X003934Y005582D03*
X004161Y005596D03*
X004472Y005759D03*
X004465Y005794D03*
X004600Y005327D03*
X004869Y005327D03*
X004869Y005313D03*
X005704Y005540D03*
X006193Y005582D03*
X006759Y005391D03*
X006788Y005426D03*
X006915Y005568D03*
D36*
X006345Y005327D03*
X005559Y005490D03*
X005212Y005313D03*
X004872Y005469D03*
X004596Y005469D03*
X003584Y005667D03*
X003272Y005667D03*
X003272Y005681D03*
D37*
X003265Y005731D03*
X003265Y005745D03*
X003428Y005426D03*
X003428Y005419D03*
X004596Y005440D03*
X005545Y005313D03*
D38*
X005467Y005419D03*
X005715Y005483D03*
X005715Y005490D03*
X005715Y005327D03*
X005715Y005313D03*
X006352Y005681D03*
X004681Y005632D03*
X004681Y005617D03*
X003350Y005568D03*
D39*
X003428Y005391D03*
X003428Y005377D03*
X004596Y005391D03*
X004872Y005391D03*
X006211Y005377D03*
X006345Y005313D03*
X006352Y005667D03*
D40*
X006303Y005362D03*
X006848Y005362D03*
X006848Y005341D03*
X006848Y005327D03*
X006848Y005313D03*
X004044Y005617D03*
D41*
X003428Y005320D03*
X005304Y005610D03*
X005694Y005610D03*
X006777Y005412D03*
X006819Y005462D03*
X006912Y005561D03*
X006933Y005589D03*
D42*
X005209Y005320D03*
D43*
X005545Y005320D03*
X004872Y005462D03*
X004738Y005639D03*
X003584Y005660D03*
X003272Y005688D03*
D44*
X003350Y005561D03*
X003499Y005915D03*
X004681Y005610D03*
X005467Y005412D03*
X005467Y005398D03*
X005715Y005320D03*
D45*
X006345Y005320D03*
X006352Y005660D03*
X004872Y005447D03*
X004093Y005660D03*
D46*
X004596Y005341D03*
X005701Y005391D03*
X006430Y005391D03*
X006430Y005596D03*
X006784Y005419D03*
X006827Y005469D03*
X006869Y005518D03*
X006883Y005532D03*
X006926Y005582D03*
X003428Y005327D03*
D47*
X005212Y005327D03*
X006352Y005632D03*
D48*
X005545Y005327D03*
D49*
X005471Y005384D03*
X005471Y005433D03*
X005329Y005575D03*
X005088Y005575D03*
X004961Y005624D03*
X004947Y005575D03*
X004932Y005525D03*
X004975Y005674D03*
X004982Y005702D03*
X004989Y005724D03*
X004996Y005752D03*
X004522Y005575D03*
X004536Y005525D03*
X004175Y005525D03*
X004175Y005476D03*
X004175Y005433D03*
X004175Y005384D03*
X004175Y005334D03*
X003778Y005334D03*
X003778Y005384D03*
X003778Y005433D03*
X003778Y005476D03*
X003778Y005525D03*
X003778Y005575D03*
X003778Y005624D03*
X003778Y005674D03*
X003778Y005752D03*
X003778Y005802D03*
X003630Y005624D03*
X003630Y005575D03*
X003630Y005525D03*
X003630Y005476D03*
X003630Y005433D03*
X003630Y005384D03*
X003630Y005334D03*
X003226Y005334D03*
X003226Y005384D03*
X003226Y005433D03*
X003226Y005476D03*
X003226Y005525D03*
X003226Y005575D03*
X003226Y005624D03*
X005081Y005433D03*
X005711Y005433D03*
X005860Y005433D03*
X005860Y005476D03*
X005860Y005525D03*
X005711Y005575D03*
X005860Y005384D03*
X005860Y005334D03*
X006186Y005433D03*
X006448Y005433D03*
X006455Y005476D03*
X006455Y005525D03*
X006596Y005525D03*
X006596Y005476D03*
X006596Y005433D03*
X006596Y005384D03*
X006596Y005334D03*
X006596Y005575D03*
X006596Y005624D03*
X006596Y005674D03*
X006596Y005752D03*
X006596Y005802D03*
D50*
X006876Y005525D03*
X006834Y005476D03*
X006423Y005384D03*
X003428Y005334D03*
D51*
X003371Y005476D03*
X003357Y005525D03*
X003343Y005575D03*
X003336Y005624D03*
X003513Y005575D03*
X003923Y005624D03*
X003923Y005674D03*
X003923Y005525D03*
X003923Y005476D03*
X003923Y005433D03*
X003923Y005384D03*
X003923Y005334D03*
X004320Y005334D03*
X004320Y005384D03*
X004320Y005433D03*
X004320Y005476D03*
X004320Y005525D03*
X004320Y005575D03*
X004320Y005624D03*
X004320Y005674D03*
X004320Y005752D03*
X004320Y005802D03*
X004660Y005525D03*
X004809Y005525D03*
X004801Y005575D03*
X004787Y005624D03*
X005481Y005575D03*
X005856Y005674D03*
X005984Y005674D03*
X006182Y005674D03*
X006182Y005702D03*
X006182Y005724D03*
X006182Y005752D03*
X006182Y005802D03*
X006182Y005525D03*
X006182Y005476D03*
X006182Y005334D03*
X003633Y005993D03*
X003364Y005993D03*
X003229Y005993D03*
D52*
X004600Y005334D03*
X005102Y005384D03*
X006193Y005575D03*
X006922Y005575D03*
D53*
X005871Y005575D03*
X004872Y005334D03*
D54*
X005209Y005334D03*
D55*
X005545Y005334D03*
D56*
X005715Y005334D03*
X005715Y005476D03*
X004681Y005624D03*
X003499Y005525D03*
X003499Y005993D03*
D57*
X003930Y005575D03*
X004171Y005575D03*
X004497Y005674D03*
X004490Y005702D03*
X004476Y005752D03*
X004462Y005802D03*
X004511Y005624D03*
X005007Y005802D03*
X006041Y005384D03*
X006041Y005334D03*
X006444Y005575D03*
D58*
X006349Y005334D03*
D59*
X006303Y005624D03*
X006848Y005334D03*
D60*
X005694Y005532D03*
X003428Y005362D03*
X003428Y005341D03*
D61*
X003941Y005596D03*
X004734Y005780D03*
X004869Y005341D03*
X005506Y005469D03*
X006200Y005391D03*
X006200Y005596D03*
D62*
X005598Y005646D03*
X005209Y005341D03*
D63*
X005598Y005341D03*
D64*
X006349Y005341D03*
D65*
X003428Y005348D03*
D66*
X004600Y005348D03*
D67*
X004869Y005348D03*
X004734Y005766D03*
X004734Y005787D03*
D68*
X005209Y005348D03*
X005598Y005639D03*
D69*
X005594Y005348D03*
D70*
X005209Y005660D03*
X006349Y005348D03*
D71*
X003428Y005355D03*
D72*
X004600Y005355D03*
X006419Y005603D03*
D73*
X005212Y005355D03*
D74*
X005594Y005355D03*
D75*
X005878Y005582D03*
X006416Y005377D03*
X004872Y005362D03*
X004596Y005362D03*
D76*
X005209Y005362D03*
D77*
X005591Y005362D03*
D78*
X005885Y005589D03*
X004596Y005398D03*
X003605Y005816D03*
X003428Y005370D03*
D79*
X004596Y005370D03*
D80*
X004869Y005370D03*
X004734Y005738D03*
D81*
X005209Y005370D03*
D82*
X004869Y005398D03*
X005683Y005370D03*
X003601Y005787D03*
X003254Y005816D03*
D83*
X004047Y005610D03*
X006306Y005370D03*
D84*
X005598Y005681D03*
X004869Y005377D03*
X004600Y005377D03*
X004734Y005745D03*
X004734Y005759D03*
D85*
X004731Y005794D03*
X005113Y005377D03*
X005311Y005377D03*
X005970Y005646D03*
X006841Y005483D03*
X006848Y005490D03*
X006890Y005540D03*
X006940Y005596D03*
D86*
X005690Y005377D03*
D87*
X006851Y005377D03*
D88*
X004872Y005384D03*
X003428Y005384D03*
D89*
X004600Y005384D03*
X004734Y005752D03*
D90*
X004483Y005724D03*
X005318Y005384D03*
D91*
X005697Y005384D03*
D92*
X006203Y005384D03*
X006352Y005674D03*
X004093Y005674D03*
D93*
X004734Y005802D03*
X006752Y005384D03*
X006795Y005433D03*
D94*
X003428Y005412D03*
X003428Y005398D03*
D95*
X003428Y005405D03*
D96*
X004600Y005405D03*
X004869Y005405D03*
D97*
X005102Y005603D03*
X005973Y005653D03*
X006193Y005405D03*
X006816Y005455D03*
X006858Y005504D03*
D98*
X006770Y005405D03*
X004157Y005603D03*
D99*
X004596Y005412D03*
X004872Y005412D03*
X003598Y005766D03*
X003258Y005787D03*
D100*
X003258Y005780D03*
X003258Y005794D03*
X003598Y005780D03*
X003598Y005759D03*
X004093Y005667D03*
X004596Y005426D03*
X004596Y005419D03*
X004872Y005419D03*
X004872Y005426D03*
D101*
X004670Y005575D03*
X003523Y005624D03*
X003488Y005476D03*
X003474Y005433D03*
X003382Y005433D03*
D102*
X004600Y005433D03*
D103*
X004872Y005433D03*
X005672Y005525D03*
X003591Y005702D03*
X003591Y005724D03*
D104*
X003530Y005646D03*
X003523Y005617D03*
X003516Y005596D03*
X003509Y005568D03*
X003488Y005490D03*
X003488Y005483D03*
X003481Y005469D03*
X003382Y005440D03*
X003375Y005469D03*
X003368Y005490D03*
X003360Y005518D03*
X003368Y005908D03*
X003233Y005908D03*
X003637Y005908D03*
X004663Y005540D03*
X004656Y005518D03*
X004649Y005490D03*
X004649Y005483D03*
X005478Y005568D03*
D105*
X005991Y005681D03*
X003633Y006000D03*
X003633Y006007D03*
X003364Y006007D03*
X003364Y006000D03*
X003229Y006000D03*
X003229Y006007D03*
X003477Y005440D03*
D106*
X003591Y005709D03*
X003591Y005717D03*
X004738Y005667D03*
X004872Y005440D03*
D107*
X004978Y005695D03*
X005318Y005596D03*
X004532Y005540D03*
X004483Y005717D03*
X004483Y005731D03*
X004093Y005681D03*
X006451Y005440D03*
D108*
X006802Y005440D03*
X005867Y005568D03*
X004734Y005809D03*
X004486Y005709D03*
D109*
X004663Y005547D03*
X004656Y005511D03*
X003516Y005589D03*
X003509Y005561D03*
X003481Y005462D03*
X003481Y005447D03*
X003375Y005462D03*
D110*
X003265Y005738D03*
X004596Y005447D03*
D111*
X004656Y005504D03*
X003481Y005455D03*
D112*
X004596Y005455D03*
D113*
X004872Y005455D03*
D114*
X005074Y005455D03*
D115*
X004593Y005462D03*
X003587Y005688D03*
D116*
X005074Y005462D03*
D117*
X005209Y005469D03*
X005209Y005483D03*
X005209Y005490D03*
D118*
X004872Y005476D03*
X004596Y005476D03*
X003272Y005674D03*
D119*
X005209Y005476D03*
D120*
X005524Y005476D03*
X003258Y005802D03*
D121*
X003268Y005717D03*
X003268Y005709D03*
X003268Y005695D03*
X003587Y005695D03*
X003587Y005681D03*
X005541Y005483D03*
D122*
X005209Y005497D03*
D123*
X005616Y005497D03*
D124*
X005867Y005561D03*
X006851Y005497D03*
X004734Y005816D03*
X004479Y005738D03*
D125*
X004678Y005603D03*
X003495Y005504D03*
D126*
X005209Y005504D03*
D127*
X005623Y005504D03*
D128*
X005205Y005511D03*
D129*
X005633Y005511D03*
D130*
X003502Y005532D03*
X003502Y005540D03*
X003495Y005518D03*
X003502Y005908D03*
D131*
X005205Y005518D03*
D132*
X005651Y005518D03*
D133*
X005205Y005525D03*
D134*
X005074Y005532D03*
X005074Y005540D03*
D135*
X004978Y005688D03*
X004532Y005547D03*
X005864Y005547D03*
X006451Y005547D03*
D136*
X005864Y005554D03*
D137*
X006904Y005554D03*
D138*
X005920Y005596D03*
X005920Y005617D03*
X005920Y005632D03*
D139*
X006207Y005603D03*
X003948Y005603D03*
D140*
X005920Y005603D03*
D141*
X006851Y005603D03*
X006851Y005653D03*
D142*
X006352Y005639D03*
X005920Y005610D03*
X004093Y005639D03*
D143*
X006310Y005610D03*
D144*
X006851Y005610D03*
X006851Y005639D03*
X006851Y005660D03*
D145*
X005594Y005617D03*
X005205Y005617D03*
D146*
X006306Y005617D03*
D147*
X006851Y005617D03*
X006851Y005632D03*
X006851Y005646D03*
X006851Y005667D03*
X006851Y005681D03*
D148*
X004093Y005624D03*
D149*
X005209Y005624D03*
X005598Y005624D03*
D150*
X005920Y005624D03*
D151*
X006851Y005624D03*
X006851Y005674D03*
D152*
X004090Y005632D03*
D153*
X005209Y005632D03*
D154*
X005594Y005632D03*
D155*
X005209Y005639D03*
D156*
X004093Y005646D03*
X006352Y005646D03*
D157*
X004734Y005646D03*
D158*
X005209Y005646D03*
D159*
X003275Y005653D03*
D160*
X003584Y005653D03*
X004093Y005653D03*
D161*
X004734Y005653D03*
D162*
X005209Y005653D03*
D163*
X005598Y005653D03*
D164*
X006352Y005653D03*
D165*
X003275Y005660D03*
D166*
X004734Y005660D03*
D167*
X005594Y005660D03*
D168*
X005598Y005667D03*
X005209Y005667D03*
D169*
X005209Y005674D03*
X005598Y005674D03*
X003587Y005674D03*
X003268Y005702D03*
D170*
X003261Y005752D03*
X003594Y005752D03*
X004734Y005674D03*
D171*
X004734Y005681D03*
X004734Y005695D03*
X003594Y005731D03*
X003594Y005745D03*
X003261Y005759D03*
D172*
X003254Y005809D03*
X003601Y005809D03*
X003601Y005794D03*
X004734Y005731D03*
X004734Y005717D03*
X004734Y005709D03*
X005209Y005681D03*
D173*
X004093Y005688D03*
D174*
X003594Y005738D03*
X003261Y005766D03*
X004734Y005688D03*
D175*
X005598Y005688D03*
X003679Y005964D03*
X003637Y006028D03*
X003601Y005979D03*
X003594Y005964D03*
X003601Y005929D03*
X003637Y005879D03*
X003545Y005964D03*
X003537Y005979D03*
X003502Y006028D03*
X003467Y005979D03*
X003460Y005964D03*
X003467Y005929D03*
X003502Y005879D03*
X003410Y005964D03*
X003403Y005979D03*
X003368Y006028D03*
X003332Y005979D03*
X003332Y005929D03*
X003368Y005879D03*
X003233Y005879D03*
X003198Y005929D03*
X003198Y005979D03*
X003233Y006028D03*
X003268Y005979D03*
D176*
X003364Y006014D03*
X003499Y006014D03*
X003633Y006014D03*
X005998Y005688D03*
D177*
X006349Y005688D03*
D178*
X005212Y005695D03*
X003633Y006035D03*
X003499Y006035D03*
X003364Y006035D03*
D179*
X003601Y005802D03*
X004734Y005724D03*
X004734Y005702D03*
D180*
X003265Y005724D03*
D181*
X003261Y005773D03*
D182*
X003233Y005872D03*
X003368Y005872D03*
D183*
X003502Y005872D03*
X003637Y005872D03*
D184*
X003637Y005894D03*
X003502Y005894D03*
X003368Y005894D03*
X003233Y005894D03*
D185*
X003233Y005901D03*
X003368Y005901D03*
X003502Y005901D03*
X003637Y005901D03*
D186*
X003665Y005922D03*
X003608Y005922D03*
X003594Y005971D03*
X003637Y006021D03*
X003502Y006021D03*
X003460Y005971D03*
X003396Y005922D03*
X003339Y005922D03*
X003261Y005922D03*
X003205Y005922D03*
X003190Y005971D03*
X003233Y006021D03*
X003368Y006021D03*
X003530Y005922D03*
D187*
X003474Y005922D03*
X003325Y005971D03*
D188*
X003265Y005929D03*
X003187Y005964D03*
X003399Y005929D03*
X003534Y005929D03*
X003668Y005929D03*
D189*
X003676Y005936D03*
X003605Y005986D03*
X003541Y005936D03*
X003470Y005986D03*
X003406Y005936D03*
X003336Y005986D03*
X003272Y005936D03*
X003201Y005986D03*
D190*
X003275Y005943D03*
X003325Y005943D03*
X003325Y005936D03*
D191*
X003325Y005964D03*
X003275Y005964D03*
X003672Y005979D03*
D192*
X003676Y005971D03*
X003272Y005971D03*
D193*
X003406Y005971D03*
X003541Y005971D03*
D194*
X003499Y006000D03*
X003499Y006007D03*
D195*
X003229Y006014D03*
D196*
X003812Y004931D02*
X003812Y004806D01*
X003838Y004781D01*
X003888Y004781D01*
X003913Y004806D01*
X003913Y004931D01*
X003960Y004906D02*
X003985Y004931D01*
X004035Y004931D01*
X004060Y004906D01*
X004107Y004931D02*
X004207Y004931D01*
X004207Y004906D01*
X004107Y004806D01*
X004107Y004781D01*
X004060Y004806D02*
X004060Y004831D01*
X004035Y004856D01*
X003985Y004856D01*
X003960Y004881D01*
X003960Y004906D01*
X004010Y004956D02*
X004010Y004756D01*
X004035Y004781D02*
X004060Y004806D01*
X004035Y004781D02*
X003985Y004781D01*
X003960Y004806D01*
X004282Y002263D02*
X004282Y002063D01*
X004307Y002088D02*
X004256Y002088D01*
X004231Y002113D01*
X004184Y002113D02*
X004184Y002238D01*
X004231Y002213D02*
X004256Y002238D01*
X004307Y002238D01*
X004332Y002213D01*
X004307Y002163D02*
X004256Y002163D01*
X004231Y002188D01*
X004231Y002213D01*
X004307Y002163D02*
X004332Y002138D01*
X004332Y002113D01*
X004307Y002088D01*
X004379Y002163D02*
X004479Y002163D01*
X004454Y002088D02*
X004454Y002238D01*
X004379Y002163D01*
X004184Y002113D02*
X004159Y002088D01*
X004109Y002088D01*
X004084Y002113D01*
X004084Y002238D01*
X006772Y001413D02*
X006772Y001288D01*
X006797Y001263D01*
X006847Y001263D01*
X006872Y001288D01*
X006872Y001413D01*
X006919Y001388D02*
X006944Y001413D01*
X006994Y001413D01*
X007019Y001388D01*
X007067Y001388D02*
X007067Y001363D01*
X007092Y001338D01*
X007167Y001338D01*
X007167Y001288D02*
X007167Y001388D01*
X007142Y001413D01*
X007092Y001413D01*
X007067Y001388D01*
X006994Y001338D02*
X006944Y001338D01*
X006919Y001363D01*
X006919Y001388D01*
X006969Y001438D02*
X006969Y001238D01*
X006944Y001263D02*
X006994Y001263D01*
X007019Y001288D01*
X007019Y001313D01*
X006994Y001338D01*
X007067Y001288D02*
X007092Y001263D01*
X007142Y001263D01*
X007167Y001288D01*
X006944Y001263D02*
X006919Y001288D01*
M02*
