G75*
%MOIN*%
%OFA0B0*%
%FSLAX24Y24*%
%IPPOS*%
%LPD*%
%AMOC8*
5,1,8,0,0,1.08239X$1,22.5*
%
%ADD10C,0.0740*%
%ADD11C,0.0416*%
%ADD12C,0.0080*%
%ADD13R,0.0400X0.0250*%
%ADD14C,0.0100*%
%ADD15C,0.0160*%
D10*
X001772Y001024D03*
X001772Y002024D03*
X001772Y003024D03*
X001772Y004024D03*
X001772Y005024D03*
X001772Y006024D03*
X008772Y006024D03*
X008772Y005024D03*
X008772Y004024D03*
X008772Y003024D03*
X008772Y002024D03*
X008772Y001024D03*
D11*
X007103Y002524D03*
X006611Y002524D03*
X006556Y004666D03*
X007048Y004666D03*
X003126Y004457D03*
X003126Y003965D03*
X003189Y001823D03*
X003189Y001331D03*
D12*
X005556Y001677D02*
X005556Y001977D01*
D13*
X005556Y002027D03*
X005556Y001627D03*
X005556Y001206D03*
D14*
X005801Y000971D02*
X005845Y001015D01*
X008032Y001008D01*
X008110Y001008D01*
X008189Y001008D01*
X008189Y001008D01*
X008189Y001008D01*
X008245Y001063D01*
X008292Y001110D01*
X008292Y000929D01*
X008336Y000822D01*
X002208Y000822D01*
X002252Y000929D01*
X002252Y001119D01*
X002179Y001296D01*
X002044Y001431D01*
X001868Y001504D01*
X001677Y001504D01*
X001567Y001458D01*
X001567Y001590D01*
X001677Y001544D01*
X001868Y001544D01*
X002044Y001617D01*
X002179Y001752D01*
X002252Y001929D01*
X002252Y002119D01*
X002179Y002296D01*
X002044Y002431D01*
X001868Y002504D01*
X001677Y002504D01*
X001567Y002458D01*
X001567Y002590D01*
X001677Y002544D01*
X001868Y002544D01*
X002044Y002617D01*
X002179Y002752D01*
X002252Y002929D01*
X002252Y003119D01*
X002179Y003296D01*
X002044Y003431D01*
X001868Y003504D01*
X001677Y003504D01*
X001567Y003458D01*
X001567Y003545D01*
X001572Y003542D01*
X001650Y003517D01*
X001722Y003505D01*
X001722Y003974D01*
X001822Y003974D01*
X001822Y003505D01*
X001894Y003517D01*
X001972Y003542D01*
X002045Y003579D01*
X002111Y003627D01*
X002169Y003685D01*
X002217Y003751D01*
X002254Y003824D01*
X002279Y003902D01*
X002291Y003974D01*
X001822Y003974D01*
X001822Y004074D01*
X001722Y004074D01*
X001722Y004543D01*
X001650Y004531D01*
X001572Y004506D01*
X001567Y004503D01*
X001567Y004590D01*
X001677Y004544D01*
X001868Y004544D01*
X002044Y004617D01*
X002179Y004752D01*
X002252Y004929D01*
X002252Y005119D01*
X002179Y005296D01*
X002044Y005431D01*
X001868Y005504D01*
X001677Y005504D01*
X001567Y005458D01*
X001567Y005590D01*
X001677Y005544D01*
X001868Y005544D01*
X002044Y005617D01*
X002179Y005752D01*
X002252Y005929D01*
X002252Y006119D01*
X002179Y006296D01*
X002071Y006403D01*
X008479Y006410D01*
X008365Y006296D01*
X008331Y006214D01*
X007670Y006214D01*
X007558Y006103D01*
X007558Y005945D01*
X007661Y005843D01*
X007661Y002285D01*
X007370Y002285D01*
X007381Y002296D01*
X007420Y002355D01*
X007447Y002420D01*
X007461Y002489D01*
X007461Y002505D01*
X007122Y002505D01*
X007122Y002543D01*
X007461Y002543D01*
X007461Y002559D01*
X007447Y002628D01*
X007420Y002693D01*
X007381Y002752D01*
X007331Y002802D01*
X007272Y002841D01*
X007207Y002868D01*
X007138Y002882D01*
X007122Y002882D01*
X007122Y002543D01*
X007084Y002543D01*
X007084Y002882D01*
X007068Y002882D01*
X006998Y002868D01*
X006933Y002841D01*
X006875Y002802D01*
X006828Y002756D01*
X006791Y002793D01*
X006674Y002842D01*
X006547Y002842D01*
X006431Y002793D01*
X006351Y002714D01*
X005285Y002714D01*
X005285Y004476D01*
X006296Y004476D01*
X006375Y004396D01*
X006492Y004348D01*
X006619Y004348D01*
X006736Y004396D01*
X006773Y004434D01*
X006820Y004388D01*
X006878Y004349D01*
X006943Y004322D01*
X007012Y004308D01*
X007029Y004308D01*
X007029Y004647D01*
X007067Y004647D01*
X007067Y004685D01*
X007405Y004685D01*
X007405Y004701D01*
X007392Y004770D01*
X007365Y004835D01*
X007326Y004894D01*
X007276Y004944D01*
X007217Y004983D01*
X007152Y005010D01*
X007083Y005024D01*
X007067Y005024D01*
X007067Y004685D01*
X007029Y004685D01*
X007029Y005024D01*
X007012Y005024D01*
X006943Y005010D01*
X006878Y004983D01*
X006820Y004944D01*
X006773Y004897D01*
X006736Y004935D01*
X006619Y004984D01*
X006492Y004984D01*
X006375Y004935D01*
X006296Y004856D01*
X005016Y004856D01*
X004905Y004744D01*
X004905Y004155D01*
X003386Y004155D01*
X003358Y004183D01*
X003404Y004229D01*
X003443Y004288D01*
X003470Y004353D01*
X003484Y004422D01*
X003484Y004438D01*
X003145Y004438D01*
X003145Y004476D01*
X003107Y004476D01*
X003107Y004438D01*
X002769Y004438D01*
X002769Y004422D01*
X002782Y004353D01*
X002809Y004288D01*
X002848Y004229D01*
X002895Y004183D01*
X002857Y004145D01*
X002809Y004028D01*
X002809Y003902D01*
X002857Y003785D01*
X002946Y003696D01*
X003063Y003647D01*
X003190Y003647D01*
X003306Y003696D01*
X003386Y003775D01*
X004905Y003775D01*
X004905Y001696D01*
X004904Y001695D01*
X004905Y001618D01*
X004905Y001529D01*
X003448Y001522D01*
X003421Y001549D01*
X003467Y001595D01*
X003506Y001654D01*
X003533Y001719D01*
X003547Y001788D01*
X003547Y001804D01*
X003208Y001804D01*
X003208Y001842D01*
X003170Y001842D01*
X003170Y001804D01*
X002832Y001804D01*
X002832Y001788D01*
X002845Y001719D01*
X002872Y001654D01*
X002911Y001595D01*
X002958Y001549D01*
X002920Y001511D01*
X002872Y001394D01*
X002872Y001268D01*
X002920Y001151D01*
X003009Y001062D01*
X003126Y001013D01*
X003253Y001013D01*
X003369Y001062D01*
X003450Y001142D01*
X005095Y001150D01*
X005174Y001150D01*
X005174Y001150D01*
X005174Y001150D01*
X005230Y001206D01*
X005246Y001222D01*
X005246Y001035D01*
X005310Y000971D01*
X005801Y000971D01*
X005266Y001015D02*
X003257Y001015D01*
X003121Y001015D02*
X002252Y001015D01*
X002247Y000917D02*
X008297Y000917D01*
X008292Y001015D02*
X008197Y001015D01*
X008032Y001008D02*
X008032Y001008D01*
X007661Y002296D02*
X007381Y002296D01*
X007436Y002394D02*
X007661Y002394D01*
X007661Y002493D02*
X007461Y002493D01*
X007454Y002591D02*
X007661Y002591D01*
X007661Y002690D02*
X007421Y002690D01*
X007344Y002788D02*
X007661Y002788D01*
X007661Y002887D02*
X005285Y002887D01*
X005285Y002985D02*
X007661Y002985D01*
X007661Y003084D02*
X005285Y003084D01*
X005285Y003182D02*
X007661Y003182D01*
X007661Y003281D02*
X005285Y003281D01*
X005285Y003379D02*
X007661Y003379D01*
X007661Y003478D02*
X005285Y003478D01*
X005285Y003576D02*
X007661Y003576D01*
X007661Y003675D02*
X005285Y003675D01*
X005285Y003773D02*
X007661Y003773D01*
X007661Y003872D02*
X005285Y003872D01*
X005285Y003970D02*
X007661Y003970D01*
X007661Y004069D02*
X005285Y004069D01*
X005285Y004167D02*
X007661Y004167D01*
X007661Y004266D02*
X005285Y004266D01*
X005285Y004364D02*
X006453Y004364D01*
X006658Y004364D02*
X006855Y004364D01*
X007029Y004364D02*
X007067Y004364D01*
X007067Y004308D02*
X007083Y004308D01*
X007152Y004322D01*
X007217Y004349D01*
X007276Y004388D01*
X007326Y004438D01*
X007365Y004496D01*
X007392Y004561D01*
X007661Y004561D01*
X007661Y004463D02*
X007342Y004463D01*
X007392Y004561D02*
X007405Y004631D01*
X007405Y004647D01*
X007067Y004647D01*
X007067Y004308D01*
X007067Y004463D02*
X007029Y004463D01*
X007029Y004561D02*
X007067Y004561D01*
X007067Y004660D02*
X007661Y004660D01*
X007661Y004758D02*
X007394Y004758D01*
X007350Y004857D02*
X007661Y004857D01*
X007661Y004955D02*
X007258Y004955D01*
X007067Y004955D02*
X007029Y004955D01*
X007029Y004857D02*
X007067Y004857D01*
X007067Y004758D02*
X007029Y004758D01*
X006837Y004955D02*
X006687Y004955D01*
X006424Y004955D02*
X002252Y004955D01*
X002252Y005054D02*
X007661Y005054D01*
X007661Y005152D02*
X002238Y005152D01*
X002198Y005251D02*
X007661Y005251D01*
X007661Y005349D02*
X002126Y005349D01*
X002003Y005448D02*
X007661Y005448D01*
X007661Y005546D02*
X001873Y005546D01*
X001671Y005546D02*
X001567Y005546D01*
X002072Y005645D02*
X007661Y005645D01*
X007661Y005743D02*
X002170Y005743D01*
X002216Y005842D02*
X007661Y005842D01*
X007563Y005940D02*
X002252Y005940D01*
X002252Y006039D02*
X007558Y006039D01*
X007593Y006137D02*
X002245Y006137D01*
X002204Y006236D02*
X008340Y006236D01*
X008404Y006334D02*
X002141Y006334D01*
X002222Y004857D02*
X006297Y004857D01*
X006309Y004463D02*
X005285Y004463D01*
X004905Y004463D02*
X003145Y004463D01*
X003145Y004476D02*
X003484Y004476D01*
X003484Y004492D01*
X003470Y004561D01*
X004905Y004561D01*
X004905Y004660D02*
X003421Y004660D01*
X003404Y004685D02*
X003443Y004627D01*
X003470Y004561D01*
X003404Y004685D02*
X003354Y004735D01*
X003296Y004774D01*
X003231Y004801D01*
X003162Y004815D01*
X003145Y004815D01*
X003145Y004476D01*
X003107Y004476D02*
X003107Y004815D01*
X003091Y004815D01*
X003022Y004801D01*
X002957Y004774D01*
X002898Y004735D01*
X002848Y004685D01*
X002809Y004627D01*
X002782Y004561D01*
X001909Y004561D01*
X001894Y004531D02*
X001822Y004543D01*
X001822Y004074D01*
X002291Y004074D01*
X002279Y004146D01*
X002254Y004224D01*
X002217Y004297D01*
X002169Y004363D01*
X002111Y004421D01*
X002045Y004469D01*
X001972Y004506D01*
X001894Y004531D01*
X001822Y004463D02*
X001722Y004463D01*
X001635Y004561D02*
X001567Y004561D01*
X001722Y004364D02*
X001822Y004364D01*
X001822Y004266D02*
X001722Y004266D01*
X001722Y004167D02*
X001822Y004167D01*
X001822Y004069D02*
X002825Y004069D01*
X002809Y003970D02*
X002290Y003970D01*
X002269Y003872D02*
X002821Y003872D01*
X002869Y003773D02*
X002228Y003773D01*
X002158Y003675D02*
X002996Y003675D01*
X003256Y003675D02*
X004905Y003675D01*
X004905Y003773D02*
X003384Y003773D01*
X003373Y004167D02*
X004905Y004167D01*
X004905Y004266D02*
X003429Y004266D01*
X003473Y004364D02*
X004905Y004364D01*
X004919Y004758D02*
X003320Y004758D01*
X003145Y004758D02*
X003107Y004758D01*
X003107Y004660D02*
X003145Y004660D01*
X003145Y004561D02*
X003107Y004561D01*
X003107Y004476D02*
X002769Y004476D01*
X002769Y004492D01*
X002782Y004561D01*
X002832Y004660D02*
X002087Y004660D01*
X002182Y004758D02*
X002933Y004758D01*
X003107Y004463D02*
X002053Y004463D01*
X002167Y004364D02*
X002780Y004364D01*
X002824Y004266D02*
X002232Y004266D01*
X002272Y004167D02*
X002879Y004167D01*
X002039Y003576D02*
X004905Y003576D01*
X004905Y003478D02*
X001931Y003478D01*
X001822Y003576D02*
X001722Y003576D01*
X001722Y003675D02*
X001822Y003675D01*
X001822Y003773D02*
X001722Y003773D01*
X001722Y003872D02*
X001822Y003872D01*
X001822Y003970D02*
X001722Y003970D01*
X001613Y003478D02*
X001567Y003478D01*
X002096Y003379D02*
X004905Y003379D01*
X004905Y003281D02*
X002185Y003281D01*
X002226Y003182D02*
X004905Y003182D01*
X004905Y003084D02*
X002252Y003084D01*
X002252Y002985D02*
X004905Y002985D01*
X004905Y002887D02*
X002235Y002887D01*
X002194Y002788D02*
X004905Y002788D01*
X004905Y002690D02*
X002117Y002690D01*
X001982Y002591D02*
X004905Y002591D01*
X004905Y002493D02*
X001895Y002493D01*
X002081Y002394D02*
X004905Y002394D01*
X004905Y002296D02*
X002179Y002296D01*
X002220Y002197D02*
X004905Y002197D01*
X004905Y002099D02*
X003420Y002099D01*
X003417Y002101D02*
X003359Y002140D01*
X003294Y002167D01*
X003225Y002181D01*
X003208Y002181D01*
X003208Y001842D01*
X003547Y001842D01*
X003547Y001858D01*
X003533Y001928D01*
X003506Y001993D01*
X003467Y002051D01*
X003417Y002101D01*
X003501Y002000D02*
X004905Y002000D01*
X004905Y001902D02*
X003539Y001902D01*
X003547Y001803D02*
X004905Y001803D01*
X004905Y001705D02*
X003528Y001705D01*
X003475Y001606D02*
X004905Y001606D01*
X005236Y001212D02*
X005246Y001212D01*
X005246Y001114D02*
X003421Y001114D01*
X002957Y001114D02*
X002252Y001114D01*
X002214Y001212D02*
X002895Y001212D01*
X002872Y001311D02*
X002164Y001311D01*
X002066Y001409D02*
X002878Y001409D01*
X002919Y001508D02*
X001567Y001508D01*
X002018Y001606D02*
X002904Y001606D01*
X002851Y001705D02*
X002132Y001705D01*
X002200Y001803D02*
X002832Y001803D01*
X002832Y001842D02*
X003170Y001842D01*
X003170Y002181D01*
X003154Y002181D01*
X003085Y002167D01*
X003020Y002140D01*
X002961Y002101D01*
X002911Y002051D01*
X002872Y001993D01*
X002845Y001928D01*
X002832Y001858D01*
X002832Y001842D01*
X002840Y001902D02*
X002241Y001902D01*
X002252Y002000D02*
X002877Y002000D01*
X002959Y002099D02*
X002252Y002099D01*
X001649Y002493D02*
X001567Y002493D01*
X003170Y002099D02*
X003208Y002099D01*
X003208Y002000D02*
X003170Y002000D01*
X003170Y001902D02*
X003208Y001902D01*
X005285Y002788D02*
X006425Y002788D01*
X006796Y002788D02*
X006861Y002788D01*
X007084Y002788D02*
X007122Y002788D01*
X007122Y002690D02*
X007084Y002690D01*
X007084Y002591D02*
X007122Y002591D01*
X007084Y002543D02*
X006928Y002543D01*
X006928Y002505D01*
X007084Y002505D01*
X007084Y002543D01*
X008301Y003140D02*
X008301Y003804D01*
X008327Y003751D01*
X008375Y003685D01*
X008433Y003627D01*
X008500Y003579D01*
X008572Y003542D01*
X008650Y003517D01*
X008722Y003505D01*
X008722Y003974D01*
X008822Y003974D01*
X008822Y003505D01*
X008894Y003517D01*
X008972Y003542D01*
X008976Y003544D01*
X008976Y003459D01*
X008868Y003504D01*
X008677Y003504D01*
X008500Y003431D01*
X008365Y003296D01*
X008301Y003140D01*
X008301Y003182D02*
X008318Y003182D01*
X008301Y003281D02*
X008359Y003281D01*
X008301Y003379D02*
X008448Y003379D01*
X008301Y003478D02*
X008613Y003478D01*
X008505Y003576D02*
X008301Y003576D01*
X008301Y003675D02*
X008386Y003675D01*
X008316Y003773D02*
X008301Y003773D01*
X008722Y003773D02*
X008822Y003773D01*
X008822Y003675D02*
X008722Y003675D01*
X008722Y003576D02*
X008822Y003576D01*
X008931Y003478D02*
X008976Y003478D01*
X008822Y003872D02*
X008722Y003872D01*
X008722Y003970D02*
X008822Y003970D01*
X008822Y004074D02*
X008722Y004074D01*
X008722Y004543D01*
X008650Y004531D01*
X008572Y004506D01*
X008500Y004469D01*
X008433Y004421D01*
X008375Y004363D01*
X008327Y004297D01*
X008301Y004244D01*
X008301Y004840D01*
X008329Y004839D01*
X008365Y004752D01*
X008500Y004617D01*
X008677Y004544D01*
X008868Y004544D01*
X008976Y004589D01*
X008976Y004504D01*
X008972Y004506D01*
X008894Y004531D01*
X008822Y004543D01*
X008822Y004074D01*
X008822Y004167D02*
X008722Y004167D01*
X008722Y004266D02*
X008822Y004266D01*
X008822Y004364D02*
X008722Y004364D01*
X008722Y004463D02*
X008822Y004463D01*
X008909Y004561D02*
X008976Y004561D01*
X008635Y004561D02*
X008301Y004561D01*
X008301Y004463D02*
X008491Y004463D01*
X008377Y004364D02*
X008301Y004364D01*
X008301Y004266D02*
X008312Y004266D01*
X008301Y004660D02*
X008457Y004660D01*
X008363Y004758D02*
X008301Y004758D01*
X007661Y004364D02*
X007240Y004364D01*
D15*
X007048Y004666D02*
X007048Y002524D01*
X007103Y002524D01*
X006611Y002524D02*
X005095Y002524D01*
X005095Y002489D01*
X005095Y001619D01*
X005095Y001340D01*
X003189Y001331D01*
X003189Y001823D02*
X002414Y002095D01*
X002414Y004032D01*
X001772Y004024D01*
X003126Y003965D02*
X005095Y003965D01*
X005095Y002524D01*
X005556Y002027D02*
X006961Y002095D01*
X007851Y002095D01*
X007851Y006024D01*
X007748Y006024D01*
X007851Y006024D02*
X008772Y006024D01*
X008772Y005024D02*
X008111Y005032D01*
X008111Y001198D01*
X005556Y001206D01*
X005556Y001627D02*
X005095Y001619D01*
X005095Y003965D02*
X005095Y004666D01*
X006556Y004666D01*
M02*
