G75*
%MOIN*%
%OFA0B0*%
%FSLAX24Y24*%
%IPPOS*%
%LPD*%
%AMOC8*
5,1,8,0,0,1.08239X$1,22.5*
%
%ADD10C,0.0800*%
%ADD11R,0.0217X0.0855*%
%ADD12R,0.0493X0.0454*%
%ADD13R,0.0454X0.0493*%
%ADD14C,0.0436*%
D10*
X000670Y001227D03*
X000670Y002227D03*
X000670Y003227D03*
X000670Y004227D03*
X000670Y005227D03*
X000670Y006227D03*
X007670Y006227D03*
X007670Y005227D03*
X007670Y004227D03*
X007670Y003227D03*
X007670Y002227D03*
X007670Y001227D03*
D11*
X005871Y002388D03*
X005595Y002388D03*
X005320Y002388D03*
X005044Y002388D03*
X004769Y002388D03*
X004493Y002388D03*
X004217Y002388D03*
X003942Y002388D03*
X003666Y002388D03*
X003391Y002388D03*
X003115Y002388D03*
X002839Y002388D03*
X002564Y002388D03*
X002288Y002388D03*
D12*
X002300Y003711D03*
X002969Y003711D03*
X003036Y004679D03*
X002367Y004679D03*
X002331Y005550D03*
X003001Y005550D03*
X003017Y006231D03*
X002347Y006231D03*
X005587Y004963D03*
X006257Y004963D03*
X006257Y004211D03*
X005587Y004211D03*
D13*
X004497Y005534D03*
X004497Y006203D03*
X003780Y006215D03*
X003780Y005546D03*
X001733Y002947D03*
X001733Y002278D03*
D14*
X003946Y003593D03*
X005316Y001593D03*
X001670Y005026D03*
X006020Y005518D03*
M02*
