G75*
%MOIN*%
%OFA0B0*%
%FSLAX24Y24*%
%IPPOS*%
%LPD*%
%AMOC8*
5,1,8,0,0,1.08239X$1,22.5*
%
%ADD10C,0.0040*%
%ADD11R,0.0042X0.0007*%
%ADD12R,0.0035X0.0007*%
%ADD13R,0.0028X0.0007*%
%ADD14R,0.0099X0.0007*%
%ADD15R,0.0106X0.0007*%
%ADD16R,0.0092X0.0007*%
%ADD17R,0.0120X0.0007*%
%ADD18R,0.0113X0.0007*%
%ADD19R,0.0085X0.0007*%
%ADD20R,0.0333X0.0007*%
%ADD21R,0.0099X0.0007*%
%ADD22R,0.0106X0.0007*%
%ADD23R,0.0092X0.0007*%
%ADD24R,0.0163X0.0007*%
%ADD25R,0.0149X0.0007*%
%ADD26R,0.0092X0.0007*%
%ADD27R,0.0127X0.0007*%
%ADD28R,0.0333X0.0007*%
%ADD29R,0.0099X0.0007*%
%ADD30R,0.0106X0.0007*%
%ADD31R,0.0092X0.0007*%
%ADD32R,0.0113X0.0007*%
%ADD33R,0.0191X0.0007*%
%ADD34R,0.0177X0.0007*%
%ADD35R,0.0092X0.0007*%
%ADD36R,0.0149X0.0007*%
%ADD37R,0.0333X0.0007*%
%ADD38R,0.0120X0.0007*%
%ADD39R,0.0212X0.0007*%
%ADD40R,0.0191X0.0007*%
%ADD41R,0.0092X0.0007*%
%ADD42R,0.0177X0.0007*%
%ADD43R,0.0120X0.0007*%
%ADD44R,0.0234X0.0007*%
%ADD45R,0.0205X0.0007*%
%ADD46R,0.0099X0.0007*%
%ADD47R,0.0120X0.0007*%
%ADD48R,0.0092X0.0007*%
%ADD49R,0.0113X0.0007*%
%ADD50R,0.0120X0.0007*%
%ADD51R,0.0255X0.0007*%
%ADD52R,0.0220X0.0007*%
%ADD53R,0.0092X0.0007*%
%ADD54R,0.0106X0.0007*%
%ADD55R,0.0198X0.0007*%
%ADD56R,0.0333X0.0007*%
%ADD57R,0.0135X0.0007*%
%ADD58R,0.0127X0.0007*%
%ADD59R,0.0269X0.0007*%
%ADD60R,0.0326X0.0007*%
%ADD61R,0.0212X0.0007*%
%ADD62R,0.0135X0.0007*%
%ADD63R,0.0127X0.0007*%
%ADD64R,0.0127X0.0007*%
%ADD65R,0.0283X0.0007*%
%ADD66R,0.0333X0.0007*%
%ADD67R,0.0227X0.0007*%
%ADD68R,0.0135X0.0007*%
%ADD69R,0.0127X0.0007*%
%ADD70R,0.0290X0.0007*%
%ADD71R,0.0333X0.0007*%
%ADD72R,0.0135X0.0007*%
%ADD73R,0.0297X0.0007*%
%ADD74R,0.0340X0.0007*%
%ADD75R,0.0149X0.0007*%
%ADD76R,0.0135X0.0007*%
%ADD77R,0.0142X0.0007*%
%ADD78R,0.0312X0.0007*%
%ADD79R,0.0156X0.0007*%
%ADD80R,0.0340X0.0007*%
%ADD81R,0.0142X0.0007*%
%ADD82R,0.0120X0.0007*%
%ADD83R,0.0142X0.0007*%
%ADD84R,0.0326X0.0007*%
%ADD85R,0.0149X0.0007*%
%ADD86R,0.0142X0.0007*%
%ADD87R,0.0106X0.0007*%
%ADD88R,0.0127X0.0007*%
%ADD89R,0.0135X0.0007*%
%ADD90R,0.0113X0.0007*%
%ADD91R,0.0163X0.0007*%
%ADD92R,0.0163X0.0007*%
%ADD93R,0.0156X0.0007*%
%ADD94R,0.0113X0.0007*%
%ADD95R,0.0120X0.0007*%
%ADD96R,0.0163X0.0007*%
%ADD97R,0.0163X0.0007*%
%ADD98R,0.0085X0.0007*%
%ADD99R,0.0170X0.0007*%
%ADD100R,0.0177X0.0007*%
%ADD101R,0.0085X0.0007*%
%ADD102R,0.0078X0.0007*%
%ADD103R,0.0177X0.0007*%
%ADD104R,0.0106X0.0007*%
%ADD105R,0.0113X0.0007*%
%ADD106R,0.0085X0.0007*%
%ADD107R,0.0177X0.0007*%
%ADD108R,0.0085X0.0007*%
%ADD109R,0.0177X0.0007*%
%ADD110R,0.0177X0.0007*%
%ADD111R,0.0099X0.0007*%
%ADD112R,0.0184X0.0007*%
%ADD113R,0.0099X0.0007*%
%ADD114R,0.0368X0.0007*%
%ADD115R,0.0191X0.0007*%
%ADD116R,0.0368X0.0007*%
%ADD117R,0.0163X0.0007*%
%ADD118R,0.0184X0.0007*%
%ADD119R,0.0368X0.0007*%
%ADD120R,0.0290X0.0007*%
%ADD121R,0.0113X0.0007*%
%ADD122R,0.0085X0.0007*%
%ADD123R,0.0368X0.0007*%
%ADD124R,0.0276X0.0007*%
%ADD125R,0.0361X0.0007*%
%ADD126R,0.0255X0.0007*%
%ADD127R,0.0085X0.0007*%
%ADD128R,0.0361X0.0007*%
%ADD129R,0.0220X0.0007*%
%ADD130R,0.0361X0.0007*%
%ADD131R,0.0099X0.0007*%
%ADD132R,0.0106X0.0007*%
%ADD133R,0.0106X0.0007*%
%ADD134R,0.0120X0.0007*%
%ADD135R,0.0219X0.0007*%
%ADD136R,0.0142X0.0007*%
%ADD137R,0.0219X0.0007*%
%ADD138R,0.0312X0.0007*%
%ADD139R,0.0219X0.0007*%
%ADD140R,0.0347X0.0007*%
%ADD141R,0.0312X0.0007*%
%ADD142R,0.0304X0.0007*%
%ADD143R,0.0340X0.0007*%
%ADD144R,0.0312X0.0007*%
%ADD145R,0.0234X0.0007*%
%ADD146R,0.0297X0.0007*%
%ADD147R,0.0219X0.0007*%
%ADD148R,0.0312X0.0007*%
%ADD149R,0.0227X0.0007*%
%ADD150R,0.0283X0.0007*%
%ADD151R,0.0290X0.0007*%
%ADD152R,0.0269X0.0007*%
%ADD153R,0.0205X0.0007*%
%ADD154R,0.0184X0.0007*%
%ADD155R,0.0255X0.0007*%
%ADD156R,0.0198X0.0007*%
%ADD157R,0.0191X0.0007*%
%ADD158R,0.0184X0.0007*%
%ADD159R,0.0241X0.0007*%
%ADD160R,0.0255X0.0007*%
%ADD161R,0.0191X0.0007*%
%ADD162R,0.0198X0.0007*%
%ADD163R,0.0184X0.0007*%
%ADD164R,0.0234X0.0007*%
%ADD165R,0.0212X0.0007*%
%ADD166R,0.0184X0.0007*%
%ADD167R,0.0170X0.0007*%
%ADD168R,0.0170X0.0007*%
%ADD169R,0.0156X0.0007*%
%ADD170R,0.0035X0.0007*%
%ADD171R,0.0170X0.0007*%
%ADD172R,0.0042X0.0007*%
%ADD173R,0.0064X0.0007*%
%ADD174R,0.0028X0.0007*%
%ADD175R,0.0035X0.0007*%
%ADD176R,0.0156X0.0007*%
%ADD177R,0.0177X0.0007*%
%ADD178R,0.0170X0.0007*%
%ADD179R,0.0028X0.0007*%
%ADD180R,0.0028X0.0007*%
%ADD181R,0.0057X0.0007*%
%ADD182R,0.0057X0.0007*%
%ADD183R,0.0042X0.0007*%
%ADD184R,0.0043X0.0007*%
%ADD185R,0.0050X0.0007*%
%ADD186R,0.0050X0.0007*%
%ADD187R,0.0043X0.0007*%
%ADD188R,0.0043X0.0007*%
%ADD189R,0.0035X0.0007*%
%ADD190R,0.0035X0.0007*%
%ADD191R,0.0078X0.0007*%
%ADD192R,0.0064X0.0007*%
%ADD193C,0.0080*%
%ADD194C,0.0060*%
D10*
X001174Y000865D02*
X001174Y000998D01*
X001174Y001086D02*
X001375Y001086D01*
X001375Y001186D01*
X001341Y001219D01*
X001274Y001219D01*
X001241Y001186D01*
X001241Y001086D01*
X001174Y001307D02*
X001241Y001373D01*
X001174Y001440D01*
X001375Y001440D01*
X001375Y001307D02*
X001174Y001307D01*
X001174Y000865D02*
X001375Y000865D01*
X001333Y001912D02*
X001300Y001912D01*
X001267Y001945D01*
X001267Y002012D01*
X001233Y002045D01*
X001200Y002045D01*
X001166Y002012D01*
X001166Y001945D01*
X001200Y001912D01*
X001333Y001912D02*
X001367Y001945D01*
X001367Y002012D01*
X001333Y002045D01*
X001333Y002133D02*
X001200Y002133D01*
X001166Y002166D01*
X001166Y002233D01*
X001200Y002266D01*
X001166Y002354D02*
X001166Y002487D01*
X001166Y002354D02*
X001367Y002354D01*
X001333Y002266D02*
X001367Y002233D01*
X001367Y002166D01*
X001333Y002133D01*
X001341Y002873D02*
X001308Y002873D01*
X001274Y002906D01*
X001274Y002973D01*
X001241Y003006D01*
X001208Y003006D01*
X001174Y002973D01*
X001174Y002906D01*
X001208Y002873D01*
X001341Y002873D02*
X001375Y002906D01*
X001375Y002973D01*
X001341Y003006D01*
X001375Y003094D02*
X001375Y003194D01*
X001341Y003227D01*
X001208Y003227D01*
X001174Y003194D01*
X001174Y003094D01*
X001375Y003094D01*
X001308Y003315D02*
X001174Y003315D01*
X001274Y003315D02*
X001274Y003448D01*
X001308Y003448D02*
X001174Y003448D01*
X001308Y003448D02*
X001375Y003381D01*
X001308Y003315D01*
X001341Y003818D02*
X001208Y003818D01*
X001174Y003851D01*
X001174Y003918D01*
X001208Y003951D01*
X001274Y003951D01*
X001274Y003884D01*
X001341Y003818D02*
X001375Y003851D01*
X001375Y003918D01*
X001341Y003951D01*
X001375Y004039D02*
X001174Y004172D01*
X001375Y004172D01*
X001375Y004260D02*
X001375Y004360D01*
X001341Y004393D01*
X001208Y004393D01*
X001174Y004360D01*
X001174Y004260D01*
X001375Y004260D01*
X001375Y004039D02*
X001174Y004039D01*
X001237Y004887D02*
X001171Y004954D01*
X001237Y005020D01*
X001371Y005020D01*
X001337Y005108D02*
X001204Y005108D01*
X001171Y005141D01*
X001171Y005208D01*
X001204Y005241D01*
X001204Y005329D02*
X001171Y005362D01*
X001171Y005429D01*
X001204Y005462D01*
X001204Y005329D02*
X001337Y005329D01*
X001371Y005362D01*
X001371Y005429D01*
X001337Y005462D01*
X001337Y005241D02*
X001371Y005208D01*
X001371Y005141D01*
X001337Y005108D01*
X001371Y004887D02*
X001237Y004887D01*
X001194Y005834D02*
X001194Y005934D01*
X001228Y005967D01*
X001261Y005967D01*
X001294Y005934D01*
X001294Y005834D01*
X001194Y005834D02*
X001394Y005834D01*
X001394Y005934D01*
X001361Y005967D01*
X001328Y005967D01*
X001294Y005934D01*
X001294Y006055D02*
X001294Y006188D01*
X001328Y006188D02*
X001194Y006188D01*
X001328Y006188D02*
X001394Y006121D01*
X001328Y006055D01*
X001194Y006055D01*
X001394Y006276D02*
X001394Y006409D01*
X001394Y006342D02*
X001194Y006342D01*
X002016Y006595D02*
X002149Y006595D01*
X002016Y006729D01*
X002016Y006762D01*
X002049Y006795D01*
X002116Y006795D01*
X002149Y006762D01*
X002237Y006795D02*
X002237Y006662D01*
X002304Y006595D01*
X002370Y006662D01*
X002370Y006795D01*
X002672Y006729D02*
X002672Y006662D01*
X002739Y006595D01*
X002826Y006595D02*
X002960Y006595D01*
X002826Y006729D01*
X002826Y006762D01*
X002860Y006795D01*
X002926Y006795D01*
X002960Y006762D01*
X003047Y006762D02*
X003047Y006729D01*
X003081Y006695D01*
X003047Y006662D01*
X003047Y006629D01*
X003081Y006595D01*
X003147Y006595D01*
X003181Y006629D01*
X003268Y006595D02*
X003402Y006729D01*
X003489Y006695D02*
X003623Y006695D01*
X003523Y006795D01*
X003523Y006595D01*
X003402Y006595D02*
X003268Y006729D01*
X003181Y006762D02*
X003147Y006795D01*
X003081Y006795D01*
X003047Y006762D01*
X003081Y006695D02*
X003114Y006695D01*
X002739Y006795D02*
X002672Y006729D01*
X003710Y006795D02*
X003777Y006762D01*
X003844Y006695D01*
X003744Y006695D01*
X003710Y006662D01*
X003710Y006629D01*
X003744Y006595D01*
X003810Y006595D01*
X003844Y006629D01*
X003844Y006695D01*
X003924Y006595D02*
X003991Y006662D01*
X003991Y006729D01*
X003924Y006795D01*
X004078Y006762D02*
X004112Y006795D01*
X004212Y006795D01*
X004212Y006595D01*
X004112Y006595D01*
X004078Y006629D01*
X004078Y006762D01*
X004299Y006795D02*
X004433Y006795D01*
X004433Y006595D01*
X004299Y006595D01*
X004366Y006695D02*
X004433Y006695D01*
X004520Y006595D02*
X004654Y006595D01*
X004654Y006795D01*
X004741Y006762D02*
X004775Y006795D01*
X004842Y006795D01*
X004875Y006762D01*
X004875Y006629D01*
X004842Y006595D01*
X004775Y006595D01*
X004741Y006629D01*
X004741Y006762D01*
X005183Y006762D02*
X005217Y006795D01*
X005284Y006795D01*
X005317Y006762D01*
X005317Y006629D01*
X005284Y006595D01*
X005217Y006595D01*
X005183Y006629D01*
X005404Y006595D02*
X005538Y006595D01*
X005404Y006729D01*
X005404Y006762D01*
X005438Y006795D01*
X005505Y006795D01*
X005538Y006762D01*
X005618Y006795D02*
X005685Y006795D01*
X005652Y006795D02*
X005652Y006595D01*
X005685Y006595D02*
X005618Y006595D01*
X005773Y006695D02*
X005906Y006695D01*
X005994Y006762D02*
X006127Y006629D01*
X006127Y006595D01*
X005994Y006595D01*
X005994Y006762D02*
X005994Y006795D01*
X006127Y006795D01*
X006215Y006795D02*
X006348Y006795D01*
X006348Y006595D01*
X006215Y006595D01*
X006281Y006695D02*
X006348Y006695D01*
X006911Y006543D02*
X007111Y006543D01*
X007111Y006476D02*
X007111Y006610D01*
X007044Y006389D02*
X006911Y006389D01*
X007011Y006389D02*
X007011Y006255D01*
X007044Y006255D02*
X007111Y006322D01*
X007044Y006389D01*
X007044Y006255D02*
X006911Y006255D01*
X006944Y006168D02*
X006911Y006134D01*
X006911Y006034D01*
X007111Y006034D01*
X007111Y006134D01*
X007077Y006168D01*
X007044Y006168D01*
X007011Y006134D01*
X007011Y006034D01*
X007011Y006134D02*
X006977Y006168D01*
X006944Y006168D01*
X007007Y005460D02*
X006974Y005427D01*
X006974Y005360D01*
X007007Y005326D01*
X007140Y005326D01*
X007174Y005360D01*
X007174Y005427D01*
X007140Y005460D01*
X007140Y005239D02*
X007174Y005206D01*
X007174Y005139D01*
X007140Y005105D01*
X007007Y005105D01*
X006974Y005139D01*
X006974Y005206D01*
X007007Y005239D01*
X007040Y005018D02*
X007174Y005018D01*
X007174Y004884D02*
X007040Y004884D01*
X006974Y004951D01*
X007040Y005018D01*
X007101Y004476D02*
X006968Y004476D01*
X006934Y004442D01*
X006934Y004342D01*
X007134Y004342D01*
X007134Y004442D01*
X007101Y004476D01*
X007134Y004255D02*
X006934Y004255D01*
X007134Y004121D01*
X006934Y004121D01*
X006968Y004034D02*
X007034Y004034D01*
X007034Y003967D01*
X006968Y004034D02*
X006934Y004000D01*
X006934Y003934D01*
X006968Y003900D01*
X007101Y003900D01*
X007134Y003934D01*
X007134Y004000D01*
X007101Y004034D01*
X007107Y003491D02*
X006974Y003491D01*
X007074Y003491D02*
X007074Y003358D01*
X007107Y003358D02*
X007174Y003425D01*
X007107Y003491D01*
X007107Y003358D02*
X006974Y003358D01*
X007007Y003270D02*
X007140Y003270D01*
X007174Y003237D01*
X007174Y003137D01*
X006974Y003137D01*
X006974Y003237D01*
X007007Y003270D01*
X007007Y003049D02*
X006974Y003016D01*
X006974Y002949D01*
X007007Y002916D01*
X007074Y002949D02*
X007074Y003016D01*
X007040Y003049D01*
X007007Y003049D01*
X007140Y003049D02*
X007174Y003016D01*
X007174Y002949D01*
X007140Y002916D01*
X007107Y002916D01*
X007074Y002949D01*
X006934Y002547D02*
X006934Y002413D01*
X007134Y002413D01*
X007101Y002326D02*
X007134Y002292D01*
X007134Y002225D01*
X007101Y002192D01*
X006968Y002192D01*
X006934Y002225D01*
X006934Y002292D01*
X006968Y002326D01*
X006968Y002105D02*
X006934Y002071D01*
X006934Y002004D01*
X006968Y001971D01*
X007034Y002004D02*
X007034Y002071D01*
X007001Y002105D01*
X006968Y002105D01*
X007034Y002004D02*
X007068Y001971D01*
X007101Y001971D01*
X007134Y002004D01*
X007134Y002071D01*
X007101Y002105D01*
X007134Y001484D02*
X006934Y001484D01*
X007001Y001417D01*
X006934Y001350D01*
X007134Y001350D01*
X007101Y001263D02*
X007034Y001263D01*
X007001Y001229D01*
X007001Y001129D01*
X006934Y001129D02*
X007134Y001129D01*
X007134Y001229D01*
X007101Y001263D01*
X006934Y001042D02*
X006934Y000908D01*
X007134Y000908D01*
D11*
X006086Y001469D03*
X006086Y001476D03*
X006044Y001420D03*
X005909Y001420D03*
X005867Y001476D03*
X005881Y001519D03*
X005817Y001476D03*
X005817Y001469D03*
X005775Y001420D03*
X005732Y001476D03*
X005746Y001519D03*
X005683Y001476D03*
X005683Y001469D03*
X005640Y001420D03*
X005598Y001476D03*
X005612Y001519D03*
X006015Y001519D03*
X004061Y000825D03*
D12*
X003732Y000825D03*
X006047Y001569D03*
D13*
X003261Y001229D03*
X002935Y000825D03*
D14*
X002935Y000832D03*
X002822Y000981D03*
X002822Y000995D03*
X002822Y001030D03*
X002822Y001045D03*
X002829Y001094D03*
X002680Y001094D03*
X002680Y001080D03*
X002680Y001045D03*
X002680Y001030D03*
X002680Y000995D03*
X002680Y000981D03*
X002680Y000945D03*
X002680Y000931D03*
X002680Y000903D03*
X002680Y000882D03*
X002680Y000853D03*
X002680Y000832D03*
X002680Y001122D03*
X002680Y001144D03*
X002680Y001172D03*
X002680Y001193D03*
X002680Y001271D03*
X002680Y001299D03*
X002680Y001321D03*
X002680Y001349D03*
X003091Y001080D03*
X003417Y001045D03*
X003417Y001030D03*
X003417Y000995D03*
X003417Y000981D03*
X003417Y000945D03*
X003417Y000931D03*
X003417Y000903D03*
X003417Y000882D03*
X003417Y000853D03*
X003417Y000832D03*
X003565Y000981D03*
X003565Y000995D03*
X003565Y001094D03*
X003565Y001122D03*
X003792Y001122D03*
X003799Y000981D03*
X003941Y000945D03*
X003948Y000931D03*
X003941Y001080D03*
X003955Y001122D03*
X004196Y001094D03*
X004196Y001080D03*
X004189Y000945D03*
X004351Y001030D03*
X004344Y001045D03*
X004337Y001080D03*
X004330Y001094D03*
X004323Y001122D03*
X004472Y001080D03*
X004486Y001144D03*
X004734Y001030D03*
X004677Y000832D03*
X004408Y000832D03*
X005102Y000832D03*
X005102Y000853D03*
X005102Y000882D03*
X005102Y000903D03*
X005102Y000931D03*
X005102Y000945D03*
X005102Y000981D03*
X005102Y000995D03*
X005102Y001030D03*
X005102Y001045D03*
X005102Y001080D03*
X005102Y001094D03*
X005350Y001094D03*
X005350Y001080D03*
X005499Y001080D03*
X005499Y001094D03*
X005499Y001122D03*
X005499Y001144D03*
X005499Y001172D03*
X005499Y001193D03*
X005499Y001271D03*
X005499Y001299D03*
X005499Y001321D03*
X005499Y001349D03*
X005647Y001172D03*
X005647Y001144D03*
X005647Y001122D03*
X005647Y001094D03*
X005647Y001080D03*
X005647Y001045D03*
X005647Y001030D03*
X005647Y000995D03*
X005647Y000981D03*
X005647Y000945D03*
X005647Y000931D03*
X005647Y000903D03*
X005647Y000882D03*
X005647Y000853D03*
X005647Y000832D03*
X005499Y000832D03*
X005499Y000853D03*
X005499Y000882D03*
X005499Y000903D03*
X005499Y000931D03*
X005499Y000945D03*
X005499Y000981D03*
X005499Y000995D03*
X005499Y001030D03*
X005499Y001045D03*
X006051Y001045D03*
X006051Y001030D03*
X006051Y000995D03*
X006051Y000981D03*
X006051Y000945D03*
X006051Y000931D03*
X006051Y000903D03*
X006051Y000882D03*
X006051Y000853D03*
X006051Y000832D03*
X006051Y001080D03*
X006051Y001094D03*
X006051Y001122D03*
X006051Y001144D03*
X006051Y001172D03*
D15*
X005849Y000832D03*
X005113Y001122D03*
X004780Y001193D03*
X004773Y001172D03*
X004766Y001144D03*
X004759Y001122D03*
X004751Y001094D03*
X004737Y001045D03*
X004787Y001222D03*
X004320Y001144D03*
X004312Y001172D03*
X004305Y001193D03*
X004284Y001271D03*
X004277Y001299D03*
X004270Y001321D03*
X004263Y001349D03*
X004185Y001122D03*
X004185Y000931D03*
X003569Y000945D03*
X003569Y001080D03*
X003300Y001193D03*
X003087Y001094D03*
X003087Y000945D03*
X003236Y000931D03*
X003236Y000903D03*
X003236Y000882D03*
X003236Y000853D03*
X003236Y000832D03*
X002833Y000945D03*
D16*
X003095Y000981D03*
X003095Y000995D03*
X003095Y001030D03*
X003095Y001045D03*
X003095Y001172D03*
X003095Y001193D03*
X003095Y001222D03*
X003095Y001271D03*
X003095Y001299D03*
X003095Y001321D03*
X003095Y001349D03*
X003420Y001193D03*
X003420Y001172D03*
X003803Y001094D03*
X003944Y001094D03*
X004199Y000981D03*
X004461Y001030D03*
X004461Y001045D03*
X004475Y001094D03*
X004482Y001122D03*
X004603Y001122D03*
X004610Y001094D03*
X004624Y001030D03*
X004957Y001030D03*
X004957Y001045D03*
X004957Y001080D03*
X004957Y001094D03*
X004957Y001122D03*
X004957Y001144D03*
X004957Y001172D03*
X004957Y001193D03*
X004957Y001271D03*
X004957Y001299D03*
X004957Y001321D03*
X004957Y001349D03*
X004957Y000995D03*
X004957Y000981D03*
X004957Y000945D03*
X004957Y000931D03*
X004957Y000903D03*
X004957Y000882D03*
X004957Y000853D03*
X004957Y000832D03*
X005353Y000832D03*
X005353Y000853D03*
X005353Y000882D03*
X005353Y000903D03*
X005353Y000931D03*
X005353Y000945D03*
X005353Y000981D03*
X005353Y000995D03*
X005353Y001030D03*
X005353Y001045D03*
X005353Y001172D03*
X005353Y001193D03*
X005644Y001448D03*
X005913Y001448D03*
X006047Y001448D03*
X005948Y001172D03*
X005941Y001144D03*
X005934Y001122D03*
X005913Y001045D03*
X005913Y001030D03*
X005899Y000981D03*
X005785Y001030D03*
X005757Y001144D03*
X005750Y001172D03*
X003095Y000882D03*
X003095Y000853D03*
X003095Y000832D03*
D17*
X003080Y000931D03*
X003080Y001122D03*
X003307Y001172D03*
X004065Y001222D03*
X004164Y001144D03*
X004065Y000832D03*
X002379Y001080D03*
D18*
X002411Y001045D03*
X002468Y000981D03*
X002510Y000931D03*
X002843Y000931D03*
X002843Y001122D03*
X003573Y000931D03*
X003735Y000832D03*
X003799Y000903D03*
X003785Y000995D03*
X003778Y001144D03*
X004408Y000853D03*
X004677Y000853D03*
X004805Y001299D03*
X004812Y001321D03*
X004819Y001349D03*
X005343Y001122D03*
D19*
X005775Y001080D03*
X005782Y001045D03*
X005923Y001080D03*
X003558Y000832D03*
D20*
X002429Y000832D03*
X002429Y000853D03*
X002429Y000882D03*
X002429Y000903D03*
D21*
X002680Y000889D03*
X002680Y000938D03*
X002680Y000988D03*
X002680Y001037D03*
X002680Y001087D03*
X002680Y001137D03*
X002680Y001186D03*
X002680Y001307D03*
X002680Y001356D03*
X002829Y001087D03*
X002822Y001037D03*
X002822Y000988D03*
X002680Y000839D03*
X003091Y001087D03*
X003417Y001037D03*
X003417Y000988D03*
X003417Y000938D03*
X003417Y000889D03*
X003417Y000839D03*
X003565Y000988D03*
X003565Y001087D03*
X003785Y001137D03*
X003941Y001087D03*
X003948Y000938D03*
X004189Y000938D03*
X004196Y001087D03*
X004309Y001186D03*
X004323Y001137D03*
X004337Y001087D03*
X004408Y000839D03*
X004677Y000839D03*
X004734Y001037D03*
X004748Y001087D03*
X004762Y001137D03*
X005102Y001087D03*
X005102Y001037D03*
X005102Y000988D03*
X005102Y000938D03*
X005102Y000889D03*
X005102Y000839D03*
X005350Y001087D03*
X005499Y001087D03*
X005499Y001037D03*
X005499Y000988D03*
X005499Y000938D03*
X005499Y000889D03*
X005499Y000839D03*
X005647Y000839D03*
X005647Y000889D03*
X005647Y000938D03*
X005647Y000988D03*
X005647Y001037D03*
X005647Y001087D03*
X005647Y001137D03*
X005499Y001137D03*
X005499Y001186D03*
X005499Y001307D03*
X005499Y001356D03*
X006051Y001137D03*
X006051Y001087D03*
X006051Y001037D03*
X006051Y000988D03*
X006051Y000938D03*
X006051Y000889D03*
X006051Y000839D03*
D22*
X005849Y000839D03*
X004773Y001186D03*
X004808Y001307D03*
X004277Y001307D03*
X003966Y001137D03*
X003796Y000988D03*
X003576Y001137D03*
X003569Y000938D03*
X003236Y000889D03*
X003236Y000839D03*
X002840Y000938D03*
D23*
X003095Y000988D03*
X003095Y001037D03*
X003095Y001186D03*
X003095Y001307D03*
X003095Y001356D03*
X003420Y001186D03*
X003095Y000839D03*
X004461Y001037D03*
X004475Y001087D03*
X004482Y001137D03*
X004610Y001087D03*
X004957Y001087D03*
X004957Y001037D03*
X004957Y000988D03*
X004957Y000938D03*
X004957Y000889D03*
X004957Y000839D03*
X004957Y001137D03*
X004957Y001186D03*
X004957Y001307D03*
X004957Y001356D03*
X005353Y001186D03*
X005353Y001037D03*
X005353Y000988D03*
X005353Y000938D03*
X005353Y000889D03*
X005353Y000839D03*
X005771Y001087D03*
X005757Y001137D03*
X005941Y001137D03*
X005913Y001037D03*
X005899Y000988D03*
D24*
X005679Y001307D03*
X004065Y000839D03*
D25*
X003732Y000839D03*
D26*
X003810Y000938D03*
X003562Y000839D03*
X004348Y001037D03*
X005927Y001087D03*
D27*
X004543Y001307D03*
X004408Y000889D03*
X002935Y000839D03*
D28*
X002974Y000889D03*
X002429Y000889D03*
X002429Y000839D03*
D29*
X002680Y000846D03*
X002680Y000860D03*
X002680Y000875D03*
X002680Y000896D03*
X002680Y000910D03*
X002680Y000924D03*
X002680Y000953D03*
X002680Y000960D03*
X002680Y000974D03*
X002680Y001002D03*
X002680Y001016D03*
X002680Y001023D03*
X002680Y001052D03*
X002680Y001066D03*
X002680Y001073D03*
X002680Y001101D03*
X002680Y001115D03*
X002680Y001130D03*
X002680Y001151D03*
X002680Y001165D03*
X002680Y001179D03*
X002680Y001200D03*
X002680Y001214D03*
X002680Y001264D03*
X002680Y001278D03*
X002680Y001292D03*
X002680Y001314D03*
X002680Y001328D03*
X002680Y001342D03*
X002822Y001073D03*
X002822Y001066D03*
X002822Y001052D03*
X002822Y001023D03*
X002822Y001016D03*
X002822Y001002D03*
X002829Y000960D03*
X003091Y000960D03*
X003091Y000974D03*
X003091Y001073D03*
X003296Y001200D03*
X003417Y001073D03*
X003417Y001066D03*
X003417Y001052D03*
X003417Y001023D03*
X003417Y001016D03*
X003417Y001002D03*
X003417Y000974D03*
X003417Y000960D03*
X003417Y000953D03*
X003417Y000924D03*
X003417Y000910D03*
X003417Y000896D03*
X003417Y000875D03*
X003417Y000860D03*
X003417Y000846D03*
X003565Y000953D03*
X003565Y000960D03*
X003565Y000974D03*
X003565Y001002D03*
X003565Y001101D03*
X003565Y001115D03*
X003573Y001130D03*
X003792Y001130D03*
X003941Y001073D03*
X003806Y000960D03*
X003806Y000924D03*
X004196Y000953D03*
X004196Y000960D03*
X004196Y001101D03*
X004316Y001151D03*
X004316Y001165D03*
X004309Y001179D03*
X004302Y001214D03*
X004295Y001243D03*
X004288Y001264D03*
X004281Y001292D03*
X004274Y001314D03*
X004266Y001342D03*
X004323Y001130D03*
X004330Y001115D03*
X004330Y001101D03*
X004337Y001073D03*
X004344Y001052D03*
X004351Y001023D03*
X004458Y001023D03*
X004465Y001052D03*
X004727Y001016D03*
X004741Y001066D03*
X004755Y001115D03*
X004769Y001165D03*
X005102Y001073D03*
X005102Y001066D03*
X005102Y001052D03*
X005102Y001023D03*
X005102Y001016D03*
X005102Y001002D03*
X005102Y000974D03*
X005102Y000960D03*
X005102Y000953D03*
X005102Y000924D03*
X005102Y000910D03*
X005102Y000896D03*
X005102Y000875D03*
X005102Y000860D03*
X005102Y000846D03*
X005350Y001073D03*
X005499Y001073D03*
X005499Y001066D03*
X005499Y001052D03*
X005499Y001023D03*
X005499Y001016D03*
X005499Y001002D03*
X005499Y000974D03*
X005499Y000960D03*
X005499Y000953D03*
X005499Y000924D03*
X005499Y000910D03*
X005499Y000896D03*
X005499Y000875D03*
X005499Y000860D03*
X005499Y000846D03*
X005647Y000846D03*
X005647Y000860D03*
X005647Y000875D03*
X005647Y000896D03*
X005647Y000910D03*
X005647Y000924D03*
X005647Y000953D03*
X005647Y000960D03*
X005647Y000974D03*
X005647Y001002D03*
X005647Y001016D03*
X005647Y001023D03*
X005647Y001052D03*
X005647Y001066D03*
X005647Y001073D03*
X005647Y001101D03*
X005647Y001115D03*
X005647Y001130D03*
X005647Y001151D03*
X005647Y001165D03*
X005647Y001179D03*
X005499Y001179D03*
X005499Y001165D03*
X005499Y001151D03*
X005499Y001130D03*
X005499Y001115D03*
X005499Y001101D03*
X005499Y001200D03*
X005499Y001214D03*
X005499Y001264D03*
X005499Y001278D03*
X005499Y001292D03*
X005499Y001314D03*
X005499Y001328D03*
X005499Y001342D03*
X006051Y001179D03*
X006051Y001165D03*
X006051Y001151D03*
X006051Y001130D03*
X006051Y001115D03*
X006051Y001101D03*
X006051Y001073D03*
X006051Y001066D03*
X006051Y001052D03*
X006051Y001023D03*
X006051Y001016D03*
X006051Y001002D03*
X006051Y000974D03*
X006051Y000960D03*
X006051Y000953D03*
X006051Y000924D03*
X006051Y000910D03*
X006051Y000896D03*
X006051Y000875D03*
X006051Y000860D03*
X006051Y000846D03*
D30*
X005849Y000846D03*
X005346Y001101D03*
X005106Y001101D03*
X005106Y001115D03*
X004780Y001200D03*
X004780Y001214D03*
X004787Y001229D03*
X004801Y001278D03*
X004808Y001314D03*
X004815Y001342D03*
X004773Y001179D03*
X004766Y001151D03*
X004759Y001130D03*
X004751Y001101D03*
X004737Y001052D03*
X004730Y001023D03*
X004681Y000846D03*
X004305Y001200D03*
X004291Y001250D03*
X004284Y001278D03*
X004270Y001328D03*
X004178Y001130D03*
X004185Y001115D03*
X004178Y000924D03*
X003951Y000924D03*
X003803Y000910D03*
X003236Y000910D03*
X003236Y000896D03*
X003236Y000875D03*
X003236Y000860D03*
X003236Y000846D03*
X003236Y000924D03*
X003087Y000953D03*
X003087Y001101D03*
X002840Y001115D03*
X002833Y001101D03*
X002833Y000953D03*
D31*
X003095Y001002D03*
X003095Y001016D03*
X003095Y001023D03*
X003095Y001052D03*
X003095Y001066D03*
X003095Y001165D03*
X003095Y001179D03*
X003095Y001200D03*
X003095Y001214D03*
X003095Y001229D03*
X003095Y001243D03*
X003095Y001250D03*
X003095Y001264D03*
X003095Y001278D03*
X003095Y001292D03*
X003095Y001314D03*
X003095Y001328D03*
X003095Y001342D03*
X003420Y001214D03*
X003420Y001200D03*
X003420Y001179D03*
X003796Y001115D03*
X003803Y000974D03*
X003937Y001066D03*
X003944Y001101D03*
X003951Y001115D03*
X004199Y000974D03*
X004355Y001016D03*
X004341Y001066D03*
X004454Y001016D03*
X004468Y001066D03*
X004468Y001073D03*
X004475Y001101D03*
X004482Y001115D03*
X004482Y001130D03*
X004490Y001151D03*
X004490Y001165D03*
X004603Y001130D03*
X004603Y001115D03*
X004610Y001101D03*
X004617Y001066D03*
X004957Y001066D03*
X004957Y001073D03*
X004957Y001052D03*
X004957Y001023D03*
X004957Y001016D03*
X004957Y001002D03*
X004957Y000974D03*
X004957Y000960D03*
X004957Y000953D03*
X004957Y000924D03*
X004957Y000910D03*
X004957Y000896D03*
X004957Y000875D03*
X004957Y000860D03*
X004957Y000846D03*
X004957Y001101D03*
X004957Y001115D03*
X004957Y001130D03*
X004957Y001151D03*
X004957Y001165D03*
X004957Y001179D03*
X004957Y001200D03*
X004957Y001214D03*
X004957Y001264D03*
X004957Y001278D03*
X004957Y001292D03*
X004957Y001314D03*
X004957Y001328D03*
X004957Y001342D03*
X005353Y001214D03*
X005353Y001200D03*
X005353Y001179D03*
X005353Y001165D03*
X005353Y001066D03*
X005353Y001052D03*
X005353Y001023D03*
X005353Y001016D03*
X005353Y001002D03*
X005353Y000974D03*
X005353Y000960D03*
X005353Y000953D03*
X005353Y000924D03*
X005353Y000910D03*
X005353Y000896D03*
X005353Y000875D03*
X005353Y000860D03*
X005353Y000846D03*
X005764Y001115D03*
X005750Y001165D03*
X005934Y001130D03*
X005934Y001115D03*
X005941Y001151D03*
X005948Y001165D03*
X005948Y001179D03*
X005920Y001073D03*
X005920Y001066D03*
X005906Y001016D03*
X003095Y000875D03*
X003095Y000860D03*
X003095Y000846D03*
D32*
X003084Y001115D03*
X003573Y001073D03*
X004408Y000860D03*
X004408Y000846D03*
X004677Y000860D03*
X005116Y001130D03*
X005343Y001115D03*
X004805Y001292D03*
X004812Y001328D03*
X002517Y000924D03*
X002489Y000960D03*
X002362Y001101D03*
D33*
X002932Y000860D03*
X003718Y001023D03*
X004065Y000846D03*
X004405Y001002D03*
X004681Y001002D03*
X005693Y001200D03*
X006005Y001200D03*
X006005Y001214D03*
D34*
X006012Y001264D03*
X006012Y001278D03*
X005849Y000960D03*
X005849Y000953D03*
X004681Y000974D03*
X003732Y000846D03*
D35*
X003810Y000953D03*
X003562Y001016D03*
X003562Y001023D03*
X003562Y000860D03*
X003562Y000846D03*
X002925Y001214D03*
X004596Y001165D03*
X004596Y001151D03*
X005927Y001101D03*
D36*
X005849Y000924D03*
X005849Y000910D03*
X004681Y000924D03*
X004405Y000924D03*
X003066Y000910D03*
X002932Y000846D03*
X002925Y001200D03*
D37*
X002974Y000896D03*
X002429Y000896D03*
X002429Y000875D03*
X002429Y000860D03*
X002429Y000846D03*
X005233Y001151D03*
D38*
X005849Y000853D03*
X003973Y001144D03*
X003583Y001144D03*
X002500Y000945D03*
X002457Y000995D03*
X002365Y001094D03*
X002344Y001122D03*
D39*
X004068Y000853D03*
D40*
X003732Y000853D03*
X004405Y000995D03*
X004539Y001172D03*
X005693Y001193D03*
X006005Y001222D03*
D41*
X005927Y001094D03*
X005778Y001448D03*
X004596Y001144D03*
X003810Y000945D03*
X003810Y000931D03*
X003562Y000853D03*
D42*
X002932Y000853D03*
X002925Y001193D03*
X004405Y000981D03*
X005183Y001193D03*
D43*
X004681Y000875D03*
X003576Y000924D03*
X002847Y000924D03*
X002847Y001130D03*
X002493Y000953D03*
X002450Y001002D03*
X002408Y001052D03*
X002394Y001066D03*
X002351Y001115D03*
X005849Y000860D03*
D44*
X004065Y000860D03*
X002925Y001165D03*
D45*
X003732Y000860D03*
D46*
X003806Y000917D03*
X003806Y000967D03*
X003948Y001108D03*
X004189Y001108D03*
X004316Y001158D03*
X004302Y001207D03*
X004295Y001236D03*
X004288Y001257D03*
X004281Y001285D03*
X004330Y001108D03*
X004344Y001059D03*
X004196Y000967D03*
X004741Y001059D03*
X004755Y001108D03*
X005102Y001059D03*
X005102Y001009D03*
X005102Y000967D03*
X005102Y000917D03*
X005102Y000868D03*
X005499Y000868D03*
X005499Y000917D03*
X005499Y000967D03*
X005499Y001009D03*
X005499Y001059D03*
X005499Y001108D03*
X005499Y001158D03*
X005499Y001207D03*
X005499Y001285D03*
X005499Y001335D03*
X005647Y001158D03*
X005647Y001108D03*
X005647Y001059D03*
X005647Y001009D03*
X005647Y000967D03*
X005647Y000917D03*
X005647Y000868D03*
X006051Y000868D03*
X006051Y000917D03*
X006051Y000967D03*
X006051Y001009D03*
X006051Y001059D03*
X006051Y001108D03*
X006051Y001158D03*
X003565Y001108D03*
X003417Y001059D03*
X003417Y001009D03*
X003417Y000967D03*
X003417Y000917D03*
X003417Y000868D03*
X003565Y000967D03*
X003091Y000967D03*
X002829Y000967D03*
X002822Y001009D03*
X002822Y001059D03*
X002680Y001059D03*
X002680Y001108D03*
X002680Y001158D03*
X002680Y001207D03*
X002680Y001285D03*
X002680Y001335D03*
X002680Y001009D03*
X002680Y000967D03*
X002680Y000917D03*
X002680Y000868D03*
D47*
X002854Y000917D03*
X002443Y001009D03*
X002401Y001059D03*
X005849Y000868D03*
D48*
X005906Y001009D03*
X005920Y001059D03*
X005934Y001108D03*
X005941Y001158D03*
X005764Y001108D03*
X005353Y001059D03*
X005353Y001009D03*
X005353Y000967D03*
X005353Y000917D03*
X005353Y000868D03*
X005353Y001158D03*
X005353Y001207D03*
X004957Y001207D03*
X004957Y001158D03*
X004957Y001108D03*
X004957Y001059D03*
X004957Y001009D03*
X004957Y000967D03*
X004957Y000917D03*
X004957Y000868D03*
X004617Y001059D03*
X004468Y001059D03*
X004475Y001108D03*
X004490Y001158D03*
X004957Y001285D03*
X004957Y001335D03*
X005644Y001526D03*
X005913Y001526D03*
X006047Y001526D03*
X003796Y001108D03*
X003420Y001207D03*
X003293Y001207D03*
X003095Y001207D03*
X003095Y001236D03*
X003095Y001257D03*
X003095Y001285D03*
X003095Y001335D03*
X003095Y001059D03*
X003095Y001009D03*
X003095Y000868D03*
D49*
X003084Y001108D03*
X002355Y001108D03*
X004174Y000917D03*
X004677Y000868D03*
D50*
X004405Y000868D03*
X003406Y001108D03*
D51*
X004068Y000868D03*
D52*
X003732Y000868D03*
D53*
X003562Y000868D03*
X003562Y001009D03*
X004596Y001158D03*
X005778Y001059D03*
X005778Y001526D03*
D54*
X005346Y001108D03*
X005106Y001108D03*
X004780Y001207D03*
X004787Y001236D03*
X004801Y001285D03*
X004815Y001335D03*
X004766Y001158D03*
X004270Y001335D03*
X003236Y000917D03*
X003236Y000868D03*
X002833Y001108D03*
D55*
X002928Y000868D03*
D56*
X002974Y001158D03*
X002429Y000868D03*
D57*
X003583Y001066D03*
X005849Y000896D03*
X005849Y000875D03*
D58*
X005336Y001130D03*
X004543Y001314D03*
X004408Y000875D03*
X003771Y001002D03*
X003077Y000924D03*
X003077Y001130D03*
D59*
X003679Y001179D03*
X004068Y000875D03*
D60*
X003679Y000875D03*
D61*
X002928Y000875D03*
D62*
X005849Y000882D03*
D63*
X004677Y000882D03*
D64*
X004408Y000882D03*
X004543Y001299D03*
X004543Y001321D03*
D65*
X004068Y000882D03*
X003679Y001172D03*
D66*
X003682Y000882D03*
D67*
X004068Y001193D03*
X002928Y000882D03*
D68*
X005849Y000889D03*
D69*
X004677Y000889D03*
X002857Y001137D03*
D70*
X004065Y000889D03*
D71*
X003682Y000889D03*
D72*
X003399Y001115D03*
X002861Y000910D03*
X004405Y000896D03*
X004681Y000896D03*
D73*
X004068Y000896D03*
D74*
X003686Y000896D03*
D75*
X003392Y001122D03*
X004681Y000931D03*
X005672Y001349D03*
X005849Y000903D03*
D76*
X004681Y000903D03*
D77*
X004408Y000903D03*
X004543Y001271D03*
D78*
X004068Y000903D03*
D79*
X004408Y000931D03*
X003594Y000903D03*
X005676Y001321D03*
X006023Y001349D03*
D80*
X005229Y001144D03*
X002971Y000903D03*
D81*
X003679Y001214D03*
X004408Y000910D03*
X004677Y000910D03*
X004543Y001278D03*
X004543Y001292D03*
D82*
X004546Y001328D03*
X004164Y000910D03*
X003966Y000910D03*
X003307Y001179D03*
X002436Y001016D03*
X002429Y001023D03*
X002386Y001073D03*
X002337Y001130D03*
D83*
X003587Y000910D03*
D84*
X002425Y000910D03*
D85*
X004405Y000917D03*
X005849Y000917D03*
D86*
X004677Y000917D03*
X004543Y001285D03*
D87*
X004794Y001257D03*
X003958Y000917D03*
D88*
X003580Y000917D03*
D89*
X003073Y000917D03*
X002925Y001207D03*
X005183Y001207D03*
D90*
X004543Y001335D03*
X002525Y000917D03*
X002482Y000967D03*
D91*
X005849Y000945D03*
X005849Y000931D03*
D92*
X005849Y000938D03*
D93*
X004677Y000938D03*
X004408Y000938D03*
D94*
X004174Y001137D03*
X003303Y001186D03*
X003084Y000938D03*
X002461Y000988D03*
X002418Y001037D03*
D95*
X002507Y000938D03*
X005120Y001137D03*
D96*
X004681Y000945D03*
X004405Y000945D03*
X005679Y001299D03*
X006019Y001321D03*
D97*
X006019Y001328D03*
X006019Y001314D03*
X005679Y001314D03*
X005679Y001292D03*
X005183Y001200D03*
X004681Y000960D03*
X004681Y000953D03*
X004405Y000953D03*
X004405Y000960D03*
D98*
X004606Y001108D03*
X005753Y001158D03*
X005789Y001009D03*
X005803Y000967D03*
X005895Y000967D03*
D99*
X004677Y000967D03*
D100*
X004405Y000967D03*
X003604Y001059D03*
X005686Y001236D03*
X005686Y001257D03*
D101*
X005746Y001179D03*
X005753Y001151D03*
X005761Y001130D03*
X005768Y001101D03*
X005789Y001023D03*
X005789Y001016D03*
X005796Y001002D03*
X005895Y000974D03*
X005902Y001002D03*
X005909Y001023D03*
X005916Y001052D03*
X005909Y001441D03*
X006044Y001441D03*
X005640Y001441D03*
X004613Y001073D03*
X004621Y001052D03*
X004628Y001023D03*
X004628Y001016D03*
X003799Y001101D03*
D102*
X003286Y001214D03*
X005644Y001533D03*
X005644Y001540D03*
X005913Y001540D03*
X005913Y001533D03*
X006047Y001533D03*
X006047Y001540D03*
X005799Y000974D03*
D103*
X005686Y001243D03*
X005686Y001250D03*
X004539Y001200D03*
X004405Y000974D03*
D104*
X004298Y001229D03*
X003958Y001130D03*
X004744Y001073D03*
X004794Y001250D03*
X004794Y001264D03*
X005183Y001214D03*
X002825Y000974D03*
D105*
X002475Y000974D03*
X003410Y001101D03*
X004543Y001342D03*
X004790Y001243D03*
D106*
X004613Y001080D03*
X004621Y001045D03*
X005761Y001122D03*
X005768Y001094D03*
X005796Y000995D03*
X005796Y000981D03*
X005902Y000995D03*
D107*
X006012Y001271D03*
X004681Y000981D03*
D108*
X004621Y001037D03*
X005796Y000988D03*
D109*
X004681Y000988D03*
D110*
X004405Y000988D03*
D111*
X004203Y000988D03*
D112*
X004684Y000995D03*
X005690Y001222D03*
D113*
X004203Y000995D03*
D114*
X004068Y001002D03*
X004068Y001016D03*
X004068Y001023D03*
D115*
X004405Y001009D03*
X004681Y001009D03*
X006005Y001207D03*
D116*
X004068Y001009D03*
D117*
X003753Y001009D03*
X006019Y001335D03*
D118*
X006008Y001250D03*
X006008Y001243D03*
X006008Y001229D03*
X005690Y001229D03*
X005690Y001214D03*
X003735Y001016D03*
D119*
X004068Y001030D03*
D120*
X003661Y001030D03*
D121*
X003410Y001094D03*
X002425Y001030D03*
X004543Y001349D03*
X004798Y001271D03*
D122*
X004599Y001137D03*
X005782Y001037D03*
D123*
X004068Y001037D03*
D124*
X003654Y001037D03*
D125*
X004072Y001045D03*
D126*
X003643Y001045D03*
D127*
X005775Y001066D03*
X005775Y001073D03*
X005782Y001052D03*
X005775Y001441D03*
D128*
X004072Y001052D03*
D129*
X003626Y001052D03*
D130*
X004072Y001059D03*
D131*
X004203Y001066D03*
X004203Y001073D03*
D132*
X004298Y001222D03*
X004744Y001080D03*
X003413Y001080D03*
X002825Y001080D03*
D133*
X003413Y001087D03*
D134*
X002372Y001087D03*
D135*
X003357Y001130D03*
X003357Y001151D03*
X003357Y001165D03*
D136*
X003070Y001137D03*
X005329Y001137D03*
D137*
X003357Y001137D03*
D138*
X002425Y001137D03*
X002425Y001186D03*
D139*
X002925Y001172D03*
X003357Y001144D03*
X005183Y001172D03*
D140*
X002967Y001144D03*
D141*
X002425Y001144D03*
X002425Y001172D03*
X002425Y001193D03*
D142*
X003682Y001151D03*
X004072Y001151D03*
D143*
X002971Y001151D03*
D144*
X002425Y001151D03*
X002425Y001165D03*
X002425Y001179D03*
X002425Y001200D03*
X002425Y001214D03*
D145*
X005183Y001158D03*
D146*
X004068Y001158D03*
X003679Y001158D03*
D147*
X003357Y001158D03*
D148*
X002425Y001158D03*
X002425Y001207D03*
D149*
X005187Y001165D03*
D150*
X004068Y001165D03*
D151*
X003682Y001165D03*
D152*
X004068Y001172D03*
D153*
X002925Y001179D03*
X005183Y001179D03*
D154*
X004543Y001179D03*
D155*
X004068Y001179D03*
D156*
X006001Y001186D03*
D157*
X005693Y001186D03*
X005183Y001186D03*
D158*
X004543Y001186D03*
D159*
X004068Y001186D03*
D160*
X003679Y001186D03*
D161*
X002925Y001186D03*
D162*
X006001Y001193D03*
D163*
X004543Y001193D03*
D164*
X003682Y001193D03*
D165*
X003679Y001200D03*
X004068Y001200D03*
D166*
X004068Y001207D03*
X003679Y001207D03*
X005690Y001207D03*
X006008Y001236D03*
D167*
X006015Y001285D03*
X005683Y001285D03*
X004543Y001207D03*
D168*
X004543Y001214D03*
X004543Y001229D03*
X005683Y001264D03*
X005683Y001278D03*
X006015Y001292D03*
D169*
X006023Y001342D03*
X005676Y001342D03*
X005676Y001328D03*
X004543Y001264D03*
X004543Y001250D03*
X004543Y001243D03*
X004068Y001214D03*
D170*
X005183Y001222D03*
D171*
X005683Y001271D03*
X006015Y001299D03*
X004543Y001222D03*
D172*
X003679Y001222D03*
X005598Y001498D03*
X005640Y001561D03*
X005676Y001512D03*
X005683Y001498D03*
X005676Y001462D03*
X005640Y001413D03*
X005732Y001498D03*
X005739Y001512D03*
X005775Y001561D03*
X005810Y001512D03*
X005817Y001498D03*
X005810Y001462D03*
X005775Y001413D03*
X005867Y001498D03*
X005874Y001512D03*
X005909Y001561D03*
X005945Y001512D03*
X005945Y001462D03*
X005909Y001413D03*
X006044Y001413D03*
X006079Y001462D03*
X006079Y001512D03*
X006044Y001561D03*
X006008Y001512D03*
D173*
X005913Y001547D03*
X005778Y001547D03*
X005644Y001547D03*
X003279Y001222D03*
D174*
X002928Y001222D03*
D175*
X004065Y001229D03*
X005644Y001569D03*
X005778Y001569D03*
X005913Y001569D03*
D176*
X005676Y001335D03*
X004543Y001257D03*
X004543Y001236D03*
D177*
X006012Y001257D03*
D178*
X006015Y001307D03*
D179*
X006044Y001406D03*
X005909Y001406D03*
D180*
X005775Y001406D03*
X005640Y001406D03*
D181*
X005640Y001427D03*
X005775Y001427D03*
X005909Y001427D03*
X006044Y001427D03*
D182*
X006044Y001434D03*
X005909Y001434D03*
X005775Y001434D03*
X005640Y001434D03*
D183*
X005612Y001455D03*
X005668Y001455D03*
X005683Y001505D03*
X005640Y001554D03*
X005775Y001554D03*
X005817Y001505D03*
X005881Y001455D03*
X005938Y001455D03*
X006015Y001455D03*
X006072Y001455D03*
X006086Y001505D03*
X006044Y001554D03*
X005909Y001554D03*
X005746Y001455D03*
D184*
X005803Y001455D03*
X005952Y001505D03*
D185*
X006012Y001462D03*
X006090Y001498D03*
X005877Y001462D03*
X005743Y001462D03*
X005608Y001462D03*
D186*
X005601Y001469D03*
X005672Y001519D03*
X005736Y001469D03*
X005807Y001519D03*
X005870Y001469D03*
X005941Y001519D03*
X006005Y001469D03*
X006076Y001519D03*
D187*
X006001Y001476D03*
X005952Y001476D03*
X005952Y001469D03*
D188*
X005952Y001498D03*
X006001Y001498D03*
X005605Y001512D03*
D189*
X005601Y001505D03*
X006005Y001505D03*
D190*
X005870Y001505D03*
X005736Y001505D03*
D191*
X005778Y001533D03*
X005778Y001540D03*
D192*
X006047Y001547D03*
D193*
X006421Y001103D02*
X006419Y001073D01*
X006413Y001043D01*
X006403Y001014D01*
X006390Y000987D01*
X006373Y000962D01*
X006353Y000940D01*
X006331Y000920D01*
X006305Y000903D01*
X006278Y000890D01*
X006250Y000880D01*
X006220Y000874D01*
X006190Y000872D01*
X006420Y001103D02*
X006422Y002623D01*
X006420Y002651D01*
X006415Y002678D01*
X006406Y002705D01*
X006393Y002730D01*
X006378Y002753D01*
X006359Y002774D01*
X006338Y002793D01*
X006315Y002808D01*
X006290Y002821D01*
X006263Y002830D01*
X006236Y002835D01*
X006208Y002837D01*
X002045Y002837D01*
X002013Y002835D01*
X001981Y002830D01*
X001950Y002822D01*
X001920Y002810D01*
X001891Y002796D01*
X001864Y002778D01*
X001839Y002758D01*
X001816Y002735D01*
X001796Y002710D01*
X001778Y002683D01*
X001764Y002654D01*
X001752Y002624D01*
X001744Y002593D01*
X001739Y002561D01*
X001737Y002529D01*
X001742Y001178D01*
X001744Y001143D01*
X001750Y001109D01*
X001759Y001075D01*
X001771Y001042D01*
X001787Y001011D01*
X001806Y000982D01*
X001828Y000955D01*
X001853Y000930D01*
X001880Y000909D01*
X001909Y000890D01*
X001940Y000874D01*
X001973Y000861D01*
X002007Y000852D01*
X002041Y000847D01*
X002076Y000845D01*
X002072Y000882D01*
X002071Y000920D01*
X002074Y000957D01*
X002081Y000994D01*
X002091Y001030D01*
X002105Y001064D01*
X002122Y001098D01*
X002142Y001129D01*
X002165Y001158D01*
X002191Y001185D01*
X002219Y001210D01*
X002250Y001231D01*
X002283Y001249D01*
X002317Y001264D01*
X002352Y001276D01*
X002389Y001284D01*
X002009Y001983D02*
X001457Y001983D01*
X001457Y003242D01*
X002009Y003242D01*
X002009Y001983D01*
X002005Y003435D02*
X002005Y003987D01*
X003265Y003987D01*
X003265Y003435D01*
X002005Y003435D01*
X002072Y004404D02*
X002072Y004955D01*
X003331Y004955D01*
X003331Y004404D01*
X002072Y004404D01*
X002036Y005274D02*
X003296Y005274D01*
X003296Y005825D01*
X002036Y005825D01*
X002036Y005274D01*
X002052Y005955D02*
X002052Y006506D01*
X003312Y006506D01*
X003312Y005955D01*
X002052Y005955D01*
X003505Y006510D02*
X003505Y005250D01*
X004056Y005250D01*
X004056Y006510D01*
X003505Y006510D01*
X004221Y006498D02*
X004221Y005238D01*
X004772Y005238D01*
X004772Y006498D01*
X004221Y006498D01*
X005292Y005238D02*
X005292Y004687D01*
X006552Y004687D01*
X006552Y005238D01*
X005292Y005238D01*
X005292Y004487D02*
X005292Y003935D01*
X006552Y003935D01*
X006552Y004487D01*
X005292Y004487D01*
X005865Y001268D02*
X005903Y001263D01*
X005940Y001253D01*
X005975Y001240D01*
X006009Y001223D01*
X006041Y001202D01*
X006070Y001179D01*
X006097Y001152D01*
X006121Y001123D01*
X006142Y001091D01*
X006160Y001057D01*
X006174Y001022D01*
X006184Y000986D01*
X006190Y000948D01*
X006192Y000910D01*
X006190Y000873D01*
D194*
X005196Y004132D02*
X005196Y004392D01*
X005066Y004392D01*
X005023Y004349D01*
X005023Y004262D01*
X005066Y004219D01*
X005196Y004219D01*
X005109Y004219D02*
X005023Y004132D01*
X004901Y004132D02*
X004728Y004132D01*
X004815Y004132D02*
X004815Y004392D01*
X004901Y004305D01*
X004897Y004943D02*
X004724Y004943D01*
X004724Y005116D02*
X004724Y005160D01*
X004767Y005203D01*
X004854Y005203D01*
X004897Y005160D01*
X005019Y005160D02*
X005019Y005073D01*
X005062Y005030D01*
X005192Y005030D01*
X005105Y005030D02*
X005019Y004943D01*
X004897Y004943D02*
X004724Y005116D01*
X005019Y005160D02*
X005062Y005203D01*
X005192Y005203D01*
X005192Y004943D01*
X005208Y005829D02*
X005164Y005872D01*
X005208Y005829D02*
X005294Y005829D01*
X005338Y005872D01*
X005338Y006046D01*
X005294Y006089D01*
X005208Y006089D01*
X005164Y006046D01*
X005043Y005959D02*
X005043Y005872D01*
X005000Y005829D01*
X004913Y005829D01*
X004870Y005872D01*
X004870Y005915D01*
X004913Y005959D01*
X005043Y005959D01*
X004956Y006046D01*
X004870Y006089D01*
X003964Y005191D02*
X003877Y005191D01*
X003834Y005148D01*
X003964Y005191D02*
X004007Y005148D01*
X004007Y004974D01*
X003964Y004931D01*
X003877Y004931D01*
X003834Y004974D01*
X003712Y005061D02*
X003539Y005061D01*
X003582Y004931D02*
X003582Y005191D01*
X003712Y005061D01*
X003784Y004499D02*
X003740Y004455D01*
X003740Y004369D01*
X003784Y004325D01*
X003914Y004325D01*
X003914Y004239D02*
X003914Y004499D01*
X003784Y004499D01*
X003619Y004455D02*
X003576Y004499D01*
X003489Y004499D01*
X003446Y004455D01*
X003446Y004412D01*
X003489Y004369D01*
X003446Y004325D01*
X003446Y004282D01*
X003489Y004239D01*
X003576Y004239D01*
X003619Y004282D01*
X003532Y004369D02*
X003489Y004369D01*
X003740Y004239D02*
X003827Y004325D01*
X001949Y004015D02*
X001949Y003841D01*
X001906Y003798D01*
X001819Y003798D01*
X001776Y003841D01*
X001654Y003798D02*
X001481Y003971D01*
X001481Y004015D01*
X001524Y004058D01*
X001611Y004058D01*
X001654Y004015D01*
X001776Y004015D02*
X001819Y004058D01*
X001906Y004058D01*
X001949Y004015D01*
X001654Y003798D02*
X001481Y003798D01*
X001493Y003597D02*
X001449Y003554D01*
X001449Y003511D01*
X001493Y003467D01*
X001449Y003424D01*
X001449Y003380D01*
X001493Y003337D01*
X001580Y003337D01*
X001623Y003380D01*
X001744Y003380D02*
X001787Y003337D01*
X001874Y003337D01*
X001918Y003380D01*
X001918Y003554D01*
X001874Y003597D01*
X001787Y003597D01*
X001744Y003554D01*
X001623Y003554D02*
X001580Y003597D01*
X001493Y003597D01*
X001493Y003467D02*
X001536Y003467D01*
X001527Y005494D02*
X001484Y005537D01*
X001484Y005624D01*
X001527Y005668D01*
X001570Y005668D01*
X001657Y005624D01*
X001657Y005754D01*
X001484Y005754D01*
X001527Y005494D02*
X001614Y005494D01*
X001657Y005537D01*
X001778Y005537D02*
X001822Y005494D01*
X001909Y005494D01*
X001952Y005537D01*
X001952Y005711D01*
X001909Y005754D01*
X001822Y005754D01*
X001778Y005711D01*
X001835Y006081D02*
X001791Y006125D01*
X001835Y006081D02*
X001921Y006081D01*
X001965Y006125D01*
X001965Y006298D01*
X001921Y006341D01*
X001835Y006341D01*
X001791Y006298D01*
X001670Y006255D02*
X001583Y006341D01*
X001583Y006081D01*
X001497Y006081D02*
X001670Y006081D01*
M02*
