G75*
%MOIN*%
%OFA0B0*%
%FSLAX24Y24*%
%IPPOS*%
%LPD*%
%AMOC8*
5,1,8,0,0,1.08239X$1,22.5*
%
%ADD10C,0.0040*%
%ADD11C,0.0080*%
%ADD12R,0.0042X0.0007*%
%ADD13R,0.0035X0.0007*%
%ADD14R,0.0028X0.0007*%
%ADD15R,0.0099X0.0007*%
%ADD16R,0.0106X0.0007*%
%ADD17R,0.0092X0.0007*%
%ADD18R,0.0120X0.0007*%
%ADD19R,0.0113X0.0007*%
%ADD20R,0.0085X0.0007*%
%ADD21R,0.0333X0.0007*%
%ADD22R,0.0099X0.0007*%
%ADD23R,0.0106X0.0007*%
%ADD24R,0.0092X0.0007*%
%ADD25R,0.0163X0.0007*%
%ADD26R,0.0149X0.0007*%
%ADD27R,0.0092X0.0007*%
%ADD28R,0.0127X0.0007*%
%ADD29R,0.0333X0.0007*%
%ADD30R,0.0099X0.0007*%
%ADD31R,0.0106X0.0007*%
%ADD32R,0.0092X0.0007*%
%ADD33R,0.0113X0.0007*%
%ADD34R,0.0191X0.0007*%
%ADD35R,0.0177X0.0007*%
%ADD36R,0.0092X0.0007*%
%ADD37R,0.0149X0.0007*%
%ADD38R,0.0333X0.0007*%
%ADD39R,0.0120X0.0007*%
%ADD40R,0.0212X0.0007*%
%ADD41R,0.0191X0.0007*%
%ADD42R,0.0092X0.0007*%
%ADD43R,0.0177X0.0007*%
%ADD44R,0.0120X0.0007*%
%ADD45R,0.0234X0.0007*%
%ADD46R,0.0205X0.0007*%
%ADD47R,0.0099X0.0007*%
%ADD48R,0.0120X0.0007*%
%ADD49R,0.0092X0.0007*%
%ADD50R,0.0113X0.0007*%
%ADD51R,0.0120X0.0007*%
%ADD52R,0.0255X0.0007*%
%ADD53R,0.0220X0.0007*%
%ADD54R,0.0092X0.0007*%
%ADD55R,0.0106X0.0007*%
%ADD56R,0.0198X0.0007*%
%ADD57R,0.0333X0.0007*%
%ADD58R,0.0135X0.0007*%
%ADD59R,0.0127X0.0007*%
%ADD60R,0.0269X0.0007*%
%ADD61R,0.0326X0.0007*%
%ADD62R,0.0212X0.0007*%
%ADD63R,0.0135X0.0007*%
%ADD64R,0.0127X0.0007*%
%ADD65R,0.0127X0.0007*%
%ADD66R,0.0283X0.0007*%
%ADD67R,0.0333X0.0007*%
%ADD68R,0.0227X0.0007*%
%ADD69R,0.0135X0.0007*%
%ADD70R,0.0127X0.0007*%
%ADD71R,0.0290X0.0007*%
%ADD72R,0.0333X0.0007*%
%ADD73R,0.0135X0.0007*%
%ADD74R,0.0297X0.0007*%
%ADD75R,0.0340X0.0007*%
%ADD76R,0.0149X0.0007*%
%ADD77R,0.0135X0.0007*%
%ADD78R,0.0142X0.0007*%
%ADD79R,0.0312X0.0007*%
%ADD80R,0.0156X0.0007*%
%ADD81R,0.0340X0.0007*%
%ADD82R,0.0142X0.0007*%
%ADD83R,0.0120X0.0007*%
%ADD84R,0.0142X0.0007*%
%ADD85R,0.0326X0.0007*%
%ADD86R,0.0149X0.0007*%
%ADD87R,0.0142X0.0007*%
%ADD88R,0.0106X0.0007*%
%ADD89R,0.0127X0.0007*%
%ADD90R,0.0135X0.0007*%
%ADD91R,0.0113X0.0007*%
%ADD92R,0.0163X0.0007*%
%ADD93R,0.0163X0.0007*%
%ADD94R,0.0156X0.0007*%
%ADD95R,0.0113X0.0007*%
%ADD96R,0.0120X0.0007*%
%ADD97R,0.0163X0.0007*%
%ADD98R,0.0163X0.0007*%
%ADD99R,0.0085X0.0007*%
%ADD100R,0.0170X0.0007*%
%ADD101R,0.0177X0.0007*%
%ADD102R,0.0085X0.0007*%
%ADD103R,0.0078X0.0007*%
%ADD104R,0.0177X0.0007*%
%ADD105R,0.0106X0.0007*%
%ADD106R,0.0113X0.0007*%
%ADD107R,0.0085X0.0007*%
%ADD108R,0.0177X0.0007*%
%ADD109R,0.0085X0.0007*%
%ADD110R,0.0177X0.0007*%
%ADD111R,0.0177X0.0007*%
%ADD112R,0.0099X0.0007*%
%ADD113R,0.0184X0.0007*%
%ADD114R,0.0099X0.0007*%
%ADD115R,0.0368X0.0007*%
%ADD116R,0.0191X0.0007*%
%ADD117R,0.0368X0.0007*%
%ADD118R,0.0163X0.0007*%
%ADD119R,0.0184X0.0007*%
%ADD120R,0.0368X0.0007*%
%ADD121R,0.0290X0.0007*%
%ADD122R,0.0113X0.0007*%
%ADD123R,0.0085X0.0007*%
%ADD124R,0.0368X0.0007*%
%ADD125R,0.0276X0.0007*%
%ADD126R,0.0361X0.0007*%
%ADD127R,0.0255X0.0007*%
%ADD128R,0.0085X0.0007*%
%ADD129R,0.0361X0.0007*%
%ADD130R,0.0220X0.0007*%
%ADD131R,0.0361X0.0007*%
%ADD132R,0.0099X0.0007*%
%ADD133R,0.0106X0.0007*%
%ADD134R,0.0106X0.0007*%
%ADD135R,0.0120X0.0007*%
%ADD136R,0.0219X0.0007*%
%ADD137R,0.0142X0.0007*%
%ADD138R,0.0219X0.0007*%
%ADD139R,0.0312X0.0007*%
%ADD140R,0.0219X0.0007*%
%ADD141R,0.0347X0.0007*%
%ADD142R,0.0312X0.0007*%
%ADD143R,0.0304X0.0007*%
%ADD144R,0.0340X0.0007*%
%ADD145R,0.0312X0.0007*%
%ADD146R,0.0234X0.0007*%
%ADD147R,0.0297X0.0007*%
%ADD148R,0.0219X0.0007*%
%ADD149R,0.0312X0.0007*%
%ADD150R,0.0227X0.0007*%
%ADD151R,0.0283X0.0007*%
%ADD152R,0.0290X0.0007*%
%ADD153R,0.0269X0.0007*%
%ADD154R,0.0205X0.0007*%
%ADD155R,0.0184X0.0007*%
%ADD156R,0.0255X0.0007*%
%ADD157R,0.0198X0.0007*%
%ADD158R,0.0191X0.0007*%
%ADD159R,0.0184X0.0007*%
%ADD160R,0.0241X0.0007*%
%ADD161R,0.0255X0.0007*%
%ADD162R,0.0191X0.0007*%
%ADD163R,0.0198X0.0007*%
%ADD164R,0.0184X0.0007*%
%ADD165R,0.0234X0.0007*%
%ADD166R,0.0212X0.0007*%
%ADD167R,0.0184X0.0007*%
%ADD168R,0.0170X0.0007*%
%ADD169R,0.0170X0.0007*%
%ADD170R,0.0156X0.0007*%
%ADD171R,0.0035X0.0007*%
%ADD172R,0.0170X0.0007*%
%ADD173R,0.0042X0.0007*%
%ADD174R,0.0064X0.0007*%
%ADD175R,0.0028X0.0007*%
%ADD176R,0.0035X0.0007*%
%ADD177R,0.0156X0.0007*%
%ADD178R,0.0177X0.0007*%
%ADD179R,0.0170X0.0007*%
%ADD180R,0.0028X0.0007*%
%ADD181R,0.0028X0.0007*%
%ADD182R,0.0057X0.0007*%
%ADD183R,0.0057X0.0007*%
%ADD184R,0.0042X0.0007*%
%ADD185R,0.0043X0.0007*%
%ADD186R,0.0050X0.0007*%
%ADD187R,0.0050X0.0007*%
%ADD188R,0.0043X0.0007*%
%ADD189R,0.0043X0.0007*%
%ADD190R,0.0035X0.0007*%
%ADD191R,0.0035X0.0007*%
%ADD192R,0.0078X0.0007*%
%ADD193R,0.0064X0.0007*%
%ADD194C,0.0060*%
D10*
X001182Y000865D02*
X001382Y000865D01*
X001382Y000998D01*
X001382Y001086D02*
X001182Y001086D01*
X001182Y001186D01*
X001216Y001219D01*
X001282Y001219D01*
X001316Y001186D01*
X001316Y001086D01*
X001382Y001307D02*
X001182Y001307D01*
X001182Y001440D02*
X001382Y001440D01*
X001316Y001373D01*
X001382Y001307D01*
X000895Y001613D02*
X000895Y001813D01*
X000762Y001813D02*
X000762Y001613D01*
X000829Y001680D01*
X000895Y001613D01*
X000674Y001713D02*
X000674Y001780D01*
X000641Y001813D01*
X000541Y001813D01*
X000541Y001613D01*
X000541Y001680D02*
X000641Y001680D01*
X000674Y001713D01*
X000453Y001613D02*
X000320Y001613D01*
X000320Y001813D01*
X000432Y002597D02*
X000399Y002630D01*
X000432Y002597D02*
X000499Y002597D01*
X000532Y002630D01*
X000532Y002664D01*
X000499Y002697D01*
X000432Y002697D01*
X000399Y002731D01*
X000399Y002764D01*
X000432Y002797D01*
X000499Y002797D01*
X000532Y002764D01*
X000620Y002764D02*
X000620Y002630D01*
X000653Y002597D01*
X000720Y002597D01*
X000753Y002630D01*
X000841Y002597D02*
X000974Y002597D01*
X000841Y002597D02*
X000841Y002797D01*
X000753Y002764D02*
X000720Y002797D01*
X000653Y002797D01*
X000620Y002764D01*
X001182Y002906D02*
X001216Y002873D01*
X001249Y002873D01*
X001282Y002906D01*
X001282Y002973D01*
X001316Y003006D01*
X001349Y003006D01*
X001382Y002973D01*
X001382Y002906D01*
X001349Y002873D01*
X001182Y002906D02*
X001182Y002973D01*
X001216Y003006D01*
X001182Y003094D02*
X001182Y003194D01*
X001216Y003227D01*
X001349Y003227D01*
X001382Y003194D01*
X001382Y003094D01*
X001182Y003094D01*
X001249Y003315D02*
X001182Y003381D01*
X001249Y003448D01*
X001382Y003448D01*
X001282Y003448D02*
X001282Y003315D01*
X001249Y003315D02*
X001382Y003315D01*
X000935Y003621D02*
X000935Y003754D01*
X000868Y003821D01*
X000801Y003754D01*
X000801Y003621D01*
X000714Y003654D02*
X000714Y003788D01*
X000680Y003821D01*
X000580Y003821D01*
X000580Y003621D01*
X000680Y003621D01*
X000714Y003654D01*
X000801Y003721D02*
X000935Y003721D01*
X001182Y003851D02*
X001182Y003918D01*
X001216Y003951D01*
X001182Y003918D01*
X001182Y003851D01*
X001216Y003818D01*
X001349Y003818D01*
X001382Y003851D01*
X001382Y003918D01*
X001349Y003951D01*
X001282Y003951D01*
X001282Y003884D01*
X001282Y003951D01*
X001349Y003951D01*
X001382Y003918D01*
X001382Y003851D01*
X001349Y003818D01*
X001216Y003818D01*
X001182Y003851D01*
X001182Y004039D02*
X001382Y004172D01*
X001182Y004172D01*
X001382Y004172D01*
X001182Y004039D01*
X001382Y004039D01*
X001182Y004039D01*
X001182Y004260D02*
X001182Y004360D01*
X001216Y004393D01*
X001349Y004393D01*
X001382Y004360D01*
X001382Y004260D01*
X001182Y004260D01*
X001182Y004360D01*
X001216Y004393D01*
X001349Y004393D01*
X001382Y004360D01*
X001382Y004260D01*
X001182Y004260D01*
X000862Y004605D02*
X000762Y004605D01*
X000762Y004805D01*
X000862Y004805D01*
X000895Y004772D01*
X000895Y004638D01*
X000862Y004605D01*
X000674Y004605D02*
X000674Y004805D01*
X000541Y004805D02*
X000674Y004605D01*
X000541Y004605D02*
X000541Y004805D01*
X000453Y004772D02*
X000420Y004805D01*
X000353Y004805D01*
X000320Y004772D01*
X000320Y004638D01*
X000353Y004605D01*
X000420Y004605D01*
X000453Y004638D01*
X000453Y004705D01*
X000387Y004705D01*
X001186Y004887D02*
X001319Y004887D01*
X001386Y004954D01*
X001319Y005020D01*
X001186Y005020D01*
X001219Y005108D02*
X001353Y005108D01*
X001386Y005141D01*
X001386Y005208D01*
X001353Y005241D01*
X001353Y005329D02*
X001386Y005362D01*
X001386Y005429D01*
X001353Y005462D01*
X001353Y005329D02*
X001219Y005329D01*
X001186Y005362D01*
X001186Y005429D01*
X001219Y005462D01*
X001219Y005241D02*
X001186Y005208D01*
X001186Y005141D01*
X001219Y005108D01*
X000901Y005589D02*
X000935Y005623D01*
X000901Y005589D02*
X000835Y005589D01*
X000801Y005623D01*
X000801Y005756D01*
X000835Y005789D01*
X000901Y005789D01*
X000935Y005756D01*
X000714Y005756D02*
X000680Y005789D01*
X000614Y005789D01*
X000580Y005756D01*
X000580Y005623D01*
X000614Y005589D01*
X000680Y005589D01*
X000714Y005623D01*
X000493Y005656D02*
X000493Y005789D01*
X000359Y005789D02*
X000359Y005656D01*
X000426Y005589D01*
X000493Y005656D01*
X001170Y005834D02*
X001170Y005934D01*
X001204Y005967D01*
X001237Y005967D01*
X001270Y005934D01*
X001270Y005834D01*
X001370Y005834D02*
X001170Y005834D01*
X001270Y005934D02*
X001304Y005967D01*
X001337Y005967D01*
X001370Y005934D01*
X001370Y005834D01*
X001370Y006055D02*
X001237Y006055D01*
X001170Y006121D01*
X001237Y006188D01*
X001370Y006188D01*
X001270Y006188D02*
X001270Y006055D01*
X001170Y006276D02*
X001170Y006409D01*
X001170Y006342D02*
X001370Y006342D01*
X000907Y006613D02*
X000907Y006813D01*
X000841Y006813D02*
X000974Y006813D01*
X000753Y006746D02*
X000753Y006613D01*
X000753Y006713D02*
X000620Y006713D01*
X000620Y006746D02*
X000620Y006613D01*
X000532Y006646D02*
X000532Y006680D01*
X000499Y006713D01*
X000399Y006713D01*
X000399Y006613D02*
X000399Y006813D01*
X000499Y006813D01*
X000532Y006780D01*
X000532Y006746D01*
X000499Y006713D01*
X000532Y006646D02*
X000499Y006613D01*
X000399Y006613D01*
X000620Y006746D02*
X000686Y006813D01*
X000753Y006746D01*
X001968Y006795D02*
X001968Y006595D01*
X002102Y006595D01*
X002189Y006595D02*
X002323Y006595D01*
X002189Y006595D02*
X002189Y006629D01*
X002323Y006762D01*
X002323Y006795D01*
X002189Y006795D01*
X002102Y006795D02*
X001968Y006795D01*
X001968Y006695D02*
X002035Y006695D01*
X002410Y006695D02*
X002544Y006695D01*
X002631Y006595D02*
X002698Y006595D01*
X002665Y006595D02*
X002665Y006795D01*
X002698Y006795D02*
X002631Y006795D01*
X002779Y006762D02*
X002812Y006795D01*
X002879Y006795D01*
X002912Y006762D01*
X002912Y006729D01*
X002779Y006595D01*
X002912Y006595D01*
X003000Y006629D02*
X003033Y006595D01*
X003100Y006595D01*
X003133Y006629D01*
X003000Y006629D02*
X003000Y006762D01*
X003033Y006795D01*
X003100Y006795D01*
X003133Y006762D01*
X003442Y006762D02*
X003442Y006629D01*
X003475Y006595D01*
X003542Y006595D01*
X003575Y006629D01*
X003575Y006762D01*
X003542Y006795D01*
X003475Y006795D01*
X003442Y006762D01*
X003663Y006795D02*
X003663Y006595D01*
X003796Y006595D01*
X003884Y006595D02*
X004017Y006595D01*
X004105Y006595D02*
X004205Y006595D01*
X004238Y006629D01*
X004238Y006762D01*
X004205Y006795D01*
X004105Y006795D01*
X004105Y006595D01*
X003950Y006695D02*
X003884Y006695D01*
X003884Y006795D02*
X003884Y006595D01*
X003884Y006795D02*
X004017Y006795D01*
X004326Y006729D02*
X004326Y006662D01*
X004392Y006595D01*
X004473Y006629D02*
X004473Y006695D01*
X004573Y006695D01*
X004606Y006662D01*
X004606Y006629D01*
X004573Y006595D01*
X004506Y006595D01*
X004473Y006629D01*
X004473Y006695D02*
X004540Y006762D01*
X004606Y006795D01*
X004694Y006695D02*
X004827Y006695D01*
X004915Y006729D02*
X005048Y006595D01*
X005136Y006629D02*
X005169Y006595D01*
X005236Y006595D01*
X005269Y006629D01*
X005269Y006662D01*
X005236Y006695D01*
X005203Y006695D01*
X005236Y006695D02*
X005269Y006729D01*
X005269Y006762D01*
X005236Y006795D01*
X005169Y006795D01*
X005136Y006762D01*
X005048Y006729D02*
X004915Y006595D01*
X004794Y006595D02*
X004794Y006795D01*
X004694Y006695D01*
X004392Y006795D02*
X004326Y006729D01*
X005357Y006762D02*
X005390Y006795D01*
X005457Y006795D01*
X005490Y006762D01*
X005490Y006729D01*
X005357Y006595D01*
X005490Y006595D01*
X005578Y006595D02*
X005645Y006662D01*
X005645Y006729D01*
X005578Y006795D01*
X005946Y006795D02*
X005946Y006662D01*
X006013Y006595D01*
X006080Y006662D01*
X006080Y006795D01*
X006167Y006762D02*
X006201Y006795D01*
X006267Y006795D01*
X006301Y006762D01*
X006301Y006729D01*
X006167Y006595D01*
X006301Y006595D01*
X006934Y006610D02*
X006934Y006476D01*
X006934Y006543D02*
X007134Y006543D01*
X007134Y006389D02*
X007001Y006389D01*
X006934Y006322D01*
X007001Y006255D01*
X007134Y006255D01*
X007101Y006168D02*
X007134Y006134D01*
X007134Y006034D01*
X006934Y006034D01*
X006934Y006134D01*
X006968Y006168D01*
X007001Y006168D01*
X007034Y006134D01*
X007034Y006034D01*
X007034Y006134D02*
X007068Y006168D01*
X007101Y006168D01*
X007034Y006255D02*
X007034Y006389D01*
X007399Y006613D02*
X007499Y006613D01*
X007532Y006646D01*
X007532Y006680D01*
X007499Y006713D01*
X007399Y006713D01*
X007499Y006713D02*
X007532Y006746D01*
X007532Y006780D01*
X007499Y006813D01*
X007399Y006813D01*
X007399Y006613D01*
X007620Y006613D02*
X007620Y006746D01*
X007686Y006813D01*
X007753Y006746D01*
X007753Y006613D01*
X007753Y006713D02*
X007620Y006713D01*
X007841Y006813D02*
X007974Y006813D01*
X007907Y006813D02*
X007907Y006613D01*
X007901Y005789D02*
X007835Y005789D01*
X007801Y005756D01*
X007801Y005623D01*
X007835Y005589D01*
X007901Y005589D01*
X007935Y005623D01*
X007935Y005756D02*
X007901Y005789D01*
X007714Y005756D02*
X007680Y005789D01*
X007614Y005789D01*
X007580Y005756D01*
X007580Y005623D01*
X007614Y005589D01*
X007680Y005589D01*
X007714Y005623D01*
X007493Y005656D02*
X007493Y005789D01*
X007493Y005656D02*
X007426Y005589D01*
X007359Y005656D01*
X007359Y005789D01*
X007125Y005460D02*
X007158Y005427D01*
X007158Y005360D01*
X007125Y005326D01*
X006991Y005326D01*
X006958Y005360D01*
X006958Y005427D01*
X006991Y005460D01*
X006991Y005239D02*
X006958Y005206D01*
X006958Y005139D01*
X006991Y005105D01*
X007125Y005105D01*
X007158Y005139D01*
X007158Y005206D01*
X007125Y005239D01*
X007091Y005018D02*
X006958Y005018D01*
X007091Y005018D02*
X007158Y004951D01*
X007091Y004884D01*
X006958Y004884D01*
X007320Y004772D02*
X007320Y004638D01*
X007353Y004605D01*
X007420Y004605D01*
X007453Y004638D01*
X007453Y004705D01*
X007387Y004705D01*
X007453Y004772D02*
X007420Y004805D01*
X007353Y004805D01*
X007320Y004772D01*
X007541Y004805D02*
X007674Y004605D01*
X007674Y004805D01*
X007762Y004805D02*
X007862Y004805D01*
X007895Y004772D01*
X007895Y004638D01*
X007862Y004605D01*
X007762Y004605D01*
X007762Y004805D01*
X007541Y004805D02*
X007541Y004605D01*
X007158Y004442D02*
X007158Y004342D01*
X006958Y004342D01*
X006958Y004442D01*
X006991Y004476D01*
X007125Y004476D01*
X007158Y004442D01*
X007158Y004255D02*
X006958Y004255D01*
X006958Y004121D02*
X007158Y004255D01*
X007158Y004121D02*
X006958Y004121D01*
X006991Y004034D02*
X006958Y004000D01*
X006958Y003934D01*
X006991Y003900D01*
X007125Y003900D01*
X007158Y003934D01*
X007158Y004000D01*
X007125Y004034D01*
X007058Y004034D01*
X007058Y003967D01*
X007359Y003788D02*
X007359Y003754D01*
X007393Y003721D01*
X007459Y003721D01*
X007493Y003687D01*
X007493Y003654D01*
X007459Y003621D01*
X007393Y003621D01*
X007359Y003654D01*
X007359Y003788D02*
X007393Y003821D01*
X007459Y003821D01*
X007493Y003788D01*
X007580Y003821D02*
X007680Y003821D01*
X007714Y003788D01*
X007714Y003654D01*
X007680Y003621D01*
X007580Y003621D01*
X007580Y003821D01*
X007801Y003754D02*
X007801Y003621D01*
X007801Y003721D02*
X007935Y003721D01*
X007935Y003754D02*
X007935Y003621D01*
X007935Y003754D02*
X007868Y003821D01*
X007801Y003754D01*
X007158Y003491D02*
X007025Y003491D01*
X006958Y003425D01*
X007025Y003358D01*
X007158Y003358D01*
X007125Y003270D02*
X006991Y003270D01*
X006958Y003237D01*
X006958Y003137D01*
X007158Y003137D01*
X007158Y003237D01*
X007125Y003270D01*
X007058Y003358D02*
X007058Y003491D01*
X007091Y003049D02*
X007125Y003049D01*
X007158Y003016D01*
X007158Y002949D01*
X007125Y002916D01*
X007058Y002949D02*
X007058Y003016D01*
X007091Y003049D01*
X006991Y003049D02*
X006958Y003016D01*
X006958Y002949D01*
X006991Y002916D01*
X007025Y002916D01*
X007058Y002949D01*
X007399Y002764D02*
X007399Y002731D01*
X007432Y002697D01*
X007499Y002697D01*
X007532Y002664D01*
X007532Y002630D01*
X007499Y002597D01*
X007432Y002597D01*
X007399Y002630D01*
X007399Y002764D02*
X007432Y002797D01*
X007499Y002797D01*
X007532Y002764D01*
X007620Y002764D02*
X007620Y002630D01*
X007653Y002597D01*
X007720Y002597D01*
X007753Y002630D01*
X007841Y002597D02*
X007974Y002597D01*
X007841Y002597D02*
X007841Y002797D01*
X007753Y002764D02*
X007720Y002797D01*
X007653Y002797D01*
X007620Y002764D01*
X007158Y002547D02*
X007158Y002413D01*
X006958Y002413D01*
X006991Y002326D02*
X006958Y002292D01*
X006958Y002225D01*
X006991Y002192D01*
X007125Y002192D01*
X007158Y002225D01*
X007158Y002292D01*
X007125Y002326D01*
X007125Y002105D02*
X007158Y002071D01*
X007158Y002004D01*
X007125Y001971D01*
X007058Y002004D02*
X007058Y002071D01*
X007091Y002105D01*
X007125Y002105D01*
X006991Y002105D02*
X006958Y002071D01*
X006958Y002004D01*
X006991Y001971D01*
X007025Y001971D01*
X007058Y002004D01*
X007320Y001813D02*
X007320Y001613D01*
X007453Y001613D01*
X007541Y001613D02*
X007541Y001813D01*
X007641Y001813D01*
X007674Y001780D01*
X007674Y001713D01*
X007641Y001680D01*
X007541Y001680D01*
X007762Y001613D02*
X007829Y001680D01*
X007895Y001613D01*
X007895Y001813D01*
X007762Y001813D02*
X007762Y001613D01*
X007158Y001484D02*
X006958Y001484D01*
X006958Y001350D02*
X007158Y001350D01*
X007091Y001417D01*
X007158Y001484D01*
X007058Y001263D02*
X007091Y001229D01*
X007091Y001129D01*
X007158Y001129D02*
X006958Y001129D01*
X006958Y001229D01*
X006991Y001263D01*
X007058Y001263D01*
X007158Y001042D02*
X007158Y000908D01*
X006958Y000908D01*
X001374Y001945D02*
X001341Y001912D01*
X001374Y001945D02*
X001374Y002012D01*
X001341Y002045D01*
X001308Y002045D01*
X001274Y002012D01*
X001274Y001945D01*
X001241Y001912D01*
X001208Y001912D01*
X001174Y001945D01*
X001174Y002012D01*
X001208Y002045D01*
X001208Y002133D02*
X001341Y002133D01*
X001374Y002166D01*
X001374Y002233D01*
X001341Y002266D01*
X001374Y002354D02*
X001374Y002487D01*
X001374Y002354D02*
X001174Y002354D01*
X001208Y002266D02*
X001174Y002233D01*
X001174Y002166D01*
X001208Y002133D01*
X000459Y003621D02*
X000393Y003621D01*
X000359Y003654D01*
X000393Y003721D02*
X000459Y003721D01*
X000493Y003687D01*
X000493Y003654D01*
X000459Y003621D01*
X000393Y003721D02*
X000359Y003754D01*
X000359Y003788D01*
X000393Y003821D01*
X000459Y003821D01*
X000493Y003788D01*
D11*
X000249Y000977D02*
X000420Y000805D01*
X000920Y000805D01*
X001091Y000977D01*
X001091Y001477D01*
X001038Y001727D01*
X001091Y001977D01*
X001091Y002477D01*
X001038Y002727D01*
X001091Y002977D01*
X001091Y003477D01*
X001038Y003727D01*
X001091Y003977D01*
X001091Y004477D01*
X001038Y004727D01*
X001091Y004977D01*
X001091Y005477D01*
X001038Y005727D01*
X001091Y005977D01*
X001091Y006477D01*
X000920Y006845D01*
X000420Y006845D01*
X000249Y006477D01*
X000249Y005977D01*
X000302Y005727D01*
X000249Y005477D01*
X000249Y004977D01*
X000302Y004727D01*
X000249Y004477D01*
X000249Y003977D01*
X000302Y003727D01*
X000249Y003477D01*
X000249Y002977D01*
X000302Y002727D01*
X000249Y002477D01*
X000249Y001977D01*
X000302Y001727D01*
X000249Y001477D01*
X000249Y000977D01*
X001304Y002175D02*
X001298Y006742D01*
X006985Y006731D01*
X007009Y002136D01*
X005865Y002105D01*
X005865Y001268D01*
X007249Y001477D02*
X007249Y000977D01*
X007420Y000805D01*
X007920Y000805D01*
X008091Y000977D01*
X008091Y001477D01*
X008038Y001727D01*
X008091Y001977D01*
X008091Y002477D01*
X008038Y002727D01*
X008091Y002977D01*
X008091Y003477D01*
X008038Y003727D01*
X008091Y003977D01*
X008091Y004477D01*
X008038Y004727D01*
X008091Y004977D01*
X008091Y005477D01*
X008038Y005727D01*
X008091Y005977D01*
X008091Y006477D01*
X007920Y006845D01*
X007420Y006845D01*
X007249Y006477D01*
X007249Y005977D01*
X007302Y005727D01*
X007249Y005477D01*
X007249Y004977D01*
X007302Y004727D01*
X007249Y004477D01*
X007249Y003977D01*
X007302Y003727D01*
X007249Y003477D01*
X007249Y002977D01*
X007302Y002727D01*
X007249Y002477D01*
X007249Y001977D01*
X007302Y001727D01*
X007249Y001477D01*
X002389Y001284D02*
X002389Y002156D01*
X001304Y002175D01*
D12*
X002289Y001496D03*
X002289Y001489D03*
X002332Y001440D03*
X002466Y001440D03*
X002509Y001496D03*
X002495Y001539D03*
X002558Y001496D03*
X002558Y001489D03*
X002601Y001440D03*
X002643Y001496D03*
X002629Y001539D03*
X002693Y001496D03*
X002693Y001489D03*
X002735Y001440D03*
X002778Y001496D03*
X002764Y001539D03*
X002360Y001539D03*
X004314Y000845D03*
D13*
X004644Y000845D03*
X002328Y001588D03*
D14*
X005115Y001248D03*
X005440Y000845D03*
D15*
X005440Y000852D03*
X005554Y001001D03*
X005554Y001015D03*
X005554Y001050D03*
X005554Y001064D03*
X005547Y001114D03*
X005695Y001114D03*
X005695Y001100D03*
X005695Y001064D03*
X005695Y001050D03*
X005695Y001015D03*
X005695Y001001D03*
X005695Y000965D03*
X005695Y000951D03*
X005695Y000923D03*
X005695Y000901D03*
X005695Y000873D03*
X005695Y000852D03*
X005695Y001142D03*
X005695Y001163D03*
X005695Y001192D03*
X005695Y001213D03*
X005695Y001291D03*
X005695Y001319D03*
X005695Y001340D03*
X005695Y001369D03*
X005285Y001100D03*
X004959Y001064D03*
X004959Y001050D03*
X004959Y001015D03*
X004959Y001001D03*
X004959Y000965D03*
X004959Y000951D03*
X004959Y000923D03*
X004959Y000901D03*
X004959Y000873D03*
X004959Y000852D03*
X004810Y001001D03*
X004810Y001015D03*
X004810Y001114D03*
X004810Y001142D03*
X004584Y001142D03*
X004576Y001001D03*
X004435Y000965D03*
X004428Y000951D03*
X004435Y001100D03*
X004421Y001142D03*
X004180Y001114D03*
X004180Y001100D03*
X004052Y001142D03*
X004045Y001114D03*
X004038Y001100D03*
X004031Y001064D03*
X004024Y001050D03*
X003904Y001100D03*
X003890Y001163D03*
X003642Y001050D03*
X003698Y000852D03*
X003968Y000852D03*
X004187Y000965D03*
X003274Y000965D03*
X003274Y000951D03*
X003274Y000923D03*
X003274Y000901D03*
X003274Y000873D03*
X003274Y000852D03*
X003274Y001001D03*
X003274Y001015D03*
X003274Y001050D03*
X003274Y001064D03*
X003274Y001100D03*
X003274Y001114D03*
X003026Y001114D03*
X003026Y001100D03*
X002877Y001100D03*
X002877Y001114D03*
X002877Y001142D03*
X002877Y001163D03*
X002877Y001192D03*
X002877Y001213D03*
X002877Y001291D03*
X002877Y001319D03*
X002877Y001340D03*
X002877Y001369D03*
X002728Y001192D03*
X002728Y001163D03*
X002728Y001142D03*
X002728Y001114D03*
X002728Y001100D03*
X002728Y001064D03*
X002728Y001050D03*
X002728Y001015D03*
X002728Y001001D03*
X002728Y000965D03*
X002728Y000951D03*
X002728Y000923D03*
X002728Y000901D03*
X002728Y000873D03*
X002728Y000852D03*
X002877Y000852D03*
X002877Y000873D03*
X002877Y000901D03*
X002877Y000923D03*
X002877Y000951D03*
X002877Y000965D03*
X002877Y001001D03*
X002877Y001015D03*
X002877Y001050D03*
X002877Y001064D03*
X002325Y001064D03*
X002325Y001050D03*
X002325Y001015D03*
X002325Y001001D03*
X002325Y000965D03*
X002325Y000951D03*
X002325Y000923D03*
X002325Y000901D03*
X002325Y000873D03*
X002325Y000852D03*
X002325Y001100D03*
X002325Y001114D03*
X002325Y001142D03*
X002325Y001163D03*
X002325Y001192D03*
D16*
X002527Y000852D03*
X003263Y001142D03*
X003596Y001213D03*
X003603Y001192D03*
X003610Y001163D03*
X003617Y001142D03*
X003624Y001114D03*
X003638Y001064D03*
X003589Y001241D03*
X004056Y001163D03*
X004063Y001192D03*
X004070Y001213D03*
X004091Y001291D03*
X004099Y001319D03*
X004106Y001340D03*
X004113Y001369D03*
X004191Y001142D03*
X004191Y000951D03*
X004807Y000965D03*
X004807Y001100D03*
X005076Y001213D03*
X005288Y001114D03*
X005288Y000965D03*
X005139Y000951D03*
X005139Y000923D03*
X005139Y000901D03*
X005139Y000873D03*
X005139Y000852D03*
X005543Y000965D03*
D17*
X005281Y001001D03*
X005281Y001015D03*
X005281Y001050D03*
X005281Y001064D03*
X005281Y001192D03*
X005281Y001213D03*
X005281Y001241D03*
X005281Y001291D03*
X005281Y001319D03*
X005281Y001340D03*
X005281Y001369D03*
X004955Y001213D03*
X004955Y001192D03*
X004573Y001114D03*
X004431Y001114D03*
X004176Y001001D03*
X003914Y001050D03*
X003914Y001064D03*
X003900Y001114D03*
X003893Y001142D03*
X003773Y001142D03*
X003766Y001114D03*
X003752Y001050D03*
X003419Y001050D03*
X003419Y001064D03*
X003419Y001100D03*
X003419Y001114D03*
X003419Y001142D03*
X003419Y001163D03*
X003419Y001192D03*
X003419Y001213D03*
X003419Y001291D03*
X003419Y001319D03*
X003419Y001340D03*
X003419Y001369D03*
X003419Y001015D03*
X003419Y001001D03*
X003419Y000965D03*
X003419Y000951D03*
X003419Y000923D03*
X003419Y000901D03*
X003419Y000873D03*
X003419Y000852D03*
X003022Y000852D03*
X003022Y000873D03*
X003022Y000901D03*
X003022Y000923D03*
X003022Y000951D03*
X003022Y000965D03*
X003022Y001001D03*
X003022Y001015D03*
X003022Y001050D03*
X003022Y001064D03*
X003022Y001192D03*
X003022Y001213D03*
X002732Y001468D03*
X002463Y001468D03*
X002328Y001468D03*
X002427Y001192D03*
X002434Y001163D03*
X002442Y001142D03*
X002463Y001064D03*
X002463Y001050D03*
X002477Y001001D03*
X002590Y001050D03*
X002619Y001163D03*
X002626Y001192D03*
X005281Y000901D03*
X005281Y000873D03*
X005281Y000852D03*
D18*
X005295Y000951D03*
X005295Y001142D03*
X005069Y001192D03*
X004311Y001241D03*
X004212Y001163D03*
X004311Y000852D03*
X005996Y001100D03*
D19*
X005964Y001064D03*
X005908Y001001D03*
X005865Y000951D03*
X005532Y000951D03*
X005532Y001142D03*
X004803Y000951D03*
X004640Y000852D03*
X004576Y000923D03*
X004591Y001015D03*
X004598Y001163D03*
X003968Y000873D03*
X003698Y000873D03*
X003571Y001319D03*
X003564Y001340D03*
X003557Y001369D03*
X003033Y001142D03*
D20*
X002601Y001100D03*
X002594Y001064D03*
X002452Y001100D03*
X004817Y000852D03*
D21*
X005947Y000852D03*
X005947Y000873D03*
X005947Y000901D03*
X005947Y000923D03*
D22*
X005695Y000908D03*
X005695Y000859D03*
X005695Y000958D03*
X005695Y001008D03*
X005695Y001057D03*
X005695Y001107D03*
X005695Y001156D03*
X005695Y001206D03*
X005695Y001326D03*
X005695Y001376D03*
X005547Y001107D03*
X005554Y001057D03*
X005554Y001008D03*
X005285Y001107D03*
X004959Y001057D03*
X004959Y001008D03*
X004959Y000958D03*
X004959Y000908D03*
X004959Y000859D03*
X004810Y001008D03*
X004810Y001107D03*
X004591Y001156D03*
X004435Y001107D03*
X004428Y000958D03*
X004187Y000958D03*
X004180Y001107D03*
X004052Y001156D03*
X004038Y001107D03*
X004067Y001206D03*
X003968Y000859D03*
X003698Y000859D03*
X003642Y001057D03*
X003628Y001107D03*
X003613Y001156D03*
X003274Y001107D03*
X003274Y001057D03*
X003274Y001008D03*
X003274Y000958D03*
X003274Y000908D03*
X003274Y000859D03*
X003026Y001107D03*
X002877Y001107D03*
X002877Y001156D03*
X002877Y001206D03*
X002877Y001326D03*
X002877Y001376D03*
X002728Y001156D03*
X002728Y001107D03*
X002728Y001057D03*
X002728Y001008D03*
X002728Y000958D03*
X002728Y000908D03*
X002728Y000859D03*
X002877Y000859D03*
X002877Y000908D03*
X002877Y000958D03*
X002877Y001008D03*
X002877Y001057D03*
X002325Y001057D03*
X002325Y001008D03*
X002325Y000958D03*
X002325Y000908D03*
X002325Y000859D03*
X002325Y001107D03*
X002325Y001156D03*
D23*
X002527Y000859D03*
X003567Y001326D03*
X003603Y001206D03*
X004099Y001326D03*
X004410Y001156D03*
X004580Y001008D03*
X004807Y000958D03*
X004800Y001156D03*
X005139Y000908D03*
X005139Y000859D03*
X005536Y000958D03*
D24*
X005281Y001008D03*
X005281Y001057D03*
X005281Y001206D03*
X005281Y001326D03*
X005281Y001376D03*
X004955Y001206D03*
X005281Y000859D03*
X003914Y001057D03*
X003900Y001107D03*
X003893Y001156D03*
X003766Y001107D03*
X003419Y001107D03*
X003419Y001156D03*
X003419Y001206D03*
X003419Y001326D03*
X003419Y001376D03*
X003419Y001057D03*
X003419Y001008D03*
X003419Y000958D03*
X003419Y000908D03*
X003419Y000859D03*
X003022Y000859D03*
X003022Y000908D03*
X003022Y000958D03*
X003022Y001008D03*
X003022Y001057D03*
X003022Y001206D03*
X002619Y001156D03*
X002604Y001107D03*
X002463Y001057D03*
X002477Y001008D03*
X002434Y001156D03*
D25*
X002696Y001326D03*
X004311Y000859D03*
D26*
X004644Y000859D03*
D27*
X004566Y000958D03*
X004814Y000859D03*
X004028Y001057D03*
X002449Y001107D03*
D28*
X003833Y001326D03*
X003968Y000908D03*
X005440Y000859D03*
D29*
X005401Y000908D03*
X005947Y000908D03*
X005947Y000859D03*
D30*
X005695Y000866D03*
X005695Y000880D03*
X005695Y000894D03*
X005695Y000916D03*
X005695Y000930D03*
X005695Y000944D03*
X005695Y000972D03*
X005695Y000979D03*
X005695Y000993D03*
X005695Y001022D03*
X005695Y001036D03*
X005695Y001043D03*
X005695Y001071D03*
X005695Y001085D03*
X005695Y001093D03*
X005695Y001121D03*
X005695Y001135D03*
X005695Y001149D03*
X005695Y001170D03*
X005695Y001185D03*
X005695Y001199D03*
X005695Y001220D03*
X005695Y001234D03*
X005695Y001284D03*
X005695Y001298D03*
X005695Y001312D03*
X005695Y001333D03*
X005695Y001347D03*
X005695Y001362D03*
X005554Y001093D03*
X005554Y001085D03*
X005554Y001071D03*
X005554Y001043D03*
X005554Y001036D03*
X005554Y001022D03*
X005547Y000979D03*
X005285Y000979D03*
X005285Y000993D03*
X005285Y001093D03*
X005079Y001220D03*
X004959Y001093D03*
X004959Y001085D03*
X004959Y001071D03*
X004959Y001043D03*
X004959Y001036D03*
X004959Y001022D03*
X004959Y000993D03*
X004959Y000979D03*
X004959Y000972D03*
X004959Y000944D03*
X004959Y000930D03*
X004959Y000916D03*
X004959Y000894D03*
X004959Y000880D03*
X004959Y000866D03*
X004810Y000972D03*
X004810Y000979D03*
X004810Y000993D03*
X004810Y001022D03*
X004810Y001121D03*
X004810Y001135D03*
X004803Y001149D03*
X004584Y001149D03*
X004435Y001093D03*
X004569Y000979D03*
X004569Y000944D03*
X004180Y000972D03*
X004180Y000979D03*
X004180Y001121D03*
X004060Y001170D03*
X004060Y001185D03*
X004067Y001199D03*
X004074Y001234D03*
X004081Y001263D03*
X004088Y001284D03*
X004095Y001312D03*
X004102Y001333D03*
X004109Y001362D03*
X004052Y001149D03*
X004045Y001135D03*
X004045Y001121D03*
X004038Y001093D03*
X004031Y001071D03*
X004024Y001043D03*
X003918Y001043D03*
X003911Y001071D03*
X003649Y001036D03*
X003635Y001085D03*
X003621Y001135D03*
X003606Y001185D03*
X003274Y001093D03*
X003274Y001085D03*
X003274Y001071D03*
X003274Y001043D03*
X003274Y001036D03*
X003274Y001022D03*
X003274Y000993D03*
X003274Y000979D03*
X003274Y000972D03*
X003274Y000944D03*
X003274Y000930D03*
X003274Y000916D03*
X003274Y000894D03*
X003274Y000880D03*
X003274Y000866D03*
X003026Y001093D03*
X002877Y001093D03*
X002877Y001085D03*
X002877Y001071D03*
X002877Y001043D03*
X002877Y001036D03*
X002877Y001022D03*
X002877Y000993D03*
X002877Y000979D03*
X002877Y000972D03*
X002877Y000944D03*
X002877Y000930D03*
X002877Y000916D03*
X002877Y000894D03*
X002877Y000880D03*
X002877Y000866D03*
X002728Y000866D03*
X002728Y000880D03*
X002728Y000894D03*
X002728Y000916D03*
X002728Y000930D03*
X002728Y000944D03*
X002728Y000972D03*
X002728Y000979D03*
X002728Y000993D03*
X002728Y001022D03*
X002728Y001036D03*
X002728Y001043D03*
X002728Y001071D03*
X002728Y001085D03*
X002728Y001093D03*
X002728Y001121D03*
X002728Y001135D03*
X002728Y001149D03*
X002728Y001170D03*
X002728Y001185D03*
X002728Y001199D03*
X002877Y001199D03*
X002877Y001185D03*
X002877Y001170D03*
X002877Y001149D03*
X002877Y001135D03*
X002877Y001121D03*
X002877Y001220D03*
X002877Y001234D03*
X002877Y001284D03*
X002877Y001298D03*
X002877Y001312D03*
X002877Y001333D03*
X002877Y001347D03*
X002877Y001362D03*
X002325Y001199D03*
X002325Y001185D03*
X002325Y001170D03*
X002325Y001149D03*
X002325Y001135D03*
X002325Y001121D03*
X002325Y001093D03*
X002325Y001085D03*
X002325Y001071D03*
X002325Y001043D03*
X002325Y001036D03*
X002325Y001022D03*
X002325Y000993D03*
X002325Y000979D03*
X002325Y000972D03*
X002325Y000944D03*
X002325Y000930D03*
X002325Y000916D03*
X002325Y000894D03*
X002325Y000880D03*
X002325Y000866D03*
D31*
X002527Y000866D03*
X003029Y001121D03*
X003270Y001121D03*
X003270Y001135D03*
X003567Y001333D03*
X003560Y001362D03*
X003575Y001298D03*
X003589Y001248D03*
X003596Y001234D03*
X003596Y001220D03*
X003603Y001199D03*
X003610Y001170D03*
X003617Y001149D03*
X003624Y001121D03*
X003638Y001071D03*
X003645Y001043D03*
X003695Y000866D03*
X004070Y001220D03*
X004084Y001270D03*
X004091Y001298D03*
X004106Y001347D03*
X004198Y001149D03*
X004191Y001135D03*
X004198Y000944D03*
X004424Y000944D03*
X004573Y000930D03*
X005139Y000930D03*
X005139Y000944D03*
X005139Y000916D03*
X005139Y000894D03*
X005139Y000880D03*
X005139Y000866D03*
X005288Y000972D03*
X005288Y001121D03*
X005536Y001135D03*
X005543Y001121D03*
X005543Y000972D03*
D32*
X005281Y001022D03*
X005281Y001036D03*
X005281Y001043D03*
X005281Y001071D03*
X005281Y001085D03*
X005281Y001185D03*
X005281Y001199D03*
X005281Y001220D03*
X005281Y001234D03*
X005281Y001248D03*
X005281Y001263D03*
X005281Y001270D03*
X005281Y001284D03*
X005281Y001298D03*
X005281Y001312D03*
X005281Y001333D03*
X005281Y001347D03*
X005281Y001362D03*
X004955Y001234D03*
X004955Y001220D03*
X004955Y001199D03*
X004580Y001135D03*
X004573Y000993D03*
X004438Y001085D03*
X004431Y001121D03*
X004424Y001135D03*
X004176Y000993D03*
X004021Y001036D03*
X004035Y001085D03*
X003921Y001036D03*
X003907Y001085D03*
X003907Y001093D03*
X003900Y001121D03*
X003893Y001135D03*
X003893Y001149D03*
X003886Y001170D03*
X003886Y001185D03*
X003773Y001149D03*
X003773Y001135D03*
X003766Y001121D03*
X003759Y001085D03*
X003419Y001085D03*
X003419Y001093D03*
X003419Y001071D03*
X003419Y001043D03*
X003419Y001036D03*
X003419Y001022D03*
X003419Y000993D03*
X003419Y000979D03*
X003419Y000972D03*
X003419Y000944D03*
X003419Y000930D03*
X003419Y000916D03*
X003419Y000894D03*
X003419Y000880D03*
X003419Y000866D03*
X003419Y001121D03*
X003419Y001135D03*
X003419Y001149D03*
X003419Y001170D03*
X003419Y001185D03*
X003419Y001199D03*
X003419Y001220D03*
X003419Y001234D03*
X003419Y001284D03*
X003419Y001298D03*
X003419Y001312D03*
X003419Y001333D03*
X003419Y001347D03*
X003419Y001362D03*
X003022Y001234D03*
X003022Y001220D03*
X003022Y001199D03*
X003022Y001185D03*
X003022Y001085D03*
X003022Y001071D03*
X003022Y001043D03*
X003022Y001036D03*
X003022Y001022D03*
X003022Y000993D03*
X003022Y000979D03*
X003022Y000972D03*
X003022Y000944D03*
X003022Y000930D03*
X003022Y000916D03*
X003022Y000894D03*
X003022Y000880D03*
X003022Y000866D03*
X002611Y001135D03*
X002626Y001185D03*
X002442Y001149D03*
X002442Y001135D03*
X002434Y001170D03*
X002427Y001185D03*
X002427Y001199D03*
X002456Y001093D03*
X002456Y001085D03*
X002470Y001036D03*
X005281Y000894D03*
X005281Y000880D03*
X005281Y000866D03*
D33*
X005292Y001135D03*
X004803Y001093D03*
X003968Y000880D03*
X003968Y000866D03*
X003698Y000880D03*
X003259Y001149D03*
X003033Y001135D03*
X003571Y001312D03*
X003564Y001347D03*
X005858Y000944D03*
X005886Y000979D03*
X006014Y001121D03*
D34*
X005444Y000880D03*
X004658Y001043D03*
X004311Y000866D03*
X003971Y001022D03*
X003695Y001022D03*
X002682Y001220D03*
X002371Y001220D03*
X002371Y001234D03*
D35*
X002364Y001284D03*
X002364Y001298D03*
X002527Y000979D03*
X002527Y000972D03*
X003695Y000993D03*
X004644Y000866D03*
D36*
X004566Y000972D03*
X004814Y001036D03*
X004814Y001043D03*
X004814Y000880D03*
X004814Y000866D03*
X005451Y001234D03*
X003780Y001185D03*
X003780Y001170D03*
X002449Y001121D03*
D37*
X002527Y000944D03*
X002527Y000930D03*
X003695Y000944D03*
X003971Y000944D03*
X005309Y000930D03*
X005444Y000866D03*
X005451Y001220D03*
D38*
X005401Y000916D03*
X005947Y000916D03*
X005947Y000894D03*
X005947Y000880D03*
X005947Y000866D03*
X003143Y001170D03*
D39*
X002527Y000873D03*
X004403Y001163D03*
X004792Y001163D03*
X005876Y000965D03*
X005918Y001015D03*
X006010Y001114D03*
X006032Y001142D03*
D40*
X004307Y000873D03*
D41*
X004644Y000873D03*
X003971Y001015D03*
X003836Y001192D03*
X002682Y001213D03*
X002371Y001241D03*
D42*
X002449Y001114D03*
X002597Y001468D03*
X003780Y001163D03*
X004566Y000965D03*
X004566Y000951D03*
X004814Y000873D03*
D43*
X005444Y000873D03*
X005451Y001213D03*
X003971Y001001D03*
X003192Y001213D03*
D44*
X003695Y000894D03*
X004800Y000944D03*
X005529Y000944D03*
X005529Y001149D03*
X005883Y000972D03*
X005925Y001022D03*
X005968Y001071D03*
X005982Y001085D03*
X006025Y001135D03*
X002527Y000880D03*
D45*
X004311Y000880D03*
X005451Y001185D03*
D46*
X004644Y000880D03*
D47*
X004569Y000937D03*
X004569Y000986D03*
X004428Y001128D03*
X004187Y001128D03*
X004074Y001227D03*
X004081Y001255D03*
X004088Y001277D03*
X004095Y001305D03*
X004060Y001178D03*
X004045Y001128D03*
X004031Y001078D03*
X004180Y000986D03*
X003635Y001078D03*
X003621Y001128D03*
X003274Y001078D03*
X003274Y001029D03*
X003274Y000986D03*
X003274Y000937D03*
X003274Y000887D03*
X002877Y000887D03*
X002877Y000937D03*
X002877Y000986D03*
X002877Y001029D03*
X002877Y001078D03*
X002877Y001128D03*
X002877Y001178D03*
X002877Y001227D03*
X002877Y001305D03*
X002877Y001355D03*
X002728Y001178D03*
X002728Y001128D03*
X002728Y001078D03*
X002728Y001029D03*
X002728Y000986D03*
X002728Y000937D03*
X002728Y000887D03*
X002325Y000887D03*
X002325Y000937D03*
X002325Y000986D03*
X002325Y001029D03*
X002325Y001078D03*
X002325Y001128D03*
X002325Y001178D03*
X004810Y001128D03*
X004810Y000986D03*
X004959Y000986D03*
X004959Y001029D03*
X004959Y001078D03*
X004959Y000937D03*
X004959Y000887D03*
X005285Y000986D03*
X005547Y000986D03*
X005554Y001029D03*
X005554Y001078D03*
X005695Y001078D03*
X005695Y001029D03*
X005695Y000986D03*
X005695Y000937D03*
X005695Y000887D03*
X005695Y001128D03*
X005695Y001178D03*
X005695Y001227D03*
X005695Y001305D03*
X005695Y001355D03*
D48*
X005975Y001078D03*
X005932Y001029D03*
X005522Y000937D03*
X002527Y000887D03*
D49*
X002470Y001029D03*
X002456Y001078D03*
X002442Y001128D03*
X002434Y001178D03*
X002611Y001128D03*
X003022Y001178D03*
X003022Y001227D03*
X003022Y001078D03*
X003022Y001029D03*
X003022Y000986D03*
X003022Y000937D03*
X003022Y000887D03*
X003419Y000887D03*
X003419Y000937D03*
X003419Y000986D03*
X003419Y001029D03*
X003419Y001078D03*
X003419Y001128D03*
X003419Y001178D03*
X003419Y001227D03*
X003419Y001305D03*
X003419Y001355D03*
X003759Y001078D03*
X003900Y001128D03*
X003907Y001078D03*
X003886Y001178D03*
X004580Y001128D03*
X004955Y001227D03*
X005083Y001227D03*
X005281Y001227D03*
X005281Y001255D03*
X005281Y001277D03*
X005281Y001305D03*
X005281Y001355D03*
X005281Y001078D03*
X005281Y001029D03*
X005281Y000887D03*
X002732Y001546D03*
X002463Y001546D03*
X002328Y001546D03*
D50*
X003698Y000887D03*
X004201Y000937D03*
X005292Y001128D03*
X006021Y001128D03*
D51*
X004969Y001128D03*
X003971Y000887D03*
D52*
X004307Y000887D03*
D53*
X004644Y000887D03*
D54*
X004814Y000887D03*
X004814Y001029D03*
X003780Y001178D03*
X002597Y001078D03*
X002597Y001546D03*
D55*
X003029Y001128D03*
X003270Y001128D03*
X003560Y001355D03*
X003575Y001305D03*
X003589Y001255D03*
X003596Y001227D03*
X003610Y001178D03*
X004106Y001355D03*
X005139Y000937D03*
X005139Y000887D03*
X005543Y001128D03*
D56*
X005447Y000887D03*
D57*
X005401Y001178D03*
X005947Y000887D03*
D58*
X004792Y001085D03*
X002527Y000916D03*
X002527Y000894D03*
D59*
X003040Y001149D03*
X003833Y001333D03*
X003968Y000894D03*
X004605Y001022D03*
X005299Y000944D03*
X005299Y001149D03*
D60*
X004697Y001199D03*
X004307Y000894D03*
D61*
X004697Y000894D03*
D62*
X005447Y000894D03*
D63*
X002527Y000901D03*
D64*
X003698Y000901D03*
D65*
X003968Y000901D03*
X003833Y001319D03*
X003833Y001340D03*
D66*
X004307Y000901D03*
X004697Y001192D03*
D67*
X004693Y000901D03*
D68*
X004307Y001213D03*
X005447Y000901D03*
D69*
X002527Y000908D03*
D70*
X003698Y000908D03*
X005518Y001156D03*
D71*
X004311Y000908D03*
D72*
X004693Y000908D03*
D73*
X004977Y001135D03*
X005515Y000930D03*
X003971Y000916D03*
X003695Y000916D03*
D74*
X004307Y000916D03*
D75*
X004690Y000916D03*
D76*
X004984Y001142D03*
X003695Y000951D03*
X002704Y001369D03*
X002527Y000923D03*
D77*
X003695Y000923D03*
D78*
X003968Y000923D03*
X003833Y001291D03*
D79*
X004307Y000923D03*
D80*
X003968Y000951D03*
X004782Y000923D03*
X002700Y001340D03*
X002353Y001369D03*
D81*
X003146Y001163D03*
X005405Y000923D03*
D82*
X004697Y001234D03*
X003968Y000930D03*
X003698Y000930D03*
X003833Y001298D03*
X003833Y001312D03*
D83*
X003829Y001347D03*
X004212Y000930D03*
X004410Y000930D03*
X005069Y001199D03*
X005940Y001036D03*
X005947Y001043D03*
X005989Y001093D03*
X006039Y001149D03*
D84*
X004789Y000930D03*
D85*
X005950Y000930D03*
D86*
X003971Y000937D03*
X002527Y000937D03*
D87*
X003698Y000937D03*
X003833Y001305D03*
D88*
X003582Y001277D03*
X004417Y000937D03*
D89*
X004796Y000937D03*
D90*
X005302Y000937D03*
X005451Y001227D03*
X003192Y001227D03*
D91*
X003833Y001355D03*
X005851Y000937D03*
X005894Y000986D03*
D92*
X002527Y000965D03*
X002527Y000951D03*
D93*
X002527Y000958D03*
D94*
X003698Y000958D03*
X003968Y000958D03*
D95*
X004201Y001156D03*
X005072Y001206D03*
X005292Y000958D03*
X005915Y001008D03*
X005957Y001057D03*
D96*
X005869Y000958D03*
X003256Y001156D03*
D97*
X003695Y000965D03*
X003971Y000965D03*
X002696Y001319D03*
X002357Y001340D03*
D98*
X002357Y001333D03*
X002357Y001347D03*
X002696Y001333D03*
X002696Y001312D03*
X003192Y001220D03*
X003695Y000979D03*
X003695Y000972D03*
X003971Y000972D03*
X003971Y000979D03*
D99*
X003769Y001128D03*
X002622Y001178D03*
X002587Y001029D03*
X002573Y000986D03*
X002481Y000986D03*
D100*
X003698Y000986D03*
D101*
X003971Y000986D03*
X004771Y001078D03*
X002689Y001255D03*
X002689Y001277D03*
D102*
X002629Y001199D03*
X002622Y001170D03*
X002615Y001149D03*
X002608Y001121D03*
X002587Y001043D03*
X002587Y001036D03*
X002580Y001022D03*
X002481Y000993D03*
X002473Y001022D03*
X002466Y001043D03*
X002459Y001071D03*
X002466Y001461D03*
X002332Y001461D03*
X002735Y001461D03*
X003762Y001093D03*
X003755Y001071D03*
X003748Y001043D03*
X003748Y001036D03*
X004576Y001121D03*
D103*
X005090Y001234D03*
X002732Y001553D03*
X002732Y001560D03*
X002463Y001560D03*
X002463Y001553D03*
X002328Y001553D03*
X002328Y001560D03*
X002576Y000993D03*
D104*
X002689Y001263D03*
X002689Y001270D03*
X003837Y001220D03*
X003971Y000993D03*
D105*
X004077Y001248D03*
X004417Y001149D03*
X003631Y001093D03*
X003582Y001270D03*
X003582Y001284D03*
X003192Y001234D03*
X005550Y000993D03*
D106*
X005901Y000993D03*
X004966Y001121D03*
X003833Y001362D03*
X003585Y001263D03*
D107*
X003762Y001100D03*
X003755Y001064D03*
X002615Y001142D03*
X002608Y001114D03*
X002580Y001015D03*
X002580Y001001D03*
X002473Y001015D03*
D108*
X002364Y001291D03*
X003695Y001001D03*
D109*
X003755Y001057D03*
X002580Y001008D03*
D110*
X003695Y001008D03*
D111*
X003971Y001008D03*
D112*
X004173Y001008D03*
D113*
X003691Y001015D03*
X002686Y001241D03*
D114*
X004173Y001015D03*
D115*
X004307Y001022D03*
X004307Y001036D03*
X004307Y001043D03*
D116*
X003971Y001029D03*
X003695Y001029D03*
X002371Y001227D03*
D117*
X004307Y001029D03*
D118*
X004623Y001029D03*
X002357Y001355D03*
D119*
X002367Y001270D03*
X002367Y001263D03*
X002367Y001248D03*
X002686Y001248D03*
X002686Y001234D03*
X004640Y001036D03*
D120*
X004307Y001050D03*
D121*
X004715Y001050D03*
D122*
X004966Y001114D03*
X005950Y001050D03*
X003833Y001369D03*
X003578Y001291D03*
D123*
X003776Y001156D03*
X002594Y001057D03*
D124*
X004307Y001057D03*
D125*
X004722Y001057D03*
D126*
X004304Y001064D03*
D127*
X004732Y001064D03*
D128*
X002601Y001085D03*
X002601Y001093D03*
X002594Y001071D03*
X002601Y001461D03*
D129*
X004304Y001071D03*
D130*
X004750Y001071D03*
D131*
X004304Y001078D03*
D132*
X004173Y001085D03*
X004173Y001093D03*
D133*
X004077Y001241D03*
X003631Y001100D03*
X004962Y001100D03*
X005550Y001100D03*
D134*
X004962Y001107D03*
D135*
X006003Y001107D03*
D136*
X005019Y001149D03*
X005019Y001170D03*
X005019Y001185D03*
D137*
X005306Y001156D03*
X003047Y001156D03*
D138*
X005019Y001156D03*
D139*
X005950Y001156D03*
X005950Y001206D03*
D140*
X005451Y001192D03*
X005019Y001163D03*
X003192Y001192D03*
D141*
X005408Y001163D03*
D142*
X005950Y001163D03*
X005950Y001192D03*
X005950Y001213D03*
D143*
X004693Y001170D03*
X004304Y001170D03*
D144*
X005405Y001170D03*
D145*
X005950Y001170D03*
X005950Y001185D03*
X005950Y001199D03*
X005950Y001220D03*
X005950Y001234D03*
D146*
X003192Y001178D03*
D147*
X004307Y001178D03*
X004697Y001178D03*
D148*
X005019Y001178D03*
D149*
X005950Y001178D03*
X005950Y001227D03*
D150*
X003189Y001185D03*
D151*
X004307Y001185D03*
D152*
X004693Y001185D03*
D153*
X004307Y001192D03*
D154*
X003192Y001199D03*
X005451Y001199D03*
D155*
X003833Y001199D03*
D156*
X004307Y001199D03*
D157*
X002374Y001206D03*
D158*
X002682Y001206D03*
X003192Y001206D03*
D159*
X003833Y001206D03*
D160*
X004307Y001206D03*
D161*
X004697Y001206D03*
D162*
X005451Y001206D03*
D163*
X002374Y001213D03*
D164*
X003833Y001213D03*
D165*
X004693Y001213D03*
D166*
X004697Y001220D03*
X004307Y001220D03*
D167*
X004307Y001227D03*
X004697Y001227D03*
X002686Y001227D03*
X002367Y001255D03*
D168*
X002360Y001305D03*
X002693Y001305D03*
X003833Y001227D03*
D169*
X003833Y001234D03*
X003833Y001248D03*
X002693Y001284D03*
X002693Y001298D03*
X002360Y001312D03*
D170*
X002353Y001362D03*
X002700Y001362D03*
X002700Y001347D03*
X003833Y001284D03*
X003833Y001270D03*
X003833Y001263D03*
X004307Y001234D03*
D171*
X003192Y001241D03*
D172*
X002693Y001291D03*
X002360Y001319D03*
X003833Y001241D03*
D173*
X004697Y001241D03*
X002778Y001517D03*
X002735Y001581D03*
X002700Y001532D03*
X002693Y001517D03*
X002700Y001482D03*
X002735Y001432D03*
X002643Y001517D03*
X002636Y001532D03*
X002601Y001581D03*
X002565Y001532D03*
X002558Y001517D03*
X002565Y001482D03*
X002601Y001432D03*
X002509Y001517D03*
X002502Y001532D03*
X002466Y001581D03*
X002431Y001532D03*
X002431Y001482D03*
X002466Y001432D03*
X002332Y001432D03*
X002296Y001482D03*
X002296Y001532D03*
X002332Y001581D03*
X002367Y001532D03*
D174*
X002463Y001567D03*
X002597Y001567D03*
X002732Y001567D03*
X005097Y001241D03*
D175*
X005447Y001241D03*
D176*
X004311Y001248D03*
X002732Y001588D03*
X002597Y001588D03*
X002463Y001588D03*
D177*
X002700Y001355D03*
X003833Y001277D03*
X003833Y001255D03*
D178*
X002364Y001277D03*
D179*
X002360Y001326D03*
D180*
X002332Y001425D03*
X002466Y001425D03*
D181*
X002601Y001425D03*
X002735Y001425D03*
D182*
X002735Y001447D03*
X002601Y001447D03*
X002466Y001447D03*
X002332Y001447D03*
D183*
X002332Y001454D03*
X002466Y001454D03*
X002601Y001454D03*
X002735Y001454D03*
D184*
X002707Y001475D03*
X002693Y001525D03*
X002735Y001574D03*
X002764Y001475D03*
X002629Y001475D03*
X002558Y001525D03*
X002601Y001574D03*
X002495Y001475D03*
X002438Y001475D03*
X002360Y001475D03*
X002303Y001475D03*
X002289Y001525D03*
X002332Y001574D03*
X002466Y001574D03*
D185*
X002424Y001525D03*
X002573Y001475D03*
D186*
X002633Y001482D03*
X002498Y001482D03*
X002364Y001482D03*
X002286Y001517D03*
X002767Y001482D03*
D187*
X002774Y001489D03*
X002704Y001539D03*
X002640Y001489D03*
X002569Y001539D03*
X002505Y001489D03*
X002434Y001539D03*
X002371Y001489D03*
X002300Y001539D03*
D188*
X002374Y001496D03*
X002424Y001496D03*
X002424Y001489D03*
D189*
X002424Y001517D03*
X002374Y001517D03*
X002771Y001532D03*
D190*
X002774Y001525D03*
X002371Y001525D03*
D191*
X002505Y001525D03*
X002640Y001525D03*
D192*
X002597Y001553D03*
X002597Y001560D03*
D193*
X002328Y001567D03*
D194*
X006332Y002179D02*
X006679Y002179D01*
X006635Y002136D02*
X006635Y002223D01*
X006592Y002266D01*
X006549Y002266D01*
X006505Y002223D01*
X006505Y002136D01*
X006462Y002093D01*
X006418Y002093D01*
X006375Y002136D01*
X006375Y002223D01*
X006418Y002266D01*
X006418Y002387D02*
X006375Y002431D01*
X006375Y002517D01*
X006418Y002561D01*
X006462Y002561D01*
X006635Y002387D01*
X006635Y002561D01*
X006635Y002136D02*
X006592Y002093D01*
X006592Y001971D02*
X006375Y001971D01*
X006375Y001798D02*
X006592Y001798D01*
X006635Y001841D01*
X006635Y001928D01*
X006592Y001971D01*
M02*
