G75*
%MOIN*%
%OFA0B0*%
%FSLAX24Y24*%
%IPPOS*%
%LPD*%
%AMOC8*
5,1,8,0,0,1.08239X$1,22.5*
%
%ADD10C,0.0180*%
%ADD11R,0.0493X0.0454*%
%ADD12R,0.0454X0.0493*%
%ADD13C,0.0800*%
%ADD14C,0.0436*%
D10*
X004327Y003236D03*
X004524Y003236D03*
X004721Y003236D03*
X004721Y003433D03*
X004721Y003630D03*
X004524Y003630D03*
X004327Y003630D03*
X004327Y003433D03*
D11*
X003461Y001119D03*
X002792Y001119D03*
X005434Y001161D03*
X006103Y001161D03*
X006001Y006041D03*
X005331Y006041D03*
X003910Y006075D03*
X003241Y006075D03*
D12*
X002100Y004284D03*
X002100Y003615D03*
X006631Y003890D03*
X006631Y003221D03*
D13*
X000670Y000977D03*
X000670Y001977D03*
X000670Y002977D03*
X000670Y003977D03*
X000670Y004977D03*
X000670Y005977D03*
X007670Y005977D03*
X007670Y004977D03*
X007670Y003977D03*
X007670Y002977D03*
X007670Y001977D03*
X007670Y000977D03*
D14*
X006710Y001370D03*
X006381Y002715D03*
X005124Y002833D03*
X004585Y002833D03*
X003985Y002873D03*
X003964Y003433D03*
X003964Y003994D03*
X004524Y003994D03*
X005085Y003994D03*
X005085Y003433D03*
X006373Y004380D03*
X004678Y005894D03*
X002538Y004588D03*
X002198Y005355D03*
X002950Y002739D03*
X002194Y001528D03*
X003981Y001463D03*
X004609Y001477D03*
M02*
