%
M48
M72
T01C0.0236
T02C0.0400
%
T01
X2194Y1528
X2950Y2739
X3985Y2873
X4585Y2833
X5124Y2833
X5085Y3433
X5085Y3994
X4524Y3994
X3964Y3994
X3964Y3433
X2538Y4588
X2198Y5355
X4678Y5894
X6373Y4380
X6381Y2715
X6710Y1370
X4609Y1477
X3981Y1463
T02
X670Y977
X670Y1977
X670Y2977
X670Y3977
X670Y4977
X670Y5977
X7670Y5977
X7670Y4977
X7670Y3977
X7670Y2977
X7670Y1977
X7670Y977
M30
