G75*
%MOIN*%
%OFA0B0*%
%FSLAX24Y24*%
%IPPOS*%
%LPD*%
%AMOC8*
5,1,8,0,0,1.08239X$1,22.5*
%
%ADD10C,0.0040*%
%ADD11C,0.0050*%
%ADD12C,0.0070*%
%ADD13C,0.0020*%
%ADD14R,0.0180X0.0300*%
%ADD15R,0.0300X0.0180*%
%ADD16C,0.0220*%
%ADD17C,0.0080*%
%ADD18R,0.0042X0.0007*%
%ADD19R,0.0035X0.0007*%
%ADD20R,0.0028X0.0007*%
%ADD21R,0.0099X0.0007*%
%ADD22R,0.0106X0.0007*%
%ADD23R,0.0092X0.0007*%
%ADD24R,0.0120X0.0007*%
%ADD25R,0.0113X0.0007*%
%ADD26R,0.0085X0.0007*%
%ADD27R,0.0333X0.0007*%
%ADD28R,0.0099X0.0007*%
%ADD29R,0.0106X0.0007*%
%ADD30R,0.0092X0.0007*%
%ADD31R,0.0163X0.0007*%
%ADD32R,0.0149X0.0007*%
%ADD33R,0.0092X0.0007*%
%ADD34R,0.0127X0.0007*%
%ADD35R,0.0333X0.0007*%
%ADD36R,0.0099X0.0007*%
%ADD37R,0.0106X0.0007*%
%ADD38R,0.0092X0.0007*%
%ADD39R,0.0113X0.0007*%
%ADD40R,0.0191X0.0007*%
%ADD41R,0.0177X0.0007*%
%ADD42R,0.0092X0.0007*%
%ADD43R,0.0149X0.0007*%
%ADD44R,0.0333X0.0007*%
%ADD45R,0.0120X0.0007*%
%ADD46R,0.0212X0.0007*%
%ADD47R,0.0191X0.0007*%
%ADD48R,0.0092X0.0007*%
%ADD49R,0.0177X0.0007*%
%ADD50R,0.0120X0.0007*%
%ADD51R,0.0234X0.0007*%
%ADD52R,0.0205X0.0007*%
%ADD53R,0.0099X0.0007*%
%ADD54R,0.0120X0.0007*%
%ADD55R,0.0092X0.0007*%
%ADD56R,0.0113X0.0007*%
%ADD57R,0.0120X0.0007*%
%ADD58R,0.0255X0.0007*%
%ADD59R,0.0220X0.0007*%
%ADD60R,0.0092X0.0007*%
%ADD61R,0.0106X0.0007*%
%ADD62R,0.0198X0.0007*%
%ADD63R,0.0333X0.0007*%
%ADD64R,0.0135X0.0007*%
%ADD65R,0.0127X0.0007*%
%ADD66R,0.0269X0.0007*%
%ADD67R,0.0326X0.0007*%
%ADD68R,0.0212X0.0007*%
%ADD69R,0.0135X0.0007*%
%ADD70R,0.0127X0.0007*%
%ADD71R,0.0127X0.0007*%
%ADD72R,0.0283X0.0007*%
%ADD73R,0.0333X0.0007*%
%ADD74R,0.0227X0.0007*%
%ADD75R,0.0135X0.0007*%
%ADD76R,0.0127X0.0007*%
%ADD77R,0.0290X0.0007*%
%ADD78R,0.0333X0.0007*%
%ADD79R,0.0135X0.0007*%
%ADD80R,0.0297X0.0007*%
%ADD81R,0.0340X0.0007*%
%ADD82R,0.0149X0.0007*%
%ADD83R,0.0135X0.0007*%
%ADD84R,0.0142X0.0007*%
%ADD85R,0.0312X0.0007*%
%ADD86R,0.0156X0.0007*%
%ADD87R,0.0340X0.0007*%
%ADD88R,0.0142X0.0007*%
%ADD89R,0.0120X0.0007*%
%ADD90R,0.0142X0.0007*%
%ADD91R,0.0326X0.0007*%
%ADD92R,0.0149X0.0007*%
%ADD93R,0.0142X0.0007*%
%ADD94R,0.0106X0.0007*%
%ADD95R,0.0127X0.0007*%
%ADD96R,0.0135X0.0007*%
%ADD97R,0.0113X0.0007*%
%ADD98R,0.0163X0.0007*%
%ADD99R,0.0163X0.0007*%
%ADD100R,0.0156X0.0007*%
%ADD101R,0.0113X0.0007*%
%ADD102R,0.0120X0.0007*%
%ADD103R,0.0163X0.0007*%
%ADD104R,0.0163X0.0007*%
%ADD105R,0.0085X0.0007*%
%ADD106R,0.0170X0.0007*%
%ADD107R,0.0177X0.0007*%
%ADD108R,0.0085X0.0007*%
%ADD109R,0.0078X0.0007*%
%ADD110R,0.0177X0.0007*%
%ADD111R,0.0106X0.0007*%
%ADD112R,0.0113X0.0007*%
%ADD113R,0.0085X0.0007*%
%ADD114R,0.0177X0.0007*%
%ADD115R,0.0085X0.0007*%
%ADD116R,0.0177X0.0007*%
%ADD117R,0.0177X0.0007*%
%ADD118R,0.0099X0.0007*%
%ADD119R,0.0184X0.0007*%
%ADD120R,0.0099X0.0007*%
%ADD121R,0.0368X0.0007*%
%ADD122R,0.0191X0.0007*%
%ADD123R,0.0368X0.0007*%
%ADD124R,0.0163X0.0007*%
%ADD125R,0.0184X0.0007*%
%ADD126R,0.0368X0.0007*%
%ADD127R,0.0290X0.0007*%
%ADD128R,0.0113X0.0007*%
%ADD129R,0.0085X0.0007*%
%ADD130R,0.0368X0.0007*%
%ADD131R,0.0276X0.0007*%
%ADD132R,0.0361X0.0007*%
%ADD133R,0.0255X0.0007*%
%ADD134R,0.0085X0.0007*%
%ADD135R,0.0361X0.0007*%
%ADD136R,0.0220X0.0007*%
%ADD137R,0.0361X0.0007*%
%ADD138R,0.0099X0.0007*%
%ADD139R,0.0106X0.0007*%
%ADD140R,0.0106X0.0007*%
%ADD141R,0.0120X0.0007*%
%ADD142R,0.0219X0.0007*%
%ADD143R,0.0142X0.0007*%
%ADD144R,0.0219X0.0007*%
%ADD145R,0.0312X0.0007*%
%ADD146R,0.0219X0.0007*%
%ADD147R,0.0347X0.0007*%
%ADD148R,0.0312X0.0007*%
%ADD149R,0.0304X0.0007*%
%ADD150R,0.0340X0.0007*%
%ADD151R,0.0312X0.0007*%
%ADD152R,0.0234X0.0007*%
%ADD153R,0.0297X0.0007*%
%ADD154R,0.0219X0.0007*%
%ADD155R,0.0312X0.0007*%
%ADD156R,0.0227X0.0007*%
%ADD157R,0.0283X0.0007*%
%ADD158R,0.0290X0.0007*%
%ADD159R,0.0269X0.0007*%
%ADD160R,0.0205X0.0007*%
%ADD161R,0.0184X0.0007*%
%ADD162R,0.0255X0.0007*%
%ADD163R,0.0198X0.0007*%
%ADD164R,0.0191X0.0007*%
%ADD165R,0.0184X0.0007*%
%ADD166R,0.0241X0.0007*%
%ADD167R,0.0255X0.0007*%
%ADD168R,0.0191X0.0007*%
%ADD169R,0.0198X0.0007*%
%ADD170R,0.0184X0.0007*%
%ADD171R,0.0234X0.0007*%
%ADD172R,0.0212X0.0007*%
%ADD173R,0.0184X0.0007*%
%ADD174R,0.0170X0.0007*%
%ADD175R,0.0170X0.0007*%
%ADD176R,0.0156X0.0007*%
%ADD177R,0.0035X0.0007*%
%ADD178R,0.0170X0.0007*%
%ADD179R,0.0042X0.0007*%
%ADD180R,0.0064X0.0007*%
%ADD181R,0.0028X0.0007*%
%ADD182R,0.0035X0.0007*%
%ADD183R,0.0156X0.0007*%
%ADD184R,0.0177X0.0007*%
%ADD185R,0.0170X0.0007*%
%ADD186R,0.0028X0.0007*%
%ADD187R,0.0028X0.0007*%
%ADD188R,0.0057X0.0007*%
%ADD189R,0.0057X0.0007*%
%ADD190R,0.0042X0.0007*%
%ADD191R,0.0043X0.0007*%
%ADD192R,0.0050X0.0007*%
%ADD193R,0.0050X0.0007*%
%ADD194R,0.0043X0.0007*%
%ADD195R,0.0043X0.0007*%
%ADD196R,0.0035X0.0007*%
%ADD197R,0.0035X0.0007*%
%ADD198R,0.0078X0.0007*%
%ADD199R,0.0064X0.0007*%
D10*
X001182Y000615D02*
X001382Y000615D01*
X001382Y000748D01*
X001382Y000836D02*
X001182Y000836D01*
X001182Y000936D01*
X001216Y000969D01*
X001282Y000969D01*
X001316Y000936D01*
X001316Y000836D01*
X001382Y001057D02*
X001182Y001057D01*
X001316Y001124D02*
X001382Y001190D01*
X001182Y001190D01*
X001316Y001124D02*
X001382Y001057D01*
X000895Y001363D02*
X000895Y001563D01*
X000762Y001563D02*
X000762Y001363D01*
X000829Y001430D01*
X000895Y001363D01*
X000674Y001463D02*
X000674Y001530D01*
X000641Y001563D01*
X000541Y001563D01*
X000541Y001363D01*
X000541Y001430D02*
X000641Y001430D01*
X000674Y001463D01*
X000453Y001363D02*
X000320Y001363D01*
X000320Y001563D01*
X000432Y002347D02*
X000399Y002381D01*
X000432Y002347D02*
X000499Y002347D01*
X000532Y002381D01*
X000532Y002414D01*
X000499Y002447D01*
X000432Y002447D01*
X000399Y002481D01*
X000399Y002514D01*
X000432Y002547D01*
X000499Y002547D01*
X000532Y002514D01*
X000620Y002514D02*
X000620Y002381D01*
X000653Y002347D01*
X000720Y002347D01*
X000753Y002381D01*
X000841Y002347D02*
X000974Y002347D01*
X000841Y002347D02*
X000841Y002547D01*
X000753Y002514D02*
X000720Y002547D01*
X000653Y002547D01*
X000620Y002514D01*
X001182Y002656D02*
X001216Y002623D01*
X001249Y002623D01*
X001282Y002656D01*
X001282Y002723D01*
X001316Y002756D01*
X001349Y002756D01*
X001382Y002723D01*
X001382Y002656D01*
X001349Y002623D01*
X001182Y002656D02*
X001182Y002723D01*
X001216Y002756D01*
X001182Y002844D02*
X001182Y002944D01*
X001216Y002977D01*
X001349Y002977D01*
X001382Y002944D01*
X001382Y002844D01*
X001182Y002844D01*
X001249Y003065D02*
X001182Y003131D01*
X001249Y003198D01*
X001382Y003198D01*
X001282Y003198D02*
X001282Y003065D01*
X001249Y003065D02*
X001382Y003065D01*
X000935Y003371D02*
X000935Y003504D01*
X000868Y003571D01*
X000801Y003504D01*
X000801Y003371D01*
X000714Y003404D02*
X000714Y003538D01*
X000680Y003571D01*
X000580Y003571D01*
X000580Y003371D01*
X000680Y003371D01*
X000714Y003404D01*
X000801Y003471D02*
X000935Y003471D01*
X001182Y003601D02*
X001182Y003668D01*
X001216Y003701D01*
X001182Y003668D01*
X001182Y003601D01*
X001216Y003568D01*
X001349Y003568D01*
X001382Y003601D01*
X001382Y003668D01*
X001349Y003701D01*
X001282Y003701D01*
X001282Y003634D01*
X001282Y003701D01*
X001349Y003701D01*
X001382Y003668D01*
X001382Y003601D01*
X001349Y003568D01*
X001216Y003568D01*
X001182Y003601D01*
X001182Y003789D02*
X001382Y003922D01*
X001182Y003922D01*
X001382Y003922D01*
X001182Y003789D01*
X001382Y003789D01*
X001182Y003789D01*
X001182Y004010D02*
X001182Y004110D01*
X001216Y004143D01*
X001349Y004143D01*
X001382Y004110D01*
X001382Y004010D01*
X001182Y004010D01*
X001182Y004110D01*
X001216Y004143D01*
X001349Y004143D01*
X001382Y004110D01*
X001382Y004010D01*
X001182Y004010D01*
X000862Y004355D02*
X000762Y004355D01*
X000762Y004555D01*
X000862Y004555D01*
X000895Y004522D01*
X000895Y004388D01*
X000862Y004355D01*
X000674Y004355D02*
X000674Y004555D01*
X000541Y004555D02*
X000674Y004355D01*
X000541Y004355D02*
X000541Y004555D01*
X000453Y004522D02*
X000420Y004555D01*
X000353Y004555D01*
X000320Y004522D01*
X000320Y004388D01*
X000353Y004355D01*
X000420Y004355D01*
X000453Y004388D01*
X000453Y004455D01*
X000387Y004455D01*
X001186Y004637D02*
X001319Y004637D01*
X001386Y004704D01*
X001319Y004770D01*
X001186Y004770D01*
X001219Y004858D02*
X001353Y004858D01*
X001386Y004891D01*
X001386Y004958D01*
X001353Y004991D01*
X001353Y005079D02*
X001386Y005112D01*
X001386Y005179D01*
X001353Y005212D01*
X001353Y005079D02*
X001219Y005079D01*
X001186Y005112D01*
X001186Y005179D01*
X001219Y005212D01*
X001219Y004991D02*
X001186Y004958D01*
X001186Y004891D01*
X001219Y004858D01*
X000901Y005339D02*
X000835Y005339D01*
X000801Y005373D01*
X000801Y005506D01*
X000835Y005539D01*
X000901Y005539D01*
X000935Y005506D01*
X000935Y005373D02*
X000901Y005339D01*
X000714Y005373D02*
X000680Y005339D01*
X000614Y005339D01*
X000580Y005373D01*
X000580Y005506D01*
X000614Y005539D01*
X000680Y005539D01*
X000714Y005506D01*
X000493Y005539D02*
X000493Y005406D01*
X000426Y005339D01*
X000359Y005406D01*
X000359Y005539D01*
X001170Y005584D02*
X001170Y005684D01*
X001204Y005717D01*
X001237Y005717D01*
X001270Y005684D01*
X001270Y005584D01*
X001370Y005584D02*
X001170Y005584D01*
X001270Y005684D02*
X001304Y005717D01*
X001337Y005717D01*
X001370Y005684D01*
X001370Y005584D01*
X001370Y005805D02*
X001237Y005805D01*
X001170Y005872D01*
X001237Y005938D01*
X001370Y005938D01*
X001270Y005938D02*
X001270Y005805D01*
X001170Y006026D02*
X001170Y006159D01*
X001170Y006093D02*
X001370Y006093D01*
X000907Y006363D02*
X000907Y006563D01*
X000841Y006563D02*
X000974Y006563D01*
X000753Y006496D02*
X000753Y006363D01*
X000753Y006463D02*
X000620Y006463D01*
X000620Y006496D02*
X000620Y006363D01*
X000532Y006396D02*
X000532Y006430D01*
X000499Y006463D01*
X000399Y006463D01*
X000499Y006463D02*
X000532Y006496D01*
X000532Y006530D01*
X000499Y006563D01*
X000399Y006563D01*
X000399Y006363D01*
X000499Y006363D01*
X000532Y006396D01*
X000620Y006496D02*
X000686Y006563D01*
X000753Y006496D01*
X002316Y005241D02*
X002316Y005041D01*
X002450Y005041D01*
X002537Y005041D02*
X002671Y005041D01*
X002758Y005141D02*
X002892Y005141D01*
X002979Y005041D02*
X003046Y005041D01*
X003013Y005041D02*
X003013Y005241D01*
X003046Y005241D02*
X002979Y005241D01*
X003127Y005208D02*
X003160Y005241D01*
X003227Y005241D01*
X003260Y005208D01*
X003260Y005174D01*
X003127Y005041D01*
X003260Y005041D01*
X003348Y005074D02*
X003348Y005208D01*
X003381Y005241D01*
X003448Y005241D01*
X003481Y005208D01*
X003481Y005074D02*
X003448Y005041D01*
X003381Y005041D01*
X003348Y005074D01*
X003408Y004881D02*
X003341Y004814D01*
X003274Y004881D01*
X003274Y004681D01*
X003187Y004681D02*
X003053Y004681D01*
X003053Y004881D01*
X003187Y004881D01*
X003120Y004781D02*
X003053Y004781D01*
X002966Y004881D02*
X002832Y004881D01*
X002899Y004881D02*
X002899Y004681D01*
X002537Y005041D02*
X002537Y005074D01*
X002671Y005208D01*
X002671Y005241D01*
X002537Y005241D01*
X002450Y005241D02*
X002316Y005241D01*
X002316Y005141D02*
X002383Y005141D01*
X002283Y004793D02*
X002216Y004793D01*
X002183Y004760D01*
X002096Y004760D02*
X002096Y004693D01*
X002062Y004660D01*
X001962Y004660D01*
X002029Y004660D02*
X002096Y004593D01*
X002183Y004593D02*
X002317Y004726D01*
X002317Y004760D01*
X002283Y004793D01*
X002096Y004760D02*
X002062Y004793D01*
X001962Y004793D01*
X001962Y004593D01*
X002183Y004593D02*
X002317Y004593D01*
X003408Y004681D02*
X003408Y004881D01*
X003495Y004881D02*
X003595Y004881D01*
X003629Y004848D01*
X003629Y004781D01*
X003595Y004748D01*
X003495Y004748D01*
X003495Y004681D02*
X003495Y004881D01*
X003790Y005041D02*
X003790Y005241D01*
X003923Y005041D01*
X003923Y005241D01*
X004011Y005208D02*
X004011Y005074D01*
X004044Y005041D01*
X004111Y005041D01*
X004144Y005074D01*
X004144Y005208D01*
X004111Y005241D01*
X004044Y005241D01*
X004011Y005208D01*
X004232Y005241D02*
X004232Y005041D01*
X004365Y005041D02*
X004365Y005241D01*
X004232Y005241D02*
X004365Y005041D01*
X004379Y004881D02*
X004512Y004681D01*
X004512Y004881D01*
X004379Y004881D02*
X004379Y004681D01*
X004292Y004681D02*
X004158Y004681D01*
X004158Y004881D01*
X004292Y004881D01*
X004225Y004781D02*
X004158Y004781D01*
X004071Y004748D02*
X004071Y004714D01*
X004037Y004681D01*
X003970Y004681D01*
X003937Y004714D01*
X003970Y004781D02*
X004037Y004781D01*
X004071Y004748D01*
X004071Y004848D02*
X004037Y004881D01*
X003970Y004881D01*
X003937Y004848D01*
X003937Y004814D01*
X003970Y004781D01*
X004600Y004814D02*
X004633Y004781D01*
X004700Y004781D01*
X004733Y004748D01*
X004733Y004714D01*
X004700Y004681D01*
X004633Y004681D01*
X004600Y004714D01*
X004600Y004814D02*
X004600Y004848D01*
X004633Y004881D01*
X004700Y004881D01*
X004733Y004848D01*
X004821Y004848D02*
X004821Y004714D01*
X004854Y004681D01*
X004921Y004681D01*
X004954Y004714D01*
X004954Y004848D01*
X004921Y004881D01*
X004854Y004881D01*
X004821Y004848D01*
X004774Y005041D02*
X004707Y005041D01*
X004674Y005074D01*
X004674Y005208D01*
X004707Y005241D01*
X004774Y005241D01*
X004807Y005208D01*
X004895Y005208D02*
X004928Y005241D01*
X004995Y005241D01*
X005028Y005208D01*
X005028Y005074D01*
X004995Y005041D01*
X004928Y005041D01*
X004895Y005074D01*
X004895Y005208D01*
X004807Y005074D02*
X004774Y005041D01*
X005042Y004881D02*
X005142Y004881D01*
X005175Y004848D01*
X005175Y004781D01*
X005142Y004748D01*
X005042Y004748D01*
X005109Y004748D02*
X005175Y004681D01*
X005042Y004681D02*
X005042Y004881D01*
X005116Y005041D02*
X005116Y005241D01*
X005249Y005041D01*
X005249Y005241D01*
X005337Y005241D02*
X005470Y005241D01*
X005403Y005241D02*
X005403Y005041D01*
X005558Y005041D02*
X005558Y005174D01*
X005624Y005241D01*
X005691Y005174D01*
X005691Y005041D01*
X005779Y005074D02*
X005812Y005041D01*
X005879Y005041D01*
X005912Y005074D01*
X005779Y005074D02*
X005779Y005208D01*
X005812Y005241D01*
X005879Y005241D01*
X005912Y005208D01*
X006000Y005241D02*
X006133Y005241D01*
X006066Y005241D02*
X006066Y005041D01*
X005838Y004848D02*
X005805Y004881D01*
X005738Y004881D01*
X005705Y004848D01*
X005617Y004881D02*
X005617Y004748D01*
X005551Y004681D01*
X005484Y004748D01*
X005484Y004881D01*
X005705Y004681D02*
X005838Y004814D01*
X005838Y004848D01*
X005838Y004681D02*
X005705Y004681D01*
X005691Y005141D02*
X005558Y005141D01*
X006281Y006157D02*
X006281Y006357D01*
X006381Y006357D01*
X006414Y006323D01*
X006414Y006257D01*
X006381Y006223D01*
X006281Y006223D01*
X006348Y006223D02*
X006414Y006157D01*
X006502Y006190D02*
X006535Y006157D01*
X006602Y006157D01*
X006635Y006190D01*
X006635Y006223D01*
X006602Y006257D01*
X006569Y006257D01*
X006602Y006257D02*
X006635Y006290D01*
X006635Y006323D01*
X006602Y006357D01*
X006535Y006357D01*
X006502Y006323D01*
X006934Y006293D02*
X007134Y006293D01*
X007134Y006139D02*
X007001Y006139D01*
X006934Y006072D01*
X007001Y006005D01*
X007134Y006005D01*
X007034Y006005D02*
X007034Y006139D01*
X006934Y006226D02*
X006934Y006360D01*
X007399Y006363D02*
X007499Y006363D01*
X007532Y006396D01*
X007532Y006430D01*
X007499Y006463D01*
X007399Y006463D01*
X007499Y006463D02*
X007532Y006496D01*
X007532Y006530D01*
X007499Y006563D01*
X007399Y006563D01*
X007399Y006363D01*
X007620Y006363D02*
X007620Y006496D01*
X007686Y006563D01*
X007753Y006496D01*
X007753Y006363D01*
X007753Y006463D02*
X007620Y006463D01*
X007841Y006563D02*
X007974Y006563D01*
X007907Y006563D02*
X007907Y006363D01*
X007134Y005884D02*
X007134Y005784D01*
X006934Y005784D01*
X006934Y005884D01*
X006968Y005918D01*
X007001Y005918D01*
X007034Y005884D01*
X007034Y005784D01*
X007034Y005884D02*
X007068Y005918D01*
X007101Y005918D01*
X007134Y005884D01*
X007359Y005539D02*
X007359Y005406D01*
X007426Y005339D01*
X007493Y005406D01*
X007493Y005539D01*
X007580Y005506D02*
X007580Y005373D01*
X007614Y005339D01*
X007680Y005339D01*
X007714Y005373D01*
X007801Y005373D02*
X007835Y005339D01*
X007901Y005339D01*
X007935Y005373D01*
X007935Y005506D02*
X007901Y005539D01*
X007835Y005539D01*
X007801Y005506D01*
X007801Y005373D01*
X007714Y005506D02*
X007680Y005539D01*
X007614Y005539D01*
X007580Y005506D01*
X007158Y005177D02*
X007158Y005110D01*
X007125Y005077D01*
X006991Y005077D01*
X006958Y005110D01*
X006958Y005177D01*
X006991Y005210D01*
X007125Y005210D02*
X007158Y005177D01*
X007125Y004989D02*
X007158Y004956D01*
X007158Y004889D01*
X007125Y004856D01*
X006991Y004856D01*
X006958Y004889D01*
X006958Y004956D01*
X006991Y004989D01*
X006958Y004768D02*
X007091Y004768D01*
X007158Y004701D01*
X007091Y004635D01*
X006958Y004635D01*
X007320Y004522D02*
X007320Y004388D01*
X007353Y004355D01*
X007420Y004355D01*
X007453Y004388D01*
X007453Y004455D01*
X007387Y004455D01*
X007453Y004522D02*
X007420Y004555D01*
X007353Y004555D01*
X007320Y004522D01*
X007541Y004555D02*
X007541Y004355D01*
X007674Y004355D02*
X007674Y004555D01*
X007762Y004555D02*
X007862Y004555D01*
X007895Y004522D01*
X007895Y004388D01*
X007862Y004355D01*
X007762Y004355D01*
X007762Y004555D01*
X007674Y004355D02*
X007541Y004555D01*
X007158Y004192D02*
X007125Y004226D01*
X006991Y004226D01*
X006958Y004192D01*
X006958Y004092D01*
X007158Y004092D01*
X007158Y004192D01*
X007158Y004005D02*
X006958Y004005D01*
X006958Y003871D02*
X007158Y004005D01*
X007158Y003871D02*
X006958Y003871D01*
X006991Y003784D02*
X006958Y003750D01*
X006958Y003684D01*
X006991Y003650D01*
X007125Y003650D01*
X007158Y003684D01*
X007158Y003750D01*
X007125Y003784D01*
X007058Y003784D01*
X007058Y003717D01*
X007359Y003538D02*
X007359Y003504D01*
X007393Y003471D01*
X007459Y003471D01*
X007493Y003438D01*
X007493Y003404D01*
X007459Y003371D01*
X007393Y003371D01*
X007359Y003404D01*
X007359Y003538D02*
X007393Y003571D01*
X007459Y003571D01*
X007493Y003538D01*
X007580Y003571D02*
X007680Y003571D01*
X007714Y003538D01*
X007714Y003404D01*
X007680Y003371D01*
X007580Y003371D01*
X007580Y003571D01*
X007801Y003504D02*
X007801Y003371D01*
X007801Y003471D02*
X007935Y003471D01*
X007935Y003504D02*
X007935Y003371D01*
X007935Y003504D02*
X007868Y003571D01*
X007801Y003504D01*
X007158Y003241D02*
X007025Y003241D01*
X006958Y003175D01*
X007025Y003108D01*
X007158Y003108D01*
X007125Y003020D02*
X006991Y003020D01*
X006958Y002987D01*
X006958Y002887D01*
X007158Y002887D01*
X007158Y002987D01*
X007125Y003020D01*
X007058Y003108D02*
X007058Y003241D01*
X007091Y002800D02*
X007125Y002800D01*
X007158Y002766D01*
X007158Y002699D01*
X007125Y002666D01*
X007058Y002699D02*
X007058Y002766D01*
X007091Y002800D01*
X006991Y002800D02*
X006958Y002766D01*
X006958Y002699D01*
X006991Y002666D01*
X007025Y002666D01*
X007058Y002699D01*
X007399Y002514D02*
X007399Y002481D01*
X007432Y002447D01*
X007499Y002447D01*
X007532Y002414D01*
X007532Y002381D01*
X007499Y002347D01*
X007432Y002347D01*
X007399Y002381D01*
X007399Y002514D02*
X007432Y002547D01*
X007499Y002547D01*
X007532Y002514D01*
X007620Y002514D02*
X007620Y002381D01*
X007653Y002347D01*
X007720Y002347D01*
X007753Y002381D01*
X007841Y002347D02*
X007974Y002347D01*
X007841Y002347D02*
X007841Y002547D01*
X007753Y002514D02*
X007720Y002547D01*
X007653Y002547D01*
X007620Y002514D01*
X007158Y002297D02*
X007158Y002163D01*
X006958Y002163D01*
X006991Y002076D02*
X006958Y002042D01*
X006958Y001976D01*
X006991Y001942D01*
X007125Y001942D01*
X007158Y001976D01*
X007158Y002042D01*
X007125Y002076D01*
X007125Y001855D02*
X007091Y001855D01*
X007058Y001821D01*
X007058Y001755D01*
X007025Y001721D01*
X006991Y001721D01*
X006958Y001755D01*
X006958Y001821D01*
X006991Y001855D01*
X007125Y001855D02*
X007158Y001821D01*
X007158Y001755D01*
X007125Y001721D01*
X007320Y001563D02*
X007320Y001363D01*
X007453Y001363D01*
X007541Y001363D02*
X007541Y001563D01*
X007641Y001563D01*
X007674Y001530D01*
X007674Y001463D01*
X007641Y001430D01*
X007541Y001430D01*
X007762Y001363D02*
X007762Y001563D01*
X007895Y001563D02*
X007895Y001363D01*
X007829Y001430D01*
X007762Y001363D01*
X007158Y001234D02*
X006958Y001234D01*
X007091Y001167D02*
X007158Y001234D01*
X007091Y001167D02*
X007158Y001100D01*
X006958Y001100D01*
X006991Y001013D02*
X007058Y001013D01*
X007091Y000979D01*
X007091Y000879D01*
X007158Y000879D02*
X006958Y000879D01*
X006958Y000979D01*
X006991Y001013D01*
X007158Y000792D02*
X007158Y000658D01*
X006958Y000658D01*
X005082Y000881D02*
X005049Y000847D01*
X004982Y000847D01*
X004949Y000881D01*
X004949Y000947D02*
X005016Y000981D01*
X005049Y000981D01*
X005082Y000947D01*
X005082Y000881D01*
X004949Y000947D02*
X004949Y001047D01*
X005082Y001047D01*
X004861Y001014D02*
X004861Y000947D01*
X004828Y000914D01*
X004728Y000914D01*
X004728Y000847D02*
X004728Y001047D01*
X004828Y001047D01*
X004861Y001014D01*
X004795Y000914D02*
X004861Y000847D01*
X002498Y000765D02*
X002364Y000765D01*
X002431Y000765D02*
X002431Y000965D01*
X002364Y000899D01*
X002277Y000932D02*
X002243Y000965D01*
X002177Y000965D01*
X002143Y000932D01*
X002143Y000799D01*
X002177Y000765D01*
X002243Y000765D01*
X002277Y000799D01*
X001374Y001695D02*
X001341Y001662D01*
X001374Y001695D02*
X001374Y001762D01*
X001341Y001796D01*
X001308Y001796D01*
X001274Y001762D01*
X001274Y001695D01*
X001241Y001662D01*
X001208Y001662D01*
X001174Y001695D01*
X001174Y001762D01*
X001208Y001796D01*
X001208Y001883D02*
X001341Y001883D01*
X001374Y001916D01*
X001374Y001983D01*
X001341Y002017D01*
X001374Y002104D02*
X001174Y002104D01*
X001208Y002017D02*
X001174Y001983D01*
X001174Y001916D01*
X001208Y001883D01*
X001374Y002104D02*
X001374Y002238D01*
X000459Y003371D02*
X000393Y003371D01*
X000359Y003404D01*
X000393Y003471D02*
X000459Y003471D01*
X000493Y003438D01*
X000493Y003404D01*
X000459Y003371D01*
X000393Y003471D02*
X000359Y003504D01*
X000359Y003538D01*
X000393Y003571D01*
X000459Y003571D01*
X000493Y003538D01*
X002590Y006224D02*
X002590Y006425D01*
X002690Y006425D01*
X002724Y006391D01*
X002724Y006325D01*
X002690Y006291D01*
X002590Y006291D01*
X002657Y006291D02*
X002724Y006224D01*
X002811Y006224D02*
X002945Y006224D01*
X002878Y006224D02*
X002878Y006425D01*
X002811Y006358D01*
X005952Y003276D02*
X006053Y003276D01*
X006086Y003242D01*
X006086Y003176D01*
X006053Y003142D01*
X005952Y003142D01*
X005952Y003076D02*
X005952Y003276D01*
X006019Y003142D02*
X006086Y003076D01*
X006173Y003176D02*
X006307Y003176D01*
X006274Y003076D02*
X006274Y003276D01*
X006173Y003176D01*
D11*
X004874Y003083D02*
X004174Y003083D01*
X004174Y003783D01*
X004874Y003783D01*
X004874Y003083D01*
D12*
X004957Y003163D02*
X004959Y003174D01*
X004964Y003185D01*
X004972Y003193D01*
X004983Y003198D01*
X004994Y003200D01*
X005005Y003198D01*
X005016Y003193D01*
X005024Y003185D01*
X005029Y003174D01*
X005031Y003163D01*
X005029Y003152D01*
X005024Y003141D01*
X005016Y003133D01*
X005005Y003128D01*
X004994Y003126D01*
X004983Y003128D01*
X004972Y003133D01*
X004964Y003141D01*
X004959Y003152D01*
X004957Y003163D01*
D13*
X004302Y002693D02*
X004155Y002693D01*
X004229Y002693D02*
X004229Y002914D01*
X004155Y002840D01*
X004081Y002914D02*
X004081Y002730D01*
X004045Y002693D01*
X003971Y002693D01*
X003934Y002730D01*
X003934Y002914D01*
D14*
X005769Y001161D03*
X005666Y006041D03*
X003576Y006075D03*
D15*
X002100Y003949D03*
X006631Y003556D03*
D16*
X003127Y001131D02*
X003127Y001106D01*
D17*
X000420Y000556D02*
X000249Y000727D01*
X000249Y001227D01*
X000302Y001477D01*
X000249Y001727D01*
X000249Y002227D01*
X000302Y002477D01*
X000249Y002727D01*
X000249Y003227D01*
X000302Y003477D01*
X000249Y003727D01*
X000249Y004227D01*
X000302Y004477D01*
X000249Y004727D01*
X000249Y005227D01*
X000302Y005477D01*
X000249Y005727D01*
X000249Y006227D01*
X000420Y006595D01*
X000920Y006595D01*
X001091Y006227D01*
X001091Y005727D01*
X001038Y005477D01*
X001091Y005227D01*
X001091Y004727D01*
X001038Y004477D01*
X001091Y004227D01*
X001091Y003727D01*
X001038Y003477D01*
X001091Y003227D01*
X001091Y002727D01*
X001038Y002477D01*
X001091Y002227D01*
X001091Y001727D01*
X001038Y001477D01*
X001091Y001227D01*
X001091Y000727D01*
X000920Y000556D01*
X000420Y000556D01*
X007249Y000727D02*
X007420Y000556D01*
X007920Y000556D01*
X008091Y000727D01*
X008091Y001227D01*
X008038Y001477D01*
X008091Y001727D01*
X008091Y002227D01*
X008038Y002477D01*
X008091Y002727D01*
X008091Y003227D01*
X008038Y003477D01*
X008091Y003727D01*
X008091Y004227D01*
X008038Y004477D01*
X008091Y004727D01*
X008091Y005227D01*
X008038Y005477D01*
X008091Y005727D01*
X008091Y006227D01*
X007920Y006595D01*
X007420Y006595D01*
X007249Y006227D01*
X007249Y005727D01*
X007302Y005477D01*
X007249Y005227D01*
X007249Y004727D01*
X007302Y004477D01*
X007249Y004227D01*
X007249Y003727D01*
X007302Y003477D01*
X007249Y003227D01*
X007249Y002727D01*
X007302Y002477D01*
X007249Y002227D01*
X007249Y001727D01*
X007302Y001477D01*
X007249Y001227D01*
X007249Y000727D01*
D18*
X004472Y005300D03*
X002935Y005951D03*
X002921Y005993D03*
X002850Y005951D03*
X002850Y005944D03*
X002801Y005951D03*
X002787Y005993D03*
X002716Y005951D03*
X002716Y005944D03*
X002666Y005951D03*
X002652Y005993D03*
X002624Y005894D03*
X002758Y005894D03*
X002893Y005894D03*
X002518Y005993D03*
X002447Y005951D03*
X002447Y005944D03*
X002489Y005894D03*
D19*
X002486Y006043D03*
X004801Y005300D03*
D20*
X005272Y005703D03*
X005598Y005300D03*
D21*
X005598Y005307D03*
X005711Y005455D03*
X005711Y005469D03*
X005711Y005505D03*
X005711Y005519D03*
X005704Y005569D03*
X005853Y005569D03*
X005853Y005554D03*
X005853Y005519D03*
X005853Y005505D03*
X005853Y005469D03*
X005853Y005455D03*
X005853Y005420D03*
X005853Y005406D03*
X005853Y005377D03*
X005853Y005356D03*
X005853Y005328D03*
X005853Y005307D03*
X005853Y005597D03*
X005853Y005618D03*
X005853Y005647D03*
X005853Y005668D03*
X005853Y005746D03*
X005853Y005774D03*
X005853Y005795D03*
X005853Y005824D03*
X005442Y005554D03*
X005116Y005519D03*
X005116Y005505D03*
X005116Y005469D03*
X005116Y005455D03*
X005116Y005420D03*
X005116Y005406D03*
X005116Y005377D03*
X005116Y005356D03*
X005116Y005328D03*
X005116Y005307D03*
X004968Y005455D03*
X004968Y005469D03*
X004968Y005569D03*
X004968Y005597D03*
X004741Y005597D03*
X004734Y005455D03*
X004592Y005420D03*
X004585Y005406D03*
X004592Y005554D03*
X004578Y005597D03*
X004337Y005569D03*
X004337Y005554D03*
X004210Y005597D03*
X004203Y005569D03*
X004196Y005554D03*
X004189Y005519D03*
X004182Y005505D03*
X004344Y005420D03*
X004125Y005307D03*
X004061Y005554D03*
X004047Y005618D03*
X003799Y005505D03*
X003856Y005307D03*
X003431Y005307D03*
X003431Y005328D03*
X003431Y005356D03*
X003431Y005377D03*
X003431Y005406D03*
X003431Y005420D03*
X003431Y005455D03*
X003431Y005469D03*
X003431Y005505D03*
X003431Y005519D03*
X003431Y005554D03*
X003431Y005569D03*
X003183Y005569D03*
X003183Y005554D03*
X003035Y005554D03*
X003035Y005569D03*
X003035Y005597D03*
X003035Y005618D03*
X003035Y005647D03*
X003035Y005668D03*
X003035Y005746D03*
X003035Y005774D03*
X003035Y005795D03*
X003035Y005824D03*
X002886Y005647D03*
X002886Y005618D03*
X002886Y005597D03*
X002886Y005569D03*
X002886Y005554D03*
X002886Y005519D03*
X002886Y005505D03*
X002886Y005469D03*
X002886Y005455D03*
X002886Y005420D03*
X002886Y005406D03*
X002886Y005377D03*
X002886Y005356D03*
X002886Y005328D03*
X002886Y005307D03*
X003035Y005307D03*
X003035Y005328D03*
X003035Y005356D03*
X003035Y005377D03*
X003035Y005406D03*
X003035Y005420D03*
X003035Y005455D03*
X003035Y005469D03*
X003035Y005505D03*
X003035Y005519D03*
X002482Y005519D03*
X002482Y005505D03*
X002482Y005469D03*
X002482Y005455D03*
X002482Y005420D03*
X002482Y005406D03*
X002482Y005377D03*
X002482Y005356D03*
X002482Y005328D03*
X002482Y005307D03*
X002482Y005554D03*
X002482Y005569D03*
X002482Y005597D03*
X002482Y005618D03*
X002482Y005647D03*
D22*
X002684Y005307D03*
X003420Y005597D03*
X003753Y005668D03*
X003760Y005647D03*
X003767Y005618D03*
X003774Y005597D03*
X003782Y005569D03*
X003796Y005519D03*
X003746Y005696D03*
X004214Y005618D03*
X004221Y005647D03*
X004228Y005668D03*
X004249Y005746D03*
X004256Y005774D03*
X004263Y005795D03*
X004270Y005824D03*
X004348Y005597D03*
X004348Y005406D03*
X004964Y005420D03*
X004964Y005554D03*
X005233Y005668D03*
X005446Y005569D03*
X005446Y005420D03*
X005297Y005406D03*
X005297Y005377D03*
X005297Y005356D03*
X005297Y005328D03*
X005297Y005307D03*
X005701Y005420D03*
D23*
X005439Y005455D03*
X005439Y005469D03*
X005439Y005505D03*
X005439Y005519D03*
X005439Y005647D03*
X005439Y005668D03*
X005439Y005696D03*
X005439Y005746D03*
X005439Y005774D03*
X005439Y005795D03*
X005439Y005824D03*
X005113Y005668D03*
X005113Y005647D03*
X005439Y005356D03*
X005439Y005328D03*
X005439Y005307D03*
X004730Y005569D03*
X004589Y005569D03*
X004334Y005455D03*
X004072Y005505D03*
X004072Y005519D03*
X004058Y005569D03*
X004051Y005597D03*
X003930Y005597D03*
X003923Y005569D03*
X003909Y005505D03*
X003576Y005505D03*
X003576Y005519D03*
X003576Y005554D03*
X003576Y005569D03*
X003576Y005597D03*
X003576Y005618D03*
X003576Y005647D03*
X003576Y005668D03*
X003576Y005746D03*
X003576Y005774D03*
X003576Y005795D03*
X003576Y005824D03*
X003180Y005668D03*
X003180Y005647D03*
X003180Y005519D03*
X003180Y005505D03*
X003180Y005469D03*
X003180Y005455D03*
X003180Y005420D03*
X003180Y005406D03*
X003180Y005377D03*
X003180Y005356D03*
X003180Y005328D03*
X003180Y005307D03*
X003576Y005307D03*
X003576Y005328D03*
X003576Y005356D03*
X003576Y005377D03*
X003576Y005406D03*
X003576Y005420D03*
X003576Y005455D03*
X003576Y005469D03*
X002889Y005923D03*
X002620Y005923D03*
X002486Y005923D03*
X002585Y005647D03*
X002592Y005618D03*
X002599Y005597D03*
X002620Y005519D03*
X002620Y005505D03*
X002634Y005455D03*
X002748Y005505D03*
X002776Y005618D03*
X002783Y005647D03*
D24*
X004369Y005618D03*
X004468Y005696D03*
X004468Y005307D03*
X005226Y005647D03*
X005453Y005597D03*
X005453Y005406D03*
X006154Y005554D03*
D25*
X006122Y005519D03*
X006065Y005455D03*
X006023Y005406D03*
X005690Y005406D03*
X005690Y005597D03*
X004961Y005406D03*
X004798Y005307D03*
X004734Y005377D03*
X004748Y005469D03*
X004755Y005618D03*
X004125Y005328D03*
X003856Y005328D03*
X003728Y005774D03*
X003721Y005795D03*
X003714Y005824D03*
X003190Y005597D03*
D26*
X002758Y005554D03*
X002751Y005519D03*
X002610Y005554D03*
X004975Y005307D03*
D27*
X006104Y005307D03*
X006104Y005328D03*
X006104Y005356D03*
X006104Y005377D03*
D28*
X005853Y005363D03*
X005853Y005314D03*
X005853Y005413D03*
X005853Y005462D03*
X005853Y005512D03*
X005853Y005562D03*
X005853Y005611D03*
X005853Y005661D03*
X005853Y005781D03*
X005853Y005831D03*
X005704Y005562D03*
X005711Y005512D03*
X005711Y005462D03*
X005442Y005562D03*
X005116Y005512D03*
X005116Y005462D03*
X005116Y005413D03*
X005116Y005363D03*
X005116Y005314D03*
X004968Y005462D03*
X004968Y005562D03*
X004748Y005611D03*
X004592Y005562D03*
X004585Y005413D03*
X004344Y005413D03*
X004337Y005562D03*
X004210Y005611D03*
X004196Y005562D03*
X004224Y005661D03*
X004125Y005314D03*
X003856Y005314D03*
X003799Y005512D03*
X003785Y005562D03*
X003771Y005611D03*
X003431Y005562D03*
X003431Y005512D03*
X003431Y005462D03*
X003431Y005413D03*
X003431Y005363D03*
X003431Y005314D03*
X003183Y005562D03*
X003035Y005562D03*
X003035Y005611D03*
X003035Y005661D03*
X003035Y005781D03*
X003035Y005831D03*
X002886Y005611D03*
X002886Y005562D03*
X002886Y005512D03*
X002886Y005462D03*
X002886Y005413D03*
X002886Y005363D03*
X002886Y005314D03*
X003035Y005314D03*
X003035Y005363D03*
X003035Y005413D03*
X003035Y005462D03*
X003035Y005512D03*
X002482Y005512D03*
X002482Y005562D03*
X002482Y005611D03*
X002482Y005462D03*
X002482Y005413D03*
X002482Y005363D03*
X002482Y005314D03*
D29*
X002684Y005314D03*
X003760Y005661D03*
X003725Y005781D03*
X004256Y005781D03*
X004568Y005611D03*
X004737Y005462D03*
X004964Y005413D03*
X004957Y005611D03*
X005297Y005363D03*
X005297Y005314D03*
X005693Y005413D03*
D30*
X005439Y005462D03*
X005439Y005512D03*
X005439Y005661D03*
X005439Y005781D03*
X005439Y005831D03*
X005113Y005661D03*
X005439Y005314D03*
X004072Y005512D03*
X004058Y005562D03*
X004051Y005611D03*
X003923Y005562D03*
X003576Y005562D03*
X003576Y005611D03*
X003576Y005661D03*
X003576Y005781D03*
X003576Y005831D03*
X003576Y005512D03*
X003576Y005462D03*
X003576Y005413D03*
X003576Y005363D03*
X003576Y005314D03*
X003180Y005314D03*
X003180Y005363D03*
X003180Y005413D03*
X003180Y005462D03*
X003180Y005512D03*
X003180Y005661D03*
X002776Y005611D03*
X002762Y005562D03*
X002620Y005512D03*
X002634Y005462D03*
X002592Y005611D03*
D31*
X002854Y005781D03*
X004468Y005314D03*
D32*
X004801Y005314D03*
D33*
X004723Y005413D03*
X004971Y005314D03*
X004185Y005512D03*
X002606Y005562D03*
D34*
X003990Y005781D03*
X004125Y005363D03*
X005598Y005314D03*
D35*
X005559Y005363D03*
X006104Y005363D03*
X006104Y005314D03*
D36*
X005853Y005321D03*
X005853Y005335D03*
X005853Y005349D03*
X005853Y005370D03*
X005853Y005385D03*
X005853Y005399D03*
X005853Y005427D03*
X005853Y005434D03*
X005853Y005448D03*
X005853Y005477D03*
X005853Y005491D03*
X005853Y005498D03*
X005853Y005526D03*
X005853Y005540D03*
X005853Y005547D03*
X005853Y005576D03*
X005853Y005590D03*
X005853Y005604D03*
X005853Y005625D03*
X005853Y005639D03*
X005853Y005654D03*
X005853Y005675D03*
X005853Y005689D03*
X005853Y005739D03*
X005853Y005753D03*
X005853Y005767D03*
X005853Y005788D03*
X005853Y005802D03*
X005853Y005816D03*
X005711Y005547D03*
X005711Y005540D03*
X005711Y005526D03*
X005711Y005498D03*
X005711Y005491D03*
X005711Y005477D03*
X005704Y005434D03*
X005442Y005434D03*
X005442Y005448D03*
X005442Y005547D03*
X005237Y005675D03*
X005116Y005547D03*
X005116Y005540D03*
X005116Y005526D03*
X005116Y005498D03*
X005116Y005491D03*
X005116Y005477D03*
X005116Y005448D03*
X005116Y005434D03*
X005116Y005427D03*
X005116Y005399D03*
X005116Y005385D03*
X005116Y005370D03*
X005116Y005349D03*
X005116Y005335D03*
X005116Y005321D03*
X004968Y005427D03*
X004968Y005434D03*
X004968Y005448D03*
X004968Y005477D03*
X004968Y005576D03*
X004968Y005590D03*
X004961Y005604D03*
X004741Y005604D03*
X004592Y005547D03*
X004727Y005434D03*
X004727Y005399D03*
X004337Y005427D03*
X004337Y005434D03*
X004182Y005498D03*
X004189Y005526D03*
X004196Y005547D03*
X004203Y005576D03*
X004203Y005590D03*
X004210Y005604D03*
X004217Y005625D03*
X004217Y005639D03*
X004224Y005654D03*
X004231Y005689D03*
X004238Y005717D03*
X004245Y005739D03*
X004252Y005767D03*
X004260Y005788D03*
X004267Y005816D03*
X004337Y005576D03*
X004075Y005498D03*
X004068Y005526D03*
X003806Y005491D03*
X003792Y005540D03*
X003778Y005590D03*
X003764Y005639D03*
X003431Y005547D03*
X003431Y005540D03*
X003431Y005526D03*
X003431Y005498D03*
X003431Y005491D03*
X003431Y005477D03*
X003431Y005448D03*
X003431Y005434D03*
X003431Y005427D03*
X003431Y005399D03*
X003431Y005385D03*
X003431Y005370D03*
X003431Y005349D03*
X003431Y005335D03*
X003431Y005321D03*
X003183Y005547D03*
X003035Y005547D03*
X003035Y005540D03*
X003035Y005526D03*
X003035Y005498D03*
X003035Y005491D03*
X003035Y005477D03*
X003035Y005448D03*
X003035Y005434D03*
X003035Y005427D03*
X003035Y005399D03*
X003035Y005385D03*
X003035Y005370D03*
X003035Y005349D03*
X003035Y005335D03*
X003035Y005321D03*
X002886Y005321D03*
X002886Y005335D03*
X002886Y005349D03*
X002886Y005370D03*
X002886Y005385D03*
X002886Y005399D03*
X002886Y005427D03*
X002886Y005434D03*
X002886Y005448D03*
X002886Y005477D03*
X002886Y005491D03*
X002886Y005498D03*
X002886Y005526D03*
X002886Y005540D03*
X002886Y005547D03*
X002886Y005576D03*
X002886Y005590D03*
X002886Y005604D03*
X002886Y005625D03*
X002886Y005639D03*
X002886Y005654D03*
X003035Y005654D03*
X003035Y005639D03*
X003035Y005625D03*
X003035Y005604D03*
X003035Y005590D03*
X003035Y005576D03*
X003035Y005675D03*
X003035Y005689D03*
X003035Y005739D03*
X003035Y005753D03*
X003035Y005767D03*
X003035Y005788D03*
X003035Y005802D03*
X003035Y005816D03*
X002482Y005654D03*
X002482Y005639D03*
X002482Y005625D03*
X002482Y005604D03*
X002482Y005590D03*
X002482Y005576D03*
X002482Y005547D03*
X002482Y005540D03*
X002482Y005526D03*
X002482Y005498D03*
X002482Y005491D03*
X002482Y005477D03*
X002482Y005448D03*
X002482Y005434D03*
X002482Y005427D03*
X002482Y005399D03*
X002482Y005385D03*
X002482Y005370D03*
X002482Y005349D03*
X002482Y005335D03*
X002482Y005321D03*
D37*
X002684Y005321D03*
X003187Y005576D03*
X003428Y005576D03*
X003428Y005590D03*
X003753Y005675D03*
X003753Y005689D03*
X003746Y005703D03*
X003760Y005654D03*
X003767Y005625D03*
X003774Y005604D03*
X003782Y005576D03*
X003796Y005526D03*
X003803Y005498D03*
X003852Y005321D03*
X004228Y005675D03*
X004242Y005724D03*
X004249Y005753D03*
X004263Y005802D03*
X004355Y005604D03*
X004348Y005590D03*
X004355Y005399D03*
X004582Y005399D03*
X004730Y005385D03*
X005297Y005385D03*
X005297Y005399D03*
X005297Y005370D03*
X005297Y005349D03*
X005297Y005335D03*
X005297Y005321D03*
X005446Y005427D03*
X005446Y005576D03*
X005693Y005590D03*
X005701Y005576D03*
X005701Y005427D03*
X003732Y005753D03*
X003725Y005788D03*
X003718Y005816D03*
D38*
X003576Y005816D03*
X003576Y005802D03*
X003576Y005788D03*
X003576Y005767D03*
X003576Y005753D03*
X003576Y005739D03*
X003576Y005689D03*
X003576Y005675D03*
X003576Y005654D03*
X003576Y005639D03*
X003576Y005625D03*
X003576Y005604D03*
X003576Y005590D03*
X003576Y005576D03*
X003576Y005547D03*
X003576Y005540D03*
X003576Y005526D03*
X003576Y005498D03*
X003576Y005491D03*
X003576Y005477D03*
X003576Y005448D03*
X003576Y005434D03*
X003576Y005427D03*
X003576Y005399D03*
X003576Y005385D03*
X003576Y005370D03*
X003576Y005349D03*
X003576Y005335D03*
X003576Y005321D03*
X003180Y005321D03*
X003180Y005335D03*
X003180Y005349D03*
X003180Y005370D03*
X003180Y005385D03*
X003180Y005399D03*
X003180Y005427D03*
X003180Y005434D03*
X003180Y005448D03*
X003180Y005477D03*
X003180Y005491D03*
X003180Y005498D03*
X003180Y005526D03*
X003180Y005540D03*
X003180Y005639D03*
X003180Y005654D03*
X003180Y005675D03*
X003180Y005689D03*
X002783Y005639D03*
X002769Y005590D03*
X002613Y005547D03*
X002613Y005540D03*
X002627Y005491D03*
X002599Y005590D03*
X002599Y005604D03*
X002592Y005625D03*
X002585Y005639D03*
X002585Y005654D03*
X003916Y005540D03*
X003923Y005576D03*
X003930Y005590D03*
X003930Y005604D03*
X004044Y005625D03*
X004044Y005639D03*
X004051Y005604D03*
X004051Y005590D03*
X004058Y005576D03*
X004065Y005547D03*
X004065Y005540D03*
X004079Y005491D03*
X004178Y005491D03*
X004192Y005540D03*
X004334Y005448D03*
X004596Y005540D03*
X004589Y005576D03*
X004582Y005590D03*
X004737Y005590D03*
X004730Y005448D03*
X005113Y005654D03*
X005113Y005675D03*
X005113Y005689D03*
X005439Y005689D03*
X005439Y005675D03*
X005439Y005654D03*
X005439Y005639D03*
X005439Y005703D03*
X005439Y005717D03*
X005439Y005724D03*
X005439Y005739D03*
X005439Y005753D03*
X005439Y005767D03*
X005439Y005788D03*
X005439Y005802D03*
X005439Y005816D03*
X005439Y005540D03*
X005439Y005526D03*
X005439Y005498D03*
X005439Y005491D03*
X005439Y005477D03*
X005439Y005349D03*
X005439Y005335D03*
X005439Y005321D03*
D39*
X005449Y005590D03*
X004961Y005547D03*
X004125Y005335D03*
X004125Y005321D03*
X003856Y005335D03*
X003728Y005767D03*
X003721Y005802D03*
X003417Y005604D03*
X003190Y005590D03*
X006016Y005399D03*
X006044Y005434D03*
X006171Y005576D03*
D40*
X005601Y005335D03*
X004815Y005498D03*
X004468Y005321D03*
X004129Y005477D03*
X003852Y005477D03*
X002840Y005675D03*
X002528Y005675D03*
X002528Y005689D03*
D41*
X002521Y005739D03*
X002521Y005753D03*
X002684Y005434D03*
X002684Y005427D03*
X003852Y005448D03*
X004801Y005321D03*
D42*
X004723Y005427D03*
X004971Y005491D03*
X004971Y005498D03*
X004971Y005335D03*
X004971Y005321D03*
X005608Y005689D03*
X003937Y005639D03*
X003937Y005625D03*
X002606Y005576D03*
D43*
X002684Y005399D03*
X002684Y005385D03*
X003852Y005399D03*
X004129Y005399D03*
X005467Y005385D03*
X005601Y005321D03*
X005608Y005675D03*
D44*
X005559Y005370D03*
X006104Y005370D03*
X006104Y005349D03*
X006104Y005335D03*
X006104Y005321D03*
X003300Y005625D03*
D45*
X002684Y005328D03*
X004560Y005618D03*
X004950Y005618D03*
X006033Y005420D03*
X006076Y005469D03*
X006168Y005569D03*
X006189Y005597D03*
D46*
X004465Y005328D03*
D47*
X004801Y005328D03*
X004129Y005469D03*
X003994Y005647D03*
X002840Y005668D03*
X002528Y005696D03*
D48*
X002606Y005569D03*
X002755Y005923D03*
X003937Y005618D03*
X004723Y005420D03*
X004723Y005406D03*
X004971Y005328D03*
D49*
X005601Y005328D03*
X005608Y005668D03*
X004129Y005455D03*
X003350Y005668D03*
D50*
X003852Y005349D03*
X004957Y005399D03*
X005686Y005399D03*
X005686Y005604D03*
X006040Y005427D03*
X006083Y005477D03*
X006125Y005526D03*
X006140Y005540D03*
X006182Y005590D03*
X002684Y005335D03*
D51*
X004468Y005335D03*
X005608Y005639D03*
D52*
X004801Y005335D03*
D53*
X004727Y005392D03*
X004727Y005441D03*
X004585Y005583D03*
X004344Y005583D03*
X004217Y005632D03*
X004203Y005583D03*
X004189Y005533D03*
X004231Y005682D03*
X004238Y005710D03*
X004245Y005731D03*
X004252Y005760D03*
X004337Y005441D03*
X003792Y005533D03*
X003778Y005583D03*
X003431Y005533D03*
X003431Y005484D03*
X003431Y005441D03*
X003431Y005392D03*
X003431Y005342D03*
X003035Y005342D03*
X003035Y005392D03*
X003035Y005441D03*
X003035Y005484D03*
X003035Y005533D03*
X003035Y005583D03*
X003035Y005632D03*
X003035Y005682D03*
X003035Y005760D03*
X003035Y005809D03*
X002886Y005632D03*
X002886Y005583D03*
X002886Y005533D03*
X002886Y005484D03*
X002886Y005441D03*
X002886Y005392D03*
X002886Y005342D03*
X002482Y005342D03*
X002482Y005392D03*
X002482Y005441D03*
X002482Y005484D03*
X002482Y005533D03*
X002482Y005583D03*
X002482Y005632D03*
X004968Y005583D03*
X005116Y005533D03*
X005116Y005484D03*
X005116Y005441D03*
X005116Y005392D03*
X005116Y005342D03*
X004968Y005441D03*
X005442Y005441D03*
X005704Y005441D03*
X005711Y005484D03*
X005711Y005533D03*
X005853Y005533D03*
X005853Y005484D03*
X005853Y005441D03*
X005853Y005392D03*
X005853Y005342D03*
X005853Y005583D03*
X005853Y005632D03*
X005853Y005682D03*
X005853Y005760D03*
X005853Y005809D03*
D54*
X006132Y005533D03*
X006090Y005484D03*
X005679Y005392D03*
X002684Y005342D03*
D55*
X002627Y005484D03*
X002613Y005533D03*
X002599Y005583D03*
X002592Y005632D03*
X002769Y005583D03*
X003180Y005632D03*
X003180Y005682D03*
X003180Y005533D03*
X003180Y005484D03*
X003180Y005441D03*
X003180Y005392D03*
X003180Y005342D03*
X003576Y005342D03*
X003576Y005392D03*
X003576Y005441D03*
X003576Y005484D03*
X003576Y005533D03*
X003576Y005583D03*
X003576Y005632D03*
X003576Y005682D03*
X003576Y005760D03*
X003576Y005809D03*
X003916Y005533D03*
X004065Y005533D03*
X004058Y005583D03*
X004044Y005632D03*
X004737Y005583D03*
X005113Y005682D03*
X005240Y005682D03*
X005439Y005682D03*
X005439Y005710D03*
X005439Y005731D03*
X005439Y005760D03*
X005439Y005809D03*
X005439Y005533D03*
X005439Y005484D03*
X005439Y005342D03*
X002889Y006001D03*
X002620Y006001D03*
X002486Y006001D03*
D56*
X003856Y005342D03*
X004359Y005392D03*
X005449Y005583D03*
X006178Y005583D03*
D57*
X005127Y005583D03*
X004129Y005342D03*
D58*
X004465Y005342D03*
D59*
X004801Y005342D03*
D60*
X004971Y005342D03*
X004971Y005484D03*
X003937Y005632D03*
X002755Y005533D03*
X002755Y006001D03*
D61*
X003187Y005583D03*
X003428Y005583D03*
X003753Y005682D03*
X003746Y005710D03*
X003732Y005760D03*
X003718Y005809D03*
X003767Y005632D03*
X004263Y005809D03*
X005297Y005392D03*
X005297Y005342D03*
X005701Y005583D03*
D62*
X005605Y005342D03*
D63*
X005559Y005632D03*
X006104Y005342D03*
D64*
X004950Y005540D03*
X002684Y005370D03*
X002684Y005349D03*
D65*
X003197Y005604D03*
X003990Y005788D03*
X004125Y005349D03*
X004762Y005477D03*
X005456Y005399D03*
X005456Y005604D03*
D66*
X004854Y005654D03*
X004465Y005349D03*
D67*
X004854Y005349D03*
D68*
X005605Y005349D03*
D69*
X002684Y005356D03*
D70*
X003856Y005356D03*
D71*
X004125Y005356D03*
X003990Y005774D03*
X003990Y005795D03*
D72*
X004465Y005356D03*
X004854Y005647D03*
D73*
X004851Y005356D03*
D74*
X004465Y005668D03*
X005605Y005356D03*
D75*
X002684Y005363D03*
D76*
X003856Y005363D03*
X005676Y005611D03*
D77*
X004468Y005363D03*
D78*
X004851Y005363D03*
D79*
X005134Y005590D03*
X005672Y005385D03*
X004129Y005370D03*
X003852Y005370D03*
D80*
X004465Y005370D03*
D81*
X004847Y005370D03*
D82*
X005141Y005597D03*
X003852Y005406D03*
X002861Y005824D03*
X002684Y005377D03*
D83*
X003852Y005377D03*
D84*
X004125Y005377D03*
X003990Y005746D03*
D85*
X004465Y005377D03*
D86*
X004125Y005406D03*
X004939Y005377D03*
X002858Y005795D03*
X002511Y005824D03*
D87*
X003304Y005618D03*
X005562Y005377D03*
D88*
X004854Y005689D03*
X004125Y005385D03*
X003856Y005385D03*
X003990Y005753D03*
X003990Y005767D03*
D89*
X003987Y005802D03*
X004369Y005385D03*
X004568Y005385D03*
X005226Y005654D03*
X006097Y005491D03*
X006104Y005498D03*
X006147Y005547D03*
X006196Y005604D03*
D90*
X004946Y005385D03*
D91*
X006108Y005385D03*
D92*
X004129Y005392D03*
X002684Y005392D03*
D93*
X003856Y005392D03*
X003990Y005760D03*
D94*
X003739Y005731D03*
X004575Y005392D03*
D95*
X004953Y005392D03*
D96*
X005460Y005392D03*
X005608Y005682D03*
X003350Y005682D03*
D97*
X003990Y005809D03*
X006009Y005392D03*
X006051Y005441D03*
D98*
X002684Y005420D03*
X002684Y005406D03*
D99*
X002684Y005413D03*
D100*
X003856Y005413D03*
X004125Y005413D03*
D101*
X004359Y005611D03*
X005230Y005661D03*
X005449Y005413D03*
X006072Y005462D03*
X006115Y005512D03*
D102*
X006026Y005413D03*
X003413Y005611D03*
D103*
X003852Y005420D03*
X004129Y005420D03*
X002854Y005774D03*
X002514Y005795D03*
D104*
X002514Y005788D03*
X002514Y005802D03*
X002854Y005788D03*
X002854Y005767D03*
X003350Y005675D03*
X003852Y005434D03*
X003852Y005427D03*
X004129Y005427D03*
X004129Y005434D03*
D105*
X003927Y005583D03*
X002780Y005632D03*
X002744Y005484D03*
X002730Y005441D03*
X002638Y005441D03*
D106*
X003856Y005441D03*
D107*
X004129Y005441D03*
X004929Y005533D03*
X002847Y005710D03*
X002847Y005731D03*
D108*
X002787Y005654D03*
X002780Y005625D03*
X002773Y005604D03*
X002765Y005576D03*
X002744Y005498D03*
X002744Y005491D03*
X002737Y005477D03*
X002638Y005448D03*
X002631Y005477D03*
X002624Y005498D03*
X002617Y005526D03*
X002624Y005916D03*
X002489Y005916D03*
X002893Y005916D03*
X003920Y005547D03*
X003913Y005526D03*
X003905Y005498D03*
X003905Y005491D03*
X004734Y005576D03*
D109*
X005247Y005689D03*
X002889Y006008D03*
X002889Y006015D03*
X002620Y006015D03*
X002620Y006008D03*
X002486Y006008D03*
X002486Y006015D03*
X002734Y005448D03*
D110*
X002847Y005717D03*
X002847Y005724D03*
X003994Y005675D03*
X004129Y005448D03*
D111*
X004235Y005703D03*
X004575Y005604D03*
X003789Y005547D03*
X003739Y005724D03*
X003739Y005739D03*
X003350Y005689D03*
X005708Y005448D03*
D112*
X006058Y005448D03*
X005123Y005576D03*
X003990Y005816D03*
X003743Y005717D03*
D113*
X003920Y005554D03*
X003913Y005519D03*
X002773Y005597D03*
X002765Y005569D03*
X002737Y005469D03*
X002737Y005455D03*
X002631Y005469D03*
D114*
X002521Y005746D03*
X003852Y005455D03*
D115*
X003913Y005512D03*
X002737Y005462D03*
D116*
X003852Y005462D03*
D117*
X004129Y005462D03*
D118*
X004330Y005462D03*
D119*
X003849Y005469D03*
X002843Y005696D03*
D120*
X004330Y005469D03*
D121*
X004465Y005477D03*
X004465Y005491D03*
X004465Y005498D03*
D122*
X004129Y005484D03*
X003852Y005484D03*
X002528Y005682D03*
D123*
X004465Y005484D03*
D124*
X004780Y005484D03*
X002514Y005809D03*
D125*
X002525Y005724D03*
X002525Y005717D03*
X002525Y005703D03*
X002843Y005703D03*
X002843Y005689D03*
X004798Y005491D03*
D126*
X004465Y005505D03*
D127*
X004872Y005505D03*
D128*
X005123Y005569D03*
X006108Y005505D03*
X003990Y005824D03*
X003736Y005746D03*
D129*
X003934Y005611D03*
X002751Y005512D03*
D130*
X004465Y005512D03*
D131*
X004879Y005512D03*
D132*
X004461Y005519D03*
D133*
X004890Y005519D03*
D134*
X002758Y005540D03*
X002758Y005547D03*
X002751Y005526D03*
X002758Y005916D03*
D135*
X004461Y005526D03*
D136*
X004907Y005526D03*
D137*
X004461Y005533D03*
D138*
X004330Y005540D03*
X004330Y005547D03*
D139*
X004235Y005696D03*
X003789Y005554D03*
X005120Y005554D03*
X005708Y005554D03*
D140*
X005120Y005562D03*
D141*
X006161Y005562D03*
D142*
X005177Y005604D03*
X005177Y005625D03*
X005177Y005639D03*
D143*
X005463Y005611D03*
X003204Y005611D03*
D144*
X005177Y005611D03*
D145*
X006108Y005611D03*
X006108Y005661D03*
D146*
X005608Y005647D03*
X005177Y005618D03*
X003350Y005647D03*
D147*
X005566Y005618D03*
D148*
X006108Y005618D03*
X006108Y005647D03*
X006108Y005668D03*
D149*
X004851Y005625D03*
X004461Y005625D03*
D150*
X005562Y005625D03*
D151*
X006108Y005625D03*
X006108Y005639D03*
X006108Y005654D03*
X006108Y005675D03*
X006108Y005689D03*
D152*
X003350Y005632D03*
D153*
X004465Y005632D03*
X004854Y005632D03*
D154*
X005177Y005632D03*
D155*
X006108Y005632D03*
X006108Y005682D03*
D156*
X003346Y005639D03*
D157*
X004465Y005639D03*
D158*
X004851Y005639D03*
D159*
X004465Y005647D03*
D160*
X003350Y005654D03*
X005608Y005654D03*
D161*
X003990Y005654D03*
D162*
X004465Y005654D03*
D163*
X002532Y005661D03*
D164*
X002840Y005661D03*
X003350Y005661D03*
D165*
X003990Y005661D03*
D166*
X004465Y005661D03*
D167*
X004854Y005661D03*
D168*
X005608Y005661D03*
D169*
X002532Y005668D03*
D170*
X003990Y005668D03*
D171*
X004851Y005668D03*
D172*
X004854Y005675D03*
X004465Y005675D03*
D173*
X004465Y005682D03*
X004854Y005682D03*
X002843Y005682D03*
X002525Y005710D03*
D174*
X002518Y005760D03*
X002850Y005760D03*
X003990Y005682D03*
D175*
X003990Y005689D03*
X003990Y005703D03*
X002850Y005739D03*
X002850Y005753D03*
X002518Y005767D03*
D176*
X002511Y005816D03*
X002858Y005816D03*
X002858Y005802D03*
X003990Y005739D03*
X003990Y005724D03*
X003990Y005717D03*
X004465Y005689D03*
D177*
X003350Y005696D03*
D178*
X002850Y005746D03*
X002518Y005774D03*
X003990Y005696D03*
D179*
X004854Y005696D03*
X002935Y005972D03*
X002893Y006036D03*
X002858Y005986D03*
X002850Y005972D03*
X002858Y005937D03*
X002893Y005887D03*
X002801Y005972D03*
X002794Y005986D03*
X002758Y006036D03*
X002723Y005986D03*
X002716Y005972D03*
X002723Y005937D03*
X002758Y005887D03*
X002666Y005972D03*
X002659Y005986D03*
X002624Y006036D03*
X002588Y005986D03*
X002588Y005937D03*
X002624Y005887D03*
X002525Y005986D03*
X002489Y006036D03*
X002454Y005986D03*
X002454Y005937D03*
X002489Y005887D03*
D180*
X002620Y006022D03*
X002755Y006022D03*
X002889Y006022D03*
X005254Y005696D03*
D181*
X005605Y005696D03*
D182*
X004468Y005703D03*
X002889Y006043D03*
X002755Y006043D03*
X002620Y006043D03*
D183*
X002858Y005809D03*
X003990Y005731D03*
X003990Y005710D03*
D184*
X002521Y005731D03*
D185*
X002518Y005781D03*
D186*
X002489Y005880D03*
X002624Y005880D03*
D187*
X002758Y005880D03*
X002893Y005880D03*
D188*
X002893Y005901D03*
X002758Y005901D03*
X002624Y005901D03*
X002489Y005901D03*
D189*
X002489Y005909D03*
X002624Y005909D03*
X002758Y005909D03*
X002893Y005909D03*
D190*
X002921Y005930D03*
X002865Y005930D03*
X002850Y005979D03*
X002893Y006029D03*
X002758Y006029D03*
X002716Y005979D03*
X002652Y005930D03*
X002595Y005930D03*
X002518Y005930D03*
X002461Y005930D03*
X002447Y005979D03*
X002489Y006029D03*
X002624Y006029D03*
X002787Y005930D03*
D191*
X002730Y005930D03*
X002581Y005979D03*
D192*
X002521Y005937D03*
X002443Y005972D03*
X002656Y005937D03*
X002790Y005937D03*
X002925Y005937D03*
D193*
X002932Y005944D03*
X002861Y005993D03*
X002797Y005944D03*
X002727Y005993D03*
X002663Y005944D03*
X002592Y005993D03*
X002528Y005944D03*
X002457Y005993D03*
D194*
X002532Y005951D03*
X002581Y005951D03*
X002581Y005944D03*
D195*
X002581Y005972D03*
X002532Y005972D03*
X002928Y005986D03*
D196*
X002932Y005979D03*
X002528Y005979D03*
D197*
X002663Y005979D03*
X002797Y005979D03*
D198*
X002755Y006008D03*
X002755Y006015D03*
D199*
X002486Y006022D03*
M02*
