G75*
%MOIN*%
%OFA0B0*%
%FSLAX24Y24*%
%IPPOS*%
%LPD*%
%AMOC8*
5,1,8,0,0,1.08239X$1,22.5*
%
%ADD10C,0.0740*%
%ADD11C,0.0376*%
%ADD12C,0.0100*%
%ADD13C,0.0060*%
D10*
X000670Y000977D03*
X000670Y001977D03*
X000670Y002977D03*
X000670Y003977D03*
X000670Y004977D03*
X000670Y005977D03*
X007670Y005977D03*
X007670Y004977D03*
X007670Y003977D03*
X007670Y002977D03*
X007670Y001977D03*
X007670Y000977D03*
D11*
X006710Y001370D03*
X006381Y002715D03*
X005124Y002833D03*
X004585Y002833D03*
X003985Y002873D03*
X003964Y003433D03*
X003964Y003994D03*
X004524Y003994D03*
X005085Y003994D03*
X005085Y003433D03*
X006373Y004380D03*
X004678Y005894D03*
X002538Y004588D03*
X002198Y005355D03*
X002950Y002739D03*
X002194Y001528D03*
X003981Y001463D03*
X004609Y001477D03*
D12*
X001210Y000869D02*
X001169Y000771D01*
X007171Y000771D01*
X007130Y000869D01*
X007130Y001084D01*
X007212Y001283D01*
X007364Y001435D01*
X007466Y001477D01*
X007364Y001519D01*
X007212Y001671D01*
X007130Y001869D01*
X007130Y002084D01*
X007212Y002283D01*
X007364Y002435D01*
X007466Y002477D01*
X007364Y002519D01*
X007212Y002671D01*
X007130Y002869D01*
X007130Y003084D01*
X007212Y003283D01*
X007364Y003435D01*
X007493Y003488D01*
X007470Y003495D01*
X007398Y003532D01*
X007331Y003580D01*
X007273Y003638D01*
X006923Y003638D01*
X006923Y003652D02*
X006935Y003670D01*
X006922Y003741D01*
X006922Y003813D01*
X006907Y003828D01*
X006903Y003849D01*
X006844Y003890D01*
X006793Y003941D01*
X006771Y003941D01*
X006754Y003953D01*
X006683Y003941D01*
X006610Y003941D01*
X006595Y003925D01*
X005967Y003814D01*
X005965Y004028D01*
X006160Y004086D01*
X006170Y004076D01*
X006302Y004022D01*
X006444Y004022D01*
X006576Y004076D01*
X006677Y004177D01*
X006731Y004309D01*
X006731Y004451D01*
X006677Y004583D01*
X006576Y004684D01*
X006444Y004738D01*
X006302Y004738D01*
X006170Y004684D01*
X006070Y004583D01*
X006039Y004510D01*
X005960Y004486D01*
X005957Y004772D01*
X004808Y004769D01*
X004874Y005588D01*
X004881Y005591D01*
X004982Y005691D01*
X005036Y005823D01*
X005036Y005965D01*
X005023Y005997D01*
X006896Y005997D01*
X006899Y005939D01*
X006899Y005854D01*
X006904Y005849D01*
X006904Y005842D01*
X006968Y005785D01*
X007028Y005725D01*
X007035Y005725D01*
X007040Y005720D01*
X007125Y005725D01*
X007190Y005725D01*
X007212Y005671D01*
X007364Y005519D01*
X007466Y005477D01*
X007364Y005435D01*
X007212Y005283D01*
X007130Y005084D01*
X007130Y004869D01*
X007212Y004671D01*
X007364Y004519D01*
X007493Y004466D01*
X007470Y004459D01*
X007398Y004422D01*
X007331Y004373D01*
X007273Y004316D01*
X007225Y004249D01*
X007188Y004176D01*
X007163Y004099D01*
X007152Y004027D01*
X007620Y004027D01*
X007620Y003927D01*
X007152Y003927D01*
X007163Y003855D01*
X007188Y003777D01*
X007225Y003704D01*
X007273Y003638D01*
X007209Y003737D02*
X006923Y003737D01*
X006923Y003652D02*
X006929Y001658D01*
X007014Y001573D01*
X007068Y001442D01*
X007068Y001299D01*
X007014Y001168D01*
X006913Y001067D01*
X006781Y001012D01*
X006639Y001012D01*
X006507Y001067D01*
X006407Y001168D01*
X006352Y001299D01*
X006352Y001442D01*
X006407Y001573D01*
X006489Y001656D01*
X006483Y003458D01*
X005972Y003368D01*
X005985Y002111D01*
X004203Y002108D01*
X004202Y001748D01*
X004285Y001665D01*
X004339Y001534D01*
X004339Y001391D01*
X004285Y001260D01*
X004184Y001159D01*
X004052Y001104D01*
X003910Y001104D01*
X003778Y001159D01*
X003678Y001260D01*
X003623Y001391D01*
X003623Y001534D01*
X003678Y001665D01*
X003762Y001750D01*
X003763Y002107D01*
X002398Y002105D01*
X002398Y001961D01*
X002403Y001825D01*
X002497Y001731D01*
X002552Y001599D01*
X002552Y001457D01*
X002497Y001325D01*
X002397Y001224D01*
X002265Y001170D01*
X002122Y001170D01*
X001991Y001224D01*
X001890Y001325D01*
X001836Y001457D01*
X001836Y001599D01*
X001890Y001731D01*
X001963Y001804D01*
X001961Y001863D01*
X001958Y001866D01*
X001958Y001953D01*
X001955Y002040D01*
X001958Y002044D01*
X001958Y002105D01*
X001202Y002103D01*
X001210Y002084D01*
X001210Y001869D01*
X001128Y001671D01*
X000976Y001519D01*
X000874Y001477D01*
X000976Y001435D01*
X001128Y001283D01*
X001210Y001084D01*
X001210Y000869D01*
X001210Y000880D02*
X007130Y000880D01*
X007166Y000782D02*
X001174Y000782D01*
X001210Y000979D02*
X007130Y000979D01*
X007130Y001077D02*
X006924Y001077D01*
X007017Y001176D02*
X007168Y001176D01*
X007209Y001274D02*
X007058Y001274D01*
X007068Y001373D02*
X007303Y001373D01*
X007453Y001471D02*
X007056Y001471D01*
X007015Y001570D02*
X007313Y001570D01*
X007215Y001668D02*
X006929Y001668D01*
X006929Y001767D02*
X007173Y001767D01*
X007132Y001865D02*
X006929Y001865D01*
X006928Y001964D02*
X007130Y001964D01*
X007130Y002062D02*
X006928Y002062D01*
X006928Y002161D02*
X007162Y002161D01*
X007203Y002259D02*
X006927Y002259D01*
X006927Y002358D02*
X007288Y002358D01*
X007417Y002456D02*
X006927Y002456D01*
X006926Y002555D02*
X007328Y002555D01*
X007230Y002653D02*
X006926Y002653D01*
X006926Y002752D02*
X007179Y002752D01*
X007138Y002850D02*
X006925Y002850D01*
X006925Y002949D02*
X007130Y002949D01*
X007130Y003047D02*
X006925Y003047D01*
X006924Y003146D02*
X007156Y003146D01*
X007196Y003244D02*
X006924Y003244D01*
X006924Y003343D02*
X007273Y003343D01*
X007381Y003441D02*
X006923Y003441D01*
X006923Y003540D02*
X007387Y003540D01*
X007169Y003835D02*
X006905Y003835D01*
X006800Y003934D02*
X007620Y003934D01*
X007215Y004229D02*
X006698Y004229D01*
X006631Y004131D02*
X007173Y004131D01*
X007152Y004032D02*
X006470Y004032D01*
X006604Y003934D02*
X005966Y003934D01*
X005980Y004032D02*
X006276Y004032D01*
X006089Y003835D02*
X005967Y003835D01*
X006387Y003441D02*
X006483Y003441D01*
X006484Y003343D02*
X005972Y003343D01*
X005973Y003244D02*
X006484Y003244D01*
X006484Y003146D02*
X005974Y003146D01*
X005975Y003047D02*
X006485Y003047D01*
X006485Y002949D02*
X005976Y002949D01*
X005977Y002850D02*
X006485Y002850D01*
X006486Y002752D02*
X005978Y002752D01*
X005979Y002653D02*
X006486Y002653D01*
X006381Y002715D02*
X005124Y002833D01*
X004585Y002833D02*
X004609Y001477D01*
X004628Y001107D01*
X001796Y001107D01*
X001796Y003965D01*
X000670Y003977D01*
X000720Y003934D02*
X001961Y003934D01*
X001962Y004032D02*
X001188Y004032D01*
X001189Y004027D02*
X001177Y004099D01*
X001152Y004176D01*
X001115Y004249D01*
X001067Y004316D01*
X001009Y004373D01*
X000943Y004422D01*
X000870Y004459D01*
X000848Y004466D01*
X000976Y004519D01*
X001128Y004671D01*
X001210Y004869D01*
X001210Y005084D01*
X001128Y005283D01*
X000976Y005435D01*
X000874Y005477D01*
X000976Y005519D01*
X001128Y005671D01*
X001161Y005751D01*
X001538Y005746D01*
X001540Y005745D01*
X001629Y005745D01*
X001719Y005744D01*
X001720Y005745D01*
X001722Y005745D01*
X001785Y005808D01*
X001850Y005871D01*
X001850Y005873D01*
X001851Y005874D01*
X001851Y005964D01*
X001851Y005997D01*
X004333Y005997D01*
X004320Y005965D01*
X004320Y005823D01*
X004374Y005691D01*
X004436Y005630D01*
X004366Y004768D01*
X003143Y004764D01*
X003145Y004560D01*
X002890Y004673D01*
X002841Y004791D01*
X002741Y004891D01*
X002609Y004946D01*
X002467Y004946D01*
X002412Y004923D01*
X002414Y005065D01*
X002501Y005152D01*
X002556Y005283D01*
X002556Y005426D01*
X002501Y005558D01*
X002400Y005658D01*
X002269Y005713D01*
X002126Y005713D01*
X001995Y005658D01*
X001894Y005558D01*
X001840Y005426D01*
X001840Y005283D01*
X001894Y005152D01*
X001974Y005072D01*
X001959Y003813D01*
X001958Y003812D01*
X001958Y003738D01*
X001946Y003666D01*
X001957Y003651D01*
X001957Y003632D01*
X001958Y003631D01*
X001958Y002400D01*
X001011Y002400D01*
X000976Y002435D01*
X000874Y002477D01*
X000976Y002519D01*
X001128Y002671D01*
X001210Y002869D01*
X001210Y003084D01*
X001128Y003283D01*
X000976Y003435D01*
X000848Y003488D01*
X000870Y003495D01*
X000943Y003532D01*
X001009Y003580D01*
X001067Y003638D01*
X001115Y003704D01*
X001152Y003777D01*
X001177Y003855D01*
X001189Y003927D01*
X000720Y003927D01*
X000720Y004027D01*
X001189Y004027D01*
X001167Y004131D02*
X001963Y004131D01*
X001964Y004229D02*
X001125Y004229D01*
X001054Y004328D02*
X001965Y004328D01*
X001966Y004426D02*
X000933Y004426D01*
X000982Y004525D02*
X001968Y004525D01*
X001969Y004623D02*
X001080Y004623D01*
X001149Y004722D02*
X001970Y004722D01*
X001971Y004820D02*
X001190Y004820D01*
X001210Y004919D02*
X001972Y004919D01*
X001974Y005017D02*
X001210Y005017D01*
X001197Y005116D02*
X001930Y005116D01*
X001868Y005214D02*
X001156Y005214D01*
X001098Y005313D02*
X001840Y005313D01*
X001840Y005411D02*
X000999Y005411D01*
X000954Y005510D02*
X001874Y005510D01*
X001945Y005608D02*
X001065Y005608D01*
X001143Y005707D02*
X002112Y005707D01*
X002283Y005707D02*
X004368Y005707D01*
X004434Y005608D02*
X002450Y005608D01*
X002521Y005510D02*
X004426Y005510D01*
X004418Y005411D02*
X002556Y005411D01*
X002556Y005313D02*
X004410Y005313D01*
X004402Y005214D02*
X002527Y005214D01*
X002465Y005116D02*
X004394Y005116D01*
X004386Y005017D02*
X002414Y005017D01*
X002674Y004919D02*
X004378Y004919D01*
X004370Y004820D02*
X002812Y004820D01*
X002870Y004722D02*
X003143Y004722D01*
X003144Y004623D02*
X003001Y004623D01*
X002538Y004588D02*
X003705Y004072D01*
X003964Y003994D01*
X004524Y003994D02*
X004678Y005894D01*
X004320Y005904D02*
X001851Y005904D01*
X001782Y005805D02*
X004327Y005805D01*
X004899Y005608D02*
X007275Y005608D01*
X007197Y005707D02*
X004988Y005707D01*
X005029Y005805D02*
X006945Y005805D01*
X006899Y005904D02*
X005036Y005904D01*
X004868Y005510D02*
X007386Y005510D01*
X007341Y005411D02*
X004860Y005411D01*
X004852Y005313D02*
X007243Y005313D01*
X007184Y005214D02*
X004844Y005214D01*
X004836Y005116D02*
X007143Y005116D01*
X007130Y005017D02*
X004828Y005017D01*
X004820Y004919D02*
X007130Y004919D01*
X007150Y004820D02*
X004812Y004820D01*
X005085Y003994D02*
X006373Y004380D01*
X006046Y004525D02*
X005960Y004525D01*
X005959Y004623D02*
X006110Y004623D01*
X005958Y004722D02*
X006263Y004722D01*
X006483Y004722D02*
X007191Y004722D01*
X007260Y004623D02*
X006636Y004623D01*
X006701Y004525D02*
X007358Y004525D01*
X007407Y004426D02*
X006731Y004426D01*
X006731Y004328D02*
X007286Y004328D01*
X006702Y003721D02*
X005085Y003433D01*
X003964Y003433D02*
X002178Y003721D01*
X002178Y001957D01*
X002194Y001528D01*
X002447Y001274D02*
X003671Y001274D01*
X003631Y001373D02*
X002517Y001373D01*
X002552Y001471D02*
X003623Y001471D01*
X003638Y001570D02*
X002552Y001570D01*
X002523Y001668D02*
X003680Y001668D01*
X003762Y001767D02*
X002461Y001767D01*
X002401Y001865D02*
X003762Y001865D01*
X003763Y001964D02*
X002398Y001964D01*
X002398Y002062D02*
X003763Y002062D01*
X004203Y002062D02*
X006488Y002062D01*
X006488Y001964D02*
X004203Y001964D01*
X004202Y001865D02*
X006489Y001865D01*
X006489Y001767D02*
X004202Y001767D01*
X004282Y001668D02*
X006489Y001668D01*
X006405Y001570D02*
X004324Y001570D01*
X004339Y001471D02*
X006364Y001471D01*
X006352Y001373D02*
X004332Y001373D01*
X004291Y001274D02*
X006362Y001274D01*
X006403Y001176D02*
X004201Y001176D01*
X003981Y001463D02*
X003985Y002873D01*
X002950Y002739D01*
X001958Y002752D02*
X001161Y002752D01*
X001202Y002850D02*
X001958Y002850D01*
X001958Y002949D02*
X001210Y002949D01*
X001210Y003047D02*
X001958Y003047D01*
X001958Y003146D02*
X001185Y003146D01*
X001144Y003244D02*
X001958Y003244D01*
X001958Y003343D02*
X001068Y003343D01*
X000960Y003441D02*
X001958Y003441D01*
X001958Y003540D02*
X000953Y003540D01*
X001067Y003638D02*
X001957Y003638D01*
X001958Y003737D02*
X001131Y003737D01*
X001171Y003835D02*
X001959Y003835D01*
X002178Y003721D02*
X002198Y005355D01*
X001631Y005965D02*
X001631Y006217D01*
X007119Y006217D01*
X007119Y005945D01*
X007670Y005977D01*
X006702Y003721D02*
X006710Y001370D01*
X006497Y001077D02*
X001210Y001077D01*
X001172Y001176D02*
X002108Y001176D01*
X002279Y001176D02*
X003761Y001176D01*
X001941Y001274D02*
X001131Y001274D01*
X001038Y001373D02*
X001870Y001373D01*
X001836Y001471D02*
X000887Y001471D01*
X001027Y001570D02*
X001836Y001570D01*
X001864Y001668D02*
X001125Y001668D01*
X001168Y001767D02*
X001926Y001767D01*
X001959Y001865D02*
X001208Y001865D01*
X001210Y001964D02*
X001958Y001964D01*
X001958Y002062D02*
X001210Y002062D01*
X000923Y002456D02*
X001958Y002456D01*
X001958Y002555D02*
X001012Y002555D01*
X001110Y002653D02*
X001958Y002653D01*
X001631Y005965D02*
X000670Y005977D01*
X005980Y002555D02*
X006486Y002555D01*
X006487Y002456D02*
X005981Y002456D01*
X005982Y002358D02*
X006487Y002358D01*
X006487Y002259D02*
X005984Y002259D01*
X005985Y002161D02*
X006488Y002161D01*
D13*
X005424Y002533D02*
X004124Y002533D01*
X004124Y002630D01*
X004143Y002637D01*
X004221Y002715D01*
X004263Y002818D01*
X004263Y002928D01*
X004221Y003030D01*
X004143Y003109D01*
X004040Y003151D01*
X003930Y003151D01*
X003828Y003109D01*
X003749Y003030D01*
X003729Y002981D01*
X003624Y002967D01*
X003624Y003346D01*
X003704Y003333D01*
X003728Y003276D01*
X003806Y003198D01*
X003908Y003155D01*
X004019Y003155D01*
X004121Y003198D01*
X004200Y003276D01*
X004242Y003378D01*
X004242Y003489D01*
X004200Y003591D01*
X004121Y003669D01*
X004019Y003712D01*
X003908Y003712D01*
X003806Y003669D01*
X003747Y003610D01*
X003624Y003630D01*
X003624Y003950D01*
X003656Y003940D01*
X003691Y003925D01*
X003728Y003837D01*
X003624Y003837D01*
X003624Y003895D02*
X003704Y003895D01*
X003728Y003837D02*
X003806Y003758D01*
X003908Y003716D01*
X004019Y003716D01*
X004121Y003758D01*
X004200Y003837D01*
X004289Y003837D01*
X004367Y003758D01*
X004469Y003716D01*
X004580Y003716D01*
X004682Y003758D01*
X004760Y003837D01*
X004849Y003837D01*
X004928Y003758D01*
X005030Y003716D01*
X005140Y003716D01*
X005243Y003758D01*
X005321Y003837D01*
X005424Y003837D01*
X005424Y003895D02*
X005345Y003895D01*
X005360Y003930D02*
X005321Y003837D01*
X005263Y003778D02*
X005424Y003778D01*
X005424Y003720D02*
X005150Y003720D01*
X005140Y003712D02*
X005030Y003712D01*
X004928Y003669D01*
X004849Y003591D01*
X004807Y003489D01*
X004807Y003378D01*
X004849Y003276D01*
X004928Y003198D01*
X005030Y003155D01*
X005140Y003155D01*
X005243Y003198D01*
X005321Y003276D01*
X005346Y003338D01*
X005424Y003352D01*
X005424Y002533D01*
X005424Y002550D02*
X004124Y002550D01*
X004124Y002608D02*
X005424Y002608D01*
X005424Y002667D02*
X004172Y002667D01*
X004225Y002725D02*
X005424Y002725D01*
X005424Y002784D02*
X004249Y002784D01*
X004263Y002842D02*
X005424Y002842D01*
X005424Y002901D02*
X004263Y002901D01*
X004250Y002959D02*
X005424Y002959D01*
X005424Y003018D02*
X004226Y003018D01*
X004175Y003076D02*
X005424Y003076D01*
X005424Y003135D02*
X004079Y003135D01*
X004111Y003193D02*
X004938Y003193D01*
X004873Y003252D02*
X004176Y003252D01*
X004214Y003310D02*
X004835Y003310D01*
X004811Y003369D02*
X004238Y003369D01*
X004242Y003427D02*
X004807Y003427D01*
X004807Y003486D02*
X004242Y003486D01*
X004219Y003544D02*
X004830Y003544D01*
X004861Y003603D02*
X004188Y003603D01*
X004129Y003661D02*
X004920Y003661D01*
X005020Y003720D02*
X004589Y003720D01*
X004460Y003720D02*
X004029Y003720D01*
X004141Y003778D02*
X004347Y003778D01*
X004289Y003837D02*
X004246Y003939D01*
X004246Y004049D01*
X004289Y004152D01*
X004367Y004230D01*
X004404Y004245D01*
X004411Y004333D01*
X003624Y004333D01*
X003624Y004261D01*
X003753Y004204D01*
X003774Y004197D01*
X003806Y004230D01*
X003908Y004272D01*
X004019Y004272D01*
X004121Y004230D01*
X004200Y004152D01*
X004242Y004049D01*
X004242Y003939D01*
X004200Y003837D01*
X004224Y003895D02*
X004264Y003895D01*
X004246Y003954D02*
X004242Y003954D01*
X004242Y004012D02*
X004246Y004012D01*
X004255Y004071D02*
X004233Y004071D01*
X004209Y004129D02*
X004279Y004129D01*
X004325Y004188D02*
X004163Y004188D01*
X004081Y004246D02*
X004404Y004246D01*
X004409Y004305D02*
X003624Y004305D01*
X003657Y004246D02*
X003846Y004246D01*
X003786Y003778D02*
X003624Y003778D01*
X003624Y003720D02*
X003899Y003720D01*
X003798Y003661D02*
X003624Y003661D01*
X003624Y003310D02*
X003714Y003310D01*
X003752Y003252D02*
X003624Y003252D01*
X003624Y003193D02*
X003817Y003193D01*
X003891Y003135D02*
X003624Y003135D01*
X003624Y003076D02*
X003795Y003076D01*
X003744Y003018D02*
X003624Y003018D01*
X004702Y003778D02*
X004907Y003778D01*
X004849Y003837D02*
X004807Y003939D01*
X004807Y004049D01*
X004849Y004152D01*
X004928Y004230D01*
X005030Y004272D01*
X005140Y004272D01*
X005243Y004230D01*
X005275Y004197D01*
X005424Y004242D01*
X005424Y004333D01*
X004692Y004333D01*
X004684Y004228D01*
X004760Y004152D01*
X004803Y004049D01*
X004803Y003939D01*
X004760Y003837D01*
X004785Y003895D02*
X004825Y003895D01*
X004807Y003954D02*
X004803Y003954D01*
X004803Y004012D02*
X004807Y004012D01*
X004816Y004071D02*
X004794Y004071D01*
X004769Y004129D02*
X004840Y004129D01*
X004886Y004188D02*
X004724Y004188D01*
X004685Y004246D02*
X004967Y004246D01*
X005203Y004246D02*
X005424Y004246D01*
X005424Y004305D02*
X004690Y004305D01*
X005140Y003712D02*
X005243Y003669D01*
X005298Y003614D01*
X005424Y003636D01*
X005424Y003950D01*
X005360Y003930D01*
X005424Y003661D02*
X005250Y003661D01*
X005335Y003310D02*
X005424Y003310D01*
X005424Y003252D02*
X005297Y003252D01*
X005232Y003193D02*
X005424Y003193D01*
M02*
