G04 #@! TF.FileFunction,Copper,L1,Top,Signal*
%FSLAX46Y46*%
G04 Gerber Fmt 4.6, Leading zero omitted, Abs format (unit mm)*
G04 Created by KiCad (PCBNEW (2015-07-01 BZR 5850, Git 51c0ae3)-product) date 07/10/2015 23:59:39*
%MOMM*%
G01*
G04 APERTURE LIST*
%ADD10C,0.100000*%
%ADD11R,0.600000X0.300000*%
%ADD12R,0.300000X0.600000*%
%ADD13R,0.300000X0.300000*%
%ADD14R,0.750000X0.800000*%
%ADD15R,0.900000X0.500000*%
%ADD16C,1.524000*%
%ADD17R,1.400000X0.750000*%
%ADD18C,0.700000*%
%ADD19C,0.250000*%
G04 APERTURE END LIST*
D10*
D11*
X154301100Y-101978600D03*
X154301100Y-105653600D03*
X154301100Y-106303600D03*
X154301100Y-106953600D03*
X154301100Y-107603600D03*
X154301100Y-108253600D03*
X154301100Y-105003600D03*
D12*
X153351100Y-108253600D03*
X153351100Y-105003600D03*
D13*
X153351100Y-106303600D03*
D11*
X152401100Y-106953600D03*
X152401100Y-106303600D03*
D12*
X152701100Y-108253600D03*
X152051100Y-108253600D03*
X151401100Y-108253600D03*
X152701100Y-105003600D03*
X152051100Y-105003600D03*
X151401100Y-105003600D03*
D11*
X151401100Y-106953600D03*
X150401100Y-106953600D03*
X151401100Y-106303600D03*
X150401100Y-106303600D03*
D13*
X153351100Y-106953600D03*
X149451100Y-106303600D03*
D11*
X148501100Y-101978600D03*
D12*
X149451100Y-108253600D03*
X150101100Y-108253600D03*
X150751100Y-108253600D03*
X150751100Y-105003600D03*
X150101100Y-105003600D03*
X149451100Y-105003600D03*
D11*
X148501100Y-108253600D03*
X148501100Y-107603600D03*
X148501100Y-106953600D03*
X148501100Y-106303600D03*
X148501100Y-105653600D03*
X148501100Y-105003600D03*
D14*
X158700000Y-99450000D03*
X158700000Y-100950000D03*
X156500000Y-104150000D03*
X156500000Y-102650000D03*
D15*
X158700000Y-102750000D03*
X158700000Y-104250000D03*
D16*
X152400000Y-113030000D03*
X149860000Y-113030000D03*
X147320000Y-113030000D03*
X157480000Y-113030000D03*
X154940000Y-113030000D03*
X144780000Y-113030000D03*
D17*
X156500000Y-107250000D03*
X156500000Y-108700000D03*
D14*
X156500000Y-99450000D03*
X156500000Y-100950000D03*
D16*
X149860000Y-95250000D03*
X152400000Y-95250000D03*
X154940000Y-95250000D03*
X144780000Y-95250000D03*
X147320000Y-95250000D03*
X157480000Y-95250000D03*
D18*
X153310000Y-109420000D03*
X153350000Y-105860000D03*
X147050000Y-110520000D03*
X148500000Y-109550000D03*
X154730000Y-99180000D03*
D19*
X154301100Y-106953600D02*
X156203600Y-106953600D01*
X156203600Y-106953600D02*
X156500000Y-107250000D01*
X154301100Y-107603600D02*
X154903600Y-107603600D01*
X154903600Y-107603600D02*
X156000000Y-108700000D01*
X156000000Y-108700000D02*
X156500000Y-108700000D01*
X153351100Y-106303600D02*
X153351100Y-105861100D01*
X154940000Y-111050000D02*
X154940000Y-113030000D01*
X153310000Y-109420000D02*
X154940000Y-111050000D01*
X153351100Y-105861100D02*
X153350000Y-105860000D01*
X149451100Y-108253600D02*
X149451100Y-110898900D01*
X149451100Y-110898900D02*
X147320000Y-113030000D01*
X150101100Y-108253600D02*
X150101100Y-112788900D01*
X150101100Y-112788900D02*
X149860000Y-113030000D01*
X147906400Y-107603600D02*
X148501100Y-107603600D01*
X146970000Y-108540000D02*
X147906400Y-107603600D01*
X146970000Y-110460000D02*
X146970000Y-108540000D01*
X147050000Y-110540000D02*
X146970000Y-110460000D01*
X147050000Y-110520000D02*
X147050000Y-110540000D01*
X144780000Y-113030000D02*
X144780000Y-109730000D01*
X147556400Y-106953600D02*
X148501100Y-106953600D01*
X144780000Y-109730000D02*
X147556400Y-106953600D01*
X158700000Y-102750000D02*
X158700000Y-100950000D01*
X153351100Y-105003600D02*
X153351100Y-104448900D01*
X153650000Y-104150000D02*
X156500000Y-104150000D01*
X153351100Y-104448900D02*
X153650000Y-104150000D01*
X156500000Y-104150000D02*
X158300000Y-104150000D01*
X158300000Y-104150000D02*
X158400000Y-104250000D01*
X150751100Y-105003600D02*
X150751100Y-104228900D01*
X147610000Y-97660000D02*
X149860000Y-95410000D01*
X147610000Y-104170000D02*
X147610000Y-97660000D01*
X147540000Y-104240000D02*
X147610000Y-104170000D01*
X150740000Y-104240000D02*
X147540000Y-104240000D01*
X150751100Y-104228900D02*
X150740000Y-104240000D01*
X149860000Y-95410000D02*
X149860000Y-95250000D01*
X148501100Y-108253600D02*
X148501100Y-109548900D01*
X148501100Y-109548900D02*
X148500000Y-109550000D01*
X157480000Y-113030000D02*
X157480000Y-111432500D01*
X157480000Y-111432500D02*
X154301100Y-108253600D01*
X152701100Y-105003600D02*
X152701100Y-104398900D01*
X154450000Y-102650000D02*
X156500000Y-102650000D01*
X152701100Y-104398900D02*
X154450000Y-102650000D01*
X156500000Y-102650000D02*
X156500000Y-100950000D01*
X158700000Y-99450000D02*
X158550000Y-99450000D01*
X158550000Y-99450000D02*
X157050000Y-100950000D01*
X157050000Y-100950000D02*
X156500000Y-100950000D01*
X151401100Y-106303600D02*
X151401100Y-105003600D01*
X152701100Y-108253600D02*
X152701100Y-107253600D01*
X152701100Y-107253600D02*
X152401100Y-106953600D01*
X152401100Y-106953600D02*
X152401100Y-106303600D01*
X151401100Y-106953600D02*
X150401100Y-106953600D01*
X151401100Y-106953600D02*
X152401100Y-106953600D01*
X151401100Y-106303600D02*
X152401100Y-106303600D01*
X150401100Y-106303600D02*
X151401100Y-106303600D01*
X152051100Y-105003600D02*
X152701100Y-105003600D01*
X151401100Y-105003600D02*
X152051100Y-105003600D01*
X150751100Y-105003600D02*
X151401100Y-105003600D01*
X154301100Y-105653600D02*
X159746400Y-105653600D01*
X156000000Y-98500000D02*
X152750000Y-95250000D01*
X159100000Y-98500000D02*
X156000000Y-98500000D01*
X159700000Y-99100000D02*
X159100000Y-98500000D01*
X159700000Y-105607200D02*
X159700000Y-99100000D01*
X159746400Y-105653600D02*
X159700000Y-105607200D01*
X152750000Y-95250000D02*
X152400000Y-95250000D01*
X154301100Y-106303600D02*
X160096400Y-106303600D01*
X160500000Y-98800000D02*
X154940000Y-95250000D01*
X160400000Y-106000000D02*
X160500000Y-98800000D01*
X160096400Y-106303600D02*
X160400000Y-106000000D01*
X148501100Y-106303600D02*
X147163600Y-106303600D01*
X144780000Y-103920000D02*
X144780000Y-95250000D01*
X147163600Y-106303600D02*
X144780000Y-103920000D01*
X148501100Y-105653600D02*
X147576400Y-105653600D01*
X146840000Y-104917200D02*
X146840000Y-95730000D01*
X147576400Y-105653600D02*
X146840000Y-104917200D01*
X146840000Y-95730000D02*
X147320000Y-95250000D01*
X156500000Y-99450000D02*
X154820000Y-99450000D01*
X154730000Y-99360000D02*
X154730000Y-99180000D01*
X154820000Y-99450000D02*
X154730000Y-99360000D01*
M02*
