G04 #@! TF.FileFunction,Soldermask,Top*
%FSLAX46Y46*%
G04 Gerber Fmt 4.6, Leading zero omitted, Abs format (unit mm)*
G04 Created by KiCad (PCBNEW (2015-07-01 BZR 5850, Git 51c0ae3)-product) date 07/10/2015 23:59:39*
%MOMM*%
G01*
G04 APERTURE LIST*
%ADD10C,0.100000*%
%ADD11R,0.600000X0.300000*%
%ADD12R,0.300000X0.600000*%
%ADD13R,0.300000X0.300000*%
%ADD14R,0.750000X0.800000*%
%ADD15R,0.900000X0.500000*%
%ADD16C,1.524000*%
%ADD17R,1.400000X0.750000*%
G04 APERTURE END LIST*
D10*
D11*
X154301100Y-101978600D03*
X154301100Y-105653600D03*
X154301100Y-106303600D03*
X154301100Y-106953600D03*
X154301100Y-107603600D03*
X154301100Y-108253600D03*
X154301100Y-105003600D03*
D12*
X153351100Y-108253600D03*
X153351100Y-105003600D03*
D13*
X153351100Y-106303600D03*
D11*
X152401100Y-106953600D03*
X152401100Y-106303600D03*
D12*
X152701100Y-108253600D03*
X152051100Y-108253600D03*
X151401100Y-108253600D03*
X152701100Y-105003600D03*
X152051100Y-105003600D03*
X151401100Y-105003600D03*
D11*
X151401100Y-106953600D03*
X150401100Y-106953600D03*
X151401100Y-106303600D03*
X150401100Y-106303600D03*
D13*
X153351100Y-106953600D03*
X149451100Y-106303600D03*
D11*
X148501100Y-101978600D03*
D12*
X149451100Y-108253600D03*
X150101100Y-108253600D03*
X150751100Y-108253600D03*
X150751100Y-105003600D03*
X150101100Y-105003600D03*
X149451100Y-105003600D03*
D11*
X148501100Y-108253600D03*
X148501100Y-107603600D03*
X148501100Y-106953600D03*
X148501100Y-106303600D03*
X148501100Y-105653600D03*
X148501100Y-105003600D03*
D14*
X158700000Y-99450000D03*
X158700000Y-100950000D03*
X156500000Y-104150000D03*
X156500000Y-102650000D03*
D15*
X158700000Y-102750000D03*
X158700000Y-104250000D03*
D16*
X152400000Y-113030000D03*
X149860000Y-113030000D03*
X147320000Y-113030000D03*
X157480000Y-113030000D03*
X154940000Y-113030000D03*
X144780000Y-113030000D03*
D17*
X156500000Y-107250000D03*
X156500000Y-108700000D03*
D14*
X156500000Y-99450000D03*
X156500000Y-100950000D03*
D16*
X149860000Y-95250000D03*
X152400000Y-95250000D03*
X154940000Y-95250000D03*
X144780000Y-95250000D03*
X147320000Y-95250000D03*
X157480000Y-95250000D03*
M02*
