G75*
%MOIN*%
%OFA0B0*%
%FSLAX24Y24*%
%IPPOS*%
%LPD*%
%AMOC8*
5,1,8,0,0,1.08239X$1,22.5*
%
%ADD10C,0.0740*%
%ADD11C,0.0160*%
%ADD12C,0.0376*%
%ADD13C,0.0120*%
%ADD14C,0.0100*%
D10*
X001500Y001000D03*
X001500Y002000D03*
X001500Y003000D03*
X001500Y004000D03*
X001500Y005000D03*
X001500Y006000D03*
X008000Y006000D03*
X008000Y005000D03*
X008000Y004000D03*
X008000Y003000D03*
X008000Y002000D03*
X008000Y001000D03*
D11*
X007007Y002883D02*
X006051Y002882D01*
X006086Y002917D01*
X006086Y002919D01*
X006087Y002921D01*
X006086Y003002D01*
X006086Y003083D01*
X006084Y003084D01*
X006083Y003166D01*
X006156Y003239D01*
X006206Y003360D01*
X006206Y003490D01*
X006156Y003611D01*
X006064Y003703D01*
X005943Y003753D01*
X005813Y003753D01*
X005692Y003703D01*
X005600Y003611D01*
X005550Y003490D01*
X005550Y003360D01*
X005600Y003239D01*
X005639Y003200D01*
X004406Y003200D01*
X004328Y003278D01*
X004207Y003328D01*
X004076Y003328D01*
X003956Y003278D01*
X003864Y003186D01*
X003814Y003065D01*
X003814Y002935D01*
X003836Y002880D01*
X003068Y002879D01*
X003068Y003079D01*
X002957Y003190D01*
X001973Y003190D01*
X001932Y003289D01*
X001789Y003432D01*
X001676Y003479D01*
X001711Y003490D01*
X001788Y003530D01*
X001858Y003580D01*
X001920Y003642D01*
X001970Y003712D01*
X002010Y003789D01*
X002036Y003871D01*
X002050Y003957D01*
X002050Y003980D01*
X001520Y003980D01*
X001520Y004020D01*
X002050Y004020D01*
X002050Y004043D01*
X002036Y004129D01*
X002010Y004211D01*
X001970Y004288D01*
X001920Y004358D01*
X001858Y004420D01*
X001788Y004470D01*
X001711Y004510D01*
X001676Y004521D01*
X001789Y004568D01*
X001932Y004711D01*
X001973Y004810D01*
X007527Y004810D01*
X007568Y004711D01*
X007711Y004568D01*
X007824Y004521D01*
X007789Y004510D01*
X007712Y004470D01*
X007642Y004420D01*
X007580Y004358D01*
X007530Y004288D01*
X007490Y004211D01*
X007464Y004129D01*
X007450Y004043D01*
X007450Y004020D01*
X007980Y004020D01*
X007980Y003980D01*
X007450Y003980D01*
X007450Y003957D01*
X007464Y003871D01*
X007490Y003789D01*
X007530Y003712D01*
X007580Y003642D01*
X007642Y003580D01*
X007712Y003530D01*
X007789Y003490D01*
X007824Y003479D01*
X007711Y003432D01*
X007568Y003289D01*
X007533Y003206D01*
X007118Y003206D01*
X007007Y003094D01*
X007007Y002883D01*
X007007Y002902D02*
X006070Y002902D01*
X006086Y003060D02*
X007007Y003060D01*
X007539Y003219D02*
X006135Y003219D01*
X006206Y003377D02*
X007656Y003377D01*
X007703Y003536D02*
X006187Y003536D01*
X006073Y003694D02*
X007542Y003694D01*
X007470Y003853D02*
X002030Y003853D01*
X001958Y003694D02*
X005683Y003694D01*
X005569Y003536D02*
X001797Y003536D01*
X001844Y003377D02*
X005550Y003377D01*
X005620Y003219D02*
X004387Y003219D01*
X003896Y003219D02*
X001961Y003219D01*
X001520Y004011D02*
X007980Y004011D01*
X007559Y004328D02*
X001941Y004328D01*
X002023Y004170D02*
X007477Y004170D01*
X007744Y004487D02*
X001756Y004487D01*
X001866Y004645D02*
X007634Y004645D01*
X007529Y004804D02*
X001971Y004804D01*
X001973Y005190D02*
X001932Y005289D01*
X001789Y005432D01*
X001626Y005500D01*
X001789Y005568D01*
X001932Y005711D01*
X001973Y005810D01*
X002169Y005810D01*
X002281Y005921D01*
X002281Y006066D01*
X007227Y006066D01*
X007227Y005941D01*
X007339Y005830D01*
X007519Y005830D01*
X007568Y005711D01*
X007711Y005568D01*
X007874Y005500D01*
X007711Y005432D01*
X007568Y005289D01*
X007527Y005190D01*
X001973Y005190D01*
X001936Y005279D02*
X007564Y005279D01*
X007724Y005438D02*
X001776Y005438D01*
X001817Y005596D02*
X007683Y005596D01*
X007550Y005755D02*
X001950Y005755D01*
X002272Y005913D02*
X007255Y005913D01*
X003814Y003060D02*
X003068Y003060D01*
X003068Y002902D02*
X003827Y002902D01*
D12*
X004142Y003000D03*
X004063Y002150D03*
X005878Y003425D03*
X005898Y004165D03*
X007008Y004020D03*
X006323Y002157D03*
X002551Y004106D03*
X002594Y005740D03*
D13*
X005878Y003425D02*
X005886Y003000D01*
X004142Y003000D01*
D14*
X004063Y002150D02*
X006323Y002157D01*
X007248Y002000D02*
X007248Y001622D01*
X002091Y001622D01*
X002091Y002000D01*
X001500Y002000D01*
X001500Y001000D02*
X008000Y001000D01*
X008000Y002000D02*
X007248Y002000D01*
X007197Y002693D02*
X007197Y003016D01*
X008000Y003016D01*
X008000Y003000D01*
X007197Y002693D02*
X002878Y002689D01*
X002878Y003000D01*
X001500Y003000D01*
X001500Y005000D02*
X008000Y005000D01*
X008000Y006000D02*
X008000Y006020D01*
X007417Y006020D01*
X007417Y006256D01*
X002091Y006256D01*
X002091Y006000D01*
X001500Y006000D01*
M02*
