G75*
%MOIN*%
%OFA0B0*%
%FSLAX24Y24*%
%IPPOS*%
%LPD*%
%AMOC8*
5,1,8,0,0,1.08239X$1,22.5*
%
%ADD10C,0.0040*%
%ADD11C,0.0080*%
%ADD12C,0.0160*%
%ADD13C,0.0020*%
%ADD14R,0.0160X0.0280*%
%ADD15C,0.0060*%
%ADD16C,0.0010*%
%ADD17R,0.0042X0.0007*%
%ADD18R,0.0035X0.0007*%
%ADD19R,0.0028X0.0007*%
%ADD20R,0.0099X0.0007*%
%ADD21R,0.0106X0.0007*%
%ADD22R,0.0092X0.0007*%
%ADD23R,0.0120X0.0007*%
%ADD24R,0.0113X0.0007*%
%ADD25R,0.0085X0.0007*%
%ADD26R,0.0333X0.0007*%
%ADD27R,0.0099X0.0007*%
%ADD28R,0.0106X0.0007*%
%ADD29R,0.0092X0.0007*%
%ADD30R,0.0163X0.0007*%
%ADD31R,0.0149X0.0007*%
%ADD32R,0.0092X0.0007*%
%ADD33R,0.0127X0.0007*%
%ADD34R,0.0333X0.0007*%
%ADD35R,0.0099X0.0007*%
%ADD36R,0.0106X0.0007*%
%ADD37R,0.0092X0.0007*%
%ADD38R,0.0113X0.0007*%
%ADD39R,0.0191X0.0007*%
%ADD40R,0.0177X0.0007*%
%ADD41R,0.0092X0.0007*%
%ADD42R,0.0149X0.0007*%
%ADD43R,0.0333X0.0007*%
%ADD44R,0.0120X0.0007*%
%ADD45R,0.0212X0.0007*%
%ADD46R,0.0191X0.0007*%
%ADD47R,0.0092X0.0007*%
%ADD48R,0.0177X0.0007*%
%ADD49R,0.0120X0.0007*%
%ADD50R,0.0234X0.0007*%
%ADD51R,0.0205X0.0007*%
%ADD52R,0.0099X0.0007*%
%ADD53R,0.0120X0.0007*%
%ADD54R,0.0092X0.0007*%
%ADD55R,0.0113X0.0007*%
%ADD56R,0.0120X0.0007*%
%ADD57R,0.0255X0.0007*%
%ADD58R,0.0220X0.0007*%
%ADD59R,0.0092X0.0007*%
%ADD60R,0.0106X0.0007*%
%ADD61R,0.0198X0.0007*%
%ADD62R,0.0333X0.0007*%
%ADD63R,0.0135X0.0007*%
%ADD64R,0.0127X0.0007*%
%ADD65R,0.0269X0.0007*%
%ADD66R,0.0326X0.0007*%
%ADD67R,0.0212X0.0007*%
%ADD68R,0.0135X0.0007*%
%ADD69R,0.0127X0.0007*%
%ADD70R,0.0127X0.0007*%
%ADD71R,0.0283X0.0007*%
%ADD72R,0.0333X0.0007*%
%ADD73R,0.0227X0.0007*%
%ADD74R,0.0135X0.0007*%
%ADD75R,0.0127X0.0007*%
%ADD76R,0.0290X0.0007*%
%ADD77R,0.0333X0.0007*%
%ADD78R,0.0135X0.0007*%
%ADD79R,0.0297X0.0007*%
%ADD80R,0.0340X0.0007*%
%ADD81R,0.0149X0.0007*%
%ADD82R,0.0135X0.0007*%
%ADD83R,0.0142X0.0007*%
%ADD84R,0.0312X0.0007*%
%ADD85R,0.0156X0.0007*%
%ADD86R,0.0340X0.0007*%
%ADD87R,0.0142X0.0007*%
%ADD88R,0.0120X0.0007*%
%ADD89R,0.0142X0.0007*%
%ADD90R,0.0326X0.0007*%
%ADD91R,0.0149X0.0007*%
%ADD92R,0.0142X0.0007*%
%ADD93R,0.0106X0.0007*%
%ADD94R,0.0127X0.0007*%
%ADD95R,0.0135X0.0007*%
%ADD96R,0.0113X0.0007*%
%ADD97R,0.0163X0.0007*%
%ADD98R,0.0163X0.0007*%
%ADD99R,0.0156X0.0007*%
%ADD100R,0.0113X0.0007*%
%ADD101R,0.0120X0.0007*%
%ADD102R,0.0163X0.0007*%
%ADD103R,0.0163X0.0007*%
%ADD104R,0.0085X0.0007*%
%ADD105R,0.0170X0.0007*%
%ADD106R,0.0177X0.0007*%
%ADD107R,0.0085X0.0007*%
%ADD108R,0.0078X0.0007*%
%ADD109R,0.0177X0.0007*%
%ADD110R,0.0106X0.0007*%
%ADD111R,0.0113X0.0007*%
%ADD112R,0.0085X0.0007*%
%ADD113R,0.0177X0.0007*%
%ADD114R,0.0085X0.0007*%
%ADD115R,0.0177X0.0007*%
%ADD116R,0.0177X0.0007*%
%ADD117R,0.0099X0.0007*%
%ADD118R,0.0184X0.0007*%
%ADD119R,0.0099X0.0007*%
%ADD120R,0.0368X0.0007*%
%ADD121R,0.0191X0.0007*%
%ADD122R,0.0368X0.0007*%
%ADD123R,0.0163X0.0007*%
%ADD124R,0.0184X0.0007*%
%ADD125R,0.0368X0.0007*%
%ADD126R,0.0290X0.0007*%
%ADD127R,0.0113X0.0007*%
%ADD128R,0.0085X0.0007*%
%ADD129R,0.0368X0.0007*%
%ADD130R,0.0276X0.0007*%
%ADD131R,0.0361X0.0007*%
%ADD132R,0.0255X0.0007*%
%ADD133R,0.0085X0.0007*%
%ADD134R,0.0361X0.0007*%
%ADD135R,0.0220X0.0007*%
%ADD136R,0.0361X0.0007*%
%ADD137R,0.0099X0.0007*%
%ADD138R,0.0106X0.0007*%
%ADD139R,0.0106X0.0007*%
%ADD140R,0.0120X0.0007*%
%ADD141R,0.0219X0.0007*%
%ADD142R,0.0142X0.0007*%
%ADD143R,0.0219X0.0007*%
%ADD144R,0.0312X0.0007*%
%ADD145R,0.0219X0.0007*%
%ADD146R,0.0347X0.0007*%
%ADD147R,0.0312X0.0007*%
%ADD148R,0.0304X0.0007*%
%ADD149R,0.0340X0.0007*%
%ADD150R,0.0312X0.0007*%
%ADD151R,0.0234X0.0007*%
%ADD152R,0.0297X0.0007*%
%ADD153R,0.0219X0.0007*%
%ADD154R,0.0312X0.0007*%
%ADD155R,0.0227X0.0007*%
%ADD156R,0.0283X0.0007*%
%ADD157R,0.0290X0.0007*%
%ADD158R,0.0269X0.0007*%
%ADD159R,0.0205X0.0007*%
%ADD160R,0.0184X0.0007*%
%ADD161R,0.0255X0.0007*%
%ADD162R,0.0198X0.0007*%
%ADD163R,0.0191X0.0007*%
%ADD164R,0.0184X0.0007*%
%ADD165R,0.0241X0.0007*%
%ADD166R,0.0255X0.0007*%
%ADD167R,0.0191X0.0007*%
%ADD168R,0.0198X0.0007*%
%ADD169R,0.0184X0.0007*%
%ADD170R,0.0234X0.0007*%
%ADD171R,0.0212X0.0007*%
%ADD172R,0.0184X0.0007*%
%ADD173R,0.0170X0.0007*%
%ADD174R,0.0170X0.0007*%
%ADD175R,0.0156X0.0007*%
%ADD176R,0.0035X0.0007*%
%ADD177R,0.0170X0.0007*%
%ADD178R,0.0042X0.0007*%
%ADD179R,0.0064X0.0007*%
%ADD180R,0.0028X0.0007*%
%ADD181R,0.0035X0.0007*%
%ADD182R,0.0156X0.0007*%
%ADD183R,0.0177X0.0007*%
%ADD184R,0.0170X0.0007*%
%ADD185R,0.0028X0.0007*%
%ADD186R,0.0028X0.0007*%
%ADD187R,0.0057X0.0007*%
%ADD188R,0.0057X0.0007*%
%ADD189R,0.0042X0.0007*%
%ADD190R,0.0043X0.0007*%
%ADD191R,0.0050X0.0007*%
%ADD192R,0.0050X0.0007*%
%ADD193R,0.0043X0.0007*%
%ADD194R,0.0043X0.0007*%
%ADD195R,0.0035X0.0007*%
%ADD196R,0.0035X0.0007*%
%ADD197R,0.0078X0.0007*%
%ADD198R,0.0064X0.0007*%
D10*
X001237Y000320D02*
X001437Y000320D01*
X001437Y000453D01*
X001437Y000541D02*
X001237Y000541D01*
X001237Y000641D01*
X001270Y000674D01*
X001337Y000674D01*
X001370Y000641D01*
X001370Y000541D01*
X001437Y000762D02*
X001237Y000762D01*
X001237Y000895D02*
X001437Y000895D01*
X001370Y000829D01*
X001437Y000762D01*
X000950Y001068D02*
X000950Y001268D01*
X000816Y001268D02*
X000816Y001068D01*
X000883Y001135D01*
X000950Y001068D01*
X000729Y001168D02*
X000729Y001235D01*
X000695Y001268D01*
X000595Y001268D01*
X000595Y001068D01*
X000595Y001135D02*
X000695Y001135D01*
X000729Y001168D01*
X000508Y001068D02*
X000374Y001068D01*
X000374Y001268D01*
X001229Y001401D02*
X001262Y001367D01*
X001295Y001367D01*
X001329Y001401D01*
X001329Y001467D01*
X001362Y001501D01*
X001395Y001501D01*
X001429Y001467D01*
X001429Y001401D01*
X001395Y001367D01*
X001229Y001401D02*
X001229Y001467D01*
X001262Y001501D01*
X001262Y001588D02*
X001395Y001588D01*
X001429Y001622D01*
X001429Y001688D01*
X001395Y001722D01*
X001262Y001722D02*
X001229Y001688D01*
X001229Y001622D01*
X001262Y001588D01*
X001229Y001809D02*
X001429Y001809D01*
X001429Y001943D01*
X001403Y002328D02*
X001437Y002361D01*
X001437Y002428D01*
X001403Y002461D01*
X001370Y002461D01*
X001337Y002428D01*
X001337Y002361D01*
X001303Y002328D01*
X001270Y002328D01*
X001237Y002361D01*
X001237Y002428D01*
X001270Y002461D01*
X001237Y002549D02*
X001237Y002649D01*
X001270Y002682D01*
X001403Y002682D01*
X001437Y002649D01*
X001437Y002549D01*
X001237Y002549D01*
X001303Y002770D02*
X001237Y002837D01*
X001303Y002903D01*
X001437Y002903D01*
X001337Y002903D02*
X001337Y002770D01*
X001303Y002770D02*
X001437Y002770D01*
X000989Y003076D02*
X000989Y003209D01*
X000922Y003276D01*
X000856Y003209D01*
X000856Y003076D01*
X000768Y003109D02*
X000768Y003243D01*
X000735Y003276D01*
X000635Y003276D01*
X000635Y003076D01*
X000735Y003076D01*
X000768Y003109D01*
X000856Y003176D02*
X000989Y003176D01*
X001237Y003306D02*
X001237Y003373D01*
X001270Y003406D01*
X001237Y003373D01*
X001237Y003306D01*
X001270Y003273D01*
X001403Y003273D01*
X001437Y003306D01*
X001437Y003373D01*
X001403Y003406D01*
X001337Y003406D01*
X001337Y003339D01*
X001337Y003406D01*
X001403Y003406D01*
X001437Y003373D01*
X001437Y003306D01*
X001403Y003273D01*
X001270Y003273D01*
X001237Y003306D01*
X001237Y003494D02*
X001437Y003627D01*
X001237Y003627D01*
X001437Y003627D01*
X001237Y003494D01*
X001437Y003494D01*
X001237Y003494D01*
X001237Y003715D02*
X001237Y003815D01*
X001270Y003848D01*
X001403Y003848D01*
X001437Y003815D01*
X001437Y003715D01*
X001237Y003715D01*
X001237Y003815D01*
X001270Y003848D01*
X001403Y003848D01*
X001437Y003815D01*
X001437Y003715D01*
X001237Y003715D01*
X000916Y004060D02*
X000816Y004060D01*
X000816Y004260D01*
X000916Y004260D01*
X000950Y004227D01*
X000950Y004094D01*
X000916Y004060D01*
X000729Y004060D02*
X000729Y004260D01*
X000595Y004260D02*
X000729Y004060D01*
X000595Y004060D02*
X000595Y004260D01*
X000508Y004227D02*
X000474Y004260D01*
X000408Y004260D01*
X000374Y004227D01*
X000374Y004094D01*
X000408Y004060D01*
X000474Y004060D01*
X000508Y004094D01*
X000508Y004160D01*
X000441Y004160D01*
X001240Y004342D02*
X001374Y004342D01*
X001440Y004409D01*
X001374Y004476D01*
X001240Y004476D01*
X001274Y004563D02*
X001240Y004596D01*
X001240Y004663D01*
X001274Y004697D01*
X001274Y004784D02*
X001407Y004784D01*
X001440Y004817D01*
X001440Y004884D01*
X001407Y004917D01*
X001274Y004917D02*
X001240Y004884D01*
X001240Y004817D01*
X001274Y004784D01*
X001407Y004697D02*
X001440Y004663D01*
X001440Y004596D01*
X001407Y004563D01*
X001274Y004563D01*
X000956Y005044D02*
X000889Y005044D01*
X000856Y005078D01*
X000856Y005211D01*
X000889Y005245D01*
X000956Y005245D01*
X000989Y005211D01*
X000989Y005078D02*
X000956Y005044D01*
X000768Y005078D02*
X000735Y005044D01*
X000668Y005044D01*
X000635Y005078D01*
X000635Y005211D01*
X000668Y005245D01*
X000735Y005245D01*
X000768Y005211D01*
X000547Y005245D02*
X000547Y005111D01*
X000480Y005044D01*
X000414Y005111D01*
X000414Y005245D01*
X001225Y005289D02*
X001225Y005389D01*
X001258Y005422D01*
X001291Y005422D01*
X001325Y005389D01*
X001325Y005289D01*
X001425Y005289D02*
X001225Y005289D01*
X001325Y005389D02*
X001358Y005422D01*
X001391Y005422D01*
X001425Y005389D01*
X001425Y005289D01*
X001425Y005510D02*
X001291Y005510D01*
X001225Y005577D01*
X001291Y005643D01*
X001425Y005643D01*
X001325Y005643D02*
X001325Y005510D01*
X001225Y005731D02*
X001225Y005864D01*
X001225Y005798D02*
X001425Y005798D01*
X000962Y006068D02*
X000962Y006268D01*
X001028Y006268D02*
X000895Y006268D01*
X000808Y006201D02*
X000808Y006068D01*
X000674Y006068D02*
X000674Y006201D01*
X000741Y006268D01*
X000808Y006201D01*
X000808Y006168D02*
X000674Y006168D01*
X000587Y006135D02*
X000587Y006101D01*
X000553Y006068D01*
X000453Y006068D01*
X000453Y006268D01*
X000553Y006268D01*
X000587Y006235D01*
X000587Y006201D01*
X000553Y006168D01*
X000453Y006168D01*
X000553Y006168D02*
X000587Y006135D01*
X002652Y005376D02*
X002652Y005176D01*
X002785Y005176D01*
X002873Y005176D02*
X003006Y005176D01*
X003094Y005276D02*
X003227Y005276D01*
X003315Y005176D02*
X003381Y005176D01*
X003348Y005176D02*
X003348Y005376D01*
X003315Y005376D02*
X003381Y005376D01*
X003462Y005343D02*
X003495Y005376D01*
X003562Y005376D01*
X003595Y005343D01*
X003595Y005310D01*
X003462Y005176D01*
X003595Y005176D01*
X003683Y005209D02*
X003716Y005176D01*
X003783Y005176D01*
X003816Y005209D01*
X003683Y005209D02*
X003683Y005343D01*
X003716Y005376D01*
X003783Y005376D01*
X003816Y005343D01*
X004125Y005376D02*
X004125Y005176D01*
X004258Y005176D02*
X004258Y005376D01*
X004192Y005310D01*
X004125Y005376D01*
X004346Y005376D02*
X004346Y005176D01*
X004346Y005243D02*
X004446Y005243D01*
X004479Y005276D01*
X004479Y005343D01*
X004446Y005376D01*
X004346Y005376D01*
X004567Y005376D02*
X004567Y005209D01*
X004600Y005176D01*
X004667Y005176D01*
X004700Y005209D01*
X004700Y005376D01*
X004788Y005276D02*
X004888Y005276D01*
X004921Y005243D01*
X004921Y005209D01*
X004888Y005176D01*
X004821Y005176D01*
X004788Y005209D01*
X004788Y005276D01*
X004855Y005343D01*
X004921Y005376D01*
X005009Y005343D02*
X005042Y005376D01*
X005109Y005376D01*
X005142Y005343D01*
X005009Y005209D01*
X005042Y005176D01*
X005109Y005176D01*
X005142Y005209D01*
X005142Y005343D01*
X005009Y005343D02*
X005009Y005209D01*
X005230Y005209D02*
X005263Y005176D01*
X005330Y005176D01*
X005363Y005209D01*
X005363Y005276D01*
X005330Y005310D01*
X005297Y005310D01*
X005230Y005276D01*
X005230Y005376D01*
X005363Y005376D01*
X005451Y005343D02*
X005484Y005376D01*
X005551Y005376D01*
X005584Y005343D01*
X005451Y005209D01*
X005484Y005176D01*
X005551Y005176D01*
X005584Y005209D01*
X005584Y005343D01*
X005451Y005343D02*
X005451Y005209D01*
X004700Y004983D02*
X004667Y005016D01*
X004600Y005016D01*
X004567Y004983D01*
X004700Y004983D02*
X004700Y004950D01*
X004567Y004816D01*
X004700Y004816D01*
X004479Y004883D02*
X004479Y005016D01*
X004346Y005016D02*
X004346Y004883D01*
X004413Y004816D01*
X004479Y004883D01*
X004037Y004849D02*
X004037Y005016D01*
X003904Y005016D02*
X003904Y004849D01*
X003937Y004816D01*
X004004Y004816D01*
X004037Y004849D01*
X003816Y004816D02*
X003816Y005016D01*
X003750Y004950D01*
X003683Y005016D01*
X003683Y004816D01*
X003602Y004816D02*
X003536Y004816D01*
X003569Y004816D02*
X003569Y005016D01*
X003536Y005016D02*
X003602Y005016D01*
X003006Y005343D02*
X002873Y005209D01*
X002873Y005176D01*
X002718Y005276D02*
X002652Y005276D01*
X002652Y005376D02*
X002785Y005376D01*
X002873Y005376D02*
X003006Y005376D01*
X003006Y005343D01*
X000547Y003243D02*
X000514Y003276D01*
X000447Y003276D01*
X000414Y003243D01*
X000414Y003209D01*
X000447Y003176D01*
X000514Y003176D01*
X000547Y003143D01*
X000547Y003109D01*
X000514Y003076D01*
X000447Y003076D01*
X000414Y003109D01*
X000486Y002252D02*
X000453Y002219D01*
X000453Y002186D01*
X000486Y002152D01*
X000553Y002152D01*
X000587Y002119D01*
X000587Y002086D01*
X000553Y002052D01*
X000486Y002052D01*
X000453Y002086D01*
X000486Y002252D02*
X000553Y002252D01*
X000587Y002219D01*
X000674Y002219D02*
X000674Y002086D01*
X000707Y002052D01*
X000774Y002052D01*
X000808Y002086D01*
X000895Y002052D02*
X001028Y002052D01*
X000895Y002052D02*
X000895Y002252D01*
X000808Y002219D02*
X000774Y002252D01*
X000707Y002252D01*
X000674Y002219D01*
X007012Y002405D02*
X007045Y002371D01*
X007079Y002371D01*
X007112Y002405D01*
X007112Y002471D01*
X007146Y002505D01*
X007179Y002505D01*
X007212Y002471D01*
X007212Y002405D01*
X007179Y002371D01*
X007012Y002405D02*
X007012Y002471D01*
X007045Y002505D01*
X007012Y002592D02*
X007012Y002692D01*
X007045Y002726D01*
X007179Y002726D01*
X007212Y002692D01*
X007212Y002592D01*
X007012Y002592D01*
X007079Y002813D02*
X007012Y002880D01*
X007079Y002947D01*
X007212Y002947D01*
X007112Y002947D02*
X007112Y002813D01*
X007079Y002813D02*
X007212Y002813D01*
X007447Y003076D02*
X007414Y003109D01*
X007447Y003076D02*
X007514Y003076D01*
X007547Y003109D01*
X007547Y003143D01*
X007514Y003176D01*
X007447Y003176D01*
X007414Y003209D01*
X007414Y003243D01*
X007447Y003276D01*
X007514Y003276D01*
X007547Y003243D01*
X007635Y003276D02*
X007735Y003276D01*
X007768Y003243D01*
X007768Y003109D01*
X007735Y003076D01*
X007635Y003076D01*
X007635Y003276D01*
X007856Y003209D02*
X007856Y003076D01*
X007856Y003176D02*
X007989Y003176D01*
X007989Y003209D02*
X007989Y003076D01*
X007989Y003209D02*
X007922Y003276D01*
X007856Y003209D01*
X007212Y003389D02*
X007212Y003456D01*
X007179Y003489D01*
X007112Y003489D01*
X007112Y003422D01*
X007045Y003355D02*
X007179Y003355D01*
X007212Y003389D01*
X007045Y003355D02*
X007012Y003389D01*
X007012Y003456D01*
X007045Y003489D01*
X007012Y003576D02*
X007212Y003710D01*
X007012Y003710D01*
X007012Y003797D02*
X007012Y003897D01*
X007045Y003931D01*
X007179Y003931D01*
X007212Y003897D01*
X007212Y003797D01*
X007012Y003797D01*
X007012Y003576D02*
X007212Y003576D01*
X007408Y004060D02*
X007474Y004060D01*
X007508Y004094D01*
X007508Y004160D01*
X007441Y004160D01*
X007374Y004094D02*
X007408Y004060D01*
X007374Y004094D02*
X007374Y004227D01*
X007408Y004260D01*
X007474Y004260D01*
X007508Y004227D01*
X007595Y004260D02*
X007729Y004060D01*
X007729Y004260D01*
X007816Y004260D02*
X007916Y004260D01*
X007950Y004227D01*
X007950Y004094D01*
X007916Y004060D01*
X007816Y004060D01*
X007816Y004260D01*
X007595Y004260D02*
X007595Y004060D01*
X007212Y004406D02*
X007146Y004473D01*
X007012Y004473D01*
X007045Y004561D02*
X007179Y004561D01*
X007212Y004594D01*
X007212Y004661D01*
X007179Y004694D01*
X007179Y004782D02*
X007212Y004815D01*
X007212Y004882D01*
X007179Y004915D01*
X007179Y004782D02*
X007045Y004782D01*
X007012Y004815D01*
X007012Y004882D01*
X007045Y004915D01*
X007045Y004694D02*
X007012Y004661D01*
X007012Y004594D01*
X007045Y004561D01*
X007212Y004406D02*
X007146Y004340D01*
X007012Y004340D01*
X007480Y005044D02*
X007547Y005111D01*
X007547Y005245D01*
X007635Y005211D02*
X007635Y005078D01*
X007668Y005044D01*
X007735Y005044D01*
X007768Y005078D01*
X007856Y005078D02*
X007889Y005044D01*
X007956Y005044D01*
X007989Y005078D01*
X007989Y005211D02*
X007956Y005245D01*
X007889Y005245D01*
X007856Y005211D01*
X007856Y005078D01*
X007768Y005211D02*
X007735Y005245D01*
X007668Y005245D01*
X007635Y005211D01*
X007414Y005245D02*
X007414Y005111D01*
X007480Y005044D01*
X007189Y005489D02*
X006988Y005489D01*
X006988Y005589D01*
X007022Y005623D01*
X007055Y005623D01*
X007089Y005589D01*
X007089Y005489D01*
X007189Y005489D02*
X007189Y005589D01*
X007155Y005623D01*
X007122Y005623D01*
X007089Y005589D01*
X007089Y005710D02*
X007089Y005844D01*
X007055Y005844D02*
X006988Y005777D01*
X007055Y005710D01*
X007189Y005710D01*
X007189Y005844D02*
X007055Y005844D01*
X006988Y005931D02*
X006988Y006065D01*
X006988Y005998D02*
X007189Y005998D01*
X007453Y006068D02*
X007553Y006068D01*
X007587Y006101D01*
X007587Y006135D01*
X007553Y006168D01*
X007453Y006168D01*
X007453Y006068D02*
X007453Y006268D01*
X007553Y006268D01*
X007587Y006235D01*
X007587Y006201D01*
X007553Y006168D01*
X007674Y006168D02*
X007808Y006168D01*
X007808Y006201D02*
X007808Y006068D01*
X007962Y006068D02*
X007962Y006268D01*
X008028Y006268D02*
X007895Y006268D01*
X007808Y006201D02*
X007741Y006268D01*
X007674Y006201D01*
X007674Y006068D01*
X007707Y002252D02*
X007674Y002219D01*
X007674Y002086D01*
X007707Y002052D01*
X007774Y002052D01*
X007808Y002086D01*
X007895Y002052D02*
X008028Y002052D01*
X007895Y002052D02*
X007895Y002252D01*
X007808Y002219D02*
X007774Y002252D01*
X007707Y002252D01*
X007587Y002219D02*
X007553Y002252D01*
X007486Y002252D01*
X007453Y002219D01*
X007453Y002186D01*
X007486Y002152D01*
X007553Y002152D01*
X007587Y002119D01*
X007587Y002086D01*
X007553Y002052D01*
X007486Y002052D01*
X007453Y002086D01*
X007212Y002002D02*
X007212Y001868D01*
X007012Y001868D01*
X007045Y001781D02*
X007012Y001747D01*
X007012Y001681D01*
X007045Y001647D01*
X007179Y001647D01*
X007212Y001681D01*
X007212Y001747D01*
X007179Y001781D01*
X007179Y001560D02*
X007212Y001526D01*
X007212Y001460D01*
X007179Y001426D01*
X007112Y001460D02*
X007112Y001526D01*
X007146Y001560D01*
X007179Y001560D01*
X007112Y001460D02*
X007079Y001426D01*
X007045Y001426D01*
X007012Y001460D01*
X007012Y001526D01*
X007045Y001560D01*
X007374Y001268D02*
X007374Y001068D01*
X007508Y001068D01*
X007595Y001068D02*
X007595Y001268D01*
X007695Y001268D01*
X007729Y001235D01*
X007729Y001168D01*
X007695Y001135D01*
X007595Y001135D01*
X007816Y001068D02*
X007883Y001135D01*
X007950Y001068D01*
X007950Y001268D01*
X007816Y001268D02*
X007816Y001068D01*
X007212Y000939D02*
X007146Y000872D01*
X007212Y000805D01*
X007012Y000805D01*
X007045Y000718D02*
X007112Y000718D01*
X007146Y000684D01*
X007146Y000584D01*
X007212Y000584D02*
X007012Y000584D01*
X007012Y000684D01*
X007045Y000718D01*
X007212Y000497D02*
X007212Y000363D01*
X007012Y000363D01*
X007012Y000939D02*
X007212Y000939D01*
D11*
X000474Y000261D02*
X000303Y000432D01*
X000303Y000932D01*
X000356Y001182D01*
X000303Y001432D01*
X000303Y001932D01*
X000356Y002182D01*
X000303Y002432D01*
X000303Y002932D01*
X000356Y003182D01*
X000303Y003432D01*
X000303Y003932D01*
X000356Y004182D01*
X000303Y004432D01*
X000303Y004932D01*
X000356Y005182D01*
X000303Y005432D01*
X000303Y005932D01*
X000474Y006300D01*
X000974Y006300D01*
X001146Y005932D01*
X001146Y005432D01*
X001093Y005182D01*
X001146Y004932D01*
X001146Y004432D01*
X001093Y004182D01*
X001146Y003932D01*
X001146Y003432D01*
X001093Y003182D01*
X001146Y002932D01*
X001146Y002432D01*
X001093Y002182D01*
X001146Y001932D01*
X001146Y001432D01*
X001093Y001182D01*
X001146Y000932D01*
X001146Y000432D01*
X000974Y000261D01*
X000474Y000261D01*
X003546Y002866D02*
X003684Y002728D01*
X004983Y002728D02*
X005121Y002728D01*
X005121Y002866D01*
X005121Y004165D02*
X005121Y004303D01*
X004983Y004303D01*
X003684Y004303D02*
X003546Y004303D01*
X003546Y004165D01*
X002637Y004469D02*
X001987Y004469D01*
X001970Y004471D01*
X001953Y004475D01*
X001937Y004482D01*
X001923Y004492D01*
X001910Y004505D01*
X001900Y004519D01*
X001893Y004535D01*
X001889Y004552D01*
X001887Y004569D01*
X001887Y005169D02*
X001889Y005186D01*
X001893Y005203D01*
X001900Y005219D01*
X001910Y005233D01*
X001923Y005246D01*
X001937Y005256D01*
X001953Y005263D01*
X001970Y005267D01*
X001987Y005269D01*
X002637Y005269D01*
X002654Y005267D01*
X002671Y005263D01*
X002687Y005256D01*
X002701Y005246D01*
X002714Y005233D01*
X002724Y005219D01*
X002731Y005203D01*
X002735Y005186D01*
X002737Y005169D01*
X002737Y004569D02*
X002735Y004552D01*
X002731Y004535D01*
X002724Y004519D01*
X002714Y004505D01*
X002701Y004492D01*
X002687Y004482D01*
X002671Y004475D01*
X002654Y004471D01*
X002637Y004469D01*
X005000Y001156D02*
X005000Y000506D01*
X005002Y000489D01*
X005006Y000472D01*
X005013Y000456D01*
X005023Y000442D01*
X005036Y000429D01*
X005050Y000419D01*
X005066Y000412D01*
X005083Y000408D01*
X005100Y000406D01*
X005700Y000406D02*
X005717Y000408D01*
X005734Y000412D01*
X005750Y000419D01*
X005764Y000429D01*
X005777Y000442D01*
X005787Y000456D01*
X005794Y000472D01*
X005798Y000489D01*
X005800Y000506D01*
X005800Y001156D01*
X005798Y001173D01*
X005794Y001190D01*
X005787Y001206D01*
X005777Y001220D01*
X005764Y001233D01*
X005750Y001243D01*
X005734Y001250D01*
X005717Y001254D01*
X005700Y001256D01*
X005100Y001256D02*
X005083Y001254D01*
X005066Y001250D01*
X005050Y001243D01*
X005036Y001233D01*
X005023Y001220D01*
X005013Y001206D01*
X005006Y001190D01*
X005002Y001173D01*
X005000Y001156D01*
X007303Y000932D02*
X007303Y000432D01*
X007474Y000261D01*
X007974Y000261D01*
X008146Y000432D01*
X008146Y000932D01*
X008093Y001182D01*
X008146Y001432D01*
X008146Y001932D01*
X008093Y002182D01*
X008146Y002432D01*
X008146Y002932D01*
X008093Y003182D01*
X008146Y003432D01*
X008146Y003932D01*
X008093Y004182D01*
X008146Y004432D01*
X008146Y004932D01*
X008093Y005182D01*
X008146Y005432D01*
X008146Y005932D01*
X007974Y006300D01*
X007474Y006300D01*
X007303Y005932D01*
X007303Y005432D01*
X007356Y005182D01*
X007303Y004932D01*
X007303Y004432D01*
X007356Y004182D01*
X007303Y003932D01*
X007303Y003432D01*
X007356Y003182D01*
X007303Y002932D01*
X007303Y002432D01*
X007356Y002182D01*
X007303Y001932D01*
X007303Y001432D01*
X007356Y001182D01*
X007303Y000932D01*
D12*
X006283Y003222D02*
X006259Y003222D01*
X006497Y005198D02*
X006521Y005198D01*
X003637Y000907D02*
X003613Y000907D01*
X002705Y000905D02*
X002681Y000905D01*
D13*
X002427Y000978D02*
X002427Y001015D01*
X002391Y001051D01*
X002317Y001051D01*
X002281Y001015D01*
X002206Y001015D02*
X002170Y001051D01*
X002096Y001051D01*
X002060Y001015D01*
X002060Y000868D01*
X002096Y000831D01*
X002170Y000831D01*
X002206Y000868D01*
X002281Y000831D02*
X002427Y000978D01*
X002427Y000831D02*
X002281Y000831D01*
X003049Y000845D02*
X003085Y000808D01*
X003159Y000808D01*
X003195Y000845D01*
X003270Y000808D02*
X003416Y000808D01*
X003343Y000808D02*
X003343Y001028D01*
X003270Y000955D01*
X003195Y000992D02*
X003159Y001028D01*
X003085Y001028D01*
X003049Y000992D01*
X003049Y000845D01*
X002847Y001644D02*
X002700Y001644D01*
X002847Y001790D01*
X002847Y001827D01*
X002810Y001864D01*
X002737Y001864D01*
X002700Y001827D01*
X002626Y001827D02*
X002626Y001754D01*
X002589Y001717D01*
X002479Y001717D01*
X002552Y001717D02*
X002626Y001644D01*
X002479Y001644D02*
X002479Y001864D01*
X002589Y001864D01*
X002626Y001827D01*
X004213Y001828D02*
X004323Y001828D01*
X004360Y001864D01*
X004360Y001938D01*
X004323Y001974D01*
X004213Y001974D01*
X004213Y001754D01*
X004286Y001828D02*
X004360Y001754D01*
X004434Y001754D02*
X004581Y001754D01*
X004507Y001754D02*
X004507Y001974D01*
X004434Y001901D01*
X006450Y003588D02*
X006487Y003551D01*
X006560Y003551D01*
X006597Y003588D01*
X006671Y003588D02*
X006708Y003551D01*
X006781Y003551D01*
X006818Y003588D01*
X006818Y003625D01*
X006781Y003661D01*
X006744Y003661D01*
X006781Y003661D02*
X006818Y003698D01*
X006818Y003735D01*
X006781Y003771D01*
X006708Y003771D01*
X006671Y003735D01*
X006597Y003735D02*
X006560Y003771D01*
X006487Y003771D01*
X006450Y003735D01*
X006450Y003588D01*
X006206Y004816D02*
X006206Y005036D01*
X006096Y004926D01*
X006243Y004926D01*
X006022Y004999D02*
X005985Y005036D01*
X005912Y005036D01*
X005875Y004999D01*
X005875Y004852D01*
X005912Y004816D01*
X005985Y004816D01*
X006022Y004852D01*
D14*
X005049Y001910D03*
X003371Y001715D03*
D15*
X003969Y001456D02*
X003969Y000456D01*
X003971Y000439D01*
X003975Y000422D01*
X003982Y000406D01*
X003992Y000392D01*
X004005Y000379D01*
X004019Y000369D01*
X004035Y000362D01*
X004052Y000358D01*
X004069Y000356D01*
X004669Y000356D01*
X004686Y000358D01*
X004703Y000362D01*
X004719Y000369D01*
X004733Y000379D01*
X004746Y000392D01*
X004756Y000406D01*
X004763Y000422D01*
X004767Y000439D01*
X004769Y000456D01*
X004769Y001456D01*
X004767Y001473D01*
X004763Y001490D01*
X004756Y001506D01*
X004746Y001520D01*
X004733Y001533D01*
X004719Y001543D01*
X004703Y001550D01*
X004686Y001554D01*
X004669Y001556D01*
X004069Y001556D01*
X004052Y001554D01*
X004035Y001550D01*
X004019Y001543D01*
X004005Y001533D01*
X003992Y001520D01*
X003982Y001506D01*
X003975Y001490D01*
X003971Y001473D01*
X003969Y001456D01*
D16*
X004851Y001486D02*
X004876Y001461D01*
X004926Y001461D01*
X004951Y001436D01*
X004951Y001411D01*
X004926Y001386D01*
X004876Y001386D01*
X004851Y001411D01*
X004851Y001486D02*
X004851Y001511D01*
X004876Y001536D01*
X004926Y001536D01*
X004951Y001511D01*
X005048Y001536D02*
X005098Y001536D01*
X005073Y001536D02*
X005073Y001411D01*
X005048Y001386D01*
X005023Y001386D01*
X004998Y001411D01*
X005145Y001386D02*
X005245Y001386D01*
X005195Y001386D02*
X005195Y001536D01*
X005145Y001486D01*
X005914Y001030D02*
X006014Y000930D01*
X006014Y000883D02*
X005914Y000783D01*
X005914Y000736D02*
X005939Y000736D01*
X005964Y000711D01*
X005989Y000736D01*
X006014Y000736D01*
X006039Y000711D01*
X006039Y000661D01*
X006014Y000636D01*
X005964Y000686D02*
X005964Y000711D01*
X005914Y000736D02*
X005889Y000711D01*
X005889Y000661D01*
X005914Y000636D01*
X005889Y000588D02*
X005889Y000538D01*
X005889Y000563D02*
X006014Y000563D01*
X006039Y000538D01*
X006039Y000513D01*
X006014Y000488D01*
X006014Y000441D02*
X006039Y000416D01*
X006039Y000366D01*
X006014Y000341D01*
X005964Y000366D02*
X005964Y000416D01*
X005989Y000441D01*
X006014Y000441D01*
X005964Y000366D02*
X005939Y000341D01*
X005914Y000341D01*
X005889Y000366D01*
X005889Y000416D01*
X005914Y000441D01*
X005964Y000783D02*
X005964Y000883D01*
X005964Y000930D02*
X005964Y001030D01*
X006014Y001030D02*
X005914Y000930D01*
X005914Y000883D02*
X006014Y000783D01*
X006014Y000833D02*
X005914Y000833D01*
X005914Y000980D02*
X006014Y000980D01*
X003191Y004236D02*
X003091Y004336D01*
X003044Y004336D02*
X002944Y004236D01*
X002944Y004286D02*
X003044Y004286D01*
X003091Y004286D02*
X003191Y004286D01*
X003191Y004336D02*
X003091Y004236D01*
X003044Y004236D02*
X002944Y004336D01*
X002897Y004336D02*
X002872Y004361D01*
X002822Y004361D01*
X002797Y004336D01*
X002749Y004361D02*
X002699Y004361D01*
X002724Y004361D02*
X002724Y004236D01*
X002699Y004211D01*
X002674Y004211D01*
X002649Y004236D01*
X002602Y004236D02*
X002577Y004211D01*
X002527Y004211D01*
X002502Y004236D01*
X002527Y004286D02*
X002577Y004286D01*
X002602Y004261D01*
X002602Y004236D01*
X002527Y004286D02*
X002502Y004311D01*
X002502Y004336D01*
X002527Y004361D01*
X002577Y004361D01*
X002602Y004336D01*
X002797Y004211D02*
X002897Y004311D01*
X002897Y004336D01*
X002897Y004211D02*
X002797Y004211D01*
X002994Y004236D02*
X002994Y004336D01*
X003141Y004336D02*
X003141Y004236D01*
D17*
X004432Y005417D03*
X002896Y006069D03*
X002881Y006111D03*
X002811Y006069D03*
X002811Y006062D03*
X002761Y006069D03*
X002747Y006111D03*
X002676Y006069D03*
X002676Y006062D03*
X002627Y006069D03*
X002612Y006111D03*
X002584Y006012D03*
X002719Y006012D03*
X002853Y006012D03*
X002478Y006111D03*
X002407Y006069D03*
X002407Y006062D03*
X002450Y006012D03*
D18*
X002446Y006161D03*
X004761Y005417D03*
D19*
X005232Y005821D03*
X005558Y005417D03*
D20*
X005558Y005424D03*
X005671Y005573D03*
X005671Y005587D03*
X005671Y005623D03*
X005671Y005637D03*
X005664Y005686D03*
X005813Y005686D03*
X005813Y005672D03*
X005813Y005637D03*
X005813Y005623D03*
X005813Y005587D03*
X005813Y005573D03*
X005813Y005538D03*
X005813Y005523D03*
X005813Y005495D03*
X005813Y005474D03*
X005813Y005446D03*
X005813Y005424D03*
X005813Y005715D03*
X005813Y005736D03*
X005813Y005764D03*
X005813Y005785D03*
X005813Y005863D03*
X005813Y005892D03*
X005813Y005913D03*
X005813Y005941D03*
X005402Y005672D03*
X005077Y005637D03*
X005077Y005623D03*
X005077Y005587D03*
X005077Y005573D03*
X005077Y005538D03*
X005077Y005523D03*
X005077Y005495D03*
X005077Y005474D03*
X005077Y005446D03*
X005077Y005424D03*
X004928Y005573D03*
X004928Y005587D03*
X004928Y005686D03*
X004928Y005715D03*
X004701Y005715D03*
X004694Y005573D03*
X004553Y005538D03*
X004545Y005523D03*
X004553Y005672D03*
X004538Y005715D03*
X004298Y005686D03*
X004298Y005672D03*
X004170Y005715D03*
X004163Y005686D03*
X004156Y005672D03*
X004149Y005637D03*
X004142Y005623D03*
X004021Y005672D03*
X004007Y005736D03*
X003759Y005623D03*
X003816Y005424D03*
X004085Y005424D03*
X004305Y005538D03*
X003391Y005538D03*
X003391Y005523D03*
X003391Y005495D03*
X003391Y005474D03*
X003391Y005446D03*
X003391Y005424D03*
X003391Y005573D03*
X003391Y005587D03*
X003391Y005623D03*
X003391Y005637D03*
X003391Y005672D03*
X003391Y005686D03*
X003143Y005686D03*
X003143Y005672D03*
X002995Y005672D03*
X002995Y005686D03*
X002995Y005715D03*
X002995Y005736D03*
X002995Y005764D03*
X002995Y005785D03*
X002995Y005863D03*
X002995Y005892D03*
X002995Y005913D03*
X002995Y005941D03*
X002846Y005764D03*
X002846Y005736D03*
X002846Y005715D03*
X002846Y005686D03*
X002846Y005672D03*
X002846Y005637D03*
X002846Y005623D03*
X002846Y005587D03*
X002846Y005573D03*
X002846Y005538D03*
X002846Y005523D03*
X002846Y005495D03*
X002846Y005474D03*
X002846Y005446D03*
X002846Y005424D03*
X002995Y005424D03*
X002995Y005446D03*
X002995Y005474D03*
X002995Y005495D03*
X002995Y005523D03*
X002995Y005538D03*
X002995Y005573D03*
X002995Y005587D03*
X002995Y005623D03*
X002995Y005637D03*
X002442Y005637D03*
X002442Y005623D03*
X002442Y005587D03*
X002442Y005573D03*
X002442Y005538D03*
X002442Y005523D03*
X002442Y005495D03*
X002442Y005474D03*
X002442Y005446D03*
X002442Y005424D03*
X002442Y005672D03*
X002442Y005686D03*
X002442Y005715D03*
X002442Y005736D03*
X002442Y005764D03*
D21*
X002644Y005424D03*
X003381Y005715D03*
X003713Y005785D03*
X003721Y005764D03*
X003728Y005736D03*
X003735Y005715D03*
X003742Y005686D03*
X003756Y005637D03*
X003706Y005814D03*
X004174Y005736D03*
X004181Y005764D03*
X004188Y005785D03*
X004209Y005863D03*
X004216Y005892D03*
X004223Y005913D03*
X004230Y005941D03*
X004308Y005715D03*
X004308Y005523D03*
X004924Y005538D03*
X004924Y005672D03*
X005193Y005785D03*
X005406Y005686D03*
X005406Y005538D03*
X005257Y005523D03*
X005257Y005495D03*
X005257Y005474D03*
X005257Y005446D03*
X005257Y005424D03*
X005661Y005538D03*
D22*
X005399Y005573D03*
X005399Y005587D03*
X005399Y005623D03*
X005399Y005637D03*
X005399Y005764D03*
X005399Y005785D03*
X005399Y005814D03*
X005399Y005863D03*
X005399Y005892D03*
X005399Y005913D03*
X005399Y005941D03*
X005073Y005785D03*
X005073Y005764D03*
X004691Y005686D03*
X004549Y005686D03*
X004294Y005573D03*
X004032Y005623D03*
X004032Y005637D03*
X004018Y005686D03*
X004011Y005715D03*
X003891Y005715D03*
X003883Y005686D03*
X003869Y005623D03*
X003536Y005623D03*
X003536Y005637D03*
X003536Y005672D03*
X003536Y005686D03*
X003536Y005715D03*
X003536Y005736D03*
X003536Y005764D03*
X003536Y005785D03*
X003536Y005863D03*
X003536Y005892D03*
X003536Y005913D03*
X003536Y005941D03*
X003536Y005587D03*
X003536Y005573D03*
X003536Y005538D03*
X003536Y005523D03*
X003536Y005495D03*
X003536Y005474D03*
X003536Y005446D03*
X003536Y005424D03*
X003140Y005424D03*
X003140Y005446D03*
X003140Y005474D03*
X003140Y005495D03*
X003140Y005523D03*
X003140Y005538D03*
X003140Y005573D03*
X003140Y005587D03*
X003140Y005623D03*
X003140Y005637D03*
X003140Y005764D03*
X003140Y005785D03*
X002850Y006040D03*
X002581Y006040D03*
X002446Y006040D03*
X002545Y005764D03*
X002552Y005736D03*
X002559Y005715D03*
X002581Y005637D03*
X002581Y005623D03*
X002595Y005573D03*
X002708Y005623D03*
X002736Y005736D03*
X002743Y005764D03*
X005399Y005474D03*
X005399Y005446D03*
X005399Y005424D03*
D23*
X005413Y005523D03*
X005413Y005715D03*
X005186Y005764D03*
X004429Y005814D03*
X004330Y005736D03*
X004429Y005424D03*
X006114Y005672D03*
D24*
X006082Y005637D03*
X006025Y005573D03*
X005983Y005523D03*
X005650Y005523D03*
X005650Y005715D03*
X004921Y005523D03*
X004758Y005424D03*
X004694Y005495D03*
X004708Y005587D03*
X004715Y005736D03*
X004085Y005446D03*
X003816Y005446D03*
X003689Y005892D03*
X003682Y005913D03*
X003675Y005941D03*
X003151Y005715D03*
D25*
X002719Y005672D03*
X002712Y005637D03*
X002570Y005672D03*
X004935Y005424D03*
D26*
X006064Y005424D03*
X006064Y005446D03*
X006064Y005474D03*
X006064Y005495D03*
D27*
X005813Y005481D03*
X005813Y005531D03*
X005813Y005580D03*
X005813Y005630D03*
X005813Y005679D03*
X005813Y005729D03*
X005813Y005778D03*
X005813Y005899D03*
X005813Y005948D03*
X005664Y005679D03*
X005671Y005630D03*
X005671Y005580D03*
X005813Y005431D03*
X005402Y005679D03*
X005077Y005630D03*
X005077Y005580D03*
X005077Y005531D03*
X005077Y005481D03*
X005077Y005431D03*
X004928Y005580D03*
X004928Y005679D03*
X004708Y005729D03*
X004553Y005679D03*
X004545Y005531D03*
X004305Y005531D03*
X004298Y005679D03*
X004170Y005729D03*
X004184Y005778D03*
X004156Y005679D03*
X004085Y005431D03*
X003816Y005431D03*
X003759Y005630D03*
X003745Y005679D03*
X003731Y005729D03*
X003391Y005679D03*
X003391Y005630D03*
X003391Y005580D03*
X003391Y005531D03*
X003391Y005481D03*
X003391Y005431D03*
X003143Y005679D03*
X002995Y005679D03*
X002995Y005630D03*
X002995Y005580D03*
X002995Y005531D03*
X002995Y005481D03*
X002995Y005431D03*
X002846Y005431D03*
X002846Y005481D03*
X002846Y005531D03*
X002846Y005580D03*
X002846Y005630D03*
X002846Y005679D03*
X002846Y005729D03*
X002995Y005729D03*
X002995Y005778D03*
X002995Y005899D03*
X002995Y005948D03*
X002442Y005729D03*
X002442Y005679D03*
X002442Y005630D03*
X002442Y005580D03*
X002442Y005531D03*
X002442Y005481D03*
X002442Y005431D03*
D28*
X002644Y005431D03*
X003721Y005778D03*
X003685Y005899D03*
X004216Y005899D03*
X004528Y005729D03*
X004698Y005580D03*
X004924Y005531D03*
X004917Y005729D03*
X005257Y005481D03*
X005257Y005431D03*
X005654Y005531D03*
D29*
X005399Y005580D03*
X005399Y005630D03*
X005399Y005778D03*
X005399Y005899D03*
X005399Y005948D03*
X005073Y005778D03*
X005399Y005431D03*
X004032Y005630D03*
X004018Y005679D03*
X004011Y005729D03*
X003883Y005679D03*
X003536Y005679D03*
X003536Y005630D03*
X003536Y005580D03*
X003536Y005531D03*
X003536Y005481D03*
X003536Y005431D03*
X003536Y005729D03*
X003536Y005778D03*
X003536Y005899D03*
X003536Y005948D03*
X003140Y005778D03*
X003140Y005630D03*
X003140Y005580D03*
X003140Y005531D03*
X003140Y005481D03*
X003140Y005431D03*
X002722Y005679D03*
X002736Y005729D03*
X002581Y005630D03*
X002595Y005580D03*
X002552Y005729D03*
D30*
X002814Y005899D03*
X004429Y005431D03*
D31*
X004761Y005431D03*
D32*
X004684Y005531D03*
X004931Y005431D03*
X004145Y005630D03*
X002566Y005679D03*
D33*
X003951Y005899D03*
X004085Y005481D03*
X005558Y005431D03*
D34*
X005519Y005481D03*
X006064Y005481D03*
X006064Y005431D03*
D35*
X005813Y005439D03*
X005813Y005453D03*
X005813Y005467D03*
X005813Y005488D03*
X005813Y005502D03*
X005813Y005516D03*
X005813Y005545D03*
X005813Y005552D03*
X005813Y005566D03*
X005813Y005594D03*
X005813Y005608D03*
X005813Y005616D03*
X005813Y005644D03*
X005813Y005658D03*
X005813Y005665D03*
X005813Y005693D03*
X005813Y005708D03*
X005813Y005722D03*
X005813Y005743D03*
X005813Y005757D03*
X005813Y005771D03*
X005813Y005793D03*
X005813Y005807D03*
X005813Y005856D03*
X005813Y005870D03*
X005813Y005885D03*
X005813Y005906D03*
X005813Y005920D03*
X005813Y005934D03*
X005671Y005665D03*
X005671Y005658D03*
X005671Y005644D03*
X005671Y005616D03*
X005671Y005608D03*
X005671Y005594D03*
X005664Y005552D03*
X005402Y005552D03*
X005402Y005566D03*
X005402Y005665D03*
X005197Y005793D03*
X005077Y005665D03*
X005077Y005658D03*
X005077Y005644D03*
X005077Y005616D03*
X005077Y005608D03*
X005077Y005594D03*
X005077Y005566D03*
X005077Y005552D03*
X005077Y005545D03*
X005077Y005516D03*
X005077Y005502D03*
X005077Y005488D03*
X005077Y005467D03*
X005077Y005453D03*
X005077Y005439D03*
X004928Y005545D03*
X004928Y005552D03*
X004928Y005566D03*
X004928Y005594D03*
X004928Y005693D03*
X004928Y005708D03*
X004921Y005722D03*
X004701Y005722D03*
X004553Y005665D03*
X004687Y005552D03*
X004687Y005516D03*
X004298Y005545D03*
X004298Y005552D03*
X004156Y005665D03*
X004149Y005644D03*
X004142Y005616D03*
X004163Y005693D03*
X004163Y005708D03*
X004170Y005722D03*
X004177Y005743D03*
X004177Y005757D03*
X004184Y005771D03*
X004191Y005807D03*
X004199Y005835D03*
X004206Y005856D03*
X004213Y005885D03*
X004220Y005906D03*
X004227Y005934D03*
X004298Y005693D03*
X004036Y005616D03*
X004029Y005644D03*
X003767Y005608D03*
X003752Y005658D03*
X003738Y005708D03*
X003724Y005757D03*
X003391Y005665D03*
X003391Y005658D03*
X003391Y005644D03*
X003391Y005616D03*
X003391Y005608D03*
X003391Y005594D03*
X003391Y005566D03*
X003391Y005552D03*
X003391Y005545D03*
X003391Y005516D03*
X003391Y005502D03*
X003391Y005488D03*
X003391Y005467D03*
X003391Y005453D03*
X003391Y005439D03*
X003143Y005665D03*
X002995Y005665D03*
X002995Y005658D03*
X002995Y005644D03*
X002995Y005616D03*
X002995Y005608D03*
X002995Y005594D03*
X002995Y005566D03*
X002995Y005552D03*
X002995Y005545D03*
X002995Y005516D03*
X002995Y005502D03*
X002995Y005488D03*
X002995Y005467D03*
X002995Y005453D03*
X002995Y005439D03*
X002846Y005439D03*
X002846Y005453D03*
X002846Y005467D03*
X002846Y005488D03*
X002846Y005502D03*
X002846Y005516D03*
X002846Y005545D03*
X002846Y005552D03*
X002846Y005566D03*
X002846Y005594D03*
X002846Y005608D03*
X002846Y005616D03*
X002846Y005644D03*
X002846Y005658D03*
X002846Y005665D03*
X002846Y005693D03*
X002846Y005708D03*
X002846Y005722D03*
X002846Y005743D03*
X002846Y005757D03*
X002846Y005771D03*
X002995Y005771D03*
X002995Y005757D03*
X002995Y005743D03*
X002995Y005722D03*
X002995Y005708D03*
X002995Y005693D03*
X002995Y005793D03*
X002995Y005807D03*
X002995Y005856D03*
X002995Y005870D03*
X002995Y005885D03*
X002995Y005906D03*
X002995Y005920D03*
X002995Y005934D03*
X002442Y005771D03*
X002442Y005757D03*
X002442Y005743D03*
X002442Y005722D03*
X002442Y005708D03*
X002442Y005693D03*
X002442Y005665D03*
X002442Y005658D03*
X002442Y005644D03*
X002442Y005616D03*
X002442Y005608D03*
X002442Y005594D03*
X002442Y005566D03*
X002442Y005552D03*
X002442Y005545D03*
X002442Y005516D03*
X002442Y005502D03*
X002442Y005488D03*
X002442Y005467D03*
X002442Y005453D03*
X002442Y005439D03*
D36*
X002644Y005439D03*
X003147Y005693D03*
X003388Y005693D03*
X003388Y005708D03*
X003713Y005793D03*
X003713Y005807D03*
X003706Y005821D03*
X003692Y005870D03*
X003685Y005906D03*
X003678Y005934D03*
X003721Y005771D03*
X003728Y005743D03*
X003735Y005722D03*
X003742Y005693D03*
X003756Y005644D03*
X003763Y005616D03*
X003813Y005439D03*
X004188Y005793D03*
X004202Y005842D03*
X004209Y005870D03*
X004223Y005920D03*
X004315Y005722D03*
X004308Y005708D03*
X004315Y005516D03*
X004542Y005516D03*
X004691Y005502D03*
X005257Y005502D03*
X005257Y005488D03*
X005257Y005467D03*
X005257Y005453D03*
X005257Y005439D03*
X005257Y005516D03*
X005406Y005545D03*
X005406Y005693D03*
X005654Y005708D03*
X005661Y005693D03*
X005661Y005545D03*
D37*
X005399Y005594D03*
X005399Y005608D03*
X005399Y005616D03*
X005399Y005644D03*
X005399Y005658D03*
X005399Y005757D03*
X005399Y005771D03*
X005399Y005793D03*
X005399Y005807D03*
X005399Y005821D03*
X005399Y005835D03*
X005399Y005842D03*
X005399Y005856D03*
X005399Y005870D03*
X005399Y005885D03*
X005399Y005906D03*
X005399Y005920D03*
X005399Y005934D03*
X005073Y005807D03*
X005073Y005793D03*
X005073Y005771D03*
X004698Y005708D03*
X004691Y005566D03*
X004556Y005658D03*
X004549Y005693D03*
X004542Y005708D03*
X004294Y005566D03*
X004152Y005658D03*
X004138Y005608D03*
X004039Y005608D03*
X004025Y005658D03*
X004025Y005665D03*
X004018Y005693D03*
X004011Y005708D03*
X004011Y005722D03*
X004004Y005743D03*
X004004Y005757D03*
X003891Y005722D03*
X003891Y005708D03*
X003883Y005693D03*
X003876Y005658D03*
X003536Y005658D03*
X003536Y005665D03*
X003536Y005644D03*
X003536Y005616D03*
X003536Y005608D03*
X003536Y005594D03*
X003536Y005566D03*
X003536Y005552D03*
X003536Y005545D03*
X003536Y005516D03*
X003536Y005502D03*
X003536Y005488D03*
X003536Y005467D03*
X003536Y005453D03*
X003536Y005439D03*
X003536Y005693D03*
X003536Y005708D03*
X003536Y005722D03*
X003536Y005743D03*
X003536Y005757D03*
X003536Y005771D03*
X003536Y005793D03*
X003536Y005807D03*
X003536Y005856D03*
X003536Y005870D03*
X003536Y005885D03*
X003536Y005906D03*
X003536Y005920D03*
X003536Y005934D03*
X003140Y005807D03*
X003140Y005793D03*
X003140Y005771D03*
X003140Y005757D03*
X003140Y005658D03*
X003140Y005644D03*
X003140Y005616D03*
X003140Y005608D03*
X003140Y005594D03*
X003140Y005566D03*
X003140Y005552D03*
X003140Y005545D03*
X003140Y005516D03*
X003140Y005502D03*
X003140Y005488D03*
X003140Y005467D03*
X003140Y005453D03*
X003140Y005439D03*
X002729Y005708D03*
X002743Y005757D03*
X002573Y005665D03*
X002573Y005658D03*
X002559Y005708D03*
X002559Y005722D03*
X002552Y005743D03*
X002545Y005757D03*
X002545Y005771D03*
X002588Y005608D03*
X005399Y005467D03*
X005399Y005453D03*
X005399Y005439D03*
D38*
X005409Y005708D03*
X004921Y005665D03*
X004085Y005453D03*
X004085Y005439D03*
X003816Y005453D03*
X003377Y005722D03*
X003151Y005708D03*
X003689Y005885D03*
X003682Y005920D03*
X005976Y005516D03*
X006004Y005552D03*
X006132Y005693D03*
D39*
X005562Y005453D03*
X004776Y005616D03*
X004429Y005439D03*
X004089Y005594D03*
X003813Y005594D03*
X002800Y005793D03*
X002488Y005793D03*
X002488Y005807D03*
D40*
X002481Y005856D03*
X002481Y005870D03*
X002644Y005552D03*
X002644Y005545D03*
X003813Y005566D03*
X004761Y005439D03*
D41*
X004684Y005545D03*
X004931Y005608D03*
X004931Y005616D03*
X004931Y005453D03*
X004931Y005439D03*
X005569Y005807D03*
X003898Y005757D03*
X003898Y005743D03*
X002566Y005693D03*
D42*
X002644Y005516D03*
X002644Y005502D03*
X003813Y005516D03*
X004089Y005516D03*
X005427Y005502D03*
X005562Y005439D03*
X005569Y005793D03*
D43*
X005519Y005488D03*
X006064Y005488D03*
X006064Y005467D03*
X006064Y005453D03*
X006064Y005439D03*
X003260Y005743D03*
D44*
X002644Y005446D03*
X004521Y005736D03*
X004910Y005736D03*
X005994Y005538D03*
X006036Y005587D03*
X006128Y005686D03*
X006149Y005715D03*
D45*
X004425Y005446D03*
D46*
X004761Y005446D03*
X004089Y005587D03*
X003954Y005764D03*
X002800Y005785D03*
X002488Y005814D03*
D47*
X002566Y005686D03*
X002715Y006040D03*
X003898Y005736D03*
X004684Y005538D03*
X004684Y005523D03*
X004931Y005446D03*
D48*
X005562Y005446D03*
X005569Y005785D03*
X004089Y005573D03*
X003310Y005785D03*
D49*
X003813Y005467D03*
X004917Y005516D03*
X005647Y005516D03*
X005647Y005722D03*
X006001Y005545D03*
X006043Y005594D03*
X006086Y005644D03*
X006100Y005658D03*
X006142Y005708D03*
X002644Y005453D03*
D50*
X004429Y005453D03*
X005569Y005757D03*
D51*
X004761Y005453D03*
D52*
X004687Y005509D03*
X004687Y005559D03*
X004545Y005701D03*
X004305Y005701D03*
X004177Y005750D03*
X004163Y005701D03*
X004149Y005651D03*
X004191Y005800D03*
X004199Y005828D03*
X004206Y005849D03*
X004213Y005878D03*
X004298Y005559D03*
X003752Y005651D03*
X003738Y005701D03*
X003391Y005651D03*
X003391Y005601D03*
X003391Y005559D03*
X003391Y005509D03*
X003391Y005460D03*
X002995Y005460D03*
X002995Y005509D03*
X002995Y005559D03*
X002995Y005601D03*
X002995Y005651D03*
X002995Y005701D03*
X002995Y005750D03*
X002995Y005800D03*
X002995Y005878D03*
X002995Y005927D03*
X002846Y005750D03*
X002846Y005701D03*
X002846Y005651D03*
X002846Y005601D03*
X002846Y005559D03*
X002846Y005509D03*
X002846Y005460D03*
X002442Y005460D03*
X002442Y005509D03*
X002442Y005559D03*
X002442Y005601D03*
X002442Y005651D03*
X002442Y005701D03*
X002442Y005750D03*
X004928Y005701D03*
X004928Y005559D03*
X005077Y005559D03*
X005077Y005601D03*
X005077Y005651D03*
X005077Y005509D03*
X005077Y005460D03*
X005402Y005559D03*
X005664Y005559D03*
X005671Y005601D03*
X005671Y005651D03*
X005813Y005651D03*
X005813Y005701D03*
X005813Y005750D03*
X005813Y005800D03*
X005813Y005878D03*
X005813Y005927D03*
X005813Y005601D03*
X005813Y005559D03*
X005813Y005509D03*
X005813Y005460D03*
D53*
X006050Y005601D03*
X006093Y005651D03*
X005639Y005509D03*
X002644Y005460D03*
D54*
X002588Y005601D03*
X002573Y005651D03*
X002559Y005701D03*
X002552Y005750D03*
X002729Y005701D03*
X003140Y005750D03*
X003140Y005800D03*
X003140Y005651D03*
X003140Y005601D03*
X003140Y005559D03*
X003140Y005509D03*
X003140Y005460D03*
X003536Y005460D03*
X003536Y005509D03*
X003536Y005559D03*
X003536Y005601D03*
X003536Y005651D03*
X003536Y005701D03*
X003536Y005750D03*
X003536Y005800D03*
X003536Y005878D03*
X003536Y005927D03*
X003876Y005651D03*
X004025Y005651D03*
X004018Y005701D03*
X004004Y005750D03*
X004698Y005701D03*
X005073Y005800D03*
X005200Y005800D03*
X005399Y005800D03*
X005399Y005828D03*
X005399Y005849D03*
X005399Y005878D03*
X005399Y005927D03*
X005399Y005651D03*
X005399Y005601D03*
X005399Y005460D03*
X002850Y006118D03*
X002581Y006118D03*
X002446Y006118D03*
D55*
X003816Y005460D03*
X004319Y005509D03*
X005409Y005701D03*
X006139Y005701D03*
D56*
X005087Y005701D03*
X004089Y005460D03*
D57*
X004425Y005460D03*
D58*
X004761Y005460D03*
D59*
X004931Y005460D03*
X004931Y005601D03*
X003898Y005750D03*
X002715Y005651D03*
X002715Y006118D03*
D60*
X003147Y005701D03*
X003388Y005701D03*
X003713Y005800D03*
X003706Y005828D03*
X003692Y005878D03*
X003678Y005927D03*
X003728Y005750D03*
X004223Y005927D03*
X005257Y005509D03*
X005257Y005460D03*
X005661Y005701D03*
D61*
X005565Y005460D03*
D62*
X005519Y005750D03*
X006064Y005460D03*
D63*
X004910Y005658D03*
X002644Y005488D03*
X002644Y005467D03*
D64*
X003158Y005722D03*
X003951Y005906D03*
X004085Y005467D03*
X004723Y005594D03*
X005416Y005516D03*
X005416Y005722D03*
D65*
X004815Y005771D03*
X004425Y005467D03*
D66*
X004815Y005467D03*
D67*
X005565Y005467D03*
D68*
X002644Y005474D03*
D69*
X003816Y005474D03*
D70*
X004085Y005474D03*
X003951Y005892D03*
X003951Y005913D03*
D71*
X004425Y005474D03*
X004815Y005764D03*
D72*
X004811Y005474D03*
D73*
X004425Y005785D03*
X005565Y005474D03*
D74*
X002644Y005481D03*
D75*
X003816Y005481D03*
X005636Y005729D03*
D76*
X004429Y005481D03*
D77*
X004811Y005481D03*
D78*
X005094Y005708D03*
X005632Y005502D03*
X004089Y005488D03*
X003813Y005488D03*
D79*
X004425Y005488D03*
D80*
X004807Y005488D03*
D81*
X005101Y005715D03*
X003813Y005523D03*
X002821Y005941D03*
X002644Y005495D03*
D82*
X003813Y005495D03*
D83*
X004085Y005495D03*
X003951Y005863D03*
D84*
X004425Y005495D03*
D85*
X004085Y005523D03*
X004900Y005495D03*
X002818Y005913D03*
X002471Y005941D03*
D86*
X003264Y005736D03*
X005523Y005495D03*
D87*
X004815Y005807D03*
X004085Y005502D03*
X003816Y005502D03*
X003951Y005870D03*
X003951Y005885D03*
D88*
X003947Y005920D03*
X004330Y005502D03*
X004528Y005502D03*
X005186Y005771D03*
X006057Y005608D03*
X006064Y005616D03*
X006107Y005665D03*
X006156Y005722D03*
D89*
X004907Y005502D03*
D90*
X006068Y005502D03*
D91*
X004089Y005509D03*
X002644Y005509D03*
D92*
X003816Y005509D03*
X003951Y005878D03*
D93*
X003699Y005849D03*
X004535Y005509D03*
D94*
X004914Y005509D03*
D95*
X005420Y005509D03*
X005569Y005800D03*
X003310Y005800D03*
D96*
X003951Y005927D03*
X005969Y005509D03*
X006011Y005559D03*
D97*
X002644Y005538D03*
X002644Y005523D03*
D98*
X002644Y005531D03*
D99*
X003816Y005531D03*
X004085Y005531D03*
D100*
X004319Y005729D03*
X005190Y005778D03*
X005409Y005531D03*
X006032Y005580D03*
X006075Y005630D03*
D101*
X005986Y005531D03*
X003374Y005729D03*
D102*
X003813Y005538D03*
X004089Y005538D03*
X002814Y005892D03*
X002474Y005913D03*
D103*
X002474Y005920D03*
X002474Y005906D03*
X002814Y005906D03*
X002814Y005885D03*
X003310Y005793D03*
X003813Y005552D03*
X003813Y005545D03*
X004089Y005545D03*
X004089Y005552D03*
D104*
X003887Y005701D03*
X002740Y005750D03*
X002704Y005601D03*
X002690Y005559D03*
X002598Y005559D03*
D105*
X003816Y005559D03*
D106*
X004089Y005559D03*
X004889Y005651D03*
X002807Y005828D03*
X002807Y005849D03*
D107*
X002747Y005771D03*
X002740Y005743D03*
X002733Y005722D03*
X002726Y005693D03*
X002704Y005616D03*
X002704Y005608D03*
X002697Y005594D03*
X002598Y005566D03*
X002591Y005594D03*
X002584Y005616D03*
X002577Y005644D03*
X002584Y006033D03*
X002450Y006033D03*
X002853Y006033D03*
X003880Y005665D03*
X003873Y005644D03*
X003866Y005616D03*
X003866Y005608D03*
X004694Y005693D03*
D108*
X005208Y005807D03*
X002850Y006125D03*
X002850Y006132D03*
X002581Y006132D03*
X002581Y006125D03*
X002446Y006125D03*
X002446Y006132D03*
X002694Y005566D03*
D109*
X002807Y005835D03*
X002807Y005842D03*
X003954Y005793D03*
X004089Y005566D03*
D110*
X004195Y005821D03*
X004535Y005722D03*
X003749Y005665D03*
X003699Y005842D03*
X003699Y005856D03*
X003310Y005807D03*
X005668Y005566D03*
D111*
X006018Y005566D03*
X005084Y005693D03*
X003951Y005934D03*
X003703Y005835D03*
D112*
X003880Y005672D03*
X003873Y005637D03*
X002733Y005715D03*
X002726Y005686D03*
X002697Y005587D03*
X002697Y005573D03*
X002591Y005587D03*
D113*
X002481Y005863D03*
X003813Y005573D03*
D114*
X003873Y005630D03*
X002697Y005580D03*
D115*
X003813Y005580D03*
D116*
X004089Y005580D03*
D117*
X004291Y005580D03*
D118*
X003809Y005587D03*
X002804Y005814D03*
D119*
X004291Y005587D03*
D120*
X004425Y005594D03*
X004425Y005608D03*
X004425Y005616D03*
D121*
X004089Y005601D03*
X003813Y005601D03*
X002488Y005800D03*
D122*
X004425Y005601D03*
D123*
X004740Y005601D03*
X002474Y005927D03*
D124*
X002485Y005842D03*
X002485Y005835D03*
X002485Y005821D03*
X002804Y005821D03*
X002804Y005807D03*
X004758Y005608D03*
D125*
X004425Y005623D03*
D126*
X004832Y005623D03*
D127*
X005084Y005686D03*
X006068Y005623D03*
X003951Y005941D03*
X003696Y005863D03*
D128*
X003894Y005729D03*
X002712Y005630D03*
D129*
X004425Y005630D03*
D130*
X004839Y005630D03*
D131*
X004422Y005637D03*
D132*
X004850Y005637D03*
D133*
X002719Y005658D03*
X002719Y005665D03*
X002712Y005644D03*
X002719Y006033D03*
D134*
X004422Y005644D03*
D135*
X004868Y005644D03*
D136*
X004422Y005651D03*
D137*
X004291Y005658D03*
X004291Y005665D03*
D138*
X004195Y005814D03*
X003749Y005672D03*
X005080Y005672D03*
X005668Y005672D03*
D139*
X005080Y005679D03*
D140*
X006121Y005679D03*
D141*
X005137Y005722D03*
X005137Y005743D03*
X005137Y005757D03*
D142*
X005424Y005729D03*
X003165Y005729D03*
D143*
X005137Y005729D03*
D144*
X006068Y005729D03*
X006068Y005778D03*
D145*
X005569Y005764D03*
X005137Y005736D03*
X003310Y005764D03*
D146*
X005526Y005736D03*
D147*
X006068Y005736D03*
X006068Y005764D03*
X006068Y005785D03*
D148*
X004811Y005743D03*
X004422Y005743D03*
D149*
X005523Y005743D03*
D150*
X006068Y005743D03*
X006068Y005757D03*
X006068Y005771D03*
X006068Y005793D03*
X006068Y005807D03*
D151*
X003310Y005750D03*
D152*
X004425Y005750D03*
X004815Y005750D03*
D153*
X005137Y005750D03*
D154*
X006068Y005750D03*
X006068Y005800D03*
D155*
X003306Y005757D03*
D156*
X004425Y005757D03*
D157*
X004811Y005757D03*
D158*
X004425Y005764D03*
D159*
X003310Y005771D03*
X005569Y005771D03*
D160*
X003951Y005771D03*
D161*
X004425Y005771D03*
D162*
X002492Y005778D03*
D163*
X002800Y005778D03*
X003310Y005778D03*
D164*
X003951Y005778D03*
D165*
X004425Y005778D03*
D166*
X004815Y005778D03*
D167*
X005569Y005778D03*
D168*
X002492Y005785D03*
D169*
X003951Y005785D03*
D170*
X004811Y005785D03*
D171*
X004815Y005793D03*
X004425Y005793D03*
D172*
X004425Y005800D03*
X004815Y005800D03*
X002804Y005800D03*
X002485Y005828D03*
D173*
X002478Y005878D03*
X002811Y005878D03*
X003951Y005800D03*
D174*
X003951Y005807D03*
X003951Y005821D03*
X002811Y005856D03*
X002811Y005870D03*
X002478Y005885D03*
D175*
X002471Y005934D03*
X002818Y005934D03*
X002818Y005920D03*
X003951Y005856D03*
X003951Y005842D03*
X003951Y005835D03*
X004425Y005807D03*
D176*
X003310Y005814D03*
D177*
X002811Y005863D03*
X002478Y005892D03*
X003951Y005814D03*
D178*
X004815Y005814D03*
X002896Y006090D03*
X002853Y006154D03*
X002818Y006104D03*
X002811Y006090D03*
X002818Y006055D03*
X002853Y006005D03*
X002761Y006090D03*
X002754Y006104D03*
X002719Y006154D03*
X002683Y006104D03*
X002676Y006090D03*
X002683Y006055D03*
X002719Y006005D03*
X002584Y006005D03*
X002549Y006055D03*
X002549Y006104D03*
X002584Y006154D03*
X002619Y006104D03*
X002627Y006090D03*
X002485Y006104D03*
X002450Y006154D03*
X002414Y006104D03*
X002414Y006055D03*
X002450Y006005D03*
D179*
X002581Y006140D03*
X002715Y006140D03*
X002850Y006140D03*
X005215Y005814D03*
D180*
X005565Y005814D03*
D181*
X004429Y005821D03*
X002850Y006161D03*
X002715Y006161D03*
X002581Y006161D03*
D182*
X002818Y005927D03*
X003951Y005849D03*
X003951Y005828D03*
D183*
X002481Y005849D03*
D184*
X002478Y005899D03*
D185*
X002450Y005998D03*
X002584Y005998D03*
D186*
X002719Y005998D03*
X002853Y005998D03*
D187*
X002853Y006019D03*
X002719Y006019D03*
X002584Y006019D03*
X002450Y006019D03*
D188*
X002450Y006026D03*
X002584Y006026D03*
X002719Y006026D03*
X002853Y006026D03*
D189*
X002825Y006047D03*
X002811Y006097D03*
X002853Y006147D03*
X002881Y006047D03*
X002747Y006047D03*
X002676Y006097D03*
X002719Y006147D03*
X002584Y006147D03*
X002556Y006047D03*
X002612Y006047D03*
X002478Y006047D03*
X002421Y006047D03*
X002407Y006097D03*
X002450Y006147D03*
D190*
X002542Y006097D03*
X002690Y006047D03*
D191*
X002750Y006055D03*
X002885Y006055D03*
X002616Y006055D03*
X002481Y006055D03*
X002403Y006090D03*
D192*
X002418Y006111D03*
X002488Y006062D03*
X002552Y006111D03*
X002623Y006062D03*
X002687Y006111D03*
X002758Y006062D03*
X002821Y006111D03*
X002892Y006062D03*
D193*
X002542Y006062D03*
X002542Y006069D03*
X002492Y006069D03*
D194*
X002492Y006090D03*
X002542Y006090D03*
X002889Y006104D03*
D195*
X002892Y006097D03*
X002488Y006097D03*
D196*
X002623Y006097D03*
X002758Y006097D03*
D197*
X002715Y006125D03*
X002715Y006132D03*
D198*
X002446Y006140D03*
M02*
