G75*
%MOIN*%
%OFA0B0*%
%FSLAX24Y24*%
%IPPOS*%
%LPD*%
%AMOC8*
5,1,8,0,0,1.08239X$1,22.5*
%
%ADD10C,0.0040*%
D10*
X001229Y000320D02*
X001229Y000453D01*
X001229Y000541D02*
X001429Y000541D01*
X001429Y000641D01*
X001395Y000674D01*
X001329Y000674D01*
X001295Y000641D01*
X001295Y000541D01*
X001229Y000762D02*
X001295Y000829D01*
X001229Y000895D01*
X001429Y000895D01*
X001429Y000762D02*
X001229Y000762D01*
X001229Y000320D02*
X001429Y000320D01*
X001388Y001367D02*
X001354Y001367D01*
X001321Y001401D01*
X001321Y001467D01*
X001288Y001501D01*
X001254Y001501D01*
X001221Y001467D01*
X001221Y001401D01*
X001254Y001367D01*
X001388Y001367D02*
X001421Y001401D01*
X001421Y001467D01*
X001388Y001501D01*
X001388Y001588D02*
X001254Y001588D01*
X001221Y001622D01*
X001221Y001688D01*
X001254Y001722D01*
X001388Y001722D02*
X001421Y001688D01*
X001421Y001622D01*
X001388Y001588D01*
X001421Y001809D02*
X001221Y001809D01*
X001221Y001943D01*
X001262Y002328D02*
X001229Y002361D01*
X001229Y002428D01*
X001262Y002461D01*
X001295Y002461D01*
X001329Y002428D01*
X001329Y002361D01*
X001362Y002328D01*
X001395Y002328D01*
X001429Y002361D01*
X001429Y002428D01*
X001395Y002461D01*
X001429Y002549D02*
X001229Y002549D01*
X001229Y002649D01*
X001262Y002682D01*
X001395Y002682D01*
X001429Y002649D01*
X001429Y002549D01*
X001362Y002770D02*
X001229Y002770D01*
X001329Y002770D02*
X001329Y002903D01*
X001362Y002903D02*
X001229Y002903D01*
X001362Y002903D02*
X001429Y002837D01*
X001362Y002770D01*
X001395Y003273D02*
X001262Y003273D01*
X001229Y003306D01*
X001229Y003373D01*
X001262Y003406D01*
X001329Y003406D01*
X001329Y003339D01*
X001395Y003273D02*
X001429Y003306D01*
X001429Y003373D01*
X001395Y003406D01*
X001429Y003494D02*
X001229Y003494D01*
X001229Y003627D02*
X001429Y003627D01*
X001429Y003715D02*
X001429Y003815D01*
X001395Y003848D01*
X001262Y003848D01*
X001229Y003815D01*
X001229Y003715D01*
X001429Y003715D01*
X001229Y003627D02*
X001429Y003494D01*
X001425Y004342D02*
X001292Y004342D01*
X001225Y004409D01*
X001292Y004476D01*
X001425Y004476D01*
X001392Y004563D02*
X001258Y004563D01*
X001225Y004596D01*
X001225Y004663D01*
X001258Y004697D01*
X001258Y004784D02*
X001225Y004817D01*
X001225Y004884D01*
X001258Y004917D01*
X001392Y004917D02*
X001425Y004884D01*
X001425Y004817D01*
X001392Y004784D01*
X001258Y004784D01*
X001392Y004697D02*
X001425Y004663D01*
X001425Y004596D01*
X001392Y004563D01*
X001349Y005289D02*
X001349Y005389D01*
X001315Y005422D01*
X001282Y005422D01*
X001249Y005389D01*
X001249Y005289D01*
X001449Y005289D01*
X001449Y005389D01*
X001415Y005422D01*
X001382Y005422D01*
X001349Y005389D01*
X001349Y005510D02*
X001349Y005643D01*
X001382Y005643D02*
X001249Y005643D01*
X001382Y005643D02*
X001449Y005577D01*
X001382Y005510D01*
X001249Y005510D01*
X001449Y005731D02*
X001449Y005864D01*
X001449Y005798D02*
X001249Y005798D01*
X006965Y005844D02*
X007098Y005844D01*
X007165Y005777D01*
X007098Y005710D01*
X006965Y005710D01*
X006998Y005623D02*
X006965Y005589D01*
X006965Y005489D01*
X007165Y005489D01*
X007165Y005589D01*
X007132Y005623D01*
X007098Y005623D01*
X007065Y005589D01*
X007065Y005489D01*
X007065Y005589D02*
X007032Y005623D01*
X006998Y005623D01*
X007065Y005710D02*
X007065Y005844D01*
X007165Y005931D02*
X007165Y006065D01*
X007165Y005998D02*
X006965Y005998D01*
X007061Y004915D02*
X007028Y004882D01*
X007028Y004815D01*
X007061Y004782D01*
X007195Y004782D01*
X007228Y004815D01*
X007228Y004882D01*
X007195Y004915D01*
X007195Y004694D02*
X007228Y004661D01*
X007228Y004594D01*
X007195Y004561D01*
X007061Y004561D01*
X007028Y004594D01*
X007028Y004661D01*
X007061Y004694D01*
X007095Y004473D02*
X007228Y004473D01*
X007228Y004340D02*
X007095Y004340D01*
X007028Y004406D01*
X007095Y004473D01*
X007155Y003931D02*
X007022Y003931D01*
X006989Y003897D01*
X006989Y003797D01*
X007189Y003797D01*
X007189Y003897D01*
X007155Y003931D01*
X007189Y003710D02*
X006989Y003710D01*
X007189Y003576D01*
X006989Y003576D01*
X007022Y003489D02*
X007089Y003489D01*
X007089Y003422D01*
X007155Y003355D02*
X007022Y003355D01*
X006989Y003389D01*
X006989Y003456D01*
X007022Y003489D01*
X007155Y003489D02*
X007189Y003456D01*
X007189Y003389D01*
X007155Y003355D01*
X007161Y002947D02*
X007028Y002947D01*
X007128Y002947D02*
X007128Y002813D01*
X007161Y002813D02*
X007028Y002813D01*
X007061Y002726D02*
X007028Y002692D01*
X007028Y002592D01*
X007228Y002592D01*
X007228Y002692D01*
X007195Y002726D01*
X007061Y002726D01*
X007161Y002813D02*
X007228Y002880D01*
X007161Y002947D01*
X007195Y002505D02*
X007228Y002471D01*
X007228Y002405D01*
X007195Y002371D01*
X007161Y002371D01*
X007128Y002405D01*
X007128Y002471D01*
X007095Y002505D01*
X007061Y002505D01*
X007028Y002471D01*
X007028Y002405D01*
X007061Y002371D01*
X006989Y002002D02*
X006989Y001868D01*
X007189Y001868D01*
X007155Y001781D02*
X007189Y001747D01*
X007189Y001681D01*
X007155Y001647D01*
X007022Y001647D01*
X006989Y001681D01*
X006989Y001747D01*
X007022Y001781D01*
X007022Y001560D02*
X006989Y001526D01*
X006989Y001460D01*
X007022Y001426D01*
X007089Y001460D02*
X007089Y001526D01*
X007055Y001560D01*
X007022Y001560D01*
X007089Y001460D02*
X007122Y001426D01*
X007155Y001426D01*
X007189Y001460D01*
X007189Y001526D01*
X007155Y001560D01*
X007189Y000939D02*
X006989Y000939D01*
X007055Y000872D01*
X006989Y000805D01*
X007189Y000805D01*
X007155Y000718D02*
X007089Y000718D01*
X007055Y000684D01*
X007055Y000584D01*
X006989Y000584D02*
X007189Y000584D01*
X007189Y000684D01*
X007155Y000718D01*
X006989Y000497D02*
X006989Y000363D01*
X007189Y000363D01*
M02*
