G75*
%MOIN*%
%OFA0B0*%
%FSLAX24Y24*%
%IPPOS*%
%LPD*%
%AMOC8*
5,1,8,0,0,1.08239X$1,22.5*
%
%ADD10R,0.0178X0.0375*%
%ADD11R,0.0375X0.0178*%
%ADD12R,0.0414X0.0336*%
%ADD13R,0.0336X0.0414*%
%ADD14R,0.0560X0.0310*%
%ADD15R,0.0310X0.0560*%
%ADD16C,0.0800*%
%ADD17C,0.0436*%
D10*
X003842Y002728D03*
X004039Y002728D03*
X004235Y002728D03*
X004432Y002728D03*
X004629Y002728D03*
X004826Y002728D03*
X004826Y004303D03*
X004629Y004303D03*
X004432Y004303D03*
X004235Y004303D03*
X004039Y004303D03*
X003842Y004303D03*
D11*
X003546Y004008D03*
X003546Y003811D03*
X003546Y003614D03*
X003546Y003417D03*
X003546Y003220D03*
X003546Y003024D03*
X005121Y003024D03*
X005121Y003220D03*
X005121Y003417D03*
X005121Y003614D03*
X005121Y003811D03*
X005121Y004008D03*
D12*
X006271Y003478D03*
X006271Y002966D03*
X006509Y004942D03*
X006509Y005454D03*
X003625Y001163D03*
X003625Y000651D03*
X002693Y000649D03*
X002693Y001161D03*
D13*
X003115Y001715D03*
X003627Y001715D03*
X004793Y001910D03*
X005305Y001910D03*
D14*
X004369Y001276D03*
X004369Y000956D03*
X004369Y000636D03*
X005400Y000631D03*
X005400Y001031D03*
D15*
X002512Y004869D03*
X002112Y004869D03*
D16*
X000724Y000682D03*
X000724Y001682D03*
X000724Y002682D03*
X000724Y003682D03*
X000724Y004682D03*
X000724Y005682D03*
X007724Y005682D03*
X007724Y004682D03*
X007724Y003682D03*
X007724Y002682D03*
X007724Y001682D03*
X007724Y000682D03*
D17*
X006412Y002393D03*
X005932Y002393D03*
X005963Y004014D03*
X005973Y004491D03*
X004822Y004946D03*
X005607Y005594D03*
X002389Y004280D03*
X002035Y003694D03*
X002422Y002787D03*
X002817Y002416D03*
X002265Y001713D03*
M02*
