G75*
%MOIN*%
%OFA0B0*%
%FSLAX24Y24*%
%IPPOS*%
%LPD*%
%AMOC8*
5,1,8,0,0,1.08239X$1,22.5*
%
%ADD10C,0.0740*%
%ADD11C,0.0100*%
%ADD12C,0.0376*%
D10*
X000724Y000682D03*
X000724Y001682D03*
X000724Y002682D03*
X000724Y003682D03*
X000724Y004682D03*
X000724Y005682D03*
X007724Y005682D03*
X007724Y004682D03*
X007724Y003682D03*
X007724Y002682D03*
X007724Y001682D03*
X007724Y000682D03*
D11*
X000724Y000682D01*
X000724Y001682D02*
X002265Y001682D01*
X002265Y001713D01*
X002265Y001682D02*
X007724Y001682D01*
X006942Y002047D02*
X006608Y002047D01*
X006608Y002063D01*
X002776Y002043D01*
X002617Y002043D01*
X002458Y002166D01*
X002398Y002213D01*
X002422Y002787D01*
X002422Y002682D01*
X000724Y002682D01*
X001178Y002842D02*
X001131Y002954D01*
X000996Y003089D01*
X000820Y003162D01*
X000629Y003162D01*
X000520Y003117D01*
X000520Y003203D01*
X000525Y003200D01*
X000603Y003175D01*
X000674Y003163D01*
X000674Y003632D01*
X000774Y003632D01*
X000774Y003163D01*
X000846Y003175D01*
X000924Y003200D01*
X000997Y003237D01*
X001063Y003285D01*
X001121Y003343D01*
X001169Y003409D01*
X001206Y003482D01*
X001232Y003560D01*
X001243Y003632D01*
X000774Y003632D01*
X000774Y003732D01*
X000674Y003732D01*
X000674Y004200D01*
X000603Y004189D01*
X000525Y004164D01*
X000519Y004161D01*
X000519Y004247D01*
X000629Y004202D01*
X000820Y004202D01*
X000996Y004275D01*
X001131Y004410D01*
X001204Y004586D01*
X001204Y004777D01*
X001131Y004954D01*
X000996Y005089D01*
X000820Y005162D01*
X000629Y005162D01*
X000519Y005116D01*
X000519Y005247D01*
X000629Y005202D01*
X000820Y005202D01*
X000996Y005275D01*
X001131Y005410D01*
X001178Y005522D01*
X001851Y005522D01*
X001945Y005616D01*
X001945Y005957D01*
X003922Y005957D01*
X003922Y004787D01*
X003087Y004777D01*
X003047Y004695D01*
X003031Y004609D01*
X003044Y002610D01*
X002985Y002669D01*
X002916Y002698D01*
X002601Y004070D01*
X002641Y004111D01*
X002687Y004220D01*
X002687Y004339D01*
X002641Y004448D01*
X002557Y004532D01*
X002448Y004578D01*
X002329Y004578D01*
X002220Y004532D01*
X002136Y004448D01*
X002090Y004339D01*
X002090Y004220D01*
X002136Y004111D01*
X002220Y004027D01*
X002289Y003998D01*
X002501Y003077D01*
X002482Y003085D01*
X002363Y003085D01*
X002254Y003039D01*
X002170Y002955D01*
X002124Y002846D01*
X002124Y002842D01*
X001178Y002842D01*
X001175Y002848D02*
X002125Y002848D01*
X002166Y002946D02*
X001135Y002946D01*
X001040Y003045D02*
X002266Y003045D01*
X002485Y003143D02*
X000865Y003143D01*
X000774Y003242D02*
X000674Y003242D01*
X000674Y003340D02*
X000774Y003340D01*
X000774Y003439D02*
X000674Y003439D01*
X000674Y003537D02*
X000774Y003537D01*
X000774Y003636D02*
X002372Y003636D01*
X002350Y003734D02*
X001243Y003734D01*
X001243Y003732D02*
X001232Y003804D01*
X001206Y003881D01*
X001169Y003954D01*
X001121Y004021D01*
X001063Y004079D01*
X000997Y004127D01*
X000924Y004164D01*
X000846Y004189D01*
X000774Y004200D01*
X000774Y003732D01*
X001243Y003732D01*
X001222Y003833D02*
X002327Y003833D01*
X002304Y003931D02*
X001181Y003931D01*
X001112Y004030D02*
X002217Y004030D01*
X002129Y004128D02*
X000994Y004128D01*
X000880Y004227D02*
X002090Y004227D01*
X002090Y004325D02*
X001046Y004325D01*
X001137Y004424D02*
X002126Y004424D01*
X002210Y004522D02*
X001178Y004522D01*
X001204Y004621D02*
X003033Y004621D01*
X003059Y004719D02*
X001204Y004719D01*
X001188Y004818D02*
X003922Y004818D01*
X003922Y004916D02*
X001147Y004916D01*
X001070Y005015D02*
X003922Y005015D01*
X003922Y005113D02*
X000938Y005113D01*
X000843Y005212D02*
X003922Y005212D01*
X003922Y005310D02*
X001031Y005310D01*
X001130Y005409D02*
X003922Y005409D01*
X003922Y005507D02*
X001172Y005507D01*
X000724Y005682D02*
X001785Y005682D01*
X001785Y006117D01*
X006906Y006117D01*
X006906Y005681D01*
X007643Y005681D01*
X007724Y005682D01*
X007272Y005521D02*
X007317Y005410D01*
X007453Y005275D01*
X007629Y005202D01*
X007820Y005202D01*
X007929Y005247D01*
X007929Y005117D01*
X007820Y005162D01*
X007629Y005162D01*
X007453Y005089D01*
X007317Y004954D01*
X007244Y004777D01*
X007244Y004586D01*
X007317Y004410D01*
X007453Y004275D01*
X007629Y004202D01*
X007820Y004202D01*
X007929Y004247D01*
X007929Y004161D01*
X007924Y004164D01*
X007846Y004189D01*
X007774Y004200D01*
X007774Y003732D01*
X007674Y003732D01*
X007674Y003632D01*
X007206Y003632D01*
X007217Y003560D01*
X007243Y003482D01*
X007280Y003409D01*
X007328Y003343D01*
X007386Y003285D01*
X007452Y003237D01*
X007525Y003200D01*
X007603Y003175D01*
X007674Y003163D01*
X007674Y003632D01*
X007774Y003632D01*
X007774Y003163D01*
X007846Y003175D01*
X007924Y003200D01*
X007930Y003203D01*
X007930Y003116D01*
X007820Y003162D01*
X007629Y003162D01*
X007453Y003089D01*
X007317Y002954D01*
X007271Y002842D01*
X006875Y002842D01*
X006782Y002748D01*
X006782Y002207D01*
X006691Y002207D01*
X006674Y002223D01*
X006674Y002223D01*
X006673Y002224D01*
X006665Y002224D01*
X006710Y002333D01*
X006710Y002452D01*
X006665Y002561D01*
X006585Y002642D01*
X006601Y005515D01*
X006606Y005574D01*
X006602Y005580D01*
X006602Y005587D01*
X006560Y005630D01*
X006521Y005676D01*
X006514Y005676D01*
X006509Y005682D01*
X006449Y005682D01*
X005873Y005732D01*
X005860Y005763D01*
X005776Y005847D01*
X005666Y005892D01*
X005548Y005892D01*
X005438Y005847D01*
X005354Y005763D01*
X005309Y005653D01*
X005309Y005535D01*
X005354Y005425D01*
X005438Y005341D01*
X005548Y005296D01*
X005666Y005296D01*
X005776Y005341D01*
X005847Y005413D01*
X006280Y005375D01*
X006265Y002682D01*
X006251Y002670D01*
X006250Y002660D01*
X006244Y002654D01*
X006244Y002646D01*
X006243Y002645D01*
X006173Y002575D01*
X006112Y002635D01*
X006114Y002667D01*
X006119Y002672D01*
X006119Y002673D01*
X006120Y002673D01*
X006119Y002739D01*
X006120Y002833D01*
X006122Y002881D01*
X006120Y002883D01*
X006122Y003757D01*
X006131Y003761D01*
X006215Y003845D01*
X006261Y003954D01*
X006261Y004073D01*
X006215Y004183D01*
X006131Y004267D01*
X006022Y004312D01*
X005903Y004312D01*
X005794Y004267D01*
X005710Y004183D01*
X005664Y004073D01*
X005664Y003954D01*
X005710Y003845D01*
X005794Y003761D01*
X005802Y003758D01*
X005800Y002888D01*
X005799Y002887D01*
X005799Y002824D01*
X005792Y002658D01*
X005763Y002646D01*
X005680Y002562D01*
X005634Y002453D01*
X005634Y002334D01*
X005680Y002224D01*
X005686Y002218D01*
X003026Y002204D01*
X003069Y002247D01*
X003098Y002317D01*
X005523Y002337D01*
X005532Y004789D01*
X004422Y004792D01*
X004422Y005957D01*
X006746Y005957D01*
X006746Y005614D01*
X006840Y005521D01*
X007272Y005521D01*
X007277Y005507D02*
X006601Y005507D01*
X006584Y005606D02*
X006755Y005606D01*
X006746Y005704D02*
X006193Y005704D01*
X006441Y005522D02*
X006424Y002571D01*
X006406Y002593D01*
X006412Y002393D01*
X006679Y002257D02*
X006782Y002257D01*
X006782Y002355D02*
X006710Y002355D01*
X006710Y002454D02*
X006782Y002454D01*
X006782Y002552D02*
X006669Y002552D01*
X006585Y002651D02*
X006782Y002651D01*
X006783Y002749D02*
X006585Y002749D01*
X006586Y002848D02*
X007274Y002848D01*
X007314Y002946D02*
X006587Y002946D01*
X006587Y003045D02*
X007408Y003045D01*
X007584Y003143D02*
X006588Y003143D01*
X006588Y003242D02*
X007446Y003242D01*
X007331Y003340D02*
X006589Y003340D01*
X006589Y003439D02*
X007265Y003439D01*
X007225Y003537D02*
X006590Y003537D01*
X006591Y003636D02*
X007674Y003636D01*
X007674Y003732D02*
X007206Y003732D01*
X007217Y003804D01*
X007243Y003881D01*
X007280Y003954D01*
X007328Y004021D01*
X007386Y004079D01*
X007452Y004127D01*
X007525Y004164D01*
X007603Y004189D01*
X007674Y004200D01*
X007674Y003732D01*
X007674Y003734D02*
X007774Y003734D01*
X007774Y003833D02*
X007674Y003833D01*
X007674Y003931D02*
X007774Y003931D01*
X007774Y004030D02*
X007674Y004030D01*
X007674Y004128D02*
X007774Y004128D01*
X007880Y004227D02*
X007929Y004227D01*
X007569Y004227D02*
X006594Y004227D01*
X006594Y004325D02*
X007402Y004325D01*
X007312Y004424D02*
X006595Y004424D01*
X006596Y004522D02*
X007271Y004522D01*
X007244Y004621D02*
X006596Y004621D01*
X006597Y004719D02*
X007244Y004719D01*
X007261Y004818D02*
X006597Y004818D01*
X006598Y004916D02*
X007302Y004916D01*
X007378Y005015D02*
X006598Y005015D01*
X006599Y005113D02*
X007511Y005113D01*
X007605Y005212D02*
X006600Y005212D01*
X006600Y005310D02*
X007417Y005310D01*
X007319Y005409D02*
X006601Y005409D01*
X006441Y005522D02*
X005607Y005594D01*
X005330Y005704D02*
X004422Y005704D01*
X004422Y005803D02*
X005394Y005803D01*
X005309Y005606D02*
X004422Y005606D01*
X004422Y005507D02*
X005320Y005507D01*
X005371Y005409D02*
X004422Y005409D01*
X004422Y005310D02*
X005514Y005310D01*
X005701Y005310D02*
X006280Y005310D01*
X006280Y005212D02*
X004422Y005212D01*
X004422Y005113D02*
X006279Y005113D01*
X006278Y005015D02*
X004422Y005015D01*
X004422Y004916D02*
X006278Y004916D01*
X006277Y004818D02*
X004422Y004818D01*
X004822Y004946D02*
X005956Y004978D01*
X005973Y004491D01*
X006276Y004522D02*
X005531Y004522D01*
X005531Y004424D02*
X006275Y004424D01*
X006274Y004325D02*
X005530Y004325D01*
X005530Y004227D02*
X005754Y004227D01*
X005687Y004128D02*
X005530Y004128D01*
X005529Y004030D02*
X005664Y004030D01*
X005674Y003931D02*
X005529Y003931D01*
X005529Y003833D02*
X005722Y003833D01*
X005802Y003734D02*
X005528Y003734D01*
X005528Y003636D02*
X005802Y003636D01*
X005801Y003537D02*
X005527Y003537D01*
X005527Y003439D02*
X005801Y003439D01*
X005801Y003340D02*
X005527Y003340D01*
X005526Y003242D02*
X005801Y003242D01*
X005800Y003143D02*
X005526Y003143D01*
X005526Y003045D02*
X005800Y003045D01*
X005800Y002946D02*
X005525Y002946D01*
X005525Y002848D02*
X005799Y002848D01*
X005796Y002749D02*
X005524Y002749D01*
X005524Y002651D02*
X005774Y002651D01*
X005675Y002552D02*
X005524Y002552D01*
X005523Y002454D02*
X005635Y002454D01*
X005634Y002355D02*
X005523Y002355D01*
X005666Y002257D02*
X003073Y002257D01*
X002817Y002416D02*
X002389Y004280D01*
X002652Y004424D02*
X003032Y004424D01*
X003032Y004522D02*
X002568Y004522D01*
X002687Y004325D02*
X003033Y004325D01*
X003034Y004227D02*
X002687Y004227D01*
X002649Y004128D02*
X003034Y004128D01*
X003035Y004030D02*
X002610Y004030D01*
X002633Y003931D02*
X003036Y003931D01*
X003036Y003833D02*
X002655Y003833D01*
X002678Y003734D02*
X003037Y003734D01*
X003038Y003636D02*
X002701Y003636D01*
X002723Y003537D02*
X003038Y003537D01*
X003039Y003439D02*
X002746Y003439D01*
X002768Y003340D02*
X003040Y003340D01*
X003040Y003242D02*
X002791Y003242D01*
X002814Y003143D02*
X003041Y003143D01*
X003042Y003045D02*
X002836Y003045D01*
X002859Y002946D02*
X003042Y002946D01*
X003043Y002848D02*
X002882Y002848D01*
X002904Y002749D02*
X003044Y002749D01*
X003044Y002651D02*
X003004Y002651D01*
X002463Y003242D02*
X001003Y003242D01*
X001118Y003340D02*
X002440Y003340D01*
X002418Y003439D02*
X001184Y003439D01*
X001224Y003537D02*
X002395Y003537D01*
X002035Y003694D02*
X001657Y003694D01*
X000774Y003734D02*
X000674Y003734D01*
X000674Y003833D02*
X000774Y003833D01*
X000774Y003931D02*
X000674Y003931D01*
X000674Y004030D02*
X000774Y004030D01*
X000774Y004128D02*
X000674Y004128D01*
X000569Y004227D02*
X000519Y004227D01*
X000519Y005212D02*
X000605Y005212D01*
X001935Y005606D02*
X003922Y005606D01*
X003922Y005704D02*
X001945Y005704D01*
X001945Y005803D02*
X003922Y005803D01*
X003922Y005901D02*
X001945Y005901D01*
X004422Y005901D02*
X006746Y005901D01*
X006746Y005803D02*
X005820Y005803D01*
X005843Y005409D02*
X005895Y005409D01*
X005532Y004719D02*
X006277Y004719D01*
X006276Y004621D02*
X005532Y004621D01*
X006171Y004227D02*
X006274Y004227D01*
X006273Y004128D02*
X006238Y004128D01*
X006261Y004030D02*
X006273Y004030D01*
X006272Y003931D02*
X006251Y003931D01*
X006272Y003833D02*
X006203Y003833D01*
X006271Y003734D02*
X006122Y003734D01*
X006122Y003636D02*
X006271Y003636D01*
X006270Y003537D02*
X006121Y003537D01*
X006121Y003439D02*
X006269Y003439D01*
X006269Y003340D02*
X006121Y003340D01*
X006121Y003242D02*
X006268Y003242D01*
X006268Y003143D02*
X006120Y003143D01*
X006120Y003045D02*
X006267Y003045D01*
X006267Y002946D02*
X006120Y002946D01*
X006120Y002848D02*
X006266Y002848D01*
X006265Y002749D02*
X006119Y002749D01*
X006113Y002651D02*
X006244Y002651D01*
X005951Y002635D02*
X005932Y002393D01*
X005951Y002635D02*
X005959Y002821D01*
X005959Y002739D01*
X005963Y004014D01*
X006593Y004030D02*
X007337Y004030D01*
X007455Y004128D02*
X006593Y004128D01*
X006592Y003931D02*
X007268Y003931D01*
X007227Y003833D02*
X006592Y003833D01*
X006591Y003734D02*
X007206Y003734D01*
X007674Y003537D02*
X007774Y003537D01*
X007774Y003439D02*
X007674Y003439D01*
X007674Y003340D02*
X007774Y003340D01*
X007774Y003242D02*
X007674Y003242D01*
X007865Y003143D02*
X007930Y003143D01*
X007724Y002682D02*
X006942Y002682D01*
X006942Y002047D01*
X007843Y005212D02*
X007929Y005212D01*
X000584Y003143D02*
X000520Y003143D01*
D12*
X002035Y003694D03*
X002389Y004280D03*
X002422Y002787D03*
X002817Y002416D03*
X002265Y001713D03*
X005932Y002393D03*
X006412Y002393D03*
X005963Y004014D03*
X005973Y004491D03*
X004822Y004946D03*
X005607Y005594D03*
M02*
