%
M48
M72
T01C0.0236
T02C0.0400
%
T01
X1845Y2511
X1900Y3160
X1621Y3782
X2400Y4341
X1960Y5412
X4341Y4003
X4975Y4149
X5566Y3881
X6097Y4263
X6645Y3912
X7137Y3963
X4995Y3034
X4483Y1873
X5243Y1554
T02
X940Y912
X1944Y995
X2944Y995
X3944Y995
X4944Y995
X5944Y995
X6944Y995
X7940Y912
X7940Y1912
X7940Y2912
X7940Y3912
X7940Y4912
X7940Y5912
X940Y5912
X940Y4912
X940Y3912
X940Y2912
X940Y1912
M30
