G75*
%MOIN*%
%OFA0B0*%
%FSLAX24Y24*%
%IPPOS*%
%LPD*%
%AMOC8*
5,1,8,0,0,1.08239X$1,22.5*
%
%ADD10C,0.0000*%
%ADD11C,0.0740*%
%ADD12C,0.0252*%
%ADD13C,0.0035*%
%ADD14R,0.0354X0.0276*%
%ADD15R,0.0315X0.0315*%
%ADD16R,0.0394X0.0709*%
%ADD17R,0.0827X0.0630*%
%ADD18R,0.0157X0.0531*%
%ADD19R,0.0748X0.0748*%
%ADD20R,0.0630X0.0748*%
%ADD21R,0.0276X0.0354*%
%ADD22C,0.0160*%
%ADD23C,0.0120*%
%ADD24C,0.0376*%
%ADD25C,0.0100*%
D10*
X000534Y000507D02*
X000534Y006495D01*
X008351Y006503D01*
X008347Y000507D01*
X000534Y000507D01*
D11*
X000940Y000912D03*
X001944Y000995D03*
X002944Y000995D03*
X003944Y000995D03*
X004944Y000995D03*
X005944Y000995D03*
X006944Y000995D03*
X007940Y000912D03*
X007940Y001912D03*
X007940Y002912D03*
X007940Y003912D03*
X007940Y004912D03*
X007940Y005912D03*
X000940Y005912D03*
X000940Y004912D03*
X000940Y003912D03*
X000940Y002912D03*
X000940Y001912D03*
D12*
X002802Y003452D02*
X003810Y003452D01*
X003810Y002444D01*
X002802Y002444D01*
X002802Y003452D01*
X002802Y002695D02*
X003810Y002695D01*
X003810Y002946D02*
X002802Y002946D01*
X002802Y003197D02*
X003810Y003197D01*
X003810Y003448D02*
X002802Y003448D01*
D13*
X002501Y003398D02*
X002181Y003398D01*
X002181Y003482D01*
X002501Y003482D01*
X002501Y003398D01*
X002501Y003432D02*
X002181Y003432D01*
X002181Y003466D02*
X002501Y003466D01*
X002501Y003595D02*
X002181Y003595D01*
X002181Y003679D01*
X002501Y003679D01*
X002501Y003595D01*
X002501Y003629D02*
X002181Y003629D01*
X002181Y003663D02*
X002501Y003663D01*
X002575Y003752D02*
X002575Y004072D01*
X002659Y004072D01*
X002659Y003752D01*
X002575Y003752D01*
X002575Y003786D02*
X002659Y003786D01*
X002659Y003820D02*
X002575Y003820D01*
X002575Y003854D02*
X002659Y003854D01*
X002659Y003888D02*
X002575Y003888D01*
X002575Y003922D02*
X002659Y003922D01*
X002659Y003956D02*
X002575Y003956D01*
X002575Y003990D02*
X002659Y003990D01*
X002659Y004024D02*
X002575Y004024D01*
X002575Y004058D02*
X002659Y004058D01*
X002772Y004072D02*
X002772Y003752D01*
X002772Y004072D02*
X002856Y004072D01*
X002856Y003752D01*
X002772Y003752D01*
X002772Y003786D02*
X002856Y003786D01*
X002856Y003820D02*
X002772Y003820D01*
X002772Y003854D02*
X002856Y003854D01*
X002856Y003888D02*
X002772Y003888D01*
X002772Y003922D02*
X002856Y003922D01*
X002856Y003956D02*
X002772Y003956D01*
X002772Y003990D02*
X002856Y003990D01*
X002856Y004024D02*
X002772Y004024D01*
X002772Y004058D02*
X002856Y004058D01*
X002969Y004072D02*
X002969Y003752D01*
X002969Y004072D02*
X003053Y004072D01*
X003053Y003752D01*
X002969Y003752D01*
X002969Y003786D02*
X003053Y003786D01*
X003053Y003820D02*
X002969Y003820D01*
X002969Y003854D02*
X003053Y003854D01*
X003053Y003888D02*
X002969Y003888D01*
X002969Y003922D02*
X003053Y003922D01*
X003053Y003956D02*
X002969Y003956D01*
X002969Y003990D02*
X003053Y003990D01*
X003053Y004024D02*
X002969Y004024D01*
X002969Y004058D02*
X003053Y004058D01*
X003166Y004072D02*
X003166Y003752D01*
X003166Y004072D02*
X003250Y004072D01*
X003250Y003752D01*
X003166Y003752D01*
X003166Y003786D02*
X003250Y003786D01*
X003250Y003820D02*
X003166Y003820D01*
X003166Y003854D02*
X003250Y003854D01*
X003250Y003888D02*
X003166Y003888D01*
X003166Y003922D02*
X003250Y003922D01*
X003250Y003956D02*
X003166Y003956D01*
X003166Y003990D02*
X003250Y003990D01*
X003250Y004024D02*
X003166Y004024D01*
X003166Y004058D02*
X003250Y004058D01*
X003362Y004072D02*
X003362Y003752D01*
X003362Y004072D02*
X003446Y004072D01*
X003446Y003752D01*
X003362Y003752D01*
X003362Y003786D02*
X003446Y003786D01*
X003446Y003820D02*
X003362Y003820D01*
X003362Y003854D02*
X003446Y003854D01*
X003446Y003888D02*
X003362Y003888D01*
X003362Y003922D02*
X003446Y003922D01*
X003446Y003956D02*
X003362Y003956D01*
X003362Y003990D02*
X003446Y003990D01*
X003446Y004024D02*
X003362Y004024D01*
X003362Y004058D02*
X003446Y004058D01*
X003559Y004072D02*
X003559Y003752D01*
X003559Y004072D02*
X003643Y004072D01*
X003643Y003752D01*
X003559Y003752D01*
X003559Y003786D02*
X003643Y003786D01*
X003643Y003820D02*
X003559Y003820D01*
X003559Y003854D02*
X003643Y003854D01*
X003643Y003888D02*
X003559Y003888D01*
X003559Y003922D02*
X003643Y003922D01*
X003643Y003956D02*
X003559Y003956D01*
X003559Y003990D02*
X003643Y003990D01*
X003643Y004024D02*
X003559Y004024D01*
X003559Y004058D02*
X003643Y004058D01*
X003756Y004072D02*
X003756Y003752D01*
X003756Y004072D02*
X003840Y004072D01*
X003840Y003752D01*
X003756Y003752D01*
X003756Y003786D02*
X003840Y003786D01*
X003840Y003820D02*
X003756Y003820D01*
X003756Y003854D02*
X003840Y003854D01*
X003840Y003888D02*
X003756Y003888D01*
X003756Y003922D02*
X003840Y003922D01*
X003840Y003956D02*
X003756Y003956D01*
X003756Y003990D02*
X003840Y003990D01*
X003840Y004024D02*
X003756Y004024D01*
X003756Y004058D02*
X003840Y004058D01*
X003953Y004072D02*
X003953Y003752D01*
X003953Y004072D02*
X004037Y004072D01*
X004037Y003752D01*
X003953Y003752D01*
X003953Y003786D02*
X004037Y003786D01*
X004037Y003820D02*
X003953Y003820D01*
X003953Y003854D02*
X004037Y003854D01*
X004037Y003888D02*
X003953Y003888D01*
X003953Y003922D02*
X004037Y003922D01*
X004037Y003956D02*
X003953Y003956D01*
X003953Y003990D02*
X004037Y003990D01*
X004037Y004024D02*
X003953Y004024D01*
X003953Y004058D02*
X004037Y004058D01*
X004111Y003679D02*
X004431Y003679D01*
X004431Y003595D01*
X004111Y003595D01*
X004111Y003679D01*
X004111Y003629D02*
X004431Y003629D01*
X004431Y003663D02*
X004111Y003663D01*
X004111Y003482D02*
X004431Y003482D01*
X004431Y003398D01*
X004111Y003398D01*
X004111Y003482D01*
X004111Y003432D02*
X004431Y003432D01*
X004431Y003466D02*
X004111Y003466D01*
X004111Y003285D02*
X004431Y003285D01*
X004431Y003201D01*
X004111Y003201D01*
X004111Y003285D01*
X004111Y003235D02*
X004431Y003235D01*
X004431Y003269D02*
X004111Y003269D01*
X004111Y003088D02*
X004431Y003088D01*
X004431Y003004D01*
X004111Y003004D01*
X004111Y003088D01*
X004111Y003038D02*
X004431Y003038D01*
X004431Y003072D02*
X004111Y003072D01*
X004111Y002891D02*
X004431Y002891D01*
X004431Y002807D01*
X004111Y002807D01*
X004111Y002891D01*
X004111Y002841D02*
X004431Y002841D01*
X004431Y002875D02*
X004111Y002875D01*
X004111Y002694D02*
X004431Y002694D01*
X004431Y002610D01*
X004111Y002610D01*
X004111Y002694D01*
X004111Y002644D02*
X004431Y002644D01*
X004431Y002678D02*
X004111Y002678D01*
X004111Y002498D02*
X004431Y002498D01*
X004431Y002414D01*
X004111Y002414D01*
X004111Y002498D01*
X004111Y002448D02*
X004431Y002448D01*
X004431Y002482D02*
X004111Y002482D01*
X004111Y002301D02*
X004431Y002301D01*
X004431Y002217D01*
X004111Y002217D01*
X004111Y002301D01*
X004111Y002251D02*
X004431Y002251D01*
X004431Y002285D02*
X004111Y002285D01*
X004037Y002143D02*
X004037Y001823D01*
X003953Y001823D01*
X003953Y002143D01*
X004037Y002143D01*
X004037Y001857D02*
X003953Y001857D01*
X003953Y001891D02*
X004037Y001891D01*
X004037Y001925D02*
X003953Y001925D01*
X003953Y001959D02*
X004037Y001959D01*
X004037Y001993D02*
X003953Y001993D01*
X003953Y002027D02*
X004037Y002027D01*
X004037Y002061D02*
X003953Y002061D01*
X003953Y002095D02*
X004037Y002095D01*
X004037Y002129D02*
X003953Y002129D01*
X003840Y002143D02*
X003840Y001823D01*
X003756Y001823D01*
X003756Y002143D01*
X003840Y002143D01*
X003840Y001857D02*
X003756Y001857D01*
X003756Y001891D02*
X003840Y001891D01*
X003840Y001925D02*
X003756Y001925D01*
X003756Y001959D02*
X003840Y001959D01*
X003840Y001993D02*
X003756Y001993D01*
X003756Y002027D02*
X003840Y002027D01*
X003840Y002061D02*
X003756Y002061D01*
X003756Y002095D02*
X003840Y002095D01*
X003840Y002129D02*
X003756Y002129D01*
X003643Y002143D02*
X003643Y001823D01*
X003559Y001823D01*
X003559Y002143D01*
X003643Y002143D01*
X003643Y001857D02*
X003559Y001857D01*
X003559Y001891D02*
X003643Y001891D01*
X003643Y001925D02*
X003559Y001925D01*
X003559Y001959D02*
X003643Y001959D01*
X003643Y001993D02*
X003559Y001993D01*
X003559Y002027D02*
X003643Y002027D01*
X003643Y002061D02*
X003559Y002061D01*
X003559Y002095D02*
X003643Y002095D01*
X003643Y002129D02*
X003559Y002129D01*
X003446Y002143D02*
X003446Y001823D01*
X003362Y001823D01*
X003362Y002143D01*
X003446Y002143D01*
X003446Y001857D02*
X003362Y001857D01*
X003362Y001891D02*
X003446Y001891D01*
X003446Y001925D02*
X003362Y001925D01*
X003362Y001959D02*
X003446Y001959D01*
X003446Y001993D02*
X003362Y001993D01*
X003362Y002027D02*
X003446Y002027D01*
X003446Y002061D02*
X003362Y002061D01*
X003362Y002095D02*
X003446Y002095D01*
X003446Y002129D02*
X003362Y002129D01*
X003250Y002143D02*
X003250Y001823D01*
X003166Y001823D01*
X003166Y002143D01*
X003250Y002143D01*
X003250Y001857D02*
X003166Y001857D01*
X003166Y001891D02*
X003250Y001891D01*
X003250Y001925D02*
X003166Y001925D01*
X003166Y001959D02*
X003250Y001959D01*
X003250Y001993D02*
X003166Y001993D01*
X003166Y002027D02*
X003250Y002027D01*
X003250Y002061D02*
X003166Y002061D01*
X003166Y002095D02*
X003250Y002095D01*
X003250Y002129D02*
X003166Y002129D01*
X003053Y002143D02*
X003053Y001823D01*
X002969Y001823D01*
X002969Y002143D01*
X003053Y002143D01*
X003053Y001857D02*
X002969Y001857D01*
X002969Y001891D02*
X003053Y001891D01*
X003053Y001925D02*
X002969Y001925D01*
X002969Y001959D02*
X003053Y001959D01*
X003053Y001993D02*
X002969Y001993D01*
X002969Y002027D02*
X003053Y002027D01*
X003053Y002061D02*
X002969Y002061D01*
X002969Y002095D02*
X003053Y002095D01*
X003053Y002129D02*
X002969Y002129D01*
X002856Y002143D02*
X002856Y001823D01*
X002772Y001823D01*
X002772Y002143D01*
X002856Y002143D01*
X002856Y001857D02*
X002772Y001857D01*
X002772Y001891D02*
X002856Y001891D01*
X002856Y001925D02*
X002772Y001925D01*
X002772Y001959D02*
X002856Y001959D01*
X002856Y001993D02*
X002772Y001993D01*
X002772Y002027D02*
X002856Y002027D01*
X002856Y002061D02*
X002772Y002061D01*
X002772Y002095D02*
X002856Y002095D01*
X002856Y002129D02*
X002772Y002129D01*
X002659Y002143D02*
X002659Y001823D01*
X002575Y001823D01*
X002575Y002143D01*
X002659Y002143D01*
X002659Y001857D02*
X002575Y001857D01*
X002575Y001891D02*
X002659Y001891D01*
X002659Y001925D02*
X002575Y001925D01*
X002575Y001959D02*
X002659Y001959D01*
X002659Y001993D02*
X002575Y001993D01*
X002575Y002027D02*
X002659Y002027D01*
X002659Y002061D02*
X002575Y002061D01*
X002575Y002095D02*
X002659Y002095D01*
X002659Y002129D02*
X002575Y002129D01*
X002501Y002217D02*
X002181Y002217D01*
X002181Y002301D01*
X002501Y002301D01*
X002501Y002217D01*
X002501Y002251D02*
X002181Y002251D01*
X002181Y002285D02*
X002501Y002285D01*
X002501Y002414D02*
X002181Y002414D01*
X002181Y002498D01*
X002501Y002498D01*
X002501Y002414D01*
X002501Y002448D02*
X002181Y002448D01*
X002181Y002482D02*
X002501Y002482D01*
X002501Y002610D02*
X002181Y002610D01*
X002181Y002694D01*
X002501Y002694D01*
X002501Y002610D01*
X002501Y002644D02*
X002181Y002644D01*
X002181Y002678D02*
X002501Y002678D01*
X002501Y002807D02*
X002181Y002807D01*
X002181Y002891D01*
X002501Y002891D01*
X002501Y002807D01*
X002501Y002841D02*
X002181Y002841D01*
X002181Y002875D02*
X002501Y002875D01*
X002501Y003004D02*
X002181Y003004D01*
X002181Y003088D01*
X002501Y003088D01*
X002501Y003004D01*
X002501Y003038D02*
X002181Y003038D01*
X002181Y003072D02*
X002501Y003072D01*
X002501Y003201D02*
X002181Y003201D01*
X002181Y003285D01*
X002501Y003285D01*
X002501Y003201D01*
X002501Y003235D02*
X002181Y003235D01*
X002181Y003269D02*
X002501Y003269D01*
D14*
X001873Y004389D03*
X001873Y004900D03*
X006550Y004995D03*
X007145Y005082D03*
X007145Y004570D03*
X006550Y004483D03*
D15*
X006491Y005621D03*
X007042Y005613D03*
X007042Y006204D03*
X006491Y006211D03*
D16*
X007034Y003227D03*
X005932Y003227D03*
D17*
X005373Y004924D03*
X002932Y004924D03*
D18*
X003641Y004875D03*
X003897Y004875D03*
X004152Y004875D03*
X004408Y004875D03*
X004664Y004875D03*
D19*
X004625Y005928D03*
X003680Y005928D03*
D20*
X002617Y005928D03*
X005688Y005928D03*
D21*
X006105Y002511D03*
X006617Y002511D03*
X006617Y002034D03*
X006105Y002034D03*
D22*
X005827Y002025D02*
X005774Y002025D01*
X005775Y001867D02*
X005827Y001867D01*
X005827Y001799D02*
X005909Y001717D01*
X006301Y001717D01*
X006333Y001750D01*
X006335Y001747D01*
X006369Y001713D01*
X006410Y001689D01*
X006456Y001677D01*
X006617Y001677D01*
X006779Y001677D01*
X006824Y001689D01*
X006865Y001713D01*
X006899Y001747D01*
X006923Y001788D01*
X006935Y001833D01*
X006935Y002034D01*
X006617Y002034D01*
X006617Y001677D01*
X006617Y002034D01*
X006617Y002034D01*
X006617Y002034D01*
X006935Y002034D01*
X006935Y002235D01*
X006925Y002273D01*
X006935Y002310D01*
X006935Y002511D01*
X006935Y002712D01*
X006929Y002733D01*
X007289Y002733D01*
X007371Y002815D01*
X007371Y003640D01*
X007289Y003722D01*
X006918Y003722D01*
X006923Y003726D01*
X006973Y003847D01*
X006973Y003978D01*
X006955Y004020D01*
X007134Y004292D01*
X007380Y004292D01*
X007462Y004374D01*
X007462Y004734D01*
X007507Y004623D01*
X007651Y004480D01*
X007764Y004433D01*
X007729Y004422D01*
X007652Y004383D01*
X007582Y004332D01*
X007520Y004271D01*
X007469Y004201D01*
X007430Y004123D01*
X007403Y004041D01*
X007390Y003956D01*
X007390Y003932D01*
X007920Y003932D01*
X007920Y003892D01*
X007960Y003892D01*
X007960Y003422D01*
X007920Y003422D01*
X007920Y003892D01*
X007390Y003892D01*
X007390Y003869D01*
X007403Y003783D01*
X007430Y003701D01*
X007469Y003624D01*
X007520Y003554D01*
X007582Y003493D01*
X007652Y003442D01*
X007729Y003403D01*
X007764Y003391D01*
X007651Y003345D01*
X007507Y003201D01*
X007430Y003014D01*
X007430Y002811D01*
X007507Y002623D01*
X007651Y002480D01*
X007814Y002412D01*
X007651Y002345D01*
X007507Y002201D01*
X007430Y002014D01*
X007430Y001811D01*
X007507Y001623D01*
X007651Y001480D01*
X007814Y001412D01*
X007651Y001345D01*
X007507Y001201D01*
X007478Y001130D01*
X007453Y001206D01*
X007414Y001283D01*
X007363Y001353D01*
X007302Y001414D01*
X007232Y001465D01*
X007155Y001505D01*
X007073Y001531D01*
X006987Y001545D01*
X006964Y001545D01*
X006964Y001015D01*
X006924Y001015D01*
X006924Y001545D01*
X006900Y001545D01*
X006815Y001531D01*
X006733Y001505D01*
X006656Y001465D01*
X006585Y001414D01*
X006524Y001353D01*
X006473Y001283D01*
X006434Y001206D01*
X006423Y001171D01*
X006376Y001284D01*
X006233Y001427D01*
X006045Y001505D01*
X005842Y001505D01*
X005792Y001484D01*
X005778Y001578D01*
X005771Y002400D01*
X005797Y002374D01*
X005827Y002343D01*
X005827Y002276D01*
X005830Y002273D01*
X005827Y002269D01*
X005827Y001799D01*
X005776Y001708D02*
X006377Y001708D01*
X006617Y001708D02*
X006617Y001708D01*
X006617Y001867D02*
X006617Y001867D01*
X006617Y002025D02*
X006617Y002025D01*
X006617Y002034D02*
X006617Y002391D01*
X006617Y002511D01*
X006617Y002868D01*
X006456Y002868D01*
X006410Y002856D01*
X006369Y002832D01*
X006335Y002798D01*
X006333Y002795D01*
X006301Y002828D01*
X006269Y002828D01*
X006269Y003031D01*
X006338Y003031D01*
X006697Y003029D01*
X006697Y002868D01*
X006617Y002868D01*
X006617Y002511D01*
X006617Y002511D01*
X006935Y002511D01*
X006617Y002511D01*
X006617Y002511D01*
X006617Y002034D01*
X006617Y002034D01*
X006617Y002184D02*
X006617Y002184D01*
X006617Y002342D02*
X006617Y002342D01*
X006617Y002501D02*
X006617Y002501D01*
X006617Y002511D02*
X006617Y002511D01*
X006617Y002659D02*
X006617Y002659D01*
X006617Y002818D02*
X006617Y002818D01*
X006697Y002976D02*
X006269Y002976D01*
X006311Y002818D02*
X006355Y002818D01*
X006935Y002659D02*
X007493Y002659D01*
X007430Y002818D02*
X007371Y002818D01*
X007371Y002976D02*
X007430Y002976D01*
X007480Y003135D02*
X007371Y003135D01*
X007371Y003293D02*
X007600Y003293D01*
X007638Y003452D02*
X007371Y003452D01*
X007371Y003610D02*
X007479Y003610D01*
X007408Y003769D02*
X006940Y003769D01*
X006973Y003927D02*
X007920Y003927D01*
X007920Y003769D02*
X007960Y003769D01*
X007960Y003610D02*
X007920Y003610D01*
X007920Y003452D02*
X007960Y003452D01*
X007418Y004086D02*
X006998Y004086D01*
X007103Y004244D02*
X007501Y004244D01*
X007462Y004403D02*
X007691Y004403D01*
X007569Y004561D02*
X007462Y004561D01*
X007462Y004720D02*
X007468Y004720D01*
X005610Y005851D02*
X005193Y005851D01*
X005193Y005530D01*
X005205Y005485D01*
X005229Y005443D01*
X005262Y005410D01*
X005303Y005386D01*
X005330Y005379D01*
X004902Y005379D01*
X004820Y005297D01*
X004820Y005262D01*
X004801Y005281D01*
X003834Y005281D01*
X003830Y005285D01*
X003789Y005308D01*
X003743Y005321D01*
X003641Y005321D01*
X003641Y004875D01*
X003641Y004875D01*
X003641Y005321D01*
X003538Y005321D01*
X003492Y005308D01*
X003481Y005302D01*
X003403Y005379D01*
X002461Y005379D01*
X002379Y005297D01*
X002379Y004670D01*
X002335Y004670D01*
X002215Y004620D01*
X002185Y004590D01*
X002158Y004617D01*
X002161Y004619D01*
X002194Y004652D01*
X002218Y004693D01*
X002230Y004739D01*
X002230Y004900D01*
X001873Y004900D01*
X001873Y004900D01*
X001516Y004900D01*
X001516Y004739D01*
X001528Y004693D01*
X001552Y004652D01*
X001585Y004619D01*
X001588Y004617D01*
X001560Y004589D01*
X001546Y004589D01*
X001413Y004722D01*
X001450Y004811D01*
X001450Y005014D01*
X001372Y005201D01*
X001229Y005345D01*
X001065Y005412D01*
X001229Y005480D01*
X001372Y005623D01*
X001450Y005811D01*
X001450Y006014D01*
X001372Y006201D01*
X001308Y006266D01*
X002162Y006267D01*
X002162Y005496D01*
X002244Y005414D01*
X002990Y005414D01*
X003072Y005496D01*
X003072Y006268D01*
X003166Y006268D01*
X003166Y005496D01*
X003248Y005414D01*
X004112Y005414D01*
X004152Y005454D01*
X004193Y005414D01*
X005057Y005414D01*
X005139Y005496D01*
X005139Y006270D01*
X005193Y006270D01*
X005193Y006006D01*
X005610Y006006D01*
X005610Y005851D01*
X005610Y005988D02*
X005139Y005988D01*
X005139Y005829D02*
X005193Y005829D01*
X005193Y005671D02*
X005139Y005671D01*
X005139Y005512D02*
X005198Y005512D01*
X004876Y005354D02*
X003428Y005354D01*
X003641Y005195D02*
X003641Y005195D01*
X003641Y005037D02*
X003641Y005037D01*
X003641Y004878D02*
X003641Y004878D01*
X003166Y005512D02*
X003072Y005512D01*
X003072Y005671D02*
X003166Y005671D01*
X003166Y005829D02*
X003072Y005829D01*
X003072Y005988D02*
X003166Y005988D01*
X003166Y006146D02*
X003072Y006146D01*
X002162Y006146D02*
X001395Y006146D01*
X001450Y005988D02*
X002162Y005988D01*
X002162Y005829D02*
X001450Y005829D01*
X001392Y005671D02*
X002162Y005671D01*
X002162Y005512D02*
X001261Y005512D01*
X001206Y005354D02*
X002435Y005354D01*
X002379Y005195D02*
X002138Y005195D01*
X002120Y005206D02*
X002074Y005218D01*
X001873Y005218D01*
X001873Y004900D01*
X001873Y004900D01*
X002230Y004900D01*
X002230Y005062D01*
X002218Y005108D01*
X002194Y005149D01*
X002161Y005182D01*
X002120Y005206D01*
X001873Y005195D02*
X001873Y005195D01*
X001873Y005218D02*
X001672Y005218D01*
X001626Y005206D01*
X001585Y005182D01*
X001552Y005149D01*
X001528Y005108D01*
X001516Y005062D01*
X001516Y004900D01*
X001873Y004900D01*
X001873Y004900D01*
X001873Y005218D01*
X001873Y005037D02*
X001873Y005037D01*
X001608Y005195D02*
X001375Y005195D01*
X001440Y005037D02*
X001516Y005037D01*
X001516Y004878D02*
X001450Y004878D01*
X001415Y004720D02*
X001521Y004720D01*
X002225Y004720D02*
X002379Y004720D01*
X002379Y004878D02*
X002230Y004878D01*
X002230Y005037D02*
X002379Y005037D01*
X001560Y004189D02*
X001416Y004189D01*
X001450Y004123D01*
X001466Y004073D01*
X001556Y004110D01*
X001686Y004110D01*
X001807Y004061D01*
X001899Y003968D01*
X001949Y003848D01*
X001949Y003717D01*
X001899Y003597D01*
X001807Y003504D01*
X001748Y003480D01*
X001741Y003449D01*
X001835Y003488D01*
X001966Y003488D01*
X002024Y003464D01*
X002024Y003473D01*
X002024Y003474D01*
X001998Y003519D01*
X001984Y003569D01*
X001984Y003637D01*
X002114Y003637D01*
X001984Y003637D01*
X001984Y003704D01*
X001998Y003754D01*
X002024Y003799D01*
X002061Y003836D01*
X002103Y003861D01*
X001948Y004014D01*
X001948Y004014D01*
X001924Y004037D01*
X001913Y004038D01*
X001871Y004090D01*
X001850Y004111D01*
X001638Y004111D01*
X001560Y004189D01*
X001496Y004086D02*
X001462Y004086D01*
X001745Y004086D02*
X001874Y004086D01*
X001916Y003927D02*
X002036Y003927D01*
X002006Y003769D02*
X001949Y003769D01*
X001984Y003610D02*
X001905Y003610D01*
X002114Y003637D02*
X002114Y003637D01*
X001747Y003452D02*
X001742Y003452D01*
X001462Y002724D02*
X001562Y002684D01*
X001517Y002576D01*
X001517Y002445D01*
X001567Y002325D01*
X001659Y002233D01*
X001780Y002183D01*
X001911Y002183D01*
X001984Y002213D01*
X001984Y002191D01*
X001998Y002141D01*
X002024Y002096D01*
X002061Y002059D01*
X002106Y002033D01*
X002156Y002020D01*
X002341Y002020D01*
X002341Y002257D01*
X002341Y002257D01*
X002341Y002020D01*
X002418Y002020D01*
X002418Y001758D01*
X002510Y001666D01*
X002651Y001666D01*
X002651Y001665D01*
X002696Y001639D01*
X002746Y001626D01*
X002814Y001626D01*
X002881Y001626D01*
X002932Y001639D01*
X002977Y001665D01*
X002977Y001666D01*
X003401Y001666D01*
X003401Y001255D01*
X003471Y001185D01*
X003444Y001121D01*
X003376Y001284D01*
X003233Y001427D01*
X003045Y001505D01*
X002842Y001505D01*
X002655Y001427D01*
X002511Y001284D01*
X002444Y001121D01*
X002376Y001284D01*
X002233Y001427D01*
X002045Y001505D01*
X001842Y001505D01*
X001655Y001427D01*
X001511Y001284D01*
X001434Y001096D01*
X001434Y001053D01*
X001372Y001201D01*
X001229Y001345D01*
X001065Y001412D01*
X001229Y001480D01*
X001372Y001623D01*
X001450Y001811D01*
X001450Y002014D01*
X001372Y002201D01*
X001229Y002345D01*
X001065Y002412D01*
X001229Y002480D01*
X001372Y002623D01*
X001415Y002727D01*
X001418Y002723D01*
X001462Y002724D01*
X001387Y002659D02*
X001552Y002659D01*
X001517Y002501D02*
X001250Y002501D01*
X001231Y002342D02*
X001560Y002342D01*
X001379Y002184D02*
X001777Y002184D01*
X001914Y002184D02*
X001986Y002184D01*
X002135Y002025D02*
X001445Y002025D01*
X001450Y001867D02*
X002418Y001867D01*
X002341Y002025D02*
X002341Y002025D01*
X002341Y002184D02*
X002341Y002184D01*
X002814Y001756D02*
X002814Y001756D01*
X002814Y001626D01*
X002814Y001756D01*
X002814Y001756D01*
X002814Y001708D02*
X002814Y001708D01*
X002468Y001708D02*
X001407Y001708D01*
X001299Y001550D02*
X003401Y001550D01*
X003401Y001391D02*
X003269Y001391D01*
X003397Y001233D02*
X003423Y001233D01*
X002619Y001391D02*
X002269Y001391D01*
X002397Y001233D02*
X002490Y001233D01*
X001619Y001391D02*
X001116Y001391D01*
X001340Y001233D02*
X001490Y001233D01*
X001434Y001074D02*
X001425Y001074D01*
X003226Y003028D02*
X003226Y003595D01*
X003386Y003595D01*
X003386Y003028D01*
X003226Y003028D01*
X003226Y003135D02*
X003386Y003135D01*
X003386Y003293D02*
X003226Y003293D01*
X003226Y003452D02*
X003386Y003452D01*
X005771Y002342D02*
X005827Y002342D01*
X005827Y002184D02*
X005773Y002184D01*
X005782Y001550D02*
X007581Y001550D01*
X007472Y001708D02*
X006857Y001708D01*
X006935Y001867D02*
X007430Y001867D01*
X007435Y002025D02*
X006935Y002025D01*
X006935Y002184D02*
X007500Y002184D01*
X007649Y002342D02*
X006935Y002342D01*
X006935Y002501D02*
X007630Y002501D01*
X007764Y001391D02*
X007325Y001391D01*
X007440Y001233D02*
X007539Y001233D01*
X006964Y001233D02*
X006924Y001233D01*
X006924Y001391D02*
X006964Y001391D01*
X006964Y001074D02*
X006924Y001074D01*
X006562Y001391D02*
X006269Y001391D01*
X006397Y001233D02*
X006448Y001233D01*
X005193Y006146D02*
X005139Y006146D01*
D23*
X006156Y005971D02*
X006357Y006172D01*
X006452Y006172D01*
X006491Y006211D01*
X006499Y006204D01*
X007042Y006204D01*
X007042Y005613D02*
X007145Y005082D01*
X006574Y005184D02*
X006550Y004995D01*
X006574Y005184D02*
X006491Y005621D01*
X006156Y005971D02*
X006156Y004967D01*
X005991Y004613D01*
X005751Y004416D01*
X005255Y004420D01*
X004975Y004149D01*
X005369Y004215D02*
X005137Y003735D01*
X004656Y003782D01*
X004664Y004875D01*
X004408Y004875D02*
X004377Y004406D01*
X004341Y004003D01*
X004290Y003641D02*
X004271Y003637D01*
X004290Y003641D02*
X004511Y003641D01*
X004530Y003637D01*
X004597Y003550D01*
X005562Y003542D01*
X005578Y001562D01*
X005668Y000956D01*
X005944Y000995D01*
X006086Y001511D02*
X006617Y002034D01*
X006617Y002511D01*
X006755Y002511D01*
X006759Y002743D01*
X007404Y002739D01*
X007400Y003436D01*
X007940Y003782D01*
X007940Y003912D01*
X007034Y003227D02*
X006337Y003231D01*
X006334Y003822D01*
X005960Y003916D01*
X005873Y004019D01*
X005680Y004215D01*
X005369Y004215D01*
X005566Y003881D02*
X005908Y003688D01*
X005932Y003227D01*
X005940Y002515D01*
X006105Y002511D01*
X006105Y002034D01*
X006086Y001511D02*
X006944Y000995D01*
X005243Y001554D02*
X005235Y001771D01*
X005337Y002633D01*
X005337Y003345D01*
X004578Y003349D01*
X004582Y002463D01*
X004271Y002456D01*
X004271Y002259D02*
X004798Y002259D01*
X004944Y000995D01*
X004274Y001664D02*
X004483Y001873D01*
X004274Y001664D02*
X003786Y001664D01*
X003786Y002023D01*
X003798Y001983D01*
X003601Y001983D02*
X003601Y001337D01*
X003944Y000995D01*
X002814Y001983D02*
X002814Y002365D01*
X002749Y002430D01*
X003306Y002948D01*
X003306Y003086D01*
X002649Y003059D01*
X002688Y003087D01*
X002747Y003542D01*
X002652Y003605D01*
X002341Y003637D01*
X002282Y003637D01*
X001794Y004105D01*
X001121Y004105D01*
X000940Y003912D01*
X001593Y003708D02*
X001621Y003782D01*
X001593Y003708D02*
X001495Y003263D01*
X001499Y002924D01*
X001688Y002849D01*
X002341Y002849D01*
X002341Y002652D02*
X001861Y002652D01*
X001837Y002629D01*
X001837Y002542D01*
X001845Y002511D01*
X002341Y002259D02*
X002664Y002290D01*
X002749Y002430D01*
X003306Y002889D02*
X003306Y002948D01*
X003306Y002889D02*
X004271Y002849D01*
X004944Y003026D02*
X004995Y003034D01*
X004944Y003026D02*
X004944Y002259D01*
X004798Y002259D01*
X002649Y003059D02*
X002341Y003046D01*
X002341Y003243D02*
X001999Y003243D01*
X001900Y003160D01*
X002814Y003912D02*
X002814Y004274D01*
X002400Y004341D01*
X001873Y004389D02*
X001463Y004389D01*
X000940Y004912D01*
X001873Y004900D02*
X001960Y004908D01*
X001960Y005412D01*
X003011Y004298D02*
X003015Y003952D01*
X003011Y003912D01*
X003011Y004298D02*
X004149Y004483D01*
X004152Y004875D01*
X006093Y004412D02*
X006086Y004196D01*
X006097Y004263D01*
X006093Y004412D02*
X006483Y004412D01*
X006550Y004483D01*
X007078Y004570D02*
X007145Y004570D01*
X007078Y004570D02*
X006645Y003912D01*
D24*
X006645Y003912D03*
X007137Y003963D03*
X006097Y004263D03*
X005566Y003881D03*
X004975Y004149D03*
X004341Y004003D03*
X004995Y003034D03*
X004483Y001873D03*
X005243Y001554D03*
X001900Y003160D03*
X001845Y002511D03*
X001621Y003782D03*
X002400Y004341D03*
X001960Y005412D03*
D25*
X001873Y004389D02*
X002011Y004219D01*
X002026Y004204D01*
X002326Y003908D01*
X002617Y003912D01*
M02*
