G75*
%MOIN*%
%OFA0B0*%
%FSLAX24Y24*%
%IPPOS*%
%LPD*%
%AMOC8*
5,1,8,0,0,1.08239X$1,22.5*
%
%ADD10C,0.0040*%
%ADD11C,0.0080*%
%ADD12C,0.0118*%
%ADD13C,0.0020*%
%ADD14R,0.0280X0.0160*%
%ADD15C,0.0030*%
%ADD16C,0.0000*%
%ADD17R,0.0160X0.0280*%
%ADD18R,0.0099X0.0007*%
%ADD19R,0.0106X0.0007*%
%ADD20R,0.0099X0.0007*%
%ADD21R,0.0106X0.0007*%
%ADD22R,0.0120X0.0007*%
%ADD23R,0.0120X0.0007*%
%ADD24R,0.0099X0.0007*%
%ADD25R,0.0120X0.0007*%
%ADD26R,0.0135X0.0007*%
%ADD27R,0.0135X0.0007*%
%ADD28R,0.0149X0.0007*%
%ADD29R,0.0149X0.0007*%
%ADD30R,0.0149X0.0007*%
%ADD31R,0.0163X0.0007*%
%ADD32R,0.0163X0.0007*%
%ADD33R,0.0177X0.0007*%
%ADD34R,0.0085X0.0007*%
%ADD35R,0.0085X0.0007*%
%ADD36R,0.0078X0.0007*%
%ADD37R,0.0092X0.0007*%
%ADD38R,0.0085X0.0007*%
%ADD39R,0.0092X0.0007*%
%ADD40R,0.0092X0.0007*%
%ADD41R,0.0085X0.0007*%
%ADD42R,0.0085X0.0007*%
%ADD43R,0.0092X0.0007*%
%ADD44R,0.0092X0.0007*%
%ADD45R,0.0092X0.0007*%
%ADD46R,0.0198X0.0007*%
%ADD47R,0.0191X0.0007*%
%ADD48R,0.0198X0.0007*%
%ADD49R,0.0191X0.0007*%
%ADD50R,0.0191X0.0007*%
%ADD51R,0.0184X0.0007*%
%ADD52R,0.0184X0.0007*%
%ADD53R,0.0184X0.0007*%
%ADD54R,0.0177X0.0007*%
%ADD55R,0.0177X0.0007*%
%ADD56R,0.0177X0.0007*%
%ADD57R,0.0170X0.0007*%
%ADD58R,0.0177X0.0007*%
%ADD59R,0.0170X0.0007*%
%ADD60R,0.0170X0.0007*%
%ADD61R,0.0163X0.0007*%
%ADD62R,0.0163X0.0007*%
%ADD63R,0.0156X0.0007*%
%ADD64R,0.0156X0.0007*%
%ADD65R,0.0163X0.0007*%
%ADD66R,0.0156X0.0007*%
%ADD67C,0.0039*%
%ADD68R,0.0064X0.0007*%
%ADD69R,0.0048X0.0008*%
%ADD70R,0.0033X0.0007*%
%ADD71R,0.0019X0.0006*%
%ADD72R,0.0091X0.0007*%
%ADD73R,0.0046X0.0007*%
%ADD74R,0.0044X0.0007*%
%ADD75R,0.0046X0.0009*%
%ADD76R,0.0045X0.0009*%
%ADD77R,0.0045X0.0009*%
%ADD78R,0.0044X0.0009*%
D10*
X001452Y000550D02*
X001652Y000550D01*
X001652Y000684D01*
X001652Y000771D02*
X001452Y000771D01*
X001452Y000871D01*
X001485Y000905D01*
X001552Y000905D01*
X001585Y000871D01*
X001585Y000771D01*
X001652Y000992D02*
X001452Y000992D01*
X001452Y001126D02*
X001652Y001126D01*
X001585Y001059D01*
X001652Y000992D01*
X001165Y001298D02*
X001165Y001499D01*
X001032Y001499D02*
X001032Y001298D01*
X001098Y001365D01*
X001165Y001298D01*
X000944Y001399D02*
X000944Y001465D01*
X000911Y001499D01*
X000811Y001499D01*
X000811Y001298D01*
X000811Y001365D02*
X000911Y001365D01*
X000944Y001399D01*
X000723Y001298D02*
X000590Y001298D01*
X000590Y001499D01*
X001444Y001631D02*
X001477Y001598D01*
X001511Y001598D01*
X001544Y001631D01*
X001544Y001698D01*
X001578Y001731D01*
X001611Y001731D01*
X001644Y001698D01*
X001644Y001631D01*
X001611Y001598D01*
X001716Y001546D02*
X001816Y001546D01*
X001849Y001580D01*
X001849Y001713D01*
X001816Y001747D01*
X001716Y001747D01*
X001716Y001546D01*
X001444Y001631D02*
X001444Y001698D01*
X001477Y001731D01*
X001477Y001819D02*
X001444Y001852D01*
X001444Y001919D01*
X001477Y001952D01*
X001444Y002040D02*
X001644Y002040D01*
X001644Y002173D01*
X001611Y001952D02*
X001644Y001919D01*
X001644Y001852D01*
X001611Y001819D01*
X001477Y001819D01*
X001937Y001747D02*
X002070Y001747D01*
X002003Y001747D02*
X002003Y001546D01*
X002158Y001546D02*
X002158Y001747D01*
X002258Y001747D01*
X002291Y001713D01*
X002291Y001647D01*
X002258Y001613D01*
X002158Y001613D01*
X002224Y001613D02*
X002291Y001546D01*
X002771Y001735D02*
X002904Y001735D01*
X002838Y001735D02*
X002838Y001535D01*
X002992Y001535D02*
X003125Y001735D01*
X002992Y001735D02*
X003125Y001535D01*
X003708Y001546D02*
X003708Y001747D01*
X003808Y001747D01*
X003841Y001713D01*
X003841Y001647D01*
X003808Y001613D01*
X003708Y001613D01*
X003775Y001613D02*
X003841Y001546D01*
X003929Y001546D02*
X004062Y001747D01*
X003929Y001747D02*
X004062Y001546D01*
X004417Y001566D02*
X004483Y001499D01*
X004550Y001566D01*
X004550Y001699D01*
X004638Y001666D02*
X004638Y001533D01*
X004671Y001499D01*
X004738Y001499D01*
X004771Y001533D01*
X004859Y001533D02*
X004892Y001499D01*
X004959Y001499D01*
X004992Y001533D01*
X004992Y001666D02*
X004959Y001699D01*
X004892Y001699D01*
X004859Y001666D01*
X004859Y001533D01*
X004771Y001666D02*
X004738Y001699D01*
X004671Y001699D01*
X004638Y001666D01*
X004417Y001699D02*
X004417Y001566D01*
X004271Y001983D02*
X004113Y001983D01*
X004271Y001983D02*
X004271Y002141D01*
X005613Y001713D02*
X005613Y001580D01*
X005647Y001546D01*
X005713Y001546D01*
X005747Y001580D01*
X005747Y001647D01*
X005680Y001647D01*
X005613Y001713D02*
X005647Y001747D01*
X005713Y001747D01*
X005747Y001713D01*
X005834Y001747D02*
X005968Y001546D01*
X005968Y001747D01*
X006055Y001747D02*
X006155Y001747D01*
X006189Y001713D01*
X006189Y001580D01*
X006155Y001546D01*
X006055Y001546D01*
X006055Y001747D01*
X005834Y001747D02*
X005834Y001546D01*
X006763Y001517D02*
X006796Y001483D01*
X006863Y001483D01*
X006896Y001517D01*
X006763Y001517D02*
X006763Y001650D01*
X006796Y001684D01*
X006863Y001684D01*
X006896Y001650D01*
X006984Y001684D02*
X007117Y001684D01*
X007051Y001684D02*
X007051Y001483D01*
X007205Y001517D02*
X007238Y001483D01*
X007305Y001483D01*
X007338Y001517D01*
X007338Y001550D01*
X007305Y001584D01*
X007238Y001584D01*
X007205Y001617D01*
X007205Y001650D01*
X007238Y001684D01*
X007305Y001684D01*
X007338Y001650D01*
X007328Y001690D02*
X007328Y001757D01*
X007361Y001790D01*
X007394Y001790D01*
X007428Y001757D01*
X007428Y001690D01*
X007394Y001657D01*
X007328Y001690D02*
X007294Y001657D01*
X007261Y001657D01*
X007228Y001690D01*
X007228Y001757D01*
X007261Y001790D01*
X007261Y001878D02*
X007394Y001878D01*
X007428Y001911D01*
X007428Y001978D01*
X007394Y002011D01*
X007428Y002099D02*
X007228Y002099D01*
X007261Y002011D02*
X007228Y001978D01*
X007228Y001911D01*
X007261Y001878D01*
X007428Y002099D02*
X007428Y002232D01*
X007669Y002316D02*
X007702Y002283D01*
X007769Y002283D01*
X007802Y002316D01*
X007802Y002349D01*
X007769Y002383D01*
X007702Y002383D01*
X007669Y002416D01*
X007669Y002449D01*
X007702Y002483D01*
X007769Y002483D01*
X007802Y002449D01*
X007889Y002449D02*
X007889Y002316D01*
X007923Y002283D01*
X007990Y002283D01*
X008023Y002316D01*
X008110Y002283D02*
X008244Y002283D01*
X008110Y002283D02*
X008110Y002483D01*
X008023Y002449D02*
X007990Y002483D01*
X007923Y002483D01*
X007889Y002449D01*
X007428Y002635D02*
X007394Y002602D01*
X007428Y002635D02*
X007428Y002702D01*
X007394Y002735D01*
X007361Y002735D01*
X007328Y002702D01*
X007328Y002635D01*
X007294Y002602D01*
X007261Y002602D01*
X007228Y002635D01*
X007228Y002702D01*
X007261Y002735D01*
X007228Y002823D02*
X007228Y002923D01*
X007261Y002956D01*
X007394Y002956D01*
X007428Y002923D01*
X007428Y002823D01*
X007228Y002823D01*
X007294Y003044D02*
X007228Y003110D01*
X007294Y003177D01*
X007428Y003177D01*
X007328Y003177D02*
X007328Y003044D01*
X007294Y003044D02*
X007428Y003044D01*
X007662Y003306D02*
X007629Y003340D01*
X007662Y003306D02*
X007729Y003306D01*
X007763Y003340D01*
X007763Y003373D01*
X007729Y003406D01*
X007662Y003406D01*
X007629Y003440D01*
X007629Y003473D01*
X007662Y003506D01*
X007729Y003506D01*
X007763Y003473D01*
X007850Y003506D02*
X007950Y003506D01*
X007984Y003473D01*
X007984Y003340D01*
X007950Y003306D01*
X007850Y003306D01*
X007850Y003506D01*
X008071Y003440D02*
X008138Y003506D01*
X008205Y003440D01*
X008205Y003306D01*
X008205Y003406D02*
X008071Y003406D01*
X008071Y003440D02*
X008071Y003306D01*
X007428Y003619D02*
X007428Y003686D01*
X007394Y003719D01*
X007328Y003719D01*
X007328Y003653D01*
X007261Y003719D02*
X007228Y003686D01*
X007228Y003619D01*
X007261Y003586D01*
X007394Y003586D01*
X007428Y003619D01*
X007428Y003807D02*
X007228Y003807D01*
X007428Y003940D01*
X007228Y003940D01*
X007228Y004028D02*
X007228Y004128D01*
X007261Y004161D01*
X007394Y004161D01*
X007428Y004128D01*
X007428Y004028D01*
X007228Y004028D01*
X007590Y004324D02*
X007623Y004291D01*
X007690Y004291D01*
X007723Y004324D01*
X007723Y004391D01*
X007656Y004391D01*
X007590Y004457D02*
X007590Y004324D01*
X007590Y004457D02*
X007623Y004491D01*
X007690Y004491D01*
X007723Y004457D01*
X007811Y004491D02*
X007944Y004291D01*
X007944Y004491D01*
X008032Y004491D02*
X008132Y004491D01*
X008165Y004457D01*
X008165Y004324D01*
X008132Y004291D01*
X008032Y004291D01*
X008032Y004491D01*
X007811Y004491D02*
X007811Y004291D01*
X007428Y004637D02*
X007361Y004704D01*
X007228Y004704D01*
X007228Y004570D02*
X007361Y004570D01*
X007428Y004637D01*
X007394Y004791D02*
X007261Y004791D01*
X007228Y004824D01*
X007228Y004891D01*
X007261Y004925D01*
X007261Y005012D02*
X007394Y005012D01*
X007428Y005045D01*
X007428Y005112D01*
X007394Y005146D01*
X007261Y005146D02*
X007228Y005112D01*
X007228Y005045D01*
X007261Y005012D01*
X007394Y004925D02*
X007428Y004891D01*
X007428Y004824D01*
X007394Y004791D01*
X007696Y005275D02*
X007763Y005342D01*
X007763Y005475D01*
X007850Y005442D02*
X007850Y005308D01*
X007883Y005275D01*
X007950Y005275D01*
X007984Y005308D01*
X008071Y005308D02*
X008104Y005275D01*
X008171Y005275D01*
X008205Y005308D01*
X008205Y005442D02*
X008171Y005475D01*
X008104Y005475D01*
X008071Y005442D01*
X008071Y005308D01*
X007984Y005442D02*
X007950Y005475D01*
X007883Y005475D01*
X007850Y005442D01*
X007629Y005475D02*
X007629Y005342D01*
X007696Y005275D01*
X007404Y005720D02*
X007204Y005720D01*
X007204Y005820D01*
X007237Y005853D01*
X007271Y005853D01*
X007304Y005820D01*
X007304Y005720D01*
X007304Y005820D02*
X007337Y005853D01*
X007371Y005853D01*
X007404Y005820D01*
X007404Y005720D01*
X007404Y005941D02*
X007271Y005941D01*
X007204Y006007D01*
X007271Y006074D01*
X007404Y006074D01*
X007304Y006074D02*
X007304Y005941D01*
X007204Y006162D02*
X007204Y006295D01*
X007204Y006228D02*
X007404Y006228D01*
X007669Y006298D02*
X007769Y006298D01*
X007802Y006332D01*
X007802Y006365D01*
X007769Y006399D01*
X007669Y006399D01*
X007769Y006399D02*
X007802Y006432D01*
X007802Y006465D01*
X007769Y006499D01*
X007669Y006499D01*
X007669Y006298D01*
X007889Y006298D02*
X007889Y006432D01*
X007956Y006499D01*
X008023Y006432D01*
X008023Y006298D01*
X008023Y006399D02*
X007889Y006399D01*
X008110Y006499D02*
X008244Y006499D01*
X008177Y006499D02*
X008177Y006298D01*
X004271Y003912D02*
X004271Y003755D01*
X004271Y003912D02*
X004113Y003912D01*
X002499Y003912D02*
X002341Y003912D01*
X002341Y003755D01*
X001652Y003724D02*
X001452Y003724D01*
X001652Y003858D01*
X001452Y003858D01*
X001652Y003858D01*
X001452Y003724D01*
X001652Y003724D01*
X001619Y003637D02*
X001552Y003637D01*
X001552Y003570D01*
X001552Y003637D01*
X001619Y003637D01*
X001652Y003603D01*
X001652Y003537D01*
X001619Y003503D01*
X001485Y003503D01*
X001452Y003537D01*
X001452Y003603D01*
X001485Y003637D01*
X001452Y003603D01*
X001452Y003537D01*
X001485Y003503D01*
X001619Y003503D01*
X001652Y003537D01*
X001652Y003603D01*
X001619Y003637D01*
X001652Y003945D02*
X001452Y003945D01*
X001452Y004045D01*
X001485Y004079D01*
X001619Y004079D01*
X001652Y004045D01*
X001652Y003945D01*
X001652Y004045D01*
X001619Y004079D01*
X001485Y004079D01*
X001452Y004045D01*
X001452Y003945D01*
X001652Y003945D01*
X001165Y004324D02*
X001165Y004457D01*
X001132Y004491D01*
X001032Y004491D01*
X001032Y004291D01*
X001132Y004291D01*
X001165Y004324D01*
X000944Y004291D02*
X000944Y004491D01*
X000811Y004491D02*
X000944Y004291D01*
X000811Y004291D02*
X000811Y004491D01*
X000723Y004457D02*
X000690Y004491D01*
X000623Y004491D01*
X000590Y004457D01*
X000590Y004324D01*
X000623Y004291D01*
X000690Y004291D01*
X000723Y004324D01*
X000723Y004391D01*
X000656Y004391D01*
X001456Y004572D02*
X001589Y004572D01*
X001656Y004639D01*
X001589Y004706D01*
X001456Y004706D01*
X001489Y004793D02*
X001456Y004827D01*
X001456Y004894D01*
X001489Y004927D01*
X001489Y005014D02*
X001456Y005048D01*
X001456Y005115D01*
X001489Y005148D01*
X001623Y005148D02*
X001656Y005115D01*
X001656Y005048D01*
X001623Y005014D01*
X001489Y005014D01*
X001623Y004927D02*
X001656Y004894D01*
X001656Y004827D01*
X001623Y004793D01*
X001489Y004793D01*
X001171Y005275D02*
X001104Y005275D01*
X001071Y005308D01*
X001071Y005442D01*
X001104Y005475D01*
X001171Y005475D01*
X001205Y005442D01*
X001205Y005308D02*
X001171Y005275D01*
X000984Y005308D02*
X000950Y005275D01*
X000883Y005275D01*
X000850Y005308D01*
X000850Y005442D01*
X000883Y005475D01*
X000950Y005475D01*
X000984Y005442D01*
X000763Y005475D02*
X000763Y005342D01*
X000696Y005275D01*
X000629Y005342D01*
X000629Y005475D01*
X001440Y005519D02*
X001440Y005619D01*
X001473Y005653D01*
X001507Y005653D01*
X001540Y005619D01*
X001540Y005519D01*
X001640Y005519D02*
X001440Y005519D01*
X001540Y005619D02*
X001573Y005653D01*
X001607Y005653D01*
X001640Y005619D01*
X001640Y005519D01*
X001640Y005740D02*
X001507Y005740D01*
X001440Y005807D01*
X001507Y005874D01*
X001640Y005874D01*
X001540Y005874D02*
X001540Y005740D01*
X001440Y005961D02*
X001440Y006095D01*
X001440Y006028D02*
X001640Y006028D01*
X001177Y006298D02*
X001177Y006499D01*
X001110Y006499D02*
X001244Y006499D01*
X001023Y006432D02*
X001023Y006298D01*
X001023Y006399D02*
X000889Y006399D01*
X000889Y006432D02*
X000889Y006298D01*
X000802Y006332D02*
X000802Y006365D01*
X000769Y006399D01*
X000669Y006399D01*
X000769Y006399D02*
X000802Y006432D01*
X000802Y006465D01*
X000769Y006499D01*
X000669Y006499D01*
X000669Y006298D01*
X000769Y006298D01*
X000802Y006332D01*
X000889Y006432D02*
X000956Y006499D01*
X001023Y006432D01*
X000950Y003506D02*
X000850Y003506D01*
X000850Y003306D01*
X000950Y003306D01*
X000984Y003340D01*
X000984Y003473D01*
X000950Y003506D01*
X001071Y003440D02*
X001138Y003506D01*
X001205Y003440D01*
X001205Y003306D01*
X001205Y003406D02*
X001071Y003406D01*
X001071Y003440D02*
X001071Y003306D01*
X000763Y003340D02*
X000729Y003306D01*
X000662Y003306D01*
X000629Y003340D01*
X000662Y003406D02*
X000729Y003406D01*
X000763Y003373D01*
X000763Y003340D01*
X000662Y003406D02*
X000629Y003440D01*
X000629Y003473D01*
X000662Y003506D01*
X000729Y003506D01*
X000763Y003473D01*
X001452Y003067D02*
X001519Y003134D01*
X001652Y003134D01*
X001552Y003134D02*
X001552Y003000D01*
X001519Y003000D02*
X001452Y003067D01*
X001519Y003000D02*
X001652Y003000D01*
X001619Y002913D02*
X001485Y002913D01*
X001452Y002879D01*
X001452Y002779D01*
X001652Y002779D01*
X001652Y002879D01*
X001619Y002913D01*
X001619Y002692D02*
X001652Y002658D01*
X001652Y002592D01*
X001619Y002558D01*
X001552Y002592D02*
X001552Y002658D01*
X001585Y002692D01*
X001619Y002692D01*
X001552Y002592D02*
X001519Y002558D01*
X001485Y002558D01*
X001452Y002592D01*
X001452Y002658D01*
X001485Y002692D01*
X001110Y002483D02*
X001110Y002283D01*
X001244Y002283D01*
X001023Y002316D02*
X000990Y002283D01*
X000923Y002283D01*
X000889Y002316D01*
X000889Y002449D01*
X000923Y002483D01*
X000990Y002483D01*
X001023Y002449D01*
X000802Y002449D02*
X000769Y002483D01*
X000702Y002483D01*
X000669Y002449D01*
X000669Y002416D01*
X000702Y002383D01*
X000769Y002383D01*
X000802Y002349D01*
X000802Y002316D01*
X000769Y002283D01*
X000702Y002283D01*
X000669Y002316D01*
X002341Y002141D02*
X002341Y001983D01*
X002499Y001983D01*
X007228Y001169D02*
X007428Y001169D01*
X007361Y001102D01*
X007428Y001036D01*
X007228Y001036D01*
X007261Y000948D02*
X007328Y000948D01*
X007361Y000915D01*
X007361Y000815D01*
X007428Y000815D02*
X007228Y000815D01*
X007228Y000915D01*
X007261Y000948D01*
X007428Y000727D02*
X007428Y000594D01*
X007228Y000594D01*
X007590Y001298D02*
X007723Y001298D01*
X007811Y001298D02*
X007811Y001499D01*
X007911Y001499D01*
X007944Y001465D01*
X007944Y001399D01*
X007911Y001365D01*
X007811Y001365D01*
X008032Y001298D02*
X008032Y001499D01*
X008165Y001499D02*
X008165Y001298D01*
X008098Y001365D01*
X008032Y001298D01*
X007590Y001298D02*
X007590Y001499D01*
D11*
X000690Y000491D02*
X000519Y000662D01*
X000519Y001162D01*
X000572Y001412D01*
X000519Y001662D01*
X000519Y002162D01*
X000572Y002412D01*
X000519Y002662D01*
X000519Y003162D01*
X000572Y003412D01*
X000519Y003662D01*
X000519Y004162D01*
X000572Y004412D01*
X000519Y004662D01*
X000519Y005162D01*
X000572Y005412D01*
X000519Y005662D01*
X000519Y006162D01*
X000690Y006530D01*
X001190Y006530D01*
X001361Y006162D01*
X001361Y005662D01*
X001308Y005412D01*
X001361Y005162D01*
X001361Y004662D01*
X001308Y004412D01*
X001361Y004162D01*
X001361Y003662D01*
X001308Y003412D01*
X001361Y003162D01*
X001361Y002662D01*
X001308Y002412D01*
X001361Y002162D01*
X001361Y001662D01*
X001308Y001412D01*
X001361Y001162D01*
X001361Y000662D01*
X001190Y000491D01*
X000690Y000491D01*
X001444Y000745D02*
X001694Y000495D01*
X002194Y000495D01*
X002444Y000745D01*
X002694Y000495D01*
X003194Y000495D01*
X003444Y000745D01*
X003694Y000495D01*
X004194Y000495D01*
X004444Y000745D01*
X004694Y000495D01*
X005194Y000495D01*
X005444Y000745D01*
X005694Y000495D01*
X006194Y000495D01*
X006444Y000745D01*
X006694Y000495D01*
X007194Y000495D01*
X007444Y000745D01*
X007444Y001245D01*
X007194Y001495D01*
X006694Y001495D01*
X006444Y001245D01*
X006194Y001495D01*
X005694Y001495D01*
X005444Y001245D01*
X005194Y001495D01*
X004694Y001495D01*
X004444Y001245D01*
X004194Y001495D01*
X003694Y001495D01*
X003444Y001245D01*
X003194Y001495D01*
X002694Y001495D01*
X002444Y001245D01*
X002194Y001495D01*
X001694Y001495D01*
X001444Y001245D01*
X001444Y000745D01*
X006233Y002927D02*
X006733Y002927D01*
X006733Y003527D02*
X006233Y003527D01*
X007519Y003662D02*
X007572Y003412D01*
X007519Y003162D01*
X007519Y002662D01*
X007572Y002412D01*
X007519Y002162D01*
X007519Y001662D01*
X007572Y001412D01*
X007519Y001162D01*
X007519Y000662D01*
X007690Y000491D01*
X008190Y000491D01*
X008361Y000662D01*
X008361Y001162D01*
X008308Y001412D01*
X008361Y001662D01*
X008361Y002162D01*
X008308Y002412D01*
X008361Y002662D01*
X008361Y003162D01*
X008308Y003412D01*
X008361Y003662D01*
X008361Y004162D01*
X008308Y004412D01*
X008361Y004662D01*
X008361Y005162D01*
X008308Y005412D01*
X008361Y005662D01*
X008361Y006162D01*
X008190Y006530D01*
X007690Y006530D01*
X007519Y006162D01*
X007519Y005662D01*
X007572Y005412D01*
X007519Y005162D01*
X007519Y004662D01*
X007572Y004412D01*
X007519Y004162D01*
X007519Y003662D01*
D12*
X004162Y002091D03*
D13*
X003479Y002853D02*
X003332Y002853D01*
X003405Y002853D02*
X003405Y003074D01*
X003332Y003000D01*
X003258Y003074D02*
X003258Y002890D01*
X003221Y002853D01*
X003147Y002853D01*
X003111Y002890D01*
X003111Y003074D01*
X002274Y004528D02*
X002127Y004528D01*
X002090Y004565D01*
X002090Y004639D01*
X002127Y004675D01*
X002127Y004749D02*
X002090Y004786D01*
X002090Y004860D01*
X002127Y004896D01*
X002163Y004896D01*
X002310Y004749D01*
X002310Y004896D01*
X002274Y004675D02*
X002310Y004639D01*
X002310Y004565D01*
X002274Y004528D01*
X005321Y003377D02*
X005321Y003157D01*
X005321Y003267D02*
X005394Y003267D01*
X005542Y003303D02*
X005615Y003377D01*
X005615Y003157D01*
X005542Y003157D02*
X005689Y003157D01*
X005468Y003377D02*
X005321Y003377D01*
X006804Y002591D02*
X006804Y002445D01*
X006841Y002408D01*
X006914Y002408D01*
X006951Y002445D01*
X007025Y002408D02*
X007172Y002408D01*
X007098Y002408D02*
X007098Y002628D01*
X007025Y002555D01*
X006951Y002591D02*
X006914Y002628D01*
X006841Y002628D01*
X006804Y002591D01*
X006825Y002101D02*
X006788Y002064D01*
X006788Y001917D01*
X006825Y001880D01*
X006898Y001880D01*
X006935Y001917D01*
X007009Y001917D02*
X007046Y001880D01*
X007119Y001880D01*
X007156Y001917D01*
X007156Y001954D01*
X007119Y001991D01*
X007083Y001991D01*
X007119Y001991D02*
X007156Y002027D01*
X007156Y002064D01*
X007119Y002101D01*
X007046Y002101D01*
X007009Y002064D01*
X006935Y002064D02*
X006898Y002101D01*
X006825Y002101D01*
X006918Y004203D02*
X006918Y004423D01*
X007028Y004423D01*
X007065Y004387D01*
X007065Y004313D01*
X007028Y004277D01*
X006918Y004277D01*
X006992Y004277D02*
X007065Y004203D01*
X007139Y004203D02*
X007286Y004350D01*
X007286Y004387D01*
X007249Y004423D01*
X007176Y004423D01*
X007139Y004387D01*
X007139Y004203D02*
X007286Y004203D01*
X006340Y004850D02*
X006194Y004850D01*
X006267Y004850D02*
X006267Y005070D01*
X006194Y004997D01*
X006119Y005034D02*
X006119Y004960D01*
X006083Y004924D01*
X005973Y004924D01*
X006046Y004924D02*
X006119Y004850D01*
X005973Y004850D02*
X005973Y005070D01*
X006083Y005070D01*
X006119Y005034D01*
X006038Y005531D02*
X006258Y005531D01*
X006258Y005678D01*
X006258Y005752D02*
X006258Y005899D01*
X006258Y005973D02*
X006258Y006083D01*
X006221Y006120D01*
X006074Y006120D01*
X006038Y006083D01*
X006038Y005973D01*
X006258Y005973D01*
X006148Y005825D02*
X006148Y005752D01*
X006038Y005752D02*
X006258Y005752D01*
X006038Y005752D02*
X006038Y005899D01*
X006111Y006194D02*
X006038Y006267D01*
X006258Y006267D01*
X006258Y006194D02*
X006258Y006341D01*
X006656Y006277D02*
X006656Y006203D01*
X006693Y006166D01*
X006693Y006092D02*
X006656Y006056D01*
X006656Y005946D01*
X006876Y005946D01*
X006876Y006056D01*
X006839Y006092D01*
X006693Y006092D01*
X006876Y006166D02*
X006729Y006313D01*
X006693Y006313D01*
X006656Y006277D01*
X006876Y006313D02*
X006876Y006166D01*
X006876Y005871D02*
X006876Y005725D01*
X006656Y005725D01*
X006656Y005871D01*
X006766Y005798D02*
X006766Y005725D01*
X006876Y005650D02*
X006876Y005504D01*
X006656Y005504D01*
D14*
X007145Y004826D03*
X006550Y004739D03*
X001873Y004645D03*
D15*
X006310Y005849D02*
X006491Y005849D01*
X006399Y005971D01*
X006401Y005976D02*
X006571Y005976D01*
X006577Y005971D02*
X006501Y005855D01*
X006491Y005849D02*
X006672Y005849D01*
X006861Y005841D02*
X007042Y005841D01*
X006950Y005963D01*
X006952Y005968D02*
X007122Y005968D01*
X007128Y005963D02*
X007052Y005847D01*
X007042Y005841D02*
X007223Y005841D01*
D16*
X006121Y006499D02*
X002184Y006499D01*
D17*
X006361Y002511D03*
X006361Y002034D03*
D18*
X005332Y002029D03*
X005332Y002008D03*
X005332Y001980D03*
X005332Y001959D03*
X005332Y002058D03*
X005332Y002072D03*
X005332Y002107D03*
X005332Y002122D03*
X005332Y002157D03*
X005332Y002171D03*
X005332Y002207D03*
X005332Y002221D03*
X005332Y002249D03*
X005332Y002270D03*
X005332Y002299D03*
X004929Y002299D03*
X004929Y002270D03*
X004929Y002249D03*
X004929Y002221D03*
X004929Y002207D03*
X004929Y002171D03*
X004929Y002157D03*
X004929Y002122D03*
X004929Y002107D03*
X004929Y002072D03*
X004929Y002058D03*
X004929Y002029D03*
X004929Y002008D03*
X004929Y001980D03*
X004929Y001959D03*
D19*
X005131Y001959D03*
D20*
X005332Y001966D03*
X005332Y001973D03*
X005332Y001987D03*
X005332Y002001D03*
X005332Y002015D03*
X005332Y002022D03*
X005332Y002037D03*
X005332Y002051D03*
X005332Y002065D03*
X005332Y002079D03*
X005332Y002086D03*
X005332Y002100D03*
X005332Y002114D03*
X005332Y002129D03*
X005332Y002143D03*
X005332Y002150D03*
X005332Y002164D03*
X005332Y002178D03*
X005332Y002192D03*
X005332Y002199D03*
X005332Y002214D03*
X005332Y002228D03*
X005332Y002242D03*
X005332Y002256D03*
X005332Y002263D03*
X005332Y002277D03*
X005332Y002291D03*
X005332Y002306D03*
X004929Y002306D03*
X004929Y002291D03*
X004929Y002277D03*
X004929Y002263D03*
X004929Y002256D03*
X004929Y002242D03*
X004929Y002228D03*
X004929Y002214D03*
X004929Y002199D03*
X004929Y002192D03*
X004929Y002178D03*
X004929Y002164D03*
X004929Y002150D03*
X004929Y002143D03*
X004929Y002129D03*
X004929Y002114D03*
X004929Y002100D03*
X004929Y002086D03*
X004929Y002079D03*
X004929Y002065D03*
X004929Y002051D03*
X004929Y002037D03*
X004929Y002022D03*
X004929Y002015D03*
X004929Y002001D03*
X004929Y001987D03*
X004929Y001973D03*
X004929Y001966D03*
D21*
X005131Y001966D03*
X005131Y001973D03*
D22*
X005131Y001980D03*
D23*
X005131Y001987D03*
D24*
X005332Y001994D03*
X005332Y002044D03*
X005332Y002093D03*
X005332Y002136D03*
X005332Y002185D03*
X005332Y002235D03*
X005332Y002284D03*
X004929Y002284D03*
X004929Y002235D03*
X004929Y002185D03*
X004929Y002136D03*
X004929Y002093D03*
X004929Y002044D03*
X004929Y001994D03*
D25*
X005131Y001994D03*
D26*
X005131Y002001D03*
X005131Y002015D03*
X005131Y002022D03*
D27*
X005131Y002008D03*
D28*
X005131Y002029D03*
X004954Y002476D03*
D29*
X005131Y002051D03*
X005131Y002037D03*
D30*
X005131Y002044D03*
D31*
X005131Y002058D03*
X005131Y002072D03*
D32*
X005131Y002065D03*
D33*
X005131Y002079D03*
X005131Y002086D03*
X005294Y002391D03*
X005294Y002405D03*
D34*
X005035Y002284D03*
X005070Y002136D03*
X005085Y002093D03*
X005177Y002093D03*
D35*
X005177Y002100D03*
X005184Y002129D03*
X005191Y002150D03*
X005198Y002178D03*
X005078Y002129D03*
X005078Y002114D03*
X005070Y002143D03*
X005070Y002150D03*
X005049Y002228D03*
X005042Y002256D03*
X005035Y002277D03*
X005028Y002306D03*
D36*
X005081Y002100D03*
X005052Y002541D03*
X005053Y002629D03*
X004911Y002629D03*
X004910Y002541D03*
X005199Y002539D03*
X005200Y002627D03*
X005344Y002625D03*
X005343Y002537D03*
D37*
X005230Y002299D03*
X005223Y002270D03*
X005216Y002249D03*
X005194Y002171D03*
X005194Y002157D03*
X005180Y002107D03*
X005067Y002157D03*
X005039Y002270D03*
X005031Y002299D03*
D38*
X005042Y002249D03*
X005049Y002221D03*
X005078Y002122D03*
X005078Y002107D03*
X005184Y002122D03*
D39*
X005180Y002114D03*
X005187Y002143D03*
X005194Y002164D03*
X005201Y002192D03*
X005201Y002199D03*
X005216Y002242D03*
X005216Y002256D03*
X005223Y002263D03*
X005223Y002277D03*
X005230Y002291D03*
X005230Y002306D03*
X005046Y002242D03*
X005039Y002263D03*
X005031Y002291D03*
X005053Y002214D03*
D40*
X005046Y002235D03*
X005201Y002185D03*
X005187Y002136D03*
X005216Y002235D03*
X005223Y002284D03*
D41*
X005056Y002199D03*
X005056Y002192D03*
X005063Y002178D03*
X005063Y002164D03*
D42*
X005063Y002171D03*
X005056Y002207D03*
X005205Y002207D03*
D43*
X005060Y002185D03*
D44*
X005209Y002214D03*
X005209Y002228D03*
D45*
X005209Y002221D03*
D46*
X005283Y002313D03*
D47*
X005286Y002327D03*
X005286Y002341D03*
X004975Y002327D03*
X004975Y002313D03*
D48*
X005283Y002320D03*
D49*
X005286Y002348D03*
X004975Y002320D03*
D50*
X005286Y002334D03*
D51*
X005290Y002362D03*
X004971Y002334D03*
D52*
X004971Y002341D03*
X004971Y002355D03*
X005290Y002355D03*
X005290Y002369D03*
X005290Y002376D03*
D53*
X004971Y002348D03*
D54*
X004968Y002362D03*
X004968Y002384D03*
D55*
X004968Y002376D03*
X004968Y002369D03*
D56*
X005294Y002384D03*
D57*
X005297Y002419D03*
X005297Y002433D03*
X004964Y002405D03*
X004964Y002391D03*
D58*
X005294Y002398D03*
D59*
X005297Y002426D03*
X004964Y002398D03*
D60*
X004964Y002412D03*
X005297Y002412D03*
D61*
X005301Y002440D03*
X005301Y002454D03*
X004961Y002440D03*
X004961Y002433D03*
X004961Y002419D03*
D62*
X004961Y002426D03*
X005301Y002447D03*
D63*
X005304Y002476D03*
X004957Y002447D03*
D64*
X004957Y002454D03*
X004957Y002469D03*
X005304Y002469D03*
D65*
X005301Y002461D03*
D66*
X004957Y002461D03*
D67*
X004570Y002299D02*
X004572Y002346D01*
X004578Y002392D01*
X004588Y002438D01*
X004601Y002483D01*
X004618Y002526D01*
X004639Y002568D01*
X004663Y002608D01*
X004691Y002646D01*
X004722Y002682D01*
X004755Y002714D01*
X004791Y002744D01*
X004829Y002771D01*
X004870Y002794D01*
X004912Y002814D01*
X004956Y002831D01*
X005001Y002843D01*
X005047Y002852D01*
X005094Y002857D01*
X005141Y002858D01*
X005187Y002855D01*
X005234Y002848D01*
X005279Y002837D01*
X005324Y002823D01*
X005367Y002805D01*
X005408Y002783D01*
X005448Y002758D01*
X005485Y002730D01*
X005520Y002698D01*
X005552Y002664D01*
X005581Y002628D01*
X005607Y002589D01*
X005630Y002548D01*
X005649Y002505D01*
X005664Y002461D01*
X005676Y002415D01*
X005684Y002369D01*
X005688Y002322D01*
X005688Y002276D01*
X005684Y002229D01*
X005676Y002183D01*
X005664Y002137D01*
X005649Y002093D01*
X005630Y002050D01*
X005607Y002009D01*
X005581Y001970D01*
X005552Y001934D01*
X005520Y001900D01*
X005485Y001868D01*
X005448Y001840D01*
X005409Y001815D01*
X005367Y001793D01*
X005324Y001775D01*
X005279Y001761D01*
X005234Y001750D01*
X005187Y001743D01*
X005141Y001740D01*
X005094Y001741D01*
X005047Y001746D01*
X005001Y001755D01*
X004956Y001767D01*
X004912Y001784D01*
X004870Y001804D01*
X004829Y001827D01*
X004791Y001854D01*
X004755Y001884D01*
X004722Y001916D01*
X004691Y001952D01*
X004663Y001990D01*
X004639Y002030D01*
X004618Y002072D01*
X004601Y002115D01*
X004588Y002160D01*
X004578Y002206D01*
X004572Y002252D01*
X004570Y002299D01*
D68*
X004910Y002534D03*
X004911Y002636D03*
X005053Y002636D03*
X005052Y002534D03*
X005199Y002531D03*
X005200Y002634D03*
X005344Y002632D03*
X005343Y002530D03*
D69*
X005344Y002522D03*
X005199Y002524D03*
X005199Y002641D03*
X005344Y002640D03*
X005053Y002644D03*
X004910Y002644D03*
X004911Y002526D03*
X005053Y002526D03*
D70*
X005053Y002519D03*
X004911Y002519D03*
X004910Y002651D03*
X005052Y002651D03*
X005199Y002649D03*
X005343Y002647D03*
X005344Y002515D03*
X005200Y002517D03*
D71*
X005200Y002510D03*
X005344Y002508D03*
X005343Y002654D03*
X005199Y002655D03*
X005052Y002658D03*
X004910Y002658D03*
X004911Y002513D03*
X005053Y002513D03*
D72*
X005053Y002549D03*
X005053Y002622D03*
X004910Y002622D03*
X004911Y002549D03*
X005199Y002546D03*
X005199Y002619D03*
X005344Y002618D03*
X005344Y002544D03*
D73*
X005372Y002552D03*
X005316Y002610D03*
X005227Y002553D03*
X005171Y002612D03*
X005081Y002556D03*
X005025Y002614D03*
X004938Y002556D03*
X004882Y002614D03*
D74*
X004938Y002614D03*
X004883Y002556D03*
X005025Y002556D03*
X005081Y002614D03*
X005172Y002553D03*
X005227Y002612D03*
X005316Y002552D03*
X005372Y002610D03*
D75*
X005379Y002560D03*
X005309Y002602D03*
X005234Y002561D03*
X005164Y002604D03*
X005088Y002564D03*
X005018Y002606D03*
X004945Y002564D03*
X004875Y002606D03*
D76*
X004876Y002564D03*
X004944Y002606D03*
X005019Y002564D03*
X005087Y002606D03*
X005165Y002562D03*
X005233Y002603D03*
X005310Y002560D03*
X005378Y002602D03*
D77*
X005387Y002569D03*
X005300Y002593D03*
X005243Y002570D03*
X005156Y002595D03*
X005096Y002573D03*
X005010Y002598D03*
X004954Y002573D03*
X004867Y002598D03*
D78*
X004869Y002573D03*
X004952Y002597D03*
X005011Y002573D03*
X005095Y002597D03*
X005158Y002571D03*
X005241Y002595D03*
X005302Y002569D03*
X005386Y002593D03*
M02*
