G75*
%MOIN*%
%OFA0B0*%
%FSLAX24Y24*%
%IPPOS*%
%LPD*%
%AMOC8*
5,1,8,0,0,1.08239X$1,22.5*
%
%ADD10C,0.0740*%
%ADD11C,0.0080*%
%ADD12R,0.0250X0.0500*%
%ADD13C,0.0160*%
%ADD14C,0.0120*%
%ADD15C,0.0376*%
%ADD16C,0.0100*%
D10*
X000940Y000912D03*
X001944Y000995D03*
X002944Y000995D03*
X003944Y000995D03*
X004944Y000995D03*
X005944Y000995D03*
X006944Y000995D03*
X007940Y000912D03*
X007940Y001912D03*
X007940Y002912D03*
X007940Y003912D03*
X007940Y004912D03*
X007940Y005912D03*
X000940Y005912D03*
X000940Y004912D03*
X000940Y003912D03*
X000940Y002912D03*
X000940Y001912D03*
D11*
X005586Y003180D02*
X005936Y003180D01*
D12*
X005936Y003180D03*
X005586Y003180D03*
X006286Y003180D03*
D13*
X006551Y003135D02*
X007235Y003135D01*
X007230Y002976D02*
X006551Y002976D01*
X006551Y002934D02*
X006551Y003488D01*
X006469Y003570D01*
X006414Y003570D01*
X006393Y003675D01*
X006399Y003694D01*
X006459Y003634D01*
X006579Y003584D01*
X006710Y003584D01*
X006830Y003634D01*
X006923Y003726D01*
X006973Y003847D01*
X006973Y003978D01*
X006923Y004098D01*
X006843Y004177D01*
X006825Y004946D01*
X006825Y005026D01*
X006823Y005028D01*
X006823Y005031D01*
X006765Y005087D01*
X006709Y005143D01*
X006705Y005143D01*
X006703Y005146D01*
X006623Y005144D01*
X001920Y005163D01*
X001861Y005177D01*
X001840Y005164D01*
X001815Y005164D01*
X001772Y005121D01*
X001721Y005090D01*
X001715Y005065D01*
X001697Y005047D01*
X001697Y004987D01*
X001485Y004081D01*
X001466Y004073D01*
X001450Y004123D01*
X001410Y004201D01*
X001359Y004271D01*
X001298Y004332D01*
X001228Y004383D01*
X001151Y004422D01*
X001116Y004433D01*
X001229Y004480D01*
X001372Y004623D01*
X001450Y004811D01*
X001450Y005014D01*
X001421Y005083D01*
X002133Y005795D01*
X006821Y005795D01*
X007480Y005136D01*
X007430Y005014D01*
X007430Y004811D01*
X007464Y004728D01*
X007399Y004668D01*
X007342Y004615D01*
X007284Y004561D01*
X007284Y004560D01*
X007281Y004481D01*
X007279Y004403D01*
X006838Y004403D01*
X006834Y004561D02*
X007285Y004561D01*
X007284Y004560D02*
X007284Y004560D01*
X007279Y004403D02*
X007279Y004403D01*
X007229Y002942D01*
X006738Y002933D01*
X006551Y002934D01*
X006551Y003293D02*
X007241Y003293D01*
X007246Y003452D02*
X006551Y003452D01*
X006516Y003610D02*
X006406Y003610D01*
X006773Y003610D02*
X007252Y003610D01*
X007257Y003769D02*
X006940Y003769D01*
X006973Y003927D02*
X007262Y003927D01*
X007268Y004086D02*
X006928Y004086D01*
X006842Y004244D02*
X007273Y004244D01*
X007399Y004668D02*
X007399Y004668D01*
X007455Y004720D02*
X006830Y004720D01*
X006827Y004878D02*
X007430Y004878D01*
X007439Y005037D02*
X006817Y005037D01*
X007262Y005354D02*
X001693Y005354D01*
X001851Y005512D02*
X007103Y005512D01*
X006945Y005671D02*
X002010Y005671D01*
X002042Y006015D02*
X000940Y004912D01*
X001412Y004720D02*
X001634Y004720D01*
X001671Y004878D02*
X001450Y004878D01*
X001440Y005037D02*
X001697Y005037D01*
X001534Y005195D02*
X007420Y005195D01*
X007940Y004987D02*
X007940Y004912D01*
X007940Y004987D02*
X006912Y006015D01*
X002042Y006015D01*
X001278Y006326D02*
X007526Y006326D01*
X007940Y005912D01*
X007940Y002912D02*
X007936Y002806D01*
X007940Y001912D02*
X007900Y001593D01*
X007562Y001605D01*
X006649Y002231D01*
X005971Y002231D01*
X005767Y002282D01*
X005180Y002349D01*
X004400Y002523D01*
X004298Y002523D01*
X002460Y002534D01*
X002460Y001916D01*
X000940Y001912D01*
X001605Y001664D02*
X002711Y001672D01*
X002711Y002267D01*
X004219Y002259D01*
X004550Y002231D01*
X004790Y002133D01*
X005204Y002109D01*
X005523Y002074D01*
X005963Y001952D01*
X006593Y001952D01*
X007940Y000912D01*
X006617Y002495D02*
X005987Y002499D01*
X005373Y002680D01*
X005086Y002680D01*
X004849Y002696D01*
X004708Y002810D01*
X002204Y002814D01*
X002204Y002180D01*
X001617Y002176D01*
X000940Y002912D01*
X000960Y003932D02*
X000960Y004402D01*
X000920Y004402D01*
X000920Y003932D01*
X000960Y003932D01*
X000960Y004086D02*
X000920Y004086D01*
X000920Y004244D02*
X000960Y004244D01*
X001188Y004403D02*
X001560Y004403D01*
X001523Y004244D02*
X001378Y004244D01*
X001462Y004086D02*
X001486Y004086D01*
X001597Y004561D02*
X001310Y004561D01*
X000940Y005912D02*
X000940Y005987D01*
X001278Y006326D01*
X001605Y001664D02*
X000940Y000963D01*
X000940Y000912D01*
D14*
X001944Y000995D02*
X001948Y000991D01*
X001987Y001019D01*
X002546Y001393D01*
X003015Y001554D01*
X003322Y001873D01*
X004483Y001873D01*
X005243Y001554D02*
X003456Y001507D01*
X002944Y000995D01*
X001845Y002511D02*
X001526Y002767D01*
X001526Y003318D01*
X001924Y003574D01*
X002030Y003649D01*
X002054Y003676D01*
X002054Y004668D01*
X006074Y004668D01*
X006097Y004263D01*
X005920Y003763D02*
X005566Y003881D01*
X005314Y004023D01*
X005326Y004463D01*
X004656Y004463D01*
X004660Y004274D01*
X004660Y003794D01*
X004026Y003141D01*
X001900Y003160D01*
X001621Y003782D02*
X001897Y004963D01*
X006625Y004944D01*
X006649Y003963D01*
X006645Y003912D01*
X006187Y003684D02*
X005920Y003763D01*
X005799Y003570D02*
X005267Y003566D01*
X004999Y003251D01*
X004995Y003141D01*
X004995Y003034D01*
X004999Y003251D02*
X004999Y004145D01*
X004975Y004149D01*
X004341Y004003D02*
X004223Y004349D01*
X002400Y004341D01*
X001558Y004652D02*
X001558Y004952D01*
X001960Y005412D01*
X001558Y004652D02*
X000940Y004149D01*
X000940Y003912D01*
X006187Y003684D02*
X006286Y003180D01*
X006617Y002495D02*
X007267Y002058D01*
X007400Y002058D01*
X007936Y002806D01*
D15*
X006645Y003912D03*
X007137Y003963D03*
X006097Y004263D03*
X005566Y003881D03*
X004975Y004149D03*
X004341Y004003D03*
X004995Y003034D03*
X004483Y001873D03*
X005243Y001554D03*
X001900Y003160D03*
X001845Y002511D03*
X001621Y003782D03*
X002400Y004341D03*
X001960Y005412D03*
D16*
X005586Y003180D02*
X005589Y002971D01*
X005711Y002786D01*
X006192Y002747D01*
X006739Y002743D01*
X007412Y002755D01*
X007471Y004475D01*
X007940Y004912D01*
X005799Y003570D02*
X005936Y003180D01*
M02*
