G75*
%MOIN*%
%OFA0B0*%
%FSLAX24Y24*%
%IPPOS*%
%LPD*%
%AMOC8*
5,1,8,0,0,1.08239X$1,22.5*
%
%ADD10C,0.0800*%
%ADD11C,0.0264*%
%ADD12C,0.0053*%
%ADD13R,0.0414X0.0336*%
%ADD14R,0.0375X0.0375*%
%ADD15R,0.0454X0.0769*%
%ADD16R,0.0887X0.0690*%
%ADD17R,0.0217X0.0591*%
%ADD18R,0.0808X0.0808*%
%ADD19R,0.0690X0.0808*%
%ADD20R,0.0336X0.0414*%
%ADD21C,0.0436*%
D10*
X000940Y000912D03*
X001944Y000995D03*
X002944Y000995D03*
X003944Y000995D03*
X004944Y000995D03*
X005944Y000995D03*
X006944Y000995D03*
X007940Y000912D03*
X007940Y001912D03*
X007940Y002912D03*
X007940Y003912D03*
X007940Y004912D03*
X007940Y005912D03*
X000940Y005912D03*
X000940Y004912D03*
X000940Y003912D03*
X000940Y002912D03*
X000940Y001912D03*
D11*
X002778Y003476D02*
X003834Y003476D01*
X003834Y002420D01*
X002778Y002420D01*
X002778Y003476D01*
X002778Y002683D02*
X003834Y002683D01*
X003834Y002946D02*
X002778Y002946D01*
X002778Y003209D02*
X003834Y003209D01*
X003834Y003472D02*
X002778Y003472D01*
D12*
X002522Y003377D02*
X002160Y003377D01*
X002160Y003503D01*
X002522Y003503D01*
X002522Y003377D01*
X002522Y003429D02*
X002160Y003429D01*
X002160Y003481D02*
X002522Y003481D01*
X002522Y003574D02*
X002160Y003574D01*
X002160Y003700D01*
X002522Y003700D01*
X002522Y003574D01*
X002522Y003626D02*
X002160Y003626D01*
X002160Y003678D02*
X002522Y003678D01*
X002554Y003731D02*
X002554Y004093D01*
X002680Y004093D01*
X002680Y003731D01*
X002554Y003731D01*
X002554Y003783D02*
X002680Y003783D01*
X002680Y003835D02*
X002554Y003835D01*
X002554Y003887D02*
X002680Y003887D01*
X002680Y003939D02*
X002554Y003939D01*
X002554Y003991D02*
X002680Y003991D01*
X002680Y004043D02*
X002554Y004043D01*
X002751Y004093D02*
X002751Y003731D01*
X002751Y004093D02*
X002877Y004093D01*
X002877Y003731D01*
X002751Y003731D01*
X002751Y003783D02*
X002877Y003783D01*
X002877Y003835D02*
X002751Y003835D01*
X002751Y003887D02*
X002877Y003887D01*
X002877Y003939D02*
X002751Y003939D01*
X002751Y003991D02*
X002877Y003991D01*
X002877Y004043D02*
X002751Y004043D01*
X002948Y004093D02*
X002948Y003731D01*
X002948Y004093D02*
X003074Y004093D01*
X003074Y003731D01*
X002948Y003731D01*
X002948Y003783D02*
X003074Y003783D01*
X003074Y003835D02*
X002948Y003835D01*
X002948Y003887D02*
X003074Y003887D01*
X003074Y003939D02*
X002948Y003939D01*
X002948Y003991D02*
X003074Y003991D01*
X003074Y004043D02*
X002948Y004043D01*
X003145Y004093D02*
X003145Y003731D01*
X003145Y004093D02*
X003271Y004093D01*
X003271Y003731D01*
X003145Y003731D01*
X003145Y003783D02*
X003271Y003783D01*
X003271Y003835D02*
X003145Y003835D01*
X003145Y003887D02*
X003271Y003887D01*
X003271Y003939D02*
X003145Y003939D01*
X003145Y003991D02*
X003271Y003991D01*
X003271Y004043D02*
X003145Y004043D01*
X003341Y004093D02*
X003341Y003731D01*
X003341Y004093D02*
X003467Y004093D01*
X003467Y003731D01*
X003341Y003731D01*
X003341Y003783D02*
X003467Y003783D01*
X003467Y003835D02*
X003341Y003835D01*
X003341Y003887D02*
X003467Y003887D01*
X003467Y003939D02*
X003341Y003939D01*
X003341Y003991D02*
X003467Y003991D01*
X003467Y004043D02*
X003341Y004043D01*
X003538Y004093D02*
X003538Y003731D01*
X003538Y004093D02*
X003664Y004093D01*
X003664Y003731D01*
X003538Y003731D01*
X003538Y003783D02*
X003664Y003783D01*
X003664Y003835D02*
X003538Y003835D01*
X003538Y003887D02*
X003664Y003887D01*
X003664Y003939D02*
X003538Y003939D01*
X003538Y003991D02*
X003664Y003991D01*
X003664Y004043D02*
X003538Y004043D01*
X003735Y004093D02*
X003735Y003731D01*
X003735Y004093D02*
X003861Y004093D01*
X003861Y003731D01*
X003735Y003731D01*
X003735Y003783D02*
X003861Y003783D01*
X003861Y003835D02*
X003735Y003835D01*
X003735Y003887D02*
X003861Y003887D01*
X003861Y003939D02*
X003735Y003939D01*
X003735Y003991D02*
X003861Y003991D01*
X003861Y004043D02*
X003735Y004043D01*
X003932Y004093D02*
X003932Y003731D01*
X003932Y004093D02*
X004058Y004093D01*
X004058Y003731D01*
X003932Y003731D01*
X003932Y003783D02*
X004058Y003783D01*
X004058Y003835D02*
X003932Y003835D01*
X003932Y003887D02*
X004058Y003887D01*
X004058Y003939D02*
X003932Y003939D01*
X003932Y003991D02*
X004058Y003991D01*
X004058Y004043D02*
X003932Y004043D01*
X004090Y003700D02*
X004452Y003700D01*
X004452Y003574D01*
X004090Y003574D01*
X004090Y003700D01*
X004090Y003626D02*
X004452Y003626D01*
X004452Y003678D02*
X004090Y003678D01*
X004090Y003503D02*
X004452Y003503D01*
X004452Y003377D01*
X004090Y003377D01*
X004090Y003503D01*
X004090Y003429D02*
X004452Y003429D01*
X004452Y003481D02*
X004090Y003481D01*
X004090Y003306D02*
X004452Y003306D01*
X004452Y003180D01*
X004090Y003180D01*
X004090Y003306D01*
X004090Y003232D02*
X004452Y003232D01*
X004452Y003284D02*
X004090Y003284D01*
X004090Y003109D02*
X004452Y003109D01*
X004452Y002983D01*
X004090Y002983D01*
X004090Y003109D01*
X004090Y003035D02*
X004452Y003035D01*
X004452Y003087D02*
X004090Y003087D01*
X004090Y002912D02*
X004452Y002912D01*
X004452Y002786D01*
X004090Y002786D01*
X004090Y002912D01*
X004090Y002838D02*
X004452Y002838D01*
X004452Y002890D02*
X004090Y002890D01*
X004090Y002715D02*
X004452Y002715D01*
X004452Y002589D01*
X004090Y002589D01*
X004090Y002715D01*
X004090Y002641D02*
X004452Y002641D01*
X004452Y002693D02*
X004090Y002693D01*
X004090Y002519D02*
X004452Y002519D01*
X004452Y002393D01*
X004090Y002393D01*
X004090Y002519D01*
X004090Y002445D02*
X004452Y002445D01*
X004452Y002497D02*
X004090Y002497D01*
X004090Y002322D02*
X004452Y002322D01*
X004452Y002196D01*
X004090Y002196D01*
X004090Y002322D01*
X004090Y002248D02*
X004452Y002248D01*
X004452Y002300D02*
X004090Y002300D01*
X004058Y002164D02*
X004058Y001802D01*
X003932Y001802D01*
X003932Y002164D01*
X004058Y002164D01*
X004058Y001854D02*
X003932Y001854D01*
X003932Y001906D02*
X004058Y001906D01*
X004058Y001958D02*
X003932Y001958D01*
X003932Y002010D02*
X004058Y002010D01*
X004058Y002062D02*
X003932Y002062D01*
X003932Y002114D02*
X004058Y002114D01*
X003861Y002164D02*
X003861Y001802D01*
X003735Y001802D01*
X003735Y002164D01*
X003861Y002164D01*
X003861Y001854D02*
X003735Y001854D01*
X003735Y001906D02*
X003861Y001906D01*
X003861Y001958D02*
X003735Y001958D01*
X003735Y002010D02*
X003861Y002010D01*
X003861Y002062D02*
X003735Y002062D01*
X003735Y002114D02*
X003861Y002114D01*
X003664Y002164D02*
X003664Y001802D01*
X003538Y001802D01*
X003538Y002164D01*
X003664Y002164D01*
X003664Y001854D02*
X003538Y001854D01*
X003538Y001906D02*
X003664Y001906D01*
X003664Y001958D02*
X003538Y001958D01*
X003538Y002010D02*
X003664Y002010D01*
X003664Y002062D02*
X003538Y002062D01*
X003538Y002114D02*
X003664Y002114D01*
X003467Y002164D02*
X003467Y001802D01*
X003341Y001802D01*
X003341Y002164D01*
X003467Y002164D01*
X003467Y001854D02*
X003341Y001854D01*
X003341Y001906D02*
X003467Y001906D01*
X003467Y001958D02*
X003341Y001958D01*
X003341Y002010D02*
X003467Y002010D01*
X003467Y002062D02*
X003341Y002062D01*
X003341Y002114D02*
X003467Y002114D01*
X003271Y002164D02*
X003271Y001802D01*
X003145Y001802D01*
X003145Y002164D01*
X003271Y002164D01*
X003271Y001854D02*
X003145Y001854D01*
X003145Y001906D02*
X003271Y001906D01*
X003271Y001958D02*
X003145Y001958D01*
X003145Y002010D02*
X003271Y002010D01*
X003271Y002062D02*
X003145Y002062D01*
X003145Y002114D02*
X003271Y002114D01*
X003074Y002164D02*
X003074Y001802D01*
X002948Y001802D01*
X002948Y002164D01*
X003074Y002164D01*
X003074Y001854D02*
X002948Y001854D01*
X002948Y001906D02*
X003074Y001906D01*
X003074Y001958D02*
X002948Y001958D01*
X002948Y002010D02*
X003074Y002010D01*
X003074Y002062D02*
X002948Y002062D01*
X002948Y002114D02*
X003074Y002114D01*
X002877Y002164D02*
X002877Y001802D01*
X002751Y001802D01*
X002751Y002164D01*
X002877Y002164D01*
X002877Y001854D02*
X002751Y001854D01*
X002751Y001906D02*
X002877Y001906D01*
X002877Y001958D02*
X002751Y001958D01*
X002751Y002010D02*
X002877Y002010D01*
X002877Y002062D02*
X002751Y002062D01*
X002751Y002114D02*
X002877Y002114D01*
X002680Y002164D02*
X002680Y001802D01*
X002554Y001802D01*
X002554Y002164D01*
X002680Y002164D01*
X002680Y001854D02*
X002554Y001854D01*
X002554Y001906D02*
X002680Y001906D01*
X002680Y001958D02*
X002554Y001958D01*
X002554Y002010D02*
X002680Y002010D01*
X002680Y002062D02*
X002554Y002062D01*
X002554Y002114D02*
X002680Y002114D01*
X002522Y002196D02*
X002160Y002196D01*
X002160Y002322D01*
X002522Y002322D01*
X002522Y002196D01*
X002522Y002248D02*
X002160Y002248D01*
X002160Y002300D02*
X002522Y002300D01*
X002522Y002393D02*
X002160Y002393D01*
X002160Y002519D01*
X002522Y002519D01*
X002522Y002393D01*
X002522Y002445D02*
X002160Y002445D01*
X002160Y002497D02*
X002522Y002497D01*
X002522Y002589D02*
X002160Y002589D01*
X002160Y002715D01*
X002522Y002715D01*
X002522Y002589D01*
X002522Y002641D02*
X002160Y002641D01*
X002160Y002693D02*
X002522Y002693D01*
X002522Y002786D02*
X002160Y002786D01*
X002160Y002912D01*
X002522Y002912D01*
X002522Y002786D01*
X002522Y002838D02*
X002160Y002838D01*
X002160Y002890D02*
X002522Y002890D01*
X002522Y002983D02*
X002160Y002983D01*
X002160Y003109D01*
X002522Y003109D01*
X002522Y002983D01*
X002522Y003035D02*
X002160Y003035D01*
X002160Y003087D02*
X002522Y003087D01*
X002522Y003180D02*
X002160Y003180D01*
X002160Y003306D01*
X002522Y003306D01*
X002522Y003180D01*
X002522Y003232D02*
X002160Y003232D01*
X002160Y003284D02*
X002522Y003284D01*
D13*
X001873Y004389D03*
X001873Y004900D03*
X006550Y004995D03*
X007145Y005082D03*
X007145Y004570D03*
X006550Y004483D03*
D14*
X006491Y005621D03*
X007042Y005613D03*
X007042Y006204D03*
X006491Y006211D03*
D15*
X007034Y003227D03*
X005932Y003227D03*
D16*
X005373Y004924D03*
X002932Y004924D03*
D17*
X003641Y004875D03*
X003897Y004875D03*
X004152Y004875D03*
X004408Y004875D03*
X004664Y004875D03*
D18*
X004625Y005928D03*
X003680Y005928D03*
D19*
X002617Y005928D03*
X005688Y005928D03*
D20*
X006105Y002511D03*
X006617Y002511D03*
X006617Y002034D03*
X006105Y002034D03*
D21*
X005243Y001554D03*
X004483Y001873D03*
X004995Y003034D03*
X005566Y003881D03*
X006097Y004263D03*
X006645Y003912D03*
X007137Y003963D03*
X004975Y004149D03*
X004341Y004003D03*
X002400Y004341D03*
X001621Y003782D03*
X001900Y003160D03*
X001845Y002511D03*
X001960Y005412D03*
M02*
