G75*
%MOIN*%
%OFA0B0*%
%FSLAX24Y24*%
%IPPOS*%
%LPD*%
%AMOC8*
5,1,8,0,0,1.08239X$1,22.5*
%
%ADD10C,0.0040*%
%ADD11C,0.0020*%
%ADD12R,0.0042X0.0007*%
%ADD13R,0.0035X0.0007*%
%ADD14R,0.0028X0.0007*%
%ADD15R,0.0099X0.0007*%
%ADD16R,0.0106X0.0007*%
%ADD17R,0.0092X0.0007*%
%ADD18R,0.0120X0.0007*%
%ADD19R,0.0113X0.0007*%
%ADD20R,0.0085X0.0007*%
%ADD21R,0.0333X0.0007*%
%ADD22R,0.0099X0.0007*%
%ADD23R,0.0106X0.0007*%
%ADD24R,0.0092X0.0007*%
%ADD25R,0.0163X0.0007*%
%ADD26R,0.0149X0.0007*%
%ADD27R,0.0092X0.0007*%
%ADD28R,0.0127X0.0007*%
%ADD29R,0.0333X0.0007*%
%ADD30R,0.0099X0.0007*%
%ADD31R,0.0106X0.0007*%
%ADD32R,0.0092X0.0007*%
%ADD33R,0.0113X0.0007*%
%ADD34R,0.0191X0.0007*%
%ADD35R,0.0177X0.0007*%
%ADD36R,0.0092X0.0007*%
%ADD37R,0.0149X0.0007*%
%ADD38R,0.0333X0.0007*%
%ADD39R,0.0120X0.0007*%
%ADD40R,0.0212X0.0007*%
%ADD41R,0.0191X0.0007*%
%ADD42R,0.0092X0.0007*%
%ADD43R,0.0177X0.0007*%
%ADD44R,0.0120X0.0007*%
%ADD45R,0.0234X0.0007*%
%ADD46R,0.0205X0.0007*%
%ADD47R,0.0099X0.0007*%
%ADD48R,0.0120X0.0007*%
%ADD49R,0.0092X0.0007*%
%ADD50R,0.0113X0.0007*%
%ADD51R,0.0120X0.0007*%
%ADD52R,0.0255X0.0007*%
%ADD53R,0.0220X0.0007*%
%ADD54R,0.0092X0.0007*%
%ADD55R,0.0106X0.0007*%
%ADD56R,0.0198X0.0007*%
%ADD57R,0.0333X0.0007*%
%ADD58R,0.0135X0.0007*%
%ADD59R,0.0127X0.0007*%
%ADD60R,0.0269X0.0007*%
%ADD61R,0.0326X0.0007*%
%ADD62R,0.0212X0.0007*%
%ADD63R,0.0135X0.0007*%
%ADD64R,0.0127X0.0007*%
%ADD65R,0.0127X0.0007*%
%ADD66R,0.0283X0.0007*%
%ADD67R,0.0333X0.0007*%
%ADD68R,0.0227X0.0007*%
%ADD69R,0.0135X0.0007*%
%ADD70R,0.0127X0.0007*%
%ADD71R,0.0290X0.0007*%
%ADD72R,0.0333X0.0007*%
%ADD73R,0.0135X0.0007*%
%ADD74R,0.0297X0.0007*%
%ADD75R,0.0340X0.0007*%
%ADD76R,0.0149X0.0007*%
%ADD77R,0.0135X0.0007*%
%ADD78R,0.0142X0.0007*%
%ADD79R,0.0312X0.0007*%
%ADD80R,0.0156X0.0007*%
%ADD81R,0.0340X0.0007*%
%ADD82R,0.0142X0.0007*%
%ADD83R,0.0120X0.0007*%
%ADD84R,0.0142X0.0007*%
%ADD85R,0.0326X0.0007*%
%ADD86R,0.0149X0.0007*%
%ADD87R,0.0142X0.0007*%
%ADD88R,0.0106X0.0007*%
%ADD89R,0.0127X0.0007*%
%ADD90R,0.0135X0.0007*%
%ADD91R,0.0113X0.0007*%
%ADD92R,0.0163X0.0007*%
%ADD93R,0.0163X0.0007*%
%ADD94R,0.0156X0.0007*%
%ADD95R,0.0113X0.0007*%
%ADD96R,0.0120X0.0007*%
%ADD97R,0.0163X0.0007*%
%ADD98R,0.0163X0.0007*%
%ADD99R,0.0085X0.0007*%
%ADD100R,0.0170X0.0007*%
%ADD101R,0.0177X0.0007*%
%ADD102R,0.0085X0.0007*%
%ADD103R,0.0078X0.0007*%
%ADD104R,0.0177X0.0007*%
%ADD105R,0.0106X0.0007*%
%ADD106R,0.0113X0.0007*%
%ADD107R,0.0085X0.0007*%
%ADD108R,0.0177X0.0007*%
%ADD109R,0.0085X0.0007*%
%ADD110R,0.0177X0.0007*%
%ADD111R,0.0177X0.0007*%
%ADD112R,0.0099X0.0007*%
%ADD113R,0.0184X0.0007*%
%ADD114R,0.0099X0.0007*%
%ADD115R,0.0368X0.0007*%
%ADD116R,0.0191X0.0007*%
%ADD117R,0.0368X0.0007*%
%ADD118R,0.0163X0.0007*%
%ADD119R,0.0184X0.0007*%
%ADD120R,0.0368X0.0007*%
%ADD121R,0.0290X0.0007*%
%ADD122R,0.0113X0.0007*%
%ADD123R,0.0085X0.0007*%
%ADD124R,0.0368X0.0007*%
%ADD125R,0.0276X0.0007*%
%ADD126R,0.0361X0.0007*%
%ADD127R,0.0255X0.0007*%
%ADD128R,0.0085X0.0007*%
%ADD129R,0.0361X0.0007*%
%ADD130R,0.0220X0.0007*%
%ADD131R,0.0361X0.0007*%
%ADD132R,0.0099X0.0007*%
%ADD133R,0.0106X0.0007*%
%ADD134R,0.0106X0.0007*%
%ADD135R,0.0120X0.0007*%
%ADD136R,0.0219X0.0007*%
%ADD137R,0.0142X0.0007*%
%ADD138R,0.0219X0.0007*%
%ADD139R,0.0312X0.0007*%
%ADD140R,0.0219X0.0007*%
%ADD141R,0.0347X0.0007*%
%ADD142R,0.0312X0.0007*%
%ADD143R,0.0304X0.0007*%
%ADD144R,0.0340X0.0007*%
%ADD145R,0.0312X0.0007*%
%ADD146R,0.0234X0.0007*%
%ADD147R,0.0297X0.0007*%
%ADD148R,0.0219X0.0007*%
%ADD149R,0.0312X0.0007*%
%ADD150R,0.0227X0.0007*%
%ADD151R,0.0283X0.0007*%
%ADD152R,0.0290X0.0007*%
%ADD153R,0.0269X0.0007*%
%ADD154R,0.0205X0.0007*%
%ADD155R,0.0184X0.0007*%
%ADD156R,0.0255X0.0007*%
%ADD157R,0.0198X0.0007*%
%ADD158R,0.0191X0.0007*%
%ADD159R,0.0184X0.0007*%
%ADD160R,0.0241X0.0007*%
%ADD161R,0.0255X0.0007*%
%ADD162R,0.0191X0.0007*%
%ADD163R,0.0198X0.0007*%
%ADD164R,0.0184X0.0007*%
%ADD165R,0.0234X0.0007*%
%ADD166R,0.0212X0.0007*%
%ADD167R,0.0184X0.0007*%
%ADD168R,0.0170X0.0007*%
%ADD169R,0.0170X0.0007*%
%ADD170R,0.0156X0.0007*%
%ADD171R,0.0035X0.0007*%
%ADD172R,0.0170X0.0007*%
%ADD173R,0.0042X0.0007*%
%ADD174R,0.0064X0.0007*%
%ADD175R,0.0028X0.0007*%
%ADD176R,0.0035X0.0007*%
%ADD177R,0.0156X0.0007*%
%ADD178R,0.0177X0.0007*%
%ADD179R,0.0170X0.0007*%
%ADD180R,0.0028X0.0007*%
%ADD181R,0.0028X0.0007*%
%ADD182R,0.0057X0.0007*%
%ADD183R,0.0057X0.0007*%
%ADD184R,0.0042X0.0007*%
%ADD185R,0.0043X0.0007*%
%ADD186R,0.0050X0.0007*%
%ADD187R,0.0050X0.0007*%
%ADD188R,0.0043X0.0007*%
%ADD189R,0.0043X0.0007*%
%ADD190R,0.0035X0.0007*%
%ADD191R,0.0035X0.0007*%
%ADD192R,0.0078X0.0007*%
%ADD193R,0.0064X0.0007*%
%ADD194C,0.0080*%
%ADD195C,0.0010*%
D10*
X001444Y000550D02*
X001444Y000684D01*
X001444Y000771D02*
X001644Y000771D01*
X001644Y000871D01*
X001611Y000905D01*
X001544Y000905D01*
X001511Y000871D01*
X001511Y000771D01*
X001444Y000550D02*
X001644Y000550D01*
X001644Y000992D02*
X001444Y000992D01*
X001511Y001059D01*
X001444Y001126D01*
X001644Y001126D01*
X001770Y001539D02*
X001836Y001605D01*
X001803Y001605D02*
X001903Y001605D01*
X001903Y001539D02*
X001903Y001739D01*
X001803Y001739D01*
X001770Y001705D01*
X001770Y001639D01*
X001803Y001605D01*
X001636Y001631D02*
X001603Y001598D01*
X001570Y001598D01*
X001536Y001631D01*
X001536Y001698D01*
X001503Y001731D01*
X001470Y001731D01*
X001436Y001698D01*
X001436Y001631D01*
X001470Y001598D01*
X001636Y001631D02*
X001636Y001698D01*
X001603Y001731D01*
X001603Y001819D02*
X001470Y001819D01*
X001436Y001852D01*
X001436Y001919D01*
X001470Y001952D01*
X001436Y002040D02*
X001436Y002173D01*
X001436Y002040D02*
X001636Y002040D01*
X001603Y001952D02*
X001636Y001919D01*
X001636Y001852D01*
X001603Y001819D01*
X001991Y001739D02*
X002124Y001739D01*
X002057Y001739D02*
X002057Y001539D01*
X002212Y001572D02*
X002212Y001705D01*
X002245Y001739D01*
X002345Y001739D01*
X002345Y001539D01*
X002245Y001539D01*
X002212Y001572D01*
X002790Y001539D02*
X002923Y001739D01*
X003011Y001739D02*
X003144Y001739D01*
X003078Y001739D02*
X003078Y001539D01*
X002923Y001539D02*
X002790Y001739D01*
X003754Y001739D02*
X003888Y001539D01*
X003975Y001539D02*
X004042Y001605D01*
X004009Y001605D02*
X004109Y001605D01*
X004109Y001539D02*
X004109Y001739D01*
X004009Y001739D01*
X003975Y001705D01*
X003975Y001639D01*
X004009Y001605D01*
X003888Y001739D02*
X003754Y001539D01*
X004498Y001521D02*
X004531Y001487D01*
X004598Y001487D01*
X004631Y001521D01*
X004631Y001654D01*
X004598Y001688D01*
X004531Y001688D01*
X004498Y001654D01*
X004719Y001654D02*
X004752Y001688D01*
X004819Y001688D01*
X004852Y001654D01*
X004852Y001521D01*
X004819Y001487D01*
X004752Y001487D01*
X004719Y001521D01*
X004940Y001554D02*
X004940Y001688D01*
X005073Y001688D02*
X005073Y001554D01*
X005007Y001487D01*
X004940Y001554D01*
X005746Y001568D02*
X005746Y001701D01*
X005779Y001735D01*
X005879Y001735D01*
X005879Y001535D01*
X005779Y001535D01*
X005746Y001568D01*
X005967Y001535D02*
X005967Y001735D01*
X006100Y001735D02*
X005967Y001535D01*
X006100Y001535D02*
X006100Y001735D01*
X006188Y001701D02*
X006221Y001735D01*
X006288Y001735D01*
X006321Y001701D01*
X006321Y001568D01*
X006288Y001535D01*
X006221Y001535D01*
X006188Y001568D01*
X006188Y001635D01*
X006255Y001635D01*
X006829Y001635D02*
X006862Y001668D01*
X006929Y001668D01*
X006962Y001635D01*
X006962Y001601D01*
X006929Y001568D01*
X006862Y001568D01*
X006829Y001534D01*
X006829Y001501D01*
X006862Y001468D01*
X006929Y001468D01*
X006962Y001501D01*
X007116Y001468D02*
X007116Y001668D01*
X007050Y001668D02*
X007183Y001668D01*
X007204Y001690D02*
X007237Y001657D01*
X007271Y001635D02*
X007304Y001668D01*
X007371Y001668D01*
X007404Y001635D01*
X007404Y001501D01*
X007371Y001468D01*
X007304Y001468D01*
X007271Y001501D01*
X007337Y001657D02*
X007304Y001690D01*
X007304Y001757D01*
X007271Y001790D01*
X007237Y001790D01*
X007204Y001757D01*
X007204Y001690D01*
X007337Y001657D02*
X007371Y001657D01*
X007404Y001690D01*
X007404Y001757D01*
X007371Y001790D01*
X007371Y001878D02*
X007237Y001878D01*
X007204Y001911D01*
X007204Y001978D01*
X007237Y002011D01*
X007204Y002099D02*
X007204Y002232D01*
X007204Y002099D02*
X007404Y002099D01*
X007371Y002011D02*
X007404Y001978D01*
X007404Y001911D01*
X007371Y001878D01*
X007404Y001169D02*
X007204Y001169D01*
X007271Y001102D01*
X007204Y001036D01*
X007404Y001036D01*
X007371Y000948D02*
X007304Y000948D01*
X007271Y000915D01*
X007271Y000815D01*
X007204Y000815D02*
X007404Y000815D01*
X007404Y000915D01*
X007371Y000948D01*
X007204Y000727D02*
X007204Y000594D01*
X007404Y000594D01*
X007410Y002602D02*
X007377Y002602D01*
X007343Y002635D01*
X007343Y002702D01*
X007310Y002735D01*
X007277Y002735D01*
X007243Y002702D01*
X007243Y002635D01*
X007277Y002602D01*
X007410Y002602D02*
X007443Y002635D01*
X007443Y002702D01*
X007410Y002735D01*
X007443Y002823D02*
X007243Y002823D01*
X007243Y002923D01*
X007277Y002956D01*
X007410Y002956D01*
X007443Y002923D01*
X007443Y002823D01*
X007377Y003044D02*
X007243Y003044D01*
X007343Y003044D02*
X007343Y003177D01*
X007377Y003177D02*
X007243Y003177D01*
X007377Y003177D02*
X007443Y003110D01*
X007377Y003044D01*
X007371Y003586D02*
X007237Y003586D01*
X007204Y003619D01*
X007204Y003686D01*
X007237Y003719D01*
X007304Y003719D01*
X007304Y003653D01*
X007371Y003719D02*
X007404Y003686D01*
X007404Y003619D01*
X007371Y003586D01*
X007404Y003807D02*
X007204Y003807D01*
X007204Y003940D02*
X007404Y003940D01*
X007404Y004028D02*
X007404Y004128D01*
X007371Y004161D01*
X007237Y004161D01*
X007204Y004128D01*
X007204Y004028D01*
X007404Y004028D01*
X007204Y003940D02*
X007404Y003807D01*
X007443Y004570D02*
X007310Y004570D01*
X007243Y004637D01*
X007310Y004704D01*
X007443Y004704D01*
X007410Y004791D02*
X007277Y004791D01*
X007243Y004824D01*
X007243Y004891D01*
X007277Y004925D01*
X007277Y005012D02*
X007243Y005045D01*
X007243Y005112D01*
X007277Y005146D01*
X007410Y005146D02*
X007443Y005112D01*
X007443Y005045D01*
X007410Y005012D01*
X007277Y005012D01*
X007410Y004925D02*
X007443Y004891D01*
X007443Y004824D01*
X007410Y004791D01*
X007380Y005720D02*
X007180Y005720D01*
X007180Y005820D01*
X007214Y005853D01*
X007247Y005853D01*
X007280Y005820D01*
X007280Y005720D01*
X007280Y005820D02*
X007314Y005853D01*
X007347Y005853D01*
X007380Y005820D01*
X007380Y005720D01*
X007314Y005941D02*
X007180Y005941D01*
X007280Y005941D02*
X007280Y006074D01*
X007314Y006074D02*
X007180Y006074D01*
X007314Y006074D02*
X007380Y006007D01*
X007314Y005941D01*
X007380Y006162D02*
X007380Y006295D01*
X007380Y006228D02*
X007180Y006228D01*
X005724Y005422D02*
X005724Y005222D01*
X005590Y005222D01*
X005503Y005222D02*
X005369Y005222D01*
X005282Y005322D02*
X005148Y005322D01*
X005061Y005222D02*
X004994Y005222D01*
X005027Y005222D02*
X005027Y005422D01*
X004994Y005422D02*
X005061Y005422D01*
X004914Y005389D02*
X004880Y005422D01*
X004813Y005422D01*
X004780Y005389D01*
X004780Y005355D01*
X004914Y005222D01*
X004780Y005222D01*
X004693Y005255D02*
X004659Y005222D01*
X004592Y005222D01*
X004559Y005255D01*
X004693Y005255D02*
X004693Y005389D01*
X004659Y005422D01*
X004592Y005422D01*
X004559Y005389D01*
X004251Y005422D02*
X004251Y005222D01*
X004251Y005322D02*
X004184Y005322D01*
X004251Y005422D02*
X004117Y005422D01*
X004030Y005422D02*
X003896Y005422D01*
X003963Y005422D02*
X003963Y005222D01*
X003809Y005222D02*
X003708Y005222D01*
X003675Y005255D01*
X003675Y005389D01*
X003708Y005422D01*
X003809Y005422D01*
X003809Y005222D01*
X003588Y005222D02*
X003521Y005222D01*
X003554Y005222D02*
X003554Y005422D01*
X003521Y005422D02*
X003588Y005422D01*
X003219Y005422D02*
X003219Y005288D01*
X003153Y005222D01*
X003086Y005288D01*
X003086Y005422D01*
X002998Y005355D02*
X002932Y005422D01*
X002932Y005222D01*
X002998Y005222D02*
X002865Y005222D01*
X001664Y005519D02*
X001664Y005619D01*
X001631Y005653D01*
X001597Y005653D01*
X001564Y005619D01*
X001564Y005519D01*
X001464Y005519D02*
X001464Y005619D01*
X001497Y005653D01*
X001531Y005653D01*
X001564Y005619D01*
X001464Y005519D02*
X001664Y005519D01*
X001597Y005740D02*
X001464Y005740D01*
X001564Y005740D02*
X001564Y005874D01*
X001597Y005874D02*
X001464Y005874D01*
X001597Y005874D02*
X001664Y005807D01*
X001597Y005740D01*
X001664Y005961D02*
X001664Y006095D01*
X001664Y006028D02*
X001464Y006028D01*
X001474Y005148D02*
X001440Y005115D01*
X001440Y005048D01*
X001474Y005014D01*
X001607Y005014D01*
X001640Y005048D01*
X001640Y005115D01*
X001607Y005148D01*
X001607Y004927D02*
X001640Y004894D01*
X001640Y004827D01*
X001607Y004793D01*
X001474Y004793D01*
X001440Y004827D01*
X001440Y004894D01*
X001474Y004927D01*
X001507Y004706D02*
X001440Y004639D01*
X001507Y004572D01*
X001640Y004572D01*
X001640Y004706D02*
X001507Y004706D01*
X001477Y004079D02*
X001611Y004079D01*
X001644Y004045D01*
X001644Y003945D01*
X001444Y003945D01*
X001444Y004045D01*
X001477Y004079D01*
X001444Y003858D02*
X001644Y003858D01*
X001644Y003724D02*
X001444Y003724D01*
X001477Y003637D02*
X001544Y003637D01*
X001544Y003570D01*
X001477Y003637D02*
X001444Y003603D01*
X001444Y003537D01*
X001477Y003503D01*
X001611Y003503D01*
X001644Y003537D01*
X001644Y003603D01*
X001611Y003637D01*
X001644Y003724D02*
X001444Y003858D01*
X001444Y003134D02*
X001578Y003134D01*
X001644Y003067D01*
X001578Y003000D01*
X001444Y003000D01*
X001544Y003000D02*
X001544Y003134D01*
X001477Y002913D02*
X001444Y002879D01*
X001444Y002779D01*
X001644Y002779D01*
X001644Y002879D01*
X001611Y002913D01*
X001477Y002913D01*
X001477Y002692D02*
X001444Y002658D01*
X001444Y002592D01*
X001477Y002558D01*
X001544Y002592D02*
X001544Y002658D01*
X001511Y002692D01*
X001477Y002692D01*
X001544Y002592D02*
X001578Y002558D01*
X001611Y002558D01*
X001644Y002592D01*
X001644Y002658D01*
X001611Y002692D01*
X005369Y005389D02*
X005369Y005422D01*
X005503Y005422D01*
X005590Y005422D02*
X005724Y005422D01*
X005724Y005322D02*
X005657Y005322D01*
X005503Y005255D02*
X005503Y005222D01*
X005503Y005255D02*
X005369Y005389D01*
D11*
X005339Y003446D02*
X005303Y003409D01*
X005303Y003372D01*
X005339Y003336D01*
X005303Y003299D01*
X005303Y003262D01*
X005339Y003225D01*
X005413Y003225D01*
X005450Y003262D01*
X005376Y003336D02*
X005339Y003336D01*
X005450Y003409D02*
X005413Y003446D01*
X005339Y003446D01*
X005118Y003409D02*
X005081Y003446D01*
X005008Y003446D01*
X004971Y003409D01*
X004971Y003372D01*
X005008Y003336D01*
X004971Y003299D01*
X004971Y003262D01*
X005008Y003225D01*
X005081Y003225D01*
X005118Y003262D01*
X005192Y003262D02*
X005192Y003225D01*
X005229Y003225D01*
X005229Y003262D01*
X005192Y003262D01*
X005045Y003336D02*
X005008Y003336D01*
X004897Y003372D02*
X004824Y003225D01*
X004750Y003372D01*
X006444Y003313D02*
X006517Y003166D01*
X006591Y003313D01*
X006665Y003276D02*
X006665Y003203D01*
X006702Y003166D01*
X006775Y003166D01*
X006812Y003203D01*
X006812Y003276D02*
X006738Y003313D01*
X006702Y003313D01*
X006665Y003276D01*
X006812Y003276D02*
X006812Y003387D01*
X006665Y003387D01*
D12*
X004110Y005546D03*
X005647Y006198D03*
X005661Y006240D03*
X005732Y006198D03*
X005732Y006190D03*
X005782Y006198D03*
X005796Y006240D03*
X005866Y006198D03*
X005866Y006190D03*
X005916Y006198D03*
X005930Y006240D03*
X005959Y006141D03*
X006093Y006141D03*
X006136Y006190D03*
X006136Y006198D03*
X006065Y006240D03*
X005824Y006141D03*
X005689Y006141D03*
D13*
X006097Y006290D03*
X003781Y005546D03*
D14*
X003310Y005950D03*
X002985Y005546D03*
D15*
X002985Y005553D03*
X002871Y005702D03*
X002871Y005716D03*
X002871Y005751D03*
X002871Y005766D03*
X002878Y005815D03*
X002730Y005815D03*
X002730Y005801D03*
X002730Y005766D03*
X002730Y005751D03*
X002730Y005716D03*
X002730Y005702D03*
X002730Y005666D03*
X002730Y005652D03*
X002730Y005624D03*
X002730Y005603D03*
X002730Y005574D03*
X002730Y005553D03*
X002730Y005843D03*
X002730Y005865D03*
X002730Y005893D03*
X002730Y005914D03*
X002730Y005992D03*
X002730Y006021D03*
X002730Y006042D03*
X002730Y006070D03*
X003140Y005801D03*
X003466Y005766D03*
X003466Y005751D03*
X003466Y005716D03*
X003466Y005702D03*
X003466Y005666D03*
X003466Y005652D03*
X003466Y005624D03*
X003466Y005603D03*
X003466Y005574D03*
X003466Y005553D03*
X003615Y005702D03*
X003615Y005716D03*
X003615Y005815D03*
X003615Y005843D03*
X003841Y005843D03*
X003990Y005801D03*
X004004Y005843D03*
X003990Y005666D03*
X003997Y005652D03*
X003848Y005702D03*
X004238Y005666D03*
X004245Y005801D03*
X004245Y005815D03*
X004372Y005843D03*
X004379Y005815D03*
X004387Y005801D03*
X004394Y005766D03*
X004401Y005751D03*
X004521Y005801D03*
X004535Y005865D03*
X004783Y005751D03*
X004726Y005553D03*
X004457Y005553D03*
X005151Y005553D03*
X005151Y005574D03*
X005151Y005603D03*
X005151Y005624D03*
X005151Y005652D03*
X005151Y005666D03*
X005151Y005702D03*
X005151Y005716D03*
X005151Y005751D03*
X005151Y005766D03*
X005151Y005801D03*
X005151Y005815D03*
X005399Y005815D03*
X005399Y005801D03*
X005548Y005801D03*
X005548Y005815D03*
X005548Y005843D03*
X005548Y005865D03*
X005548Y005893D03*
X005548Y005914D03*
X005548Y005992D03*
X005548Y006021D03*
X005548Y006042D03*
X005548Y006070D03*
X005697Y005893D03*
X005697Y005865D03*
X005697Y005843D03*
X005697Y005815D03*
X005697Y005801D03*
X005697Y005766D03*
X005697Y005751D03*
X005697Y005716D03*
X005697Y005702D03*
X005697Y005666D03*
X005697Y005652D03*
X005697Y005624D03*
X005697Y005603D03*
X005697Y005574D03*
X005697Y005553D03*
X005548Y005553D03*
X005548Y005574D03*
X005548Y005603D03*
X005548Y005624D03*
X005548Y005652D03*
X005548Y005666D03*
X005548Y005702D03*
X005548Y005716D03*
X005548Y005751D03*
X005548Y005766D03*
X006100Y005766D03*
X006100Y005751D03*
X006100Y005716D03*
X006100Y005702D03*
X006100Y005666D03*
X006100Y005652D03*
X006100Y005624D03*
X006100Y005603D03*
X006100Y005574D03*
X006100Y005553D03*
X006100Y005801D03*
X006100Y005815D03*
X006100Y005843D03*
X006100Y005865D03*
X006100Y005893D03*
D16*
X005898Y005553D03*
X005162Y005843D03*
X004829Y005914D03*
X004822Y005893D03*
X004815Y005865D03*
X004808Y005843D03*
X004801Y005815D03*
X004787Y005766D03*
X004836Y005943D03*
X004369Y005865D03*
X004362Y005893D03*
X004355Y005914D03*
X004234Y005843D03*
X004234Y005652D03*
X004333Y005992D03*
X004326Y006021D03*
X004319Y006042D03*
X004312Y006070D03*
X003618Y005801D03*
X003618Y005666D03*
X003349Y005914D03*
X003137Y005815D03*
X003137Y005666D03*
X003285Y005652D03*
X003285Y005624D03*
X003285Y005603D03*
X003285Y005574D03*
X003285Y005553D03*
X002882Y005666D03*
D17*
X003144Y005702D03*
X003144Y005716D03*
X003144Y005751D03*
X003144Y005766D03*
X003144Y005893D03*
X003144Y005914D03*
X003144Y005943D03*
X003144Y005992D03*
X003144Y006021D03*
X003144Y006042D03*
X003144Y006070D03*
X003470Y005914D03*
X003470Y005893D03*
X003852Y005815D03*
X003994Y005815D03*
X004249Y005702D03*
X004510Y005751D03*
X004510Y005766D03*
X004525Y005815D03*
X004532Y005843D03*
X004652Y005843D03*
X004659Y005815D03*
X004673Y005751D03*
X005006Y005751D03*
X005006Y005766D03*
X005006Y005801D03*
X005006Y005815D03*
X005006Y005843D03*
X005006Y005865D03*
X005006Y005893D03*
X005006Y005914D03*
X005006Y005992D03*
X005006Y006021D03*
X005006Y006042D03*
X005006Y006070D03*
X005403Y005914D03*
X005403Y005893D03*
X005403Y005766D03*
X005403Y005751D03*
X005403Y005716D03*
X005403Y005702D03*
X005403Y005666D03*
X005403Y005652D03*
X005403Y005624D03*
X005403Y005603D03*
X005403Y005574D03*
X005403Y005553D03*
X005006Y005553D03*
X005006Y005574D03*
X005006Y005603D03*
X005006Y005624D03*
X005006Y005652D03*
X005006Y005666D03*
X005006Y005702D03*
X005006Y005716D03*
X005693Y006169D03*
X005962Y006169D03*
X006097Y006169D03*
X005997Y005893D03*
X005990Y005865D03*
X005983Y005843D03*
X005962Y005766D03*
X005962Y005751D03*
X005948Y005702D03*
X005835Y005751D03*
X005806Y005865D03*
X005799Y005893D03*
X003144Y005603D03*
X003144Y005574D03*
X003144Y005553D03*
D18*
X003130Y005652D03*
X003130Y005843D03*
X003356Y005893D03*
X004114Y005943D03*
X004213Y005865D03*
X004114Y005553D03*
X002429Y005801D03*
D19*
X002461Y005766D03*
X002517Y005702D03*
X002560Y005652D03*
X002892Y005652D03*
X002892Y005843D03*
X003622Y005652D03*
X003785Y005553D03*
X003848Y005624D03*
X003834Y005716D03*
X003827Y005865D03*
X004457Y005574D03*
X004726Y005574D03*
X004854Y006021D03*
X004861Y006042D03*
X004868Y006070D03*
X005392Y005843D03*
D20*
X005824Y005801D03*
X005831Y005766D03*
X005973Y005801D03*
X003608Y005553D03*
D21*
X002478Y005553D03*
X002478Y005574D03*
X002478Y005603D03*
X002478Y005624D03*
D22*
X002730Y005610D03*
X002730Y005659D03*
X002730Y005709D03*
X002730Y005759D03*
X002730Y005808D03*
X002730Y005858D03*
X002730Y005907D03*
X002730Y006028D03*
X002730Y006077D03*
X002878Y005808D03*
X002871Y005759D03*
X002871Y005709D03*
X002730Y005560D03*
X003140Y005808D03*
X003466Y005759D03*
X003466Y005709D03*
X003466Y005659D03*
X003466Y005610D03*
X003466Y005560D03*
X003615Y005709D03*
X003615Y005808D03*
X003834Y005858D03*
X003990Y005808D03*
X003997Y005659D03*
X004238Y005659D03*
X004245Y005808D03*
X004372Y005858D03*
X004358Y005907D03*
X004387Y005808D03*
X004457Y005560D03*
X004726Y005560D03*
X004783Y005759D03*
X004797Y005808D03*
X004811Y005858D03*
X005151Y005808D03*
X005151Y005759D03*
X005151Y005709D03*
X005151Y005659D03*
X005151Y005610D03*
X005151Y005560D03*
X005399Y005808D03*
X005548Y005808D03*
X005548Y005759D03*
X005548Y005709D03*
X005548Y005659D03*
X005548Y005610D03*
X005548Y005560D03*
X005697Y005560D03*
X005697Y005610D03*
X005697Y005659D03*
X005697Y005709D03*
X005697Y005759D03*
X005697Y005808D03*
X005697Y005858D03*
X005548Y005858D03*
X005548Y005907D03*
X005548Y006028D03*
X005548Y006077D03*
X006100Y005858D03*
X006100Y005808D03*
X006100Y005759D03*
X006100Y005709D03*
X006100Y005659D03*
X006100Y005610D03*
X006100Y005560D03*
D23*
X005898Y005560D03*
X004822Y005907D03*
X004857Y006028D03*
X004326Y006028D03*
X004015Y005858D03*
X003845Y005709D03*
X003618Y005659D03*
X003625Y005858D03*
X003285Y005610D03*
X003285Y005560D03*
X002889Y005659D03*
D24*
X003144Y005709D03*
X003144Y005759D03*
X003144Y005907D03*
X003144Y006028D03*
X003144Y006077D03*
X003470Y005907D03*
X003144Y005560D03*
X004510Y005759D03*
X004525Y005808D03*
X004532Y005858D03*
X004659Y005808D03*
X005006Y005808D03*
X005006Y005759D03*
X005006Y005709D03*
X005006Y005659D03*
X005006Y005610D03*
X005006Y005560D03*
X005403Y005560D03*
X005403Y005610D03*
X005403Y005659D03*
X005403Y005709D03*
X005403Y005759D03*
X005403Y005907D03*
X005006Y005907D03*
X005006Y005858D03*
X005006Y006028D03*
X005006Y006077D03*
X005806Y005858D03*
X005820Y005808D03*
X005948Y005709D03*
X005962Y005759D03*
X005990Y005858D03*
D25*
X005728Y006028D03*
X004114Y005560D03*
D26*
X003781Y005560D03*
D27*
X003611Y005560D03*
X003859Y005659D03*
X004397Y005759D03*
X005976Y005808D03*
D28*
X004592Y006028D03*
X004457Y005610D03*
X002985Y005560D03*
D29*
X003023Y005610D03*
X002478Y005610D03*
X002478Y005560D03*
D30*
X002730Y005567D03*
X002730Y005581D03*
X002730Y005596D03*
X002730Y005617D03*
X002730Y005631D03*
X002730Y005645D03*
X002730Y005674D03*
X002730Y005681D03*
X002730Y005695D03*
X002730Y005723D03*
X002730Y005737D03*
X002730Y005744D03*
X002730Y005773D03*
X002730Y005787D03*
X002730Y005794D03*
X002730Y005822D03*
X002730Y005836D03*
X002730Y005851D03*
X002730Y005872D03*
X002730Y005886D03*
X002730Y005900D03*
X002730Y005921D03*
X002730Y005936D03*
X002730Y005985D03*
X002730Y005999D03*
X002730Y006013D03*
X002730Y006035D03*
X002730Y006049D03*
X002730Y006063D03*
X002871Y005794D03*
X002871Y005787D03*
X002871Y005773D03*
X002871Y005744D03*
X002871Y005737D03*
X002871Y005723D03*
X002878Y005681D03*
X003140Y005681D03*
X003140Y005695D03*
X003140Y005794D03*
X003346Y005921D03*
X003466Y005794D03*
X003466Y005787D03*
X003466Y005773D03*
X003466Y005744D03*
X003466Y005737D03*
X003466Y005723D03*
X003466Y005695D03*
X003466Y005681D03*
X003466Y005674D03*
X003466Y005645D03*
X003466Y005631D03*
X003466Y005617D03*
X003466Y005596D03*
X003466Y005581D03*
X003466Y005567D03*
X003615Y005674D03*
X003615Y005681D03*
X003615Y005695D03*
X003615Y005723D03*
X003615Y005822D03*
X003615Y005836D03*
X003622Y005851D03*
X003841Y005851D03*
X003990Y005794D03*
X003856Y005681D03*
X003856Y005645D03*
X004245Y005674D03*
X004245Y005681D03*
X004245Y005822D03*
X004365Y005872D03*
X004365Y005886D03*
X004358Y005900D03*
X004351Y005936D03*
X004344Y005964D03*
X004337Y005985D03*
X004330Y006013D03*
X004323Y006035D03*
X004316Y006063D03*
X004372Y005851D03*
X004379Y005836D03*
X004379Y005822D03*
X004387Y005794D03*
X004394Y005773D03*
X004401Y005744D03*
X004507Y005744D03*
X004514Y005773D03*
X004776Y005737D03*
X004790Y005787D03*
X004804Y005836D03*
X004819Y005886D03*
X005151Y005794D03*
X005151Y005787D03*
X005151Y005773D03*
X005151Y005744D03*
X005151Y005737D03*
X005151Y005723D03*
X005151Y005695D03*
X005151Y005681D03*
X005151Y005674D03*
X005151Y005645D03*
X005151Y005631D03*
X005151Y005617D03*
X005151Y005596D03*
X005151Y005581D03*
X005151Y005567D03*
X005399Y005794D03*
X005548Y005794D03*
X005548Y005787D03*
X005548Y005773D03*
X005548Y005744D03*
X005548Y005737D03*
X005548Y005723D03*
X005548Y005695D03*
X005548Y005681D03*
X005548Y005674D03*
X005548Y005645D03*
X005548Y005631D03*
X005548Y005617D03*
X005548Y005596D03*
X005548Y005581D03*
X005548Y005567D03*
X005697Y005567D03*
X005697Y005581D03*
X005697Y005596D03*
X005697Y005617D03*
X005697Y005631D03*
X005697Y005645D03*
X005697Y005674D03*
X005697Y005681D03*
X005697Y005695D03*
X005697Y005723D03*
X005697Y005737D03*
X005697Y005744D03*
X005697Y005773D03*
X005697Y005787D03*
X005697Y005794D03*
X005697Y005822D03*
X005697Y005836D03*
X005697Y005851D03*
X005697Y005872D03*
X005697Y005886D03*
X005697Y005900D03*
X005548Y005900D03*
X005548Y005886D03*
X005548Y005872D03*
X005548Y005851D03*
X005548Y005836D03*
X005548Y005822D03*
X005548Y005921D03*
X005548Y005936D03*
X005548Y005985D03*
X005548Y005999D03*
X005548Y006013D03*
X005548Y006035D03*
X005548Y006049D03*
X005548Y006063D03*
X006100Y005900D03*
X006100Y005886D03*
X006100Y005872D03*
X006100Y005851D03*
X006100Y005836D03*
X006100Y005822D03*
X006100Y005794D03*
X006100Y005787D03*
X006100Y005773D03*
X006100Y005744D03*
X006100Y005737D03*
X006100Y005723D03*
X006100Y005695D03*
X006100Y005681D03*
X006100Y005674D03*
X006100Y005645D03*
X006100Y005631D03*
X006100Y005617D03*
X006100Y005596D03*
X006100Y005581D03*
X006100Y005567D03*
D31*
X005898Y005567D03*
X005396Y005822D03*
X005155Y005822D03*
X005155Y005836D03*
X004829Y005921D03*
X004829Y005936D03*
X004836Y005950D03*
X004850Y005999D03*
X004857Y006035D03*
X004865Y006063D03*
X004822Y005900D03*
X004815Y005872D03*
X004808Y005851D03*
X004801Y005822D03*
X004787Y005773D03*
X004780Y005744D03*
X004730Y005567D03*
X004227Y005645D03*
X004234Y005836D03*
X004227Y005851D03*
X004355Y005921D03*
X004341Y005971D03*
X004333Y005999D03*
X004319Y006049D03*
X004001Y005645D03*
X003852Y005631D03*
X003285Y005631D03*
X003285Y005617D03*
X003285Y005596D03*
X003285Y005581D03*
X003285Y005567D03*
X003285Y005645D03*
X003137Y005674D03*
X003137Y005822D03*
X002889Y005836D03*
X002882Y005822D03*
X002882Y005674D03*
D32*
X003144Y005723D03*
X003144Y005737D03*
X003144Y005744D03*
X003144Y005773D03*
X003144Y005787D03*
X003144Y005886D03*
X003144Y005900D03*
X003144Y005921D03*
X003144Y005936D03*
X003144Y005950D03*
X003144Y005964D03*
X003144Y005971D03*
X003144Y005985D03*
X003144Y005999D03*
X003144Y006013D03*
X003144Y006035D03*
X003144Y006049D03*
X003144Y006063D03*
X003470Y005936D03*
X003470Y005921D03*
X003470Y005900D03*
X003845Y005836D03*
X003994Y005822D03*
X004001Y005836D03*
X003986Y005787D03*
X003852Y005695D03*
X004249Y005695D03*
X004404Y005737D03*
X004390Y005787D03*
X004503Y005737D03*
X004518Y005787D03*
X004518Y005794D03*
X004525Y005822D03*
X004532Y005836D03*
X004532Y005851D03*
X004539Y005872D03*
X004539Y005886D03*
X004652Y005851D03*
X004652Y005836D03*
X004659Y005822D03*
X004666Y005787D03*
X005006Y005787D03*
X005006Y005794D03*
X005006Y005773D03*
X005006Y005744D03*
X005006Y005737D03*
X005006Y005723D03*
X005006Y005695D03*
X005006Y005681D03*
X005006Y005674D03*
X005006Y005645D03*
X005006Y005631D03*
X005006Y005617D03*
X005006Y005596D03*
X005006Y005581D03*
X005006Y005567D03*
X005006Y005822D03*
X005006Y005836D03*
X005006Y005851D03*
X005006Y005872D03*
X005006Y005886D03*
X005006Y005900D03*
X005006Y005921D03*
X005006Y005936D03*
X005006Y005985D03*
X005006Y005999D03*
X005006Y006013D03*
X005006Y006035D03*
X005006Y006049D03*
X005006Y006063D03*
X005403Y005936D03*
X005403Y005921D03*
X005403Y005900D03*
X005403Y005886D03*
X005403Y005787D03*
X005403Y005773D03*
X005403Y005744D03*
X005403Y005737D03*
X005403Y005723D03*
X005403Y005695D03*
X005403Y005681D03*
X005403Y005674D03*
X005403Y005645D03*
X005403Y005631D03*
X005403Y005617D03*
X005403Y005596D03*
X005403Y005581D03*
X005403Y005567D03*
X005813Y005836D03*
X005799Y005886D03*
X005983Y005851D03*
X005983Y005836D03*
X005990Y005872D03*
X005997Y005886D03*
X005997Y005900D03*
X005969Y005794D03*
X005969Y005787D03*
X005955Y005737D03*
X003144Y005596D03*
X003144Y005581D03*
X003144Y005567D03*
D33*
X003133Y005836D03*
X003622Y005794D03*
X004457Y005581D03*
X004457Y005567D03*
X004726Y005581D03*
X005165Y005851D03*
X005392Y005836D03*
X004854Y006013D03*
X004861Y006049D03*
X002567Y005645D03*
X002538Y005681D03*
X002411Y005822D03*
D34*
X002981Y005581D03*
X003767Y005744D03*
X004114Y005567D03*
X004454Y005723D03*
X004730Y005723D03*
X005743Y005921D03*
X006054Y005921D03*
X006054Y005936D03*
D35*
X006061Y005985D03*
X006061Y005999D03*
X005898Y005681D03*
X005898Y005674D03*
X004730Y005695D03*
X003781Y005567D03*
D36*
X003859Y005674D03*
X003611Y005737D03*
X003611Y005744D03*
X003611Y005581D03*
X003611Y005567D03*
X002974Y005936D03*
X004645Y005886D03*
X004645Y005872D03*
X005976Y005822D03*
D37*
X005898Y005645D03*
X005898Y005631D03*
X004730Y005645D03*
X004454Y005645D03*
X003116Y005631D03*
X002981Y005567D03*
X002974Y005921D03*
D38*
X003023Y005617D03*
X002478Y005617D03*
X002478Y005596D03*
X002478Y005581D03*
X002478Y005567D03*
X005282Y005872D03*
D39*
X005898Y005574D03*
X004022Y005865D03*
X003632Y005865D03*
X002549Y005666D03*
X002507Y005716D03*
X002415Y005815D03*
X002393Y005843D03*
D40*
X004117Y005574D03*
D41*
X004454Y005716D03*
X004588Y005893D03*
X003781Y005574D03*
X005743Y005914D03*
X006054Y005943D03*
D42*
X005976Y005815D03*
X005828Y006169D03*
X004645Y005865D03*
X003859Y005666D03*
X003859Y005652D03*
X003611Y005574D03*
D43*
X002981Y005574D03*
X002974Y005914D03*
X004454Y005702D03*
X005233Y005914D03*
D44*
X004730Y005596D03*
X003625Y005645D03*
X002896Y005645D03*
X002896Y005851D03*
X002542Y005674D03*
X002499Y005723D03*
X002457Y005773D03*
X002443Y005787D03*
X002400Y005836D03*
X005898Y005581D03*
D45*
X004114Y005581D03*
X002974Y005886D03*
D46*
X003781Y005581D03*
D47*
X003856Y005638D03*
X003856Y005688D03*
X003997Y005829D03*
X004238Y005829D03*
X004365Y005879D03*
X004351Y005928D03*
X004344Y005957D03*
X004337Y005978D03*
X004330Y006006D03*
X004379Y005829D03*
X004394Y005780D03*
X004245Y005688D03*
X004790Y005780D03*
X004804Y005829D03*
X005151Y005780D03*
X005151Y005730D03*
X005151Y005688D03*
X005151Y005638D03*
X005151Y005589D03*
X005548Y005589D03*
X005548Y005638D03*
X005548Y005688D03*
X005548Y005730D03*
X005548Y005780D03*
X005548Y005829D03*
X005548Y005879D03*
X005548Y005928D03*
X005548Y006006D03*
X005548Y006056D03*
X005697Y005879D03*
X005697Y005829D03*
X005697Y005780D03*
X005697Y005730D03*
X005697Y005688D03*
X005697Y005638D03*
X005697Y005589D03*
X006100Y005589D03*
X006100Y005638D03*
X006100Y005688D03*
X006100Y005730D03*
X006100Y005780D03*
X006100Y005829D03*
X006100Y005879D03*
X003615Y005829D03*
X003615Y005688D03*
X003466Y005688D03*
X003466Y005730D03*
X003466Y005780D03*
X003466Y005638D03*
X003466Y005589D03*
X003140Y005688D03*
X002878Y005688D03*
X002871Y005730D03*
X002871Y005780D03*
X002730Y005780D03*
X002730Y005829D03*
X002730Y005879D03*
X002730Y005928D03*
X002730Y006006D03*
X002730Y006056D03*
X002730Y005730D03*
X002730Y005688D03*
X002730Y005638D03*
X002730Y005589D03*
D48*
X002903Y005638D03*
X002492Y005730D03*
X002450Y005780D03*
X005898Y005589D03*
D49*
X005955Y005730D03*
X005969Y005780D03*
X005983Y005829D03*
X005990Y005879D03*
X005813Y005829D03*
X005403Y005780D03*
X005403Y005730D03*
X005403Y005688D03*
X005403Y005638D03*
X005403Y005589D03*
X005403Y005879D03*
X005403Y005928D03*
X005006Y005928D03*
X005006Y005879D03*
X005006Y005829D03*
X005006Y005780D03*
X005006Y005730D03*
X005006Y005688D03*
X005006Y005638D03*
X005006Y005589D03*
X004666Y005780D03*
X004518Y005780D03*
X004525Y005829D03*
X004539Y005879D03*
X005006Y006006D03*
X005006Y006056D03*
X005693Y006247D03*
X005962Y006247D03*
X006097Y006247D03*
X003845Y005829D03*
X003470Y005928D03*
X003342Y005928D03*
X003144Y005928D03*
X003144Y005957D03*
X003144Y005978D03*
X003144Y006006D03*
X003144Y006056D03*
X003144Y005780D03*
X003144Y005730D03*
X003144Y005589D03*
D50*
X003133Y005829D03*
X002404Y005829D03*
X004224Y005638D03*
X004726Y005589D03*
D51*
X004454Y005589D03*
X003455Y005829D03*
D52*
X004118Y005589D03*
D53*
X003781Y005589D03*
D54*
X003611Y005589D03*
X003611Y005730D03*
X004645Y005879D03*
X005828Y005780D03*
X005828Y006247D03*
D55*
X005396Y005829D03*
X005155Y005829D03*
X004829Y005928D03*
X004836Y005957D03*
X004850Y006006D03*
X004865Y006056D03*
X004815Y005879D03*
X004319Y006056D03*
X003285Y005638D03*
X003285Y005589D03*
X002882Y005829D03*
D56*
X002977Y005589D03*
D57*
X003023Y005879D03*
X002478Y005589D03*
D58*
X003632Y005787D03*
X005898Y005617D03*
X005898Y005596D03*
D59*
X005385Y005851D03*
X004592Y006035D03*
X004457Y005596D03*
X003820Y005723D03*
X003126Y005645D03*
X003126Y005851D03*
D60*
X003728Y005900D03*
X004117Y005596D03*
D61*
X003728Y005596D03*
D62*
X002977Y005596D03*
D63*
X005898Y005603D03*
D64*
X004726Y005603D03*
D65*
X004457Y005603D03*
X004592Y006021D03*
X004592Y006042D03*
D66*
X004117Y005603D03*
X003728Y005893D03*
D67*
X003732Y005603D03*
D68*
X004118Y005914D03*
X002977Y005603D03*
D69*
X005898Y005610D03*
D70*
X004726Y005610D03*
X002907Y005858D03*
D71*
X004114Y005610D03*
D72*
X003732Y005610D03*
D73*
X003448Y005836D03*
X002910Y005631D03*
X004454Y005617D03*
X004730Y005617D03*
D74*
X004117Y005617D03*
D75*
X003735Y005617D03*
D76*
X003441Y005843D03*
X004730Y005652D03*
X005721Y006070D03*
X005898Y005624D03*
D77*
X004730Y005624D03*
D78*
X004457Y005624D03*
X004592Y005992D03*
D79*
X004117Y005624D03*
D80*
X004457Y005652D03*
X003643Y005624D03*
X005725Y006042D03*
X006072Y006070D03*
D81*
X005279Y005865D03*
X003020Y005624D03*
D82*
X003728Y005936D03*
X004457Y005631D03*
X004726Y005631D03*
X004592Y005999D03*
X004592Y006013D03*
D83*
X004595Y006049D03*
X004213Y005631D03*
X004015Y005631D03*
X003356Y005900D03*
X002485Y005737D03*
X002478Y005744D03*
X002436Y005794D03*
X002386Y005851D03*
D84*
X003636Y005631D03*
D85*
X002475Y005631D03*
D86*
X004454Y005638D03*
X005898Y005638D03*
D87*
X004726Y005638D03*
X004592Y006006D03*
D88*
X004843Y005978D03*
X004008Y005638D03*
D89*
X003629Y005638D03*
D90*
X003123Y005638D03*
X002974Y005928D03*
X005233Y005928D03*
D91*
X004592Y006056D03*
X002574Y005638D03*
X002531Y005688D03*
D92*
X005898Y005666D03*
X005898Y005652D03*
D93*
X005898Y005659D03*
D94*
X004726Y005659D03*
X004457Y005659D03*
D95*
X004224Y005858D03*
X003353Y005907D03*
X003133Y005659D03*
X002510Y005709D03*
X002468Y005759D03*
D96*
X002556Y005659D03*
X005169Y005858D03*
D97*
X004730Y005666D03*
X004454Y005666D03*
X005728Y006021D03*
X006068Y006042D03*
D98*
X006068Y006049D03*
X006068Y006035D03*
X005728Y006035D03*
X005728Y006013D03*
X005233Y005921D03*
X004730Y005681D03*
X004730Y005674D03*
X004454Y005674D03*
X004454Y005681D03*
D99*
X004656Y005829D03*
X005803Y005879D03*
X005838Y005730D03*
X005852Y005688D03*
X005944Y005688D03*
D100*
X004726Y005688D03*
D101*
X004454Y005688D03*
X003654Y005780D03*
X005735Y005957D03*
X005735Y005978D03*
D102*
X005796Y005900D03*
X005803Y005872D03*
X005810Y005851D03*
X005817Y005822D03*
X005838Y005744D03*
X005838Y005737D03*
X005845Y005723D03*
X005944Y005695D03*
X005951Y005723D03*
X005959Y005744D03*
X005966Y005773D03*
X005959Y006162D03*
X006093Y006162D03*
X005689Y006162D03*
X004663Y005794D03*
X004670Y005773D03*
X004677Y005744D03*
X004677Y005737D03*
X003848Y005822D03*
D103*
X003335Y005936D03*
X005693Y006254D03*
X005693Y006261D03*
X005962Y006261D03*
X005962Y006254D03*
X006097Y006254D03*
X006097Y006261D03*
X005849Y005695D03*
D104*
X005735Y005964D03*
X005735Y005971D03*
X004588Y005921D03*
X004454Y005695D03*
D105*
X004348Y005950D03*
X004008Y005851D03*
X004794Y005794D03*
X004843Y005971D03*
X004843Y005985D03*
X005233Y005936D03*
X002875Y005695D03*
D106*
X002524Y005695D03*
X003459Y005822D03*
X004592Y006063D03*
X004840Y005964D03*
D107*
X004663Y005801D03*
X004670Y005766D03*
X005810Y005843D03*
X005817Y005815D03*
X005845Y005716D03*
X005845Y005702D03*
X005951Y005716D03*
D108*
X006061Y005992D03*
X004730Y005702D03*
D109*
X004670Y005759D03*
X005845Y005709D03*
D110*
X004730Y005709D03*
D111*
X004454Y005709D03*
D112*
X004252Y005709D03*
D113*
X004734Y005716D03*
X005739Y005943D03*
D114*
X004252Y005716D03*
D115*
X004117Y005723D03*
X004117Y005737D03*
X004117Y005744D03*
D116*
X004454Y005730D03*
X004730Y005730D03*
X006054Y005928D03*
D117*
X004117Y005730D03*
D118*
X003802Y005730D03*
X006068Y006056D03*
D119*
X006058Y005971D03*
X006058Y005964D03*
X006058Y005950D03*
X005739Y005950D03*
X005739Y005936D03*
X003785Y005737D03*
D120*
X004117Y005751D03*
D121*
X003710Y005751D03*
D122*
X003459Y005815D03*
X002475Y005751D03*
X004592Y006070D03*
X004847Y005992D03*
D123*
X004649Y005858D03*
X005831Y005759D03*
D124*
X004117Y005759D03*
D125*
X003703Y005759D03*
D126*
X004121Y005766D03*
D127*
X003693Y005766D03*
D128*
X005824Y005787D03*
X005824Y005794D03*
X005831Y005773D03*
X005824Y006162D03*
D129*
X004121Y005773D03*
D130*
X003675Y005773D03*
D131*
X004121Y005780D03*
D132*
X004252Y005787D03*
X004252Y005794D03*
D133*
X004348Y005943D03*
X004794Y005801D03*
X003463Y005801D03*
X002875Y005801D03*
D134*
X003463Y005808D03*
D135*
X002422Y005808D03*
D136*
X003406Y005851D03*
X003406Y005872D03*
X003406Y005886D03*
D137*
X003119Y005858D03*
X005378Y005858D03*
D138*
X003406Y005858D03*
D139*
X002475Y005858D03*
X002475Y005907D03*
D140*
X002974Y005893D03*
X003406Y005865D03*
X005233Y005893D03*
D141*
X003016Y005865D03*
D142*
X002475Y005865D03*
X002475Y005893D03*
X002475Y005914D03*
D143*
X003732Y005872D03*
X004121Y005872D03*
D144*
X003020Y005872D03*
D145*
X002475Y005872D03*
X002475Y005886D03*
X002475Y005900D03*
X002475Y005921D03*
X002475Y005936D03*
D146*
X005233Y005879D03*
D147*
X004117Y005879D03*
X003728Y005879D03*
D148*
X003406Y005879D03*
D149*
X002475Y005879D03*
X002475Y005928D03*
D150*
X005236Y005886D03*
D151*
X004117Y005886D03*
D152*
X003732Y005886D03*
D153*
X004117Y005893D03*
D154*
X005233Y005900D03*
X002974Y005900D03*
D155*
X004592Y005900D03*
D156*
X004118Y005900D03*
D157*
X006051Y005907D03*
D158*
X005743Y005907D03*
X005233Y005907D03*
D159*
X004592Y005907D03*
D160*
X004118Y005907D03*
D161*
X003728Y005907D03*
D162*
X002974Y005907D03*
D163*
X006051Y005914D03*
D164*
X004592Y005914D03*
D165*
X003732Y005914D03*
D166*
X003728Y005921D03*
X004117Y005921D03*
D167*
X004117Y005928D03*
X003728Y005928D03*
X005739Y005928D03*
X006058Y005957D03*
D168*
X006065Y006006D03*
X005732Y006006D03*
X004592Y005928D03*
D169*
X004592Y005936D03*
X004592Y005950D03*
X005732Y005985D03*
X005732Y005999D03*
X006065Y006013D03*
D170*
X006072Y006063D03*
X005725Y006063D03*
X005725Y006049D03*
X004592Y005985D03*
X004592Y005971D03*
X004592Y005964D03*
X004118Y005936D03*
D171*
X005233Y005943D03*
D172*
X005732Y005992D03*
X006065Y006021D03*
X004592Y005943D03*
D173*
X003728Y005943D03*
X005647Y006219D03*
X005689Y006283D03*
X005725Y006233D03*
X005732Y006219D03*
X005725Y006183D03*
X005689Y006134D03*
X005782Y006219D03*
X005789Y006233D03*
X005824Y006283D03*
X005859Y006233D03*
X005866Y006219D03*
X005859Y006183D03*
X005824Y006134D03*
X005916Y006219D03*
X005923Y006233D03*
X005959Y006283D03*
X005994Y006233D03*
X005994Y006183D03*
X005959Y006134D03*
X006093Y006134D03*
X006128Y006183D03*
X006128Y006233D03*
X006093Y006283D03*
X006058Y006233D03*
D174*
X005962Y006268D03*
X005828Y006268D03*
X005693Y006268D03*
X003328Y005943D03*
D175*
X002977Y005943D03*
D176*
X004114Y005950D03*
X005693Y006290D03*
X005828Y006290D03*
X005962Y006290D03*
D177*
X005725Y006056D03*
X004592Y005978D03*
X004592Y005957D03*
D178*
X006061Y005978D03*
D179*
X006065Y006028D03*
D180*
X006093Y006127D03*
X005959Y006127D03*
D181*
X005824Y006127D03*
X005689Y006127D03*
D182*
X005689Y006148D03*
X005824Y006148D03*
X005959Y006148D03*
X006093Y006148D03*
D183*
X006093Y006155D03*
X005959Y006155D03*
X005824Y006155D03*
X005689Y006155D03*
D184*
X005661Y006176D03*
X005718Y006176D03*
X005732Y006226D03*
X005689Y006275D03*
X005824Y006275D03*
X005866Y006226D03*
X005930Y006176D03*
X005987Y006176D03*
X006065Y006176D03*
X006121Y006176D03*
X006136Y006226D03*
X006093Y006275D03*
X005959Y006275D03*
X005796Y006176D03*
D185*
X005852Y006176D03*
X006001Y006226D03*
D186*
X006061Y006183D03*
X006139Y006219D03*
X005927Y006183D03*
X005792Y006183D03*
X005658Y006183D03*
D187*
X005651Y006190D03*
X005721Y006240D03*
X005785Y006190D03*
X005856Y006240D03*
X005920Y006190D03*
X005990Y006240D03*
X006054Y006190D03*
X006125Y006240D03*
D188*
X006051Y006198D03*
X006001Y006198D03*
X006001Y006190D03*
D189*
X006001Y006219D03*
X006051Y006219D03*
X005654Y006233D03*
D190*
X005651Y006226D03*
X006054Y006226D03*
D191*
X005920Y006226D03*
X005785Y006226D03*
D192*
X005828Y006254D03*
X005828Y006261D03*
D193*
X006097Y006268D03*
D194*
X006411Y003580D02*
X005461Y003580D01*
X005444Y003578D01*
X005427Y003574D01*
X005411Y003567D01*
X005397Y003557D01*
X005384Y003544D01*
X005374Y003530D01*
X005367Y003514D01*
X005363Y003497D01*
X005361Y003480D01*
X005361Y002880D02*
X005363Y002863D01*
X005367Y002846D01*
X005374Y002830D01*
X005384Y002816D01*
X005397Y002803D01*
X005411Y002793D01*
X005427Y002786D01*
X005444Y002782D01*
X005461Y002780D01*
X006411Y002780D01*
X006428Y002782D01*
X006445Y002786D01*
X006461Y002793D01*
X006475Y002803D01*
X006488Y002816D01*
X006498Y002830D01*
X006505Y002846D01*
X006509Y002863D01*
X006511Y002880D01*
X006511Y003480D02*
X006509Y003497D01*
X006505Y003514D01*
X006498Y003530D01*
X006488Y003544D01*
X006475Y003557D01*
X006461Y003567D01*
X006445Y003574D01*
X006428Y003578D01*
X006411Y003580D01*
D195*
X005848Y002675D02*
X005873Y002650D01*
X005873Y002625D01*
X005848Y002600D01*
X005798Y002600D01*
X005773Y002575D01*
X005773Y002550D01*
X005798Y002525D01*
X005848Y002525D01*
X005873Y002550D01*
X005848Y002675D02*
X005798Y002675D01*
X005773Y002650D01*
X005676Y002675D02*
X005625Y002675D01*
X005650Y002675D02*
X005650Y002550D01*
X005676Y002525D01*
X005701Y002525D01*
X005726Y002550D01*
X005578Y002550D02*
X005553Y002525D01*
X005503Y002525D01*
X005478Y002550D01*
X005478Y002600D01*
X005503Y002625D01*
X005528Y002625D01*
X005578Y002600D01*
X005578Y002675D01*
X005478Y002675D01*
M02*
