G75*
%MOIN*%
%OFA0B0*%
%FSLAX24Y24*%
%IPPOS*%
%LPD*%
%AMOC8*
5,1,8,0,0,1.08239X$1,22.5*
%
%ADD10C,0.0000*%
%ADD11R,0.0150X0.0150*%
%ADD12C,0.0120*%
%ADD13C,0.0080*%
%ADD14R,0.0433X0.0394*%
%ADD15R,0.0394X0.0433*%
%ADD16C,0.0740*%
%ADD17C,0.0100*%
%ADD18C,0.0376*%
%ADD19C,0.0060*%
D10*
X001098Y000594D02*
X008402Y000598D01*
X008406Y006598D01*
X001098Y006594D01*
X001098Y000594D01*
D11*
X004898Y003469D03*
D12*
X004898Y003666D03*
X005095Y003666D03*
X005095Y003469D03*
X005095Y003272D03*
X004898Y003272D03*
X004701Y003272D03*
X004701Y003469D03*
X004701Y003666D03*
D13*
X004898Y003469D02*
X004898Y003272D01*
D14*
X005807Y001196D03*
X006476Y001196D03*
X003835Y001154D03*
X003165Y001154D03*
X003614Y006110D03*
X004283Y006110D03*
X005705Y006076D03*
X006374Y006076D03*
D15*
X007005Y003925D03*
X007005Y003256D03*
X002473Y003650D03*
X002473Y004319D03*
D16*
X001500Y004000D03*
X001500Y003000D03*
X001500Y002000D03*
X001500Y001000D03*
X001500Y005000D03*
X001500Y006000D03*
X008000Y006000D03*
X008000Y005000D03*
X008000Y004000D03*
X008000Y003000D03*
X008000Y002000D03*
X008000Y001000D03*
D17*
X007228Y001000D01*
X007228Y000728D01*
X002067Y000728D01*
X002067Y001043D01*
X001500Y001043D01*
X001500Y001000D01*
X001831Y001799D02*
X002236Y001799D01*
X002567Y001563D01*
X002220Y001819D01*
X007169Y001866D01*
X007169Y002000D01*
X008000Y002000D01*
X007476Y002366D02*
X006756Y002374D01*
X006756Y002106D01*
X002366Y002106D01*
X002366Y003039D01*
X002075Y003039D01*
X002063Y004346D01*
X002469Y004335D01*
X002473Y004319D01*
X002591Y004359D01*
X002911Y004623D01*
X003346Y004988D02*
X001500Y005000D01*
X002571Y005390D02*
X002594Y005602D01*
X002591Y006236D01*
X003323Y006228D01*
X003323Y006110D01*
X003614Y006110D01*
X003441Y005712D02*
X004724Y005716D01*
X004708Y006091D01*
X004724Y006425D01*
X006402Y006425D01*
X006402Y006037D01*
X006374Y006076D01*
X006386Y006110D01*
X006780Y006091D01*
X007319Y005528D01*
X008000Y005000D01*
X007516Y004757D02*
X006857Y004757D01*
X006818Y004773D02*
X006675Y004773D01*
X006544Y004719D01*
X006443Y004618D01*
X006388Y004486D01*
X006388Y004344D01*
X006443Y004212D01*
X006517Y004138D01*
X006513Y004133D01*
X006527Y004067D01*
X006338Y004067D01*
X006338Y003969D02*
X006549Y003969D01*
X006546Y003980D02*
X006552Y003955D01*
X006609Y003918D01*
X006638Y003889D01*
X006638Y003638D01*
X006700Y003576D01*
X006688Y003565D01*
X006668Y003530D01*
X006658Y003492D01*
X006658Y003304D01*
X006956Y003304D01*
X006956Y003207D01*
X007053Y003207D01*
X007053Y002889D01*
X007221Y002889D01*
X007256Y002899D01*
X007256Y002589D01*
X006848Y002593D01*
X006847Y002594D01*
X006757Y002594D01*
X006667Y002595D01*
X006666Y002594D01*
X006665Y002594D01*
X006601Y002530D01*
X006537Y002468D01*
X006537Y002466D01*
X006536Y002465D01*
X006536Y002375D01*
X006535Y002326D01*
X006346Y002326D01*
X006335Y004772D01*
X003566Y004791D01*
X003566Y004815D01*
X003585Y004819D01*
X003619Y004875D01*
X003665Y004922D01*
X003665Y004950D01*
X003680Y004975D01*
X003665Y005038D01*
X003662Y005492D01*
X004638Y005495D01*
X004642Y005492D01*
X004729Y005496D01*
X004815Y005496D01*
X004819Y005500D01*
X004824Y005500D01*
X004883Y005564D01*
X004916Y005597D01*
X004980Y005571D01*
X005122Y005571D01*
X005254Y005626D01*
X005355Y005726D01*
X005368Y005759D01*
X005418Y005710D01*
X005992Y005710D01*
X006039Y005757D01*
X006087Y005710D01*
X006661Y005710D01*
X006752Y005801D01*
X007110Y005428D01*
X007112Y005409D01*
X007171Y005364D01*
X007223Y005310D01*
X007242Y005309D01*
X007470Y005132D01*
X007460Y005107D01*
X007460Y004893D01*
X007542Y004694D01*
X007694Y004542D01*
X007822Y004489D01*
X007800Y004482D01*
X007727Y004445D01*
X007661Y004397D01*
X007603Y004339D01*
X007555Y004273D01*
X007518Y004200D01*
X007493Y004122D01*
X007481Y004050D01*
X007950Y004050D01*
X007950Y003950D01*
X007481Y003950D01*
X007493Y003878D01*
X007518Y003800D01*
X007555Y003727D01*
X007603Y003661D01*
X007661Y003603D01*
X007727Y003555D01*
X007800Y003518D01*
X007822Y003511D01*
X007694Y003458D01*
X007542Y003306D01*
X007504Y003213D01*
X007475Y003212D01*
X007385Y003212D01*
X007384Y003211D01*
X007382Y003211D01*
X007352Y003179D01*
X007352Y003207D01*
X007053Y003207D01*
X007053Y003304D01*
X007352Y003304D01*
X007352Y003492D01*
X007341Y003530D01*
X007322Y003565D01*
X007310Y003576D01*
X007372Y003638D01*
X007372Y004212D01*
X007272Y004312D01*
X007091Y004312D01*
X007105Y004344D01*
X007105Y004486D01*
X007050Y004618D01*
X006949Y004719D01*
X006818Y004773D01*
X007009Y004658D02*
X007578Y004658D01*
X007676Y004560D02*
X007074Y004560D01*
X007105Y004461D02*
X007760Y004461D01*
X007628Y004363D02*
X007105Y004363D01*
X007319Y004264D02*
X007551Y004264D01*
X007507Y004166D02*
X007372Y004166D01*
X007372Y004067D02*
X007484Y004067D01*
X007372Y003969D02*
X007950Y003969D01*
X008000Y004000D02*
X007720Y004000D01*
X007720Y003543D01*
X007328Y003543D01*
X007005Y003256D01*
X006754Y003256D01*
X006754Y002750D01*
X006788Y002889D02*
X006956Y002889D01*
X006956Y003207D01*
X006658Y003207D01*
X006658Y003020D01*
X006668Y002981D01*
X006688Y002947D01*
X006716Y002919D01*
X006750Y002900D01*
X006788Y002889D01*
X006667Y002984D02*
X006343Y002984D01*
X006343Y002885D02*
X007256Y002885D01*
X007256Y002787D02*
X006343Y002787D01*
X006344Y002688D02*
X007256Y002688D01*
X007256Y002590D02*
X007132Y002590D01*
X007476Y002366D02*
X007476Y002992D01*
X007587Y002992D01*
X007476Y002992D02*
X008000Y003000D01*
X007614Y003378D02*
X007352Y003378D01*
X007352Y003476D02*
X007739Y003476D01*
X007700Y003575D02*
X007311Y003575D01*
X007372Y003673D02*
X007595Y003673D01*
X007533Y003772D02*
X007372Y003772D01*
X007372Y003870D02*
X007495Y003870D01*
X007005Y003925D02*
X006747Y004091D01*
X006746Y004415D01*
X006489Y004166D02*
X006337Y004166D01*
X006337Y004264D02*
X006421Y004264D01*
X006388Y004363D02*
X006336Y004363D01*
X006336Y004461D02*
X006388Y004461D01*
X006419Y004560D02*
X006336Y004560D01*
X006335Y004658D02*
X006483Y004658D01*
X006335Y004757D02*
X006636Y004757D01*
X007319Y005249D02*
X003664Y005249D01*
X003663Y005348D02*
X007186Y005348D01*
X007092Y005446D02*
X003662Y005446D01*
X003441Y005712D02*
X003445Y005012D01*
X003346Y004988D01*
X003346Y003544D01*
X002576Y003556D01*
X002485Y003557D01*
X002473Y003650D01*
X002075Y003039D02*
X002075Y003000D01*
X001500Y003000D01*
X001500Y002000D02*
X001831Y002000D01*
X001831Y001799D01*
X003209Y001521D02*
X003165Y001154D01*
X003209Y001521D02*
X004354Y001498D01*
X004690Y001622D02*
X006814Y001643D01*
X006780Y001608D01*
X006761Y001563D01*
X006189Y001563D01*
X006128Y001501D01*
X006116Y001513D01*
X006082Y001533D01*
X006043Y001543D01*
X005856Y001543D01*
X005856Y001244D01*
X005759Y001244D01*
X005759Y001148D01*
X005441Y001148D01*
X005441Y000979D01*
X005449Y000948D01*
X004201Y000948D01*
X004201Y001105D01*
X003883Y001105D01*
X003883Y001202D01*
X004144Y001202D01*
X004151Y001194D01*
X004283Y001140D01*
X004426Y001140D01*
X004557Y001194D01*
X004658Y001295D01*
X004712Y001426D01*
X004712Y001569D01*
X004690Y001622D01*
X004698Y001605D02*
X006778Y001605D01*
X007040Y001354D02*
X007083Y001406D01*
X007040Y001354D02*
X006476Y001196D01*
X006133Y001506D02*
X006122Y001506D01*
X005856Y001506D02*
X005759Y001506D01*
X005759Y001543D02*
X005571Y001543D01*
X005533Y001533D01*
X005498Y001513D01*
X005471Y001485D01*
X005451Y001451D01*
X005441Y001413D01*
X005441Y001244D01*
X005759Y001244D01*
X005759Y001543D01*
X005759Y001408D02*
X005856Y001408D01*
X005856Y001309D02*
X005759Y001309D01*
X005759Y001211D02*
X004574Y001211D01*
X004664Y001309D02*
X005441Y001309D01*
X005441Y001408D02*
X004705Y001408D01*
X004712Y001506D02*
X005492Y001506D01*
X005402Y001217D02*
X005106Y001224D01*
X004982Y001512D01*
X005106Y001224D02*
X003835Y001154D01*
X003883Y001112D02*
X005441Y001112D01*
X005402Y001217D02*
X005807Y001196D01*
X005441Y001014D02*
X004201Y001014D01*
X006345Y002393D02*
X006536Y002393D01*
X006561Y002491D02*
X006345Y002491D01*
X006344Y002590D02*
X006661Y002590D01*
X006956Y002984D02*
X007053Y002984D01*
X007053Y003082D02*
X006956Y003082D01*
X006956Y003181D02*
X007053Y003181D01*
X007053Y003279D02*
X007531Y003279D01*
X007353Y003181D02*
X007352Y003181D01*
X006956Y003279D02*
X006341Y003279D01*
X006341Y003378D02*
X006658Y003378D01*
X006658Y003476D02*
X006340Y003476D01*
X006340Y003575D02*
X006698Y003575D01*
X006638Y003673D02*
X006340Y003673D01*
X006339Y003772D02*
X006638Y003772D01*
X006638Y003870D02*
X006339Y003870D01*
X006527Y003999D02*
X006546Y003980D01*
X006527Y003999D02*
X006527Y004067D01*
X005458Y004029D02*
X005095Y003666D01*
X004898Y003666D02*
X004898Y004029D01*
X004701Y003666D02*
X004337Y004029D01*
X004337Y003469D02*
X004701Y003469D01*
X004701Y003272D02*
X004358Y002908D01*
X004958Y002869D02*
X004958Y002969D01*
X004898Y003272D02*
X004898Y003445D01*
X004898Y003272D02*
X005095Y003272D01*
X005095Y003469D02*
X005458Y003469D01*
X006342Y003181D02*
X006658Y003181D01*
X006658Y003082D02*
X006342Y003082D01*
X007169Y002012D02*
X007169Y002000D01*
X007475Y004855D02*
X003607Y004855D01*
X003667Y004954D02*
X007460Y004954D01*
X007460Y005052D02*
X003665Y005052D01*
X003664Y005151D02*
X007446Y005151D01*
X006998Y005545D02*
X004865Y005545D01*
X005272Y005643D02*
X006903Y005643D01*
X006809Y005742D02*
X006693Y005742D01*
X006055Y005742D02*
X006024Y005742D01*
X005705Y006076D02*
X005067Y006089D01*
X005055Y006075D01*
X005051Y005929D01*
X005361Y005742D02*
X005385Y005742D01*
X004708Y006091D02*
X004283Y006110D01*
X003346Y003544D02*
X003323Y002774D01*
D18*
X003323Y002774D03*
X004358Y002908D03*
X004958Y002869D03*
X005498Y002869D03*
X005458Y003469D03*
X005458Y004029D03*
X004898Y004029D03*
X004337Y004029D03*
X004337Y003469D03*
X002911Y004623D03*
X002571Y005390D03*
X005051Y005929D03*
X006746Y004415D03*
X006754Y002750D03*
X007083Y001406D03*
X004982Y001512D03*
X004354Y001498D03*
X002567Y001563D03*
D19*
X003998Y002569D02*
X003998Y004369D01*
X005798Y004369D01*
X005798Y002569D01*
X003998Y002569D01*
X003998Y002585D02*
X005798Y002585D01*
X005798Y002643D02*
X004447Y002643D01*
X004414Y002630D02*
X004516Y002672D01*
X004594Y002750D01*
X004636Y002853D01*
X004636Y002963D01*
X004626Y002988D01*
X004752Y003122D01*
X004763Y003122D01*
X004771Y003130D01*
X004781Y003119D01*
X004824Y003094D01*
X004873Y003082D01*
X004898Y003082D01*
X004923Y003082D01*
X004971Y003094D01*
X004996Y003109D01*
X005021Y003094D01*
X005070Y003082D01*
X005095Y003082D01*
X005120Y003082D01*
X005168Y003094D01*
X005211Y003119D01*
X005247Y003155D01*
X005272Y003198D01*
X005285Y003246D01*
X005285Y003249D01*
X005301Y003233D01*
X005403Y003190D01*
X005514Y003190D01*
X005616Y003233D01*
X005694Y003311D01*
X005736Y003413D01*
X005736Y003524D01*
X005694Y003626D01*
X005616Y003704D01*
X005514Y003747D01*
X005403Y003747D01*
X005353Y003726D01*
X005385Y003758D01*
X005403Y003751D01*
X005514Y003751D01*
X005616Y003793D01*
X005694Y003872D01*
X005798Y003872D01*
X005798Y003930D02*
X005718Y003930D01*
X005736Y003974D02*
X005694Y003872D01*
X005636Y003813D02*
X005798Y003813D01*
X005798Y003755D02*
X005523Y003755D01*
X005624Y003696D02*
X005798Y003696D01*
X005798Y003638D02*
X005682Y003638D01*
X005713Y003579D02*
X005798Y003579D01*
X005798Y003521D02*
X005736Y003521D01*
X005736Y003462D02*
X005798Y003462D01*
X005798Y003404D02*
X005733Y003404D01*
X005708Y003345D02*
X005798Y003345D01*
X005798Y003287D02*
X005670Y003287D01*
X005605Y003228D02*
X005798Y003228D01*
X005798Y003170D02*
X005255Y003170D01*
X005280Y003228D02*
X005311Y003228D01*
X005197Y003111D02*
X005798Y003111D01*
X005798Y003053D02*
X004687Y003053D01*
X004632Y002994D02*
X005798Y002994D01*
X005798Y002936D02*
X004636Y002936D01*
X004636Y002877D02*
X005798Y002877D01*
X005798Y002819D02*
X004622Y002819D01*
X004598Y002760D02*
X005798Y002760D01*
X005798Y002702D02*
X004546Y002702D01*
X004414Y002630D02*
X004303Y002630D01*
X004201Y002672D01*
X004122Y002750D01*
X004080Y002853D01*
X004080Y002963D01*
X004122Y003065D01*
X004201Y003144D01*
X004303Y003186D01*
X004414Y003186D01*
X004424Y003182D01*
X004457Y003217D01*
X004392Y003190D01*
X004282Y003190D01*
X004179Y003233D01*
X004101Y003311D01*
X004059Y003413D01*
X004059Y003524D01*
X004101Y003626D01*
X004179Y003704D01*
X004282Y003747D01*
X004392Y003747D01*
X004442Y003726D01*
X004410Y003758D01*
X004392Y003751D01*
X004282Y003751D01*
X004179Y003793D01*
X004101Y003872D01*
X003998Y003872D01*
X003998Y003930D02*
X004077Y003930D01*
X004059Y003974D02*
X004101Y003872D01*
X004159Y003813D02*
X003998Y003813D01*
X003998Y003755D02*
X004272Y003755D01*
X004172Y003696D02*
X003998Y003696D01*
X003998Y003638D02*
X004113Y003638D01*
X004082Y003579D02*
X003998Y003579D01*
X003998Y003521D02*
X004059Y003521D01*
X004059Y003462D02*
X003998Y003462D01*
X003998Y003404D02*
X004063Y003404D01*
X004087Y003345D02*
X003998Y003345D01*
X003998Y003287D02*
X004125Y003287D01*
X004190Y003228D02*
X003998Y003228D01*
X003998Y003170D02*
X004264Y003170D01*
X004169Y003111D02*
X003998Y003111D01*
X003998Y003053D02*
X004117Y003053D01*
X004093Y002994D02*
X003998Y002994D01*
X003998Y002936D02*
X004080Y002936D01*
X004080Y002877D02*
X003998Y002877D01*
X003998Y002819D02*
X004094Y002819D01*
X004118Y002760D02*
X003998Y002760D01*
X003998Y002702D02*
X004171Y002702D01*
X004270Y002643D02*
X003998Y002643D01*
X004742Y003111D02*
X004795Y003111D01*
X004898Y003111D02*
X004898Y003111D01*
X004898Y003082D02*
X004898Y003271D01*
X004898Y003271D01*
X004898Y003272D01*
X005095Y003272D01*
X005095Y003271D01*
X005095Y003082D01*
X005095Y003271D01*
X005095Y003271D01*
X004905Y003271D01*
X004898Y003271D01*
X004898Y003082D01*
X004898Y003170D02*
X004898Y003170D01*
X004898Y003228D02*
X004898Y003228D01*
X005095Y003228D02*
X005095Y003228D01*
X005095Y003170D02*
X005095Y003170D01*
X005095Y003111D02*
X005095Y003111D01*
X005382Y003755D02*
X005394Y003755D01*
X005187Y003956D02*
X005155Y003924D01*
X005176Y003974D01*
X005176Y004084D01*
X005133Y004187D01*
X005055Y004265D01*
X004953Y004307D01*
X004842Y004307D01*
X004740Y004265D01*
X004662Y004187D01*
X004620Y004084D01*
X004620Y003974D01*
X004640Y003924D01*
X004608Y003956D01*
X004615Y003974D01*
X004615Y004084D01*
X004573Y004187D01*
X004495Y004265D01*
X004392Y004307D01*
X004282Y004307D01*
X004179Y004265D01*
X004101Y004187D01*
X004059Y004084D01*
X004059Y003974D01*
X004059Y003989D02*
X003998Y003989D01*
X003998Y004047D02*
X004059Y004047D01*
X004068Y004106D02*
X003998Y004106D01*
X003998Y004164D02*
X004092Y004164D01*
X004137Y004223D02*
X003998Y004223D01*
X003998Y004281D02*
X004219Y004281D01*
X003998Y004340D02*
X005798Y004340D01*
X005798Y004281D02*
X005576Y004281D01*
X005616Y004265D02*
X005514Y004307D01*
X005403Y004307D01*
X005301Y004265D01*
X005222Y004187D01*
X005180Y004084D01*
X005180Y003974D01*
X005187Y003956D01*
X005180Y003989D02*
X005176Y003989D01*
X005176Y004047D02*
X005180Y004047D01*
X005189Y004106D02*
X005167Y004106D01*
X005143Y004164D02*
X005213Y004164D01*
X005259Y004223D02*
X005097Y004223D01*
X005015Y004281D02*
X005341Y004281D01*
X005616Y004265D02*
X005694Y004187D01*
X005736Y004084D01*
X005736Y003974D01*
X005736Y003989D02*
X005798Y003989D01*
X005798Y004047D02*
X005736Y004047D01*
X005727Y004106D02*
X005798Y004106D01*
X005798Y004164D02*
X005703Y004164D01*
X005658Y004223D02*
X005798Y004223D01*
X005162Y003930D02*
X005158Y003930D01*
X004780Y004281D02*
X004455Y004281D01*
X004537Y004223D02*
X004698Y004223D01*
X004653Y004164D02*
X004582Y004164D01*
X004606Y004106D02*
X004628Y004106D01*
X004620Y004047D02*
X004615Y004047D01*
X004615Y003989D02*
X004620Y003989D01*
X004634Y003930D02*
X004637Y003930D01*
X004413Y003755D02*
X004402Y003755D01*
M02*
