G75*
%MOIN*%
%OFA0B0*%
%FSLAX24Y24*%
%IPPOS*%
%LPD*%
%AMOC8*
5,1,8,0,0,1.08239X$1,22.5*
%
%ADD10C,0.0040*%
%ADD11C,0.0050*%
%ADD12C,0.0070*%
%ADD13C,0.0020*%
%ADD14R,0.0180X0.0300*%
%ADD15R,0.0300X0.0180*%
%ADD16C,0.0220*%
%ADD17C,0.0080*%
%ADD18R,0.0042X0.0007*%
%ADD19R,0.0035X0.0007*%
%ADD20R,0.0028X0.0007*%
%ADD21R,0.0099X0.0007*%
%ADD22R,0.0106X0.0007*%
%ADD23R,0.0092X0.0007*%
%ADD24R,0.0120X0.0007*%
%ADD25R,0.0113X0.0007*%
%ADD26R,0.0085X0.0007*%
%ADD27R,0.0333X0.0007*%
%ADD28R,0.0099X0.0007*%
%ADD29R,0.0106X0.0007*%
%ADD30R,0.0092X0.0007*%
%ADD31R,0.0163X0.0007*%
%ADD32R,0.0149X0.0007*%
%ADD33R,0.0092X0.0007*%
%ADD34R,0.0127X0.0007*%
%ADD35R,0.0333X0.0007*%
%ADD36R,0.0099X0.0007*%
%ADD37R,0.0106X0.0007*%
%ADD38R,0.0092X0.0007*%
%ADD39R,0.0113X0.0007*%
%ADD40R,0.0191X0.0007*%
%ADD41R,0.0177X0.0007*%
%ADD42R,0.0092X0.0007*%
%ADD43R,0.0149X0.0007*%
%ADD44R,0.0333X0.0007*%
%ADD45R,0.0120X0.0007*%
%ADD46R,0.0212X0.0007*%
%ADD47R,0.0191X0.0007*%
%ADD48R,0.0092X0.0007*%
%ADD49R,0.0177X0.0007*%
%ADD50R,0.0120X0.0007*%
%ADD51R,0.0234X0.0007*%
%ADD52R,0.0205X0.0007*%
%ADD53R,0.0099X0.0007*%
%ADD54R,0.0120X0.0007*%
%ADD55R,0.0092X0.0007*%
%ADD56R,0.0113X0.0007*%
%ADD57R,0.0120X0.0007*%
%ADD58R,0.0255X0.0007*%
%ADD59R,0.0220X0.0007*%
%ADD60R,0.0092X0.0007*%
%ADD61R,0.0106X0.0007*%
%ADD62R,0.0198X0.0007*%
%ADD63R,0.0333X0.0007*%
%ADD64R,0.0135X0.0007*%
%ADD65R,0.0127X0.0007*%
%ADD66R,0.0269X0.0007*%
%ADD67R,0.0326X0.0007*%
%ADD68R,0.0212X0.0007*%
%ADD69R,0.0135X0.0007*%
%ADD70R,0.0127X0.0007*%
%ADD71R,0.0127X0.0007*%
%ADD72R,0.0283X0.0007*%
%ADD73R,0.0333X0.0007*%
%ADD74R,0.0227X0.0007*%
%ADD75R,0.0135X0.0007*%
%ADD76R,0.0127X0.0007*%
%ADD77R,0.0290X0.0007*%
%ADD78R,0.0333X0.0007*%
%ADD79R,0.0135X0.0007*%
%ADD80R,0.0297X0.0007*%
%ADD81R,0.0340X0.0007*%
%ADD82R,0.0149X0.0007*%
%ADD83R,0.0135X0.0007*%
%ADD84R,0.0142X0.0007*%
%ADD85R,0.0312X0.0007*%
%ADD86R,0.0156X0.0007*%
%ADD87R,0.0340X0.0007*%
%ADD88R,0.0142X0.0007*%
%ADD89R,0.0120X0.0007*%
%ADD90R,0.0142X0.0007*%
%ADD91R,0.0326X0.0007*%
%ADD92R,0.0149X0.0007*%
%ADD93R,0.0142X0.0007*%
%ADD94R,0.0106X0.0007*%
%ADD95R,0.0127X0.0007*%
%ADD96R,0.0135X0.0007*%
%ADD97R,0.0113X0.0007*%
%ADD98R,0.0163X0.0007*%
%ADD99R,0.0163X0.0007*%
%ADD100R,0.0156X0.0007*%
%ADD101R,0.0113X0.0007*%
%ADD102R,0.0120X0.0007*%
%ADD103R,0.0163X0.0007*%
%ADD104R,0.0163X0.0007*%
%ADD105R,0.0085X0.0007*%
%ADD106R,0.0170X0.0007*%
%ADD107R,0.0177X0.0007*%
%ADD108R,0.0085X0.0007*%
%ADD109R,0.0078X0.0007*%
%ADD110R,0.0177X0.0007*%
%ADD111R,0.0106X0.0007*%
%ADD112R,0.0113X0.0007*%
%ADD113R,0.0085X0.0007*%
%ADD114R,0.0177X0.0007*%
%ADD115R,0.0085X0.0007*%
%ADD116R,0.0177X0.0007*%
%ADD117R,0.0177X0.0007*%
%ADD118R,0.0099X0.0007*%
%ADD119R,0.0184X0.0007*%
%ADD120R,0.0099X0.0007*%
%ADD121R,0.0368X0.0007*%
%ADD122R,0.0191X0.0007*%
%ADD123R,0.0368X0.0007*%
%ADD124R,0.0163X0.0007*%
%ADD125R,0.0184X0.0007*%
%ADD126R,0.0368X0.0007*%
%ADD127R,0.0290X0.0007*%
%ADD128R,0.0113X0.0007*%
%ADD129R,0.0085X0.0007*%
%ADD130R,0.0368X0.0007*%
%ADD131R,0.0276X0.0007*%
%ADD132R,0.0361X0.0007*%
%ADD133R,0.0255X0.0007*%
%ADD134R,0.0085X0.0007*%
%ADD135R,0.0361X0.0007*%
%ADD136R,0.0220X0.0007*%
%ADD137R,0.0361X0.0007*%
%ADD138R,0.0099X0.0007*%
%ADD139R,0.0106X0.0007*%
%ADD140R,0.0106X0.0007*%
%ADD141R,0.0120X0.0007*%
%ADD142R,0.0219X0.0007*%
%ADD143R,0.0142X0.0007*%
%ADD144R,0.0219X0.0007*%
%ADD145R,0.0312X0.0007*%
%ADD146R,0.0219X0.0007*%
%ADD147R,0.0347X0.0007*%
%ADD148R,0.0312X0.0007*%
%ADD149R,0.0304X0.0007*%
%ADD150R,0.0340X0.0007*%
%ADD151R,0.0312X0.0007*%
%ADD152R,0.0234X0.0007*%
%ADD153R,0.0297X0.0007*%
%ADD154R,0.0219X0.0007*%
%ADD155R,0.0312X0.0007*%
%ADD156R,0.0227X0.0007*%
%ADD157R,0.0283X0.0007*%
%ADD158R,0.0290X0.0007*%
%ADD159R,0.0269X0.0007*%
%ADD160R,0.0205X0.0007*%
%ADD161R,0.0184X0.0007*%
%ADD162R,0.0255X0.0007*%
%ADD163R,0.0198X0.0007*%
%ADD164R,0.0191X0.0007*%
%ADD165R,0.0184X0.0007*%
%ADD166R,0.0241X0.0007*%
%ADD167R,0.0255X0.0007*%
%ADD168R,0.0191X0.0007*%
%ADD169R,0.0198X0.0007*%
%ADD170R,0.0184X0.0007*%
%ADD171R,0.0234X0.0007*%
%ADD172R,0.0212X0.0007*%
%ADD173R,0.0184X0.0007*%
%ADD174R,0.0170X0.0007*%
%ADD175R,0.0170X0.0007*%
%ADD176R,0.0156X0.0007*%
%ADD177R,0.0035X0.0007*%
%ADD178R,0.0170X0.0007*%
%ADD179R,0.0042X0.0007*%
%ADD180R,0.0064X0.0007*%
%ADD181R,0.0028X0.0007*%
%ADD182R,0.0035X0.0007*%
%ADD183R,0.0156X0.0007*%
%ADD184R,0.0177X0.0007*%
%ADD185R,0.0170X0.0007*%
%ADD186R,0.0028X0.0007*%
%ADD187R,0.0028X0.0007*%
%ADD188R,0.0057X0.0007*%
%ADD189R,0.0057X0.0007*%
%ADD190R,0.0042X0.0007*%
%ADD191R,0.0043X0.0007*%
%ADD192R,0.0050X0.0007*%
%ADD193R,0.0050X0.0007*%
%ADD194R,0.0043X0.0007*%
%ADD195R,0.0043X0.0007*%
%ADD196R,0.0035X0.0007*%
%ADD197R,0.0035X0.0007*%
%ADD198R,0.0078X0.0007*%
%ADD199R,0.0064X0.0007*%
D10*
X001150Y001386D02*
X001283Y001386D01*
X001371Y001386D02*
X001371Y001586D01*
X001471Y001586D01*
X001504Y001553D01*
X001504Y001486D01*
X001471Y001453D01*
X001371Y001453D01*
X001150Y001386D02*
X001150Y001586D01*
X001592Y001586D02*
X001592Y001386D01*
X001659Y001453D01*
X001725Y001386D01*
X001725Y001586D01*
X002004Y001719D02*
X002004Y001785D01*
X002038Y001819D01*
X002104Y001785D02*
X002104Y001719D01*
X002071Y001685D01*
X002038Y001685D01*
X002004Y001719D01*
X002104Y001785D02*
X002138Y001819D01*
X002171Y001819D01*
X002204Y001785D01*
X002204Y001719D01*
X002171Y001685D01*
X002171Y001906D02*
X002038Y001906D01*
X002004Y001940D01*
X002004Y002006D01*
X002038Y002040D01*
X002004Y002127D02*
X002204Y002127D01*
X002204Y002261D01*
X002171Y002040D02*
X002204Y002006D01*
X002204Y001940D01*
X002171Y001906D01*
X001804Y002370D02*
X001671Y002370D01*
X001671Y002571D01*
X001583Y002537D02*
X001550Y002571D01*
X001483Y002571D01*
X001450Y002537D01*
X001450Y002404D01*
X001483Y002370D01*
X001550Y002370D01*
X001583Y002404D01*
X001362Y002404D02*
X001329Y002370D01*
X001262Y002370D01*
X001229Y002404D01*
X001262Y002470D02*
X001329Y002470D01*
X001362Y002437D01*
X001362Y002404D01*
X001262Y002470D02*
X001229Y002504D01*
X001229Y002537D01*
X001262Y002571D01*
X001329Y002571D01*
X001362Y002537D01*
X002012Y002679D02*
X002045Y002646D01*
X002079Y002646D01*
X002112Y002679D01*
X002112Y002746D01*
X002146Y002779D01*
X002179Y002779D01*
X002212Y002746D01*
X002212Y002679D01*
X002179Y002646D01*
X002012Y002679D02*
X002012Y002746D01*
X002045Y002779D01*
X002012Y002867D02*
X002012Y002967D01*
X002045Y003000D01*
X002179Y003000D01*
X002212Y002967D01*
X002212Y002867D01*
X002012Y002867D01*
X002079Y003088D02*
X002012Y003155D01*
X002079Y003221D01*
X002212Y003221D01*
X002112Y003221D02*
X002112Y003088D01*
X002079Y003088D02*
X002212Y003088D01*
X001765Y003394D02*
X001765Y003527D01*
X001698Y003594D01*
X001631Y003527D01*
X001631Y003394D01*
X001544Y003427D02*
X001544Y003561D01*
X001510Y003594D01*
X001410Y003594D01*
X001410Y003394D01*
X001510Y003394D01*
X001544Y003427D01*
X001631Y003494D02*
X001765Y003494D01*
X002012Y003624D02*
X002012Y003691D01*
X002045Y003724D01*
X002012Y003691D01*
X002012Y003624D01*
X002045Y003591D01*
X002179Y003591D01*
X002212Y003624D01*
X002212Y003691D01*
X002179Y003724D01*
X002112Y003724D01*
X002112Y003658D01*
X002112Y003724D01*
X002179Y003724D01*
X002212Y003691D01*
X002212Y003624D01*
X002179Y003591D01*
X002045Y003591D01*
X002012Y003624D01*
X002012Y003812D02*
X002212Y003945D01*
X002012Y003945D01*
X002212Y003945D01*
X002012Y003812D01*
X002212Y003812D01*
X002012Y003812D01*
X002012Y004033D02*
X002012Y004133D01*
X002045Y004166D01*
X002179Y004166D01*
X002212Y004133D01*
X002212Y004033D01*
X002012Y004033D01*
X002012Y004133D01*
X002045Y004166D01*
X002179Y004166D01*
X002212Y004133D01*
X002212Y004033D01*
X002012Y004033D01*
X001692Y004378D02*
X001592Y004378D01*
X001592Y004578D01*
X001692Y004578D01*
X001725Y004545D01*
X001725Y004412D01*
X001692Y004378D01*
X001504Y004378D02*
X001504Y004578D01*
X001371Y004578D02*
X001504Y004378D01*
X001371Y004378D02*
X001371Y004578D01*
X001283Y004545D02*
X001250Y004578D01*
X001183Y004578D01*
X001150Y004545D01*
X001150Y004412D01*
X001183Y004378D01*
X001250Y004378D01*
X001283Y004412D01*
X001283Y004478D01*
X001217Y004478D01*
X002016Y004660D02*
X002149Y004660D01*
X002216Y004727D01*
X002149Y004794D01*
X002016Y004794D01*
X002049Y004881D02*
X002183Y004881D01*
X002216Y004915D01*
X002216Y004981D01*
X002183Y005015D01*
X002049Y005015D02*
X002016Y004981D01*
X002016Y004915D01*
X002049Y004881D01*
X002335Y004828D02*
X002335Y004628D01*
X002335Y004695D02*
X002435Y004695D01*
X002469Y004728D01*
X002469Y004795D01*
X002435Y004828D01*
X002335Y004828D01*
X002402Y004695D02*
X002469Y004628D01*
X002556Y004628D02*
X002690Y004761D01*
X002690Y004795D01*
X002656Y004828D01*
X002590Y004828D01*
X002556Y004795D01*
X002556Y004628D02*
X002690Y004628D01*
X002690Y005076D02*
X002823Y005076D01*
X002911Y005076D02*
X002911Y005109D01*
X003044Y005243D01*
X003044Y005276D01*
X002911Y005276D01*
X002823Y005276D02*
X002690Y005276D01*
X002690Y005076D01*
X002690Y005176D02*
X002756Y005176D01*
X002911Y005076D02*
X003044Y005076D01*
X003132Y005176D02*
X003265Y005176D01*
X003353Y005276D02*
X003419Y005276D01*
X003386Y005276D02*
X003386Y005076D01*
X003353Y005076D02*
X003419Y005076D01*
X003500Y005076D02*
X003633Y005210D01*
X003633Y005243D01*
X003600Y005276D01*
X003533Y005276D01*
X003500Y005243D01*
X003721Y005243D02*
X003721Y005109D01*
X003754Y005076D01*
X003821Y005076D01*
X003854Y005109D01*
X003854Y005243D02*
X003821Y005276D01*
X003754Y005276D01*
X003721Y005243D01*
X003633Y005076D02*
X003500Y005076D01*
X003560Y004916D02*
X003426Y004916D01*
X003426Y004716D01*
X003560Y004716D01*
X003647Y004716D02*
X003647Y004916D01*
X003714Y004850D01*
X003781Y004916D01*
X003781Y004716D01*
X003868Y004716D02*
X003868Y004916D01*
X003968Y004916D01*
X004002Y004883D01*
X004002Y004816D01*
X003968Y004783D01*
X003868Y004783D01*
X003493Y004816D02*
X003426Y004816D01*
X003339Y004916D02*
X003205Y004916D01*
X003272Y004916D02*
X003272Y004716D01*
X004163Y005076D02*
X004163Y005276D01*
X004296Y005076D01*
X004296Y005276D01*
X004384Y005243D02*
X004384Y005109D01*
X004417Y005076D01*
X004484Y005076D01*
X004517Y005109D01*
X004517Y005243D01*
X004484Y005276D01*
X004417Y005276D01*
X004384Y005243D01*
X004605Y005276D02*
X004738Y005076D01*
X004738Y005276D01*
X004605Y005276D02*
X004605Y005076D01*
X004665Y004916D02*
X004531Y004916D01*
X004531Y004716D01*
X004665Y004716D01*
X004752Y004716D02*
X004752Y004916D01*
X004886Y004716D01*
X004886Y004916D01*
X004973Y004883D02*
X004973Y004850D01*
X005007Y004816D01*
X005073Y004816D01*
X005107Y004783D01*
X005107Y004749D01*
X005073Y004716D01*
X005007Y004716D01*
X004973Y004749D01*
X004973Y004883D02*
X005007Y004916D01*
X005073Y004916D01*
X005107Y004883D01*
X005194Y004883D02*
X005228Y004916D01*
X005294Y004916D01*
X005328Y004883D01*
X005328Y004749D01*
X005294Y004716D01*
X005228Y004716D01*
X005194Y004749D01*
X005194Y004883D01*
X005147Y005076D02*
X005180Y005109D01*
X005147Y005076D02*
X005080Y005076D01*
X005047Y005109D01*
X005047Y005243D01*
X005080Y005276D01*
X005147Y005276D01*
X005180Y005243D01*
X005268Y005243D02*
X005268Y005109D01*
X005301Y005076D01*
X005368Y005076D01*
X005401Y005109D01*
X005401Y005243D01*
X005368Y005276D01*
X005301Y005276D01*
X005268Y005243D01*
X005489Y005276D02*
X005622Y005076D01*
X005622Y005276D01*
X005710Y005276D02*
X005843Y005276D01*
X005777Y005276D02*
X005777Y005076D01*
X005931Y005076D02*
X005931Y005210D01*
X005998Y005276D01*
X006064Y005210D01*
X006064Y005076D01*
X006152Y005109D02*
X006185Y005076D01*
X006252Y005076D01*
X006285Y005109D01*
X006152Y005109D02*
X006152Y005243D01*
X006185Y005276D01*
X006252Y005276D01*
X006285Y005243D01*
X006373Y005276D02*
X006506Y005276D01*
X006440Y005276D02*
X006440Y005076D01*
X006145Y004916D02*
X006145Y004716D01*
X006078Y004716D02*
X006212Y004716D01*
X006078Y004850D02*
X006145Y004916D01*
X005991Y004916D02*
X005991Y004783D01*
X005924Y004716D01*
X005857Y004783D01*
X005857Y004916D01*
X005931Y005176D02*
X006064Y005176D01*
X005549Y004883D02*
X005549Y004816D01*
X005515Y004783D01*
X005415Y004783D01*
X005415Y004716D02*
X005415Y004916D01*
X005515Y004916D01*
X005549Y004883D01*
X005482Y004783D02*
X005549Y004716D01*
X005489Y005076D02*
X005489Y005276D01*
X004598Y004816D02*
X004531Y004816D01*
X004444Y004783D02*
X004444Y004749D01*
X004410Y004716D01*
X004344Y004716D01*
X004310Y004749D01*
X004344Y004816D02*
X004410Y004816D01*
X004444Y004783D01*
X004444Y004883D02*
X004410Y004916D01*
X004344Y004916D01*
X004310Y004883D01*
X004310Y004850D01*
X004344Y004816D01*
X003318Y006260D02*
X003184Y006260D01*
X003251Y006260D02*
X003251Y006460D01*
X003184Y006393D01*
X003097Y006426D02*
X003097Y006360D01*
X003064Y006326D01*
X002963Y006326D01*
X002963Y006260D02*
X002963Y006460D01*
X003064Y006460D01*
X003097Y006426D01*
X003030Y006326D02*
X003097Y006260D01*
X002200Y006116D02*
X002000Y006116D01*
X002000Y006182D02*
X002000Y006049D01*
X002067Y005961D02*
X002200Y005961D01*
X002100Y005961D02*
X002100Y005828D01*
X002067Y005828D02*
X002000Y005895D01*
X002067Y005961D01*
X002067Y005828D02*
X002200Y005828D01*
X002167Y005740D02*
X002200Y005707D01*
X002200Y005607D01*
X002000Y005607D01*
X002000Y005707D01*
X002034Y005740D01*
X002067Y005740D01*
X002100Y005707D01*
X002100Y005607D01*
X002100Y005707D02*
X002134Y005740D01*
X002167Y005740D01*
X001765Y005529D02*
X001731Y005563D01*
X001665Y005563D01*
X001631Y005529D01*
X001631Y005396D01*
X001665Y005363D01*
X001731Y005363D01*
X001765Y005396D01*
X001544Y005396D02*
X001510Y005363D01*
X001444Y005363D01*
X001410Y005396D01*
X001410Y005529D01*
X001444Y005563D01*
X001510Y005563D01*
X001544Y005529D01*
X001323Y005563D02*
X001323Y005429D01*
X001256Y005363D01*
X001189Y005429D01*
X001189Y005563D01*
X002016Y005202D02*
X002016Y005136D01*
X002049Y005102D01*
X002183Y005102D01*
X002216Y005136D01*
X002216Y005202D01*
X002183Y005236D01*
X002049Y005236D02*
X002016Y005202D01*
X001737Y006386D02*
X001737Y006586D01*
X001671Y006586D02*
X001804Y006586D01*
X001583Y006520D02*
X001583Y006386D01*
X001583Y006486D02*
X001450Y006486D01*
X001450Y006520D02*
X001516Y006586D01*
X001583Y006520D01*
X001450Y006520D02*
X001450Y006386D01*
X001362Y006420D02*
X001329Y006386D01*
X001229Y006386D01*
X001229Y006586D01*
X001329Y006586D01*
X001362Y006553D01*
X001362Y006520D01*
X001329Y006486D01*
X001229Y006486D01*
X001329Y006486D02*
X001362Y006453D01*
X001362Y006420D01*
X001289Y003594D02*
X001223Y003594D01*
X001189Y003561D01*
X001189Y003527D01*
X001223Y003494D01*
X001289Y003494D01*
X001323Y003461D01*
X001323Y003427D01*
X001289Y003394D01*
X001223Y003394D01*
X001189Y003427D01*
X001323Y003561D02*
X001289Y003594D01*
X002012Y001214D02*
X002212Y001214D01*
X002146Y001147D01*
X002212Y001080D01*
X002012Y001080D01*
X002045Y000993D02*
X002112Y000993D01*
X002146Y000959D01*
X002146Y000859D01*
X002212Y000859D02*
X002012Y000859D01*
X002012Y000959D01*
X002045Y000993D01*
X002212Y000772D02*
X002212Y000638D01*
X002012Y000638D01*
X002516Y000834D02*
X002516Y000967D01*
X002550Y001000D01*
X002617Y001000D01*
X002650Y000967D01*
X002737Y000934D02*
X002804Y001000D01*
X002804Y000800D01*
X002737Y000800D02*
X002871Y000800D01*
X002650Y000834D02*
X002617Y000800D01*
X002550Y000800D01*
X002516Y000834D01*
X005101Y000882D02*
X005101Y001083D01*
X005201Y001083D01*
X005235Y001049D01*
X005235Y000982D01*
X005201Y000949D01*
X005101Y000949D01*
X005168Y000949D02*
X005235Y000882D01*
X005322Y000916D02*
X005356Y000882D01*
X005422Y000882D01*
X005456Y000916D01*
X005456Y000982D01*
X005422Y001016D01*
X005389Y001016D01*
X005322Y000982D01*
X005322Y001083D01*
X005456Y001083D01*
X007288Y001123D02*
X007488Y001123D01*
X007421Y001190D01*
X007488Y001257D01*
X007288Y001257D01*
X007321Y001036D02*
X007388Y001036D01*
X007421Y001002D01*
X007421Y000902D01*
X007488Y000902D02*
X007288Y000902D01*
X007288Y001002D01*
X007321Y001036D01*
X007488Y000815D02*
X007488Y000681D01*
X007288Y000681D01*
X007650Y001386D02*
X007783Y001386D01*
X007871Y001386D02*
X007871Y001586D01*
X007971Y001586D01*
X008004Y001553D01*
X008004Y001486D01*
X007971Y001453D01*
X007871Y001453D01*
X008092Y001386D02*
X008092Y001586D01*
X008225Y001586D02*
X008225Y001386D01*
X008159Y001453D01*
X008092Y001386D01*
X007650Y001386D02*
X007650Y001586D01*
X007455Y001744D02*
X007488Y001778D01*
X007488Y001844D01*
X007455Y001878D01*
X007421Y001878D01*
X007388Y001844D01*
X007388Y001778D01*
X007354Y001744D01*
X007321Y001744D01*
X007288Y001778D01*
X007288Y001844D01*
X007321Y001878D01*
X007321Y001965D02*
X007455Y001965D01*
X007488Y001999D01*
X007488Y002065D01*
X007455Y002099D01*
X007488Y002186D02*
X007288Y002186D01*
X007321Y002099D02*
X007288Y002065D01*
X007288Y001999D01*
X007321Y001965D01*
X007488Y002186D02*
X007488Y002320D01*
X007729Y002404D02*
X007762Y002370D01*
X007829Y002370D01*
X007862Y002404D01*
X007862Y002437D01*
X007829Y002470D01*
X007762Y002470D01*
X007729Y002504D01*
X007729Y002537D01*
X007762Y002571D01*
X007829Y002571D01*
X007862Y002537D01*
X007950Y002537D02*
X007950Y002404D01*
X007983Y002370D01*
X008050Y002370D01*
X008083Y002404D01*
X008171Y002370D02*
X008304Y002370D01*
X008171Y002370D02*
X008171Y002571D01*
X008083Y002537D02*
X008050Y002571D01*
X007983Y002571D01*
X007950Y002537D01*
X007488Y002723D02*
X007455Y002689D01*
X007488Y002723D02*
X007488Y002789D01*
X007455Y002823D01*
X007421Y002823D01*
X007388Y002789D01*
X007388Y002723D01*
X007354Y002689D01*
X007321Y002689D01*
X007288Y002723D01*
X007288Y002789D01*
X007321Y002823D01*
X007288Y002910D02*
X007288Y003010D01*
X007321Y003044D01*
X007455Y003044D01*
X007488Y003010D01*
X007488Y002910D01*
X007288Y002910D01*
X007354Y003131D02*
X007288Y003198D01*
X007354Y003265D01*
X007488Y003265D01*
X007388Y003265D02*
X007388Y003131D01*
X007354Y003131D02*
X007488Y003131D01*
X007723Y003394D02*
X007689Y003427D01*
X007723Y003394D02*
X007789Y003394D01*
X007823Y003427D01*
X007823Y003461D01*
X007789Y003494D01*
X007723Y003494D01*
X007689Y003527D01*
X007689Y003561D01*
X007723Y003594D01*
X007789Y003594D01*
X007823Y003561D01*
X007910Y003594D02*
X008010Y003594D01*
X008044Y003561D01*
X008044Y003427D01*
X008010Y003394D01*
X007910Y003394D01*
X007910Y003594D01*
X008131Y003527D02*
X008131Y003394D01*
X008265Y003394D02*
X008265Y003527D01*
X008198Y003594D01*
X008131Y003527D01*
X008131Y003494D02*
X008265Y003494D01*
X007488Y003707D02*
X007488Y003774D01*
X007455Y003807D01*
X007388Y003807D01*
X007388Y003740D01*
X007321Y003674D02*
X007455Y003674D01*
X007488Y003707D01*
X007321Y003674D02*
X007288Y003707D01*
X007288Y003774D01*
X007321Y003807D01*
X007288Y003895D02*
X007488Y004028D01*
X007288Y004028D01*
X007288Y004116D02*
X007288Y004216D01*
X007321Y004249D01*
X007455Y004249D01*
X007488Y004216D01*
X007488Y004116D01*
X007288Y004116D01*
X007288Y003895D02*
X007488Y003895D01*
X007683Y004378D02*
X007750Y004378D01*
X007783Y004412D01*
X007783Y004478D01*
X007717Y004478D01*
X007783Y004545D02*
X007750Y004578D01*
X007683Y004578D01*
X007650Y004545D01*
X007650Y004412D01*
X007683Y004378D01*
X007871Y004378D02*
X007871Y004578D01*
X008004Y004378D01*
X008004Y004578D01*
X008092Y004578D02*
X008192Y004578D01*
X008225Y004545D01*
X008225Y004412D01*
X008192Y004378D01*
X008092Y004378D01*
X008092Y004578D01*
X007488Y004725D02*
X007421Y004791D01*
X007288Y004791D01*
X007321Y004879D02*
X007455Y004879D01*
X007488Y004912D01*
X007488Y004979D01*
X007455Y005012D01*
X007455Y005100D02*
X007321Y005100D01*
X007288Y005133D01*
X007288Y005200D01*
X007321Y005233D01*
X007455Y005233D02*
X007488Y005200D01*
X007488Y005133D01*
X007455Y005100D01*
X007321Y005012D02*
X007288Y004979D01*
X007288Y004912D01*
X007321Y004879D01*
X007488Y004725D02*
X007421Y004658D01*
X007288Y004658D01*
X007756Y005363D02*
X007823Y005429D01*
X007823Y005563D01*
X007910Y005529D02*
X007910Y005396D01*
X007944Y005363D01*
X008010Y005363D01*
X008044Y005396D01*
X008131Y005396D02*
X008165Y005363D01*
X008231Y005363D01*
X008265Y005396D01*
X008131Y005396D02*
X008131Y005529D01*
X008165Y005563D01*
X008231Y005563D01*
X008265Y005529D01*
X008044Y005529D02*
X008010Y005563D01*
X007944Y005563D01*
X007910Y005529D01*
X007689Y005563D02*
X007689Y005429D01*
X007756Y005363D01*
X007464Y005807D02*
X007264Y005807D01*
X007264Y005907D01*
X007297Y005941D01*
X007331Y005941D01*
X007364Y005907D01*
X007364Y005807D01*
X007464Y005807D02*
X007464Y005907D01*
X007431Y005941D01*
X007398Y005941D01*
X007364Y005907D01*
X007364Y006028D02*
X007364Y006162D01*
X007331Y006162D02*
X007264Y006095D01*
X007331Y006028D01*
X007464Y006028D01*
X007464Y006162D02*
X007331Y006162D01*
X007264Y006249D02*
X007264Y006383D01*
X007264Y006316D02*
X007464Y006316D01*
X007729Y006386D02*
X007829Y006386D01*
X007862Y006420D01*
X007862Y006453D01*
X007829Y006486D01*
X007729Y006486D01*
X007829Y006486D02*
X007862Y006520D01*
X007862Y006553D01*
X007829Y006586D01*
X007729Y006586D01*
X007729Y006386D01*
X007950Y006386D02*
X007950Y006520D01*
X008016Y006586D01*
X008083Y006520D01*
X008083Y006386D01*
X008083Y006486D02*
X007950Y006486D01*
X008171Y006586D02*
X008304Y006586D01*
X008237Y006586D02*
X008237Y006386D01*
X007009Y006358D02*
X007009Y006325D01*
X006975Y006292D01*
X007009Y006258D01*
X007009Y006225D01*
X006975Y006192D01*
X006909Y006192D01*
X006875Y006225D01*
X006788Y006192D02*
X006721Y006258D01*
X006754Y006258D02*
X006654Y006258D01*
X006654Y006192D02*
X006654Y006392D01*
X006754Y006392D01*
X006788Y006358D01*
X006788Y006292D01*
X006754Y006258D01*
X006875Y006358D02*
X006909Y006392D01*
X006975Y006392D01*
X007009Y006358D01*
X006975Y006292D02*
X006942Y006292D01*
X006647Y003311D02*
X006547Y003211D01*
X006680Y003211D01*
X006647Y003111D02*
X006647Y003311D01*
X006459Y003278D02*
X006459Y003211D01*
X006426Y003177D01*
X006326Y003177D01*
X006326Y003111D02*
X006326Y003311D01*
X006426Y003311D01*
X006459Y003278D01*
X006392Y003177D02*
X006459Y003111D01*
D11*
X005248Y003119D02*
X004548Y003119D01*
X004548Y003819D01*
X005248Y003819D01*
X005248Y003119D01*
D12*
X005331Y003199D02*
X005333Y003210D01*
X005338Y003221D01*
X005346Y003229D01*
X005357Y003234D01*
X005368Y003236D01*
X005379Y003234D01*
X005390Y003229D01*
X005398Y003221D01*
X005403Y003210D01*
X005405Y003199D01*
X005403Y003188D01*
X005398Y003177D01*
X005390Y003169D01*
X005379Y003164D01*
X005368Y003162D01*
X005357Y003164D01*
X005346Y003169D01*
X005338Y003177D01*
X005333Y003188D01*
X005331Y003199D01*
D13*
X004675Y002729D02*
X004529Y002729D01*
X004602Y002729D02*
X004602Y002949D01*
X004529Y002875D01*
X004454Y002949D02*
X004454Y002765D01*
X004418Y002729D01*
X004344Y002729D01*
X004308Y002765D01*
X004308Y002949D01*
D14*
X006142Y001196D03*
X006039Y006076D03*
X003949Y006110D03*
D15*
X002473Y003984D03*
X007005Y003591D03*
D16*
X003500Y001166D02*
X003500Y001142D01*
D17*
X001250Y000579D02*
X001079Y000750D01*
X001079Y001250D01*
X001132Y001500D01*
X001079Y001750D01*
X001079Y002250D01*
X001132Y002500D01*
X001079Y002750D01*
X001079Y003250D01*
X001132Y003500D01*
X001079Y003750D01*
X001079Y004250D01*
X001132Y004500D01*
X001079Y004750D01*
X001079Y005250D01*
X001132Y005500D01*
X001079Y005750D01*
X001079Y006250D01*
X001250Y006618D01*
X001750Y006618D01*
X001921Y006250D01*
X001921Y005750D01*
X001868Y005500D01*
X001921Y005250D01*
X001921Y004750D01*
X001868Y004500D01*
X001921Y004250D01*
X001921Y003750D01*
X001868Y003500D01*
X001921Y003250D01*
X001921Y002750D01*
X001868Y002500D01*
X001921Y002250D01*
X001921Y001750D01*
X001868Y001500D01*
X001921Y001250D01*
X001921Y000750D01*
X001750Y000579D01*
X001250Y000579D01*
X007579Y000750D02*
X007750Y000579D01*
X008250Y000579D01*
X008421Y000750D01*
X008421Y001250D01*
X008368Y001500D01*
X008421Y001750D01*
X008421Y002250D01*
X008368Y002500D01*
X008421Y002750D01*
X008421Y003250D01*
X008368Y003500D01*
X008421Y003750D01*
X008421Y004250D01*
X008368Y004500D01*
X008421Y004750D01*
X008421Y005250D01*
X008368Y005500D01*
X008421Y005750D01*
X008421Y006250D01*
X008250Y006618D01*
X007750Y006618D01*
X007579Y006250D01*
X007579Y005750D01*
X007632Y005500D01*
X007579Y005250D01*
X007579Y004750D01*
X007632Y004500D01*
X007579Y004250D01*
X007579Y003750D01*
X007632Y003500D01*
X007579Y003250D01*
X007579Y002750D01*
X007632Y002500D01*
X007579Y002250D01*
X007579Y001750D01*
X007632Y001500D01*
X007579Y001250D01*
X007579Y000750D01*
D18*
X004845Y005335D03*
X003309Y005986D03*
X003294Y006029D03*
X003224Y005986D03*
X003224Y005979D03*
X003174Y005986D03*
X003160Y006029D03*
X003089Y005986D03*
X003089Y005979D03*
X003040Y005986D03*
X003025Y006029D03*
X002997Y005929D03*
X003132Y005929D03*
X003266Y005929D03*
X002891Y006029D03*
X002820Y005986D03*
X002820Y005979D03*
X002863Y005929D03*
D19*
X002859Y006078D03*
X005174Y005335D03*
D20*
X005645Y005738D03*
X005971Y005335D03*
D21*
X005971Y005342D03*
X006084Y005490D03*
X006084Y005505D03*
X006084Y005540D03*
X006084Y005554D03*
X006077Y005604D03*
X006226Y005604D03*
X006226Y005590D03*
X006226Y005554D03*
X006226Y005540D03*
X006226Y005505D03*
X006226Y005490D03*
X006226Y005455D03*
X006226Y005441D03*
X006226Y005412D03*
X006226Y005391D03*
X006226Y005363D03*
X006226Y005342D03*
X006226Y005632D03*
X006226Y005653D03*
X006226Y005682D03*
X006226Y005703D03*
X006226Y005781D03*
X006226Y005809D03*
X006226Y005830D03*
X006226Y005859D03*
X005815Y005590D03*
X005490Y005554D03*
X005490Y005540D03*
X005490Y005505D03*
X005490Y005490D03*
X005490Y005455D03*
X005490Y005441D03*
X005490Y005412D03*
X005490Y005391D03*
X005490Y005363D03*
X005490Y005342D03*
X005341Y005490D03*
X005341Y005505D03*
X005341Y005604D03*
X005341Y005632D03*
X005114Y005632D03*
X005107Y005490D03*
X004966Y005455D03*
X004958Y005441D03*
X004966Y005590D03*
X004951Y005632D03*
X004718Y005455D03*
X004711Y005590D03*
X004711Y005604D03*
X004583Y005632D03*
X004576Y005604D03*
X004569Y005590D03*
X004562Y005554D03*
X004555Y005540D03*
X004434Y005590D03*
X004420Y005653D03*
X004172Y005540D03*
X004229Y005342D03*
X004498Y005342D03*
X003804Y005342D03*
X003804Y005363D03*
X003804Y005391D03*
X003804Y005412D03*
X003804Y005441D03*
X003804Y005455D03*
X003804Y005490D03*
X003804Y005505D03*
X003804Y005540D03*
X003804Y005554D03*
X003804Y005590D03*
X003804Y005604D03*
X003556Y005604D03*
X003556Y005590D03*
X003408Y005590D03*
X003408Y005604D03*
X003408Y005632D03*
X003408Y005653D03*
X003408Y005682D03*
X003408Y005703D03*
X003408Y005781D03*
X003408Y005809D03*
X003408Y005830D03*
X003408Y005859D03*
X003259Y005682D03*
X003259Y005653D03*
X003259Y005632D03*
X003259Y005604D03*
X003259Y005590D03*
X003259Y005554D03*
X003259Y005540D03*
X003259Y005505D03*
X003259Y005490D03*
X003259Y005455D03*
X003259Y005441D03*
X003259Y005412D03*
X003259Y005391D03*
X003259Y005363D03*
X003259Y005342D03*
X003408Y005342D03*
X003408Y005363D03*
X003408Y005391D03*
X003408Y005412D03*
X003408Y005441D03*
X003408Y005455D03*
X003408Y005490D03*
X003408Y005505D03*
X003408Y005540D03*
X003408Y005554D03*
X002855Y005554D03*
X002855Y005540D03*
X002855Y005505D03*
X002855Y005490D03*
X002855Y005455D03*
X002855Y005441D03*
X002855Y005412D03*
X002855Y005391D03*
X002855Y005363D03*
X002855Y005342D03*
X002855Y005590D03*
X002855Y005604D03*
X002855Y005632D03*
X002855Y005653D03*
X002855Y005682D03*
D22*
X003057Y005342D03*
X003794Y005632D03*
X004126Y005703D03*
X004134Y005682D03*
X004141Y005653D03*
X004148Y005632D03*
X004155Y005604D03*
X004169Y005554D03*
X004119Y005731D03*
X004587Y005653D03*
X004594Y005682D03*
X004601Y005703D03*
X004622Y005781D03*
X004629Y005809D03*
X004636Y005830D03*
X004643Y005859D03*
X004721Y005632D03*
X004721Y005441D03*
X005337Y005455D03*
X005337Y005590D03*
X005606Y005703D03*
X005819Y005604D03*
X005819Y005455D03*
X005670Y005441D03*
X005670Y005412D03*
X005670Y005391D03*
X005670Y005363D03*
X005670Y005342D03*
X006074Y005455D03*
D23*
X005812Y005490D03*
X005812Y005505D03*
X005812Y005540D03*
X005812Y005554D03*
X005812Y005682D03*
X005812Y005703D03*
X005812Y005731D03*
X005812Y005781D03*
X005812Y005809D03*
X005812Y005830D03*
X005812Y005859D03*
X005486Y005703D03*
X005486Y005682D03*
X005104Y005604D03*
X004962Y005604D03*
X004707Y005490D03*
X004445Y005540D03*
X004445Y005554D03*
X004431Y005604D03*
X004424Y005632D03*
X004304Y005632D03*
X004296Y005604D03*
X004282Y005540D03*
X003949Y005540D03*
X003949Y005554D03*
X003949Y005590D03*
X003949Y005604D03*
X003949Y005632D03*
X003949Y005653D03*
X003949Y005682D03*
X003949Y005703D03*
X003949Y005781D03*
X003949Y005809D03*
X003949Y005830D03*
X003949Y005859D03*
X003553Y005703D03*
X003553Y005682D03*
X003553Y005554D03*
X003553Y005540D03*
X003553Y005505D03*
X003553Y005490D03*
X003553Y005455D03*
X003553Y005441D03*
X003553Y005412D03*
X003553Y005391D03*
X003553Y005363D03*
X003553Y005342D03*
X003949Y005342D03*
X003949Y005363D03*
X003949Y005391D03*
X003949Y005412D03*
X003949Y005441D03*
X003949Y005455D03*
X003949Y005490D03*
X003949Y005505D03*
X003263Y005958D03*
X002994Y005958D03*
X002859Y005958D03*
X002958Y005682D03*
X002965Y005653D03*
X002972Y005632D03*
X002994Y005554D03*
X002994Y005540D03*
X003008Y005490D03*
X003121Y005540D03*
X003149Y005653D03*
X003156Y005682D03*
X005812Y005391D03*
X005812Y005363D03*
X005812Y005342D03*
D24*
X005826Y005441D03*
X005826Y005632D03*
X005599Y005682D03*
X004842Y005731D03*
X004743Y005653D03*
X004842Y005342D03*
X006527Y005590D03*
D25*
X006495Y005554D03*
X006438Y005490D03*
X006396Y005441D03*
X006063Y005441D03*
X006063Y005632D03*
X005334Y005441D03*
X005171Y005342D03*
X005107Y005412D03*
X005121Y005505D03*
X005128Y005653D03*
X004498Y005363D03*
X004229Y005363D03*
X004102Y005809D03*
X004095Y005830D03*
X004088Y005859D03*
X003564Y005632D03*
D26*
X003132Y005590D03*
X003125Y005554D03*
X002983Y005590D03*
X005348Y005342D03*
D27*
X006477Y005342D03*
X006477Y005363D03*
X006477Y005391D03*
X006477Y005412D03*
D28*
X006226Y005398D03*
X006226Y005349D03*
X006226Y005448D03*
X006226Y005497D03*
X006226Y005547D03*
X006226Y005597D03*
X006226Y005646D03*
X006226Y005696D03*
X006226Y005816D03*
X006226Y005866D03*
X006077Y005597D03*
X006084Y005547D03*
X006084Y005497D03*
X005815Y005597D03*
X005490Y005547D03*
X005490Y005497D03*
X005490Y005448D03*
X005490Y005398D03*
X005490Y005349D03*
X005341Y005497D03*
X005341Y005597D03*
X005121Y005646D03*
X004966Y005597D03*
X004958Y005448D03*
X004718Y005448D03*
X004711Y005597D03*
X004583Y005646D03*
X004569Y005597D03*
X004597Y005696D03*
X004498Y005349D03*
X004229Y005349D03*
X004172Y005547D03*
X004158Y005597D03*
X004144Y005646D03*
X003804Y005597D03*
X003804Y005547D03*
X003804Y005497D03*
X003804Y005448D03*
X003804Y005398D03*
X003804Y005349D03*
X003556Y005597D03*
X003408Y005597D03*
X003408Y005646D03*
X003408Y005696D03*
X003408Y005816D03*
X003408Y005866D03*
X003259Y005646D03*
X003259Y005597D03*
X003259Y005547D03*
X003259Y005497D03*
X003259Y005448D03*
X003259Y005398D03*
X003259Y005349D03*
X003408Y005349D03*
X003408Y005398D03*
X003408Y005448D03*
X003408Y005497D03*
X003408Y005547D03*
X002855Y005547D03*
X002855Y005497D03*
X002855Y005448D03*
X002855Y005398D03*
X002855Y005349D03*
X002855Y005597D03*
X002855Y005646D03*
D29*
X003057Y005349D03*
X004098Y005816D03*
X004134Y005696D03*
X004629Y005816D03*
X004941Y005646D03*
X005111Y005497D03*
X005337Y005448D03*
X005330Y005646D03*
X005670Y005398D03*
X005670Y005349D03*
X006067Y005448D03*
D30*
X005812Y005497D03*
X005812Y005547D03*
X005812Y005696D03*
X005812Y005816D03*
X005812Y005866D03*
X005486Y005696D03*
X005812Y005349D03*
X004445Y005547D03*
X004431Y005597D03*
X004424Y005646D03*
X004296Y005597D03*
X003949Y005597D03*
X003949Y005646D03*
X003949Y005696D03*
X003949Y005816D03*
X003949Y005866D03*
X003949Y005547D03*
X003949Y005497D03*
X003949Y005448D03*
X003949Y005398D03*
X003949Y005349D03*
X003553Y005349D03*
X003553Y005398D03*
X003553Y005448D03*
X003553Y005497D03*
X003553Y005547D03*
X003553Y005696D03*
X003149Y005646D03*
X003135Y005597D03*
X002994Y005547D03*
X003008Y005497D03*
X002965Y005646D03*
D31*
X003227Y005816D03*
X004842Y005349D03*
D32*
X005174Y005349D03*
D33*
X005097Y005448D03*
X005344Y005349D03*
X004558Y005547D03*
X002979Y005597D03*
D34*
X004364Y005816D03*
X004498Y005398D03*
X005971Y005349D03*
D35*
X005932Y005398D03*
X006477Y005398D03*
X006477Y005349D03*
D36*
X006226Y005356D03*
X006226Y005370D03*
X006226Y005384D03*
X006226Y005405D03*
X006226Y005420D03*
X006226Y005434D03*
X006226Y005462D03*
X006226Y005469D03*
X006226Y005483D03*
X006226Y005512D03*
X006226Y005526D03*
X006226Y005533D03*
X006226Y005561D03*
X006226Y005575D03*
X006226Y005582D03*
X006226Y005611D03*
X006226Y005625D03*
X006226Y005639D03*
X006226Y005660D03*
X006226Y005674D03*
X006226Y005689D03*
X006226Y005710D03*
X006226Y005724D03*
X006226Y005774D03*
X006226Y005788D03*
X006226Y005802D03*
X006226Y005823D03*
X006226Y005837D03*
X006226Y005851D03*
X006084Y005582D03*
X006084Y005575D03*
X006084Y005561D03*
X006084Y005533D03*
X006084Y005526D03*
X006084Y005512D03*
X006077Y005469D03*
X005815Y005469D03*
X005815Y005483D03*
X005815Y005582D03*
X005610Y005710D03*
X005490Y005582D03*
X005490Y005575D03*
X005490Y005561D03*
X005490Y005533D03*
X005490Y005526D03*
X005490Y005512D03*
X005490Y005483D03*
X005490Y005469D03*
X005490Y005462D03*
X005490Y005434D03*
X005490Y005420D03*
X005490Y005405D03*
X005490Y005384D03*
X005490Y005370D03*
X005490Y005356D03*
X005341Y005462D03*
X005341Y005469D03*
X005341Y005483D03*
X005341Y005512D03*
X005341Y005611D03*
X005341Y005625D03*
X005334Y005639D03*
X005114Y005639D03*
X004966Y005582D03*
X005100Y005469D03*
X005100Y005434D03*
X004711Y005462D03*
X004711Y005469D03*
X004555Y005533D03*
X004562Y005561D03*
X004569Y005582D03*
X004576Y005611D03*
X004576Y005625D03*
X004583Y005639D03*
X004590Y005660D03*
X004590Y005674D03*
X004597Y005689D03*
X004604Y005724D03*
X004611Y005752D03*
X004619Y005774D03*
X004626Y005802D03*
X004633Y005823D03*
X004640Y005851D03*
X004711Y005611D03*
X004449Y005533D03*
X004442Y005561D03*
X004180Y005526D03*
X004165Y005575D03*
X004151Y005625D03*
X004137Y005674D03*
X003804Y005582D03*
X003804Y005575D03*
X003804Y005561D03*
X003804Y005533D03*
X003804Y005526D03*
X003804Y005512D03*
X003804Y005483D03*
X003804Y005469D03*
X003804Y005462D03*
X003804Y005434D03*
X003804Y005420D03*
X003804Y005405D03*
X003804Y005384D03*
X003804Y005370D03*
X003804Y005356D03*
X003556Y005582D03*
X003408Y005582D03*
X003408Y005575D03*
X003408Y005561D03*
X003408Y005533D03*
X003408Y005526D03*
X003408Y005512D03*
X003408Y005483D03*
X003408Y005469D03*
X003408Y005462D03*
X003408Y005434D03*
X003408Y005420D03*
X003408Y005405D03*
X003408Y005384D03*
X003408Y005370D03*
X003408Y005356D03*
X003259Y005356D03*
X003259Y005370D03*
X003259Y005384D03*
X003259Y005405D03*
X003259Y005420D03*
X003259Y005434D03*
X003259Y005462D03*
X003259Y005469D03*
X003259Y005483D03*
X003259Y005512D03*
X003259Y005526D03*
X003259Y005533D03*
X003259Y005561D03*
X003259Y005575D03*
X003259Y005582D03*
X003259Y005611D03*
X003259Y005625D03*
X003259Y005639D03*
X003259Y005660D03*
X003259Y005674D03*
X003259Y005689D03*
X003408Y005689D03*
X003408Y005674D03*
X003408Y005660D03*
X003408Y005639D03*
X003408Y005625D03*
X003408Y005611D03*
X003408Y005710D03*
X003408Y005724D03*
X003408Y005774D03*
X003408Y005788D03*
X003408Y005802D03*
X003408Y005823D03*
X003408Y005837D03*
X003408Y005851D03*
X002855Y005689D03*
X002855Y005674D03*
X002855Y005660D03*
X002855Y005639D03*
X002855Y005625D03*
X002855Y005611D03*
X002855Y005582D03*
X002855Y005575D03*
X002855Y005561D03*
X002855Y005533D03*
X002855Y005526D03*
X002855Y005512D03*
X002855Y005483D03*
X002855Y005469D03*
X002855Y005462D03*
X002855Y005434D03*
X002855Y005420D03*
X002855Y005405D03*
X002855Y005384D03*
X002855Y005370D03*
X002855Y005356D03*
D37*
X003057Y005356D03*
X003560Y005611D03*
X003801Y005611D03*
X003801Y005625D03*
X004098Y005823D03*
X004091Y005851D03*
X004105Y005788D03*
X004119Y005738D03*
X004126Y005724D03*
X004126Y005710D03*
X004134Y005689D03*
X004141Y005660D03*
X004148Y005639D03*
X004155Y005611D03*
X004169Y005561D03*
X004176Y005533D03*
X004226Y005356D03*
X004601Y005710D03*
X004615Y005759D03*
X004622Y005788D03*
X004636Y005837D03*
X004728Y005639D03*
X004721Y005625D03*
X004728Y005434D03*
X004955Y005434D03*
X005104Y005420D03*
X005670Y005420D03*
X005670Y005434D03*
X005670Y005405D03*
X005670Y005384D03*
X005670Y005370D03*
X005670Y005356D03*
X005819Y005462D03*
X005819Y005611D03*
X006067Y005625D03*
X006074Y005611D03*
X006074Y005462D03*
D38*
X005812Y005512D03*
X005812Y005526D03*
X005812Y005533D03*
X005812Y005561D03*
X005812Y005575D03*
X005812Y005674D03*
X005812Y005689D03*
X005812Y005710D03*
X005812Y005724D03*
X005812Y005738D03*
X005812Y005752D03*
X005812Y005759D03*
X005812Y005774D03*
X005812Y005788D03*
X005812Y005802D03*
X005812Y005823D03*
X005812Y005837D03*
X005812Y005851D03*
X005486Y005724D03*
X005486Y005710D03*
X005486Y005689D03*
X005111Y005625D03*
X005104Y005483D03*
X004969Y005575D03*
X004962Y005611D03*
X004955Y005625D03*
X004707Y005483D03*
X004551Y005526D03*
X004565Y005575D03*
X004452Y005526D03*
X004438Y005575D03*
X004438Y005582D03*
X004431Y005611D03*
X004424Y005625D03*
X004424Y005639D03*
X004417Y005660D03*
X004417Y005674D03*
X004304Y005639D03*
X004304Y005625D03*
X004296Y005611D03*
X004289Y005575D03*
X003949Y005575D03*
X003949Y005582D03*
X003949Y005561D03*
X003949Y005533D03*
X003949Y005526D03*
X003949Y005512D03*
X003949Y005483D03*
X003949Y005469D03*
X003949Y005462D03*
X003949Y005434D03*
X003949Y005420D03*
X003949Y005405D03*
X003949Y005384D03*
X003949Y005370D03*
X003949Y005356D03*
X003949Y005611D03*
X003949Y005625D03*
X003949Y005639D03*
X003949Y005660D03*
X003949Y005674D03*
X003949Y005689D03*
X003949Y005710D03*
X003949Y005724D03*
X003949Y005774D03*
X003949Y005788D03*
X003949Y005802D03*
X003949Y005823D03*
X003949Y005837D03*
X003949Y005851D03*
X003553Y005724D03*
X003553Y005710D03*
X003553Y005689D03*
X003553Y005674D03*
X003553Y005575D03*
X003553Y005561D03*
X003553Y005533D03*
X003553Y005526D03*
X003553Y005512D03*
X003553Y005483D03*
X003553Y005469D03*
X003553Y005462D03*
X003553Y005434D03*
X003553Y005420D03*
X003553Y005405D03*
X003553Y005384D03*
X003553Y005370D03*
X003553Y005356D03*
X003142Y005625D03*
X003156Y005674D03*
X002972Y005639D03*
X002972Y005625D03*
X002965Y005660D03*
X002958Y005674D03*
X002958Y005689D03*
X002986Y005582D03*
X002986Y005575D03*
X003001Y005526D03*
X005812Y005384D03*
X005812Y005370D03*
X005812Y005356D03*
D39*
X005822Y005625D03*
X005334Y005582D03*
X004498Y005370D03*
X004498Y005356D03*
X004229Y005370D03*
X003790Y005639D03*
X003564Y005625D03*
X004102Y005802D03*
X004095Y005837D03*
X006389Y005434D03*
X006417Y005469D03*
X006545Y005611D03*
D40*
X005975Y005370D03*
X005189Y005533D03*
X004842Y005356D03*
X004502Y005512D03*
X004226Y005512D03*
X003213Y005710D03*
X002901Y005710D03*
X002901Y005724D03*
D41*
X002894Y005774D03*
X002894Y005788D03*
X003057Y005469D03*
X003057Y005462D03*
X004226Y005483D03*
X005174Y005356D03*
D42*
X005097Y005462D03*
X005344Y005526D03*
X005344Y005533D03*
X005344Y005370D03*
X005344Y005356D03*
X005982Y005724D03*
X004311Y005674D03*
X004311Y005660D03*
X002979Y005611D03*
D43*
X003057Y005434D03*
X003057Y005420D03*
X004226Y005434D03*
X004502Y005434D03*
X005840Y005420D03*
X005975Y005356D03*
X005982Y005710D03*
D44*
X005932Y005405D03*
X006477Y005405D03*
X006477Y005384D03*
X006477Y005370D03*
X006477Y005356D03*
X003673Y005660D03*
D45*
X003057Y005363D03*
X004934Y005653D03*
X005323Y005653D03*
X006407Y005455D03*
X006449Y005505D03*
X006541Y005604D03*
X006562Y005632D03*
D46*
X004838Y005363D03*
D47*
X005174Y005363D03*
X004502Y005505D03*
X004367Y005682D03*
X003213Y005703D03*
X002901Y005731D03*
D48*
X002979Y005604D03*
X003128Y005958D03*
X004311Y005653D03*
X005097Y005455D03*
X005097Y005441D03*
X005344Y005363D03*
D49*
X005975Y005363D03*
X005982Y005703D03*
X004502Y005490D03*
X003723Y005703D03*
D50*
X004226Y005384D03*
X005330Y005434D03*
X006060Y005434D03*
X006060Y005639D03*
X006414Y005462D03*
X006456Y005512D03*
X006499Y005561D03*
X006513Y005575D03*
X006555Y005625D03*
X003057Y005370D03*
D51*
X004842Y005370D03*
X005982Y005674D03*
D52*
X005174Y005370D03*
D53*
X005100Y005427D03*
X005100Y005476D03*
X004958Y005618D03*
X004718Y005618D03*
X004590Y005667D03*
X004576Y005618D03*
X004562Y005568D03*
X004711Y005476D03*
X004604Y005717D03*
X004611Y005745D03*
X004619Y005767D03*
X004626Y005795D03*
X004151Y005618D03*
X004165Y005568D03*
X003804Y005568D03*
X003804Y005519D03*
X003804Y005476D03*
X003804Y005427D03*
X003804Y005377D03*
X003408Y005377D03*
X003408Y005427D03*
X003408Y005476D03*
X003408Y005519D03*
X003408Y005568D03*
X003408Y005618D03*
X003408Y005667D03*
X003408Y005717D03*
X003408Y005795D03*
X003408Y005844D03*
X003259Y005667D03*
X003259Y005618D03*
X003259Y005568D03*
X003259Y005519D03*
X003259Y005476D03*
X003259Y005427D03*
X003259Y005377D03*
X002855Y005377D03*
X002855Y005427D03*
X002855Y005476D03*
X002855Y005519D03*
X002855Y005568D03*
X002855Y005618D03*
X002855Y005667D03*
X005341Y005618D03*
X005490Y005568D03*
X005490Y005519D03*
X005490Y005476D03*
X005490Y005427D03*
X005490Y005377D03*
X005341Y005476D03*
X005815Y005476D03*
X006077Y005476D03*
X006084Y005519D03*
X006084Y005568D03*
X006226Y005568D03*
X006226Y005519D03*
X006226Y005476D03*
X006226Y005427D03*
X006226Y005377D03*
X006226Y005618D03*
X006226Y005667D03*
X006226Y005717D03*
X006226Y005795D03*
X006226Y005844D03*
D54*
X006506Y005568D03*
X006463Y005519D03*
X006052Y005427D03*
X003057Y005377D03*
D55*
X003001Y005519D03*
X002986Y005568D03*
X002972Y005618D03*
X002965Y005667D03*
X003142Y005618D03*
X003553Y005667D03*
X003553Y005717D03*
X003553Y005568D03*
X003553Y005519D03*
X003553Y005476D03*
X003553Y005427D03*
X003553Y005377D03*
X003949Y005377D03*
X003949Y005427D03*
X003949Y005476D03*
X003949Y005519D03*
X003949Y005568D03*
X003949Y005618D03*
X003949Y005667D03*
X003949Y005717D03*
X003949Y005795D03*
X003949Y005844D03*
X004289Y005568D03*
X004438Y005568D03*
X004431Y005618D03*
X004417Y005667D03*
X005111Y005618D03*
X005486Y005717D03*
X005613Y005717D03*
X005812Y005717D03*
X005812Y005745D03*
X005812Y005767D03*
X005812Y005795D03*
X005812Y005844D03*
X005812Y005568D03*
X005812Y005519D03*
X005812Y005377D03*
X003263Y006036D03*
X002994Y006036D03*
X002859Y006036D03*
D56*
X004229Y005377D03*
X004732Y005427D03*
X005822Y005618D03*
X006552Y005618D03*
D57*
X005500Y005618D03*
X004502Y005377D03*
D58*
X004838Y005377D03*
D59*
X005174Y005377D03*
D60*
X005344Y005377D03*
X005344Y005519D03*
X004311Y005667D03*
X003128Y005568D03*
X003128Y006036D03*
D61*
X003560Y005618D03*
X003801Y005618D03*
X004091Y005844D03*
X004105Y005795D03*
X004119Y005745D03*
X004126Y005717D03*
X004141Y005667D03*
X004636Y005844D03*
X005670Y005427D03*
X005670Y005377D03*
X006074Y005618D03*
D62*
X005978Y005377D03*
D63*
X005932Y005667D03*
X006477Y005377D03*
D64*
X005323Y005575D03*
X003057Y005405D03*
X003057Y005384D03*
D65*
X003571Y005639D03*
X004364Y005823D03*
X004498Y005384D03*
X005135Y005512D03*
X005829Y005434D03*
X005829Y005639D03*
D66*
X005228Y005689D03*
X004838Y005384D03*
D67*
X005228Y005384D03*
D68*
X005978Y005384D03*
D69*
X003057Y005391D03*
D70*
X004229Y005391D03*
D71*
X004498Y005391D03*
X004364Y005809D03*
X004364Y005830D03*
D72*
X004838Y005391D03*
X005228Y005682D03*
D73*
X005224Y005391D03*
D74*
X004838Y005703D03*
X005978Y005391D03*
D75*
X003057Y005398D03*
D76*
X004229Y005398D03*
X006049Y005646D03*
D77*
X004842Y005398D03*
D78*
X005224Y005398D03*
D79*
X005507Y005625D03*
X006045Y005420D03*
X004502Y005405D03*
X004226Y005405D03*
D80*
X004838Y005405D03*
D81*
X005220Y005405D03*
D82*
X005514Y005632D03*
X004226Y005441D03*
X003234Y005859D03*
X003057Y005412D03*
D83*
X004226Y005412D03*
D84*
X004498Y005412D03*
X004364Y005781D03*
D85*
X004838Y005412D03*
D86*
X004498Y005441D03*
X005313Y005412D03*
X003231Y005830D03*
X002884Y005859D03*
D87*
X003677Y005653D03*
X005936Y005412D03*
D88*
X005228Y005724D03*
X004498Y005420D03*
X004229Y005420D03*
X004364Y005788D03*
X004364Y005802D03*
D89*
X004360Y005837D03*
X004743Y005420D03*
X004941Y005420D03*
X005599Y005689D03*
X006470Y005526D03*
X006477Y005533D03*
X006520Y005582D03*
X006569Y005639D03*
D90*
X005320Y005420D03*
D91*
X006481Y005420D03*
D92*
X004502Y005427D03*
X003057Y005427D03*
D93*
X004229Y005427D03*
X004364Y005795D03*
D94*
X004112Y005767D03*
X004948Y005427D03*
D95*
X005327Y005427D03*
D96*
X005833Y005427D03*
X005982Y005717D03*
X003723Y005717D03*
D97*
X004364Y005844D03*
X006382Y005427D03*
X006424Y005476D03*
D98*
X003057Y005455D03*
X003057Y005441D03*
D99*
X003057Y005448D03*
D100*
X004229Y005448D03*
X004498Y005448D03*
D101*
X004732Y005646D03*
X005603Y005696D03*
X005822Y005448D03*
X006445Y005497D03*
X006488Y005547D03*
D102*
X006399Y005448D03*
X003787Y005646D03*
D103*
X004226Y005455D03*
X004502Y005455D03*
X003227Y005809D03*
X002887Y005830D03*
D104*
X002887Y005823D03*
X002887Y005837D03*
X003227Y005823D03*
X003227Y005802D03*
X003723Y005710D03*
X004226Y005469D03*
X004226Y005462D03*
X004502Y005462D03*
X004502Y005469D03*
D105*
X004300Y005618D03*
X003153Y005667D03*
X003117Y005519D03*
X003103Y005476D03*
X003011Y005476D03*
D106*
X004229Y005476D03*
D107*
X004502Y005476D03*
X005302Y005568D03*
X003220Y005745D03*
X003220Y005767D03*
D108*
X003160Y005689D03*
X003153Y005660D03*
X003146Y005639D03*
X003139Y005611D03*
X003117Y005533D03*
X003117Y005526D03*
X003110Y005512D03*
X003011Y005483D03*
X003004Y005512D03*
X002997Y005533D03*
X002990Y005561D03*
X002997Y005951D03*
X002863Y005951D03*
X003266Y005951D03*
X004279Y005533D03*
X004279Y005526D03*
X004286Y005561D03*
X004293Y005582D03*
X005107Y005611D03*
D109*
X005621Y005724D03*
X003263Y006043D03*
X003263Y006050D03*
X002994Y006050D03*
X002994Y006043D03*
X002859Y006043D03*
X002859Y006050D03*
X003107Y005483D03*
D110*
X003220Y005752D03*
X003220Y005759D03*
X004367Y005710D03*
X004502Y005483D03*
D111*
X004608Y005738D03*
X004948Y005639D03*
X004162Y005582D03*
X004112Y005759D03*
X004112Y005774D03*
X003723Y005724D03*
X006081Y005483D03*
D112*
X006431Y005483D03*
X005497Y005611D03*
X004364Y005851D03*
X004116Y005752D03*
D113*
X004293Y005590D03*
X004286Y005554D03*
X003146Y005632D03*
X003139Y005604D03*
X003110Y005505D03*
X003110Y005490D03*
X003004Y005505D03*
D114*
X002894Y005781D03*
X004226Y005490D03*
D115*
X004286Y005547D03*
X003110Y005497D03*
D116*
X004226Y005497D03*
D117*
X004502Y005497D03*
D118*
X004704Y005497D03*
D119*
X004222Y005505D03*
X003217Y005731D03*
D120*
X004704Y005505D03*
D121*
X004838Y005512D03*
X004838Y005526D03*
X004838Y005533D03*
D122*
X004502Y005519D03*
X004226Y005519D03*
X002901Y005717D03*
D123*
X004838Y005519D03*
D124*
X005153Y005519D03*
X002887Y005844D03*
D125*
X002898Y005759D03*
X002898Y005752D03*
X002898Y005738D03*
X003217Y005738D03*
X003217Y005724D03*
X005171Y005526D03*
D126*
X004838Y005540D03*
D127*
X005245Y005540D03*
D128*
X005497Y005604D03*
X006481Y005540D03*
X004364Y005859D03*
X004109Y005781D03*
D129*
X004307Y005646D03*
X003125Y005547D03*
D130*
X004838Y005547D03*
D131*
X005252Y005547D03*
D132*
X004835Y005554D03*
D133*
X005263Y005554D03*
D134*
X003132Y005575D03*
X003132Y005582D03*
X003125Y005561D03*
X003132Y005951D03*
D135*
X004835Y005561D03*
D136*
X005281Y005561D03*
D137*
X004835Y005568D03*
D138*
X004704Y005575D03*
X004704Y005582D03*
D139*
X004608Y005731D03*
X004162Y005590D03*
X005493Y005590D03*
X006081Y005590D03*
D140*
X005493Y005597D03*
D141*
X006534Y005597D03*
D142*
X005550Y005639D03*
X005550Y005660D03*
X005550Y005674D03*
D143*
X005837Y005646D03*
X003578Y005646D03*
D144*
X005550Y005646D03*
D145*
X006481Y005646D03*
X006481Y005696D03*
D146*
X005982Y005682D03*
X005550Y005653D03*
X003723Y005682D03*
D147*
X005939Y005653D03*
D148*
X006481Y005653D03*
X006481Y005682D03*
X006481Y005703D03*
D149*
X005224Y005660D03*
X004835Y005660D03*
D150*
X005936Y005660D03*
D151*
X006481Y005660D03*
X006481Y005674D03*
X006481Y005689D03*
X006481Y005710D03*
X006481Y005724D03*
D152*
X003723Y005667D03*
D153*
X004838Y005667D03*
X005228Y005667D03*
D154*
X005550Y005667D03*
D155*
X006481Y005667D03*
X006481Y005717D03*
D156*
X003719Y005674D03*
D157*
X004838Y005674D03*
D158*
X005224Y005674D03*
D159*
X004838Y005682D03*
D160*
X003723Y005689D03*
X005982Y005689D03*
D161*
X004364Y005689D03*
D162*
X004838Y005689D03*
D163*
X002905Y005696D03*
D164*
X003213Y005696D03*
X003723Y005696D03*
D165*
X004364Y005696D03*
D166*
X004838Y005696D03*
D167*
X005228Y005696D03*
D168*
X005982Y005696D03*
D169*
X002905Y005703D03*
D170*
X004364Y005703D03*
D171*
X005224Y005703D03*
D172*
X005228Y005710D03*
X004838Y005710D03*
D173*
X004838Y005717D03*
X005228Y005717D03*
X003217Y005717D03*
X002898Y005745D03*
D174*
X002891Y005795D03*
X003224Y005795D03*
X004364Y005717D03*
D175*
X004364Y005724D03*
X004364Y005738D03*
X003224Y005774D03*
X003224Y005788D03*
X002891Y005802D03*
D176*
X002884Y005851D03*
X003231Y005851D03*
X003231Y005837D03*
X004364Y005774D03*
X004364Y005759D03*
X004364Y005752D03*
X004838Y005724D03*
D177*
X003723Y005731D03*
D178*
X003224Y005781D03*
X002891Y005809D03*
X004364Y005731D03*
D179*
X005228Y005731D03*
X003309Y006007D03*
X003266Y006071D03*
X003231Y006021D03*
X003224Y006007D03*
X003231Y005972D03*
X003266Y005922D03*
X003174Y006007D03*
X003167Y006021D03*
X003132Y006071D03*
X003096Y006021D03*
X003089Y006007D03*
X003096Y005972D03*
X003132Y005922D03*
X003040Y006007D03*
X003032Y006021D03*
X002997Y006071D03*
X002962Y006021D03*
X002962Y005972D03*
X002997Y005922D03*
X002898Y006021D03*
X002863Y006071D03*
X002827Y006021D03*
X002827Y005972D03*
X002863Y005922D03*
D180*
X002994Y006057D03*
X003128Y006057D03*
X003263Y006057D03*
X005628Y005731D03*
D181*
X005978Y005731D03*
D182*
X004842Y005738D03*
X003263Y006078D03*
X003128Y006078D03*
X002994Y006078D03*
D183*
X003231Y005844D03*
X004364Y005767D03*
X004364Y005745D03*
D184*
X002894Y005767D03*
D185*
X002891Y005816D03*
D186*
X002863Y005915D03*
X002997Y005915D03*
D187*
X003132Y005915D03*
X003266Y005915D03*
D188*
X003266Y005936D03*
X003132Y005936D03*
X002997Y005936D03*
X002863Y005936D03*
D189*
X002863Y005944D03*
X002997Y005944D03*
X003132Y005944D03*
X003266Y005944D03*
D190*
X003238Y005965D03*
X003224Y006014D03*
X003266Y006064D03*
X003294Y005965D03*
X003160Y005965D03*
X003089Y006014D03*
X003132Y006064D03*
X002997Y006064D03*
X002969Y005965D03*
X003025Y005965D03*
X002891Y005965D03*
X002834Y005965D03*
X002820Y006014D03*
X002863Y006064D03*
D191*
X002955Y006014D03*
X003103Y005965D03*
D192*
X003163Y005972D03*
X003298Y005972D03*
X003029Y005972D03*
X002894Y005972D03*
X002816Y006007D03*
D193*
X002831Y006029D03*
X002901Y005979D03*
X002965Y006029D03*
X003036Y005979D03*
X003100Y006029D03*
X003171Y005979D03*
X003234Y006029D03*
X003305Y005979D03*
D194*
X002955Y005979D03*
X002955Y005986D03*
X002905Y005986D03*
D195*
X002905Y006007D03*
X002955Y006007D03*
X003302Y006021D03*
D196*
X003305Y006014D03*
X002901Y006014D03*
D197*
X003036Y006014D03*
X003171Y006014D03*
D198*
X003128Y006043D03*
X003128Y006050D03*
D199*
X002859Y006057D03*
M02*
