G75*
%MOIN*%
%OFA0B0*%
%FSLAX24Y24*%
%IPPOS*%
%LPD*%
%AMOC8*
5,1,8,0,0,1.08239X$1,22.5*
%
%ADD10C,0.0040*%
D10*
X002004Y000638D02*
X002004Y000772D01*
X002004Y000859D02*
X002204Y000859D01*
X002204Y000959D01*
X002171Y000993D01*
X002104Y000993D01*
X002071Y000959D01*
X002071Y000859D01*
X002004Y000638D02*
X002204Y000638D01*
X002204Y001080D02*
X002004Y001080D01*
X002071Y001147D01*
X002004Y001214D01*
X002204Y001214D01*
X002163Y001685D02*
X002130Y001685D01*
X002096Y001719D01*
X002096Y001785D01*
X002063Y001819D01*
X002030Y001819D01*
X001996Y001785D01*
X001996Y001719D01*
X002030Y001685D01*
X002163Y001685D02*
X002197Y001719D01*
X002197Y001785D01*
X002163Y001819D01*
X002163Y001906D02*
X002030Y001906D01*
X001996Y001940D01*
X001996Y002006D01*
X002030Y002040D01*
X001996Y002127D02*
X001996Y002261D01*
X001996Y002127D02*
X002197Y002127D01*
X002163Y002040D02*
X002197Y002006D01*
X002197Y001940D01*
X002163Y001906D01*
X002171Y002646D02*
X002138Y002646D01*
X002104Y002679D01*
X002104Y002746D01*
X002071Y002779D01*
X002038Y002779D01*
X002004Y002746D01*
X002004Y002679D01*
X002038Y002646D01*
X002171Y002646D02*
X002204Y002679D01*
X002204Y002746D01*
X002171Y002779D01*
X002204Y002867D02*
X002004Y002867D01*
X002004Y002967D01*
X002038Y003000D01*
X002171Y003000D01*
X002204Y002967D01*
X002204Y002867D01*
X002138Y003088D02*
X002004Y003088D01*
X002104Y003088D02*
X002104Y003221D01*
X002138Y003221D02*
X002004Y003221D01*
X002138Y003221D02*
X002204Y003155D01*
X002138Y003088D01*
X002171Y003591D02*
X002038Y003591D01*
X002004Y003624D01*
X002004Y003691D01*
X002038Y003724D01*
X002104Y003724D01*
X002104Y003658D01*
X002171Y003724D02*
X002204Y003691D01*
X002204Y003624D01*
X002171Y003591D01*
X002204Y003812D02*
X002004Y003812D01*
X002004Y003945D02*
X002204Y003945D01*
X002204Y004033D02*
X002204Y004133D01*
X002171Y004166D01*
X002038Y004166D01*
X002004Y004133D01*
X002004Y004033D01*
X002204Y004033D01*
X002004Y003945D02*
X002204Y003812D01*
X002201Y004660D02*
X002067Y004660D01*
X002000Y004727D01*
X002067Y004794D01*
X002201Y004794D01*
X002167Y004881D02*
X002034Y004881D01*
X002000Y004915D01*
X002000Y004981D01*
X002034Y005015D01*
X002167Y005015D02*
X002201Y004981D01*
X002201Y004915D01*
X002167Y004881D01*
X002167Y005102D02*
X002034Y005102D01*
X002000Y005136D01*
X002000Y005202D01*
X002034Y005236D01*
X002167Y005236D02*
X002201Y005202D01*
X002201Y005136D01*
X002167Y005102D01*
X002124Y005607D02*
X002124Y005707D01*
X002091Y005740D01*
X002057Y005740D01*
X002024Y005707D01*
X002024Y005607D01*
X002224Y005607D01*
X002224Y005707D01*
X002191Y005740D01*
X002158Y005740D01*
X002124Y005707D01*
X002124Y005828D02*
X002124Y005961D01*
X002158Y005961D02*
X002024Y005961D01*
X002158Y005961D02*
X002224Y005895D01*
X002158Y005828D01*
X002024Y005828D01*
X002224Y006049D02*
X002224Y006182D01*
X002224Y006116D02*
X002024Y006116D01*
X007240Y006162D02*
X007374Y006162D01*
X007441Y006095D01*
X007374Y006028D01*
X007240Y006028D01*
X007274Y005941D02*
X007240Y005907D01*
X007240Y005807D01*
X007441Y005807D01*
X007441Y005907D01*
X007407Y005941D01*
X007374Y005941D01*
X007341Y005907D01*
X007341Y005807D01*
X007341Y005907D02*
X007307Y005941D01*
X007274Y005941D01*
X007341Y006028D02*
X007341Y006162D01*
X007441Y006249D02*
X007441Y006383D01*
X007441Y006316D02*
X007240Y006316D01*
X007337Y005233D02*
X007303Y005200D01*
X007303Y005133D01*
X007337Y005100D01*
X007470Y005100D01*
X007504Y005133D01*
X007504Y005200D01*
X007470Y005233D01*
X007470Y005012D02*
X007504Y004979D01*
X007504Y004912D01*
X007470Y004879D01*
X007337Y004879D01*
X007303Y004912D01*
X007303Y004979D01*
X007337Y005012D01*
X007370Y004791D02*
X007504Y004791D01*
X007370Y004791D02*
X007303Y004725D01*
X007370Y004658D01*
X007504Y004658D01*
X007431Y004249D02*
X007297Y004249D01*
X007264Y004216D01*
X007264Y004116D01*
X007464Y004116D01*
X007464Y004216D01*
X007431Y004249D01*
X007464Y004028D02*
X007264Y004028D01*
X007464Y003895D01*
X007264Y003895D01*
X007297Y003807D02*
X007364Y003807D01*
X007364Y003740D01*
X007297Y003674D02*
X007264Y003707D01*
X007264Y003774D01*
X007297Y003807D01*
X007297Y003674D02*
X007431Y003674D01*
X007464Y003707D01*
X007464Y003774D01*
X007431Y003807D01*
X007437Y003265D02*
X007303Y003265D01*
X007404Y003265D02*
X007404Y003131D01*
X007437Y003131D02*
X007504Y003198D01*
X007437Y003265D01*
X007437Y003131D02*
X007303Y003131D01*
X007337Y003044D02*
X007303Y003010D01*
X007303Y002910D01*
X007504Y002910D01*
X007504Y003010D01*
X007470Y003044D01*
X007337Y003044D01*
X007337Y002823D02*
X007303Y002789D01*
X007303Y002723D01*
X007337Y002689D01*
X007404Y002723D02*
X007404Y002789D01*
X007370Y002823D01*
X007337Y002823D01*
X007404Y002723D02*
X007437Y002689D01*
X007470Y002689D01*
X007504Y002723D01*
X007504Y002789D01*
X007470Y002823D01*
X007264Y002320D02*
X007264Y002186D01*
X007464Y002186D01*
X007431Y002099D02*
X007464Y002065D01*
X007464Y001999D01*
X007431Y001965D01*
X007297Y001965D01*
X007264Y001999D01*
X007264Y002065D01*
X007297Y002099D01*
X007297Y001878D02*
X007264Y001844D01*
X007264Y001778D01*
X007297Y001744D01*
X007364Y001778D02*
X007364Y001844D01*
X007331Y001878D01*
X007297Y001878D01*
X007364Y001778D02*
X007398Y001744D01*
X007431Y001744D01*
X007464Y001778D01*
X007464Y001844D01*
X007431Y001878D01*
X007464Y001257D02*
X007264Y001257D01*
X007331Y001190D01*
X007264Y001123D01*
X007464Y001123D01*
X007431Y001036D02*
X007364Y001036D01*
X007331Y001002D01*
X007331Y000902D01*
X007264Y000902D02*
X007464Y000902D01*
X007464Y001002D01*
X007431Y001036D01*
X007264Y000815D02*
X007264Y000681D01*
X007464Y000681D01*
M02*
