%
M48
M72
T01C0.0236
T02C0.0400
%
T01
X2567Y1563
X3323Y2774
X4358Y2908
X4958Y2869
X5498Y2869
X5458Y3469
X5458Y4029
X4898Y4029
X4337Y4029
X4337Y3469
X2911Y4623
X2571Y5390
X5051Y5929
X6746Y4415
X6754Y2750
X7083Y1406
X4982Y1512
X4354Y1498
T02
X1500Y1000
X1500Y2000
X1500Y3000
X1500Y4000
X1500Y5000
X1500Y6000
X8000Y6000
X8000Y5000
X8000Y4000
X8000Y3000
X8000Y2000
X8000Y1000
M30
