G75*
%MOIN*%
%OFA0B0*%
%FSLAX24Y24*%
%IPPOS*%
%LPD*%
%AMOC8*
5,1,8,0,0,1.08239X$1,22.5*
%
%ADD10R,0.0315X0.0315*%
%ADD11C,0.0040*%
%ADD12R,0.0354X0.0276*%
%ADD13R,0.0394X0.0709*%
%ADD14R,0.0827X0.0630*%
%ADD15R,0.0157X0.0531*%
%ADD16R,0.0748X0.0748*%
%ADD17R,0.0630X0.0748*%
%ADD18R,0.0276X0.0354*%
D10*
X002991Y002633D03*
X003621Y002633D03*
X003621Y003263D03*
X002991Y003263D03*
X006570Y005625D03*
X007172Y005625D03*
X007172Y006215D03*
X006570Y006215D03*
D11*
X002647Y001954D02*
X002587Y001954D01*
X002587Y002111D01*
X002607Y002131D01*
X002647Y002131D01*
X002647Y001954D01*
X002647Y001985D02*
X002587Y001985D01*
X002587Y002024D02*
X002647Y002024D01*
X002647Y002062D02*
X002587Y002062D01*
X002587Y002101D02*
X002647Y002101D01*
X002784Y002101D02*
X002843Y002101D01*
X002843Y002131D02*
X002843Y001954D01*
X002784Y001954D01*
X002784Y002131D01*
X002843Y002131D01*
X002843Y002062D02*
X002784Y002062D01*
X002784Y002024D02*
X002843Y002024D01*
X002843Y001985D02*
X002784Y001985D01*
X002981Y001985D02*
X003040Y001985D01*
X003040Y001954D02*
X002981Y001954D01*
X002981Y002131D01*
X003040Y002131D01*
X003040Y001954D01*
X003040Y002024D02*
X002981Y002024D01*
X002981Y002062D02*
X003040Y002062D01*
X003040Y002101D02*
X002981Y002101D01*
X003178Y002101D02*
X003237Y002101D01*
X003237Y002131D02*
X003237Y001954D01*
X003178Y001954D01*
X003178Y002131D01*
X003237Y002131D01*
X003237Y002062D02*
X003178Y002062D01*
X003178Y002024D02*
X003237Y002024D01*
X003237Y001985D02*
X003178Y001985D01*
X003375Y001985D02*
X003434Y001985D01*
X003434Y001954D02*
X003375Y001954D01*
X003375Y002131D01*
X003434Y002131D01*
X003434Y001954D01*
X003434Y002024D02*
X003375Y002024D01*
X003375Y002062D02*
X003434Y002062D01*
X003434Y002101D02*
X003375Y002101D01*
X003572Y002101D02*
X003631Y002101D01*
X003631Y002131D02*
X003631Y001954D01*
X003572Y001954D01*
X003572Y002131D01*
X003631Y002131D01*
X003631Y002062D02*
X003572Y002062D01*
X003572Y002024D02*
X003631Y002024D01*
X003631Y001985D02*
X003572Y001985D01*
X003769Y001985D02*
X003828Y001985D01*
X003828Y001954D02*
X003769Y001954D01*
X003769Y002131D01*
X003828Y002131D01*
X003828Y001954D01*
X003828Y002024D02*
X003769Y002024D01*
X003769Y002062D02*
X003828Y002062D01*
X003828Y002101D02*
X003769Y002101D01*
X003965Y002101D02*
X004024Y002101D01*
X004024Y002111D02*
X004005Y002131D01*
X003965Y002131D01*
X003965Y001954D01*
X004024Y001954D01*
X004024Y002111D01*
X004024Y002062D02*
X003965Y002062D01*
X003965Y002024D02*
X004024Y002024D01*
X004024Y001985D02*
X003965Y001985D01*
X004143Y002229D02*
X004123Y002249D01*
X004123Y002288D01*
X004300Y002288D01*
X004300Y002229D01*
X004143Y002229D01*
X004123Y002255D02*
X004300Y002255D01*
X004300Y002426D02*
X004123Y002426D01*
X004123Y002485D01*
X004300Y002485D01*
X004300Y002426D01*
X004300Y002447D02*
X004123Y002447D01*
X004123Y002623D02*
X004123Y002682D01*
X004300Y002682D01*
X004300Y002623D01*
X004123Y002623D01*
X004123Y002640D02*
X004300Y002640D01*
X004300Y002678D02*
X004123Y002678D01*
X004123Y002820D02*
X004123Y002879D01*
X004300Y002879D01*
X004300Y002820D01*
X004123Y002820D01*
X004123Y002832D02*
X004300Y002832D01*
X004300Y002871D02*
X004123Y002871D01*
X004123Y003017D02*
X004123Y003076D01*
X004300Y003076D01*
X004300Y003017D01*
X004123Y003017D01*
X004123Y003025D02*
X004300Y003025D01*
X004300Y003063D02*
X004123Y003063D01*
X004123Y003213D02*
X004123Y003273D01*
X004300Y003273D01*
X004300Y003213D01*
X004123Y003213D01*
X004123Y003217D02*
X004300Y003217D01*
X004300Y003256D02*
X004123Y003256D01*
X004123Y003410D02*
X004123Y003469D01*
X004300Y003469D01*
X004300Y003410D01*
X004123Y003410D01*
X004123Y003448D02*
X004300Y003448D01*
X004300Y003607D02*
X004123Y003607D01*
X004123Y003647D01*
X004143Y003666D01*
X004300Y003666D01*
X004300Y003607D01*
X004300Y003641D02*
X004123Y003641D01*
X004005Y003765D02*
X003965Y003765D01*
X003965Y003942D01*
X004024Y003942D01*
X004024Y003784D01*
X004005Y003765D01*
X004024Y003795D02*
X003965Y003795D01*
X003965Y003833D02*
X004024Y003833D01*
X004024Y003872D02*
X003965Y003872D01*
X003965Y003910D02*
X004024Y003910D01*
X003828Y003910D02*
X003769Y003910D01*
X003769Y003942D02*
X003828Y003942D01*
X003828Y003765D01*
X003769Y003765D01*
X003769Y003942D01*
X003769Y003872D02*
X003828Y003872D01*
X003828Y003833D02*
X003769Y003833D01*
X003769Y003795D02*
X003828Y003795D01*
X003631Y003795D02*
X003572Y003795D01*
X003572Y003765D02*
X003572Y003942D01*
X003631Y003942D01*
X003631Y003765D01*
X003572Y003765D01*
X003572Y003833D02*
X003631Y003833D01*
X003631Y003872D02*
X003572Y003872D01*
X003572Y003910D02*
X003631Y003910D01*
X003434Y003910D02*
X003375Y003910D01*
X003375Y003942D02*
X003434Y003942D01*
X003434Y003765D01*
X003375Y003765D01*
X003375Y003942D01*
X003375Y003872D02*
X003434Y003872D01*
X003434Y003833D02*
X003375Y003833D01*
X003375Y003795D02*
X003434Y003795D01*
X003237Y003795D02*
X003178Y003795D01*
X003178Y003765D02*
X003178Y003942D01*
X003237Y003942D01*
X003237Y003765D01*
X003178Y003765D01*
X003178Y003833D02*
X003237Y003833D01*
X003237Y003872D02*
X003178Y003872D01*
X003178Y003910D02*
X003237Y003910D01*
X003040Y003910D02*
X002981Y003910D01*
X002981Y003942D02*
X003040Y003942D01*
X003040Y003765D01*
X002981Y003765D01*
X002981Y003942D01*
X002981Y003872D02*
X003040Y003872D01*
X003040Y003833D02*
X002981Y003833D01*
X002981Y003795D02*
X003040Y003795D01*
X002843Y003795D02*
X002784Y003795D01*
X002784Y003765D02*
X002784Y003942D01*
X002843Y003942D01*
X002843Y003765D01*
X002784Y003765D01*
X002784Y003833D02*
X002843Y003833D01*
X002843Y003872D02*
X002784Y003872D01*
X002784Y003910D02*
X002843Y003910D01*
X002647Y003910D02*
X002587Y003910D01*
X002587Y003942D02*
X002587Y003784D01*
X002607Y003765D01*
X002647Y003765D01*
X002647Y003942D01*
X002587Y003942D01*
X002587Y003872D02*
X002647Y003872D01*
X002647Y003833D02*
X002587Y003833D01*
X002587Y003795D02*
X002647Y003795D01*
X002489Y003647D02*
X002489Y003607D01*
X002312Y003607D01*
X002312Y003666D01*
X002469Y003666D01*
X002489Y003647D01*
X002489Y003641D02*
X002312Y003641D01*
X002312Y003469D02*
X002312Y003410D01*
X002489Y003410D01*
X002489Y003469D01*
X002312Y003469D01*
X002312Y003448D02*
X002489Y003448D01*
X002489Y003273D02*
X002312Y003273D01*
X002312Y003213D01*
X002489Y003213D01*
X002489Y003273D01*
X002489Y003256D02*
X002312Y003256D01*
X002312Y003217D02*
X002489Y003217D01*
X002489Y003076D02*
X002312Y003076D01*
X002312Y003017D01*
X002489Y003017D01*
X002489Y003076D01*
X002489Y003063D02*
X002312Y003063D01*
X002312Y003025D02*
X002489Y003025D01*
X002489Y002879D02*
X002312Y002879D01*
X002312Y002820D01*
X002489Y002820D01*
X002489Y002879D01*
X002489Y002871D02*
X002312Y002871D01*
X002312Y002832D02*
X002489Y002832D01*
X002489Y002682D02*
X002312Y002682D01*
X002312Y002623D01*
X002489Y002623D01*
X002489Y002682D01*
X002489Y002678D02*
X002312Y002678D01*
X002312Y002640D02*
X002489Y002640D01*
X002489Y002485D02*
X002312Y002485D01*
X002312Y002426D01*
X002489Y002426D01*
X002489Y002485D01*
X002489Y002447D02*
X002312Y002447D01*
X002312Y002288D02*
X002312Y002229D01*
X002469Y002229D01*
X002489Y002249D01*
X002489Y002288D01*
X002312Y002288D01*
X002312Y002255D02*
X002489Y002255D01*
D12*
X001873Y004389D03*
X001873Y004900D03*
X006637Y004711D03*
X007145Y004570D03*
X006637Y004200D03*
X007145Y005082D03*
D13*
X007038Y003184D03*
X005936Y003184D03*
D14*
X005373Y004924D03*
X002932Y004924D03*
D15*
X003641Y004875D03*
X003897Y004875D03*
X004152Y004875D03*
X004408Y004875D03*
X004664Y004875D03*
D16*
X004625Y005928D03*
X003680Y005928D03*
D17*
X002617Y005928D03*
X005688Y005928D03*
D18*
X006538Y002511D03*
X007050Y002511D03*
X007113Y002034D03*
X006601Y002034D03*
M02*
