G75*
%MOIN*%
%OFA0B0*%
%FSLAX24Y24*%
%IPPOS*%
%LPD*%
%AMOC8*
5,1,8,0,0,1.08239X$1,22.5*
%
%ADD10C,0.0000*%
%ADD11R,0.0118X0.0315*%
%ADD12R,0.0315X0.0118*%
%ADD13R,0.0354X0.0276*%
%ADD14R,0.0276X0.0354*%
%ADD15R,0.0500X0.0250*%
%ADD16C,0.0080*%
%ADD17R,0.0250X0.0500*%
%ADD18C,0.0740*%
%ADD19C,0.0100*%
%ADD20C,0.0376*%
D10*
X001100Y000639D02*
X001097Y006642D01*
X008394Y006645D01*
X008409Y000642D01*
X001100Y000639D01*
D11*
X004199Y003092D03*
X004396Y003092D03*
X004593Y003092D03*
X004790Y003092D03*
X004987Y003092D03*
X005183Y003092D03*
X005183Y004667D03*
X004987Y004667D03*
X004790Y004667D03*
X004593Y004667D03*
X004396Y004667D03*
X004199Y004667D03*
D12*
X003904Y004371D03*
X003904Y004174D03*
X003904Y003978D03*
X003904Y003781D03*
X003904Y003584D03*
X003904Y003387D03*
X005479Y003387D03*
X005479Y003584D03*
X005479Y003781D03*
X005479Y003978D03*
X005479Y004174D03*
X005479Y004371D03*
D13*
X006629Y003841D03*
X006629Y003329D03*
X006866Y005306D03*
X006866Y005817D03*
X003982Y001526D03*
X003982Y001014D03*
X003050Y001013D03*
X003050Y001524D03*
D14*
X003472Y002078D03*
X003984Y002078D03*
X005150Y002274D03*
X005662Y002274D03*
D15*
X004727Y001640D03*
X004727Y001320D03*
X004727Y001000D03*
X005757Y000994D03*
X005757Y001394D03*
D16*
X005757Y001344D02*
X005757Y001044D01*
X002819Y005232D02*
X002519Y005232D01*
D17*
X002469Y005232D03*
X002869Y005232D03*
D18*
X001500Y005045D03*
X001500Y004045D03*
X001500Y003045D03*
X001500Y002045D03*
X001500Y001045D03*
X001500Y006045D03*
X008000Y006045D03*
X008000Y005045D03*
X008000Y004045D03*
X008000Y003045D03*
X008000Y002045D03*
X008000Y001045D03*
D19*
X007563Y000847D02*
X006156Y000847D01*
X006157Y000850D02*
X006157Y000982D01*
X005907Y000982D01*
X005907Y000982D01*
X005907Y001007D01*
X006157Y001007D01*
X006157Y001139D01*
X006147Y001177D01*
X006127Y001212D01*
X006116Y001223D01*
X006117Y001224D01*
X006117Y001236D01*
X006678Y001239D01*
X006684Y001234D01*
X006743Y001239D01*
X006803Y001240D01*
X006808Y001245D01*
X006816Y001246D01*
X006854Y001291D01*
X006896Y001334D01*
X006896Y001340D01*
X006929Y001372D01*
X006929Y001380D01*
X006934Y001386D01*
X006929Y001445D01*
X006930Y002499D01*
X006939Y002503D01*
X007022Y002587D01*
X007068Y002697D01*
X007068Y002815D01*
X007022Y002925D01*
X006939Y003009D01*
X006829Y003054D01*
X006710Y003054D01*
X006601Y003009D01*
X006530Y002938D01*
X006459Y003009D01*
X006349Y003055D01*
X006230Y003055D01*
X006121Y003009D01*
X006109Y002997D01*
X006110Y003299D01*
X006170Y003299D01*
X006342Y003248D01*
X006342Y003146D01*
X006406Y003081D01*
X006851Y003081D01*
X006916Y003146D01*
X006916Y003512D01*
X006865Y003564D01*
X006898Y003583D01*
X006926Y003611D01*
X006946Y003645D01*
X006956Y003683D01*
X006956Y003822D01*
X006648Y003822D01*
X006648Y003860D01*
X006956Y003860D01*
X006956Y003998D01*
X006946Y004037D01*
X006926Y004071D01*
X006898Y004099D01*
X006864Y004119D01*
X006826Y004129D01*
X006648Y004129D01*
X006648Y003860D01*
X006610Y003860D01*
X006610Y004129D01*
X006493Y004129D01*
X006573Y004208D01*
X006618Y004318D01*
X006618Y004436D01*
X006573Y004546D01*
X006489Y004630D01*
X006379Y004675D01*
X006261Y004675D01*
X006151Y004630D01*
X006145Y004624D01*
X006144Y005390D01*
X006578Y005545D01*
X006569Y005535D01*
X006549Y005501D01*
X006539Y005463D01*
X006539Y005324D01*
X006847Y005324D01*
X006847Y005287D01*
X006539Y005287D01*
X006539Y005148D01*
X006549Y005110D01*
X006569Y005076D01*
X006597Y005048D01*
X006631Y005028D01*
X006669Y005018D01*
X006847Y005018D01*
X006847Y005287D01*
X006885Y005287D01*
X006885Y005018D01*
X007063Y005018D01*
X007101Y005028D01*
X007135Y005048D01*
X007139Y005051D01*
X007151Y005040D01*
X007197Y004993D01*
X007198Y004993D01*
X007198Y004992D01*
X007264Y004992D01*
X007330Y004992D01*
X007330Y004992D01*
X007520Y004992D01*
X007520Y004950D01*
X007593Y004773D01*
X007728Y004638D01*
X007905Y004565D01*
X008095Y004565D01*
X008199Y004608D01*
X008199Y004527D01*
X008122Y004552D01*
X008050Y004564D01*
X008050Y004095D01*
X007950Y004095D01*
X007950Y003995D01*
X008050Y003995D01*
X008050Y003527D01*
X008122Y003538D01*
X008200Y003563D01*
X008202Y003564D01*
X008202Y003481D01*
X008095Y003525D01*
X007905Y003525D01*
X007728Y003452D01*
X007593Y003317D01*
X007520Y003141D01*
X007520Y002950D01*
X007593Y002773D01*
X007728Y002638D01*
X007905Y002565D01*
X008095Y002565D01*
X008204Y002610D01*
X008205Y002480D01*
X008095Y002525D01*
X007905Y002525D01*
X007728Y002452D01*
X007593Y002317D01*
X007520Y002141D01*
X007520Y001950D01*
X007593Y001773D01*
X007728Y001638D01*
X007905Y001565D01*
X008095Y001565D01*
X008207Y001611D01*
X008207Y001479D01*
X008095Y001525D01*
X007905Y001525D01*
X007728Y001452D01*
X007593Y001317D01*
X007520Y001141D01*
X007520Y000950D01*
X007565Y000841D01*
X006155Y000841D01*
X006157Y000850D01*
X006157Y000946D02*
X007522Y000946D01*
X007520Y001044D02*
X006157Y001044D01*
X006156Y001143D02*
X007521Y001143D01*
X007562Y001241D02*
X006804Y001241D01*
X006896Y001340D02*
X007615Y001340D01*
X007714Y001438D02*
X006930Y001438D01*
X006929Y001537D02*
X008207Y001537D01*
X007736Y001635D02*
X006929Y001635D01*
X006929Y001734D02*
X007633Y001734D01*
X007569Y001832D02*
X006929Y001832D01*
X006929Y001931D02*
X007528Y001931D01*
X007520Y002029D02*
X006929Y002029D01*
X006929Y002128D02*
X007520Y002128D01*
X007555Y002226D02*
X006929Y002226D01*
X006929Y002325D02*
X007600Y002325D01*
X007699Y002423D02*
X006929Y002423D01*
X006957Y002522D02*
X007895Y002522D01*
X007772Y002620D02*
X007036Y002620D01*
X007068Y002719D02*
X007648Y002719D01*
X007575Y002817D02*
X007067Y002817D01*
X007026Y002916D02*
X007534Y002916D01*
X007520Y003014D02*
X006926Y003014D01*
X006883Y003113D02*
X007520Y003113D01*
X007549Y003211D02*
X006916Y003211D01*
X006916Y003310D02*
X007590Y003310D01*
X007684Y003408D02*
X006916Y003408D01*
X006916Y003507D02*
X007859Y003507D01*
X007878Y003538D02*
X007950Y003527D01*
X007950Y003995D01*
X007481Y003995D01*
X007493Y003924D01*
X007518Y003846D01*
X007555Y003773D01*
X007603Y003707D01*
X007661Y003649D01*
X007727Y003601D01*
X007800Y003563D01*
X007878Y003538D01*
X007950Y003605D02*
X008050Y003605D01*
X008050Y003704D02*
X007950Y003704D01*
X007950Y003802D02*
X008050Y003802D01*
X008050Y003901D02*
X007950Y003901D01*
X007950Y003999D02*
X006956Y003999D01*
X006899Y004098D02*
X007482Y004098D01*
X007481Y004095D02*
X007950Y004095D01*
X007950Y004564D01*
X007878Y004552D01*
X007800Y004527D01*
X007727Y004490D01*
X007661Y004442D01*
X007603Y004384D01*
X007555Y004318D01*
X007518Y004245D01*
X007493Y004167D01*
X007481Y004095D01*
X007502Y004196D02*
X006561Y004196D01*
X006609Y004295D02*
X007543Y004295D01*
X007612Y004393D02*
X006618Y004393D01*
X006595Y004492D02*
X007730Y004492D01*
X007845Y004590D02*
X006529Y004590D01*
X006320Y004377D02*
X006122Y003783D01*
X005479Y003781D01*
X005479Y003978D02*
X005986Y003987D01*
X005984Y005460D01*
X005997Y005507D01*
X006866Y005817D01*
X006543Y005477D02*
X006387Y005477D01*
X006539Y005378D02*
X006144Y005378D01*
X006144Y005280D02*
X006539Y005280D01*
X006539Y005181D02*
X006144Y005181D01*
X006144Y005083D02*
X006565Y005083D01*
X006329Y004948D02*
X006330Y004854D01*
X006329Y004948D02*
X006866Y005306D01*
X006747Y005307D01*
X006756Y004058D01*
X006756Y003841D01*
X006629Y003841D01*
X007763Y003850D01*
X007763Y004045D01*
X008000Y004045D01*
X007950Y004098D02*
X008050Y004098D01*
X008050Y004196D02*
X007950Y004196D01*
X007950Y004295D02*
X008050Y004295D01*
X008050Y004393D02*
X007950Y004393D01*
X007950Y004492D02*
X008050Y004492D01*
X008155Y004590D02*
X008199Y004590D01*
X007678Y004689D02*
X006145Y004689D01*
X006145Y004787D02*
X007587Y004787D01*
X007547Y004886D02*
X006145Y004886D01*
X006144Y004984D02*
X007520Y004984D01*
X007780Y005045D02*
X007780Y005152D01*
X007265Y005152D01*
X007273Y006281D01*
X005496Y006286D01*
X005502Y004658D01*
X005183Y004667D01*
X005189Y004667D01*
X005189Y003585D01*
X005479Y003585D01*
X005479Y003584D01*
X005479Y003583D01*
X005951Y003583D01*
X005951Y003459D01*
X006194Y003459D01*
X006629Y003329D01*
X006375Y003113D02*
X006109Y003113D01*
X006110Y003211D02*
X006342Y003211D01*
X006448Y003014D02*
X006614Y003014D01*
X006770Y002756D02*
X006769Y001439D01*
X006736Y001399D01*
X005757Y001394D01*
X005444Y001612D02*
X005397Y001565D01*
X005397Y001224D01*
X005398Y001223D01*
X005387Y001212D01*
X005367Y001177D01*
X005357Y001139D01*
X005357Y001007D01*
X005607Y001007D01*
X005607Y000982D01*
X005607Y000982D01*
X005357Y000982D01*
X005357Y000850D01*
X005359Y000841D01*
X005123Y000841D01*
X005127Y000855D01*
X005127Y000987D01*
X004739Y000987D01*
X004739Y001012D01*
X005127Y001012D01*
X005127Y001144D01*
X005123Y001160D01*
X005218Y001160D01*
X005284Y001159D01*
X005284Y001160D01*
X005285Y001160D01*
X005332Y001206D01*
X005378Y001252D01*
X005378Y001253D01*
X005379Y001253D01*
X005379Y001319D01*
X005381Y001612D01*
X005444Y001612D01*
X005397Y001537D02*
X005381Y001537D01*
X005380Y001438D02*
X005397Y001438D01*
X005397Y001340D02*
X005379Y001340D01*
X005367Y001241D02*
X005397Y001241D01*
X005358Y001143D02*
X005127Y001143D01*
X005127Y001044D02*
X005357Y001044D01*
X005357Y000946D02*
X005127Y000946D01*
X005125Y000847D02*
X005358Y000847D01*
X005757Y000994D02*
X004727Y001000D01*
X004461Y000999D01*
X004222Y001013D01*
X003982Y001014D01*
X003684Y001020D01*
X003050Y001013D01*
X002100Y001019D01*
X002099Y003871D01*
X002099Y004057D01*
X002393Y004057D01*
X002393Y004058D01*
X002015Y004058D01*
X002015Y004045D01*
X001500Y004045D01*
X001550Y003999D02*
X003221Y003999D01*
X003222Y004098D02*
X002018Y004098D01*
X002019Y004095D02*
X002007Y004167D01*
X001982Y004245D01*
X001945Y004318D01*
X001897Y004384D01*
X001839Y004442D01*
X001773Y004490D01*
X001700Y004527D01*
X001622Y004552D01*
X001550Y004564D01*
X001550Y004095D01*
X002019Y004095D01*
X002015Y004058D02*
X002015Y004351D01*
X003169Y004351D01*
X003169Y004669D01*
X003169Y005214D01*
X002869Y005232D01*
X002969Y005220D02*
X002969Y005245D01*
X003144Y005245D01*
X003144Y005502D01*
X003134Y005540D01*
X003114Y005574D01*
X003086Y005602D01*
X003052Y005622D01*
X003014Y005632D01*
X002882Y005632D01*
X002882Y005382D01*
X002881Y005382D01*
X002857Y005382D01*
X002857Y005632D01*
X002725Y005632D01*
X002686Y005622D01*
X002652Y005602D01*
X002641Y005591D01*
X002640Y005592D01*
X002299Y005592D01*
X002296Y005589D01*
X002296Y006325D01*
X004280Y006335D01*
X004280Y005150D01*
X003400Y005130D01*
X003404Y004328D01*
X003385Y004328D01*
X003320Y004329D01*
X003319Y004328D01*
X003317Y004328D01*
X003271Y004282D01*
X003225Y004237D01*
X003225Y004235D01*
X003223Y004234D01*
X003223Y004169D01*
X003219Y003903D01*
X002274Y003881D01*
X002210Y003882D01*
X002208Y003880D01*
X002205Y003880D01*
X002161Y003834D01*
X002116Y003789D01*
X002116Y003786D01*
X002114Y003784D01*
X002115Y003720D01*
X002100Y001574D01*
X002099Y001572D01*
X002100Y001508D01*
X002099Y001443D01*
X002101Y001442D01*
X002101Y001439D01*
X002147Y001395D01*
X002192Y001349D01*
X002195Y001349D01*
X002197Y001347D01*
X002261Y001349D01*
X002325Y001348D01*
X002327Y001350D01*
X002763Y001359D01*
X002763Y001341D01*
X002814Y001290D01*
X002781Y001270D01*
X002753Y001242D01*
X002733Y001208D01*
X002723Y001170D01*
X002723Y001031D01*
X003031Y001031D01*
X003031Y000994D01*
X002723Y000994D01*
X002723Y000855D01*
X002727Y000840D01*
X001934Y000840D01*
X001980Y000950D01*
X001980Y001141D01*
X001907Y001317D01*
X001772Y001452D01*
X001595Y001525D01*
X001405Y001525D01*
X001299Y001482D01*
X001299Y001609D01*
X001405Y001565D01*
X001595Y001565D01*
X001772Y001638D01*
X001907Y001773D01*
X001980Y001950D01*
X001980Y002141D01*
X001907Y002317D01*
X001772Y002452D01*
X001595Y002525D01*
X001405Y002525D01*
X001299Y002481D01*
X001299Y002609D01*
X001405Y002565D01*
X001595Y002565D01*
X001772Y002638D01*
X001907Y002773D01*
X001980Y002950D01*
X001980Y003141D01*
X001907Y003317D01*
X001772Y003452D01*
X001595Y003525D01*
X001405Y003525D01*
X001298Y003481D01*
X001298Y003564D01*
X001300Y003563D01*
X001378Y003538D01*
X001450Y003527D01*
X001450Y003995D01*
X001550Y003995D01*
X001550Y003527D01*
X001622Y003538D01*
X001700Y003563D01*
X001773Y003601D01*
X001839Y003649D01*
X001897Y003707D01*
X001945Y003773D01*
X001982Y003846D01*
X002007Y003924D01*
X002019Y003995D01*
X001550Y003995D01*
X001550Y004095D01*
X001450Y004095D01*
X001450Y004564D01*
X001378Y004552D01*
X001300Y004527D01*
X001298Y004526D01*
X001298Y004609D01*
X001405Y004565D01*
X001595Y004565D01*
X001772Y004638D01*
X001907Y004773D01*
X001953Y004885D01*
X002202Y004885D01*
X002231Y004914D01*
X002231Y004693D01*
X002228Y004690D01*
X002231Y004627D01*
X002231Y004564D01*
X002233Y004561D01*
X002233Y004558D01*
X002279Y004515D01*
X002324Y004470D01*
X002328Y004470D01*
X002330Y004468D01*
X002393Y004470D01*
X002457Y004470D01*
X002459Y004472D01*
X002494Y004474D01*
X002577Y004390D01*
X002687Y004345D01*
X002805Y004345D01*
X002915Y004390D01*
X002999Y004474D01*
X003044Y004584D01*
X003044Y004702D01*
X002999Y004812D01*
X002978Y004832D01*
X003014Y004832D01*
X003052Y004843D01*
X003086Y004862D01*
X003114Y004890D01*
X003134Y004924D01*
X003144Y004963D01*
X003144Y005220D01*
X002969Y005220D01*
X003144Y005181D02*
X004280Y005181D01*
X004280Y005280D02*
X003144Y005280D01*
X003144Y005378D02*
X004280Y005378D01*
X004280Y005477D02*
X003144Y005477D01*
X003114Y005575D02*
X004280Y005575D01*
X004280Y005674D02*
X002296Y005674D01*
X002296Y005772D02*
X004280Y005772D01*
X004280Y005871D02*
X002296Y005871D01*
X002296Y005969D02*
X004280Y005969D01*
X004280Y006068D02*
X002296Y006068D01*
X002296Y006166D02*
X004280Y006166D01*
X004280Y006265D02*
X002296Y006265D01*
X002136Y006485D02*
X007265Y006509D01*
X007265Y005152D01*
X006885Y005181D02*
X006847Y005181D01*
X006847Y005083D02*
X006885Y005083D01*
X006885Y005280D02*
X006847Y005280D01*
X005965Y005957D02*
X005800Y005973D01*
X005800Y005707D01*
X005782Y004175D01*
X005479Y004174D01*
X004790Y004667D02*
X004776Y004667D01*
X004776Y005006D01*
X004774Y005342D01*
X005179Y005309D01*
X005340Y005280D02*
X004780Y005280D01*
X004780Y005181D02*
X005340Y005181D01*
X005340Y005147D02*
X004780Y005150D01*
X004780Y006337D01*
X005336Y006340D01*
X005336Y006286D01*
X005336Y006220D01*
X005337Y006220D01*
X005340Y005147D01*
X005340Y005378D02*
X004780Y005378D01*
X004780Y005477D02*
X005339Y005477D01*
X005339Y005575D02*
X004780Y005575D01*
X004780Y005674D02*
X005339Y005674D01*
X005338Y005772D02*
X004780Y005772D01*
X004780Y005871D02*
X005338Y005871D01*
X005338Y005969D02*
X004780Y005969D01*
X004780Y006068D02*
X005337Y006068D01*
X005337Y006166D02*
X004780Y006166D01*
X004780Y006265D02*
X005336Y006265D01*
X004776Y005006D02*
X004396Y005006D01*
X004396Y004667D01*
X004199Y004667D01*
X004199Y004669D01*
X003169Y004669D01*
X003044Y004689D02*
X003402Y004689D01*
X003402Y004787D02*
X003009Y004787D01*
X003110Y004886D02*
X003401Y004886D01*
X003400Y004984D02*
X003144Y004984D01*
X003144Y005083D02*
X003400Y005083D01*
X002882Y005477D02*
X002857Y005477D01*
X002857Y005575D02*
X002882Y005575D01*
X002469Y005232D02*
X002391Y005276D01*
X002391Y004630D01*
X002746Y004643D01*
X003006Y004492D02*
X003403Y004492D01*
X003403Y004590D02*
X003044Y004590D01*
X002918Y004393D02*
X003404Y004393D01*
X003284Y004295D02*
X001957Y004295D01*
X001998Y004196D02*
X003223Y004196D01*
X003383Y004168D02*
X003517Y004168D01*
X003904Y004174D01*
X003383Y004168D02*
X003376Y003746D01*
X002275Y003721D01*
X002260Y001509D01*
X003050Y001524D01*
X003337Y001537D02*
X003695Y001537D01*
X003695Y001635D02*
X003337Y001635D01*
X003337Y001708D02*
X003273Y001772D01*
X002827Y001772D01*
X002763Y001708D01*
X002763Y001679D01*
X002421Y001672D01*
X002422Y001855D01*
X002453Y001824D01*
X002563Y001779D01*
X002681Y001779D01*
X002791Y001824D01*
X002875Y001908D01*
X002879Y001917D01*
X003225Y001918D01*
X003225Y001855D01*
X003289Y001791D01*
X003656Y001791D01*
X003720Y001855D01*
X003720Y002243D01*
X003736Y002243D01*
X003736Y001855D01*
X003801Y001791D01*
X003823Y001791D01*
X003823Y001774D01*
X003760Y001774D01*
X003695Y001709D01*
X003695Y001343D01*
X003746Y001291D01*
X003713Y001272D01*
X003685Y001244D01*
X003665Y001210D01*
X003655Y001172D01*
X003655Y001033D01*
X003963Y001033D01*
X003963Y000995D01*
X003655Y000995D01*
X003655Y000857D01*
X003660Y000840D01*
X003373Y000840D01*
X003377Y000855D01*
X003377Y000994D01*
X003069Y000994D01*
X003069Y001031D01*
X003377Y001031D01*
X003377Y001170D01*
X003367Y001208D01*
X003347Y001242D01*
X003319Y001270D01*
X003286Y001290D01*
X003337Y001341D01*
X003337Y001708D01*
X003311Y001734D02*
X003719Y001734D01*
X003697Y001832D02*
X003760Y001832D01*
X003736Y001931D02*
X003720Y001931D01*
X003720Y002029D02*
X003736Y002029D01*
X003736Y002128D02*
X003720Y002128D01*
X003720Y002226D02*
X003736Y002226D01*
X003984Y002078D02*
X003982Y001526D01*
X004727Y001640D01*
X004727Y001949D01*
X005611Y001949D01*
X005611Y002226D01*
X005662Y002274D01*
X005945Y002271D01*
X005951Y003459D01*
X006109Y003014D02*
X006132Y003014D01*
X006290Y002757D02*
X006291Y001767D01*
X005223Y001773D01*
X005219Y001320D01*
X004727Y001320D01*
X004714Y001012D02*
X004327Y001012D01*
X004327Y001144D01*
X004337Y001183D01*
X004357Y001217D01*
X004367Y001227D01*
X004367Y001423D01*
X004269Y001408D01*
X004269Y001343D01*
X004218Y001291D01*
X004252Y001272D01*
X004279Y001244D01*
X004299Y001210D01*
X004309Y001172D01*
X004309Y001033D01*
X004001Y001033D01*
X004001Y000995D01*
X004309Y000995D01*
X004309Y000857D01*
X004305Y000840D01*
X004331Y000840D01*
X004327Y000855D01*
X004327Y000987D01*
X004714Y000987D01*
X004714Y001012D01*
X004327Y001044D02*
X004309Y001044D01*
X004309Y001143D02*
X004327Y001143D01*
X004367Y001241D02*
X004281Y001241D01*
X004266Y001340D02*
X004367Y001340D01*
X004327Y000946D02*
X004309Y000946D01*
X004307Y000847D02*
X004329Y000847D01*
X003698Y001340D02*
X003336Y001340D01*
X003337Y001438D02*
X003695Y001438D01*
X003683Y001241D02*
X003348Y001241D01*
X003377Y001143D02*
X003655Y001143D01*
X003655Y001044D02*
X003377Y001044D01*
X003377Y000946D02*
X003655Y000946D01*
X003658Y000847D02*
X003375Y000847D01*
X002752Y001241D02*
X001938Y001241D01*
X001885Y001340D02*
X002764Y001340D01*
X002723Y001143D02*
X001979Y001143D01*
X001980Y001044D02*
X002723Y001044D01*
X002723Y000946D02*
X001978Y000946D01*
X001937Y000847D02*
X002725Y000847D01*
X002102Y001438D02*
X001786Y001438D01*
X001764Y001635D02*
X002101Y001635D01*
X002099Y001537D02*
X001299Y001537D01*
X001867Y001734D02*
X002101Y001734D01*
X002102Y001832D02*
X001931Y001832D01*
X001972Y001931D02*
X002103Y001931D01*
X002103Y002029D02*
X001980Y002029D01*
X001980Y002128D02*
X002104Y002128D01*
X002105Y002226D02*
X001945Y002226D01*
X001900Y002325D02*
X002106Y002325D01*
X002106Y002423D02*
X001801Y002423D01*
X001605Y002522D02*
X002107Y002522D01*
X002108Y002620D02*
X001728Y002620D01*
X001852Y002719D02*
X002108Y002719D01*
X002109Y002817D02*
X001925Y002817D01*
X001966Y002916D02*
X002110Y002916D01*
X002110Y003014D02*
X001980Y003014D01*
X001980Y003113D02*
X002111Y003113D01*
X002112Y003211D02*
X001951Y003211D01*
X001910Y003310D02*
X002112Y003310D01*
X002113Y003408D02*
X001816Y003408D01*
X001641Y003507D02*
X002114Y003507D01*
X002114Y003605D02*
X001779Y003605D01*
X001894Y003704D02*
X002115Y003704D01*
X002129Y003802D02*
X001960Y003802D01*
X002000Y003901D02*
X003115Y003901D01*
X002775Y003345D02*
X003904Y003387D01*
X003904Y003584D02*
X002472Y003546D01*
X002470Y002350D01*
X002622Y002077D01*
X003472Y002078D01*
X003248Y001832D02*
X002799Y001832D01*
X002789Y001734D02*
X002421Y001734D01*
X002422Y001832D02*
X002445Y001832D01*
X002975Y002407D02*
X002755Y002576D01*
X002780Y003150D01*
X002775Y003345D01*
X003174Y002780D02*
X003545Y002787D01*
X003872Y002785D01*
X004137Y002787D01*
X004199Y003092D01*
X004593Y003092D02*
X004603Y002646D01*
X005669Y002637D01*
X005669Y002356D01*
X005662Y002274D01*
X005170Y002397D02*
X005150Y002274D01*
X005170Y002397D02*
X002975Y002407D01*
X001550Y003605D02*
X001450Y003605D01*
X001450Y003704D02*
X001550Y003704D01*
X001550Y003802D02*
X001450Y003802D01*
X001450Y003901D02*
X001550Y003901D01*
X001550Y004098D02*
X001450Y004098D01*
X001450Y004196D02*
X001550Y004196D01*
X001550Y004295D02*
X001450Y004295D01*
X001450Y004393D02*
X001550Y004393D01*
X001550Y004492D02*
X001450Y004492D01*
X001345Y004590D02*
X001298Y004590D01*
X001655Y004590D02*
X002231Y004590D01*
X002303Y004492D02*
X001770Y004492D01*
X001888Y004393D02*
X002574Y004393D01*
X002228Y004689D02*
X001822Y004689D01*
X001913Y004787D02*
X002231Y004787D01*
X002231Y004886D02*
X002202Y004886D01*
X002136Y005045D02*
X001500Y005045D01*
X002136Y005045D02*
X002136Y006485D01*
X001359Y003507D02*
X001298Y003507D01*
X001299Y002522D02*
X001395Y002522D01*
X006610Y003901D02*
X006648Y003901D01*
X006648Y003999D02*
X006610Y003999D01*
X006610Y004098D02*
X006648Y004098D01*
X006956Y003901D02*
X007500Y003901D01*
X007540Y003802D02*
X006956Y003802D01*
X006956Y003704D02*
X007606Y003704D01*
X007721Y003605D02*
X006920Y003605D01*
X008141Y003507D02*
X008202Y003507D01*
X008205Y002522D02*
X008105Y002522D01*
X008000Y005045D02*
X007780Y005045D01*
D20*
X006330Y004854D03*
X006320Y004377D03*
X005179Y005309D03*
X005965Y005957D03*
X002746Y004643D03*
X002393Y004057D03*
X002780Y003150D03*
X003174Y002780D03*
X002622Y002077D03*
X006290Y002757D03*
X006770Y002756D03*
M02*
