G75*
%MOIN*%
%OFA0B0*%
%FSLAX24Y24*%
%IPPOS*%
%LPD*%
%AMOC8*
5,1,8,0,0,1.08239X$1,22.5*
%
%ADD10C,0.0040*%
%ADD11C,0.0080*%
%ADD12C,0.0160*%
%ADD13C,0.0020*%
%ADD14R,0.0160X0.0280*%
%ADD15C,0.0060*%
%ADD16C,0.0010*%
%ADD17R,0.0042X0.0007*%
%ADD18R,0.0035X0.0007*%
%ADD19R,0.0028X0.0007*%
%ADD20R,0.0099X0.0007*%
%ADD21R,0.0106X0.0007*%
%ADD22R,0.0092X0.0007*%
%ADD23R,0.0120X0.0007*%
%ADD24R,0.0113X0.0007*%
%ADD25R,0.0085X0.0007*%
%ADD26R,0.0333X0.0007*%
%ADD27R,0.0099X0.0007*%
%ADD28R,0.0106X0.0007*%
%ADD29R,0.0092X0.0007*%
%ADD30R,0.0163X0.0007*%
%ADD31R,0.0149X0.0007*%
%ADD32R,0.0092X0.0007*%
%ADD33R,0.0127X0.0007*%
%ADD34R,0.0333X0.0007*%
%ADD35R,0.0099X0.0007*%
%ADD36R,0.0106X0.0007*%
%ADD37R,0.0092X0.0007*%
%ADD38R,0.0113X0.0007*%
%ADD39R,0.0191X0.0007*%
%ADD40R,0.0177X0.0007*%
%ADD41R,0.0092X0.0007*%
%ADD42R,0.0149X0.0007*%
%ADD43R,0.0333X0.0007*%
%ADD44R,0.0120X0.0007*%
%ADD45R,0.0212X0.0007*%
%ADD46R,0.0191X0.0007*%
%ADD47R,0.0092X0.0007*%
%ADD48R,0.0177X0.0007*%
%ADD49R,0.0120X0.0007*%
%ADD50R,0.0234X0.0007*%
%ADD51R,0.0205X0.0007*%
%ADD52R,0.0099X0.0007*%
%ADD53R,0.0120X0.0007*%
%ADD54R,0.0092X0.0007*%
%ADD55R,0.0113X0.0007*%
%ADD56R,0.0120X0.0007*%
%ADD57R,0.0255X0.0007*%
%ADD58R,0.0220X0.0007*%
%ADD59R,0.0092X0.0007*%
%ADD60R,0.0106X0.0007*%
%ADD61R,0.0198X0.0007*%
%ADD62R,0.0333X0.0007*%
%ADD63R,0.0135X0.0007*%
%ADD64R,0.0127X0.0007*%
%ADD65R,0.0269X0.0007*%
%ADD66R,0.0326X0.0007*%
%ADD67R,0.0212X0.0007*%
%ADD68R,0.0135X0.0007*%
%ADD69R,0.0127X0.0007*%
%ADD70R,0.0127X0.0007*%
%ADD71R,0.0283X0.0007*%
%ADD72R,0.0333X0.0007*%
%ADD73R,0.0227X0.0007*%
%ADD74R,0.0135X0.0007*%
%ADD75R,0.0127X0.0007*%
%ADD76R,0.0290X0.0007*%
%ADD77R,0.0333X0.0007*%
%ADD78R,0.0135X0.0007*%
%ADD79R,0.0297X0.0007*%
%ADD80R,0.0340X0.0007*%
%ADD81R,0.0149X0.0007*%
%ADD82R,0.0135X0.0007*%
%ADD83R,0.0142X0.0007*%
%ADD84R,0.0312X0.0007*%
%ADD85R,0.0156X0.0007*%
%ADD86R,0.0340X0.0007*%
%ADD87R,0.0142X0.0007*%
%ADD88R,0.0120X0.0007*%
%ADD89R,0.0142X0.0007*%
%ADD90R,0.0326X0.0007*%
%ADD91R,0.0149X0.0007*%
%ADD92R,0.0142X0.0007*%
%ADD93R,0.0106X0.0007*%
%ADD94R,0.0127X0.0007*%
%ADD95R,0.0135X0.0007*%
%ADD96R,0.0113X0.0007*%
%ADD97R,0.0163X0.0007*%
%ADD98R,0.0163X0.0007*%
%ADD99R,0.0156X0.0007*%
%ADD100R,0.0113X0.0007*%
%ADD101R,0.0120X0.0007*%
%ADD102R,0.0163X0.0007*%
%ADD103R,0.0163X0.0007*%
%ADD104R,0.0085X0.0007*%
%ADD105R,0.0170X0.0007*%
%ADD106R,0.0177X0.0007*%
%ADD107R,0.0085X0.0007*%
%ADD108R,0.0078X0.0007*%
%ADD109R,0.0177X0.0007*%
%ADD110R,0.0106X0.0007*%
%ADD111R,0.0113X0.0007*%
%ADD112R,0.0085X0.0007*%
%ADD113R,0.0177X0.0007*%
%ADD114R,0.0085X0.0007*%
%ADD115R,0.0177X0.0007*%
%ADD116R,0.0177X0.0007*%
%ADD117R,0.0099X0.0007*%
%ADD118R,0.0184X0.0007*%
%ADD119R,0.0099X0.0007*%
%ADD120R,0.0368X0.0007*%
%ADD121R,0.0191X0.0007*%
%ADD122R,0.0368X0.0007*%
%ADD123R,0.0163X0.0007*%
%ADD124R,0.0184X0.0007*%
%ADD125R,0.0368X0.0007*%
%ADD126R,0.0290X0.0007*%
%ADD127R,0.0113X0.0007*%
%ADD128R,0.0085X0.0007*%
%ADD129R,0.0368X0.0007*%
%ADD130R,0.0276X0.0007*%
%ADD131R,0.0361X0.0007*%
%ADD132R,0.0255X0.0007*%
%ADD133R,0.0085X0.0007*%
%ADD134R,0.0361X0.0007*%
%ADD135R,0.0220X0.0007*%
%ADD136R,0.0361X0.0007*%
%ADD137R,0.0099X0.0007*%
%ADD138R,0.0106X0.0007*%
%ADD139R,0.0106X0.0007*%
%ADD140R,0.0120X0.0007*%
%ADD141R,0.0219X0.0007*%
%ADD142R,0.0142X0.0007*%
%ADD143R,0.0219X0.0007*%
%ADD144R,0.0312X0.0007*%
%ADD145R,0.0219X0.0007*%
%ADD146R,0.0347X0.0007*%
%ADD147R,0.0312X0.0007*%
%ADD148R,0.0304X0.0007*%
%ADD149R,0.0340X0.0007*%
%ADD150R,0.0312X0.0007*%
%ADD151R,0.0234X0.0007*%
%ADD152R,0.0297X0.0007*%
%ADD153R,0.0219X0.0007*%
%ADD154R,0.0312X0.0007*%
%ADD155R,0.0227X0.0007*%
%ADD156R,0.0283X0.0007*%
%ADD157R,0.0290X0.0007*%
%ADD158R,0.0269X0.0007*%
%ADD159R,0.0205X0.0007*%
%ADD160R,0.0184X0.0007*%
%ADD161R,0.0255X0.0007*%
%ADD162R,0.0198X0.0007*%
%ADD163R,0.0191X0.0007*%
%ADD164R,0.0184X0.0007*%
%ADD165R,0.0241X0.0007*%
%ADD166R,0.0255X0.0007*%
%ADD167R,0.0191X0.0007*%
%ADD168R,0.0198X0.0007*%
%ADD169R,0.0184X0.0007*%
%ADD170R,0.0234X0.0007*%
%ADD171R,0.0212X0.0007*%
%ADD172R,0.0184X0.0007*%
%ADD173R,0.0170X0.0007*%
%ADD174R,0.0170X0.0007*%
%ADD175R,0.0156X0.0007*%
%ADD176R,0.0035X0.0007*%
%ADD177R,0.0170X0.0007*%
%ADD178R,0.0042X0.0007*%
%ADD179R,0.0064X0.0007*%
%ADD180R,0.0028X0.0007*%
%ADD181R,0.0035X0.0007*%
%ADD182R,0.0156X0.0007*%
%ADD183R,0.0177X0.0007*%
%ADD184R,0.0170X0.0007*%
%ADD185R,0.0028X0.0007*%
%ADD186R,0.0028X0.0007*%
%ADD187R,0.0057X0.0007*%
%ADD188R,0.0057X0.0007*%
%ADD189R,0.0042X0.0007*%
%ADD190R,0.0043X0.0007*%
%ADD191R,0.0050X0.0007*%
%ADD192R,0.0050X0.0007*%
%ADD193R,0.0043X0.0007*%
%ADD194R,0.0043X0.0007*%
%ADD195R,0.0035X0.0007*%
%ADD196R,0.0035X0.0007*%
%ADD197R,0.0078X0.0007*%
%ADD198R,0.0064X0.0007*%
D10*
X001150Y001431D02*
X001283Y001431D01*
X001371Y001431D02*
X001371Y001632D01*
X001471Y001632D01*
X001504Y001598D01*
X001504Y001532D01*
X001471Y001498D01*
X001371Y001498D01*
X001150Y001431D02*
X001150Y001632D01*
X001592Y001632D02*
X001592Y001431D01*
X001659Y001498D01*
X001725Y001431D01*
X001725Y001632D01*
X002004Y001764D02*
X002004Y001831D01*
X002038Y001864D01*
X002104Y001831D02*
X002138Y001864D01*
X002171Y001864D01*
X002204Y001831D01*
X002204Y001764D01*
X002171Y001731D01*
X002104Y001764D02*
X002104Y001831D01*
X002104Y001764D02*
X002071Y001731D01*
X002038Y001731D01*
X002004Y001764D01*
X002038Y001952D02*
X002171Y001952D01*
X002204Y001985D01*
X002204Y002052D01*
X002171Y002085D01*
X002204Y002173D02*
X002204Y002306D01*
X002204Y002173D02*
X002004Y002173D01*
X002038Y002085D02*
X002004Y002052D01*
X002004Y001985D01*
X002038Y001952D01*
X001804Y002416D02*
X001671Y002416D01*
X001671Y002616D01*
X001583Y002582D02*
X001550Y002616D01*
X001483Y002616D01*
X001450Y002582D01*
X001450Y002449D01*
X001483Y002416D01*
X001550Y002416D01*
X001583Y002449D01*
X001362Y002449D02*
X001329Y002416D01*
X001262Y002416D01*
X001229Y002449D01*
X001262Y002516D02*
X001329Y002516D01*
X001362Y002482D01*
X001362Y002449D01*
X001262Y002516D02*
X001229Y002549D01*
X001229Y002582D01*
X001262Y002616D01*
X001329Y002616D01*
X001362Y002582D01*
X002012Y002725D02*
X002045Y002691D01*
X002079Y002691D01*
X002112Y002725D01*
X002112Y002791D01*
X002146Y002825D01*
X002179Y002825D01*
X002212Y002791D01*
X002212Y002725D01*
X002179Y002691D01*
X002012Y002725D02*
X002012Y002791D01*
X002045Y002825D01*
X002012Y002912D02*
X002012Y003012D01*
X002045Y003046D01*
X002179Y003046D01*
X002212Y003012D01*
X002212Y002912D01*
X002012Y002912D01*
X002079Y003133D02*
X002012Y003200D01*
X002079Y003267D01*
X002212Y003267D01*
X002112Y003267D02*
X002112Y003133D01*
X002079Y003133D02*
X002212Y003133D01*
X001765Y003439D02*
X001765Y003573D01*
X001698Y003639D01*
X001631Y003573D01*
X001631Y003439D01*
X001631Y003539D02*
X001765Y003539D01*
X001544Y003473D02*
X001544Y003606D01*
X001510Y003639D01*
X001410Y003639D01*
X001410Y003439D01*
X001510Y003439D01*
X001544Y003473D01*
X001323Y003473D02*
X001289Y003439D01*
X001223Y003439D01*
X001189Y003473D01*
X001223Y003539D02*
X001289Y003539D01*
X001323Y003506D01*
X001323Y003473D01*
X001223Y003539D02*
X001189Y003573D01*
X001189Y003606D01*
X001223Y003639D01*
X001289Y003639D01*
X001323Y003606D01*
X002012Y003670D02*
X002045Y003636D01*
X002179Y003636D01*
X002212Y003670D01*
X002212Y003736D01*
X002179Y003770D01*
X002112Y003770D01*
X002112Y003703D01*
X002112Y003770D01*
X002179Y003770D01*
X002212Y003736D01*
X002212Y003670D01*
X002179Y003636D01*
X002045Y003636D01*
X002012Y003670D01*
X002012Y003736D01*
X002045Y003770D01*
X002012Y003736D01*
X002012Y003670D01*
X002012Y003857D02*
X002212Y003991D01*
X002012Y003991D01*
X002212Y003991D01*
X002012Y003857D01*
X002212Y003857D01*
X002012Y003857D01*
X002012Y004078D02*
X002012Y004178D01*
X002045Y004212D01*
X002179Y004212D01*
X002212Y004178D01*
X002212Y004078D01*
X002012Y004078D01*
X002012Y004178D01*
X002045Y004212D01*
X002179Y004212D01*
X002212Y004178D01*
X002212Y004078D01*
X002012Y004078D01*
X001692Y004424D02*
X001592Y004424D01*
X001592Y004624D01*
X001692Y004624D01*
X001725Y004590D01*
X001725Y004457D01*
X001692Y004424D01*
X001504Y004424D02*
X001504Y004624D01*
X001371Y004624D02*
X001504Y004424D01*
X001371Y004424D02*
X001371Y004624D01*
X001283Y004590D02*
X001250Y004624D01*
X001183Y004624D01*
X001150Y004590D01*
X001150Y004457D01*
X001183Y004424D01*
X001250Y004424D01*
X001283Y004457D01*
X001283Y004524D01*
X001217Y004524D01*
X002016Y004705D02*
X002149Y004705D01*
X002216Y004772D01*
X002149Y004839D01*
X002016Y004839D01*
X002049Y004926D02*
X002183Y004926D01*
X002216Y004960D01*
X002216Y005027D01*
X002183Y005060D01*
X002183Y005147D02*
X002049Y005147D01*
X002016Y005181D01*
X002016Y005248D01*
X002049Y005281D01*
X002183Y005281D02*
X002216Y005248D01*
X002216Y005181D01*
X002183Y005147D01*
X002049Y005060D02*
X002016Y005027D01*
X002016Y004960D01*
X002049Y004926D01*
X001731Y005408D02*
X001665Y005408D01*
X001631Y005441D01*
X001631Y005575D01*
X001665Y005608D01*
X001731Y005608D01*
X001765Y005575D01*
X001765Y005441D02*
X001731Y005408D01*
X001544Y005441D02*
X001510Y005408D01*
X001444Y005408D01*
X001410Y005441D01*
X001410Y005575D01*
X001444Y005608D01*
X001510Y005608D01*
X001544Y005575D01*
X001323Y005608D02*
X001323Y005475D01*
X001256Y005408D01*
X001189Y005475D01*
X001189Y005608D01*
X002000Y005652D02*
X002000Y005752D01*
X002034Y005786D01*
X002067Y005786D01*
X002100Y005752D01*
X002100Y005652D01*
X002200Y005652D02*
X002000Y005652D01*
X002100Y005752D02*
X002134Y005786D01*
X002167Y005786D01*
X002200Y005752D01*
X002200Y005652D01*
X002200Y005873D02*
X002067Y005873D01*
X002000Y005940D01*
X002067Y006007D01*
X002200Y006007D01*
X002100Y006007D02*
X002100Y005873D01*
X002000Y006094D02*
X002000Y006228D01*
X002000Y006161D02*
X002200Y006161D01*
X001737Y006431D02*
X001737Y006632D01*
X001671Y006632D02*
X001804Y006632D01*
X001583Y006565D02*
X001583Y006431D01*
X001583Y006532D02*
X001450Y006532D01*
X001450Y006565D02*
X001516Y006632D01*
X001583Y006565D01*
X001450Y006565D02*
X001450Y006431D01*
X001362Y006465D02*
X001329Y006431D01*
X001229Y006431D01*
X001229Y006632D01*
X001329Y006632D01*
X001362Y006598D01*
X001362Y006565D01*
X001329Y006532D01*
X001229Y006532D01*
X001329Y006532D02*
X001362Y006498D01*
X001362Y006465D01*
X003009Y005740D02*
X003009Y005539D01*
X003143Y005539D01*
X003230Y005539D02*
X003230Y005573D01*
X003364Y005706D01*
X003364Y005740D01*
X003230Y005740D01*
X003143Y005740D02*
X003009Y005740D01*
X003009Y005640D02*
X003076Y005640D01*
X003230Y005539D02*
X003364Y005539D01*
X003451Y005640D02*
X003585Y005640D01*
X003672Y005740D02*
X003739Y005740D01*
X003705Y005740D02*
X003705Y005539D01*
X003672Y005539D02*
X003739Y005539D01*
X003819Y005539D02*
X003953Y005673D01*
X003953Y005706D01*
X003919Y005740D01*
X003853Y005740D01*
X003819Y005706D01*
X003819Y005539D02*
X003953Y005539D01*
X004040Y005573D02*
X004074Y005539D01*
X004140Y005539D01*
X004174Y005573D01*
X004040Y005573D02*
X004040Y005706D01*
X004074Y005740D01*
X004140Y005740D01*
X004174Y005706D01*
X004482Y005740D02*
X004482Y005539D01*
X004616Y005539D02*
X004616Y005740D01*
X004549Y005673D01*
X004482Y005740D01*
X004703Y005740D02*
X004803Y005740D01*
X004837Y005706D01*
X004837Y005640D01*
X004803Y005606D01*
X004703Y005606D01*
X004703Y005539D02*
X004703Y005740D01*
X004924Y005740D02*
X004924Y005573D01*
X004958Y005539D01*
X005024Y005539D01*
X005058Y005573D01*
X005058Y005740D01*
X005145Y005640D02*
X005245Y005640D01*
X005279Y005606D01*
X005279Y005573D01*
X005245Y005539D01*
X005179Y005539D01*
X005145Y005573D01*
X005145Y005640D01*
X005212Y005706D01*
X005279Y005740D01*
X005366Y005706D02*
X005400Y005740D01*
X005466Y005740D01*
X005500Y005706D01*
X005366Y005573D01*
X005400Y005539D01*
X005466Y005539D01*
X005500Y005573D01*
X005500Y005706D01*
X005587Y005740D02*
X005587Y005640D01*
X005654Y005673D01*
X005687Y005673D01*
X005721Y005640D01*
X005721Y005573D01*
X005687Y005539D01*
X005621Y005539D01*
X005587Y005573D01*
X005587Y005740D02*
X005721Y005740D01*
X005808Y005706D02*
X005842Y005740D01*
X005908Y005740D01*
X005942Y005706D01*
X005808Y005573D01*
X005842Y005539D01*
X005908Y005539D01*
X005942Y005573D01*
X005942Y005706D01*
X005808Y005706D02*
X005808Y005573D01*
X005366Y005573D02*
X005366Y005706D01*
X004991Y005380D02*
X004991Y005179D01*
X004924Y005179D02*
X005058Y005179D01*
X004924Y005313D02*
X004991Y005380D01*
X004837Y005380D02*
X004837Y005246D01*
X004770Y005179D01*
X004703Y005246D01*
X004703Y005380D01*
X004395Y005380D02*
X004395Y005213D01*
X004361Y005179D01*
X004295Y005179D01*
X004261Y005213D01*
X004261Y005380D01*
X004174Y005380D02*
X004174Y005179D01*
X004040Y005179D02*
X004040Y005380D01*
X004107Y005313D01*
X004174Y005380D01*
X003960Y005380D02*
X003893Y005380D01*
X003926Y005380D02*
X003926Y005179D01*
X003893Y005179D02*
X003960Y005179D01*
X007288Y005178D02*
X007321Y005145D01*
X007455Y005145D01*
X007488Y005178D01*
X007488Y005245D01*
X007455Y005278D01*
X007321Y005278D02*
X007288Y005245D01*
X007288Y005178D01*
X007321Y005058D02*
X007288Y005024D01*
X007288Y004957D01*
X007321Y004924D01*
X007455Y004924D01*
X007488Y004957D01*
X007488Y005024D01*
X007455Y005058D01*
X007421Y004837D02*
X007288Y004837D01*
X007421Y004837D02*
X007488Y004770D01*
X007421Y004703D01*
X007288Y004703D01*
X007650Y004590D02*
X007650Y004457D01*
X007683Y004424D01*
X007750Y004424D01*
X007783Y004457D01*
X007783Y004524D01*
X007717Y004524D01*
X007783Y004590D02*
X007750Y004624D01*
X007683Y004624D01*
X007650Y004590D01*
X007871Y004624D02*
X007871Y004424D01*
X008004Y004424D02*
X008004Y004624D01*
X008092Y004624D02*
X008192Y004624D01*
X008225Y004590D01*
X008225Y004457D01*
X008192Y004424D01*
X008092Y004424D01*
X008092Y004624D01*
X008004Y004424D02*
X007871Y004624D01*
X007488Y004261D02*
X007455Y004294D01*
X007321Y004294D01*
X007288Y004261D01*
X007288Y004161D01*
X007488Y004161D01*
X007488Y004261D01*
X007488Y004073D02*
X007288Y004073D01*
X007288Y003940D02*
X007488Y004073D01*
X007488Y003940D02*
X007288Y003940D01*
X007321Y003852D02*
X007288Y003819D01*
X007288Y003752D01*
X007321Y003719D01*
X007455Y003719D01*
X007488Y003752D01*
X007488Y003819D01*
X007455Y003852D01*
X007388Y003852D01*
X007388Y003786D01*
X007689Y003606D02*
X007689Y003573D01*
X007723Y003539D01*
X007789Y003539D01*
X007823Y003506D01*
X007823Y003473D01*
X007789Y003439D01*
X007723Y003439D01*
X007689Y003473D01*
X007689Y003606D02*
X007723Y003639D01*
X007789Y003639D01*
X007823Y003606D01*
X007910Y003639D02*
X008010Y003639D01*
X008044Y003606D01*
X008044Y003473D01*
X008010Y003439D01*
X007910Y003439D01*
X007910Y003639D01*
X008131Y003573D02*
X008198Y003639D01*
X008265Y003573D01*
X008265Y003439D01*
X008265Y003539D02*
X008131Y003539D01*
X008131Y003573D02*
X008131Y003439D01*
X007488Y003310D02*
X007354Y003310D01*
X007288Y003243D01*
X007354Y003177D01*
X007488Y003177D01*
X007455Y003089D02*
X007321Y003089D01*
X007288Y003056D01*
X007288Y002956D01*
X007488Y002956D01*
X007488Y003056D01*
X007455Y003089D01*
X007388Y003177D02*
X007388Y003310D01*
X007421Y002868D02*
X007455Y002868D01*
X007488Y002835D01*
X007488Y002768D01*
X007455Y002735D01*
X007388Y002768D02*
X007388Y002835D01*
X007421Y002868D01*
X007321Y002868D02*
X007288Y002835D01*
X007288Y002768D01*
X007321Y002735D01*
X007354Y002735D01*
X007388Y002768D01*
X007729Y002582D02*
X007729Y002549D01*
X007762Y002516D01*
X007829Y002516D01*
X007862Y002482D01*
X007862Y002449D01*
X007829Y002416D01*
X007762Y002416D01*
X007729Y002449D01*
X007729Y002582D02*
X007762Y002616D01*
X007829Y002616D01*
X007862Y002582D01*
X007950Y002582D02*
X007950Y002449D01*
X007983Y002416D01*
X008050Y002416D01*
X008083Y002449D01*
X008171Y002416D02*
X008304Y002416D01*
X008171Y002416D02*
X008171Y002616D01*
X008083Y002582D02*
X008050Y002616D01*
X007983Y002616D01*
X007950Y002582D01*
X007488Y002365D02*
X007488Y002232D01*
X007288Y002232D01*
X007321Y002144D02*
X007288Y002111D01*
X007288Y002044D01*
X007321Y002011D01*
X007455Y002011D01*
X007488Y002044D01*
X007488Y002111D01*
X007455Y002144D01*
X007455Y001923D02*
X007488Y001890D01*
X007488Y001823D01*
X007455Y001790D01*
X007388Y001823D02*
X007388Y001890D01*
X007421Y001923D01*
X007455Y001923D01*
X007321Y001923D02*
X007288Y001890D01*
X007288Y001823D01*
X007321Y001790D01*
X007354Y001790D01*
X007388Y001823D01*
X007650Y001632D02*
X007650Y001431D01*
X007783Y001431D01*
X007871Y001431D02*
X007871Y001632D01*
X007971Y001632D01*
X008004Y001598D01*
X008004Y001532D01*
X007971Y001498D01*
X007871Y001498D01*
X008092Y001431D02*
X008159Y001498D01*
X008225Y001431D01*
X008225Y001632D01*
X008092Y001632D02*
X008092Y001431D01*
X007488Y001302D02*
X007288Y001302D01*
X007288Y001169D02*
X007488Y001169D01*
X007421Y001235D01*
X007488Y001302D01*
X007388Y001081D02*
X007321Y001081D01*
X007288Y001048D01*
X007288Y000948D01*
X007488Y000948D01*
X007421Y000948D02*
X007421Y001048D01*
X007388Y001081D01*
X007488Y000860D02*
X007488Y000727D01*
X007288Y000727D01*
X002212Y000683D02*
X002212Y000817D01*
X002212Y000904D02*
X002012Y000904D01*
X002012Y001004D01*
X002045Y001038D01*
X002112Y001038D01*
X002146Y001004D01*
X002146Y000904D01*
X002212Y001125D02*
X002012Y001125D01*
X002012Y001259D02*
X002212Y001259D01*
X002146Y001192D01*
X002212Y001125D01*
X002212Y000683D02*
X002012Y000683D01*
X007689Y005475D02*
X007756Y005408D01*
X007823Y005475D01*
X007823Y005608D01*
X007910Y005575D02*
X007910Y005441D01*
X007944Y005408D01*
X008010Y005408D01*
X008044Y005441D01*
X008131Y005441D02*
X008165Y005408D01*
X008231Y005408D01*
X008265Y005441D01*
X008265Y005575D02*
X008231Y005608D01*
X008165Y005608D01*
X008131Y005575D01*
X008131Y005441D01*
X008044Y005575D02*
X008010Y005608D01*
X007944Y005608D01*
X007910Y005575D01*
X007689Y005608D02*
X007689Y005475D01*
X007464Y005853D02*
X007264Y005853D01*
X007264Y005953D01*
X007297Y005986D01*
X007331Y005986D01*
X007364Y005953D01*
X007364Y005853D01*
X007364Y005953D02*
X007398Y005986D01*
X007431Y005986D01*
X007464Y005953D01*
X007464Y005853D01*
X007464Y006074D02*
X007331Y006074D01*
X007264Y006140D01*
X007331Y006207D01*
X007464Y006207D01*
X007364Y006207D02*
X007364Y006074D01*
X007264Y006295D02*
X007264Y006428D01*
X007264Y006361D02*
X007464Y006361D01*
X007729Y006431D02*
X007829Y006431D01*
X007862Y006465D01*
X007862Y006498D01*
X007829Y006532D01*
X007729Y006532D01*
X007729Y006632D02*
X007829Y006632D01*
X007862Y006598D01*
X007862Y006565D01*
X007829Y006532D01*
X007950Y006532D02*
X008083Y006532D01*
X008083Y006565D02*
X008083Y006431D01*
X007950Y006431D02*
X007950Y006565D01*
X008016Y006632D01*
X008083Y006565D01*
X008171Y006632D02*
X008304Y006632D01*
X008237Y006632D02*
X008237Y006431D01*
X007729Y006431D02*
X007729Y006632D01*
D11*
X001250Y000624D02*
X001079Y000795D01*
X001079Y001295D01*
X001132Y001545D01*
X001079Y001795D01*
X001079Y002295D01*
X001132Y002545D01*
X001079Y002795D01*
X001079Y003295D01*
X001132Y003545D01*
X001079Y003795D01*
X001079Y004295D01*
X001132Y004545D01*
X001079Y004795D01*
X001079Y005295D01*
X001132Y005545D01*
X001079Y005795D01*
X001079Y006295D01*
X001250Y006663D01*
X001750Y006663D01*
X001921Y006295D01*
X001921Y005795D01*
X001868Y005545D01*
X001921Y005295D01*
X001921Y004795D01*
X001868Y004545D01*
X001921Y004295D01*
X001921Y003795D01*
X001868Y003545D01*
X001921Y003295D01*
X001921Y002795D01*
X001868Y002545D01*
X001921Y002295D01*
X001921Y001795D01*
X001868Y001545D01*
X001921Y001295D01*
X001921Y000795D01*
X001750Y000624D01*
X001250Y000624D01*
X003904Y003230D02*
X004042Y003092D01*
X005341Y003092D02*
X005479Y003092D01*
X005479Y003230D01*
X005479Y004529D02*
X005479Y004667D01*
X005341Y004667D01*
X004042Y004667D02*
X003904Y004667D01*
X003904Y004529D01*
X002994Y004832D02*
X002344Y004832D01*
X002327Y004834D01*
X002310Y004838D01*
X002294Y004845D01*
X002280Y004855D01*
X002267Y004868D01*
X002257Y004882D01*
X002250Y004898D01*
X002246Y004915D01*
X002244Y004932D01*
X002994Y004832D02*
X003011Y004834D01*
X003028Y004838D01*
X003044Y004845D01*
X003058Y004855D01*
X003071Y004868D01*
X003081Y004882D01*
X003088Y004898D01*
X003092Y004915D01*
X003094Y004932D01*
X003094Y005532D02*
X003092Y005549D01*
X003088Y005566D01*
X003081Y005582D01*
X003071Y005596D01*
X003058Y005609D01*
X003044Y005619D01*
X003028Y005626D01*
X003011Y005630D01*
X002994Y005632D01*
X002344Y005632D01*
X002327Y005630D01*
X002310Y005626D01*
X002294Y005619D01*
X002280Y005609D01*
X002267Y005596D01*
X002257Y005582D01*
X002250Y005566D01*
X002246Y005549D01*
X002244Y005532D01*
X005357Y001519D02*
X005357Y000869D01*
X005359Y000852D01*
X005363Y000835D01*
X005370Y000819D01*
X005380Y000805D01*
X005393Y000792D01*
X005407Y000782D01*
X005423Y000775D01*
X005440Y000771D01*
X005457Y000769D01*
X006057Y000769D02*
X006074Y000771D01*
X006091Y000775D01*
X006107Y000782D01*
X006121Y000792D01*
X006134Y000805D01*
X006144Y000819D01*
X006151Y000835D01*
X006155Y000852D01*
X006157Y000869D01*
X006157Y001519D01*
X006155Y001536D01*
X006151Y001553D01*
X006144Y001569D01*
X006134Y001583D01*
X006121Y001596D01*
X006107Y001606D01*
X006091Y001613D01*
X006074Y001617D01*
X006057Y001619D01*
X005457Y001619D02*
X005440Y001617D01*
X005423Y001613D01*
X005407Y001606D01*
X005393Y001596D01*
X005380Y001583D01*
X005370Y001569D01*
X005363Y001553D01*
X005359Y001536D01*
X005357Y001519D01*
X007579Y001295D02*
X007579Y000795D01*
X007750Y000624D01*
X008250Y000624D01*
X008421Y000795D01*
X008421Y001295D01*
X008368Y001545D01*
X008421Y001795D01*
X008421Y002295D01*
X008368Y002545D01*
X008421Y002795D01*
X008421Y003295D01*
X008368Y003545D01*
X008421Y003795D01*
X008421Y004295D01*
X008368Y004545D01*
X008421Y004795D01*
X008421Y005295D01*
X008368Y005545D01*
X008421Y005795D01*
X008421Y006295D01*
X008250Y006663D01*
X007750Y006663D01*
X007579Y006295D01*
X007579Y005795D01*
X007632Y005545D01*
X007579Y005295D01*
X007579Y004795D01*
X007632Y004545D01*
X007579Y004295D01*
X007579Y003795D01*
X007632Y003545D01*
X007579Y003295D01*
X007579Y002795D01*
X007632Y002545D01*
X007579Y002295D01*
X007579Y001795D01*
X007632Y001545D01*
X007579Y001295D01*
D12*
X006641Y003585D02*
X006617Y003585D01*
X006854Y005561D02*
X006878Y005561D01*
X003994Y001270D02*
X003970Y001270D01*
X003062Y001269D02*
X003038Y001269D01*
D13*
X002785Y001341D02*
X002785Y001378D01*
X002748Y001415D01*
X002675Y001415D01*
X002638Y001378D01*
X002564Y001378D02*
X002527Y001415D01*
X002454Y001415D01*
X002417Y001378D01*
X002417Y001231D01*
X002454Y001194D01*
X002527Y001194D01*
X002564Y001231D01*
X002638Y001194D02*
X002785Y001341D01*
X002785Y001194D02*
X002638Y001194D01*
X003406Y001208D02*
X003443Y001172D01*
X003516Y001172D01*
X003553Y001208D01*
X003627Y001172D02*
X003774Y001172D01*
X003700Y001172D02*
X003700Y001392D01*
X003627Y001318D01*
X003553Y001355D02*
X003516Y001392D01*
X003443Y001392D01*
X003406Y001355D01*
X003406Y001208D01*
X003204Y002007D02*
X003057Y002007D01*
X003204Y002154D01*
X003204Y002191D01*
X003167Y002227D01*
X003094Y002227D01*
X003057Y002191D01*
X002983Y002191D02*
X002983Y002117D01*
X002946Y002080D01*
X002836Y002080D01*
X002836Y002007D02*
X002836Y002227D01*
X002946Y002227D01*
X002983Y002191D01*
X002910Y002080D02*
X002983Y002007D01*
X004570Y002118D02*
X004570Y002338D01*
X004680Y002338D01*
X004717Y002301D01*
X004717Y002228D01*
X004680Y002191D01*
X004570Y002191D01*
X004644Y002191D02*
X004717Y002118D01*
X004791Y002118D02*
X004938Y002118D01*
X004865Y002118D02*
X004865Y002338D01*
X004791Y002264D01*
X006807Y003951D02*
X006844Y003915D01*
X006917Y003915D01*
X006954Y003951D01*
X007028Y003951D02*
X007065Y003915D01*
X007138Y003915D01*
X007175Y003951D01*
X007175Y003988D01*
X007138Y004025D01*
X007102Y004025D01*
X007138Y004025D02*
X007175Y004061D01*
X007175Y004098D01*
X007138Y004135D01*
X007065Y004135D01*
X007028Y004098D01*
X006954Y004098D02*
X006917Y004135D01*
X006844Y004135D01*
X006807Y004098D01*
X006807Y003951D01*
X006564Y005179D02*
X006564Y005399D01*
X006454Y005289D01*
X006601Y005289D01*
X006380Y005216D02*
X006343Y005179D01*
X006270Y005179D01*
X006233Y005216D01*
X006233Y005363D01*
X006270Y005399D01*
X006343Y005399D01*
X006380Y005363D01*
D14*
X005406Y002274D03*
X003728Y002078D03*
D15*
X004327Y001820D02*
X004327Y000820D01*
X004329Y000803D01*
X004333Y000786D01*
X004340Y000770D01*
X004350Y000756D01*
X004363Y000743D01*
X004377Y000733D01*
X004393Y000726D01*
X004410Y000722D01*
X004427Y000720D01*
X005027Y000720D01*
X005044Y000722D01*
X005061Y000726D01*
X005077Y000733D01*
X005091Y000743D01*
X005104Y000756D01*
X005114Y000770D01*
X005121Y000786D01*
X005125Y000803D01*
X005127Y000820D01*
X005127Y001820D01*
X005125Y001837D01*
X005121Y001854D01*
X005114Y001870D01*
X005104Y001884D01*
X005091Y001897D01*
X005077Y001907D01*
X005061Y001914D01*
X005044Y001918D01*
X005027Y001920D01*
X004427Y001920D01*
X004410Y001918D01*
X004393Y001914D01*
X004377Y001907D01*
X004363Y001897D01*
X004350Y001884D01*
X004340Y001870D01*
X004333Y001854D01*
X004329Y001837D01*
X004327Y001820D01*
D16*
X005208Y001850D02*
X005233Y001825D01*
X005283Y001825D01*
X005308Y001800D01*
X005308Y001775D01*
X005283Y001749D01*
X005233Y001749D01*
X005208Y001775D01*
X005208Y001850D02*
X005208Y001875D01*
X005233Y001900D01*
X005283Y001900D01*
X005308Y001875D01*
X005406Y001900D02*
X005456Y001900D01*
X005431Y001900D02*
X005431Y001775D01*
X005406Y001749D01*
X005380Y001749D01*
X005355Y001775D01*
X005503Y001749D02*
X005603Y001749D01*
X005553Y001749D02*
X005553Y001900D01*
X005503Y001850D01*
X006272Y001394D02*
X006372Y001294D01*
X006372Y001246D02*
X006272Y001146D01*
X006272Y001099D02*
X006297Y001099D01*
X006322Y001074D01*
X006347Y001099D01*
X006372Y001099D01*
X006397Y001074D01*
X006397Y001024D01*
X006372Y000999D01*
X006322Y001049D02*
X006322Y001074D01*
X006272Y001099D02*
X006247Y001074D01*
X006247Y001024D01*
X006272Y000999D01*
X006247Y000952D02*
X006247Y000902D01*
X006247Y000927D02*
X006372Y000927D01*
X006397Y000902D01*
X006397Y000877D01*
X006372Y000852D01*
X006372Y000804D02*
X006347Y000804D01*
X006322Y000779D01*
X006322Y000729D01*
X006297Y000704D01*
X006272Y000704D01*
X006247Y000729D01*
X006247Y000779D01*
X006272Y000804D01*
X006372Y000804D02*
X006397Y000779D01*
X006397Y000729D01*
X006372Y000704D01*
X006372Y001146D02*
X006272Y001246D01*
X006272Y001294D02*
X006372Y001394D01*
X006372Y001344D02*
X006272Y001344D01*
X006322Y001294D02*
X006322Y001394D01*
X006322Y001246D02*
X006322Y001146D01*
X006372Y001196D02*
X006272Y001196D01*
X003254Y004574D02*
X003154Y004574D01*
X003254Y004674D01*
X003254Y004699D01*
X003229Y004724D01*
X003179Y004724D01*
X003154Y004699D01*
X003107Y004724D02*
X003057Y004724D01*
X003082Y004724D02*
X003082Y004599D01*
X003057Y004574D01*
X003032Y004574D01*
X003007Y004599D01*
X002960Y004599D02*
X002935Y004574D01*
X002885Y004574D01*
X002860Y004599D01*
X002885Y004649D02*
X002935Y004649D01*
X002960Y004624D01*
X002960Y004599D01*
X002885Y004649D02*
X002860Y004674D01*
X002860Y004699D01*
X002885Y004724D01*
X002935Y004724D01*
X002960Y004699D01*
X003302Y004699D02*
X003402Y004599D01*
X003449Y004599D02*
X003549Y004699D01*
X003549Y004649D02*
X003449Y004649D01*
X003402Y004649D02*
X003302Y004649D01*
X003302Y004599D02*
X003402Y004699D01*
X003449Y004699D02*
X003549Y004599D01*
X003499Y004599D02*
X003499Y004699D01*
X003352Y004699D02*
X003352Y004599D01*
D17*
X004790Y005781D03*
X003253Y006432D03*
X003239Y006475D03*
X003168Y006432D03*
X003168Y006425D03*
X003119Y006432D03*
X003104Y006475D03*
X003034Y006432D03*
X003034Y006425D03*
X002984Y006432D03*
X002970Y006475D03*
X002835Y006475D03*
X002765Y006432D03*
X002765Y006425D03*
X002807Y006375D03*
X002942Y006375D03*
X003076Y006375D03*
X003211Y006375D03*
D18*
X002803Y006524D03*
X005119Y005781D03*
D19*
X005590Y006184D03*
X005916Y005781D03*
D20*
X005916Y005788D03*
X006029Y005936D03*
X006029Y005951D03*
X006029Y005986D03*
X006029Y006000D03*
X006022Y006050D03*
X006170Y006050D03*
X006170Y006036D03*
X006170Y006000D03*
X006170Y005986D03*
X006170Y005951D03*
X006170Y005936D03*
X006170Y005901D03*
X006170Y005887D03*
X006170Y005859D03*
X006170Y005837D03*
X006170Y005809D03*
X006170Y005788D03*
X006170Y006078D03*
X006170Y006099D03*
X006170Y006128D03*
X006170Y006149D03*
X006170Y006227D03*
X006170Y006255D03*
X006170Y006276D03*
X006170Y006305D03*
X005760Y006036D03*
X005434Y006000D03*
X005434Y005986D03*
X005434Y005951D03*
X005434Y005936D03*
X005434Y005901D03*
X005434Y005887D03*
X005434Y005859D03*
X005434Y005837D03*
X005434Y005809D03*
X005434Y005788D03*
X005285Y005936D03*
X005285Y005951D03*
X005285Y006050D03*
X005285Y006078D03*
X005059Y006078D03*
X004910Y006036D03*
X004896Y006078D03*
X005052Y005936D03*
X004910Y005901D03*
X004903Y005887D03*
X004662Y005901D03*
X004655Y006036D03*
X004655Y006050D03*
X004528Y006078D03*
X004521Y006050D03*
X004514Y006036D03*
X004506Y006000D03*
X004499Y005986D03*
X004379Y006036D03*
X004365Y006099D03*
X004117Y005986D03*
X004174Y005788D03*
X004443Y005788D03*
X003749Y005788D03*
X003749Y005809D03*
X003749Y005837D03*
X003749Y005859D03*
X003749Y005887D03*
X003749Y005901D03*
X003749Y005936D03*
X003749Y005951D03*
X003749Y005986D03*
X003749Y006000D03*
X003749Y006036D03*
X003749Y006050D03*
X003501Y006050D03*
X003501Y006036D03*
X003352Y006036D03*
X003352Y006050D03*
X003352Y006078D03*
X003352Y006099D03*
X003352Y006128D03*
X003352Y006149D03*
X003352Y006227D03*
X003352Y006255D03*
X003352Y006276D03*
X003352Y006305D03*
X003204Y006128D03*
X003204Y006099D03*
X003204Y006078D03*
X003204Y006050D03*
X003204Y006036D03*
X003204Y006000D03*
X003204Y005986D03*
X003204Y005951D03*
X003204Y005936D03*
X003204Y005901D03*
X003204Y005887D03*
X003204Y005859D03*
X003204Y005837D03*
X003204Y005809D03*
X003204Y005788D03*
X003352Y005788D03*
X003352Y005809D03*
X003352Y005837D03*
X003352Y005859D03*
X003352Y005887D03*
X003352Y005901D03*
X003352Y005936D03*
X003352Y005951D03*
X003352Y005986D03*
X003352Y006000D03*
X002800Y006000D03*
X002800Y005986D03*
X002800Y005951D03*
X002800Y005936D03*
X002800Y005901D03*
X002800Y005887D03*
X002800Y005859D03*
X002800Y005837D03*
X002800Y005809D03*
X002800Y005788D03*
X002800Y006036D03*
X002800Y006050D03*
X002800Y006078D03*
X002800Y006099D03*
X002800Y006128D03*
D21*
X003002Y005788D03*
X003738Y006078D03*
X004071Y006149D03*
X004078Y006128D03*
X004085Y006099D03*
X004092Y006078D03*
X004099Y006050D03*
X004113Y006000D03*
X004064Y006177D03*
X004531Y006099D03*
X004538Y006128D03*
X004545Y006149D03*
X004567Y006227D03*
X004574Y006255D03*
X004581Y006276D03*
X004588Y006305D03*
X004666Y006078D03*
X004666Y005887D03*
X005282Y005901D03*
X005282Y006036D03*
X005551Y006149D03*
X005763Y006050D03*
X005763Y005901D03*
X005615Y005887D03*
X005615Y005859D03*
X005615Y005837D03*
X005615Y005809D03*
X005615Y005788D03*
X006018Y005901D03*
D22*
X005756Y005936D03*
X005756Y005951D03*
X005756Y005986D03*
X005756Y006000D03*
X005756Y006128D03*
X005756Y006149D03*
X005756Y006177D03*
X005756Y006227D03*
X005756Y006255D03*
X005756Y006276D03*
X005756Y006305D03*
X005431Y006149D03*
X005431Y006128D03*
X005756Y005837D03*
X005756Y005809D03*
X005756Y005788D03*
X005048Y006050D03*
X004906Y006050D03*
X004652Y005936D03*
X004390Y005986D03*
X004390Y006000D03*
X004375Y006050D03*
X004368Y006078D03*
X004248Y006078D03*
X004241Y006050D03*
X004227Y005986D03*
X003894Y005986D03*
X003894Y006000D03*
X003894Y006036D03*
X003894Y006050D03*
X003894Y006078D03*
X003894Y006099D03*
X003894Y006128D03*
X003894Y006149D03*
X003894Y006227D03*
X003894Y006255D03*
X003894Y006276D03*
X003894Y006305D03*
X003894Y005951D03*
X003894Y005936D03*
X003894Y005901D03*
X003894Y005887D03*
X003894Y005859D03*
X003894Y005837D03*
X003894Y005809D03*
X003894Y005788D03*
X003497Y005788D03*
X003497Y005809D03*
X003497Y005837D03*
X003497Y005859D03*
X003497Y005887D03*
X003497Y005901D03*
X003497Y005936D03*
X003497Y005951D03*
X003497Y005986D03*
X003497Y006000D03*
X003497Y006128D03*
X003497Y006149D03*
X003207Y006404D03*
X002938Y006404D03*
X002803Y006404D03*
X002903Y006128D03*
X002910Y006099D03*
X002917Y006078D03*
X002938Y006000D03*
X002938Y005986D03*
X002952Y005936D03*
X003065Y005986D03*
X003094Y006099D03*
X003101Y006128D03*
D23*
X004687Y006099D03*
X004786Y006177D03*
X004786Y005788D03*
X005544Y006128D03*
X005770Y006078D03*
X005770Y005887D03*
X006471Y006036D03*
D24*
X006440Y006000D03*
X006383Y005936D03*
X006340Y005887D03*
X006008Y005887D03*
X006008Y006078D03*
X005278Y005887D03*
X005115Y005788D03*
X005052Y005859D03*
X005066Y005951D03*
X005073Y006099D03*
X004443Y005809D03*
X004174Y005809D03*
X004046Y006255D03*
X004039Y006276D03*
X004032Y006305D03*
X003508Y006078D03*
D25*
X003076Y006036D03*
X003069Y006000D03*
X002927Y006036D03*
X005292Y005788D03*
D26*
X006422Y005788D03*
X006422Y005809D03*
X006422Y005837D03*
X006422Y005859D03*
D27*
X006170Y005844D03*
X006170Y005795D03*
X006170Y005894D03*
X006170Y005944D03*
X006170Y005993D03*
X006170Y006043D03*
X006170Y006092D03*
X006170Y006142D03*
X006022Y006043D03*
X006029Y005993D03*
X006029Y005944D03*
X005760Y006043D03*
X005434Y005993D03*
X005434Y005944D03*
X005434Y005894D03*
X005434Y005844D03*
X005434Y005795D03*
X005285Y005944D03*
X005285Y006043D03*
X005066Y006092D03*
X004910Y006043D03*
X004903Y005894D03*
X004662Y005894D03*
X004655Y006043D03*
X004528Y006092D03*
X004514Y006043D03*
X004542Y006142D03*
X004117Y005993D03*
X004103Y006043D03*
X004089Y006092D03*
X004174Y005795D03*
X004443Y005795D03*
X003749Y005795D03*
X003749Y005844D03*
X003749Y005894D03*
X003749Y005944D03*
X003749Y005993D03*
X003749Y006043D03*
X003501Y006043D03*
X003352Y006043D03*
X003352Y006092D03*
X003352Y006142D03*
X003352Y006262D03*
X003352Y006312D03*
X003204Y006092D03*
X003204Y006043D03*
X003204Y005993D03*
X003204Y005944D03*
X003204Y005894D03*
X003204Y005844D03*
X003204Y005795D03*
X003352Y005795D03*
X003352Y005844D03*
X003352Y005894D03*
X003352Y005944D03*
X003352Y005993D03*
X002800Y005993D03*
X002800Y005944D03*
X002800Y005894D03*
X002800Y005844D03*
X002800Y005795D03*
X002800Y006043D03*
X002800Y006092D03*
X006170Y006262D03*
X006170Y006312D03*
D28*
X006011Y005894D03*
X005615Y005844D03*
X005615Y005795D03*
X005282Y005894D03*
X005275Y006092D03*
X005055Y005944D03*
X004885Y006092D03*
X004574Y006262D03*
X004078Y006142D03*
X004043Y006262D03*
X003002Y005795D03*
D29*
X002952Y005944D03*
X002938Y005993D03*
X002910Y006092D03*
X003080Y006043D03*
X003094Y006092D03*
X003497Y006142D03*
X003497Y005993D03*
X003497Y005944D03*
X003497Y005894D03*
X003497Y005844D03*
X003497Y005795D03*
X003894Y005795D03*
X003894Y005844D03*
X003894Y005894D03*
X003894Y005944D03*
X003894Y005993D03*
X003894Y006043D03*
X003894Y006092D03*
X003894Y006142D03*
X003894Y006262D03*
X003894Y006312D03*
X004241Y006043D03*
X004368Y006092D03*
X004375Y006043D03*
X004390Y005993D03*
X005431Y006142D03*
X005756Y006142D03*
X005756Y006262D03*
X005756Y006312D03*
X005756Y005993D03*
X005756Y005944D03*
X005756Y005795D03*
D30*
X004786Y005795D03*
X003172Y006262D03*
D31*
X005119Y005795D03*
D32*
X005041Y005894D03*
X005289Y005795D03*
X004503Y005993D03*
X002924Y006043D03*
D33*
X004308Y006262D03*
X004443Y005844D03*
X005916Y005795D03*
D34*
X005877Y005844D03*
X006422Y005844D03*
X006422Y005795D03*
D35*
X006170Y005802D03*
X006170Y005816D03*
X006170Y005830D03*
X006170Y005851D03*
X006170Y005866D03*
X006170Y005880D03*
X006170Y005908D03*
X006170Y005915D03*
X006170Y005929D03*
X006170Y005958D03*
X006170Y005972D03*
X006170Y005979D03*
X006170Y006007D03*
X006170Y006021D03*
X006170Y006028D03*
X006170Y006057D03*
X006170Y006071D03*
X006170Y006085D03*
X006170Y006106D03*
X006170Y006121D03*
X006170Y006135D03*
X006170Y006156D03*
X006170Y006170D03*
X006170Y006220D03*
X006170Y006234D03*
X006170Y006248D03*
X006170Y006269D03*
X006170Y006283D03*
X006170Y006298D03*
X006029Y006028D03*
X006029Y006021D03*
X006029Y006007D03*
X006029Y005979D03*
X006029Y005972D03*
X006029Y005958D03*
X006022Y005915D03*
X005760Y005915D03*
X005760Y005929D03*
X005760Y006028D03*
X005554Y006156D03*
X005434Y006028D03*
X005434Y006021D03*
X005434Y006007D03*
X005434Y005979D03*
X005434Y005972D03*
X005434Y005958D03*
X005434Y005929D03*
X005434Y005915D03*
X005434Y005908D03*
X005434Y005880D03*
X005434Y005866D03*
X005434Y005851D03*
X005434Y005830D03*
X005434Y005816D03*
X005434Y005802D03*
X005285Y005908D03*
X005285Y005915D03*
X005285Y005929D03*
X005285Y005958D03*
X005285Y006057D03*
X005285Y006071D03*
X005278Y006085D03*
X005059Y006085D03*
X004910Y006028D03*
X005045Y005915D03*
X005045Y005880D03*
X004655Y005908D03*
X004655Y005915D03*
X004655Y006057D03*
X004549Y006170D03*
X004556Y006198D03*
X004563Y006220D03*
X004570Y006248D03*
X004577Y006269D03*
X004584Y006298D03*
X004542Y006135D03*
X004535Y006121D03*
X004535Y006106D03*
X004528Y006085D03*
X004521Y006071D03*
X004521Y006057D03*
X004514Y006028D03*
X004506Y006007D03*
X004499Y005979D03*
X004393Y005979D03*
X004386Y006007D03*
X004124Y005972D03*
X004110Y006021D03*
X004096Y006071D03*
X004082Y006121D03*
X003749Y006028D03*
X003749Y006021D03*
X003749Y006007D03*
X003749Y005979D03*
X003749Y005972D03*
X003749Y005958D03*
X003749Y005929D03*
X003749Y005915D03*
X003749Y005908D03*
X003749Y005880D03*
X003749Y005866D03*
X003749Y005851D03*
X003749Y005830D03*
X003749Y005816D03*
X003749Y005802D03*
X003501Y006028D03*
X003352Y006028D03*
X003352Y006021D03*
X003352Y006007D03*
X003352Y005979D03*
X003352Y005972D03*
X003352Y005958D03*
X003352Y005929D03*
X003352Y005915D03*
X003352Y005908D03*
X003352Y005880D03*
X003352Y005866D03*
X003352Y005851D03*
X003352Y005830D03*
X003352Y005816D03*
X003352Y005802D03*
X003204Y005802D03*
X003204Y005816D03*
X003204Y005830D03*
X003204Y005851D03*
X003204Y005866D03*
X003204Y005880D03*
X003204Y005908D03*
X003204Y005915D03*
X003204Y005929D03*
X003204Y005958D03*
X003204Y005972D03*
X003204Y005979D03*
X003204Y006007D03*
X003204Y006021D03*
X003204Y006028D03*
X003204Y006057D03*
X003204Y006071D03*
X003204Y006085D03*
X003204Y006106D03*
X003204Y006121D03*
X003204Y006135D03*
X003352Y006135D03*
X003352Y006121D03*
X003352Y006106D03*
X003352Y006085D03*
X003352Y006071D03*
X003352Y006057D03*
X003352Y006156D03*
X003352Y006170D03*
X003352Y006220D03*
X003352Y006234D03*
X003352Y006248D03*
X003352Y006269D03*
X003352Y006283D03*
X003352Y006298D03*
X002800Y006135D03*
X002800Y006121D03*
X002800Y006106D03*
X002800Y006085D03*
X002800Y006071D03*
X002800Y006057D03*
X002800Y006028D03*
X002800Y006021D03*
X002800Y006007D03*
X002800Y005979D03*
X002800Y005972D03*
X002800Y005958D03*
X002800Y005929D03*
X002800Y005915D03*
X002800Y005908D03*
X002800Y005880D03*
X002800Y005866D03*
X002800Y005851D03*
X002800Y005830D03*
X002800Y005816D03*
X002800Y005802D03*
D36*
X003002Y005802D03*
X003504Y006057D03*
X003745Y006057D03*
X003745Y006071D03*
X004071Y006156D03*
X004071Y006170D03*
X004064Y006184D03*
X004078Y006135D03*
X004085Y006106D03*
X004092Y006085D03*
X004099Y006057D03*
X004113Y006007D03*
X004121Y005979D03*
X004170Y005802D03*
X004545Y006156D03*
X004560Y006206D03*
X004567Y006234D03*
X004581Y006283D03*
X004673Y006085D03*
X004666Y006071D03*
X004673Y005880D03*
X004899Y005880D03*
X005048Y005866D03*
X005615Y005866D03*
X005615Y005880D03*
X005615Y005851D03*
X005615Y005830D03*
X005615Y005816D03*
X005615Y005802D03*
X005763Y005908D03*
X005763Y006057D03*
X006011Y006071D03*
X006018Y006057D03*
X006018Y005908D03*
X004050Y006234D03*
X004043Y006269D03*
X004036Y006298D03*
D37*
X003894Y006298D03*
X003894Y006283D03*
X003894Y006269D03*
X003894Y006248D03*
X003894Y006234D03*
X003894Y006220D03*
X003894Y006170D03*
X003894Y006156D03*
X003894Y006135D03*
X003894Y006121D03*
X003894Y006106D03*
X003894Y006085D03*
X003894Y006071D03*
X003894Y006057D03*
X003894Y006028D03*
X003894Y006021D03*
X003894Y006007D03*
X003894Y005979D03*
X003894Y005972D03*
X003894Y005958D03*
X003894Y005929D03*
X003894Y005915D03*
X003894Y005908D03*
X003894Y005880D03*
X003894Y005866D03*
X003894Y005851D03*
X003894Y005830D03*
X003894Y005816D03*
X003894Y005802D03*
X004234Y006021D03*
X004241Y006057D03*
X004248Y006071D03*
X004248Y006085D03*
X004361Y006106D03*
X004361Y006121D03*
X004368Y006085D03*
X004368Y006071D03*
X004375Y006057D03*
X004383Y006028D03*
X004383Y006021D03*
X004397Y005972D03*
X004496Y005972D03*
X004510Y006021D03*
X004652Y005929D03*
X004914Y006021D03*
X004906Y006057D03*
X004899Y006071D03*
X005055Y006071D03*
X005048Y005929D03*
X005431Y006135D03*
X005431Y006156D03*
X005431Y006170D03*
X005756Y006170D03*
X005756Y006156D03*
X005756Y006135D03*
X005756Y006121D03*
X005756Y006184D03*
X005756Y006198D03*
X005756Y006206D03*
X005756Y006220D03*
X005756Y006234D03*
X005756Y006248D03*
X005756Y006269D03*
X005756Y006283D03*
X005756Y006298D03*
X005756Y006021D03*
X005756Y006007D03*
X005756Y005979D03*
X005756Y005972D03*
X005756Y005958D03*
X005756Y005830D03*
X005756Y005816D03*
X005756Y005802D03*
X003497Y005802D03*
X003497Y005816D03*
X003497Y005830D03*
X003497Y005851D03*
X003497Y005866D03*
X003497Y005880D03*
X003497Y005908D03*
X003497Y005915D03*
X003497Y005929D03*
X003497Y005958D03*
X003497Y005972D03*
X003497Y005979D03*
X003497Y006007D03*
X003497Y006021D03*
X003497Y006121D03*
X003497Y006135D03*
X003497Y006156D03*
X003497Y006170D03*
X003101Y006121D03*
X003087Y006071D03*
X002931Y006028D03*
X002931Y006021D03*
X002945Y005972D03*
X002917Y006071D03*
X002917Y006085D03*
X002910Y006106D03*
X002903Y006121D03*
X002903Y006135D03*
D38*
X003508Y006071D03*
X003735Y006085D03*
X004046Y006248D03*
X004039Y006283D03*
X004174Y005816D03*
X004443Y005816D03*
X004443Y005802D03*
X005278Y006028D03*
X005767Y006071D03*
X006333Y005880D03*
X006362Y005915D03*
X006489Y006057D03*
D39*
X005919Y005816D03*
X005133Y005979D03*
X004786Y005802D03*
X004446Y005958D03*
X004170Y005958D03*
X003158Y006156D03*
X002846Y006156D03*
X002846Y006170D03*
D40*
X002839Y006220D03*
X002839Y006234D03*
X003002Y005915D03*
X003002Y005908D03*
X004170Y005929D03*
X005119Y005802D03*
D41*
X005041Y005908D03*
X005289Y005972D03*
X005289Y005979D03*
X005289Y005816D03*
X005289Y005802D03*
X005926Y006170D03*
X004255Y006121D03*
X004255Y006106D03*
X002924Y006057D03*
D42*
X003002Y005880D03*
X003002Y005866D03*
X004170Y005880D03*
X004446Y005880D03*
X005785Y005866D03*
X005919Y005802D03*
X005926Y006156D03*
D43*
X005877Y005851D03*
X006422Y005851D03*
X006422Y005830D03*
X006422Y005816D03*
X006422Y005802D03*
X003618Y006106D03*
D44*
X003002Y005809D03*
X004878Y006099D03*
X005268Y006099D03*
X006351Y005901D03*
X006394Y005951D03*
X006486Y006050D03*
X006507Y006078D03*
D45*
X004783Y005809D03*
D46*
X005119Y005809D03*
X004446Y005951D03*
X004312Y006128D03*
X003158Y006149D03*
X002846Y006177D03*
D47*
X002924Y006050D03*
X003073Y006404D03*
X004255Y006099D03*
X005041Y005901D03*
X005041Y005887D03*
X005289Y005809D03*
D48*
X005919Y005809D03*
X005926Y006149D03*
X004446Y005936D03*
X003667Y006149D03*
D49*
X004170Y005830D03*
X005275Y005880D03*
X006004Y005880D03*
X006004Y006085D03*
X006358Y005908D03*
X006401Y005958D03*
X006443Y006007D03*
X006457Y006021D03*
X006500Y006071D03*
X003002Y005816D03*
D50*
X004786Y005816D03*
X005926Y006121D03*
D51*
X005119Y005816D03*
D52*
X005045Y005873D03*
X005045Y005922D03*
X004903Y006064D03*
X004662Y006064D03*
X004549Y006163D03*
X004556Y006191D03*
X004563Y006213D03*
X004570Y006241D03*
X004535Y006113D03*
X004521Y006064D03*
X004506Y006014D03*
X004655Y005922D03*
X004110Y006014D03*
X004096Y006064D03*
X003749Y006014D03*
X003749Y005965D03*
X003749Y005922D03*
X003749Y005873D03*
X003749Y005823D03*
X003352Y005823D03*
X003352Y005873D03*
X003352Y005922D03*
X003352Y005965D03*
X003352Y006014D03*
X003352Y006064D03*
X003352Y006113D03*
X003352Y006163D03*
X003352Y006241D03*
X003352Y006290D03*
X003204Y006113D03*
X003204Y006064D03*
X003204Y006014D03*
X003204Y005965D03*
X003204Y005922D03*
X003204Y005873D03*
X003204Y005823D03*
X002800Y005823D03*
X002800Y005873D03*
X002800Y005922D03*
X002800Y005965D03*
X002800Y006014D03*
X002800Y006064D03*
X002800Y006113D03*
X005285Y006064D03*
X005285Y005922D03*
X005434Y005922D03*
X005434Y005965D03*
X005434Y006014D03*
X005434Y005873D03*
X005434Y005823D03*
X005760Y005922D03*
X006022Y005922D03*
X006029Y005965D03*
X006029Y006014D03*
X006170Y006014D03*
X006170Y005965D03*
X006170Y005922D03*
X006170Y005873D03*
X006170Y005823D03*
X006170Y006064D03*
X006170Y006113D03*
X006170Y006163D03*
X006170Y006241D03*
X006170Y006290D03*
D53*
X006450Y006014D03*
X006408Y005965D03*
X005997Y005873D03*
X003002Y005823D03*
D54*
X002945Y005965D03*
X002931Y006014D03*
X002917Y006064D03*
X002910Y006113D03*
X003087Y006064D03*
X003497Y006113D03*
X003497Y006163D03*
X003497Y006014D03*
X003497Y005965D03*
X003497Y005922D03*
X003497Y005873D03*
X003497Y005823D03*
X003894Y005823D03*
X003894Y005873D03*
X003894Y005922D03*
X003894Y005965D03*
X003894Y006014D03*
X003894Y006064D03*
X003894Y006113D03*
X003894Y006163D03*
X003894Y006241D03*
X003894Y006290D03*
X004234Y006014D03*
X004383Y006014D03*
X004375Y006064D03*
X004361Y006113D03*
X005055Y006064D03*
X005431Y006163D03*
X005558Y006163D03*
X005756Y006163D03*
X005756Y006191D03*
X005756Y006213D03*
X005756Y006241D03*
X005756Y006290D03*
X005756Y006014D03*
X005756Y005965D03*
X005756Y005823D03*
X003207Y006482D03*
X002938Y006482D03*
X002803Y006482D03*
D55*
X004174Y005823D03*
X004676Y005873D03*
X005767Y006064D03*
X006496Y006064D03*
D56*
X005445Y006064D03*
X004446Y005823D03*
D57*
X004783Y005823D03*
D58*
X005119Y005823D03*
D59*
X005289Y005823D03*
X005289Y005965D03*
X004255Y006113D03*
X003073Y006014D03*
X003073Y006482D03*
D60*
X003504Y006064D03*
X003745Y006064D03*
X004071Y006163D03*
X004064Y006191D03*
X004050Y006241D03*
X004036Y006290D03*
X004085Y006113D03*
X004581Y006290D03*
X005615Y005873D03*
X005615Y005823D03*
X006018Y006064D03*
D61*
X005923Y005823D03*
D62*
X005877Y006113D03*
X006422Y005823D03*
D63*
X005268Y006021D03*
X003002Y005851D03*
X003002Y005830D03*
D64*
X003515Y006085D03*
X004308Y006269D03*
X004443Y005830D03*
X005080Y005958D03*
X005774Y005880D03*
X005774Y006085D03*
D65*
X005172Y006135D03*
X004783Y005830D03*
D66*
X005172Y005830D03*
D67*
X005923Y005830D03*
D68*
X003002Y005837D03*
D69*
X004174Y005837D03*
D70*
X004443Y005837D03*
X004308Y006255D03*
X004308Y006276D03*
D71*
X004783Y005837D03*
X005172Y006128D03*
D72*
X005169Y005837D03*
D73*
X004783Y006149D03*
X005923Y005837D03*
D74*
X003002Y005844D03*
D75*
X004174Y005844D03*
X005993Y006092D03*
D76*
X004786Y005844D03*
D77*
X005169Y005844D03*
D78*
X005452Y006071D03*
X005990Y005866D03*
X004446Y005851D03*
X004170Y005851D03*
D79*
X004783Y005851D03*
D80*
X005165Y005851D03*
D81*
X005459Y006078D03*
X004170Y005887D03*
X003179Y006305D03*
X003002Y005859D03*
D82*
X004170Y005859D03*
D83*
X004443Y005859D03*
X004308Y006227D03*
D84*
X004783Y005859D03*
D85*
X004443Y005887D03*
X005257Y005859D03*
X003175Y006276D03*
X002828Y006305D03*
D86*
X003621Y006099D03*
X005880Y005859D03*
D87*
X005172Y006170D03*
X004443Y005866D03*
X004174Y005866D03*
X004308Y006234D03*
X004308Y006248D03*
D88*
X004305Y006283D03*
X004687Y005866D03*
X004885Y005866D03*
X005544Y006135D03*
X006415Y005972D03*
X006422Y005979D03*
X006464Y006028D03*
X006514Y006085D03*
D89*
X005264Y005866D03*
D90*
X006425Y005866D03*
D91*
X004446Y005873D03*
X003002Y005873D03*
D92*
X004174Y005873D03*
X004308Y006241D03*
D93*
X004057Y006213D03*
X004892Y005873D03*
D94*
X005271Y005873D03*
D95*
X005777Y005873D03*
X005926Y006163D03*
X003667Y006163D03*
D96*
X004308Y006290D03*
X006326Y005873D03*
X006369Y005922D03*
D97*
X003002Y005901D03*
X003002Y005887D03*
D98*
X003002Y005894D03*
D99*
X004174Y005894D03*
X004443Y005894D03*
D100*
X004676Y006092D03*
X005547Y006142D03*
X005767Y005894D03*
X006390Y005944D03*
X006432Y005993D03*
D101*
X006344Y005894D03*
X003731Y006092D03*
D102*
X004170Y005901D03*
X004446Y005901D03*
X003172Y006255D03*
X002832Y006276D03*
D103*
X002832Y006269D03*
X002832Y006283D03*
X003172Y006269D03*
X003172Y006248D03*
X003667Y006156D03*
X004170Y005915D03*
X004170Y005908D03*
X004446Y005908D03*
X004446Y005915D03*
D104*
X004244Y006064D03*
X003097Y006113D03*
X003062Y005965D03*
X003048Y005922D03*
X002956Y005922D03*
D105*
X004174Y005922D03*
D106*
X004446Y005922D03*
X005246Y006014D03*
X003165Y006191D03*
X003165Y006213D03*
D107*
X003104Y006135D03*
X003097Y006106D03*
X003090Y006085D03*
X003083Y006057D03*
X003062Y005979D03*
X003062Y005972D03*
X003055Y005958D03*
X002956Y005929D03*
X002949Y005958D03*
X002942Y005979D03*
X002934Y006007D03*
X002942Y006397D03*
X002807Y006397D03*
X003211Y006397D03*
X004237Y006028D03*
X004230Y006007D03*
X004223Y005979D03*
X004223Y005972D03*
X005052Y006057D03*
D108*
X005565Y006170D03*
X003207Y006489D03*
X003207Y006496D03*
X002938Y006496D03*
X002938Y006489D03*
X002803Y006489D03*
X002803Y006496D03*
X003051Y005929D03*
D109*
X003165Y006198D03*
X003165Y006206D03*
X004312Y006156D03*
X004446Y005929D03*
D110*
X004552Y006184D03*
X004892Y006085D03*
X004106Y006028D03*
X004057Y006206D03*
X004057Y006220D03*
X003667Y006170D03*
X006025Y005929D03*
D111*
X006376Y005929D03*
X005441Y006057D03*
X004308Y006298D03*
X004060Y006198D03*
D112*
X004237Y006036D03*
X004230Y006000D03*
X003090Y006078D03*
X003083Y006050D03*
X003055Y005951D03*
X003055Y005936D03*
X002949Y005951D03*
D113*
X002839Y006227D03*
X004170Y005936D03*
D114*
X004230Y005993D03*
X003055Y005944D03*
D115*
X004170Y005944D03*
D116*
X004446Y005944D03*
D117*
X004648Y005944D03*
D118*
X004167Y005951D03*
X003161Y006177D03*
D119*
X004648Y005951D03*
D120*
X004783Y005958D03*
X004783Y005972D03*
X004783Y005979D03*
D121*
X004446Y005965D03*
X004170Y005965D03*
X002846Y006163D03*
D122*
X004783Y005965D03*
D123*
X005098Y005965D03*
X002832Y006290D03*
D124*
X002842Y006206D03*
X002842Y006198D03*
X002842Y006184D03*
X003161Y006184D03*
X003161Y006170D03*
X005115Y005972D03*
D125*
X004783Y005986D03*
D126*
X005190Y005986D03*
D127*
X005441Y006050D03*
X006425Y005986D03*
X004308Y006305D03*
X004053Y006227D03*
D128*
X004252Y006092D03*
X003069Y005993D03*
D129*
X004783Y005993D03*
D130*
X005197Y005993D03*
D131*
X004779Y006000D03*
D132*
X005207Y006000D03*
D133*
X003076Y006021D03*
X003076Y006028D03*
X003069Y006007D03*
X003076Y006397D03*
D134*
X004779Y006007D03*
D135*
X005225Y006007D03*
D136*
X004779Y006014D03*
D137*
X004648Y006021D03*
X004648Y006028D03*
D138*
X004552Y006177D03*
X004106Y006036D03*
X005438Y006036D03*
X006025Y006036D03*
D139*
X005438Y006043D03*
D140*
X006478Y006043D03*
D141*
X005494Y006085D03*
X005494Y006106D03*
X005494Y006121D03*
D142*
X005781Y006092D03*
X003522Y006092D03*
D143*
X005494Y006092D03*
D144*
X006425Y006092D03*
X006425Y006142D03*
D145*
X005926Y006128D03*
X005494Y006099D03*
X003667Y006128D03*
D146*
X005884Y006099D03*
D147*
X006425Y006099D03*
X006425Y006128D03*
X006425Y006149D03*
D148*
X005169Y006106D03*
X004779Y006106D03*
D149*
X005880Y006106D03*
D150*
X006425Y006106D03*
X006425Y006121D03*
X006425Y006135D03*
X006425Y006156D03*
X006425Y006170D03*
D151*
X003667Y006113D03*
D152*
X004783Y006113D03*
X005172Y006113D03*
D153*
X005494Y006113D03*
D154*
X006425Y006113D03*
X006425Y006163D03*
D155*
X003664Y006121D03*
D156*
X004783Y006121D03*
D157*
X005169Y006121D03*
D158*
X004783Y006128D03*
D159*
X003667Y006135D03*
X005926Y006135D03*
D160*
X004308Y006135D03*
D161*
X004783Y006135D03*
D162*
X002849Y006142D03*
D163*
X003158Y006142D03*
X003667Y006142D03*
D164*
X004308Y006142D03*
D165*
X004783Y006142D03*
D166*
X005172Y006142D03*
D167*
X005926Y006142D03*
D168*
X002849Y006149D03*
D169*
X004308Y006149D03*
D170*
X005169Y006149D03*
D171*
X005172Y006156D03*
X004783Y006156D03*
D172*
X004783Y006163D03*
X005172Y006163D03*
X003161Y006163D03*
X002842Y006191D03*
D173*
X002835Y006241D03*
X003168Y006241D03*
X004308Y006163D03*
D174*
X004308Y006170D03*
X004308Y006184D03*
X003168Y006220D03*
X003168Y006234D03*
X002835Y006248D03*
D175*
X002828Y006298D03*
X003175Y006298D03*
X003175Y006283D03*
X004308Y006220D03*
X004308Y006206D03*
X004308Y006198D03*
X004783Y006170D03*
D176*
X003667Y006177D03*
D177*
X003168Y006227D03*
X002835Y006255D03*
X004308Y006177D03*
D178*
X005172Y006177D03*
X003253Y006453D03*
X003211Y006517D03*
X003175Y006468D03*
X003168Y006453D03*
X003175Y006418D03*
X003211Y006368D03*
X003119Y006453D03*
X003111Y006468D03*
X003076Y006517D03*
X003041Y006468D03*
X003034Y006453D03*
X003041Y006418D03*
X003076Y006368D03*
X002942Y006368D03*
X002906Y006418D03*
X002906Y006468D03*
X002942Y006517D03*
X002977Y006468D03*
X002984Y006453D03*
X002842Y006468D03*
X002807Y006517D03*
X002772Y006468D03*
X002772Y006418D03*
X002807Y006368D03*
D179*
X002938Y006503D03*
X003073Y006503D03*
X003207Y006503D03*
X005572Y006177D03*
D180*
X005923Y006177D03*
D181*
X004786Y006184D03*
X003207Y006524D03*
X003073Y006524D03*
X002938Y006524D03*
D182*
X003175Y006290D03*
X004308Y006213D03*
X004308Y006191D03*
D183*
X002839Y006213D03*
D184*
X002835Y006262D03*
D185*
X002807Y006361D03*
X002942Y006361D03*
D186*
X003076Y006361D03*
X003211Y006361D03*
D187*
X003211Y006383D03*
X003076Y006383D03*
X002942Y006383D03*
X002807Y006383D03*
D188*
X002807Y006390D03*
X002942Y006390D03*
X003076Y006390D03*
X003211Y006390D03*
D189*
X003239Y006411D03*
X003182Y006411D03*
X003168Y006460D03*
X003211Y006510D03*
X003104Y006411D03*
X003034Y006460D03*
X003076Y006510D03*
X002942Y006510D03*
X002970Y006411D03*
X002913Y006411D03*
X002835Y006411D03*
X002779Y006411D03*
X002765Y006460D03*
X002807Y006510D03*
D190*
X002899Y006460D03*
X003048Y006411D03*
D191*
X003108Y006418D03*
X003243Y006418D03*
X002973Y006418D03*
X002839Y006418D03*
X002761Y006453D03*
D192*
X002775Y006475D03*
X002846Y006425D03*
X002910Y006475D03*
X002980Y006425D03*
X003044Y006475D03*
X003115Y006425D03*
X003179Y006475D03*
X003250Y006425D03*
D193*
X002899Y006425D03*
X002899Y006432D03*
X002849Y006432D03*
D194*
X002849Y006453D03*
X002899Y006453D03*
X003246Y006468D03*
D195*
X003250Y006460D03*
X002846Y006460D03*
D196*
X002980Y006460D03*
X003115Y006460D03*
D197*
X003073Y006489D03*
X003073Y006496D03*
D198*
X002803Y006503D03*
M02*
