G75*
%MOIN*%
%OFA0B0*%
%FSLAX24Y24*%
%IPPOS*%
%LPD*%
%AMOC8*
5,1,8,0,0,1.08239X$1,22.5*
%
%ADD10R,0.0178X0.0375*%
%ADD11R,0.0375X0.0178*%
%ADD12R,0.0414X0.0336*%
%ADD13R,0.0336X0.0414*%
%ADD14R,0.0560X0.0310*%
%ADD15R,0.0310X0.0560*%
%ADD16C,0.0800*%
%ADD17C,0.0436*%
D10*
X004199Y003092D03*
X004396Y003092D03*
X004593Y003092D03*
X004790Y003092D03*
X004987Y003092D03*
X005183Y003092D03*
X005183Y004667D03*
X004987Y004667D03*
X004790Y004667D03*
X004593Y004667D03*
X004396Y004667D03*
X004199Y004667D03*
D11*
X003904Y004371D03*
X003904Y004174D03*
X003904Y003978D03*
X003904Y003781D03*
X003904Y003584D03*
X003904Y003387D03*
X005479Y003387D03*
X005479Y003584D03*
X005479Y003781D03*
X005479Y003978D03*
X005479Y004174D03*
X005479Y004371D03*
D12*
X006629Y003841D03*
X006629Y003329D03*
X006866Y005306D03*
X006866Y005817D03*
X003982Y001526D03*
X003982Y001014D03*
X003050Y001013D03*
X003050Y001524D03*
D13*
X003472Y002078D03*
X003984Y002078D03*
X005150Y002274D03*
X005662Y002274D03*
D14*
X004727Y001640D03*
X004727Y001320D03*
X004727Y001000D03*
X005757Y000994D03*
X005757Y001394D03*
D15*
X002869Y005232D03*
X002469Y005232D03*
D16*
X001500Y001045D03*
X001500Y002045D03*
X001500Y003045D03*
X001500Y004045D03*
X001500Y005045D03*
X001500Y006045D03*
X008000Y006045D03*
X008000Y005045D03*
X008000Y004045D03*
X008000Y003045D03*
X008000Y002045D03*
X008000Y001045D03*
D17*
X006770Y002756D03*
X006290Y002757D03*
X006320Y004377D03*
X006330Y004854D03*
X005179Y005309D03*
X005965Y005957D03*
X002746Y004643D03*
X002393Y004057D03*
X002780Y003150D03*
X003174Y002780D03*
X002622Y002077D03*
M02*
