G75*
%MOIN*%
%OFA0B0*%
%FSLAX24Y24*%
%IPPOS*%
%LPD*%
%AMOC8*
5,1,8,0,0,1.08239X$1,22.5*
%
%ADD10C,0.0800*%
%ADD11C,0.0630*%
%ADD12R,0.0375X0.0375*%
%ADD13R,0.0414X0.0336*%
%ADD14R,0.0277X0.0532*%
%ADD15R,0.0336X0.0414*%
%ADD16R,0.0887X0.0690*%
%ADD17R,0.0217X0.0591*%
%ADD18R,0.0808X0.0808*%
%ADD19R,0.0690X0.0808*%
%ADD20C,0.0436*%
D10*
X001378Y001811D03*
X001378Y002811D03*
X001378Y003811D03*
X001378Y004811D03*
X001378Y005811D03*
X001378Y006811D03*
X008378Y006811D03*
X008378Y005811D03*
X008378Y004811D03*
X008378Y003811D03*
X008378Y002811D03*
X008378Y001811D03*
D11*
X003681Y003823D03*
X002894Y003823D03*
D12*
X004815Y004685D03*
X005406Y004685D03*
D13*
X006654Y006307D03*
X006654Y006819D03*
X007355Y006804D03*
X007355Y006292D03*
D14*
X007689Y005170D03*
X006941Y005170D03*
X006941Y004146D03*
X007315Y004146D03*
X007689Y004146D03*
D15*
X007292Y003288D03*
X006780Y003288D03*
X003048Y004815D03*
X002536Y004815D03*
D16*
X002768Y005804D03*
X005209Y005804D03*
D17*
X004500Y005754D03*
X004244Y005754D03*
X003989Y005754D03*
X003733Y005754D03*
X003477Y005754D03*
D18*
X003516Y006807D03*
X004461Y006807D03*
D19*
X005524Y006807D03*
X002453Y006807D03*
D20*
X005567Y004016D03*
X006493Y004197D03*
M02*
