G75*
%MOIN*%
%OFA0B0*%
%FSLAX24Y24*%
%IPPOS*%
%LPD*%
%AMOC8*
5,1,8,0,0,1.08239X$1,22.5*
%
%ADD10C,0.0000*%
%ADD11C,0.0740*%
%ADD12C,0.0570*%
%ADD13R,0.0315X0.0315*%
%ADD14R,0.0354X0.0276*%
%ADD15R,0.0217X0.0472*%
%ADD16R,0.0276X0.0354*%
%ADD17R,0.0827X0.0630*%
%ADD18R,0.0157X0.0531*%
%ADD19R,0.0748X0.0748*%
%ADD20R,0.0630X0.0748*%
%ADD21C,0.0100*%
%ADD22C,0.0160*%
%ADD23C,0.0376*%
D10*
X000973Y001410D02*
X000973Y007390D01*
X008782Y007398D01*
X008782Y001410D01*
X000973Y001410D01*
D11*
X001378Y001811D03*
X001378Y002811D03*
X001378Y003811D03*
X001378Y004811D03*
X001378Y005811D03*
X001378Y006811D03*
X008378Y006811D03*
X008378Y005811D03*
X008378Y004811D03*
X008378Y003811D03*
X008378Y002811D03*
X008378Y001811D03*
D12*
X003681Y003823D03*
X002894Y003823D03*
D13*
X004815Y004685D03*
X005406Y004685D03*
D14*
X006654Y006307D03*
X006654Y006819D03*
X007355Y006804D03*
X007355Y006292D03*
D15*
X007689Y005170D03*
X006941Y005170D03*
X006941Y004146D03*
X007315Y004146D03*
X007689Y004146D03*
D16*
X007292Y003288D03*
X006780Y003288D03*
X003048Y004815D03*
X002536Y004815D03*
D17*
X002768Y005804D03*
X005209Y005804D03*
D18*
X004500Y005754D03*
X004244Y005754D03*
X003989Y005754D03*
X003733Y005754D03*
X003477Y005754D03*
D19*
X003516Y006807D03*
X004461Y006807D03*
D20*
X005524Y006807D03*
X002453Y006807D03*
D21*
X002878Y006826D02*
X003032Y006826D01*
X003032Y006728D02*
X002878Y006728D01*
X002878Y006629D02*
X003032Y006629D01*
X003032Y006531D02*
X002878Y006531D01*
X002878Y006432D02*
X003032Y006432D01*
X003032Y006388D02*
X003097Y006323D01*
X003936Y006323D01*
X003989Y006376D01*
X004041Y006323D01*
X004881Y006323D01*
X004945Y006388D01*
X004945Y007194D01*
X005099Y007194D01*
X005099Y006388D01*
X005163Y006323D01*
X005780Y006323D01*
X005770Y006314D01*
X005729Y006295D01*
X005716Y006261D01*
X005690Y006236D01*
X005689Y006207D01*
X005668Y006229D01*
X004750Y006229D01*
X004686Y006164D01*
X004686Y006069D01*
X004625Y006130D01*
X004376Y006130D01*
X004372Y006126D01*
X004369Y006130D01*
X004120Y006130D01*
X004117Y006126D01*
X004113Y006130D01*
X003864Y006130D01*
X003861Y006126D01*
X003857Y006130D01*
X003658Y006130D01*
X003648Y006140D01*
X003613Y006160D01*
X003575Y006170D01*
X003477Y006170D01*
X003477Y005754D01*
X003477Y005339D01*
X003575Y005339D01*
X003613Y005349D01*
X004314Y005349D01*
X004313Y005379D02*
X004314Y005271D01*
X004314Y005193D01*
X004315Y005193D01*
X004315Y005192D01*
X004371Y005137D01*
X004426Y005082D01*
X004427Y005082D01*
X004427Y005081D01*
X004505Y005082D01*
X005861Y005082D01*
X005938Y005081D01*
X005939Y005082D01*
X005941Y005082D01*
X005996Y005137D01*
X006051Y005190D01*
X006051Y005192D01*
X006053Y005193D01*
X006053Y005270D01*
X006066Y006030D01*
X006235Y006106D01*
X006275Y006107D01*
X006304Y006137D01*
X006330Y006137D01*
X006327Y006148D02*
X006337Y006112D01*
X006357Y006078D01*
X006385Y006050D01*
X006419Y006030D01*
X006457Y006020D01*
X006635Y006020D01*
X006635Y006289D01*
X006673Y006289D01*
X006673Y006326D01*
X006981Y006326D01*
X006981Y006465D01*
X006971Y006503D01*
X006951Y006537D01*
X006923Y006565D01*
X006890Y006585D01*
X006941Y006636D01*
X006941Y006645D01*
X006943Y006645D01*
X007068Y006635D01*
X007068Y006620D01*
X007132Y006556D01*
X007562Y006556D01*
X007562Y006540D01*
X007132Y006540D01*
X007068Y006475D01*
X007068Y006108D01*
X007132Y006044D01*
X007161Y006044D01*
X007160Y005946D01*
X006899Y005946D01*
X006822Y005947D01*
X006821Y005946D01*
X006819Y005946D01*
X006765Y005892D01*
X006677Y005806D01*
X006672Y005806D01*
X006621Y005752D01*
X006567Y005700D01*
X006567Y005695D01*
X006053Y005149D01*
X005856Y004954D01*
X005475Y004954D01*
X005471Y004958D01*
X005397Y004954D01*
X005323Y004954D01*
X005322Y004953D01*
X005203Y004953D01*
X005138Y004888D01*
X005138Y004482D01*
X005203Y004418D01*
X005609Y004418D01*
X005673Y004482D01*
X005673Y004574D01*
X005933Y004574D01*
X006011Y004574D01*
X006012Y004574D01*
X006067Y004629D01*
X006270Y004828D01*
X006274Y004829D01*
X006325Y004883D01*
X006379Y004936D01*
X006379Y004940D01*
X006723Y005306D01*
X006723Y005228D01*
X006404Y004940D01*
X006395Y004939D01*
X006347Y004888D01*
X006295Y004840D01*
X006294Y004831D01*
X006241Y004773D01*
X006119Y004648D01*
X006100Y004645D01*
X006065Y004594D01*
X006022Y004549D01*
X006022Y004530D01*
X005896Y004346D01*
X005853Y004302D01*
X005853Y004283D01*
X005842Y004267D01*
X005854Y004206D01*
X005855Y004101D01*
X005820Y004185D01*
X005736Y004269D01*
X005627Y004314D01*
X005508Y004314D01*
X005398Y004269D01*
X005323Y004193D01*
X005205Y004187D01*
X005010Y004188D01*
X005009Y004236D01*
X005011Y004312D01*
X005009Y004314D01*
X005008Y004418D01*
X005018Y004418D01*
X005083Y004482D01*
X005083Y004888D01*
X005018Y004953D01*
X004612Y004953D01*
X004548Y004888D01*
X004548Y004482D01*
X004612Y004418D01*
X004628Y004418D01*
X004629Y004237D01*
X004627Y004082D01*
X004626Y004081D01*
X004625Y004003D01*
X004624Y003925D01*
X004625Y003924D01*
X004625Y003924D01*
X004679Y003868D01*
X004733Y003812D01*
X004734Y003812D01*
X004735Y003811D01*
X004813Y003810D01*
X004891Y003809D01*
X004891Y003810D01*
X005136Y003807D01*
X005141Y003802D01*
X005213Y003806D01*
X005286Y003806D01*
X005291Y003811D01*
X005348Y003814D01*
X005398Y003763D01*
X005508Y003718D01*
X005627Y003718D01*
X005736Y003763D01*
X005820Y003847D01*
X005856Y003934D01*
X005858Y003723D01*
X005855Y003649D01*
X005858Y003645D01*
X005858Y003641D01*
X005911Y003588D01*
X005962Y003534D01*
X005967Y003534D01*
X005970Y003530D01*
X006045Y003531D01*
X006305Y003522D01*
X006308Y003519D01*
X006383Y003519D01*
X006458Y003516D01*
X006461Y003519D01*
X006541Y003519D01*
X006532Y003511D01*
X006532Y003065D01*
X006597Y003001D01*
X006963Y003001D01*
X007015Y003052D01*
X007034Y003019D01*
X007062Y002991D01*
X007096Y002971D01*
X007134Y002961D01*
X007273Y002961D01*
X007273Y003269D01*
X007311Y003269D01*
X007311Y003307D01*
X007580Y003307D01*
X007580Y003430D01*
X007588Y002731D01*
X003071Y002764D01*
X003082Y002916D01*
X003088Y002923D01*
X003088Y002994D01*
X003093Y003065D01*
X003088Y003071D01*
X003086Y003475D01*
X003118Y003488D01*
X003229Y003599D01*
X003267Y003691D01*
X003278Y003656D01*
X003309Y003595D01*
X003350Y003540D01*
X003398Y003491D01*
X003454Y003451D01*
X003515Y003420D01*
X003580Y003399D01*
X003647Y003388D01*
X003663Y003388D01*
X003663Y003804D01*
X003700Y003804D01*
X003700Y003388D01*
X003716Y003388D01*
X003783Y003399D01*
X003848Y003420D01*
X003909Y003451D01*
X003965Y003491D01*
X004013Y003540D01*
X004054Y003595D01*
X004085Y003656D01*
X004106Y003721D01*
X004116Y003789D01*
X004116Y003804D01*
X003700Y003804D01*
X003700Y003842D01*
X003663Y003842D01*
X003663Y004258D01*
X003647Y004258D01*
X003580Y004248D01*
X003515Y004226D01*
X003454Y004195D01*
X003398Y004155D01*
X003350Y004107D01*
X003309Y004051D01*
X003278Y003990D01*
X003267Y003955D01*
X003229Y004047D01*
X003200Y004076D01*
X003224Y004099D01*
X003225Y004144D01*
X003241Y004185D01*
X003227Y004219D01*
X003232Y004530D01*
X003295Y004593D01*
X003295Y005038D01*
X003235Y005099D01*
X003234Y005176D01*
X003233Y005254D01*
X003232Y005255D01*
X003176Y005310D01*
X003120Y005364D01*
X003119Y005365D01*
X003041Y005364D01*
X002963Y005363D01*
X002963Y005362D01*
X002527Y005356D01*
X002121Y005358D01*
X002128Y006323D01*
X002814Y006323D01*
X002878Y006388D01*
X002878Y007192D01*
X003032Y007192D01*
X003032Y006388D01*
X003086Y006334D02*
X002824Y006334D01*
X003227Y006229D02*
X002309Y006229D01*
X002245Y006164D01*
X002245Y005443D01*
X002309Y005379D01*
X003227Y005379D01*
X003266Y005417D01*
X003278Y005396D01*
X003306Y005369D01*
X003340Y005349D01*
X003378Y005339D01*
X003477Y005339D01*
X003477Y005754D01*
X003477Y005754D01*
X003477Y005754D01*
X003477Y006170D01*
X003378Y006170D01*
X003340Y006160D01*
X003306Y006140D01*
X003291Y006126D01*
X003291Y006164D01*
X003227Y006229D01*
X003291Y006137D02*
X003303Y006137D01*
X003477Y006137D02*
X003477Y006137D01*
X003477Y006038D02*
X003477Y006038D01*
X003477Y005940D02*
X003477Y005940D01*
X003477Y005841D02*
X003477Y005841D01*
X003477Y005743D02*
X003477Y005743D01*
X003477Y005644D02*
X003477Y005644D01*
X003477Y005546D02*
X003477Y005546D01*
X003477Y005447D02*
X003477Y005447D01*
X003477Y005349D02*
X003477Y005349D01*
X003613Y005349D02*
X003648Y005369D01*
X003658Y005379D01*
X003857Y005379D01*
X003861Y005382D01*
X003864Y005379D01*
X004113Y005379D01*
X004117Y005382D01*
X004120Y005379D01*
X004313Y005379D01*
X004314Y005250D02*
X003233Y005250D01*
X003232Y005255D02*
X003232Y005255D01*
X003136Y005349D02*
X003341Y005349D01*
X003120Y005364D02*
X003120Y005364D01*
X003234Y005152D02*
X004356Y005152D01*
X004548Y004856D02*
X003295Y004856D01*
X003295Y004758D02*
X004548Y004758D01*
X004548Y004659D02*
X003295Y004659D01*
X003263Y004561D02*
X004548Y004561D01*
X004568Y004462D02*
X003231Y004462D01*
X003229Y004364D02*
X004628Y004364D01*
X004629Y004265D02*
X003227Y004265D01*
X003234Y004167D02*
X003414Y004167D01*
X003322Y004068D02*
X003208Y004068D01*
X003261Y003970D02*
X003272Y003970D01*
X003260Y003674D02*
X003273Y003674D01*
X003324Y003576D02*
X003205Y003576D01*
X003091Y003477D02*
X003418Y003477D01*
X003663Y003477D02*
X003700Y003477D01*
X003700Y003576D02*
X003663Y003576D01*
X003663Y003674D02*
X003700Y003674D01*
X003700Y003773D02*
X003663Y003773D01*
X003700Y003842D02*
X004116Y003842D01*
X004116Y003857D01*
X004106Y003925D01*
X004085Y003990D01*
X004054Y004051D01*
X004013Y004107D01*
X003965Y004155D01*
X003909Y004195D01*
X003848Y004226D01*
X003783Y004248D01*
X003716Y004258D01*
X003700Y004258D01*
X003700Y003842D01*
X003700Y003871D02*
X003663Y003871D01*
X003663Y003970D02*
X003700Y003970D01*
X003700Y004068D02*
X003663Y004068D01*
X003663Y004167D02*
X003700Y004167D01*
X003949Y004167D02*
X004628Y004167D01*
X004626Y004068D02*
X004041Y004068D01*
X004091Y003970D02*
X004625Y003970D01*
X004676Y003871D02*
X004114Y003871D01*
X004114Y003773D02*
X005389Y003773D01*
X005745Y003773D02*
X005857Y003773D01*
X005856Y003871D02*
X005830Y003871D01*
X005856Y003674D02*
X004090Y003674D01*
X004039Y003576D02*
X005923Y003576D01*
X006532Y003477D02*
X003945Y003477D01*
X003086Y003379D02*
X006532Y003379D01*
X006532Y003280D02*
X003087Y003280D01*
X003087Y003182D02*
X006532Y003182D01*
X006532Y003083D02*
X003088Y003083D01*
X003088Y002985D02*
X007072Y002985D01*
X007273Y002985D02*
X007311Y002985D01*
X007311Y002961D02*
X007449Y002961D01*
X007487Y002971D01*
X007522Y002991D01*
X007550Y003019D01*
X007569Y003053D01*
X007580Y003091D01*
X007580Y003269D01*
X007311Y003269D01*
X007311Y002961D01*
X007311Y003083D02*
X007273Y003083D01*
X007273Y003182D02*
X007311Y003182D01*
X007311Y003280D02*
X007581Y003280D01*
X007580Y003182D02*
X007582Y003182D01*
X007577Y003083D02*
X007584Y003083D01*
X007585Y002985D02*
X007511Y002985D01*
X007586Y002886D02*
X003080Y002886D01*
X003073Y002788D02*
X007587Y002788D01*
X007970Y002543D02*
X007971Y002540D01*
X008106Y002404D01*
X008283Y002331D01*
X008474Y002331D01*
X008582Y002376D01*
X008582Y002247D01*
X008474Y002291D01*
X008283Y002291D01*
X008106Y002218D01*
X007971Y002083D01*
X007898Y001907D01*
X007898Y001746D01*
X001858Y001746D01*
X001858Y001907D01*
X001785Y002083D01*
X001650Y002218D01*
X001474Y002291D01*
X001283Y002291D01*
X001173Y002246D01*
X001173Y002377D01*
X001283Y002331D01*
X001474Y002331D01*
X001650Y002404D01*
X001785Y002540D01*
X001858Y002716D01*
X001858Y002907D01*
X001785Y003083D01*
X002708Y003083D01*
X002708Y003007D02*
X002682Y002660D01*
X002677Y002655D01*
X002677Y002583D01*
X002671Y002511D01*
X002676Y002505D01*
X002676Y002498D01*
X002727Y002446D01*
X002774Y002392D01*
X002781Y002391D01*
X002786Y002386D01*
X002859Y002385D01*
X002931Y002380D01*
X002937Y002385D01*
X007702Y002350D01*
X007703Y002349D01*
X007780Y002350D01*
X007857Y002349D01*
X007859Y002351D01*
X007861Y002351D01*
X007915Y002406D01*
X007969Y002460D01*
X007969Y002462D01*
X007971Y002463D01*
X007970Y002540D01*
X007970Y002543D01*
X007970Y002492D02*
X008019Y002492D01*
X008133Y002394D02*
X007903Y002394D01*
X008085Y002197D02*
X001672Y002197D01*
X001770Y002098D02*
X007986Y002098D01*
X007937Y002000D02*
X001820Y002000D01*
X001858Y001901D02*
X007898Y001901D01*
X007898Y001803D02*
X001858Y001803D01*
X001624Y002394D02*
X002772Y002394D01*
X002682Y002492D02*
X001738Y002492D01*
X001806Y002591D02*
X002677Y002591D01*
X002684Y002689D02*
X001847Y002689D01*
X001858Y002788D02*
X002692Y002788D01*
X002699Y002886D02*
X001858Y002886D01*
X001826Y002985D02*
X002706Y002985D01*
X002708Y003007D02*
X002706Y003474D01*
X002670Y003488D01*
X002559Y003599D01*
X002499Y003745D01*
X002499Y003902D01*
X002559Y004047D01*
X002670Y004158D01*
X002816Y004218D01*
X002846Y004218D01*
X002847Y004219D01*
X002852Y004540D01*
X002813Y004580D01*
X002794Y004546D01*
X002766Y004518D01*
X002732Y004498D01*
X002693Y004488D01*
X002555Y004488D01*
X002555Y004796D01*
X002517Y004796D01*
X002517Y004488D01*
X002378Y004488D01*
X002340Y004498D01*
X002306Y004518D01*
X002278Y004546D01*
X002258Y004580D01*
X002248Y004618D01*
X002248Y004796D01*
X002517Y004796D01*
X002517Y004834D01*
X002248Y004834D01*
X002248Y004978D01*
X002007Y004979D01*
X002007Y004979D01*
X001928Y004980D01*
X001870Y004980D01*
X001886Y004933D01*
X001897Y004861D01*
X001428Y004861D01*
X001328Y004861D01*
X001328Y005330D01*
X001257Y005319D01*
X001179Y005293D01*
X001173Y005290D01*
X001173Y005377D01*
X001283Y005331D01*
X001474Y005331D01*
X001650Y005404D01*
X001742Y005496D01*
X001740Y005250D01*
X001659Y005250D01*
X001651Y005256D02*
X001578Y005293D01*
X001500Y005319D01*
X001428Y005330D01*
X001428Y004861D01*
X001428Y004761D01*
X001428Y004293D01*
X001500Y004304D01*
X001578Y004330D01*
X001651Y004367D01*
X001717Y004415D01*
X001775Y004473D01*
X001823Y004539D01*
X001860Y004612D01*
X001886Y004690D01*
X001897Y004761D01*
X001428Y004761D01*
X001328Y004761D01*
X001328Y004293D01*
X001257Y004304D01*
X001179Y004330D01*
X001173Y004333D01*
X001173Y004246D01*
X001283Y004291D01*
X001474Y004291D01*
X001650Y004218D01*
X001785Y004083D01*
X001858Y003907D01*
X001858Y003716D01*
X001785Y003540D01*
X001650Y003404D01*
X001474Y003331D01*
X001283Y003331D01*
X001173Y003377D01*
X001173Y003246D01*
X001283Y003291D01*
X001474Y003291D01*
X001650Y003218D01*
X001785Y003083D01*
X001687Y003182D02*
X002707Y003182D01*
X002707Y003280D02*
X001501Y003280D01*
X001588Y003379D02*
X002706Y003379D01*
X002697Y003477D02*
X001723Y003477D01*
X001800Y003576D02*
X002583Y003576D01*
X002528Y003674D02*
X001841Y003674D01*
X001858Y003773D02*
X002499Y003773D01*
X002499Y003871D02*
X001858Y003871D01*
X001832Y003970D02*
X002527Y003970D01*
X002580Y004068D02*
X001792Y004068D01*
X001702Y004167D02*
X002691Y004167D01*
X002847Y004265D02*
X001537Y004265D01*
X001645Y004364D02*
X002849Y004364D01*
X002851Y004462D02*
X001765Y004462D01*
X001834Y004561D02*
X002270Y004561D01*
X002248Y004659D02*
X001876Y004659D01*
X001896Y004758D02*
X002248Y004758D01*
X002248Y004856D02*
X001428Y004856D01*
X001428Y004758D02*
X001328Y004758D01*
X001328Y004659D02*
X001428Y004659D01*
X001428Y004561D02*
X001328Y004561D01*
X001328Y004462D02*
X001428Y004462D01*
X001428Y004364D02*
X001328Y004364D01*
X001220Y004265D02*
X001173Y004265D01*
X001328Y004955D02*
X001428Y004955D01*
X001428Y005053D02*
X001328Y005053D01*
X001328Y005152D02*
X001428Y005152D01*
X001428Y005250D02*
X001328Y005250D01*
X001241Y005349D02*
X001173Y005349D01*
X001516Y005349D02*
X001741Y005349D01*
X001741Y005447D02*
X001693Y005447D01*
X001651Y005256D02*
X001717Y005208D01*
X001740Y005186D01*
X001740Y005250D01*
X001740Y005250D01*
X002121Y005447D02*
X002245Y005447D01*
X002245Y005546D02*
X002122Y005546D01*
X002123Y005644D02*
X002245Y005644D01*
X002245Y005743D02*
X002124Y005743D01*
X002124Y005841D02*
X002245Y005841D01*
X002245Y005940D02*
X002125Y005940D01*
X002126Y006038D02*
X002245Y006038D01*
X002245Y006137D02*
X002126Y006137D01*
X002127Y006235D02*
X005690Y006235D01*
X006084Y006038D02*
X006405Y006038D01*
X006327Y006148D02*
X006304Y006137D01*
X006065Y005940D02*
X006813Y005940D01*
X006851Y006020D02*
X006889Y006030D01*
X006923Y006050D01*
X006951Y006078D01*
X006971Y006112D01*
X006981Y006150D01*
X006981Y006289D01*
X006673Y006289D01*
X006673Y006020D01*
X006851Y006020D01*
X006903Y006038D02*
X007161Y006038D01*
X007068Y006137D02*
X006978Y006137D01*
X006981Y006235D02*
X007068Y006235D01*
X007068Y006334D02*
X006981Y006334D01*
X006981Y006432D02*
X007068Y006432D01*
X007123Y006531D02*
X006955Y006531D01*
X006934Y006629D02*
X007068Y006629D01*
X006673Y006235D02*
X006635Y006235D01*
X006635Y006137D02*
X006673Y006137D01*
X006673Y006038D02*
X006635Y006038D01*
X006713Y005841D02*
X006063Y005841D01*
X006061Y005743D02*
X006611Y005743D01*
X006520Y005644D02*
X006059Y005644D01*
X006058Y005546D02*
X006427Y005546D01*
X006334Y005447D02*
X006056Y005447D01*
X006054Y005349D02*
X006241Y005349D01*
X006149Y005250D02*
X006053Y005250D01*
X006056Y005152D02*
X006011Y005152D01*
X005956Y005053D02*
X003280Y005053D01*
X003295Y004955D02*
X005408Y004955D01*
X005475Y004955D02*
X005856Y004955D01*
X006098Y004659D02*
X006129Y004659D01*
X006198Y004758D02*
X006226Y004758D01*
X006300Y004856D02*
X006312Y004856D01*
X006392Y004955D02*
X006421Y004955D01*
X006485Y005053D02*
X006530Y005053D01*
X006578Y005152D02*
X006638Y005152D01*
X006671Y005250D02*
X006723Y005250D01*
X006923Y005516D02*
X006975Y005566D01*
X007345Y005566D01*
X007423Y005565D01*
X007424Y005566D01*
X007426Y005566D01*
X007480Y005621D01*
X007499Y005640D01*
X007499Y005480D01*
X007471Y005452D01*
X007471Y004888D01*
X007536Y004824D01*
X007843Y004824D01*
X007881Y004861D01*
X008328Y004861D01*
X008328Y004761D01*
X008428Y004761D01*
X008428Y004293D01*
X008500Y004304D01*
X008578Y004330D01*
X008582Y004332D01*
X008582Y004247D01*
X008474Y004291D01*
X008283Y004291D01*
X008106Y004218D01*
X007971Y004083D01*
X007933Y003991D01*
X007933Y003991D01*
X007908Y004077D01*
X007908Y004428D01*
X007843Y004492D01*
X007536Y004492D01*
X007531Y004487D01*
X007516Y004502D01*
X007482Y004522D01*
X007443Y004532D01*
X007319Y004532D01*
X007319Y004150D01*
X007311Y004150D01*
X007311Y004532D01*
X007187Y004532D01*
X007149Y004522D01*
X007115Y004502D01*
X007100Y004487D01*
X007095Y004492D01*
X006788Y004492D01*
X006723Y004428D01*
X006723Y004388D01*
X006661Y004450D01*
X006552Y004495D01*
X006501Y004495D01*
X006516Y004511D01*
X006569Y004566D01*
X006569Y004569D01*
X006614Y004617D01*
X006842Y004824D01*
X007095Y004824D01*
X007160Y004888D01*
X007160Y005452D01*
X007095Y005516D01*
X006923Y005516D01*
X006954Y005546D02*
X007499Y005546D01*
X007471Y005447D02*
X007160Y005447D01*
X007160Y005349D02*
X007471Y005349D01*
X007471Y005250D02*
X007160Y005250D01*
X007160Y005152D02*
X007471Y005152D01*
X007471Y005053D02*
X007160Y005053D01*
X007160Y004955D02*
X007471Y004955D01*
X007503Y004856D02*
X007128Y004856D01*
X006770Y004758D02*
X007860Y004758D01*
X007860Y004761D02*
X007871Y004690D01*
X007896Y004612D01*
X007934Y004539D01*
X007982Y004473D01*
X008040Y004415D01*
X008106Y004367D01*
X008179Y004330D01*
X008257Y004304D01*
X008328Y004293D01*
X008328Y004761D01*
X007860Y004761D01*
X007876Y004856D02*
X008328Y004856D01*
X008328Y004861D02*
X008328Y005330D01*
X008257Y005319D01*
X008179Y005293D01*
X008106Y005256D01*
X008040Y005208D01*
X007982Y005150D01*
X007934Y005084D01*
X007908Y005033D01*
X007908Y005452D01*
X007879Y005480D01*
X007879Y005780D01*
X007898Y005830D01*
X007898Y005716D01*
X007971Y005540D01*
X008106Y005404D01*
X008283Y005331D01*
X008474Y005331D01*
X008582Y005376D01*
X008582Y005291D01*
X008578Y005293D01*
X008500Y005319D01*
X008428Y005330D01*
X008428Y004861D01*
X008328Y004861D01*
X008328Y004955D02*
X008428Y004955D01*
X008428Y005053D02*
X008328Y005053D01*
X008328Y005152D02*
X008428Y005152D01*
X008428Y005250D02*
X008328Y005250D01*
X008241Y005349D02*
X007908Y005349D01*
X007908Y005447D02*
X008064Y005447D01*
X007969Y005546D02*
X007879Y005546D01*
X007879Y005644D02*
X007928Y005644D01*
X007898Y005743D02*
X007879Y005743D01*
X007908Y005250D02*
X008098Y005250D01*
X007983Y005152D02*
X007908Y005152D01*
X007908Y005053D02*
X007918Y005053D01*
X007881Y004659D02*
X006661Y004659D01*
X006564Y004561D02*
X007922Y004561D01*
X007873Y004462D02*
X007992Y004462D01*
X007908Y004364D02*
X008112Y004364D01*
X008220Y004265D02*
X007908Y004265D01*
X007908Y004167D02*
X008055Y004167D01*
X007965Y004068D02*
X007910Y004068D01*
X007575Y003800D02*
X007579Y003487D01*
X007569Y003523D01*
X007550Y003557D01*
X007522Y003585D01*
X007487Y003605D01*
X007449Y003615D01*
X007311Y003615D01*
X007311Y003307D01*
X007273Y003307D01*
X007273Y003615D01*
X007134Y003615D01*
X007096Y003605D01*
X007062Y003585D01*
X007034Y003557D01*
X007015Y003524D01*
X006967Y003571D01*
X006966Y003710D01*
X006966Y003788D01*
X006965Y003788D01*
X006965Y003790D01*
X006955Y003800D01*
X007095Y003800D01*
X007100Y003805D01*
X007115Y003790D01*
X007149Y003770D01*
X007187Y003760D01*
X007311Y003760D01*
X007311Y004142D01*
X007319Y004142D01*
X007319Y003760D01*
X007443Y003760D01*
X007482Y003770D01*
X007516Y003790D01*
X007531Y003805D01*
X007536Y003800D01*
X007575Y003800D01*
X007576Y003773D02*
X007486Y003773D01*
X007577Y003674D02*
X006966Y003674D01*
X006966Y003773D02*
X007145Y003773D01*
X007311Y003773D02*
X007319Y003773D01*
X007311Y003871D02*
X007319Y003871D01*
X007311Y003970D02*
X007319Y003970D01*
X007311Y004068D02*
X007319Y004068D01*
X007311Y004167D02*
X007319Y004167D01*
X007311Y004265D02*
X007319Y004265D01*
X007311Y004364D02*
X007319Y004364D01*
X007311Y004462D02*
X007319Y004462D01*
X006757Y004462D02*
X006632Y004462D01*
X006033Y004561D02*
X005673Y004561D01*
X005653Y004462D02*
X005976Y004462D01*
X006011Y004574D02*
X006011Y004574D01*
X005908Y004364D02*
X005008Y004364D01*
X005010Y004265D02*
X005395Y004265D01*
X005159Y004462D02*
X005063Y004462D01*
X005083Y004561D02*
X005138Y004561D01*
X005138Y004659D02*
X005083Y004659D01*
X005083Y004758D02*
X005138Y004758D01*
X005138Y004856D02*
X005083Y004856D01*
X005740Y004265D02*
X005843Y004265D01*
X005854Y004167D02*
X005828Y004167D01*
X006967Y003576D02*
X007053Y003576D01*
X007273Y003576D02*
X007311Y003576D01*
X007311Y003477D02*
X007273Y003477D01*
X007273Y003379D02*
X007311Y003379D01*
X007580Y003379D02*
X007580Y003379D01*
X007578Y003576D02*
X007531Y003576D01*
X008328Y004364D02*
X008428Y004364D01*
X008537Y004265D02*
X008582Y004265D01*
X008428Y004462D02*
X008328Y004462D01*
X008328Y004561D02*
X008428Y004561D01*
X008428Y004659D02*
X008328Y004659D01*
X008328Y004758D02*
X008428Y004758D01*
X008516Y005349D02*
X008582Y005349D01*
X005153Y006334D02*
X004891Y006334D01*
X004945Y006432D02*
X005099Y006432D01*
X005099Y006531D02*
X004945Y006531D01*
X004945Y006629D02*
X005099Y006629D01*
X005099Y006728D02*
X004945Y006728D01*
X004945Y006826D02*
X005099Y006826D01*
X005099Y006925D02*
X004945Y006925D01*
X004945Y007023D02*
X005099Y007023D01*
X005099Y007122D02*
X004945Y007122D01*
X004031Y006334D02*
X003946Y006334D01*
X003651Y006137D02*
X004686Y006137D01*
X003032Y006925D02*
X002878Y006925D01*
X002878Y007023D02*
X003032Y007023D01*
X003032Y007122D02*
X002878Y007122D01*
X002248Y004955D02*
X001879Y004955D01*
X002517Y004758D02*
X002555Y004758D01*
X002555Y004659D02*
X002517Y004659D01*
X002517Y004561D02*
X002555Y004561D01*
X002802Y004561D02*
X002832Y004561D01*
X001256Y003280D02*
X001173Y003280D01*
X001173Y002295D02*
X008582Y002295D01*
D22*
X008378Y001811D02*
X008378Y001556D01*
X001343Y001556D01*
X001343Y001811D01*
X001378Y001811D01*
X002867Y002575D02*
X002898Y003000D01*
X002894Y003823D01*
X003036Y004181D01*
X003048Y004815D01*
X003044Y005174D01*
X002528Y005166D01*
X001930Y005170D01*
X001941Y006839D01*
X001378Y006811D01*
X001382Y004815D02*
X001378Y004811D01*
X001382Y004815D02*
X002536Y004815D01*
X004504Y005272D02*
X005863Y005272D01*
X005878Y006154D01*
X006193Y006296D01*
X006185Y006815D01*
X006654Y006819D01*
X006945Y006835D01*
X007355Y006804D01*
X007752Y006819D01*
X007752Y005981D01*
X007689Y005815D01*
X007689Y005170D01*
X007347Y005756D02*
X007355Y006292D01*
X007347Y005756D02*
X006898Y005756D01*
X006756Y005619D01*
X006189Y005016D01*
X005933Y004764D01*
X005402Y004764D01*
X005406Y004685D01*
X004815Y004685D02*
X004819Y004237D01*
X004815Y004000D01*
X005209Y003996D01*
X005567Y004016D01*
X006044Y004225D02*
X006048Y003721D01*
X006386Y003709D01*
X006776Y003709D01*
X006780Y003288D01*
X007292Y003288D02*
X007292Y004264D01*
X007315Y004146D01*
X007315Y004571D01*
X008378Y004811D01*
X007689Y004146D02*
X007764Y003890D01*
X007780Y002540D01*
X002867Y002575D01*
X004504Y005272D02*
X004500Y005754D01*
X006213Y004473D02*
X006044Y004225D01*
X006213Y004473D02*
X006378Y004642D01*
X006481Y004752D01*
X006941Y005170D01*
X006941Y004146D02*
X006493Y004197D01*
D23*
X006493Y004197D03*
X005567Y004016D03*
M02*
