G75*
%MOIN*%
%OFA0B0*%
%FSLAX24Y24*%
%IPPOS*%
%LPD*%
%AMOC8*
5,1,8,0,0,1.08239X$1,22.5*
%
%ADD10C,0.0040*%
D10*
X002236Y001693D02*
X002236Y001826D01*
X002236Y001914D02*
X002437Y001914D01*
X002437Y002014D01*
X002403Y002047D01*
X002336Y002047D01*
X002303Y002014D01*
X002303Y001914D01*
X002236Y002135D02*
X002303Y002201D01*
X002236Y002268D01*
X002437Y002268D01*
X002437Y002135D02*
X002236Y002135D01*
X002236Y001693D02*
X002437Y001693D01*
X002395Y002744D02*
X002362Y002744D01*
X002329Y002777D01*
X002329Y002844D01*
X002295Y002877D01*
X002262Y002877D01*
X002229Y002844D01*
X002229Y002777D01*
X002262Y002744D01*
X002395Y002744D02*
X002429Y002777D01*
X002429Y002844D01*
X002395Y002877D01*
X002395Y002965D02*
X002262Y002965D01*
X002229Y002998D01*
X002229Y003065D01*
X002262Y003098D01*
X002229Y003186D02*
X002229Y003319D01*
X002229Y003186D02*
X002429Y003186D01*
X002395Y003098D02*
X002429Y003065D01*
X002429Y002998D01*
X002395Y002965D01*
X002399Y003724D02*
X002366Y003724D01*
X002333Y003757D01*
X002333Y003824D01*
X002299Y003858D01*
X002266Y003858D01*
X002232Y003824D01*
X002232Y003757D01*
X002266Y003724D01*
X002399Y003724D02*
X002433Y003757D01*
X002433Y003824D01*
X002399Y003858D01*
X002433Y003945D02*
X002433Y004045D01*
X002399Y004079D01*
X002266Y004079D01*
X002232Y004045D01*
X002232Y003945D01*
X002433Y003945D01*
X002366Y004166D02*
X002232Y004166D01*
X002333Y004166D02*
X002333Y004300D01*
X002366Y004300D02*
X002232Y004300D01*
X002366Y004300D02*
X002433Y004233D01*
X002366Y004166D01*
X002403Y004700D02*
X002270Y004700D01*
X002236Y004734D01*
X002236Y004801D01*
X002270Y004834D01*
X002336Y004834D01*
X002336Y004767D01*
X002403Y004700D02*
X002437Y004734D01*
X002437Y004801D01*
X002403Y004834D01*
X002437Y004921D02*
X002236Y004921D01*
X002236Y005055D02*
X002437Y005055D01*
X002437Y005142D02*
X002236Y005142D01*
X002236Y005243D01*
X002270Y005276D01*
X002403Y005276D01*
X002437Y005243D01*
X002437Y005142D01*
X002236Y005055D02*
X002437Y004921D01*
X002983Y004660D02*
X003083Y004660D01*
X003116Y004627D01*
X003083Y004594D01*
X003016Y004594D01*
X002983Y004560D01*
X003016Y004527D01*
X003116Y004527D01*
X003204Y004560D02*
X003204Y004627D01*
X003237Y004660D01*
X003337Y004660D01*
X003337Y004460D01*
X003337Y004527D02*
X003237Y004527D01*
X003204Y004560D01*
X003425Y004527D02*
X003425Y004660D01*
X003425Y004527D02*
X003525Y004527D01*
X003558Y004560D01*
X003558Y004660D01*
X003672Y004727D02*
X003672Y004527D01*
X003639Y004527D02*
X003706Y004527D01*
X003786Y004527D02*
X003853Y004527D01*
X003820Y004527D02*
X003820Y004727D01*
X003853Y004727D01*
X003940Y004660D02*
X003940Y004527D01*
X004041Y004527D01*
X004074Y004560D01*
X004074Y004660D01*
X004161Y004694D02*
X004161Y004627D01*
X004195Y004594D01*
X004295Y004594D01*
X004295Y004527D02*
X004295Y004727D01*
X004195Y004727D01*
X004161Y004694D01*
X004603Y004694D02*
X004637Y004727D01*
X004704Y004727D01*
X004737Y004694D01*
X004737Y004560D01*
X004704Y004527D01*
X004637Y004527D01*
X004603Y004560D01*
X004824Y004527D02*
X004958Y004527D01*
X004824Y004660D01*
X004824Y004694D01*
X004858Y004727D01*
X004924Y004727D01*
X004958Y004694D01*
X005038Y004727D02*
X005105Y004727D01*
X005072Y004727D02*
X005072Y004527D01*
X005105Y004527D02*
X005038Y004527D01*
X003706Y004727D02*
X003672Y004727D01*
X002846Y005620D02*
X002712Y005620D01*
X002645Y005687D01*
X002712Y005754D01*
X002846Y005754D01*
X002812Y005841D02*
X002679Y005841D01*
X002645Y005875D01*
X002645Y005941D01*
X002679Y005975D01*
X002679Y006062D02*
X002645Y006096D01*
X002645Y006162D01*
X002679Y006196D01*
X002812Y006196D02*
X002846Y006162D01*
X002846Y006096D01*
X002812Y006062D01*
X002679Y006062D01*
X002812Y005975D02*
X002846Y005941D01*
X002846Y005875D01*
X002812Y005841D01*
X002437Y005854D02*
X002303Y005854D01*
X002236Y005787D01*
X002303Y005720D01*
X002437Y005720D01*
X002403Y005941D02*
X002270Y005941D01*
X002236Y005975D01*
X002236Y006041D01*
X002270Y006075D01*
X002270Y006162D02*
X002236Y006196D01*
X002236Y006262D01*
X002270Y006296D01*
X002403Y006296D02*
X002437Y006262D01*
X002437Y006196D01*
X002403Y006162D01*
X002270Y006162D01*
X002403Y006075D02*
X002437Y006041D01*
X002437Y005975D01*
X002403Y005941D01*
X003116Y006513D02*
X003182Y006580D01*
X003316Y006580D01*
X003282Y006667D02*
X003149Y006667D01*
X003116Y006701D01*
X003116Y006767D01*
X003149Y006801D01*
X003149Y006888D02*
X003116Y006921D01*
X003116Y006988D01*
X003149Y007022D01*
X003282Y007022D02*
X003316Y006988D01*
X003316Y006921D01*
X003282Y006888D01*
X003149Y006888D01*
X003282Y006801D02*
X003316Y006767D01*
X003316Y006701D01*
X003282Y006667D01*
X003116Y006513D02*
X003182Y006446D01*
X003316Y006446D01*
X003979Y006202D02*
X003979Y006168D01*
X004112Y006168D01*
X004112Y006135D02*
X004112Y006202D01*
X004079Y006235D01*
X004012Y006235D01*
X003979Y006202D01*
X004012Y006102D02*
X004079Y006102D01*
X004112Y006135D01*
X004193Y006102D02*
X004259Y006102D01*
X004226Y006102D02*
X004226Y006302D01*
X004259Y006302D01*
X004347Y006202D02*
X004380Y006235D01*
X004480Y006235D01*
X004480Y006302D02*
X004480Y006102D01*
X004380Y006102D01*
X004347Y006135D01*
X004347Y006202D01*
X004568Y006202D02*
X004568Y006102D01*
X004668Y006102D01*
X004701Y006135D01*
X004668Y006168D01*
X004568Y006168D01*
X004568Y006202D02*
X004601Y006235D01*
X004668Y006235D01*
X004789Y006202D02*
X004789Y006102D01*
X004789Y006202D02*
X004822Y006235D01*
X004922Y006235D01*
X004922Y006102D01*
X005010Y006102D02*
X005143Y006102D01*
X005143Y006302D01*
X005010Y006302D01*
X005077Y006202D02*
X005143Y006202D01*
X005452Y006269D02*
X005485Y006302D01*
X005552Y006302D01*
X005585Y006269D01*
X005585Y006135D01*
X005552Y006102D01*
X005485Y006102D01*
X005452Y006135D01*
X005673Y006102D02*
X005806Y006102D01*
X005673Y006235D01*
X005673Y006269D01*
X005706Y006302D01*
X005773Y006302D01*
X005806Y006269D01*
X005887Y006302D02*
X005954Y006302D01*
X005920Y006302D02*
X005920Y006102D01*
X005887Y006102D02*
X005954Y006102D01*
X008016Y006088D02*
X008049Y006122D01*
X008016Y006088D02*
X008016Y006022D01*
X008049Y005988D01*
X008183Y005988D01*
X008216Y006022D01*
X008216Y006088D01*
X008183Y006122D01*
X008183Y006209D02*
X008049Y006209D01*
X008016Y006243D01*
X008016Y006309D01*
X008049Y006343D01*
X008183Y006343D02*
X008216Y006309D01*
X008216Y006243D01*
X008183Y006209D01*
X008216Y005901D02*
X008083Y005901D01*
X008016Y005834D01*
X008083Y005767D01*
X008216Y005767D01*
X008191Y005339D02*
X008057Y005339D01*
X008024Y005306D01*
X008024Y005205D01*
X008224Y005205D01*
X008224Y005306D01*
X008191Y005339D01*
X008224Y005118D02*
X008024Y005118D01*
X008224Y004984D01*
X008024Y004984D01*
X008057Y004897D02*
X008124Y004897D01*
X008124Y004830D01*
X008191Y004763D02*
X008057Y004763D01*
X008024Y004797D01*
X008024Y004864D01*
X008057Y004897D01*
X008191Y004897D02*
X008224Y004864D01*
X008224Y004797D01*
X008191Y004763D01*
X008145Y004307D02*
X008012Y004307D01*
X008112Y004307D02*
X008112Y004174D01*
X008145Y004174D02*
X008212Y004241D01*
X008145Y004307D01*
X008145Y004174D02*
X008012Y004174D01*
X008045Y004086D02*
X008179Y004086D01*
X008212Y004053D01*
X008212Y003953D01*
X008012Y003953D01*
X008012Y004053D01*
X008045Y004086D01*
X008045Y003865D02*
X008012Y003832D01*
X008012Y003765D01*
X008045Y003732D01*
X008112Y003765D02*
X008112Y003832D01*
X008079Y003865D01*
X008045Y003865D01*
X008112Y003765D02*
X008145Y003732D01*
X008179Y003732D01*
X008212Y003765D01*
X008212Y003832D01*
X008179Y003865D01*
X008016Y003339D02*
X008016Y003205D01*
X008216Y003205D01*
X008183Y003118D02*
X008216Y003085D01*
X008216Y003018D01*
X008183Y002984D01*
X008049Y002984D01*
X008016Y003018D01*
X008016Y003085D01*
X008049Y003118D01*
X008049Y002897D02*
X008016Y002864D01*
X008016Y002797D01*
X008049Y002763D01*
X008116Y002797D02*
X008116Y002864D01*
X008083Y002897D01*
X008049Y002897D01*
X008116Y002797D02*
X008149Y002763D01*
X008183Y002763D01*
X008216Y002797D01*
X008216Y002864D01*
X008183Y002897D01*
X008216Y002311D02*
X008016Y002311D01*
X008083Y002245D01*
X008016Y002178D01*
X008216Y002178D01*
X008183Y002090D02*
X008116Y002090D01*
X008083Y002057D01*
X008083Y001957D01*
X008016Y001957D02*
X008216Y001957D01*
X008216Y002057D01*
X008183Y002090D01*
X008016Y001869D02*
X008016Y001736D01*
X008216Y001736D01*
X007301Y002760D02*
X007235Y002760D01*
X007268Y002760D02*
X007268Y002961D01*
X007301Y002961D02*
X007235Y002961D01*
X007154Y002927D02*
X007121Y002961D01*
X007054Y002961D01*
X007021Y002927D01*
X007021Y002894D01*
X007154Y002760D01*
X007021Y002760D01*
X006933Y002794D02*
X006900Y002760D01*
X006833Y002760D01*
X006800Y002794D01*
X006933Y002794D02*
X006933Y002927D01*
X006900Y002961D01*
X006833Y002961D01*
X006800Y002927D01*
X006491Y002894D02*
X006491Y002760D01*
X006491Y002860D02*
X006358Y002860D01*
X006358Y002894D02*
X006358Y002760D01*
X006270Y002794D02*
X006270Y002860D01*
X006237Y002894D01*
X006137Y002894D01*
X006137Y002961D02*
X006137Y002760D01*
X006237Y002760D01*
X006270Y002794D01*
X006358Y002894D02*
X006424Y002961D01*
X006491Y002894D01*
X006049Y002860D02*
X006049Y002794D01*
X006016Y002760D01*
X005916Y002760D01*
X005916Y002961D01*
X005916Y002894D02*
X006016Y002894D01*
X006049Y002860D01*
X005828Y002827D02*
X005761Y002894D01*
X005728Y002894D01*
X005644Y002860D02*
X005611Y002894D01*
X005544Y002894D01*
X005511Y002860D01*
X005511Y002827D01*
X005644Y002827D01*
X005644Y002794D02*
X005644Y002860D01*
X005644Y002794D02*
X005611Y002760D01*
X005544Y002760D01*
X005423Y002760D02*
X005323Y002760D01*
X005290Y002794D01*
X005323Y002827D01*
X005390Y002827D01*
X005423Y002860D01*
X005390Y002894D01*
X005290Y002894D01*
X005202Y002860D02*
X005169Y002894D01*
X005069Y002894D01*
X005102Y002827D02*
X005169Y002827D01*
X005202Y002860D01*
X005159Y002798D02*
X005125Y002831D01*
X004992Y002698D01*
X004958Y002731D01*
X004958Y002798D01*
X004992Y002831D01*
X005125Y002831D01*
X005102Y002827D02*
X005069Y002794D01*
X005102Y002760D01*
X005202Y002760D01*
X005159Y002731D02*
X005159Y002798D01*
X005159Y002731D02*
X005125Y002698D01*
X004992Y002698D01*
X004992Y002610D02*
X005125Y002610D01*
X005159Y002577D01*
X005159Y002477D01*
X004958Y002477D01*
X004958Y002577D01*
X004992Y002610D01*
X004958Y002389D02*
X005092Y002389D01*
X005159Y002323D01*
X005092Y002256D01*
X004958Y002256D01*
X005059Y002256D02*
X005059Y002389D01*
X004576Y002243D02*
X004576Y002176D01*
X004542Y002142D01*
X004409Y002142D01*
X004375Y002176D01*
X004375Y002243D01*
X004409Y002276D01*
X004542Y002276D02*
X004576Y002243D01*
X004542Y002055D02*
X004576Y002022D01*
X004576Y001955D01*
X004542Y001921D01*
X004409Y001921D01*
X004375Y001955D01*
X004375Y002022D01*
X004409Y002055D01*
X004442Y001834D02*
X004576Y001834D01*
X004576Y001700D02*
X004442Y001700D01*
X004375Y001767D01*
X004442Y001834D01*
X005828Y002760D02*
X005828Y002894D01*
X005902Y002264D02*
X006036Y002264D01*
X006069Y002231D01*
X006069Y002131D01*
X005869Y002131D01*
X005869Y002231D01*
X005902Y002264D01*
X005869Y002044D02*
X006069Y002044D01*
X006069Y001910D02*
X005869Y002044D01*
X005869Y001910D02*
X006069Y001910D01*
X006036Y001823D02*
X006069Y001789D01*
X006069Y001722D01*
X006036Y001689D01*
X005902Y001689D01*
X005869Y001722D01*
X005869Y001789D01*
X005902Y001823D01*
X005969Y001823D01*
X005969Y001756D01*
X008016Y006763D02*
X008016Y006864D01*
X008049Y006897D01*
X008083Y006897D01*
X008116Y006864D01*
X008116Y006763D01*
X008216Y006763D02*
X008216Y006864D01*
X008183Y006897D01*
X008149Y006897D01*
X008116Y006864D01*
X008116Y006984D02*
X008116Y007118D01*
X008149Y007118D02*
X008016Y007118D01*
X008149Y007118D02*
X008216Y007051D01*
X008149Y006984D01*
X008016Y006984D01*
X008016Y006763D02*
X008216Y006763D01*
X008216Y007205D02*
X008216Y007339D01*
X008216Y007272D02*
X008016Y007272D01*
X002456Y007298D02*
X002256Y007298D01*
X002256Y007144D02*
X002390Y007144D01*
X002456Y007077D01*
X002390Y007010D01*
X002256Y007010D01*
X002289Y006923D02*
X002256Y006889D01*
X002256Y006789D01*
X002456Y006789D01*
X002456Y006889D01*
X002423Y006923D01*
X002390Y006923D01*
X002356Y006889D01*
X002356Y006789D01*
X002356Y006889D02*
X002323Y006923D01*
X002289Y006923D01*
X002356Y007010D02*
X002356Y007144D01*
X002456Y007231D02*
X002456Y007364D01*
M02*
