G75*
%MOIN*%
%OFA0B0*%
%FSLAX24Y24*%
%IPPOS*%
%LPD*%
%AMOC8*
5,1,8,0,0,1.08239X$1,22.5*
%
%ADD10C,0.0800*%
%ADD11C,0.0069*%
%ADD12C,0.0333*%
%ADD13C,0.0103*%
%ADD14R,0.0336X0.0414*%
%ADD15C,0.0454*%
%ADD16C,0.0436*%
D10*
X001730Y002055D03*
X001730Y003055D03*
X001730Y004055D03*
X001730Y005055D03*
X001730Y006055D03*
X001730Y007055D03*
X008730Y007055D03*
X008730Y006055D03*
X008730Y005055D03*
X008730Y004055D03*
X008730Y003055D03*
X008730Y002055D03*
D11*
X006023Y004598D02*
X005717Y004598D01*
X006023Y004598D02*
X006023Y004528D01*
X005717Y004528D01*
X005717Y004598D01*
X005717Y004596D02*
X006023Y004596D01*
X006023Y004756D02*
X005717Y004756D01*
X006023Y004756D02*
X006023Y004686D01*
X005717Y004686D01*
X005717Y004756D01*
X005717Y004754D02*
X006023Y004754D01*
X006023Y004913D02*
X005717Y004913D01*
X006023Y004913D02*
X006023Y004843D01*
X005717Y004843D01*
X005717Y004913D01*
X005717Y004911D02*
X006023Y004911D01*
X006023Y005071D02*
X005717Y005071D01*
X006023Y005071D02*
X006023Y005001D01*
X005717Y005001D01*
X005717Y005071D01*
X005717Y005069D02*
X006023Y005069D01*
X006023Y005228D02*
X005717Y005228D01*
X006023Y005228D02*
X006023Y005158D01*
X005717Y005158D01*
X005717Y005228D01*
X005717Y005226D02*
X006023Y005226D01*
X006023Y005386D02*
X005717Y005386D01*
X006023Y005386D02*
X006023Y005316D01*
X005717Y005316D01*
X005717Y005386D01*
X005717Y005384D02*
X006023Y005384D01*
X005599Y005434D02*
X005599Y005740D01*
X005669Y005740D01*
X005669Y005434D01*
X005599Y005434D01*
X005599Y005502D02*
X005669Y005502D01*
X005669Y005570D02*
X005599Y005570D01*
X005599Y005638D02*
X005669Y005638D01*
X005669Y005706D02*
X005599Y005706D01*
X005441Y005740D02*
X005441Y005434D01*
X005441Y005740D02*
X005511Y005740D01*
X005511Y005434D01*
X005441Y005434D01*
X005441Y005502D02*
X005511Y005502D01*
X005511Y005570D02*
X005441Y005570D01*
X005441Y005638D02*
X005511Y005638D01*
X005511Y005706D02*
X005441Y005706D01*
X005284Y005740D02*
X005284Y005434D01*
X005284Y005740D02*
X005354Y005740D01*
X005354Y005434D01*
X005284Y005434D01*
X005284Y005502D02*
X005354Y005502D01*
X005354Y005570D02*
X005284Y005570D01*
X005284Y005638D02*
X005354Y005638D01*
X005354Y005706D02*
X005284Y005706D01*
X005126Y005740D02*
X005126Y005434D01*
X005126Y005740D02*
X005196Y005740D01*
X005196Y005434D01*
X005126Y005434D01*
X005126Y005502D02*
X005196Y005502D01*
X005196Y005570D02*
X005126Y005570D01*
X005126Y005638D02*
X005196Y005638D01*
X005196Y005706D02*
X005126Y005706D01*
X004969Y005740D02*
X004969Y005434D01*
X004969Y005740D02*
X005039Y005740D01*
X005039Y005434D01*
X004969Y005434D01*
X004969Y005502D02*
X005039Y005502D01*
X005039Y005570D02*
X004969Y005570D01*
X004969Y005638D02*
X005039Y005638D01*
X005039Y005706D02*
X004969Y005706D01*
X004811Y005740D02*
X004811Y005434D01*
X004811Y005740D02*
X004881Y005740D01*
X004881Y005434D01*
X004811Y005434D01*
X004811Y005502D02*
X004881Y005502D01*
X004881Y005570D02*
X004811Y005570D01*
X004811Y005638D02*
X004881Y005638D01*
X004881Y005706D02*
X004811Y005706D01*
X004763Y005316D02*
X004457Y005316D01*
X004457Y005386D01*
X004763Y005386D01*
X004763Y005316D01*
X004763Y005384D02*
X004457Y005384D01*
X004457Y005158D02*
X004763Y005158D01*
X004457Y005158D02*
X004457Y005228D01*
X004763Y005228D01*
X004763Y005158D01*
X004763Y005226D02*
X004457Y005226D01*
X004457Y005001D02*
X004763Y005001D01*
X004457Y005001D02*
X004457Y005071D01*
X004763Y005071D01*
X004763Y005001D01*
X004763Y005069D02*
X004457Y005069D01*
X004457Y004843D02*
X004763Y004843D01*
X004457Y004843D02*
X004457Y004913D01*
X004763Y004913D01*
X004763Y004843D01*
X004763Y004911D02*
X004457Y004911D01*
X004457Y004686D02*
X004763Y004686D01*
X004457Y004686D02*
X004457Y004756D01*
X004763Y004756D01*
X004763Y004686D01*
X004763Y004754D02*
X004457Y004754D01*
X004457Y004528D02*
X004763Y004528D01*
X004457Y004528D02*
X004457Y004598D01*
X004763Y004598D01*
X004763Y004528D01*
X004763Y004596D02*
X004457Y004596D01*
X004881Y004480D02*
X004881Y004174D01*
X004811Y004174D01*
X004811Y004480D01*
X004881Y004480D01*
X004881Y004242D02*
X004811Y004242D01*
X004811Y004310D02*
X004881Y004310D01*
X004881Y004378D02*
X004811Y004378D01*
X004811Y004446D02*
X004881Y004446D01*
X005039Y004480D02*
X005039Y004174D01*
X004969Y004174D01*
X004969Y004480D01*
X005039Y004480D01*
X005039Y004242D02*
X004969Y004242D01*
X004969Y004310D02*
X005039Y004310D01*
X005039Y004378D02*
X004969Y004378D01*
X004969Y004446D02*
X005039Y004446D01*
X005196Y004480D02*
X005196Y004174D01*
X005126Y004174D01*
X005126Y004480D01*
X005196Y004480D01*
X005196Y004242D02*
X005126Y004242D01*
X005126Y004310D02*
X005196Y004310D01*
X005196Y004378D02*
X005126Y004378D01*
X005126Y004446D02*
X005196Y004446D01*
X005354Y004480D02*
X005354Y004174D01*
X005284Y004174D01*
X005284Y004480D01*
X005354Y004480D01*
X005354Y004242D02*
X005284Y004242D01*
X005284Y004310D02*
X005354Y004310D01*
X005354Y004378D02*
X005284Y004378D01*
X005284Y004446D02*
X005354Y004446D01*
X005511Y004480D02*
X005511Y004174D01*
X005441Y004174D01*
X005441Y004480D01*
X005511Y004480D01*
X005511Y004242D02*
X005441Y004242D01*
X005441Y004310D02*
X005511Y004310D01*
X005511Y004378D02*
X005441Y004378D01*
X005441Y004446D02*
X005511Y004446D01*
X005669Y004480D02*
X005669Y004174D01*
X005599Y004174D01*
X005599Y004480D01*
X005669Y004480D01*
X005669Y004242D02*
X005599Y004242D01*
X005599Y004310D02*
X005669Y004310D01*
X005669Y004378D02*
X005599Y004378D01*
X005599Y004446D02*
X005669Y004446D01*
D12*
X005438Y004790D02*
X005042Y004790D01*
X005042Y005124D01*
X005438Y005124D01*
X005438Y004790D01*
X005438Y005122D02*
X005042Y005122D01*
D13*
X003360Y005108D02*
X003360Y004800D01*
X003052Y004800D01*
X003052Y005108D01*
X003360Y005108D01*
X003360Y004902D02*
X003052Y004902D01*
X003052Y005004D02*
X003360Y005004D01*
X003360Y005106D02*
X003052Y005106D01*
X002500Y005105D02*
X002500Y004797D01*
X002500Y005105D02*
X002808Y005105D01*
X002808Y004797D01*
X002500Y004797D01*
X002500Y004899D02*
X002808Y004899D01*
X002808Y005001D02*
X002500Y005001D01*
X002500Y005103D02*
X002808Y005103D01*
X002500Y004505D02*
X002500Y004197D01*
X002500Y004505D02*
X002808Y004505D01*
X002808Y004197D01*
X002500Y004197D01*
X002500Y004299D02*
X002808Y004299D01*
X002808Y004401D02*
X002500Y004401D01*
X002500Y004503D02*
X002808Y004503D01*
X003360Y004508D02*
X003360Y004200D01*
X003052Y004200D01*
X003052Y004508D01*
X003360Y004508D01*
X003360Y004302D02*
X003052Y004302D01*
X003052Y004404D02*
X003360Y004404D01*
X003360Y004506D02*
X003052Y004506D01*
X007738Y005803D02*
X007738Y006111D01*
X007738Y005803D02*
X007430Y005803D01*
X007430Y006111D01*
X007738Y006111D01*
X007738Y005905D02*
X007430Y005905D01*
X007430Y006007D02*
X007738Y006007D01*
X007738Y006109D02*
X007430Y006109D01*
X007738Y006403D02*
X007738Y006711D01*
X007738Y006403D02*
X007430Y006403D01*
X007430Y006711D01*
X007738Y006711D01*
X007738Y006505D02*
X007430Y006505D01*
X007430Y006607D02*
X007738Y006607D01*
X007738Y006709D02*
X007430Y006709D01*
D14*
X003135Y003228D03*
X002623Y003228D03*
X002573Y002573D03*
X003085Y002573D03*
X007102Y002289D03*
X007614Y002289D03*
D15*
X006466Y007218D03*
X005966Y007218D03*
X005466Y007218D03*
X004966Y007218D03*
X004466Y007218D03*
X003966Y007218D03*
X003466Y007218D03*
D16*
X002641Y006052D03*
X003285Y005758D03*
X003777Y005797D03*
X003691Y004991D03*
X003138Y003762D03*
X004043Y003508D03*
X004679Y002647D03*
X005152Y003338D03*
X005797Y003382D03*
X006782Y002693D03*
X006111Y002491D03*
X005447Y002467D03*
X003675Y002517D03*
X006794Y004143D03*
X007808Y003756D03*
X007579Y003012D03*
X007945Y004569D03*
X007810Y005495D03*
X005533Y006712D03*
M02*
