G75*
%MOIN*%
%OFA0B0*%
%FSLAX24Y24*%
%IPPOS*%
%LPD*%
%AMOC8*
5,1,8,0,0,1.08239X$1,22.5*
%
%ADD10C,0.0040*%
%ADD11C,0.0080*%
%ADD12C,0.0020*%
%ADD13R,0.0007X0.0042*%
%ADD14R,0.0007X0.0035*%
%ADD15R,0.0007X0.0028*%
%ADD16R,0.0007X0.0099*%
%ADD17R,0.0007X0.0106*%
%ADD18R,0.0007X0.0092*%
%ADD19R,0.0007X0.0120*%
%ADD20R,0.0007X0.0113*%
%ADD21R,0.0007X0.0085*%
%ADD22R,0.0007X0.0333*%
%ADD23R,0.0007X0.0099*%
%ADD24R,0.0007X0.0106*%
%ADD25R,0.0007X0.0092*%
%ADD26R,0.0007X0.0163*%
%ADD27R,0.0007X0.0149*%
%ADD28R,0.0007X0.0092*%
%ADD29R,0.0007X0.0127*%
%ADD30R,0.0007X0.0333*%
%ADD31R,0.0007X0.0099*%
%ADD32R,0.0007X0.0106*%
%ADD33R,0.0007X0.0092*%
%ADD34R,0.0007X0.0113*%
%ADD35R,0.0007X0.0191*%
%ADD36R,0.0007X0.0177*%
%ADD37R,0.0007X0.0092*%
%ADD38R,0.0007X0.0149*%
%ADD39R,0.0007X0.0333*%
%ADD40R,0.0007X0.0120*%
%ADD41R,0.0007X0.0212*%
%ADD42R,0.0007X0.0191*%
%ADD43R,0.0007X0.0092*%
%ADD44R,0.0007X0.0177*%
%ADD45R,0.0007X0.0120*%
%ADD46R,0.0007X0.0234*%
%ADD47R,0.0007X0.0205*%
%ADD48R,0.0007X0.0099*%
%ADD49R,0.0007X0.0120*%
%ADD50R,0.0007X0.0092*%
%ADD51R,0.0007X0.0113*%
%ADD52R,0.0007X0.0120*%
%ADD53R,0.0007X0.0255*%
%ADD54R,0.0007X0.0220*%
%ADD55R,0.0007X0.0092*%
%ADD56R,0.0007X0.0106*%
%ADD57R,0.0007X0.0198*%
%ADD58R,0.0007X0.0333*%
%ADD59R,0.0007X0.0135*%
%ADD60R,0.0007X0.0127*%
%ADD61R,0.0007X0.0269*%
%ADD62R,0.0007X0.0326*%
%ADD63R,0.0007X0.0212*%
%ADD64R,0.0007X0.0135*%
%ADD65R,0.0007X0.0127*%
%ADD66R,0.0007X0.0127*%
%ADD67R,0.0007X0.0283*%
%ADD68R,0.0007X0.0333*%
%ADD69R,0.0007X0.0227*%
%ADD70R,0.0007X0.0135*%
%ADD71R,0.0007X0.0127*%
%ADD72R,0.0007X0.0290*%
%ADD73R,0.0007X0.0333*%
%ADD74R,0.0007X0.0135*%
%ADD75R,0.0007X0.0297*%
%ADD76R,0.0007X0.0340*%
%ADD77R,0.0007X0.0149*%
%ADD78R,0.0007X0.0135*%
%ADD79R,0.0007X0.0142*%
%ADD80R,0.0007X0.0312*%
%ADD81R,0.0007X0.0156*%
%ADD82R,0.0007X0.0340*%
%ADD83R,0.0007X0.0142*%
%ADD84R,0.0007X0.0120*%
%ADD85R,0.0007X0.0142*%
%ADD86R,0.0007X0.0326*%
%ADD87R,0.0007X0.0149*%
%ADD88R,0.0007X0.0142*%
%ADD89R,0.0007X0.0106*%
%ADD90R,0.0007X0.0127*%
%ADD91R,0.0007X0.0135*%
%ADD92R,0.0007X0.0113*%
%ADD93R,0.0007X0.0163*%
%ADD94R,0.0007X0.0163*%
%ADD95R,0.0007X0.0156*%
%ADD96R,0.0007X0.0113*%
%ADD97R,0.0007X0.0120*%
%ADD98R,0.0007X0.0163*%
%ADD99R,0.0007X0.0163*%
%ADD100R,0.0007X0.0085*%
%ADD101R,0.0007X0.0170*%
%ADD102R,0.0007X0.0177*%
%ADD103R,0.0007X0.0085*%
%ADD104R,0.0007X0.0078*%
%ADD105R,0.0007X0.0177*%
%ADD106R,0.0007X0.0106*%
%ADD107R,0.0007X0.0113*%
%ADD108R,0.0007X0.0085*%
%ADD109R,0.0007X0.0177*%
%ADD110R,0.0007X0.0085*%
%ADD111R,0.0007X0.0177*%
%ADD112R,0.0007X0.0177*%
%ADD113R,0.0007X0.0099*%
%ADD114R,0.0007X0.0184*%
%ADD115R,0.0007X0.0099*%
%ADD116R,0.0007X0.0368*%
%ADD117R,0.0007X0.0191*%
%ADD118R,0.0007X0.0368*%
%ADD119R,0.0007X0.0163*%
%ADD120R,0.0007X0.0184*%
%ADD121R,0.0007X0.0368*%
%ADD122R,0.0007X0.0290*%
%ADD123R,0.0007X0.0113*%
%ADD124R,0.0007X0.0085*%
%ADD125R,0.0007X0.0368*%
%ADD126R,0.0007X0.0276*%
%ADD127R,0.0007X0.0361*%
%ADD128R,0.0007X0.0255*%
%ADD129R,0.0007X0.0085*%
%ADD130R,0.0007X0.0361*%
%ADD131R,0.0007X0.0220*%
%ADD132R,0.0007X0.0361*%
%ADD133R,0.0007X0.0099*%
%ADD134R,0.0007X0.0106*%
%ADD135R,0.0007X0.0106*%
%ADD136R,0.0007X0.0120*%
%ADD137R,0.0007X0.0219*%
%ADD138R,0.0007X0.0142*%
%ADD139R,0.0007X0.0219*%
%ADD140R,0.0007X0.0312*%
%ADD141R,0.0007X0.0219*%
%ADD142R,0.0007X0.0347*%
%ADD143R,0.0007X0.0312*%
%ADD144R,0.0007X0.0304*%
%ADD145R,0.0007X0.0340*%
%ADD146R,0.0007X0.0312*%
%ADD147R,0.0007X0.0234*%
%ADD148R,0.0007X0.0297*%
%ADD149R,0.0007X0.0219*%
%ADD150R,0.0007X0.0312*%
%ADD151R,0.0007X0.0227*%
%ADD152R,0.0007X0.0283*%
%ADD153R,0.0007X0.0290*%
%ADD154R,0.0007X0.0269*%
%ADD155R,0.0007X0.0205*%
%ADD156R,0.0007X0.0184*%
%ADD157R,0.0007X0.0255*%
%ADD158R,0.0007X0.0198*%
%ADD159R,0.0007X0.0191*%
%ADD160R,0.0007X0.0184*%
%ADD161R,0.0007X0.0241*%
%ADD162R,0.0007X0.0255*%
%ADD163R,0.0007X0.0191*%
%ADD164R,0.0007X0.0198*%
%ADD165R,0.0007X0.0184*%
%ADD166R,0.0007X0.0234*%
%ADD167R,0.0007X0.0212*%
%ADD168R,0.0007X0.0184*%
%ADD169R,0.0007X0.0170*%
%ADD170R,0.0007X0.0170*%
%ADD171R,0.0007X0.0156*%
%ADD172R,0.0007X0.0035*%
%ADD173R,0.0007X0.0170*%
%ADD174R,0.0007X0.0042*%
%ADD175R,0.0007X0.0064*%
%ADD176R,0.0007X0.0028*%
%ADD177R,0.0007X0.0035*%
%ADD178R,0.0007X0.0156*%
%ADD179R,0.0007X0.0177*%
%ADD180R,0.0007X0.0170*%
%ADD181R,0.0007X0.0028*%
%ADD182R,0.0007X0.0028*%
%ADD183R,0.0007X0.0057*%
%ADD184R,0.0007X0.0057*%
%ADD185R,0.0007X0.0042*%
%ADD186R,0.0007X0.0043*%
%ADD187R,0.0007X0.0050*%
%ADD188R,0.0007X0.0050*%
%ADD189R,0.0007X0.0043*%
%ADD190R,0.0007X0.0043*%
%ADD191R,0.0007X0.0035*%
%ADD192R,0.0007X0.0035*%
%ADD193R,0.0007X0.0078*%
%ADD194R,0.0007X0.0064*%
%ADD195C,0.0050*%
%ADD196C,0.0300*%
%ADD197R,0.0160X0.0280*%
D10*
X002224Y001693D02*
X002425Y001693D01*
X002425Y001826D01*
X002425Y001914D02*
X002224Y001914D01*
X002224Y002014D01*
X002258Y002047D01*
X002324Y002047D01*
X002358Y002014D01*
X002358Y001914D01*
X002425Y002135D02*
X002224Y002135D01*
X002224Y002268D02*
X002425Y002268D01*
X002358Y002201D01*
X002425Y002135D01*
X002962Y002166D02*
X003062Y002166D01*
X003095Y002199D01*
X003095Y002266D01*
X003062Y002299D01*
X002962Y002299D01*
X002962Y002099D01*
X003028Y002166D02*
X003095Y002099D01*
X003183Y002199D02*
X003316Y002199D01*
X003283Y002099D02*
X003283Y002299D01*
X003183Y002199D01*
X003836Y002243D02*
X003836Y002043D01*
X003969Y002043D01*
X004057Y002043D02*
X004057Y002077D01*
X004190Y002210D01*
X004190Y002243D01*
X004057Y002243D01*
X003969Y002243D02*
X003836Y002243D01*
X003836Y002143D02*
X003902Y002143D01*
X004057Y002043D02*
X004190Y002043D01*
X004278Y002143D02*
X004411Y002143D01*
X004499Y002043D02*
X004565Y002043D01*
X004532Y002043D02*
X004532Y002243D01*
X004499Y002243D02*
X004565Y002243D01*
X004646Y002210D02*
X004679Y002243D01*
X004746Y002243D01*
X004779Y002210D01*
X004779Y002177D01*
X004646Y002043D01*
X004779Y002043D01*
X004867Y002077D02*
X004900Y002043D01*
X004967Y002043D01*
X005000Y002077D01*
X005000Y002210D02*
X004967Y002243D01*
X004900Y002243D01*
X004867Y002210D01*
X004867Y002077D01*
X004867Y001883D02*
X004934Y001817D01*
X005000Y001883D01*
X005000Y001683D01*
X005088Y001717D02*
X005121Y001683D01*
X005188Y001683D01*
X005221Y001717D01*
X005221Y001883D01*
X005309Y002043D02*
X005309Y002243D01*
X005376Y002177D01*
X005442Y002243D01*
X005442Y002043D01*
X005530Y002043D02*
X005530Y002243D01*
X005630Y002243D01*
X005663Y002210D01*
X005663Y002143D01*
X005630Y002110D01*
X005530Y002110D01*
X005530Y001883D02*
X005530Y001750D01*
X005597Y001683D01*
X005663Y001750D01*
X005663Y001883D01*
X005751Y001817D02*
X005818Y001883D01*
X005818Y001683D01*
X005884Y001683D02*
X005751Y001683D01*
X005784Y002043D02*
X005851Y002043D01*
X005884Y002077D01*
X005884Y002243D01*
X005972Y002210D02*
X005972Y002177D01*
X006005Y002143D01*
X006105Y002143D01*
X006105Y002077D02*
X006105Y002210D01*
X006072Y002243D01*
X006005Y002243D01*
X005972Y002210D01*
X005972Y002077D02*
X006005Y002043D01*
X006072Y002043D01*
X006105Y002077D01*
X006193Y002043D02*
X006326Y002177D01*
X006326Y002210D01*
X006293Y002243D01*
X006226Y002243D01*
X006193Y002210D01*
X006193Y002043D02*
X006326Y002043D01*
X006414Y002077D02*
X006447Y002043D01*
X006514Y002043D01*
X006547Y002077D01*
X006547Y002143D01*
X006514Y002177D01*
X006481Y002177D01*
X006414Y002143D01*
X006414Y002243D01*
X006547Y002243D01*
X006635Y002210D02*
X006635Y002077D01*
X006768Y002210D01*
X006768Y002077D01*
X006735Y002043D01*
X006668Y002043D01*
X006635Y002077D01*
X006635Y002210D02*
X006668Y002243D01*
X006735Y002243D01*
X006768Y002210D01*
X007185Y002005D02*
X007185Y001805D01*
X007185Y001872D02*
X007285Y001872D01*
X007318Y001905D01*
X007318Y001972D01*
X007285Y002005D01*
X007185Y002005D01*
X007251Y001872D02*
X007318Y001805D01*
X007406Y001838D02*
X007439Y001805D01*
X007506Y001805D01*
X007539Y001838D01*
X007539Y001872D01*
X007506Y001905D01*
X007472Y001905D01*
X007506Y001905D02*
X007539Y001939D01*
X007539Y001972D01*
X007506Y002005D01*
X007439Y002005D01*
X007406Y001972D01*
X008024Y001969D02*
X008024Y002069D01*
X008057Y002102D01*
X008124Y002102D01*
X008157Y002069D01*
X008157Y001969D01*
X008224Y001969D02*
X008024Y001969D01*
X008224Y001881D02*
X008224Y001748D01*
X008024Y001748D01*
X008024Y002190D02*
X008224Y002190D01*
X008157Y002256D01*
X008224Y002323D01*
X008024Y002323D01*
X008053Y002787D02*
X008086Y002787D01*
X008120Y002820D01*
X008120Y002887D01*
X008153Y002921D01*
X008186Y002921D01*
X008220Y002887D01*
X008220Y002820D01*
X008186Y002787D01*
X008053Y002787D02*
X008020Y002820D01*
X008020Y002887D01*
X008053Y002921D01*
X008053Y003008D02*
X008186Y003008D01*
X008220Y003041D01*
X008220Y003108D01*
X008186Y003142D01*
X008220Y003229D02*
X008020Y003229D01*
X008053Y003142D02*
X008020Y003108D01*
X008020Y003041D01*
X008053Y003008D01*
X008220Y003229D02*
X008220Y003363D01*
X008171Y003736D02*
X008204Y003769D01*
X008204Y003836D01*
X008171Y003869D01*
X008137Y003869D01*
X008104Y003836D01*
X008104Y003769D01*
X008071Y003736D01*
X008037Y003736D01*
X008004Y003769D01*
X008004Y003836D01*
X008037Y003869D01*
X008004Y003957D02*
X008004Y004057D01*
X008037Y004090D01*
X008171Y004090D01*
X008204Y004057D01*
X008204Y003957D01*
X008004Y003957D01*
X008071Y004178D02*
X008004Y004245D01*
X008071Y004311D01*
X008204Y004311D01*
X008104Y004311D02*
X008104Y004178D01*
X008071Y004178D02*
X008204Y004178D01*
X008190Y004763D02*
X008057Y004763D01*
X008024Y004797D01*
X008024Y004864D01*
X008057Y004897D01*
X008124Y004897D02*
X008124Y004830D01*
X008124Y004897D02*
X008190Y004897D01*
X008224Y004864D01*
X008224Y004797D01*
X008190Y004763D01*
X008224Y004984D02*
X008024Y004984D01*
X008224Y005118D01*
X008024Y005118D01*
X008024Y005205D02*
X008024Y005306D01*
X008057Y005339D01*
X008190Y005339D01*
X008224Y005306D01*
X008224Y005205D01*
X008024Y005205D01*
X008008Y005763D02*
X008141Y005763D01*
X008208Y005830D01*
X008141Y005897D01*
X008008Y005897D01*
X008041Y005984D02*
X008175Y005984D01*
X008208Y006018D01*
X008208Y006085D01*
X008175Y006118D01*
X008175Y006205D02*
X008041Y006205D01*
X008008Y006239D01*
X008008Y006306D01*
X008041Y006339D01*
X008175Y006339D02*
X008208Y006306D01*
X008208Y006239D01*
X008175Y006205D01*
X008041Y006118D02*
X008008Y006085D01*
X008008Y006018D01*
X008041Y005984D01*
X008031Y006783D02*
X008031Y006883D01*
X008065Y006917D01*
X008098Y006917D01*
X008132Y006883D01*
X008132Y006783D01*
X008232Y006783D02*
X008232Y006883D01*
X008198Y006917D01*
X008165Y006917D01*
X008132Y006883D01*
X008132Y007004D02*
X008132Y007138D01*
X008098Y007138D02*
X008232Y007138D01*
X008098Y007138D02*
X008031Y007071D01*
X008098Y007004D01*
X008232Y007004D01*
X008232Y006783D02*
X008031Y006783D01*
X007706Y006958D02*
X007673Y006924D01*
X007606Y006924D01*
X007573Y006958D01*
X007573Y007024D01*
X007673Y007024D01*
X007706Y006991D01*
X007706Y006958D01*
X007640Y007091D02*
X007573Y007024D01*
X007640Y007091D02*
X007706Y007124D01*
X007485Y007091D02*
X007452Y007124D01*
X007385Y007124D01*
X007352Y007091D01*
X007352Y006958D01*
X007385Y006924D01*
X007452Y006924D01*
X007485Y006958D01*
X008031Y007225D02*
X008031Y007359D01*
X008031Y007292D02*
X008232Y007292D01*
X006520Y006916D02*
X006520Y006783D01*
X006320Y006783D01*
X006353Y006695D02*
X006320Y006662D01*
X006320Y006595D01*
X006353Y006562D01*
X006487Y006562D01*
X006520Y006595D01*
X006520Y006662D01*
X006487Y006695D01*
X006044Y006752D02*
X005910Y006752D01*
X005844Y006685D01*
X005910Y006618D01*
X006044Y006618D01*
X006010Y006531D02*
X005877Y006531D01*
X005844Y006497D01*
X005844Y006397D01*
X006044Y006397D01*
X006044Y006497D01*
X006010Y006531D01*
X005944Y006618D02*
X005944Y006752D01*
X005345Y006738D02*
X005312Y006705D01*
X005345Y006738D02*
X005345Y006805D01*
X005312Y006838D01*
X005279Y006838D01*
X005245Y006805D01*
X005245Y006738D01*
X005212Y006705D01*
X005179Y006705D01*
X005145Y006738D01*
X005145Y006805D01*
X005179Y006838D01*
X005038Y006846D02*
X005038Y006712D01*
X004837Y006712D01*
X004871Y006625D02*
X004837Y006591D01*
X004837Y006525D01*
X004871Y006491D01*
X005004Y006491D01*
X005038Y006525D01*
X005038Y006591D01*
X005004Y006625D01*
X005145Y006584D02*
X005145Y006517D01*
X005179Y006484D01*
X005312Y006484D01*
X005345Y006517D01*
X005345Y006584D01*
X005312Y006617D01*
X005179Y006617D02*
X005145Y006584D01*
X005145Y006396D02*
X005345Y006396D01*
X005145Y006263D01*
X005345Y006263D01*
X005038Y006304D02*
X005004Y006270D01*
X005038Y006304D02*
X005038Y006370D01*
X005004Y006404D01*
X004971Y006404D01*
X004937Y006370D01*
X004937Y006304D01*
X004904Y006270D01*
X004871Y006270D01*
X004837Y006304D01*
X004837Y006370D01*
X004871Y006404D01*
X004590Y006457D02*
X004590Y006557D01*
X004557Y006591D01*
X004424Y006591D01*
X004390Y006557D01*
X004390Y006457D01*
X004590Y006457D01*
X004557Y006370D02*
X004590Y006336D01*
X004590Y006270D01*
X004557Y006236D01*
X004490Y006270D02*
X004490Y006336D01*
X004524Y006370D01*
X004557Y006370D01*
X004490Y006270D02*
X004457Y006236D01*
X004424Y006236D01*
X004390Y006270D01*
X004390Y006336D01*
X004424Y006370D01*
X004072Y006381D02*
X003939Y006381D01*
X003872Y006314D01*
X003939Y006247D01*
X004072Y006247D01*
X003972Y006247D02*
X003972Y006381D01*
X003872Y006468D02*
X003872Y006568D01*
X003905Y006602D01*
X004039Y006602D01*
X004072Y006568D01*
X004072Y006468D01*
X003872Y006468D01*
X003905Y006689D02*
X003872Y006723D01*
X003872Y006789D01*
X003905Y006823D01*
X004039Y006689D01*
X004072Y006723D01*
X004072Y006789D01*
X004039Y006823D01*
X003905Y006823D01*
X003905Y006689D02*
X004039Y006689D01*
X004390Y006745D02*
X004457Y006812D01*
X004590Y006812D01*
X004490Y006812D02*
X004490Y006678D01*
X004457Y006678D02*
X004390Y006745D01*
X004457Y006678D02*
X004590Y006678D01*
X003586Y006743D02*
X003386Y006743D01*
X003386Y006676D02*
X003386Y006810D01*
X003386Y006589D02*
X003586Y006589D01*
X003386Y006456D01*
X003586Y006456D01*
X003586Y006375D02*
X003586Y006308D01*
X003586Y006342D02*
X003386Y006342D01*
X003386Y006375D02*
X003386Y006308D01*
X003361Y005483D02*
X003228Y005483D01*
X003140Y005450D02*
X003107Y005483D01*
X003040Y005483D01*
X003007Y005450D01*
X003007Y005317D01*
X003040Y005283D01*
X003107Y005283D01*
X003140Y005317D01*
X003228Y005317D02*
X003228Y005283D01*
X003228Y005317D02*
X003361Y005450D01*
X003361Y005483D01*
X002822Y005508D02*
X002688Y005508D01*
X002688Y005408D01*
X002755Y005441D01*
X002788Y005441D01*
X002822Y005408D01*
X002822Y005341D01*
X002788Y005308D01*
X002722Y005308D01*
X002688Y005341D01*
X002601Y005341D02*
X002567Y005308D01*
X002501Y005308D01*
X002467Y005341D01*
X002467Y005474D01*
X002501Y005508D01*
X002567Y005508D01*
X002601Y005474D01*
X002403Y005292D02*
X002270Y005292D01*
X002236Y005258D01*
X002236Y005158D01*
X002436Y005158D01*
X002436Y005258D01*
X002403Y005292D01*
X002436Y005071D02*
X002236Y005071D01*
X002236Y004937D02*
X002436Y005071D01*
X002436Y004937D02*
X002236Y004937D01*
X002270Y004850D02*
X002236Y004816D01*
X002236Y004750D01*
X002270Y004716D01*
X002403Y004716D01*
X002436Y004750D01*
X002436Y004816D01*
X002403Y004850D01*
X002336Y004850D01*
X002336Y004783D01*
X002328Y004303D02*
X002328Y004170D01*
X002295Y004170D02*
X002228Y004237D01*
X002295Y004303D01*
X002429Y004303D01*
X002429Y004170D02*
X002295Y004170D01*
X002262Y004082D02*
X002228Y004049D01*
X002228Y003949D01*
X002429Y003949D01*
X002429Y004049D01*
X002395Y004082D01*
X002262Y004082D01*
X002262Y003861D02*
X002228Y003828D01*
X002228Y003761D01*
X002262Y003728D01*
X002295Y003728D01*
X002328Y003761D01*
X002328Y003828D01*
X002362Y003861D01*
X002395Y003861D01*
X002429Y003828D01*
X002429Y003761D01*
X002395Y003728D01*
X002421Y003323D02*
X002421Y003190D01*
X002220Y003190D01*
X002254Y003102D02*
X002220Y003069D01*
X002220Y003002D01*
X002254Y002969D01*
X002387Y002969D01*
X002421Y003002D01*
X002421Y003069D01*
X002387Y003102D01*
X002387Y002881D02*
X002421Y002848D01*
X002421Y002781D01*
X002387Y002748D01*
X002321Y002781D02*
X002321Y002848D01*
X002354Y002881D01*
X002387Y002881D01*
X002321Y002781D02*
X002287Y002748D01*
X002254Y002748D01*
X002220Y002781D01*
X002220Y002848D01*
X002254Y002881D01*
X003495Y003096D02*
X003495Y003296D01*
X003595Y003296D01*
X003628Y003263D01*
X003628Y003196D01*
X003595Y003163D01*
X003495Y003163D01*
X003562Y003163D02*
X003628Y003096D01*
X003716Y003129D02*
X003749Y003096D01*
X003816Y003096D01*
X003849Y003129D01*
X003849Y003196D01*
X003816Y003229D01*
X003783Y003229D01*
X003716Y003196D01*
X003716Y003296D01*
X003849Y003296D01*
X004720Y001883D02*
X004786Y001883D01*
X004753Y001883D02*
X004753Y001683D01*
X004720Y001683D02*
X004786Y001683D01*
X004867Y001683D02*
X004867Y001883D01*
X005088Y001883D02*
X005088Y001717D01*
X005751Y002077D02*
X005784Y002043D01*
X005751Y002077D02*
X005751Y002243D01*
X005859Y005573D02*
X005826Y005606D01*
X005826Y005773D01*
X005959Y005773D02*
X005959Y005606D01*
X005926Y005573D01*
X005859Y005573D01*
X006047Y005573D02*
X006180Y005706D01*
X006180Y005740D01*
X006147Y005773D01*
X006080Y005773D01*
X006047Y005740D01*
X006047Y005573D02*
X006180Y005573D01*
X002440Y005775D02*
X002374Y005708D01*
X002240Y005708D01*
X002374Y005842D02*
X002440Y005775D01*
X002374Y005842D02*
X002240Y005842D01*
X002274Y005929D02*
X002407Y005929D01*
X002440Y005963D01*
X002440Y006029D01*
X002407Y006063D01*
X002407Y006150D02*
X002274Y006150D01*
X002240Y006184D01*
X002240Y006250D01*
X002274Y006284D01*
X002407Y006284D02*
X002440Y006250D01*
X002440Y006184D01*
X002407Y006150D01*
X002274Y006063D02*
X002240Y006029D01*
X002240Y005963D01*
X002274Y005929D01*
X002244Y006777D02*
X002244Y006877D01*
X002277Y006911D01*
X002311Y006911D01*
X002344Y006877D01*
X002344Y006777D01*
X002444Y006777D02*
X002244Y006777D01*
X002344Y006877D02*
X002378Y006911D01*
X002411Y006911D01*
X002444Y006877D01*
X002444Y006777D01*
X002444Y006998D02*
X002311Y006998D01*
X002244Y007065D01*
X002311Y007132D01*
X002444Y007132D01*
X002344Y007132D02*
X002344Y006998D01*
X002244Y007219D02*
X002244Y007353D01*
X002244Y007286D02*
X002444Y007286D01*
D11*
X001309Y001805D02*
X001480Y001634D01*
X001980Y001634D01*
X002151Y001805D01*
X002151Y002305D01*
X002098Y002555D01*
X002151Y002805D01*
X002151Y003305D01*
X002098Y003555D01*
X002151Y003805D01*
X002151Y004305D01*
X002098Y004555D01*
X002151Y004805D01*
X002151Y005305D01*
X002098Y005555D01*
X002151Y005805D01*
X002151Y006305D01*
X002098Y006555D01*
X002151Y006805D01*
X002151Y007305D01*
X001980Y007673D01*
X001480Y007673D01*
X001309Y007305D01*
X001309Y006805D01*
X001362Y006555D01*
X001309Y006305D01*
X001309Y005805D01*
X001362Y005555D01*
X001309Y005305D01*
X001309Y004805D01*
X001362Y004555D01*
X001309Y004305D01*
X001309Y003805D01*
X001362Y003555D01*
X001309Y003305D01*
X001309Y002805D01*
X001362Y002555D01*
X001309Y002305D01*
X001309Y001805D01*
X008309Y001805D02*
X008480Y001634D01*
X008980Y001634D01*
X009151Y001805D01*
X009151Y002305D01*
X009098Y002555D01*
X009151Y002805D01*
X009151Y003305D01*
X009098Y003555D01*
X009151Y003805D01*
X009151Y004305D01*
X009098Y004555D01*
X009151Y004805D01*
X009151Y005305D01*
X009098Y005555D01*
X009151Y005805D01*
X009151Y006305D01*
X009098Y006555D01*
X009151Y006805D01*
X009151Y007305D01*
X008980Y007673D01*
X008480Y007673D01*
X008309Y007305D01*
X008309Y006805D01*
X008362Y006555D01*
X008309Y006305D01*
X008309Y005805D01*
X008362Y005555D01*
X008309Y005305D01*
X008309Y004805D01*
X008362Y004555D01*
X008309Y004305D01*
X008309Y003805D01*
X008362Y003555D01*
X008309Y003305D01*
X008309Y002805D01*
X008362Y002555D01*
X008309Y002305D01*
X008309Y001805D01*
D12*
X008531Y002473D02*
X008624Y002473D01*
X008678Y002473D02*
X008678Y002614D01*
X008748Y002614D01*
X008772Y002590D01*
X008772Y002544D01*
X008748Y002520D01*
X008678Y002520D01*
X008531Y002473D02*
X008531Y002614D01*
X008826Y002614D02*
X008826Y002473D01*
X008872Y002520D01*
X008919Y002473D01*
X008919Y002614D01*
X008931Y003470D02*
X008837Y003470D01*
X008837Y003610D01*
X008783Y003586D02*
X008760Y003610D01*
X008713Y003610D01*
X008690Y003586D01*
X008690Y003493D01*
X008713Y003470D01*
X008760Y003470D01*
X008783Y003493D01*
X008636Y003493D02*
X008613Y003470D01*
X008566Y003470D01*
X008543Y003493D01*
X008566Y003540D02*
X008613Y003540D01*
X008636Y003516D01*
X008636Y003493D01*
X008566Y003540D02*
X008543Y003563D01*
X008543Y003586D01*
X008566Y003610D01*
X008613Y003610D01*
X008636Y003586D01*
X008666Y004473D02*
X008736Y004473D01*
X008760Y004497D01*
X008760Y004590D01*
X008736Y004614D01*
X008666Y004614D01*
X008666Y004473D01*
X008613Y004497D02*
X008613Y004520D01*
X008589Y004544D01*
X008542Y004544D01*
X008519Y004567D01*
X008519Y004590D01*
X008542Y004614D01*
X008589Y004614D01*
X008613Y004590D01*
X008613Y004497D02*
X008589Y004473D01*
X008542Y004473D01*
X008519Y004497D01*
X008814Y004473D02*
X008814Y004567D01*
X008860Y004614D01*
X008907Y004567D01*
X008907Y004473D01*
X008907Y004544D02*
X008814Y004544D01*
X008818Y005477D02*
X008888Y005477D01*
X008911Y005501D01*
X008911Y005594D01*
X008888Y005618D01*
X008818Y005618D01*
X008818Y005477D01*
X008764Y005477D02*
X008764Y005618D01*
X008670Y005618D02*
X008670Y005477D01*
X008616Y005501D02*
X008616Y005547D01*
X008570Y005547D01*
X008616Y005501D02*
X008593Y005477D01*
X008546Y005477D01*
X008523Y005501D01*
X008523Y005594D01*
X008546Y005618D01*
X008593Y005618D01*
X008616Y005594D01*
X008670Y005618D02*
X008764Y005477D01*
X008733Y006473D02*
X008686Y006473D01*
X008662Y006497D01*
X008662Y006590D01*
X008686Y006614D01*
X008733Y006614D01*
X008756Y006590D01*
X008810Y006590D02*
X008810Y006497D01*
X008833Y006473D01*
X008880Y006473D01*
X008903Y006497D01*
X008903Y006590D02*
X008880Y006614D01*
X008833Y006614D01*
X008810Y006590D01*
X008756Y006497D02*
X008733Y006473D01*
X008609Y006520D02*
X008609Y006614D01*
X008609Y006520D02*
X008562Y006473D01*
X008515Y006520D01*
X008515Y006614D01*
X008543Y007458D02*
X008613Y007458D01*
X008636Y007481D01*
X008636Y007504D01*
X008613Y007528D01*
X008543Y007528D01*
X008613Y007528D02*
X008636Y007551D01*
X008636Y007574D01*
X008613Y007598D01*
X008543Y007598D01*
X008543Y007458D01*
X008690Y007458D02*
X008690Y007551D01*
X008737Y007598D01*
X008783Y007551D01*
X008783Y007458D01*
X008783Y007528D02*
X008690Y007528D01*
X008837Y007598D02*
X008931Y007598D01*
X008884Y007598D02*
X008884Y007458D01*
X001937Y007598D02*
X001843Y007598D01*
X001890Y007598D02*
X001890Y007458D01*
X001789Y007458D02*
X001789Y007551D01*
X001743Y007598D01*
X001696Y007551D01*
X001696Y007458D01*
X001642Y007481D02*
X001619Y007458D01*
X001549Y007458D01*
X001549Y007598D01*
X001619Y007598D01*
X001642Y007574D01*
X001642Y007551D01*
X001619Y007528D01*
X001549Y007528D01*
X001619Y007528D02*
X001642Y007504D01*
X001642Y007481D01*
X001696Y007528D02*
X001789Y007528D01*
X001837Y006614D02*
X001814Y006590D01*
X001814Y006497D01*
X001837Y006473D01*
X001884Y006473D01*
X001907Y006497D01*
X001907Y006590D02*
X001884Y006614D01*
X001837Y006614D01*
X001760Y006590D02*
X001736Y006614D01*
X001690Y006614D01*
X001666Y006590D01*
X001666Y006497D01*
X001690Y006473D01*
X001736Y006473D01*
X001760Y006497D01*
X001613Y006520D02*
X001613Y006614D01*
X001613Y006520D02*
X001566Y006473D01*
X001519Y006520D01*
X001519Y006614D01*
X001562Y005610D02*
X001539Y005586D01*
X001539Y005493D01*
X001562Y005470D01*
X001609Y005470D01*
X001632Y005493D01*
X001632Y005540D01*
X001585Y005540D01*
X001632Y005586D02*
X001609Y005610D01*
X001562Y005610D01*
X001686Y005610D02*
X001686Y005470D01*
X001780Y005470D02*
X001686Y005610D01*
X001780Y005610D02*
X001780Y005470D01*
X001833Y005470D02*
X001833Y005610D01*
X001903Y005610D01*
X001927Y005586D01*
X001927Y005493D01*
X001903Y005470D01*
X001833Y005470D01*
X001868Y004614D02*
X001915Y004567D01*
X001915Y004473D01*
X001915Y004544D02*
X001822Y004544D01*
X001822Y004567D02*
X001868Y004614D01*
X001822Y004567D02*
X001822Y004473D01*
X001768Y004497D02*
X001768Y004590D01*
X001744Y004614D01*
X001674Y004614D01*
X001674Y004473D01*
X001744Y004473D01*
X001768Y004497D01*
X001620Y004497D02*
X001620Y004520D01*
X001597Y004544D01*
X001550Y004544D01*
X001527Y004567D01*
X001527Y004590D01*
X001550Y004614D01*
X001597Y004614D01*
X001620Y004590D01*
X001620Y004497D02*
X001597Y004473D01*
X001550Y004473D01*
X001527Y004497D01*
X001566Y003618D02*
X001543Y003594D01*
X001543Y003571D01*
X001566Y003547D01*
X001613Y003547D01*
X001636Y003524D01*
X001636Y003501D01*
X001613Y003477D01*
X001566Y003477D01*
X001543Y003501D01*
X001566Y003618D02*
X001613Y003618D01*
X001636Y003594D01*
X001690Y003594D02*
X001690Y003501D01*
X001713Y003477D01*
X001760Y003477D01*
X001783Y003501D01*
X001837Y003477D02*
X001837Y003618D01*
X001783Y003594D02*
X001760Y003618D01*
X001713Y003618D01*
X001690Y003594D01*
X001837Y003477D02*
X001931Y003477D01*
X001919Y002610D02*
X001919Y002470D01*
X001872Y002516D01*
X001826Y002470D01*
X001826Y002610D01*
X001772Y002586D02*
X001772Y002540D01*
X001748Y002516D01*
X001678Y002516D01*
X001678Y002470D02*
X001678Y002610D01*
X001748Y002610D01*
X001772Y002586D01*
X001624Y002470D02*
X001531Y002470D01*
X001531Y002610D01*
D13*
X006188Y004450D03*
X006839Y005987D03*
X006882Y006001D03*
X006839Y006072D03*
X006832Y006072D03*
X006839Y006121D03*
X006882Y006136D03*
X006839Y006206D03*
X006832Y006206D03*
X006839Y006256D03*
X006882Y006270D03*
X006783Y006298D03*
X006783Y006433D03*
X006832Y006475D03*
X006839Y006475D03*
X006882Y006405D03*
X006783Y006164D03*
X006783Y006029D03*
D14*
X006931Y006436D03*
X006188Y004121D03*
D15*
X006592Y003650D03*
X006188Y003324D03*
D16*
X006195Y003324D03*
X006344Y003211D03*
X006358Y003211D03*
X006393Y003211D03*
X006407Y003211D03*
X006457Y003218D03*
X006457Y003069D03*
X006443Y003069D03*
X006407Y003069D03*
X006393Y003069D03*
X006358Y003069D03*
X006344Y003069D03*
X006308Y003069D03*
X006294Y003069D03*
X006266Y003069D03*
X006245Y003069D03*
X006216Y003069D03*
X006195Y003069D03*
X006485Y003069D03*
X006507Y003069D03*
X006535Y003069D03*
X006556Y003069D03*
X006634Y003069D03*
X006662Y003069D03*
X006684Y003069D03*
X006712Y003069D03*
X006443Y003480D03*
X006407Y003806D03*
X006393Y003806D03*
X006358Y003806D03*
X006344Y003806D03*
X006308Y003806D03*
X006294Y003806D03*
X006266Y003806D03*
X006245Y003806D03*
X006216Y003806D03*
X006195Y003806D03*
X006344Y003955D03*
X006358Y003955D03*
X006457Y003955D03*
X006485Y003955D03*
X006485Y004181D03*
X006344Y004188D03*
X006308Y004330D03*
X006294Y004337D03*
X006443Y004330D03*
X006485Y004344D03*
X006457Y004585D03*
X006443Y004585D03*
X006308Y004578D03*
X006393Y004741D03*
X006407Y004734D03*
X006443Y004726D03*
X006457Y004719D03*
X006485Y004712D03*
X006443Y004861D03*
X006507Y004875D03*
X006393Y005123D03*
X006195Y005066D03*
X006195Y004797D03*
X006195Y005491D03*
X006216Y005491D03*
X006245Y005491D03*
X006266Y005491D03*
X006294Y005491D03*
X006308Y005491D03*
X006344Y005491D03*
X006358Y005491D03*
X006393Y005491D03*
X006407Y005491D03*
X006443Y005491D03*
X006457Y005491D03*
X006457Y005739D03*
X006443Y005739D03*
X006443Y005888D03*
X006457Y005888D03*
X006485Y005888D03*
X006507Y005888D03*
X006535Y005888D03*
X006556Y005888D03*
X006634Y005888D03*
X006662Y005888D03*
X006684Y005888D03*
X006712Y005888D03*
X006535Y006036D03*
X006507Y006036D03*
X006485Y006036D03*
X006457Y006036D03*
X006443Y006036D03*
X006407Y006036D03*
X006393Y006036D03*
X006358Y006036D03*
X006344Y006036D03*
X006308Y006036D03*
X006294Y006036D03*
X006266Y006036D03*
X006245Y006036D03*
X006216Y006036D03*
X006195Y006036D03*
X006195Y005888D03*
X006216Y005888D03*
X006245Y005888D03*
X006266Y005888D03*
X006294Y005888D03*
X006308Y005888D03*
X006344Y005888D03*
X006358Y005888D03*
X006393Y005888D03*
X006407Y005888D03*
X006407Y006440D03*
X006393Y006440D03*
X006358Y006440D03*
X006344Y006440D03*
X006308Y006440D03*
X006294Y006440D03*
X006266Y006440D03*
X006245Y006440D03*
X006216Y006440D03*
X006195Y006440D03*
X006443Y006440D03*
X006457Y006440D03*
X006485Y006440D03*
X006507Y006440D03*
X006535Y006440D03*
D17*
X006195Y006238D03*
X006485Y005502D03*
X006556Y005169D03*
X006535Y005162D03*
X006507Y005155D03*
X006485Y005148D03*
X006457Y005141D03*
X006407Y005126D03*
X006584Y005176D03*
X006507Y004709D03*
X006535Y004702D03*
X006556Y004695D03*
X006634Y004673D03*
X006662Y004666D03*
X006684Y004659D03*
X006712Y004652D03*
X006485Y004574D03*
X006294Y004574D03*
X006308Y003958D03*
X006443Y003958D03*
X006556Y003689D03*
X006457Y003477D03*
X006308Y003477D03*
X006294Y003625D03*
X006266Y003625D03*
X006245Y003625D03*
X006216Y003625D03*
X006195Y003625D03*
X006308Y003222D03*
D18*
X006344Y003484D03*
X006358Y003484D03*
X006393Y003484D03*
X006407Y003484D03*
X006535Y003484D03*
X006556Y003484D03*
X006584Y003484D03*
X006634Y003484D03*
X006662Y003484D03*
X006684Y003484D03*
X006712Y003484D03*
X006556Y003809D03*
X006535Y003809D03*
X006245Y003484D03*
X006216Y003484D03*
X006195Y003484D03*
X006457Y004192D03*
X006457Y004333D03*
X006344Y004588D03*
X006393Y004850D03*
X006407Y004850D03*
X006457Y004864D03*
X006485Y004872D03*
X006485Y004992D03*
X006457Y004999D03*
X006393Y005013D03*
X006393Y005346D03*
X006407Y005346D03*
X006443Y005346D03*
X006457Y005346D03*
X006485Y005346D03*
X006507Y005346D03*
X006535Y005346D03*
X006556Y005346D03*
X006634Y005346D03*
X006662Y005346D03*
X006684Y005346D03*
X006712Y005346D03*
X006358Y005346D03*
X006344Y005346D03*
X006308Y005346D03*
X006294Y005346D03*
X006266Y005346D03*
X006245Y005346D03*
X006216Y005346D03*
X006195Y005346D03*
X006195Y005743D03*
X006216Y005743D03*
X006245Y005743D03*
X006266Y005743D03*
X006294Y005743D03*
X006308Y005743D03*
X006344Y005743D03*
X006358Y005743D03*
X006393Y005743D03*
X006407Y005743D03*
X006535Y005743D03*
X006556Y005743D03*
X006811Y006033D03*
X006811Y006302D03*
X006811Y006436D03*
X006535Y006337D03*
X006507Y006330D03*
X006485Y006323D03*
X006407Y006302D03*
X006393Y006302D03*
X006344Y006288D03*
X006393Y006174D03*
X006507Y006146D03*
X006535Y006139D03*
D19*
X006507Y004553D03*
X006584Y004454D03*
X006195Y004454D03*
X006535Y003696D03*
X006485Y003470D03*
X006294Y003470D03*
X006443Y002769D03*
D20*
X006407Y002800D03*
X006344Y002857D03*
X006294Y002900D03*
X006294Y003232D03*
X006485Y003232D03*
X006294Y003962D03*
X006195Y004125D03*
X006266Y004188D03*
X006358Y004174D03*
X006507Y004167D03*
X006216Y004797D03*
X006216Y005066D03*
X006662Y005194D03*
X006684Y005201D03*
X006712Y005208D03*
X006485Y005732D03*
D21*
X006443Y006164D03*
X006407Y006171D03*
X006443Y006313D03*
X006195Y003948D03*
D22*
X006195Y002818D03*
X006216Y002818D03*
X006245Y002818D03*
X006266Y002818D03*
D23*
X006252Y003069D03*
X006301Y003069D03*
X006351Y003069D03*
X006400Y003069D03*
X006450Y003069D03*
X006499Y003069D03*
X006549Y003069D03*
X006669Y003069D03*
X006719Y003069D03*
X006450Y003218D03*
X006400Y003211D03*
X006351Y003211D03*
X006202Y003069D03*
X006450Y003480D03*
X006400Y003806D03*
X006351Y003806D03*
X006301Y003806D03*
X006252Y003806D03*
X006202Y003806D03*
X006351Y003955D03*
X006450Y003955D03*
X006499Y004174D03*
X006450Y004330D03*
X006301Y004337D03*
X006301Y004578D03*
X006450Y004585D03*
X006499Y004712D03*
X006450Y004726D03*
X006549Y004698D03*
X006202Y004797D03*
X006202Y005066D03*
X006400Y005123D03*
X006450Y005137D03*
X006499Y005151D03*
X006450Y005491D03*
X006400Y005491D03*
X006351Y005491D03*
X006301Y005491D03*
X006252Y005491D03*
X006202Y005491D03*
X006450Y005739D03*
X006450Y005888D03*
X006499Y005888D03*
X006549Y005888D03*
X006669Y005888D03*
X006719Y005888D03*
X006499Y006036D03*
X006450Y006036D03*
X006400Y006036D03*
X006351Y006036D03*
X006301Y006036D03*
X006252Y006036D03*
X006202Y006036D03*
X006202Y005888D03*
X006252Y005888D03*
X006301Y005888D03*
X006351Y005888D03*
X006400Y005888D03*
X006400Y006440D03*
X006351Y006440D03*
X006301Y006440D03*
X006252Y006440D03*
X006202Y006440D03*
X006450Y006440D03*
X006499Y006440D03*
D24*
X006202Y006238D03*
X006549Y005162D03*
X006669Y005197D03*
X006669Y004666D03*
X006499Y004355D03*
X006351Y004185D03*
X006301Y003958D03*
X006499Y003965D03*
X006252Y003625D03*
X006202Y003625D03*
X006301Y003229D03*
D25*
X006351Y003484D03*
X006400Y003484D03*
X006549Y003484D03*
X006669Y003484D03*
X006719Y003484D03*
X006549Y003809D03*
X006202Y003484D03*
X006400Y004850D03*
X006450Y004864D03*
X006499Y004872D03*
X006450Y004999D03*
X006450Y005346D03*
X006499Y005346D03*
X006549Y005346D03*
X006669Y005346D03*
X006719Y005346D03*
X006400Y005346D03*
X006351Y005346D03*
X006301Y005346D03*
X006252Y005346D03*
X006202Y005346D03*
X006202Y005743D03*
X006252Y005743D03*
X006301Y005743D03*
X006351Y005743D03*
X006400Y005743D03*
X006549Y005743D03*
X006499Y006146D03*
X006450Y006160D03*
X006400Y006302D03*
X006351Y006288D03*
X006499Y006330D03*
D26*
X006669Y006068D03*
X006202Y004454D03*
D27*
X006202Y004121D03*
D28*
X006301Y004199D03*
X006202Y003951D03*
X006400Y004737D03*
X006450Y006316D03*
D29*
X006669Y004932D03*
X006252Y004797D03*
X006202Y003324D03*
D30*
X006252Y003363D03*
X006252Y002818D03*
X006202Y002818D03*
D31*
X006209Y003069D03*
X006223Y003069D03*
X006237Y003069D03*
X006259Y003069D03*
X006273Y003069D03*
X006287Y003069D03*
X006315Y003069D03*
X006322Y003069D03*
X006337Y003069D03*
X006365Y003069D03*
X006379Y003069D03*
X006386Y003069D03*
X006414Y003069D03*
X006429Y003069D03*
X006436Y003069D03*
X006464Y003069D03*
X006478Y003069D03*
X006492Y003069D03*
X006514Y003069D03*
X006528Y003069D03*
X006542Y003069D03*
X006563Y003069D03*
X006577Y003069D03*
X006627Y003069D03*
X006641Y003069D03*
X006655Y003069D03*
X006676Y003069D03*
X006691Y003069D03*
X006705Y003069D03*
X006436Y003211D03*
X006429Y003211D03*
X006414Y003211D03*
X006386Y003211D03*
X006379Y003211D03*
X006365Y003211D03*
X006322Y003218D03*
X006322Y003480D03*
X006337Y003480D03*
X006436Y003480D03*
X006563Y003686D03*
X006436Y003806D03*
X006429Y003806D03*
X006414Y003806D03*
X006386Y003806D03*
X006379Y003806D03*
X006365Y003806D03*
X006337Y003806D03*
X006322Y003806D03*
X006315Y003806D03*
X006287Y003806D03*
X006273Y003806D03*
X006259Y003806D03*
X006237Y003806D03*
X006223Y003806D03*
X006209Y003806D03*
X006315Y003955D03*
X006322Y003955D03*
X006337Y003955D03*
X006365Y003955D03*
X006464Y003955D03*
X006478Y003955D03*
X006492Y003962D03*
X006492Y004181D03*
X006436Y004330D03*
X006322Y004195D03*
X006287Y004195D03*
X006315Y004585D03*
X006322Y004585D03*
X006464Y004585D03*
X006514Y004705D03*
X006528Y004705D03*
X006542Y004698D03*
X006577Y004691D03*
X006606Y004684D03*
X006627Y004677D03*
X006655Y004670D03*
X006676Y004663D03*
X006705Y004656D03*
X006492Y004712D03*
X006478Y004719D03*
X006464Y004719D03*
X006436Y004726D03*
X006414Y004734D03*
X006386Y004741D03*
X006386Y004847D03*
X006414Y004854D03*
X006379Y005116D03*
X006429Y005130D03*
X006478Y005144D03*
X006528Y005158D03*
X006436Y005491D03*
X006429Y005491D03*
X006414Y005491D03*
X006386Y005491D03*
X006379Y005491D03*
X006365Y005491D03*
X006337Y005491D03*
X006322Y005491D03*
X006315Y005491D03*
X006287Y005491D03*
X006273Y005491D03*
X006259Y005491D03*
X006237Y005491D03*
X006223Y005491D03*
X006209Y005491D03*
X006436Y005739D03*
X006436Y005888D03*
X006429Y005888D03*
X006414Y005888D03*
X006386Y005888D03*
X006379Y005888D03*
X006365Y005888D03*
X006337Y005888D03*
X006322Y005888D03*
X006315Y005888D03*
X006287Y005888D03*
X006273Y005888D03*
X006259Y005888D03*
X006237Y005888D03*
X006223Y005888D03*
X006209Y005888D03*
X006209Y006036D03*
X006223Y006036D03*
X006237Y006036D03*
X006259Y006036D03*
X006273Y006036D03*
X006287Y006036D03*
X006315Y006036D03*
X006322Y006036D03*
X006337Y006036D03*
X006365Y006036D03*
X006379Y006036D03*
X006386Y006036D03*
X006414Y006036D03*
X006429Y006036D03*
X006436Y006036D03*
X006464Y006036D03*
X006478Y006036D03*
X006492Y006036D03*
X006514Y006036D03*
X006528Y006036D03*
X006542Y006036D03*
X006542Y005888D03*
X006528Y005888D03*
X006514Y005888D03*
X006492Y005888D03*
X006478Y005888D03*
X006464Y005888D03*
X006563Y005888D03*
X006577Y005888D03*
X006627Y005888D03*
X006641Y005888D03*
X006655Y005888D03*
X006676Y005888D03*
X006691Y005888D03*
X006705Y005888D03*
X006542Y006440D03*
X006528Y006440D03*
X006514Y006440D03*
X006492Y006440D03*
X006478Y006440D03*
X006464Y006440D03*
X006436Y006440D03*
X006429Y006440D03*
X006414Y006440D03*
X006386Y006440D03*
X006379Y006440D03*
X006365Y006440D03*
X006337Y006440D03*
X006322Y006440D03*
X006315Y006440D03*
X006287Y006440D03*
X006273Y006440D03*
X006259Y006440D03*
X006237Y006440D03*
X006223Y006440D03*
X006209Y006440D03*
D32*
X006209Y006238D03*
X006464Y005735D03*
X006464Y005495D03*
X006478Y005495D03*
X006563Y005169D03*
X006577Y005169D03*
X006592Y005176D03*
X006641Y005190D03*
X006676Y005197D03*
X006705Y005204D03*
X006542Y005162D03*
X006514Y005155D03*
X006492Y005148D03*
X006464Y005141D03*
X006414Y005126D03*
X006386Y005119D03*
X006209Y005070D03*
X006563Y004695D03*
X006613Y004680D03*
X006641Y004673D03*
X006691Y004659D03*
X006492Y004567D03*
X006478Y004574D03*
X006287Y004567D03*
X006287Y004341D03*
X006273Y004192D03*
X006273Y003625D03*
X006287Y003625D03*
X006259Y003625D03*
X006237Y003625D03*
X006223Y003625D03*
X006209Y003625D03*
X006315Y003477D03*
X006464Y003477D03*
X006478Y003229D03*
X006464Y003222D03*
X006315Y003222D03*
D33*
X006365Y003484D03*
X006379Y003484D03*
X006386Y003484D03*
X006414Y003484D03*
X006429Y003484D03*
X006528Y003484D03*
X006542Y003484D03*
X006563Y003484D03*
X006577Y003484D03*
X006592Y003484D03*
X006606Y003484D03*
X006613Y003484D03*
X006627Y003484D03*
X006641Y003484D03*
X006655Y003484D03*
X006676Y003484D03*
X006691Y003484D03*
X006705Y003484D03*
X006577Y003809D03*
X006563Y003809D03*
X006542Y003809D03*
X006237Y003484D03*
X006223Y003484D03*
X006209Y003484D03*
X006337Y004192D03*
X006478Y004185D03*
X006464Y004333D03*
X006478Y004341D03*
X006429Y004326D03*
X006337Y004588D03*
X006379Y004744D03*
X006429Y004730D03*
X006379Y004843D03*
X006429Y004857D03*
X006436Y004857D03*
X006464Y004864D03*
X006478Y004872D03*
X006492Y004872D03*
X006514Y004879D03*
X006528Y004879D03*
X006492Y004992D03*
X006478Y004992D03*
X006464Y004999D03*
X006429Y005006D03*
X006429Y005346D03*
X006436Y005346D03*
X006414Y005346D03*
X006386Y005346D03*
X006379Y005346D03*
X006365Y005346D03*
X006337Y005346D03*
X006322Y005346D03*
X006315Y005346D03*
X006287Y005346D03*
X006273Y005346D03*
X006259Y005346D03*
X006237Y005346D03*
X006223Y005346D03*
X006209Y005346D03*
X006464Y005346D03*
X006478Y005346D03*
X006492Y005346D03*
X006514Y005346D03*
X006528Y005346D03*
X006542Y005346D03*
X006563Y005346D03*
X006577Y005346D03*
X006627Y005346D03*
X006641Y005346D03*
X006655Y005346D03*
X006676Y005346D03*
X006691Y005346D03*
X006705Y005346D03*
X006577Y005743D03*
X006563Y005743D03*
X006542Y005743D03*
X006528Y005743D03*
X006429Y005743D03*
X006414Y005743D03*
X006386Y005743D03*
X006379Y005743D03*
X006365Y005743D03*
X006337Y005743D03*
X006322Y005743D03*
X006315Y005743D03*
X006287Y005743D03*
X006273Y005743D03*
X006259Y005743D03*
X006237Y005743D03*
X006223Y005743D03*
X006209Y005743D03*
X006478Y006153D03*
X006528Y006139D03*
X006492Y006323D03*
X006478Y006323D03*
X006514Y006330D03*
X006528Y006337D03*
X006542Y006337D03*
X006436Y006309D03*
X006429Y006309D03*
X006379Y006295D03*
D34*
X006478Y005732D03*
X006492Y005505D03*
X006655Y005194D03*
X006691Y005201D03*
X006223Y005066D03*
X006223Y004797D03*
X006209Y004797D03*
X006436Y003962D03*
X006478Y003473D03*
X006287Y002907D03*
X006322Y002878D03*
X006464Y002751D03*
D35*
X006223Y003321D03*
X006386Y004107D03*
X006209Y004454D03*
X006365Y004794D03*
X006365Y005070D03*
X006563Y006082D03*
X006563Y006394D03*
X006577Y006394D03*
D36*
X006627Y006401D03*
X006641Y006401D03*
X006322Y006238D03*
X006315Y006238D03*
X006337Y005070D03*
X006209Y004121D03*
D37*
X006315Y004199D03*
X006379Y003951D03*
X006386Y003951D03*
X006223Y003951D03*
X006209Y003951D03*
X006577Y003314D03*
X006528Y004985D03*
X006514Y004985D03*
X006464Y006316D03*
D38*
X006287Y006238D03*
X006273Y006238D03*
X006287Y005070D03*
X006287Y004794D03*
X006273Y003455D03*
X006209Y003321D03*
X006563Y003314D03*
D39*
X006259Y003363D03*
X006259Y002818D03*
X006237Y002818D03*
X006223Y002818D03*
X006209Y002818D03*
X006514Y005622D03*
D40*
X006216Y006238D03*
X006507Y004362D03*
X006507Y003972D03*
X006308Y002889D03*
X006358Y002846D03*
X006457Y002754D03*
X006485Y002733D03*
D41*
X006216Y004457D03*
D42*
X006216Y004121D03*
X006358Y004794D03*
X006535Y004928D03*
X006556Y006082D03*
X006584Y006394D03*
D43*
X006457Y006316D03*
X006811Y006167D03*
X006507Y004985D03*
X006308Y004199D03*
X006294Y004199D03*
X006216Y003951D03*
D44*
X006216Y003321D03*
X006556Y003314D03*
X006344Y004794D03*
X006556Y005573D03*
D45*
X006237Y005070D03*
X006287Y003965D03*
X006287Y003236D03*
X006492Y003236D03*
X006315Y002882D03*
X006365Y002839D03*
X006414Y002797D03*
X006429Y002783D03*
X006478Y002740D03*
X006223Y006238D03*
D46*
X006223Y004454D03*
X006528Y003314D03*
D47*
X006223Y004121D03*
D48*
X006280Y004195D03*
X006330Y004195D03*
X006471Y004337D03*
X006471Y004578D03*
X006330Y004585D03*
X006422Y004734D03*
X006471Y004719D03*
X006521Y004705D03*
X006570Y004691D03*
X006599Y004684D03*
X006620Y004677D03*
X006648Y004670D03*
X006471Y005144D03*
X006422Y005130D03*
X006422Y005491D03*
X006372Y005491D03*
X006330Y005491D03*
X006280Y005491D03*
X006230Y005491D03*
X006230Y005888D03*
X006280Y005888D03*
X006330Y005888D03*
X006372Y005888D03*
X006422Y005888D03*
X006471Y005888D03*
X006521Y005888D03*
X006570Y005888D03*
X006648Y005888D03*
X006698Y005888D03*
X006521Y006036D03*
X006471Y006036D03*
X006422Y006036D03*
X006372Y006036D03*
X006330Y006036D03*
X006280Y006036D03*
X006230Y006036D03*
X006230Y006440D03*
X006280Y006440D03*
X006330Y006440D03*
X006372Y006440D03*
X006422Y006440D03*
X006471Y006440D03*
X006521Y006440D03*
X006471Y003955D03*
X006330Y003955D03*
X006330Y003806D03*
X006372Y003806D03*
X006422Y003806D03*
X006280Y003806D03*
X006230Y003806D03*
X006330Y003480D03*
X006330Y003218D03*
X006372Y003211D03*
X006422Y003211D03*
X006422Y003069D03*
X006471Y003069D03*
X006521Y003069D03*
X006570Y003069D03*
X006648Y003069D03*
X006698Y003069D03*
X006372Y003069D03*
X006330Y003069D03*
X006280Y003069D03*
X006230Y003069D03*
D49*
X006280Y003243D03*
X006372Y002832D03*
X006422Y002790D03*
X006230Y006238D03*
D50*
X006372Y006295D03*
X006422Y006309D03*
X006471Y006323D03*
X006521Y006330D03*
X006471Y006153D03*
X006422Y005743D03*
X006372Y005743D03*
X006330Y005743D03*
X006280Y005743D03*
X006230Y005743D03*
X006521Y005743D03*
X006570Y005743D03*
X006889Y006033D03*
X006889Y006302D03*
X006889Y006436D03*
X006698Y005346D03*
X006648Y005346D03*
X006570Y005346D03*
X006521Y005346D03*
X006471Y005346D03*
X006422Y005346D03*
X006372Y005346D03*
X006330Y005346D03*
X006280Y005346D03*
X006230Y005346D03*
X006422Y005006D03*
X006521Y004879D03*
X006471Y004864D03*
X006422Y004857D03*
X006471Y004185D03*
X006570Y003809D03*
X006570Y003682D03*
X006570Y003484D03*
X006599Y003484D03*
X006620Y003484D03*
X006648Y003484D03*
X006698Y003484D03*
X006422Y003484D03*
X006372Y003484D03*
X006230Y003484D03*
D51*
X006471Y003473D03*
X006471Y002744D03*
X006280Y004564D03*
X006230Y005066D03*
D52*
X006230Y004794D03*
X006471Y003795D03*
D53*
X006230Y004457D03*
D54*
X006230Y004121D03*
D55*
X006230Y003951D03*
X006372Y003951D03*
X006521Y004985D03*
X006422Y006167D03*
X006889Y006167D03*
D56*
X006471Y005735D03*
X006471Y005495D03*
X006570Y005169D03*
X006599Y005176D03*
X006648Y005190D03*
X006698Y005204D03*
X006521Y005155D03*
X006698Y004659D03*
X006280Y003625D03*
X006230Y003625D03*
X006471Y003222D03*
D57*
X006230Y003317D03*
D58*
X006521Y003363D03*
X006230Y002818D03*
D59*
X006429Y003972D03*
X006259Y006238D03*
X006237Y006238D03*
D60*
X006492Y005725D03*
X006676Y004932D03*
X006237Y004797D03*
X006365Y004160D03*
X006287Y003466D03*
X006492Y003466D03*
D61*
X006542Y004068D03*
X006237Y004457D03*
D62*
X006237Y004068D03*
D63*
X006237Y003317D03*
D64*
X006245Y006238D03*
D65*
X006245Y005066D03*
D66*
X006245Y004797D03*
X006662Y004932D03*
X006684Y004932D03*
D67*
X006245Y004457D03*
X006535Y004068D03*
D68*
X006245Y004071D03*
D69*
X006556Y004457D03*
X006245Y003317D03*
D70*
X006252Y006238D03*
D71*
X006252Y005066D03*
X006499Y003246D03*
D72*
X006252Y004454D03*
D73*
X006252Y004071D03*
D74*
X006478Y003788D03*
X006273Y003250D03*
X006259Y004794D03*
X006259Y005070D03*
D75*
X006259Y004457D03*
D76*
X006259Y004075D03*
D77*
X006485Y003781D03*
X006294Y005070D03*
X006712Y006061D03*
X006266Y006238D03*
D78*
X006266Y005070D03*
D79*
X006266Y004797D03*
X006634Y004932D03*
D80*
X006266Y004457D03*
D81*
X006294Y004797D03*
X006266Y003983D03*
X006684Y006065D03*
X006712Y006412D03*
D82*
X006507Y005619D03*
X006266Y003360D03*
D83*
X006577Y004068D03*
X006273Y004797D03*
X006273Y005066D03*
X006641Y004932D03*
X006655Y004932D03*
D84*
X006691Y004935D03*
X006273Y004553D03*
X006273Y004355D03*
X006542Y003696D03*
X006379Y002825D03*
X006386Y002818D03*
X006436Y002776D03*
X006492Y002726D03*
D85*
X006273Y003976D03*
D86*
X006273Y002815D03*
D87*
X006280Y004794D03*
X006280Y006238D03*
D88*
X006280Y005066D03*
X006648Y004932D03*
D89*
X006620Y005183D03*
X006280Y004348D03*
D90*
X006280Y003969D03*
D91*
X006280Y003462D03*
X006570Y003314D03*
X006570Y005573D03*
D92*
X006698Y004932D03*
X006280Y002914D03*
X006330Y002871D03*
D93*
X006308Y006238D03*
X006294Y006238D03*
D94*
X006301Y006238D03*
D95*
X006301Y005066D03*
X006301Y004797D03*
D96*
X006499Y004564D03*
X006549Y003693D03*
X006301Y003473D03*
X006351Y002850D03*
X006400Y002807D03*
D97*
X006301Y002896D03*
X006499Y005509D03*
D98*
X006308Y005070D03*
X006308Y004794D03*
X006662Y006068D03*
X006684Y006408D03*
D99*
X006691Y006408D03*
X006676Y006408D03*
X006676Y006068D03*
X006655Y006068D03*
X006563Y005573D03*
X006322Y005070D03*
X006315Y005070D03*
X006315Y004794D03*
X006322Y004794D03*
D100*
X006471Y004995D03*
X006521Y006143D03*
X006372Y006178D03*
X006330Y006192D03*
X006330Y006284D03*
D101*
X006330Y005066D03*
D102*
X006330Y004794D03*
X006422Y003994D03*
X006599Y006075D03*
X006620Y006075D03*
D103*
X006542Y006136D03*
X006514Y006143D03*
X006492Y006150D03*
X006464Y006157D03*
X006386Y006178D03*
X006379Y006178D03*
X006365Y006185D03*
X006337Y006284D03*
X006365Y006291D03*
X006386Y006298D03*
X006414Y006305D03*
X006804Y006298D03*
X006804Y006433D03*
X006804Y006029D03*
X006436Y005003D03*
X006414Y005010D03*
X006386Y005017D03*
X006379Y005017D03*
X006464Y004188D03*
D104*
X006577Y003675D03*
X006896Y006033D03*
X006903Y006033D03*
X006903Y006302D03*
X006896Y006302D03*
X006896Y006436D03*
X006903Y006436D03*
X006337Y006189D03*
D105*
X006606Y006075D03*
X006613Y006075D03*
X006563Y004928D03*
X006337Y004794D03*
D106*
X006592Y004687D03*
X006492Y004348D03*
X006436Y005134D03*
X006613Y005183D03*
X006627Y005183D03*
X006577Y005573D03*
X006337Y003215D03*
D107*
X006337Y002864D03*
X006464Y003799D03*
X006705Y004932D03*
X006606Y005180D03*
D108*
X006443Y005003D03*
X006407Y005010D03*
X006485Y006150D03*
X006457Y006157D03*
X006358Y006185D03*
X006344Y006185D03*
X006358Y006291D03*
D109*
X006634Y006401D03*
X006344Y005070D03*
D110*
X006400Y005010D03*
X006351Y006185D03*
D111*
X006351Y005070D03*
D112*
X006351Y004794D03*
D113*
X006351Y004592D03*
D114*
X006358Y005073D03*
X006584Y006079D03*
D115*
X006358Y004592D03*
D116*
X006365Y004457D03*
X006379Y004457D03*
X006386Y004457D03*
D117*
X006372Y004794D03*
X006372Y005070D03*
X006570Y006394D03*
D118*
X006372Y004457D03*
D119*
X006372Y004142D03*
X006698Y006408D03*
D120*
X006613Y006398D03*
X006606Y006398D03*
X006592Y006398D03*
X006592Y006079D03*
X006577Y006079D03*
X006379Y004125D03*
D121*
X006393Y004457D03*
D122*
X006393Y004050D03*
D123*
X006457Y003799D03*
X006393Y002815D03*
X006712Y004932D03*
X006634Y005187D03*
D124*
X006499Y004988D03*
X006400Y006171D03*
D125*
X006400Y004457D03*
D126*
X006400Y004043D03*
D127*
X006407Y004461D03*
D128*
X006407Y004032D03*
D129*
X006429Y006164D03*
X006436Y006164D03*
X006414Y006171D03*
X006804Y006164D03*
D130*
X006414Y004461D03*
D131*
X006414Y004015D03*
D132*
X006422Y004461D03*
D133*
X006429Y004592D03*
X006436Y004592D03*
D134*
X006584Y004687D03*
X006443Y005134D03*
X006443Y003802D03*
X006443Y003215D03*
D135*
X006450Y003802D03*
D136*
X006450Y002761D03*
D137*
X006492Y003746D03*
X006514Y003746D03*
X006528Y003746D03*
D138*
X006499Y003459D03*
X006499Y005718D03*
D139*
X006499Y003746D03*
D140*
X006499Y002815D03*
X006549Y002815D03*
D141*
X006535Y003314D03*
X006507Y003746D03*
X006535Y005573D03*
D142*
X006507Y003356D03*
D143*
X006507Y002815D03*
X006535Y002815D03*
X006556Y002815D03*
D144*
X006514Y004071D03*
X006514Y004461D03*
D145*
X006514Y003360D03*
D146*
X006514Y002815D03*
X006528Y002815D03*
X006542Y002815D03*
X006563Y002815D03*
X006577Y002815D03*
D147*
X006521Y005573D03*
D148*
X006521Y004457D03*
X006521Y004068D03*
D149*
X006521Y003746D03*
D150*
X006521Y002815D03*
X006570Y002815D03*
D151*
X006528Y005576D03*
D152*
X006528Y004457D03*
D153*
X006528Y004071D03*
D154*
X006535Y004457D03*
D155*
X006542Y005573D03*
X006542Y003314D03*
D156*
X006542Y004932D03*
D157*
X006542Y004457D03*
D158*
X006549Y006390D03*
D159*
X006549Y006082D03*
X006549Y005573D03*
D160*
X006549Y004932D03*
D161*
X006549Y004457D03*
D162*
X006549Y004068D03*
D163*
X006549Y003314D03*
D164*
X006556Y006390D03*
D165*
X006556Y004932D03*
D166*
X006556Y004071D03*
D167*
X006563Y004068D03*
X006563Y004457D03*
D168*
X006570Y004457D03*
X006570Y004068D03*
X006570Y006079D03*
X006599Y006398D03*
D169*
X006648Y006405D03*
X006648Y006072D03*
X006570Y004932D03*
D170*
X006577Y004932D03*
X006592Y004932D03*
X006627Y006072D03*
X006641Y006072D03*
X006655Y006405D03*
D171*
X006705Y006412D03*
X006705Y006065D03*
X006691Y006065D03*
X006627Y004932D03*
X006613Y004932D03*
X006606Y004932D03*
X006577Y004457D03*
D172*
X006584Y005573D03*
D173*
X006634Y006072D03*
X006662Y006405D03*
X006584Y004932D03*
D174*
X006584Y004068D03*
X006861Y005987D03*
X006924Y006029D03*
X006875Y006065D03*
X006861Y006072D03*
X006825Y006065D03*
X006776Y006029D03*
X006861Y006121D03*
X006875Y006128D03*
X006924Y006164D03*
X006875Y006199D03*
X006861Y006206D03*
X006825Y006199D03*
X006776Y006164D03*
X006861Y006256D03*
X006875Y006263D03*
X006924Y006298D03*
X006875Y006334D03*
X006825Y006334D03*
X006776Y006298D03*
X006776Y006433D03*
X006825Y006468D03*
X006875Y006468D03*
X006924Y006433D03*
X006875Y006398D03*
D175*
X006910Y006302D03*
X006910Y006167D03*
X006910Y006033D03*
X006584Y003668D03*
D176*
X006584Y003317D03*
D177*
X006592Y004454D03*
X006931Y006033D03*
X006931Y006167D03*
X006931Y006302D03*
D178*
X006698Y006065D03*
X006620Y004932D03*
X006599Y004932D03*
D179*
X006620Y006401D03*
D180*
X006669Y006405D03*
D181*
X006769Y006433D03*
X006769Y006298D03*
D182*
X006769Y006164D03*
X006769Y006029D03*
D183*
X006790Y006029D03*
X006790Y006164D03*
X006790Y006298D03*
X006790Y006433D03*
D184*
X006797Y006433D03*
X006797Y006298D03*
X006797Y006164D03*
X006797Y006029D03*
D185*
X006818Y006001D03*
X006818Y006058D03*
X006868Y006072D03*
X006917Y006029D03*
X006917Y006164D03*
X006868Y006206D03*
X006818Y006270D03*
X006818Y006327D03*
X006818Y006405D03*
X006818Y006461D03*
X006868Y006475D03*
X006917Y006433D03*
X006917Y006298D03*
X006818Y006136D03*
D186*
X006818Y006192D03*
X006868Y006341D03*
D187*
X006825Y006401D03*
X006861Y006479D03*
X006825Y006267D03*
X006825Y006132D03*
X006825Y005997D03*
D188*
X006832Y005990D03*
X006882Y006061D03*
X006832Y006125D03*
X006882Y006196D03*
X006832Y006259D03*
X006882Y006330D03*
X006832Y006394D03*
X006882Y006465D03*
D189*
X006839Y006390D03*
X006839Y006341D03*
X006832Y006341D03*
D190*
X006861Y006341D03*
X006861Y006390D03*
X006875Y005994D03*
D191*
X006868Y005990D03*
X006868Y006394D03*
D192*
X006868Y006259D03*
X006868Y006125D03*
D193*
X006896Y006167D03*
X006903Y006167D03*
D194*
X006910Y006436D03*
D195*
X007334Y006807D02*
X007834Y006807D01*
X007834Y005707D01*
X007334Y005707D01*
X007334Y006807D01*
X005830Y005547D02*
X005830Y004366D01*
X004649Y004366D01*
X004649Y005336D01*
X004860Y005547D01*
X005830Y005547D01*
X003456Y005204D02*
X003456Y004104D01*
X002956Y004104D01*
X002956Y005204D01*
X003456Y005204D01*
X002904Y005201D02*
X002404Y005201D01*
X002404Y004101D01*
X002904Y004101D01*
X002904Y005201D01*
D196*
X004490Y005707D03*
D197*
X002879Y003228D03*
X002829Y002573D03*
X007358Y002289D03*
M02*
