G75*
%MOIN*%
%OFA0B0*%
%FSLAX24Y24*%
%IPPOS*%
%LPD*%
%AMOC8*
5,1,8,0,0,1.08239X$1,22.5*
%
%ADD10C,0.0020*%
%ADD11C,0.0040*%
D10*
X003905Y002907D02*
X003942Y002944D01*
X004015Y002944D01*
X004052Y002980D01*
X004015Y003017D01*
X003905Y003017D01*
X003905Y002907D02*
X003942Y002870D01*
X004052Y002870D01*
X004126Y002907D02*
X004163Y002944D01*
X004236Y002944D01*
X004273Y002980D01*
X004236Y003017D01*
X004126Y003017D01*
X004126Y002907D02*
X004163Y002870D01*
X004273Y002870D01*
X004347Y002944D02*
X004494Y002944D01*
X004494Y002980D02*
X004457Y003017D01*
X004384Y003017D01*
X004347Y002980D01*
X004347Y002944D01*
X004384Y002870D02*
X004457Y002870D01*
X004494Y002907D01*
X004494Y002980D01*
X004568Y003017D02*
X004605Y003017D01*
X004678Y002944D01*
X004678Y003017D02*
X004678Y002870D01*
X004752Y002870D02*
X004862Y002870D01*
X004899Y002907D01*
X004899Y002980D01*
X004862Y003017D01*
X004752Y003017D01*
X004752Y003091D02*
X004752Y002870D01*
X004973Y002870D02*
X004973Y003091D01*
X004973Y003017D02*
X005083Y003017D01*
X005120Y002980D01*
X005120Y002907D01*
X005083Y002870D01*
X004973Y002870D01*
X005069Y002782D02*
X005032Y002745D01*
X005032Y002672D01*
X005069Y002635D01*
X005215Y002782D01*
X005069Y002782D01*
X005069Y002635D02*
X005215Y002635D01*
X005252Y002672D01*
X005252Y002745D01*
X005215Y002782D01*
X005194Y002870D02*
X005194Y003017D01*
X005267Y003091D01*
X005341Y003017D01*
X005341Y002870D01*
X005341Y002980D02*
X005194Y002980D01*
X005215Y002561D02*
X005069Y002561D01*
X005032Y002524D01*
X005032Y002414D01*
X005252Y002414D01*
X005252Y002524D01*
X005215Y002561D01*
X005179Y002340D02*
X005032Y002340D01*
X005142Y002340D02*
X005142Y002193D01*
X005179Y002193D02*
X005252Y002266D01*
X005179Y002340D01*
X005179Y002193D02*
X005032Y002193D01*
X004601Y002177D02*
X004564Y002140D01*
X004417Y002140D01*
X004381Y002177D01*
X004381Y002250D01*
X004417Y002287D01*
X004564Y002287D02*
X004601Y002250D01*
X004601Y002177D01*
X004564Y002066D02*
X004601Y002029D01*
X004601Y001956D01*
X004564Y001919D01*
X004417Y001919D01*
X004381Y001956D01*
X004381Y002029D01*
X004417Y002066D01*
X004454Y001845D02*
X004601Y001845D01*
X004601Y001698D02*
X004454Y001698D01*
X004381Y001771D01*
X004454Y001845D01*
X005636Y002907D02*
X005673Y002870D01*
X005746Y002870D01*
X005783Y002907D01*
X005783Y003054D01*
X005746Y003091D01*
X005673Y003091D01*
X005636Y003054D01*
X005857Y003054D02*
X005894Y003091D01*
X005967Y003091D01*
X006004Y003054D01*
X006078Y003091D02*
X006151Y003091D01*
X006114Y003091D02*
X006114Y002870D01*
X006078Y002870D02*
X006151Y002870D01*
X006004Y002870D02*
X005857Y003017D01*
X005857Y003054D01*
X005857Y002870D02*
X006004Y002870D01*
X005957Y002310D02*
X005810Y002310D01*
X005773Y002273D01*
X005773Y002163D01*
X005993Y002163D01*
X005993Y002273D01*
X005957Y002310D01*
X005993Y002089D02*
X005773Y002089D01*
X005993Y001942D01*
X005773Y001942D01*
X005810Y001868D02*
X005883Y001868D01*
X005883Y001794D01*
X005810Y001721D02*
X005773Y001758D01*
X005773Y001831D01*
X005810Y001868D01*
X005810Y001721D02*
X005957Y001721D01*
X005993Y001758D01*
X005993Y001831D01*
X005957Y001868D01*
X003341Y004477D02*
X003341Y004698D01*
X003230Y004698D01*
X003194Y004661D01*
X003194Y004587D01*
X003230Y004551D01*
X003341Y004551D01*
X003415Y004551D02*
X003415Y004698D01*
X003562Y004698D02*
X003562Y004587D01*
X003525Y004551D01*
X003415Y004551D01*
X003636Y004551D02*
X003709Y004551D01*
X003672Y004551D02*
X003672Y004771D01*
X003709Y004771D01*
X003820Y004771D02*
X003820Y004551D01*
X003856Y004551D02*
X003783Y004551D01*
X003930Y004551D02*
X003930Y004698D01*
X003856Y004771D02*
X003820Y004771D01*
X003930Y004551D02*
X004041Y004551D01*
X004077Y004587D01*
X004077Y004698D01*
X004151Y004734D02*
X004151Y004661D01*
X004188Y004624D01*
X004298Y004624D01*
X004298Y004551D02*
X004298Y004771D01*
X004188Y004771D01*
X004151Y004734D01*
X004593Y004734D02*
X004630Y004771D01*
X004703Y004771D01*
X004740Y004734D01*
X004740Y004587D01*
X004703Y004551D01*
X004630Y004551D01*
X004593Y004587D01*
X004814Y004551D02*
X004961Y004551D01*
X004814Y004698D01*
X004814Y004734D01*
X004851Y004771D01*
X004924Y004771D01*
X004961Y004734D01*
X005035Y004771D02*
X005108Y004771D01*
X005072Y004771D02*
X005072Y004551D01*
X005108Y004551D02*
X005035Y004551D01*
X005004Y006085D02*
X004857Y006085D01*
X004783Y006085D02*
X004783Y006232D01*
X004673Y006232D01*
X004636Y006195D01*
X004636Y006085D01*
X004562Y006122D02*
X004525Y006158D01*
X004415Y006158D01*
X004415Y006195D02*
X004415Y006085D01*
X004525Y006085D01*
X004562Y006122D01*
X004525Y006232D02*
X004452Y006232D01*
X004415Y006195D01*
X004341Y006232D02*
X004231Y006232D01*
X004194Y006195D01*
X004194Y006122D01*
X004231Y006085D01*
X004341Y006085D01*
X004341Y006305D01*
X004120Y006305D02*
X004083Y006305D01*
X004083Y006085D01*
X004047Y006085D02*
X004120Y006085D01*
X003973Y006122D02*
X003973Y006195D01*
X003936Y006232D01*
X003863Y006232D01*
X003826Y006195D01*
X003826Y006158D01*
X003973Y006158D01*
X003973Y006122D02*
X003936Y006085D01*
X003863Y006085D01*
X003206Y006105D02*
X003059Y006105D01*
X002986Y006178D01*
X003059Y006251D01*
X003206Y006251D01*
X003169Y006326D02*
X003022Y006326D01*
X002986Y006362D01*
X002986Y006436D01*
X003022Y006472D01*
X003022Y006547D02*
X002986Y006583D01*
X002986Y006657D01*
X003022Y006693D01*
X003169Y006693D02*
X003206Y006657D01*
X003206Y006583D01*
X003169Y006547D01*
X003022Y006547D01*
X003169Y006472D02*
X003206Y006436D01*
X003206Y006362D01*
X003169Y006326D01*
X002699Y005867D02*
X002736Y005831D01*
X002736Y005757D01*
X002699Y005721D01*
X002552Y005721D01*
X002515Y005757D01*
X002515Y005831D01*
X002552Y005867D01*
X002552Y005646D02*
X002515Y005610D01*
X002515Y005536D01*
X002552Y005500D01*
X002699Y005500D01*
X002736Y005536D01*
X002736Y005610D01*
X002699Y005646D01*
X002736Y005425D02*
X002589Y005425D01*
X002515Y005352D01*
X002589Y005279D01*
X002736Y005279D01*
X002973Y004698D02*
X003083Y004698D01*
X003120Y004661D01*
X003083Y004624D01*
X003010Y004624D01*
X002973Y004587D01*
X003010Y004551D01*
X003120Y004551D01*
X005004Y006085D02*
X005004Y006305D01*
X004857Y006305D01*
X004931Y006195D02*
X005004Y006195D01*
X005299Y006122D02*
X005336Y006085D01*
X005409Y006085D01*
X005446Y006122D01*
X005446Y006269D01*
X005409Y006305D01*
X005336Y006305D01*
X005299Y006269D01*
X005520Y006269D02*
X005557Y006305D01*
X005630Y006305D01*
X005667Y006269D01*
X005741Y006305D02*
X005814Y006305D01*
X005778Y006305D02*
X005778Y006085D01*
X005814Y006085D02*
X005741Y006085D01*
X005667Y006085D02*
X005520Y006232D01*
X005520Y006269D01*
X005520Y006085D02*
X005667Y006085D01*
D11*
X002234Y001827D02*
X002234Y001693D01*
X002435Y001693D01*
X002435Y001914D02*
X002234Y001914D01*
X002301Y001914D02*
X002301Y002014D01*
X002334Y002048D01*
X002401Y002048D01*
X002435Y002014D01*
X002435Y001914D01*
X002435Y002135D02*
X002234Y002135D01*
X002301Y002202D01*
X002234Y002269D01*
X002435Y002269D01*
X002393Y002741D02*
X002360Y002741D01*
X002327Y002774D01*
X002327Y002841D01*
X002293Y002874D01*
X002260Y002874D01*
X002226Y002841D01*
X002226Y002774D01*
X002260Y002741D01*
X002393Y002741D02*
X002427Y002774D01*
X002427Y002841D01*
X002393Y002874D01*
X002393Y002962D02*
X002260Y002962D01*
X002226Y002995D01*
X002226Y003062D01*
X002260Y003095D01*
X002226Y003183D02*
X002226Y003316D01*
X002226Y003183D02*
X002427Y003183D01*
X002393Y003095D02*
X002427Y003062D01*
X002427Y002995D01*
X002393Y002962D01*
X002401Y003701D02*
X002368Y003701D01*
X002334Y003735D01*
X002334Y003801D01*
X002301Y003835D01*
X002268Y003835D01*
X002234Y003801D01*
X002234Y003735D01*
X002268Y003701D01*
X002401Y003701D02*
X002435Y003735D01*
X002435Y003801D01*
X002401Y003835D01*
X002435Y003922D02*
X002234Y003922D01*
X002234Y004022D01*
X002268Y004056D01*
X002401Y004056D01*
X002435Y004022D01*
X002435Y003922D01*
X002368Y004143D02*
X002234Y004143D01*
X002334Y004143D02*
X002334Y004277D01*
X002368Y004277D02*
X002234Y004277D01*
X002368Y004277D02*
X002435Y004210D01*
X002368Y004143D01*
X002401Y004646D02*
X002268Y004646D01*
X002234Y004680D01*
X002234Y004746D01*
X002268Y004780D01*
X002334Y004780D01*
X002334Y004713D01*
X002401Y004780D02*
X002435Y004746D01*
X002435Y004680D01*
X002401Y004646D01*
X002435Y004867D02*
X002234Y004867D01*
X002234Y005001D02*
X002435Y004867D01*
X002435Y005001D02*
X002234Y005001D01*
X002234Y005088D02*
X002234Y005188D01*
X002268Y005222D01*
X002401Y005222D01*
X002435Y005188D01*
X002435Y005088D01*
X002234Y005088D01*
X002297Y005715D02*
X002231Y005782D01*
X002297Y005849D01*
X002431Y005849D01*
X002397Y005936D02*
X002264Y005936D01*
X002231Y005970D01*
X002231Y006037D01*
X002264Y006070D01*
X002264Y006157D02*
X002231Y006191D01*
X002231Y006258D01*
X002264Y006291D01*
X002397Y006291D02*
X002431Y006258D01*
X002431Y006191D01*
X002397Y006157D01*
X002264Y006157D01*
X002397Y006070D02*
X002431Y006037D01*
X002431Y005970D01*
X002397Y005936D01*
X002431Y005715D02*
X002297Y005715D01*
X002254Y006662D02*
X002254Y006762D01*
X002288Y006796D01*
X002321Y006796D01*
X002354Y006762D01*
X002354Y006662D01*
X002254Y006662D02*
X002454Y006662D01*
X002454Y006762D01*
X002421Y006796D01*
X002388Y006796D01*
X002354Y006762D01*
X002354Y006883D02*
X002354Y007017D01*
X002388Y007017D02*
X002254Y007017D01*
X002388Y007017D02*
X002454Y006950D01*
X002388Y006883D01*
X002254Y006883D01*
X002454Y007104D02*
X002454Y007238D01*
X002454Y007171D02*
X002254Y007171D01*
X007971Y007217D02*
X008104Y007217D01*
X008171Y007150D01*
X008104Y007084D01*
X007971Y007084D01*
X008004Y006996D02*
X007971Y006963D01*
X007971Y006863D01*
X008171Y006863D01*
X008171Y006963D01*
X008137Y006996D01*
X008104Y006996D01*
X008071Y006963D01*
X008071Y006863D01*
X008071Y006963D02*
X008037Y006996D01*
X008004Y006996D01*
X008071Y007084D02*
X008071Y007217D01*
X008171Y007305D02*
X008171Y007438D01*
X008171Y007371D02*
X007971Y007371D01*
X008067Y006288D02*
X008034Y006255D01*
X008034Y006188D01*
X008067Y006155D01*
X008200Y006155D01*
X008234Y006188D01*
X008234Y006255D01*
X008200Y006288D01*
X008200Y006068D02*
X008234Y006034D01*
X008234Y005967D01*
X008200Y005934D01*
X008067Y005934D01*
X008034Y005967D01*
X008034Y006034D01*
X008067Y006068D01*
X008100Y005847D02*
X008234Y005847D01*
X008100Y005847D02*
X008034Y005780D01*
X008100Y005713D01*
X008234Y005713D01*
X008161Y005304D02*
X008028Y005304D01*
X007994Y005271D01*
X007994Y005171D01*
X008194Y005171D01*
X008194Y005271D01*
X008161Y005304D01*
X008194Y005083D02*
X007994Y005083D01*
X008194Y004950D01*
X007994Y004950D01*
X008028Y004862D02*
X008094Y004862D01*
X008094Y004796D01*
X008028Y004862D02*
X007994Y004829D01*
X007994Y004762D01*
X008028Y004729D01*
X008161Y004729D01*
X008194Y004762D01*
X008194Y004829D01*
X008161Y004862D01*
X008167Y004320D02*
X008034Y004320D01*
X008134Y004320D02*
X008134Y004187D01*
X008167Y004187D02*
X008234Y004253D01*
X008167Y004320D01*
X008167Y004187D02*
X008034Y004187D01*
X008067Y004099D02*
X008200Y004099D01*
X008234Y004066D01*
X008234Y003966D01*
X008034Y003966D01*
X008034Y004066D01*
X008067Y004099D01*
X008067Y003878D02*
X008034Y003845D01*
X008034Y003778D01*
X008067Y003745D01*
X008134Y003778D02*
X008134Y003845D01*
X008100Y003878D01*
X008067Y003878D01*
X008134Y003778D02*
X008167Y003745D01*
X008200Y003745D01*
X008234Y003778D01*
X008234Y003845D01*
X008200Y003878D01*
X007994Y003375D02*
X007994Y003242D01*
X008194Y003242D01*
X008161Y003154D02*
X008194Y003121D01*
X008194Y003054D01*
X008161Y003021D01*
X008028Y003021D01*
X007994Y003054D01*
X007994Y003121D01*
X008028Y003154D01*
X008028Y002933D02*
X007994Y002900D01*
X007994Y002833D01*
X008028Y002800D01*
X008094Y002833D02*
X008094Y002900D01*
X008061Y002933D01*
X008028Y002933D01*
X008094Y002833D02*
X008128Y002800D01*
X008161Y002800D01*
X008194Y002833D01*
X008194Y002900D01*
X008161Y002933D01*
X008194Y002312D02*
X007994Y002312D01*
X008061Y002245D01*
X007994Y002179D01*
X008194Y002179D01*
X008161Y002091D02*
X008094Y002091D01*
X008061Y002058D01*
X008061Y001958D01*
X007994Y001958D02*
X008194Y001958D01*
X008194Y002058D01*
X008161Y002091D01*
X007994Y001870D02*
X007994Y001737D01*
X008194Y001737D01*
M02*
