%
M48
M72
T01C0.0200
T02C0.0236
T03C0.0400
%
T01
X3466Y7218
X3966Y7218
X4466Y7218
X4966Y7218
X5466Y7218
X5966Y7218
X6466Y7218
T02
X5533Y6712
X3777Y5797
X3285Y5758
X2641Y6052
X3691Y4991
X3138Y3762
X4043Y3508
X4679Y2647
X5152Y3338
X5797Y3382
X6782Y2693
X6111Y2491
X5447Y2467
X3675Y2517
X6794Y4143
X7808Y3756
X7579Y3012
X7945Y4569
X7810Y5495
T03
X1730Y2055
X1730Y3055
X1730Y4055
X1730Y5055
X1730Y6055
X1730Y7055
X8730Y7055
X8730Y6055
X8730Y5055
X8730Y4055
X8730Y3055
X8730Y2055
M30
