G75*
%MOIN*%
%OFA0B0*%
%FSLAX24Y24*%
%IPPOS*%
%LPD*%
%AMOC8*
5,1,8,0,0,1.08239X$1,22.5*
%
%ADD10C,0.0740*%
%ADD11C,0.0394*%
%ADD12C,0.0080*%
%ADD13R,0.0250X0.0400*%
%ADD14C,0.0120*%
%ADD15C,0.0376*%
%ADD16C,0.0100*%
D10*
X001730Y002055D03*
X001730Y003055D03*
X001730Y004055D03*
X001730Y005055D03*
X001730Y006055D03*
X001730Y007055D03*
X008730Y007055D03*
X008730Y006055D03*
X008730Y005055D03*
X008730Y004055D03*
X008730Y003055D03*
X008730Y002055D03*
D11*
X006466Y007218D03*
X005966Y007218D03*
X005466Y007218D03*
X004966Y007218D03*
X004466Y007218D03*
X003966Y007218D03*
X003466Y007218D03*
D12*
X003454Y006419D02*
X003754Y006419D01*
X002973Y005031D02*
X002673Y005031D01*
X005277Y001915D02*
X005577Y001915D01*
D13*
X005627Y001915D03*
X005227Y001915D03*
X004806Y001915D03*
X003023Y005031D03*
X002623Y005031D03*
X003404Y006419D03*
X003804Y006419D03*
D14*
X003404Y006419D02*
X002646Y006429D01*
X002641Y006052D01*
X002623Y005031D01*
X002555Y004581D02*
X002899Y004577D01*
X002555Y004581D02*
X002537Y002527D01*
X003675Y002517D01*
X004006Y002769D02*
X004011Y001755D01*
X002300Y001770D01*
X002745Y002938D02*
X003913Y002937D01*
X004734Y003177D01*
X005111Y002984D01*
X007579Y003012D01*
X007826Y003201D02*
X008002Y003201D01*
X008003Y003319D02*
X007642Y003319D01*
X007640Y003320D02*
X007546Y003320D01*
X007558Y003333D01*
X007557Y003434D01*
X007743Y004335D01*
X007771Y004307D01*
X007884Y004261D01*
X008007Y004261D01*
X008120Y004307D01*
X008207Y004394D01*
X008254Y004507D01*
X008254Y004630D01*
X008207Y004743D01*
X008202Y004747D01*
X008240Y004850D01*
X008277Y004777D01*
X008326Y004710D01*
X008385Y004651D01*
X008452Y004602D01*
X008527Y004564D01*
X008606Y004538D01*
X008613Y004537D01*
X008453Y004471D01*
X008315Y004333D01*
X008240Y004153D01*
X008240Y003958D01*
X008299Y003815D01*
X008051Y003514D01*
X008004Y003468D01*
X008004Y003457D01*
X007997Y003449D01*
X008004Y003384D01*
X007994Y001975D01*
X006619Y001972D01*
X006618Y002735D01*
X006618Y002809D01*
X006618Y002821D01*
X007326Y002829D01*
X007404Y002751D01*
X007517Y002704D01*
X007640Y002704D01*
X007753Y002751D01*
X007840Y002837D01*
X007887Y002951D01*
X007887Y003073D01*
X007840Y003186D01*
X007753Y003273D01*
X007640Y003320D01*
X007558Y003438D02*
X007998Y003438D01*
X008086Y003556D02*
X007582Y003556D01*
X007607Y003675D02*
X008183Y003675D01*
X008281Y003793D02*
X007631Y003793D01*
X007656Y003912D02*
X008259Y003912D01*
X008240Y004030D02*
X007680Y004030D01*
X007705Y004149D02*
X008240Y004149D01*
X008287Y004267D02*
X008022Y004267D01*
X007869Y004267D02*
X007729Y004267D01*
X007945Y004569D02*
X008227Y005339D01*
X008730Y006055D01*
X007788Y007534D01*
X002726Y007548D01*
X001730Y006055D01*
X001730Y006048D01*
X002226Y006340D02*
X002459Y006651D01*
X002654Y006807D01*
X004455Y006812D01*
X004466Y007218D01*
X004828Y006431D02*
X005466Y007218D01*
X005533Y006712D02*
X006808Y006710D01*
X006794Y004143D01*
X007111Y003707D02*
X004280Y003680D01*
X004043Y003508D01*
X004351Y003501D02*
X004351Y003447D01*
X004304Y003334D01*
X004218Y003247D01*
X004104Y003200D01*
X003982Y003200D01*
X003869Y003247D01*
X003782Y003334D01*
X003735Y003447D01*
X003735Y003569D01*
X003782Y003683D01*
X003869Y003769D01*
X003982Y003816D01*
X004051Y003816D01*
X004039Y005626D01*
X004038Y005623D01*
X003951Y005536D01*
X003932Y005528D01*
X003902Y005215D01*
X004042Y005215D01*
X003952Y005165D02*
X003902Y005215D01*
X003952Y005165D02*
X003999Y005052D01*
X003999Y004929D01*
X003952Y004816D01*
X003865Y004730D01*
X003752Y004683D01*
X003629Y004683D01*
X003516Y004730D01*
X003456Y004790D01*
X003451Y004199D01*
X003451Y004198D01*
X003450Y004124D01*
X003449Y004051D01*
X003448Y004050D01*
X003448Y004049D01*
X003395Y003998D01*
X003343Y003946D01*
X003342Y003946D01*
X003341Y003946D01*
X003267Y003947D01*
X003194Y003948D01*
X003193Y003948D01*
X002936Y003953D01*
X002927Y003118D01*
X003887Y003117D01*
X004681Y003349D01*
X004750Y003371D01*
X004752Y003370D01*
X004755Y003371D01*
X004818Y003336D01*
X005153Y003164D01*
X005574Y003169D01*
X005535Y003207D01*
X005489Y003320D01*
X005489Y003443D01*
X005517Y003512D01*
X004351Y003501D01*
X004347Y003438D02*
X005489Y003438D01*
X005489Y003319D02*
X004852Y003319D01*
X005083Y003201D02*
X005542Y003201D01*
X005797Y003382D02*
X007377Y003404D01*
X007111Y003707D02*
X007107Y007223D01*
X006466Y007218D01*
X004040Y005571D02*
X003985Y005571D01*
X004040Y005452D02*
X003925Y005452D01*
X003914Y005334D02*
X004041Y005334D01*
X004043Y005097D02*
X003980Y005097D01*
X003999Y004978D02*
X004043Y004978D01*
X004044Y004860D02*
X003970Y004860D01*
X004045Y004741D02*
X003877Y004741D01*
X004046Y004623D02*
X003455Y004623D01*
X003456Y004741D02*
X003505Y004741D01*
X003453Y004504D02*
X004047Y004504D01*
X004047Y004386D02*
X003452Y004386D01*
X003451Y004267D02*
X004048Y004267D01*
X004049Y004149D02*
X003450Y004149D01*
X003429Y004030D02*
X004050Y004030D01*
X004051Y003912D02*
X002936Y003912D01*
X002934Y003793D02*
X003926Y003793D01*
X003779Y003675D02*
X002933Y003675D01*
X002932Y003556D02*
X003735Y003556D01*
X003739Y003438D02*
X002930Y003438D01*
X002929Y003319D02*
X003796Y003319D01*
X003980Y003201D02*
X002928Y003201D01*
X002745Y002938D02*
X002757Y004035D01*
X002814Y004135D01*
X003270Y004127D01*
X003285Y005758D01*
X003777Y005797D02*
X003709Y005083D01*
X003705Y005036D01*
X003695Y005028D01*
X003691Y004991D01*
X002226Y003986D02*
X002226Y006340D01*
X001730Y004055D02*
X001730Y004015D01*
X002226Y003986D01*
X001730Y004055D02*
X002311Y003287D01*
X004006Y002769D02*
X004718Y002980D01*
X005047Y002802D01*
X006438Y002808D01*
X006440Y001791D01*
X008173Y001795D01*
X008184Y003392D01*
X008730Y004055D01*
X008367Y004386D02*
X008198Y004386D01*
X008252Y004504D02*
X008533Y004504D01*
X008424Y004623D02*
X008254Y004623D01*
X008208Y004741D02*
X008303Y004741D01*
X008001Y003082D02*
X007883Y003082D01*
X007887Y002964D02*
X008001Y002964D01*
X008000Y002845D02*
X007843Y002845D01*
X007694Y002727D02*
X007999Y002727D01*
X007998Y002608D02*
X006618Y002608D01*
X006618Y002490D02*
X007997Y002490D01*
X007997Y002371D02*
X006618Y002371D01*
X006619Y002253D02*
X007996Y002253D01*
X007995Y002134D02*
X006619Y002134D01*
X006619Y002016D02*
X007994Y002016D01*
X007463Y002727D02*
X006618Y002727D01*
X006618Y002735D02*
X006618Y002735D01*
X006258Y002628D02*
X006259Y001866D01*
X006259Y001859D01*
X005912Y001859D01*
X005912Y001913D01*
X005737Y001913D01*
X005737Y001918D01*
X005912Y001918D01*
X005912Y002136D01*
X005901Y002177D01*
X005880Y002213D01*
X005851Y002243D01*
X005814Y002264D01*
X005773Y002275D01*
X005691Y002275D01*
X005708Y002293D01*
X005755Y002406D01*
X005755Y002528D01*
X005715Y002625D01*
X006258Y002628D01*
X006258Y002608D02*
X005722Y002608D01*
X005755Y002490D02*
X006258Y002490D01*
X006258Y002371D02*
X005741Y002371D01*
X005834Y002253D02*
X006259Y002253D01*
X006259Y002134D02*
X005912Y002134D01*
X005912Y002016D02*
X006259Y002016D01*
X006259Y001897D02*
X005912Y001897D01*
X005755Y002038D02*
X006111Y002491D01*
X005447Y002467D02*
X005230Y002260D01*
X004799Y001979D02*
X004679Y002647D01*
X004173Y003201D02*
X004106Y003201D01*
X004290Y003319D02*
X004577Y003319D01*
X006259Y001866D02*
X006259Y001866D01*
D15*
X006111Y002491D03*
X005447Y002467D03*
X004679Y002647D03*
X005152Y003338D03*
X005797Y003382D03*
X006782Y002693D03*
X007579Y003012D03*
X007808Y003756D03*
X007945Y004569D03*
X007810Y005495D03*
X006794Y004143D03*
X004043Y003508D03*
X003138Y003762D03*
X003691Y004991D03*
X003777Y005797D03*
X003285Y005758D03*
X002641Y006052D03*
X005533Y006712D03*
X003675Y002517D03*
D16*
X004799Y001979D02*
X004806Y001915D01*
X005227Y001915D02*
X005230Y002260D01*
X005627Y001915D02*
X005755Y002038D01*
X007377Y003404D02*
X007810Y005495D01*
X004828Y006431D02*
X003804Y006419D01*
X003023Y005031D02*
X003016Y004581D01*
X002899Y004577D01*
X002311Y003287D02*
X002300Y001770D01*
M02*
