G75*
%MOIN*%
%OFA0B0*%
%FSLAX24Y24*%
%IPPOS*%
%LPD*%
%AMOC8*
5,1,8,0,0,1.08239X$1,22.5*
%
%ADD10C,0.0000*%
%ADD11C,0.0740*%
%ADD12R,0.0157X0.0795*%
%ADD13R,0.0433X0.0394*%
%ADD14R,0.0394X0.0433*%
%ADD15C,0.0100*%
%ADD16C,0.0160*%
%ADD17C,0.0376*%
D10*
X000186Y002823D02*
X000178Y012016D01*
X008574Y012016D01*
X008578Y002827D01*
X000186Y002823D01*
D11*
X000670Y003476D03*
X000670Y004476D03*
X000670Y005476D03*
X000670Y006476D03*
X000670Y007476D03*
X000670Y008476D03*
X008170Y008476D03*
X008170Y007476D03*
X008170Y006476D03*
X008170Y005476D03*
X008170Y004476D03*
X008170Y003476D03*
D12*
X006127Y003520D03*
X005851Y003520D03*
X005576Y003520D03*
X005300Y003520D03*
X005024Y003520D03*
X004749Y003520D03*
X004473Y003520D03*
X004198Y003520D03*
X003922Y003520D03*
X003646Y003520D03*
X003371Y003520D03*
X003095Y003520D03*
X002820Y003520D03*
X002544Y003520D03*
D13*
X006422Y006724D03*
X007091Y006724D03*
X007111Y005811D03*
X006442Y005811D03*
X001174Y009413D03*
X001162Y010201D03*
X001154Y011012D03*
X000485Y011012D03*
X000493Y010201D03*
X000505Y009413D03*
D14*
X001678Y005933D03*
X001678Y005264D03*
X001627Y004205D03*
X001627Y003535D03*
X007595Y010732D03*
X007595Y011402D03*
X008261Y011409D03*
X008261Y010740D03*
D15*
X007954Y010705D02*
X007902Y010705D01*
X007902Y010803D02*
X007954Y010803D01*
X007954Y010902D02*
X007902Y010902D01*
X007902Y010994D02*
X007851Y011046D01*
X007884Y011065D01*
X007912Y011093D01*
X007930Y011124D01*
X007944Y011101D01*
X007972Y011073D01*
X008005Y011054D01*
X007954Y011002D01*
X007954Y010478D01*
X008018Y010414D01*
X008071Y010414D01*
X008071Y009438D01*
X007524Y009438D01*
X007413Y009327D01*
X007413Y007596D01*
X007399Y007629D01*
X007336Y007692D01*
X007336Y008905D01*
X007225Y009017D01*
X006402Y009017D01*
X006339Y009079D01*
X006229Y009125D01*
X006111Y009125D01*
X006001Y009079D01*
X005917Y008996D01*
X005872Y008886D01*
X005872Y008767D01*
X005917Y008658D01*
X006001Y008574D01*
X006111Y008529D01*
X006229Y008529D01*
X006339Y008574D01*
X006402Y008637D01*
X006956Y008637D01*
X006956Y008481D01*
X004658Y008481D01*
X004547Y008370D01*
X004547Y004347D01*
X004414Y004347D01*
X004303Y004236D01*
X004303Y004066D01*
X004296Y004067D01*
X004198Y004067D01*
X004198Y003520D01*
X004198Y003520D01*
X004198Y004067D01*
X004099Y004067D01*
X004061Y004057D01*
X004027Y004037D01*
X004017Y004027D01*
X003798Y004027D01*
X003784Y004014D01*
X003771Y004027D01*
X003561Y004027D01*
X003561Y006012D01*
X003450Y006123D01*
X001985Y006123D01*
X001985Y006195D01*
X001920Y006260D01*
X001436Y006260D01*
X001371Y006195D01*
X001371Y005671D01*
X001436Y005607D01*
X001920Y005607D01*
X001985Y005671D01*
X001985Y005743D01*
X003181Y005743D01*
X003181Y005447D01*
X003174Y005454D01*
X001985Y005454D01*
X001985Y005526D01*
X001920Y005590D01*
X001436Y005590D01*
X001371Y005526D01*
X001371Y005002D01*
X001436Y004937D01*
X001920Y004937D01*
X001985Y005002D01*
X001985Y005074D01*
X002905Y005074D01*
X002905Y004392D01*
X002903Y004394D01*
X002902Y004395D01*
X002824Y004395D01*
X002746Y004395D01*
X002746Y004395D01*
X001934Y004395D01*
X001934Y004467D01*
X001869Y004531D01*
X001384Y004531D01*
X001320Y004467D01*
X001320Y003943D01*
X001384Y003878D01*
X001869Y003878D01*
X001934Y003943D01*
X001934Y004015D01*
X002407Y004015D01*
X002355Y003963D01*
X002355Y003713D01*
X001934Y003720D01*
X001934Y003798D01*
X001869Y003862D01*
X001384Y003862D01*
X001320Y003798D01*
X001320Y003273D01*
X001384Y003209D01*
X001869Y003209D01*
X001934Y003273D01*
X001934Y003340D01*
X002355Y003333D01*
X002355Y003076D01*
X002408Y003024D01*
X000830Y003023D01*
X000942Y003069D01*
X001077Y003204D01*
X001150Y003381D01*
X001150Y003572D01*
X001077Y003748D01*
X000942Y003883D01*
X000766Y003956D01*
X000575Y003956D01*
X000398Y003883D01*
X000385Y003870D01*
X000385Y004083D01*
X000398Y004069D01*
X000575Y003996D01*
X000766Y003996D01*
X000942Y004069D01*
X001077Y004204D01*
X001150Y004381D01*
X001150Y004572D01*
X001077Y004748D01*
X000942Y004883D01*
X000766Y004956D01*
X000575Y004956D01*
X000398Y004883D01*
X000384Y004869D01*
X000384Y005084D01*
X000398Y005069D01*
X000575Y004996D01*
X000766Y004996D01*
X000942Y005069D01*
X001077Y005204D01*
X001150Y005381D01*
X001150Y005572D01*
X001077Y005748D01*
X000942Y005883D01*
X000766Y005956D01*
X000575Y005956D01*
X000398Y005883D01*
X000383Y005868D01*
X000383Y006042D01*
X000398Y006032D01*
X000470Y005994D01*
X000548Y005969D01*
X000620Y005958D01*
X000620Y006426D01*
X000720Y006426D01*
X000720Y005958D01*
X000792Y005969D01*
X000870Y005994D01*
X000943Y006032D01*
X001009Y006080D01*
X001067Y006138D01*
X001115Y006204D01*
X001152Y006277D01*
X001177Y006355D01*
X001189Y006426D01*
X000720Y006426D01*
X000720Y006526D01*
X001189Y006526D01*
X001177Y006598D01*
X001152Y006676D01*
X001115Y006749D01*
X001067Y006815D01*
X001009Y006873D01*
X000943Y006921D01*
X000870Y006958D01*
X000792Y006984D01*
X000720Y006995D01*
X000720Y006526D01*
X000620Y006526D01*
X000620Y006995D01*
X000548Y006984D01*
X000470Y006958D01*
X000398Y006921D01*
X000382Y006910D01*
X000382Y007085D01*
X000398Y007069D01*
X000575Y006996D01*
X000766Y006996D01*
X000942Y007069D01*
X001077Y007204D01*
X001150Y007381D01*
X001150Y007572D01*
X001077Y007748D01*
X000942Y007883D01*
X000766Y007956D01*
X000575Y007956D01*
X000398Y007883D01*
X000382Y007867D01*
X000381Y008086D01*
X000398Y008069D01*
X000575Y007996D01*
X000766Y007996D01*
X000942Y008069D01*
X001077Y008204D01*
X001150Y008381D01*
X001150Y008572D01*
X001077Y008748D01*
X000942Y008883D01*
X000766Y008956D01*
X000575Y008956D01*
X000398Y008883D01*
X000381Y008866D01*
X000380Y009067D01*
X000456Y009067D01*
X000456Y009365D01*
X000553Y009365D01*
X000553Y009067D01*
X000741Y009067D01*
X000779Y009077D01*
X000813Y009097D01*
X000841Y009124D01*
X000861Y009158D01*
X000912Y009107D01*
X001436Y009107D01*
X001501Y009171D01*
X001501Y009219D01*
X002640Y009202D01*
X002626Y007083D01*
X002626Y007083D01*
X002626Y007005D01*
X002625Y006926D01*
X002626Y006926D01*
X002626Y006736D01*
X002737Y006625D01*
X003698Y006625D01*
X003761Y006562D01*
X003871Y006517D01*
X003989Y006517D01*
X004099Y006562D01*
X004183Y006646D01*
X004228Y006756D01*
X004228Y006874D01*
X004183Y006984D01*
X004099Y007068D01*
X003989Y007113D01*
X003871Y007113D01*
X003761Y007068D01*
X003698Y007005D01*
X003624Y007005D01*
X003687Y007067D01*
X003732Y007177D01*
X003732Y007296D01*
X003687Y007405D01*
X003623Y007469D01*
X003617Y009582D01*
X007070Y009582D01*
X007100Y009567D01*
X007146Y009582D01*
X007194Y009582D01*
X007218Y009606D01*
X007250Y009616D01*
X007271Y009659D01*
X007305Y009693D01*
X007305Y009727D01*
X007644Y010406D01*
X007838Y010406D01*
X007902Y010470D01*
X007902Y010994D01*
X007896Y011000D02*
X007954Y011000D01*
X007946Y011099D02*
X007916Y011099D01*
X007914Y011353D02*
X007644Y011353D01*
X007644Y011450D01*
X007942Y011450D01*
X007942Y011458D01*
X008212Y011458D01*
X008212Y011361D01*
X007914Y011361D01*
X007914Y011353D01*
X007926Y011687D02*
X007912Y011710D01*
X007884Y011738D01*
X007850Y011758D01*
X007812Y011768D01*
X007644Y011768D01*
X007644Y011450D01*
X007547Y011450D01*
X007547Y011768D01*
X007379Y011768D01*
X007341Y011758D01*
X007306Y011738D01*
X007278Y011710D01*
X007259Y011676D01*
X007248Y011638D01*
X007248Y011450D01*
X007547Y011450D01*
X007547Y011353D01*
X007248Y011353D01*
X007248Y011165D01*
X007259Y011127D01*
X007278Y011093D01*
X007306Y011065D01*
X007340Y011046D01*
X007288Y010994D01*
X007288Y010543D01*
X006998Y009962D01*
X003504Y009962D01*
X003455Y009962D01*
X003513Y010020D01*
X003559Y010130D01*
X003559Y010248D01*
X003513Y010358D01*
X003429Y010442D01*
X003320Y010487D01*
X003201Y010487D01*
X003092Y010442D01*
X003030Y010380D01*
X001489Y010389D01*
X001489Y010443D01*
X001424Y010508D01*
X001349Y010508D01*
X007271Y010508D01*
X007288Y010606D02*
X001348Y010606D01*
X001349Y010508D02*
X001347Y010705D01*
X001416Y010705D01*
X001481Y010769D01*
X001481Y011254D01*
X001416Y011319D01*
X000892Y011319D01*
X000841Y011267D01*
X000822Y011301D01*
X000794Y011329D01*
X000759Y011348D01*
X000721Y011359D01*
X000533Y011359D01*
X000533Y011060D01*
X000437Y011060D01*
X000437Y011359D01*
X000379Y011359D01*
X000378Y011816D01*
X008374Y011816D01*
X008374Y011776D01*
X008309Y011776D01*
X008309Y011458D01*
X008212Y011458D01*
X008212Y011776D01*
X008044Y011776D01*
X008006Y011766D01*
X007972Y011746D01*
X007944Y011718D01*
X007926Y011687D01*
X007924Y011690D02*
X007927Y011690D01*
X007644Y011690D02*
X007547Y011690D01*
X007547Y011591D02*
X007644Y011591D01*
X007644Y011493D02*
X007547Y011493D01*
X007547Y011394D02*
X000378Y011394D01*
X000378Y011493D02*
X007248Y011493D01*
X007248Y011591D02*
X000378Y011591D01*
X000378Y011690D02*
X007267Y011690D01*
X007248Y011296D02*
X001439Y011296D01*
X001481Y011197D02*
X007248Y011197D01*
X007275Y011099D02*
X001481Y011099D01*
X001481Y011000D02*
X007294Y011000D01*
X007288Y010902D02*
X001481Y010902D01*
X001481Y010803D02*
X007288Y010803D01*
X007288Y010705D02*
X001347Y010705D01*
X001489Y010409D02*
X003059Y010409D01*
X003028Y010000D02*
X003092Y009936D01*
X003201Y009891D01*
X003276Y009891D01*
X003236Y009850D01*
X003236Y009850D01*
X003236Y009850D01*
X003236Y009771D01*
X003236Y009693D01*
X003236Y009693D01*
X003243Y007467D01*
X003181Y007405D01*
X003136Y007296D01*
X003136Y007177D01*
X003181Y007067D01*
X003244Y007005D01*
X003006Y007005D01*
X003021Y009388D01*
X003023Y009466D01*
X003022Y009466D01*
X003022Y009467D01*
X002967Y009523D01*
X003237Y009523D01*
X003236Y009621D02*
X001501Y009621D01*
X001501Y009599D02*
X001501Y009656D01*
X001436Y009720D01*
X000912Y009720D01*
X000861Y009669D01*
X000841Y009702D01*
X000813Y009730D01*
X000779Y009750D01*
X000741Y009760D01*
X000553Y009760D01*
X000553Y009462D01*
X000456Y009462D01*
X000456Y009760D01*
X000380Y009760D01*
X000380Y009854D01*
X000444Y009854D01*
X000444Y010152D01*
X000541Y010152D01*
X000541Y009854D01*
X000729Y009854D01*
X000767Y009864D01*
X000802Y009884D01*
X000829Y009912D01*
X000849Y009945D01*
X000900Y009894D01*
X001424Y009894D01*
X001489Y009958D01*
X001489Y010009D01*
X003028Y010000D01*
X003139Y009917D02*
X001447Y009917D01*
X001436Y009720D02*
X003236Y009720D01*
X003236Y009818D02*
X000380Y009818D01*
X000444Y009917D02*
X000541Y009917D01*
X000541Y010015D02*
X000444Y010015D01*
X000444Y010114D02*
X000541Y010114D01*
X000541Y010249D02*
X000444Y010249D01*
X000444Y010548D01*
X000379Y010548D01*
X000379Y010665D01*
X000437Y010665D01*
X000437Y010963D01*
X000533Y010963D01*
X000533Y010665D01*
X000721Y010665D01*
X000759Y010675D01*
X000794Y010695D01*
X000822Y010723D01*
X000841Y010756D01*
X000892Y010705D01*
X000967Y010705D01*
X000969Y010508D01*
X000811Y010508D01*
X000802Y010518D02*
X000767Y010537D01*
X000729Y010548D01*
X000541Y010548D01*
X000541Y010249D01*
X000541Y010311D02*
X000444Y010311D01*
X000444Y010409D02*
X000541Y010409D01*
X000541Y010508D02*
X000444Y010508D01*
X000379Y010606D02*
X000968Y010606D01*
X000969Y010508D02*
X000900Y010508D01*
X000849Y010456D01*
X000829Y010490D01*
X000802Y010518D01*
X000804Y010705D02*
X000967Y010705D01*
X000533Y010705D02*
X000437Y010705D01*
X000437Y010803D02*
X000533Y010803D01*
X000533Y010902D02*
X000437Y010902D01*
X000437Y011099D02*
X000533Y011099D01*
X000533Y011197D02*
X000437Y011197D01*
X000437Y011296D02*
X000533Y011296D01*
X000824Y011296D02*
X000869Y011296D01*
X000378Y011788D02*
X008374Y011788D01*
X008309Y011690D02*
X008212Y011690D01*
X008212Y011591D02*
X008309Y011591D01*
X008309Y011493D02*
X008212Y011493D01*
X008212Y011394D02*
X007644Y011394D01*
X007902Y010606D02*
X007954Y010606D01*
X007954Y010508D02*
X007902Y010508D01*
X007841Y010409D02*
X008071Y010409D01*
X008071Y010311D02*
X007597Y010311D01*
X007548Y010212D02*
X008071Y010212D01*
X008071Y010114D02*
X007498Y010114D01*
X007449Y010015D02*
X008071Y010015D01*
X008071Y009917D02*
X007400Y009917D01*
X007351Y009818D02*
X008071Y009818D01*
X008071Y009720D02*
X007305Y009720D01*
X007252Y009621D02*
X008071Y009621D01*
X008071Y009523D02*
X003617Y009523D01*
X003617Y009424D02*
X007511Y009424D01*
X007413Y009326D02*
X003617Y009326D01*
X003618Y009227D02*
X007413Y009227D01*
X007413Y009129D02*
X003618Y009129D01*
X003618Y009030D02*
X005952Y009030D01*
X005891Y008932D02*
X003619Y008932D01*
X003619Y008833D02*
X005872Y008833D01*
X005885Y008735D02*
X003619Y008735D01*
X003620Y008636D02*
X005939Y008636D01*
X006089Y008538D02*
X003620Y008538D01*
X003620Y008439D02*
X004616Y008439D01*
X004547Y008341D02*
X003620Y008341D01*
X003621Y008242D02*
X004547Y008242D01*
X004547Y008144D02*
X003621Y008144D01*
X003621Y008045D02*
X004547Y008045D01*
X004547Y007947D02*
X003622Y007947D01*
X003622Y007848D02*
X004547Y007848D01*
X004547Y007750D02*
X003622Y007750D01*
X003623Y007651D02*
X004547Y007651D01*
X004547Y007553D02*
X003623Y007553D01*
X003637Y007454D02*
X004547Y007454D01*
X004547Y007356D02*
X003707Y007356D01*
X003732Y007257D02*
X004547Y007257D01*
X004547Y007159D02*
X003724Y007159D01*
X003754Y007060D02*
X003680Y007060D01*
X003755Y006568D02*
X001182Y006568D01*
X001155Y006666D02*
X002696Y006666D01*
X002626Y006765D02*
X001103Y006765D01*
X001018Y006863D02*
X002626Y006863D01*
X002625Y006962D02*
X000859Y006962D01*
X000920Y007060D02*
X002626Y007060D01*
X002627Y007159D02*
X001031Y007159D01*
X001099Y007257D02*
X002627Y007257D01*
X002628Y007356D02*
X001140Y007356D01*
X001150Y007454D02*
X002629Y007454D01*
X002629Y007553D02*
X001150Y007553D01*
X001117Y007651D02*
X002630Y007651D01*
X002631Y007750D02*
X001075Y007750D01*
X000977Y007848D02*
X002631Y007848D01*
X002632Y007947D02*
X000788Y007947D01*
X000884Y008045D02*
X002633Y008045D01*
X002633Y008144D02*
X001016Y008144D01*
X001093Y008242D02*
X002634Y008242D01*
X002635Y008341D02*
X001133Y008341D01*
X001150Y008439D02*
X002635Y008439D01*
X002636Y008538D02*
X001150Y008538D01*
X001123Y008636D02*
X002637Y008636D01*
X002637Y008735D02*
X001083Y008735D01*
X000992Y008833D02*
X002638Y008833D01*
X002638Y008932D02*
X000825Y008932D01*
X000844Y009129D02*
X000890Y009129D01*
X000553Y009129D02*
X000456Y009129D01*
X000456Y009227D02*
X000553Y009227D01*
X000553Y009326D02*
X000456Y009326D01*
X000456Y009523D02*
X000553Y009523D01*
X000553Y009621D02*
X000456Y009621D01*
X000456Y009720D02*
X000553Y009720D01*
X000824Y009720D02*
X000912Y009720D01*
X000877Y009917D02*
X000832Y009917D01*
X000381Y009030D02*
X002639Y009030D01*
X002640Y009129D02*
X001458Y009129D01*
X001501Y009599D02*
X002834Y009580D01*
X002911Y009579D01*
X002912Y009579D01*
X002913Y009579D01*
X002967Y009523D01*
X003022Y009424D02*
X003237Y009424D01*
X003237Y009326D02*
X003021Y009326D01*
X003020Y009227D02*
X003238Y009227D01*
X003238Y009129D02*
X003020Y009129D01*
X003019Y009030D02*
X003238Y009030D01*
X003239Y008932D02*
X003018Y008932D01*
X003018Y008833D02*
X003239Y008833D01*
X003239Y008735D02*
X003017Y008735D01*
X003017Y008636D02*
X003240Y008636D01*
X003240Y008538D02*
X003016Y008538D01*
X003015Y008439D02*
X003240Y008439D01*
X003240Y008341D02*
X003015Y008341D01*
X003014Y008242D02*
X003241Y008242D01*
X003241Y008144D02*
X003013Y008144D01*
X003013Y008045D02*
X003241Y008045D01*
X003242Y007947D02*
X003012Y007947D01*
X003011Y007848D02*
X003242Y007848D01*
X003242Y007750D02*
X003011Y007750D01*
X003010Y007651D02*
X003243Y007651D01*
X003243Y007553D02*
X003009Y007553D01*
X003009Y007454D02*
X003230Y007454D01*
X003161Y007356D02*
X003008Y007356D01*
X003007Y007257D02*
X003136Y007257D01*
X003143Y007159D02*
X003007Y007159D01*
X003006Y007060D02*
X003188Y007060D01*
X003497Y006075D02*
X004547Y006075D01*
X004547Y005977D02*
X003561Y005977D01*
X003561Y005878D02*
X004547Y005878D01*
X004547Y005780D02*
X003561Y005780D01*
X003561Y005681D02*
X004547Y005681D01*
X004547Y005583D02*
X003561Y005583D01*
X003561Y005484D02*
X004547Y005484D01*
X004547Y005386D02*
X003561Y005386D01*
X003561Y005287D02*
X004547Y005287D01*
X004547Y005189D02*
X003561Y005189D01*
X003561Y005090D02*
X004547Y005090D01*
X004547Y004992D02*
X003561Y004992D01*
X003561Y004893D02*
X004547Y004893D01*
X004547Y004795D02*
X003561Y004795D01*
X003561Y004696D02*
X004547Y004696D01*
X004547Y004598D02*
X003561Y004598D01*
X003561Y004499D02*
X004547Y004499D01*
X004547Y004401D02*
X003561Y004401D01*
X003561Y004302D02*
X004369Y004302D01*
X004303Y004204D02*
X003561Y004204D01*
X003561Y004105D02*
X004303Y004105D01*
X004198Y004007D02*
X004198Y004007D01*
X004198Y003908D02*
X004198Y003908D01*
X004198Y003810D02*
X004198Y003810D01*
X004198Y003711D02*
X004198Y003711D01*
X004198Y003613D02*
X004198Y003613D01*
X002903Y004394D02*
X002903Y004394D01*
X002905Y004401D02*
X001934Y004401D01*
X001901Y004499D02*
X002905Y004499D01*
X002905Y004598D02*
X001139Y004598D01*
X001150Y004499D02*
X001352Y004499D01*
X001320Y004401D02*
X001150Y004401D01*
X001118Y004302D02*
X001320Y004302D01*
X001320Y004204D02*
X001076Y004204D01*
X000978Y004105D02*
X001320Y004105D01*
X001320Y004007D02*
X000791Y004007D01*
X000881Y003908D02*
X001354Y003908D01*
X001332Y003810D02*
X001015Y003810D01*
X001092Y003711D02*
X001320Y003711D01*
X001320Y003613D02*
X001133Y003613D01*
X001150Y003514D02*
X001320Y003514D01*
X001320Y003416D02*
X001150Y003416D01*
X001124Y003317D02*
X001320Y003317D01*
X001374Y003219D02*
X001083Y003219D01*
X000993Y003120D02*
X002355Y003120D01*
X002355Y003219D02*
X001879Y003219D01*
X001934Y003317D02*
X002355Y003317D01*
X002355Y003810D02*
X001921Y003810D01*
X001899Y003908D02*
X002355Y003908D01*
X002399Y004007D02*
X001934Y004007D01*
X001975Y004992D02*
X002905Y004992D01*
X002905Y004893D02*
X000918Y004893D01*
X001030Y004795D02*
X002905Y004795D01*
X002905Y004696D02*
X001099Y004696D01*
X001381Y004992D02*
X000384Y004992D01*
X000384Y004893D02*
X000422Y004893D01*
X000963Y005090D02*
X001371Y005090D01*
X001371Y005189D02*
X001061Y005189D01*
X001111Y005287D02*
X001371Y005287D01*
X001371Y005386D02*
X001150Y005386D01*
X001150Y005484D02*
X001371Y005484D01*
X001428Y005583D02*
X001146Y005583D01*
X001105Y005681D02*
X001371Y005681D01*
X001371Y005780D02*
X001045Y005780D01*
X000947Y005878D02*
X001371Y005878D01*
X001371Y005977D02*
X000816Y005977D01*
X000720Y005977D02*
X000620Y005977D01*
X000620Y006075D02*
X000720Y006075D01*
X000720Y006174D02*
X000620Y006174D01*
X000620Y006272D02*
X000720Y006272D01*
X000720Y006371D02*
X000620Y006371D01*
X000720Y006469D02*
X004547Y006469D01*
X004547Y006371D02*
X001180Y006371D01*
X001150Y006272D02*
X004547Y006272D01*
X004547Y006174D02*
X001985Y006174D01*
X001985Y005681D02*
X003181Y005681D01*
X003181Y005583D02*
X001928Y005583D01*
X001985Y005484D02*
X003181Y005484D01*
X004104Y006568D02*
X004547Y006568D01*
X004547Y006666D02*
X004191Y006666D01*
X004228Y006765D02*
X004547Y006765D01*
X004547Y006863D02*
X004228Y006863D01*
X004192Y006962D02*
X004547Y006962D01*
X004547Y007060D02*
X004106Y007060D01*
X006252Y008538D02*
X006956Y008538D01*
X006956Y008636D02*
X006401Y008636D01*
X006388Y009030D02*
X007413Y009030D01*
X007413Y008932D02*
X007310Y008932D01*
X007336Y008833D02*
X007413Y008833D01*
X007413Y008735D02*
X007336Y008735D01*
X007336Y008636D02*
X007413Y008636D01*
X007413Y008538D02*
X007336Y008538D01*
X007336Y008439D02*
X007413Y008439D01*
X007413Y008341D02*
X007336Y008341D01*
X007336Y008242D02*
X007413Y008242D01*
X007413Y008144D02*
X007336Y008144D01*
X007336Y008045D02*
X007413Y008045D01*
X007413Y007947D02*
X007336Y007947D01*
X007336Y007848D02*
X007413Y007848D01*
X007413Y007750D02*
X007336Y007750D01*
X007377Y007651D02*
X007413Y007651D01*
X007793Y007174D02*
X007898Y007069D01*
X008075Y006996D01*
X008266Y006996D01*
X008376Y007042D01*
X008376Y006955D01*
X008370Y006958D01*
X008292Y006984D01*
X008220Y006995D01*
X008220Y006526D01*
X008120Y006526D01*
X008120Y006995D01*
X008048Y006984D01*
X007970Y006958D01*
X007898Y006921D01*
X007831Y006873D01*
X007793Y006835D01*
X007793Y007174D01*
X007793Y007159D02*
X007809Y007159D01*
X007793Y007060D02*
X007920Y007060D01*
X007982Y006962D02*
X007793Y006962D01*
X007793Y006863D02*
X007822Y006863D01*
X008120Y006863D02*
X008220Y006863D01*
X008220Y006765D02*
X008120Y006765D01*
X008120Y006666D02*
X008220Y006666D01*
X008220Y006568D02*
X008120Y006568D01*
X008120Y006426D02*
X008220Y006426D01*
X008220Y005958D01*
X008292Y005969D01*
X008370Y005994D01*
X008376Y005998D01*
X008376Y005911D01*
X008266Y005956D01*
X008075Y005956D01*
X007898Y005883D01*
X007793Y005778D01*
X007793Y006118D01*
X007831Y006080D01*
X007898Y006032D01*
X007970Y005994D01*
X008048Y005969D01*
X008120Y005958D01*
X008120Y006426D01*
X008120Y006371D02*
X008220Y006371D01*
X008220Y006272D02*
X008120Y006272D01*
X008120Y006174D02*
X008220Y006174D01*
X008220Y006075D02*
X008120Y006075D01*
X008120Y005977D02*
X008220Y005977D01*
X008316Y005977D02*
X008376Y005977D01*
X008025Y005977D02*
X007793Y005977D01*
X007793Y006075D02*
X007837Y006075D01*
X007793Y005878D02*
X007893Y005878D01*
X007795Y005780D02*
X007793Y005780D01*
X008120Y006962D02*
X008220Y006962D01*
X008359Y006962D02*
X008376Y006962D01*
X007024Y010015D02*
X003509Y010015D01*
X003504Y009962D02*
X003504Y009962D01*
X003552Y010114D02*
X007074Y010114D01*
X007123Y010212D02*
X003559Y010212D01*
X003533Y010311D02*
X007172Y010311D01*
X007221Y010409D02*
X003462Y010409D01*
X000720Y006962D02*
X000620Y006962D01*
X000620Y006863D02*
X000720Y006863D01*
X000720Y006765D02*
X000620Y006765D01*
X000620Y006666D02*
X000720Y006666D01*
X000720Y006568D02*
X000620Y006568D01*
X000482Y006962D02*
X000382Y006962D01*
X000382Y007060D02*
X000420Y007060D01*
X000381Y007947D02*
X000552Y007947D01*
X000456Y008045D02*
X000381Y008045D01*
X000381Y008932D02*
X000515Y008932D01*
X001093Y006174D02*
X001371Y006174D01*
X001371Y006075D02*
X001003Y006075D01*
X000525Y005977D02*
X000383Y005977D01*
X000383Y005878D02*
X000393Y005878D01*
X000385Y004007D02*
X000549Y004007D01*
X000459Y003908D02*
X000385Y003908D01*
D16*
X001627Y004205D02*
X002824Y004205D01*
X002820Y003520D01*
X002544Y003520D02*
X001627Y003535D01*
X001678Y005264D02*
X003095Y005264D01*
X003095Y003520D01*
X003371Y003520D02*
X003371Y005933D01*
X001678Y005933D01*
X001253Y006476D02*
X001253Y008780D01*
X000505Y009413D01*
X000493Y010201D01*
X000485Y011012D01*
X001154Y011012D02*
X001162Y010201D01*
X003261Y010189D01*
X003426Y009772D02*
X007115Y009772D01*
X007595Y010732D01*
X007595Y011402D02*
X006619Y011232D01*
X007595Y011402D02*
X007595Y011409D01*
X008261Y011409D01*
X008261Y010740D02*
X008261Y009248D01*
X007603Y009248D01*
X007603Y003150D01*
X006127Y003150D01*
X006127Y003520D01*
X005851Y003520D02*
X005851Y004157D01*
X006611Y004157D01*
X006611Y003799D01*
X006627Y003799D01*
X006442Y005087D02*
X006442Y005811D01*
X005300Y005811D01*
X005300Y003520D01*
X005576Y003520D02*
X005580Y004457D01*
X005580Y004512D01*
X005654Y004512D01*
X006442Y005087D02*
X007194Y005087D01*
X007111Y005811D02*
X007111Y006724D01*
X007111Y006858D01*
X007111Y007461D01*
X007146Y007461D01*
X007146Y008291D01*
X007146Y008827D01*
X006170Y008827D01*
X007146Y008291D02*
X004737Y008291D01*
X004737Y004157D01*
X004493Y004157D01*
X004493Y003520D01*
X004473Y003520D01*
X004473Y002933D01*
X003658Y002933D01*
X003658Y003520D01*
X003646Y003520D01*
X004198Y003520D02*
X004178Y006386D01*
X004406Y006386D01*
X004406Y009358D01*
X003426Y009772D02*
X003434Y007236D01*
X003930Y006815D02*
X002816Y006815D01*
X002816Y007004D01*
X002831Y009390D01*
X001174Y009413D01*
X001253Y006476D02*
X000670Y006476D01*
X004178Y006386D01*
X005024Y006724D02*
X005024Y003520D01*
X005024Y006724D02*
X006170Y006724D01*
X006170Y007161D01*
X005749Y007161D01*
X006170Y006724D02*
X006422Y006724D01*
X007091Y006724D02*
X007111Y006724D01*
D17*
X007146Y007461D03*
X006170Y008827D03*
X005749Y007161D03*
X007194Y005087D03*
X006627Y003799D03*
X005654Y004512D03*
X003930Y006815D03*
X003434Y007236D03*
X004406Y009358D03*
X003261Y010189D03*
X006619Y011232D03*
M02*
