G75*
%MOIN*%
%OFA0B0*%
%FSLAX24Y24*%
%IPPOS*%
%LPD*%
%AMOC8*
5,1,8,0,0,1.08239X$1,22.5*
%
%ADD10C,0.0040*%
%ADD11R,0.0042X0.0007*%
%ADD12R,0.0035X0.0007*%
%ADD13R,0.0028X0.0007*%
%ADD14R,0.0099X0.0007*%
%ADD15R,0.0106X0.0007*%
%ADD16R,0.0092X0.0007*%
%ADD17R,0.0120X0.0007*%
%ADD18R,0.0113X0.0007*%
%ADD19R,0.0085X0.0007*%
%ADD20R,0.0333X0.0007*%
%ADD21R,0.0099X0.0007*%
%ADD22R,0.0106X0.0007*%
%ADD23R,0.0092X0.0007*%
%ADD24R,0.0163X0.0007*%
%ADD25R,0.0149X0.0007*%
%ADD26R,0.0092X0.0007*%
%ADD27R,0.0127X0.0007*%
%ADD28R,0.0333X0.0007*%
%ADD29R,0.0099X0.0007*%
%ADD30R,0.0106X0.0007*%
%ADD31R,0.0092X0.0007*%
%ADD32R,0.0113X0.0007*%
%ADD33R,0.0191X0.0007*%
%ADD34R,0.0177X0.0007*%
%ADD35R,0.0092X0.0007*%
%ADD36R,0.0149X0.0007*%
%ADD37R,0.0333X0.0007*%
%ADD38R,0.0120X0.0007*%
%ADD39R,0.0212X0.0007*%
%ADD40R,0.0191X0.0007*%
%ADD41R,0.0092X0.0007*%
%ADD42R,0.0177X0.0007*%
%ADD43R,0.0120X0.0007*%
%ADD44R,0.0234X0.0007*%
%ADD45R,0.0205X0.0007*%
%ADD46R,0.0099X0.0007*%
%ADD47R,0.0120X0.0007*%
%ADD48R,0.0092X0.0007*%
%ADD49R,0.0113X0.0007*%
%ADD50R,0.0120X0.0007*%
%ADD51R,0.0255X0.0007*%
%ADD52R,0.0220X0.0007*%
%ADD53R,0.0092X0.0007*%
%ADD54R,0.0106X0.0007*%
%ADD55R,0.0198X0.0007*%
%ADD56R,0.0333X0.0007*%
%ADD57R,0.0135X0.0007*%
%ADD58R,0.0127X0.0007*%
%ADD59R,0.0269X0.0007*%
%ADD60R,0.0326X0.0007*%
%ADD61R,0.0212X0.0007*%
%ADD62R,0.0135X0.0007*%
%ADD63R,0.0127X0.0007*%
%ADD64R,0.0127X0.0007*%
%ADD65R,0.0283X0.0007*%
%ADD66R,0.0333X0.0007*%
%ADD67R,0.0227X0.0007*%
%ADD68R,0.0135X0.0007*%
%ADD69R,0.0127X0.0007*%
%ADD70R,0.0290X0.0007*%
%ADD71R,0.0333X0.0007*%
%ADD72R,0.0135X0.0007*%
%ADD73R,0.0297X0.0007*%
%ADD74R,0.0340X0.0007*%
%ADD75R,0.0149X0.0007*%
%ADD76R,0.0135X0.0007*%
%ADD77R,0.0142X0.0007*%
%ADD78R,0.0312X0.0007*%
%ADD79R,0.0156X0.0007*%
%ADD80R,0.0340X0.0007*%
%ADD81R,0.0142X0.0007*%
%ADD82R,0.0120X0.0007*%
%ADD83R,0.0142X0.0007*%
%ADD84R,0.0326X0.0007*%
%ADD85R,0.0149X0.0007*%
%ADD86R,0.0142X0.0007*%
%ADD87R,0.0106X0.0007*%
%ADD88R,0.0127X0.0007*%
%ADD89R,0.0135X0.0007*%
%ADD90R,0.0113X0.0007*%
%ADD91R,0.0163X0.0007*%
%ADD92R,0.0163X0.0007*%
%ADD93R,0.0156X0.0007*%
%ADD94R,0.0113X0.0007*%
%ADD95R,0.0120X0.0007*%
%ADD96R,0.0163X0.0007*%
%ADD97R,0.0163X0.0007*%
%ADD98R,0.0085X0.0007*%
%ADD99R,0.0170X0.0007*%
%ADD100R,0.0177X0.0007*%
%ADD101R,0.0085X0.0007*%
%ADD102R,0.0078X0.0007*%
%ADD103R,0.0177X0.0007*%
%ADD104R,0.0106X0.0007*%
%ADD105R,0.0113X0.0007*%
%ADD106R,0.0085X0.0007*%
%ADD107R,0.0177X0.0007*%
%ADD108R,0.0085X0.0007*%
%ADD109R,0.0177X0.0007*%
%ADD110R,0.0177X0.0007*%
%ADD111R,0.0099X0.0007*%
%ADD112R,0.0184X0.0007*%
%ADD113R,0.0099X0.0007*%
%ADD114R,0.0368X0.0007*%
%ADD115R,0.0191X0.0007*%
%ADD116R,0.0368X0.0007*%
%ADD117R,0.0163X0.0007*%
%ADD118R,0.0184X0.0007*%
%ADD119R,0.0368X0.0007*%
%ADD120R,0.0290X0.0007*%
%ADD121R,0.0113X0.0007*%
%ADD122R,0.0085X0.0007*%
%ADD123R,0.0368X0.0007*%
%ADD124R,0.0276X0.0007*%
%ADD125R,0.0361X0.0007*%
%ADD126R,0.0255X0.0007*%
%ADD127R,0.0085X0.0007*%
%ADD128R,0.0361X0.0007*%
%ADD129R,0.0220X0.0007*%
%ADD130R,0.0361X0.0007*%
%ADD131R,0.0099X0.0007*%
%ADD132R,0.0106X0.0007*%
%ADD133R,0.0106X0.0007*%
%ADD134R,0.0120X0.0007*%
%ADD135R,0.0219X0.0007*%
%ADD136R,0.0142X0.0007*%
%ADD137R,0.0219X0.0007*%
%ADD138R,0.0312X0.0007*%
%ADD139R,0.0219X0.0007*%
%ADD140R,0.0347X0.0007*%
%ADD141R,0.0312X0.0007*%
%ADD142R,0.0304X0.0007*%
%ADD143R,0.0340X0.0007*%
%ADD144R,0.0312X0.0007*%
%ADD145R,0.0234X0.0007*%
%ADD146R,0.0297X0.0007*%
%ADD147R,0.0219X0.0007*%
%ADD148R,0.0312X0.0007*%
%ADD149R,0.0227X0.0007*%
%ADD150R,0.0283X0.0007*%
%ADD151R,0.0290X0.0007*%
%ADD152R,0.0269X0.0007*%
%ADD153R,0.0205X0.0007*%
%ADD154R,0.0184X0.0007*%
%ADD155R,0.0255X0.0007*%
%ADD156R,0.0198X0.0007*%
%ADD157R,0.0191X0.0007*%
%ADD158R,0.0184X0.0007*%
%ADD159R,0.0241X0.0007*%
%ADD160R,0.0255X0.0007*%
%ADD161R,0.0191X0.0007*%
%ADD162R,0.0198X0.0007*%
%ADD163R,0.0184X0.0007*%
%ADD164R,0.0234X0.0007*%
%ADD165R,0.0212X0.0007*%
%ADD166R,0.0184X0.0007*%
%ADD167R,0.0170X0.0007*%
%ADD168R,0.0170X0.0007*%
%ADD169R,0.0156X0.0007*%
%ADD170R,0.0035X0.0007*%
%ADD171R,0.0170X0.0007*%
%ADD172R,0.0042X0.0007*%
%ADD173R,0.0064X0.0007*%
%ADD174R,0.0028X0.0007*%
%ADD175R,0.0035X0.0007*%
%ADD176R,0.0156X0.0007*%
%ADD177R,0.0177X0.0007*%
%ADD178R,0.0170X0.0007*%
%ADD179R,0.0028X0.0007*%
%ADD180R,0.0028X0.0007*%
%ADD181R,0.0057X0.0007*%
%ADD182R,0.0057X0.0007*%
%ADD183R,0.0042X0.0007*%
%ADD184R,0.0043X0.0007*%
%ADD185R,0.0050X0.0007*%
%ADD186R,0.0050X0.0007*%
%ADD187R,0.0043X0.0007*%
%ADD188R,0.0043X0.0007*%
%ADD189R,0.0035X0.0007*%
%ADD190R,0.0035X0.0007*%
%ADD191R,0.0078X0.0007*%
%ADD192R,0.0064X0.0007*%
D10*
X001174Y003114D02*
X001174Y003248D01*
X001174Y003335D02*
X001375Y003335D01*
X001375Y003436D01*
X001341Y003469D01*
X001274Y003469D01*
X001241Y003436D01*
X001241Y003335D01*
X001174Y003114D02*
X001375Y003114D01*
X001375Y003556D02*
X001174Y003556D01*
X001241Y003623D01*
X001174Y003690D01*
X001375Y003690D01*
X001333Y004162D02*
X001300Y004162D01*
X001267Y004195D01*
X001267Y004262D01*
X001233Y004295D01*
X001200Y004295D01*
X001166Y004262D01*
X001166Y004195D01*
X001200Y004162D01*
X001200Y004383D02*
X001166Y004416D01*
X001166Y004483D01*
X001200Y004516D01*
X001166Y004604D02*
X001166Y004737D01*
X001166Y004604D02*
X001367Y004604D01*
X001333Y004516D02*
X001367Y004483D01*
X001367Y004416D01*
X001333Y004383D01*
X001200Y004383D01*
X001333Y004295D02*
X001367Y004262D01*
X001367Y004195D01*
X001333Y004162D01*
X001341Y005122D02*
X001308Y005122D01*
X001274Y005156D01*
X001274Y005222D01*
X001241Y005256D01*
X001208Y005256D01*
X001174Y005222D01*
X001174Y005156D01*
X001208Y005122D01*
X001174Y005343D02*
X001174Y005443D01*
X001208Y005477D01*
X001341Y005477D01*
X001375Y005443D01*
X001375Y005343D01*
X001174Y005343D01*
X001341Y005256D02*
X001375Y005222D01*
X001375Y005156D01*
X001341Y005122D01*
X001308Y005564D02*
X001174Y005564D01*
X001274Y005564D02*
X001274Y005698D01*
X001308Y005698D02*
X001174Y005698D01*
X001308Y005698D02*
X001375Y005631D01*
X001308Y005564D01*
X001341Y006067D02*
X001208Y006067D01*
X001174Y006101D01*
X001174Y006167D01*
X001208Y006201D01*
X001274Y006201D01*
X001274Y006134D01*
X001341Y006201D02*
X001375Y006167D01*
X001375Y006101D01*
X001341Y006067D01*
X001375Y006288D02*
X001174Y006288D01*
X001174Y006422D02*
X001375Y006422D01*
X001375Y006509D02*
X001375Y006609D01*
X001341Y006643D01*
X001208Y006643D01*
X001174Y006609D01*
X001174Y006509D01*
X001375Y006509D01*
X001174Y006422D02*
X001375Y006288D01*
X001371Y007137D02*
X001237Y007137D01*
X001171Y007203D01*
X001237Y007270D01*
X001371Y007270D01*
X001337Y007358D02*
X001204Y007358D01*
X001171Y007391D01*
X001171Y007458D01*
X001204Y007491D01*
X001204Y007579D02*
X001171Y007612D01*
X001171Y007679D01*
X001204Y007712D01*
X001204Y007579D02*
X001337Y007579D01*
X001371Y007612D01*
X001371Y007679D01*
X001337Y007712D01*
X001337Y007491D02*
X001371Y007458D01*
X001371Y007391D01*
X001337Y007358D01*
X001294Y008083D02*
X001294Y008183D01*
X001261Y008217D01*
X001228Y008217D01*
X001194Y008183D01*
X001194Y008083D01*
X001394Y008083D01*
X001394Y008183D01*
X001361Y008217D01*
X001328Y008217D01*
X001294Y008183D01*
X001294Y008304D02*
X001294Y008438D01*
X001328Y008438D02*
X001394Y008371D01*
X001328Y008304D01*
X001194Y008304D01*
X001194Y008438D02*
X001328Y008438D01*
X001394Y008525D02*
X001394Y008659D01*
X001394Y008592D02*
X001194Y008592D01*
X002569Y010869D02*
X002702Y010869D01*
X002635Y010869D02*
X002635Y011069D01*
X002702Y011002D01*
X002790Y010935D02*
X002790Y011069D01*
X002790Y010935D02*
X002856Y010869D01*
X002923Y010935D01*
X002923Y011069D01*
X003231Y011035D02*
X003265Y011069D01*
X003332Y011069D01*
X003365Y011035D01*
X003452Y011035D02*
X003452Y011002D01*
X003486Y010969D01*
X003452Y010935D01*
X003452Y010902D01*
X003486Y010869D01*
X003553Y010869D01*
X003586Y010902D01*
X003673Y010869D02*
X003807Y011002D01*
X003894Y010969D02*
X004028Y010969D01*
X003928Y011069D01*
X003928Y010869D01*
X003807Y010869D02*
X003673Y011002D01*
X003586Y011035D02*
X003553Y011069D01*
X003486Y011069D01*
X003452Y011035D01*
X003486Y010969D02*
X003519Y010969D01*
X003365Y010869D02*
X003231Y011002D01*
X003231Y011035D01*
X003231Y010869D02*
X003365Y010869D01*
X004115Y010902D02*
X004115Y010935D01*
X004149Y010969D01*
X004249Y010969D01*
X004249Y010902D01*
X004216Y010869D01*
X004149Y010869D01*
X004115Y010902D01*
X004182Y011035D02*
X004115Y011069D01*
X004182Y011035D02*
X004249Y010969D01*
X004557Y011035D02*
X004557Y010902D01*
X004591Y010869D01*
X004691Y010869D01*
X004691Y011069D01*
X004591Y011069D01*
X004557Y011035D01*
X004778Y011069D02*
X004912Y011069D01*
X004912Y010869D01*
X004778Y010869D01*
X004845Y010969D02*
X004912Y010969D01*
X004999Y010869D02*
X005133Y010869D01*
X005133Y011069D01*
X005220Y011035D02*
X005220Y010902D01*
X005254Y010869D01*
X005320Y010869D01*
X005354Y010902D01*
X005354Y011035D01*
X005320Y011069D01*
X005254Y011069D01*
X005220Y011035D01*
X005662Y011035D02*
X005696Y011069D01*
X005762Y011069D01*
X005796Y011035D01*
X005796Y010902D01*
X005762Y010869D01*
X005696Y010869D01*
X005662Y010902D01*
X005883Y010869D02*
X006017Y010869D01*
X005883Y011002D01*
X005883Y011035D01*
X005917Y011069D01*
X005983Y011069D01*
X006017Y011035D01*
X006097Y011069D02*
X006164Y011069D01*
X006131Y011069D02*
X006131Y010869D01*
X006164Y010869D02*
X006097Y010869D01*
X006252Y010969D02*
X006385Y010969D01*
X006473Y011035D02*
X006606Y010902D01*
X006606Y010869D01*
X006473Y010869D01*
X006473Y011035D02*
X006473Y011069D01*
X006606Y011069D01*
X006694Y011069D02*
X006827Y011069D01*
X006827Y010869D01*
X006694Y010869D01*
X006760Y010969D02*
X006827Y010969D01*
X007611Y008859D02*
X007611Y008726D01*
X007611Y008792D02*
X007411Y008792D01*
X007411Y008638D02*
X007544Y008638D01*
X007611Y008571D01*
X007544Y008505D01*
X007411Y008505D01*
X007444Y008417D02*
X007411Y008384D01*
X007411Y008284D01*
X007611Y008284D01*
X007611Y008384D01*
X007577Y008417D01*
X007544Y008417D01*
X007511Y008384D01*
X007511Y008284D01*
X007511Y008384D02*
X007477Y008417D01*
X007444Y008417D01*
X007511Y008505D02*
X007511Y008638D01*
X007507Y007710D02*
X007474Y007676D01*
X007474Y007610D01*
X007507Y007576D01*
X007640Y007576D01*
X007674Y007610D01*
X007674Y007676D01*
X007640Y007710D01*
X007640Y007489D02*
X007674Y007455D01*
X007674Y007389D01*
X007640Y007355D01*
X007507Y007355D01*
X007474Y007389D01*
X007474Y007455D01*
X007507Y007489D01*
X007540Y007268D02*
X007474Y007201D01*
X007540Y007134D01*
X007674Y007134D01*
X007674Y007268D02*
X007540Y007268D01*
X007601Y006725D02*
X007468Y006725D01*
X007434Y006692D01*
X007434Y006592D01*
X007634Y006592D01*
X007634Y006692D01*
X007601Y006725D01*
X007634Y006504D02*
X007434Y006504D01*
X007634Y006371D01*
X007434Y006371D01*
X007468Y006283D02*
X007534Y006283D01*
X007534Y006217D01*
X007468Y006283D02*
X007434Y006250D01*
X007434Y006183D01*
X007468Y006150D01*
X007601Y006150D01*
X007634Y006183D01*
X007634Y006250D01*
X007601Y006283D01*
X007607Y005741D02*
X007474Y005741D01*
X007574Y005741D02*
X007574Y005608D01*
X007607Y005608D02*
X007474Y005608D01*
X007507Y005520D02*
X007474Y005487D01*
X007474Y005387D01*
X007674Y005387D01*
X007674Y005487D01*
X007640Y005520D01*
X007507Y005520D01*
X007607Y005608D02*
X007674Y005674D01*
X007607Y005741D01*
X007640Y005299D02*
X007674Y005266D01*
X007674Y005199D01*
X007640Y005166D01*
X007607Y005166D01*
X007574Y005199D01*
X007574Y005266D01*
X007540Y005299D01*
X007507Y005299D01*
X007474Y005266D01*
X007474Y005199D01*
X007507Y005166D01*
X007434Y004796D02*
X007434Y004663D01*
X007634Y004663D01*
X007601Y004575D02*
X007634Y004542D01*
X007634Y004475D01*
X007601Y004442D01*
X007468Y004442D01*
X007434Y004475D01*
X007434Y004542D01*
X007468Y004575D01*
X007468Y004354D02*
X007434Y004321D01*
X007434Y004254D01*
X007468Y004221D01*
X007534Y004254D02*
X007534Y004321D01*
X007501Y004354D01*
X007468Y004354D01*
X007534Y004254D02*
X007568Y004221D01*
X007601Y004221D01*
X007634Y004254D01*
X007634Y004321D01*
X007601Y004354D01*
X007634Y003733D02*
X007434Y003733D01*
X007501Y003666D01*
X007434Y003600D01*
X007634Y003600D01*
X007601Y003512D02*
X007534Y003512D01*
X007501Y003479D01*
X007501Y003379D01*
X007434Y003379D02*
X007634Y003379D01*
X007634Y003479D01*
X007601Y003512D01*
X007434Y003291D02*
X007434Y003158D01*
X007634Y003158D01*
D11*
X004266Y007736D03*
X005802Y008388D03*
X005817Y008430D03*
X005887Y008388D03*
X005887Y008381D03*
X005937Y008388D03*
X005951Y008430D03*
X006022Y008388D03*
X006022Y008381D03*
X006071Y008388D03*
X006086Y008430D03*
X006114Y008331D03*
X006249Y008331D03*
X006291Y008381D03*
X006291Y008388D03*
X006220Y008430D03*
X005979Y008331D03*
X005845Y008331D03*
D12*
X006252Y008480D03*
X003937Y007736D03*
D13*
X003466Y008140D03*
X003140Y007736D03*
D14*
X003140Y007743D03*
X003027Y007892D03*
X003027Y007906D03*
X003027Y007942D03*
X003027Y007956D03*
X003034Y008005D03*
X002885Y008005D03*
X002885Y007991D03*
X002885Y007956D03*
X002885Y007942D03*
X002885Y007906D03*
X002885Y007892D03*
X002885Y007857D03*
X002885Y007842D03*
X002885Y007814D03*
X002885Y007793D03*
X002885Y007764D03*
X002885Y007743D03*
X002885Y008034D03*
X002885Y008055D03*
X002885Y008083D03*
X002885Y008104D03*
X002885Y008182D03*
X002885Y008211D03*
X002885Y008232D03*
X002885Y008260D03*
X003296Y007991D03*
X003621Y007956D03*
X003621Y007942D03*
X003621Y007906D03*
X003621Y007892D03*
X003621Y007857D03*
X003621Y007842D03*
X003621Y007814D03*
X003621Y007793D03*
X003621Y007764D03*
X003621Y007743D03*
X003770Y007892D03*
X003770Y007906D03*
X003770Y008005D03*
X003770Y008034D03*
X003997Y008034D03*
X004004Y007892D03*
X004145Y007857D03*
X004153Y007842D03*
X004145Y007991D03*
X004160Y008034D03*
X004400Y008005D03*
X004400Y007991D03*
X004393Y007857D03*
X004556Y007942D03*
X004549Y007956D03*
X004542Y007991D03*
X004535Y008005D03*
X004528Y008034D03*
X004677Y007991D03*
X004691Y008055D03*
X004939Y007942D03*
X004882Y007743D03*
X004613Y007743D03*
X005307Y007743D03*
X005307Y007764D03*
X005307Y007793D03*
X005307Y007814D03*
X005307Y007842D03*
X005307Y007857D03*
X005307Y007892D03*
X005307Y007906D03*
X005307Y007942D03*
X005307Y007956D03*
X005307Y007991D03*
X005307Y008005D03*
X005555Y008005D03*
X005555Y007991D03*
X005703Y007991D03*
X005703Y008005D03*
X005703Y008034D03*
X005703Y008055D03*
X005703Y008083D03*
X005703Y008104D03*
X005703Y008182D03*
X005703Y008211D03*
X005703Y008232D03*
X005703Y008260D03*
X005852Y008083D03*
X005852Y008055D03*
X005852Y008034D03*
X005852Y008005D03*
X005852Y007991D03*
X005852Y007956D03*
X005852Y007942D03*
X005852Y007906D03*
X005852Y007892D03*
X005852Y007857D03*
X005852Y007842D03*
X005852Y007814D03*
X005852Y007793D03*
X005852Y007764D03*
X005852Y007743D03*
X005703Y007743D03*
X005703Y007764D03*
X005703Y007793D03*
X005703Y007814D03*
X005703Y007842D03*
X005703Y007857D03*
X005703Y007892D03*
X005703Y007906D03*
X005703Y007942D03*
X005703Y007956D03*
X006256Y007956D03*
X006256Y007942D03*
X006256Y007906D03*
X006256Y007892D03*
X006256Y007857D03*
X006256Y007842D03*
X006256Y007814D03*
X006256Y007793D03*
X006256Y007764D03*
X006256Y007743D03*
X006256Y007991D03*
X006256Y008005D03*
X006256Y008034D03*
X006256Y008055D03*
X006256Y008083D03*
D15*
X006054Y007743D03*
X005317Y008034D03*
X004985Y008104D03*
X004977Y008083D03*
X004970Y008055D03*
X004963Y008034D03*
X004956Y008005D03*
X004942Y007956D03*
X004992Y008133D03*
X004524Y008055D03*
X004517Y008083D03*
X004510Y008104D03*
X004489Y008182D03*
X004482Y008211D03*
X004475Y008232D03*
X004468Y008260D03*
X004390Y008034D03*
X004390Y007842D03*
X003774Y007857D03*
X003774Y007991D03*
X003505Y008104D03*
X003292Y008005D03*
X003292Y007857D03*
X003441Y007842D03*
X003441Y007814D03*
X003441Y007793D03*
X003441Y007764D03*
X003441Y007743D03*
X003037Y007857D03*
D16*
X003299Y007892D03*
X003299Y007906D03*
X003299Y007942D03*
X003299Y007956D03*
X003299Y008083D03*
X003299Y008104D03*
X003299Y008133D03*
X003299Y008182D03*
X003299Y008211D03*
X003299Y008232D03*
X003299Y008260D03*
X003625Y008104D03*
X003625Y008083D03*
X004007Y008005D03*
X004149Y008005D03*
X004404Y007892D03*
X004666Y007942D03*
X004666Y007956D03*
X004680Y008005D03*
X004687Y008034D03*
X004808Y008034D03*
X004815Y008005D03*
X004829Y007942D03*
X005162Y007942D03*
X005162Y007956D03*
X005162Y007991D03*
X005162Y008005D03*
X005162Y008034D03*
X005162Y008055D03*
X005162Y008083D03*
X005162Y008104D03*
X005162Y008182D03*
X005162Y008211D03*
X005162Y008232D03*
X005162Y008260D03*
X005162Y007906D03*
X005162Y007892D03*
X005162Y007857D03*
X005162Y007842D03*
X005162Y007814D03*
X005162Y007793D03*
X005162Y007764D03*
X005162Y007743D03*
X005558Y007743D03*
X005558Y007764D03*
X005558Y007793D03*
X005558Y007814D03*
X005558Y007842D03*
X005558Y007857D03*
X005558Y007892D03*
X005558Y007906D03*
X005558Y007942D03*
X005558Y007956D03*
X005558Y008083D03*
X005558Y008104D03*
X005848Y008359D03*
X005955Y008083D03*
X005962Y008055D03*
X005990Y007942D03*
X006103Y007892D03*
X006118Y007942D03*
X006118Y007956D03*
X006139Y008034D03*
X006146Y008055D03*
X006153Y008083D03*
X006118Y008359D03*
X006252Y008359D03*
X003299Y007793D03*
X003299Y007764D03*
X003299Y007743D03*
D17*
X003285Y007842D03*
X003285Y008034D03*
X003512Y008083D03*
X004269Y008133D03*
X004369Y008055D03*
X004269Y007743D03*
X002584Y007991D03*
D18*
X002616Y007956D03*
X002673Y007892D03*
X002715Y007842D03*
X003048Y007842D03*
X003048Y008034D03*
X003777Y007842D03*
X003940Y007743D03*
X004004Y007814D03*
X003990Y007906D03*
X003983Y008055D03*
X004613Y007764D03*
X004882Y007764D03*
X005009Y008211D03*
X005016Y008232D03*
X005024Y008260D03*
X005547Y008034D03*
D19*
X005979Y007991D03*
X005987Y007956D03*
X006128Y007991D03*
X003763Y007743D03*
D20*
X002634Y007743D03*
X002634Y007764D03*
X002634Y007793D03*
X002634Y007814D03*
D21*
X002885Y007800D03*
X002885Y007849D03*
X002885Y007899D03*
X002885Y007949D03*
X002885Y007998D03*
X002885Y008048D03*
X002885Y008097D03*
X002885Y008218D03*
X002885Y008267D03*
X003034Y007998D03*
X003027Y007949D03*
X003027Y007899D03*
X002885Y007750D03*
X003296Y007998D03*
X003621Y007949D03*
X003621Y007899D03*
X003621Y007849D03*
X003621Y007800D03*
X003621Y007750D03*
X003770Y007899D03*
X003770Y007998D03*
X003990Y008048D03*
X004145Y007998D03*
X004153Y007849D03*
X004393Y007849D03*
X004400Y007998D03*
X004528Y008048D03*
X004514Y008097D03*
X004542Y007998D03*
X004613Y007750D03*
X004882Y007750D03*
X004939Y007949D03*
X004953Y007998D03*
X004967Y008048D03*
X005307Y007998D03*
X005307Y007949D03*
X005307Y007899D03*
X005307Y007849D03*
X005307Y007800D03*
X005307Y007750D03*
X005555Y007998D03*
X005703Y007998D03*
X005703Y007949D03*
X005703Y007899D03*
X005703Y007849D03*
X005703Y007800D03*
X005703Y007750D03*
X005852Y007750D03*
X005852Y007800D03*
X005852Y007849D03*
X005852Y007899D03*
X005852Y007949D03*
X005852Y007998D03*
X005852Y008048D03*
X005703Y008048D03*
X005703Y008097D03*
X005703Y008218D03*
X005703Y008267D03*
X006256Y008048D03*
X006256Y007998D03*
X006256Y007949D03*
X006256Y007899D03*
X006256Y007849D03*
X006256Y007800D03*
X006256Y007750D03*
D22*
X006054Y007750D03*
X004977Y008097D03*
X005013Y008218D03*
X004482Y008218D03*
X004170Y008048D03*
X004000Y007899D03*
X003774Y007849D03*
X003781Y008048D03*
X003441Y007800D03*
X003441Y007750D03*
X003044Y007849D03*
D23*
X003299Y007899D03*
X003299Y007949D03*
X003299Y008097D03*
X003299Y008218D03*
X003299Y008267D03*
X003625Y008097D03*
X003299Y007750D03*
X004666Y007949D03*
X004680Y007998D03*
X004687Y008048D03*
X004815Y007998D03*
X005162Y007998D03*
X005162Y007949D03*
X005162Y007899D03*
X005162Y007849D03*
X005162Y007800D03*
X005162Y007750D03*
X005162Y008048D03*
X005162Y008097D03*
X005162Y008218D03*
X005162Y008267D03*
X005558Y008097D03*
X005558Y007949D03*
X005558Y007899D03*
X005558Y007849D03*
X005558Y007800D03*
X005558Y007750D03*
X005976Y007998D03*
X005962Y008048D03*
X006146Y008048D03*
X006118Y007949D03*
X006103Y007899D03*
D24*
X005884Y008218D03*
X004269Y007750D03*
D25*
X003937Y007750D03*
D26*
X004014Y007849D03*
X003767Y007750D03*
X004553Y007949D03*
X006132Y007998D03*
D27*
X004747Y008218D03*
X004613Y007800D03*
X003140Y007750D03*
D28*
X003179Y007800D03*
X002634Y007800D03*
X002634Y007750D03*
D29*
X002885Y007757D03*
X002885Y007772D03*
X002885Y007786D03*
X002885Y007807D03*
X002885Y007821D03*
X002885Y007835D03*
X002885Y007864D03*
X002885Y007871D03*
X002885Y007885D03*
X002885Y007913D03*
X002885Y007927D03*
X002885Y007934D03*
X002885Y007963D03*
X002885Y007977D03*
X002885Y007984D03*
X002885Y008012D03*
X002885Y008026D03*
X002885Y008041D03*
X002885Y008062D03*
X002885Y008076D03*
X002885Y008090D03*
X002885Y008111D03*
X002885Y008126D03*
X002885Y008175D03*
X002885Y008189D03*
X002885Y008204D03*
X002885Y008225D03*
X002885Y008239D03*
X002885Y008253D03*
X003027Y007984D03*
X003027Y007977D03*
X003027Y007963D03*
X003027Y007934D03*
X003027Y007927D03*
X003027Y007913D03*
X003034Y007871D03*
X003296Y007871D03*
X003296Y007885D03*
X003296Y007984D03*
X003501Y008111D03*
X003621Y007984D03*
X003621Y007977D03*
X003621Y007963D03*
X003621Y007934D03*
X003621Y007927D03*
X003621Y007913D03*
X003621Y007885D03*
X003621Y007871D03*
X003621Y007864D03*
X003621Y007835D03*
X003621Y007821D03*
X003621Y007807D03*
X003621Y007786D03*
X003621Y007772D03*
X003621Y007757D03*
X003770Y007864D03*
X003770Y007871D03*
X003770Y007885D03*
X003770Y007913D03*
X003770Y008012D03*
X003770Y008026D03*
X003777Y008041D03*
X003997Y008041D03*
X004011Y007871D03*
X004011Y007835D03*
X004145Y007984D03*
X004400Y008012D03*
X004400Y007871D03*
X004400Y007864D03*
X004556Y007934D03*
X004549Y007963D03*
X004542Y007984D03*
X004535Y008012D03*
X004535Y008026D03*
X004528Y008041D03*
X004521Y008062D03*
X004521Y008076D03*
X004514Y008090D03*
X004507Y008126D03*
X004500Y008154D03*
X004492Y008175D03*
X004485Y008204D03*
X004478Y008225D03*
X004471Y008253D03*
X004669Y007963D03*
X004662Y007934D03*
X004931Y007927D03*
X004946Y007977D03*
X004960Y008026D03*
X004974Y008076D03*
X005307Y007984D03*
X005307Y007977D03*
X005307Y007963D03*
X005307Y007934D03*
X005307Y007927D03*
X005307Y007913D03*
X005307Y007885D03*
X005307Y007871D03*
X005307Y007864D03*
X005307Y007835D03*
X005307Y007821D03*
X005307Y007807D03*
X005307Y007786D03*
X005307Y007772D03*
X005307Y007757D03*
X005555Y007984D03*
X005703Y007984D03*
X005703Y007977D03*
X005703Y007963D03*
X005703Y007934D03*
X005703Y007927D03*
X005703Y007913D03*
X005703Y007885D03*
X005703Y007871D03*
X005703Y007864D03*
X005703Y007835D03*
X005703Y007821D03*
X005703Y007807D03*
X005703Y007786D03*
X005703Y007772D03*
X005703Y007757D03*
X005852Y007757D03*
X005852Y007772D03*
X005852Y007786D03*
X005852Y007807D03*
X005852Y007821D03*
X005852Y007835D03*
X005852Y007864D03*
X005852Y007871D03*
X005852Y007885D03*
X005852Y007913D03*
X005852Y007927D03*
X005852Y007934D03*
X005852Y007963D03*
X005852Y007977D03*
X005852Y007984D03*
X005852Y008012D03*
X005852Y008026D03*
X005852Y008041D03*
X005852Y008062D03*
X005852Y008076D03*
X005852Y008090D03*
X005703Y008090D03*
X005703Y008076D03*
X005703Y008062D03*
X005703Y008041D03*
X005703Y008026D03*
X005703Y008012D03*
X005703Y008111D03*
X005703Y008126D03*
X005703Y008175D03*
X005703Y008189D03*
X005703Y008204D03*
X005703Y008225D03*
X005703Y008239D03*
X005703Y008253D03*
X006256Y008090D03*
X006256Y008076D03*
X006256Y008062D03*
X006256Y008041D03*
X006256Y008026D03*
X006256Y008012D03*
X006256Y007984D03*
X006256Y007977D03*
X006256Y007963D03*
X006256Y007934D03*
X006256Y007927D03*
X006256Y007913D03*
X006256Y007885D03*
X006256Y007871D03*
X006256Y007864D03*
X006256Y007835D03*
X006256Y007821D03*
X006256Y007807D03*
X006256Y007786D03*
X006256Y007772D03*
X006256Y007757D03*
D30*
X006054Y007757D03*
X005551Y008012D03*
X005310Y008012D03*
X005310Y008026D03*
X004985Y008111D03*
X004985Y008126D03*
X004992Y008140D03*
X005006Y008189D03*
X005013Y008225D03*
X005020Y008253D03*
X004977Y008090D03*
X004970Y008062D03*
X004963Y008041D03*
X004956Y008012D03*
X004942Y007963D03*
X004935Y007934D03*
X004885Y007757D03*
X004510Y008111D03*
X004496Y008161D03*
X004489Y008189D03*
X004475Y008239D03*
X004383Y008041D03*
X004390Y008026D03*
X004383Y007835D03*
X004156Y007835D03*
X004007Y007821D03*
X003441Y007821D03*
X003441Y007807D03*
X003441Y007786D03*
X003441Y007772D03*
X003441Y007757D03*
X003441Y007835D03*
X003292Y007864D03*
X003292Y008012D03*
X003044Y008026D03*
X003037Y008012D03*
X003037Y007864D03*
D31*
X003299Y007913D03*
X003299Y007927D03*
X003299Y007934D03*
X003299Y007963D03*
X003299Y007977D03*
X003299Y008076D03*
X003299Y008090D03*
X003299Y008111D03*
X003299Y008126D03*
X003299Y008140D03*
X003299Y008154D03*
X003299Y008161D03*
X003299Y008175D03*
X003299Y008189D03*
X003299Y008204D03*
X003299Y008225D03*
X003299Y008239D03*
X003299Y008253D03*
X003625Y008126D03*
X003625Y008111D03*
X003625Y008090D03*
X004000Y008026D03*
X004007Y007885D03*
X004142Y007977D03*
X004149Y008012D03*
X004156Y008026D03*
X004404Y007885D03*
X004560Y007927D03*
X004546Y007977D03*
X004659Y007927D03*
X004673Y007977D03*
X004673Y007984D03*
X004680Y008012D03*
X004687Y008026D03*
X004687Y008041D03*
X004694Y008062D03*
X004694Y008076D03*
X004808Y008041D03*
X004808Y008026D03*
X004815Y008012D03*
X004822Y007977D03*
X005162Y007977D03*
X005162Y007984D03*
X005162Y007963D03*
X005162Y007934D03*
X005162Y007927D03*
X005162Y007913D03*
X005162Y007885D03*
X005162Y007871D03*
X005162Y007864D03*
X005162Y007835D03*
X005162Y007821D03*
X005162Y007807D03*
X005162Y007786D03*
X005162Y007772D03*
X005162Y007757D03*
X005162Y008012D03*
X005162Y008026D03*
X005162Y008041D03*
X005162Y008062D03*
X005162Y008076D03*
X005162Y008090D03*
X005162Y008111D03*
X005162Y008126D03*
X005162Y008175D03*
X005162Y008189D03*
X005162Y008204D03*
X005162Y008225D03*
X005162Y008239D03*
X005162Y008253D03*
X005558Y008126D03*
X005558Y008111D03*
X005558Y008090D03*
X005558Y008076D03*
X005558Y007977D03*
X005558Y007963D03*
X005558Y007934D03*
X005558Y007927D03*
X005558Y007913D03*
X005558Y007885D03*
X005558Y007871D03*
X005558Y007864D03*
X005558Y007835D03*
X005558Y007821D03*
X005558Y007807D03*
X005558Y007786D03*
X005558Y007772D03*
X005558Y007757D03*
X005969Y008026D03*
X005955Y008076D03*
X006139Y008041D03*
X006139Y008026D03*
X006146Y008062D03*
X006153Y008076D03*
X006153Y008090D03*
X006125Y007984D03*
X006125Y007977D03*
X006110Y007927D03*
X003299Y007786D03*
X003299Y007772D03*
X003299Y007757D03*
D32*
X003289Y008026D03*
X003777Y007984D03*
X004613Y007772D03*
X004613Y007757D03*
X004882Y007772D03*
X005009Y008204D03*
X005016Y008239D03*
X005321Y008041D03*
X005547Y008026D03*
X002722Y007835D03*
X002694Y007871D03*
X002566Y008012D03*
D33*
X003136Y007772D03*
X003922Y007934D03*
X004269Y007757D03*
X004609Y007913D03*
X004885Y007913D03*
X005898Y008111D03*
X006210Y008111D03*
X006210Y008126D03*
D34*
X006217Y008175D03*
X006217Y008189D03*
X006054Y007871D03*
X006054Y007864D03*
X004885Y007885D03*
X003937Y007757D03*
D35*
X004014Y007864D03*
X003767Y007927D03*
X003767Y007934D03*
X003767Y007772D03*
X003767Y007757D03*
X003129Y008126D03*
X004800Y008076D03*
X004800Y008062D03*
X006132Y008012D03*
D36*
X006054Y007835D03*
X006054Y007821D03*
X004885Y007835D03*
X004609Y007835D03*
X003271Y007821D03*
X003136Y007757D03*
X003129Y008111D03*
D37*
X003179Y007807D03*
X002634Y007807D03*
X002634Y007786D03*
X002634Y007772D03*
X002634Y007757D03*
X005438Y008062D03*
D38*
X006054Y007764D03*
X004177Y008055D03*
X003788Y008055D03*
X002704Y007857D03*
X002662Y007906D03*
X002570Y008005D03*
X002549Y008034D03*
D39*
X004273Y007764D03*
D40*
X003937Y007764D03*
X004609Y007906D03*
X004744Y008083D03*
X005898Y008104D03*
X006210Y008133D03*
D41*
X006132Y008005D03*
X005983Y008359D03*
X004800Y008055D03*
X004014Y007857D03*
X004014Y007842D03*
X003767Y007764D03*
D42*
X003136Y007764D03*
X003129Y008104D03*
X004609Y007892D03*
X005388Y008104D03*
D43*
X004885Y007786D03*
X003781Y007835D03*
X003051Y007835D03*
X003051Y008041D03*
X002697Y007864D03*
X002655Y007913D03*
X002612Y007963D03*
X002598Y007977D03*
X002556Y008026D03*
X006054Y007772D03*
D44*
X004269Y007772D03*
X003129Y008076D03*
D45*
X003937Y007772D03*
D46*
X004011Y007828D03*
X004011Y007878D03*
X004153Y008019D03*
X004393Y008019D03*
X004400Y007878D03*
X004549Y007970D03*
X004535Y008019D03*
X004521Y008069D03*
X004507Y008119D03*
X004500Y008147D03*
X004492Y008168D03*
X004485Y008196D03*
X004960Y008019D03*
X004946Y007970D03*
X005307Y007970D03*
X005307Y007920D03*
X005307Y007878D03*
X005307Y007828D03*
X005307Y007779D03*
X005703Y007779D03*
X005703Y007828D03*
X005703Y007878D03*
X005703Y007920D03*
X005703Y007970D03*
X005703Y008019D03*
X005703Y008069D03*
X005703Y008119D03*
X005703Y008196D03*
X005703Y008246D03*
X005852Y008069D03*
X005852Y008019D03*
X005852Y007970D03*
X005852Y007920D03*
X005852Y007878D03*
X005852Y007828D03*
X005852Y007779D03*
X006256Y007779D03*
X006256Y007828D03*
X006256Y007878D03*
X006256Y007920D03*
X006256Y007970D03*
X006256Y008019D03*
X006256Y008069D03*
X003770Y008019D03*
X003770Y007878D03*
X003621Y007878D03*
X003621Y007920D03*
X003621Y007970D03*
X003621Y007828D03*
X003621Y007779D03*
X003296Y007878D03*
X003034Y007878D03*
X003027Y007920D03*
X003027Y007970D03*
X002885Y007970D03*
X002885Y008019D03*
X002885Y008069D03*
X002885Y008119D03*
X002885Y008196D03*
X002885Y008246D03*
X002885Y007920D03*
X002885Y007878D03*
X002885Y007828D03*
X002885Y007779D03*
D47*
X003059Y007828D03*
X002648Y007920D03*
X002605Y007970D03*
X006054Y007779D03*
D48*
X006110Y007920D03*
X006125Y007970D03*
X006139Y008019D03*
X006146Y008069D03*
X005969Y008019D03*
X005558Y007970D03*
X005558Y007920D03*
X005558Y007878D03*
X005558Y007828D03*
X005558Y007779D03*
X005558Y008069D03*
X005558Y008119D03*
X005848Y008437D03*
X006118Y008437D03*
X006252Y008437D03*
X005162Y008246D03*
X005162Y008196D03*
X005162Y008119D03*
X005162Y008069D03*
X005162Y008019D03*
X005162Y007970D03*
X005162Y007920D03*
X005162Y007878D03*
X005162Y007828D03*
X005162Y007779D03*
X004822Y007970D03*
X004673Y007970D03*
X004680Y008019D03*
X004694Y008069D03*
X004000Y008019D03*
X003625Y008119D03*
X003498Y008119D03*
X003299Y008119D03*
X003299Y008147D03*
X003299Y008168D03*
X003299Y008196D03*
X003299Y008246D03*
X003299Y007970D03*
X003299Y007920D03*
X003299Y007779D03*
D49*
X003289Y008019D03*
X002559Y008019D03*
X004379Y007828D03*
X004882Y007779D03*
D50*
X004609Y007779D03*
X003611Y008019D03*
D51*
X004273Y007779D03*
D52*
X003937Y007779D03*
D53*
X003767Y007779D03*
X003767Y007920D03*
X004800Y008069D03*
X005983Y007970D03*
X005983Y008437D03*
D54*
X005551Y008019D03*
X005310Y008019D03*
X004985Y008119D03*
X004992Y008147D03*
X005006Y008196D03*
X005020Y008246D03*
X004970Y008069D03*
X004475Y008246D03*
X003441Y007828D03*
X003441Y007779D03*
X003037Y008019D03*
D55*
X003133Y007779D03*
D56*
X003179Y008069D03*
X002634Y007779D03*
D57*
X003788Y007977D03*
X006054Y007807D03*
X006054Y007786D03*
D58*
X005540Y008041D03*
X004747Y008225D03*
X004613Y007786D03*
X003976Y007913D03*
X003282Y007835D03*
X003282Y008041D03*
D59*
X003883Y008090D03*
X004273Y007786D03*
D60*
X003883Y007786D03*
D61*
X003133Y007786D03*
D62*
X006054Y007793D03*
D63*
X004882Y007793D03*
D64*
X004613Y007793D03*
X004747Y008211D03*
X004747Y008232D03*
D65*
X004273Y007793D03*
X003883Y008083D03*
D66*
X003887Y007793D03*
D67*
X004273Y008104D03*
X003133Y007793D03*
D68*
X006054Y007800D03*
D69*
X004882Y007800D03*
X003062Y008048D03*
D70*
X004269Y007800D03*
D71*
X003887Y007800D03*
D72*
X003604Y008026D03*
X003066Y007821D03*
X004609Y007807D03*
X004885Y007807D03*
D73*
X004273Y007807D03*
D74*
X003891Y007807D03*
D75*
X003597Y008034D03*
X004885Y007842D03*
X005877Y008260D03*
X006054Y007814D03*
D76*
X004885Y007814D03*
D77*
X004613Y007814D03*
X004747Y008182D03*
D78*
X004273Y007814D03*
D79*
X004613Y007842D03*
X003798Y007814D03*
X005880Y008232D03*
X006227Y008260D03*
D80*
X005434Y008055D03*
X003175Y007814D03*
D81*
X003883Y008126D03*
X004613Y007821D03*
X004882Y007821D03*
X004747Y008189D03*
X004747Y008204D03*
D82*
X004751Y008239D03*
X004369Y007821D03*
X004170Y007821D03*
X003512Y008090D03*
X002641Y007927D03*
X002634Y007934D03*
X002591Y007984D03*
X002542Y008041D03*
D83*
X003791Y007821D03*
D84*
X002630Y007821D03*
D85*
X004609Y007828D03*
X006054Y007828D03*
D86*
X004882Y007828D03*
X004747Y008196D03*
D87*
X004999Y008168D03*
X004163Y007828D03*
D88*
X003784Y007828D03*
D89*
X003278Y007828D03*
X003129Y008119D03*
X005388Y008119D03*
D90*
X004747Y008246D03*
X002729Y007828D03*
X002687Y007878D03*
D91*
X006054Y007857D03*
X006054Y007842D03*
D92*
X006054Y007849D03*
D93*
X004882Y007849D03*
X004613Y007849D03*
D94*
X004379Y008048D03*
X003508Y008097D03*
X003289Y007849D03*
X002666Y007899D03*
X002623Y007949D03*
D95*
X002712Y007849D03*
X005324Y008048D03*
D96*
X004885Y007857D03*
X004609Y007857D03*
X005884Y008211D03*
X006224Y008232D03*
D97*
X006224Y008239D03*
X006224Y008225D03*
X005884Y008225D03*
X005884Y008204D03*
X005388Y008111D03*
X004885Y007871D03*
X004885Y007864D03*
X004609Y007864D03*
X004609Y007871D03*
D98*
X004811Y008019D03*
X005958Y008069D03*
X005994Y007920D03*
X006008Y007878D03*
X006100Y007878D03*
D99*
X004882Y007878D03*
D100*
X004609Y007878D03*
X003809Y007970D03*
X005891Y008147D03*
X005891Y008168D03*
D101*
X005951Y008090D03*
X005958Y008062D03*
X005965Y008041D03*
X005972Y008012D03*
X005994Y007934D03*
X005994Y007927D03*
X006001Y007913D03*
X006100Y007885D03*
X006107Y007913D03*
X006114Y007934D03*
X006121Y007963D03*
X006114Y008352D03*
X006249Y008352D03*
X005845Y008352D03*
X004818Y007984D03*
X004825Y007963D03*
X004832Y007934D03*
X004832Y007927D03*
X004004Y008012D03*
D102*
X003490Y008126D03*
X005848Y008444D03*
X005848Y008451D03*
X006118Y008451D03*
X006118Y008444D03*
X006252Y008444D03*
X006252Y008451D03*
X006004Y007885D03*
D103*
X005891Y008154D03*
X005891Y008161D03*
X004744Y008111D03*
X004609Y007885D03*
D104*
X004503Y008140D03*
X004163Y008041D03*
X004949Y007984D03*
X004999Y008161D03*
X004999Y008175D03*
X005388Y008126D03*
X003030Y007885D03*
D105*
X002680Y007885D03*
X003614Y008012D03*
X004747Y008253D03*
X004995Y008154D03*
D106*
X004818Y007991D03*
X004825Y007956D03*
X005965Y008034D03*
X005972Y008005D03*
X006001Y007906D03*
X006001Y007892D03*
X006107Y007906D03*
D107*
X006217Y008182D03*
X004885Y007892D03*
D108*
X004825Y007949D03*
X006001Y007899D03*
D109*
X004885Y007899D03*
D110*
X004609Y007899D03*
D111*
X004407Y007899D03*
D112*
X004889Y007906D03*
X005894Y008133D03*
D113*
X004407Y007906D03*
D114*
X004273Y007913D03*
X004273Y007927D03*
X004273Y007934D03*
D115*
X004609Y007920D03*
X004885Y007920D03*
X006210Y008119D03*
D116*
X004273Y007920D03*
D117*
X003958Y007920D03*
X006224Y008246D03*
D118*
X006213Y008161D03*
X006213Y008154D03*
X006213Y008140D03*
X005894Y008140D03*
X005894Y008126D03*
X003940Y007927D03*
D119*
X004273Y007942D03*
D120*
X003866Y007942D03*
D121*
X003614Y008005D03*
X002630Y007942D03*
X004747Y008260D03*
X005002Y008182D03*
D122*
X004804Y008048D03*
X005987Y007949D03*
D123*
X004273Y007949D03*
D124*
X003859Y007949D03*
D125*
X004276Y007956D03*
D126*
X003848Y007956D03*
D127*
X005979Y007977D03*
X005979Y007984D03*
X005987Y007963D03*
X005979Y008352D03*
D128*
X004276Y007963D03*
D129*
X003830Y007963D03*
D130*
X004276Y007970D03*
D131*
X004407Y007977D03*
X004407Y007984D03*
D132*
X004503Y008133D03*
X004949Y007991D03*
X003618Y007991D03*
X003030Y007991D03*
D133*
X003618Y007998D03*
D134*
X002577Y007998D03*
D135*
X003561Y008041D03*
X003561Y008062D03*
X003561Y008076D03*
D136*
X003275Y008048D03*
X005533Y008048D03*
D137*
X003561Y008048D03*
D138*
X002630Y008048D03*
X002630Y008097D03*
D139*
X003129Y008083D03*
X003561Y008055D03*
X005388Y008083D03*
D140*
X003172Y008055D03*
D141*
X002630Y008055D03*
X002630Y008083D03*
X002630Y008104D03*
D142*
X003887Y008062D03*
X004276Y008062D03*
D143*
X003175Y008062D03*
D144*
X002630Y008062D03*
X002630Y008076D03*
X002630Y008090D03*
X002630Y008111D03*
X002630Y008126D03*
D145*
X005388Y008069D03*
D146*
X004273Y008069D03*
X003883Y008069D03*
D147*
X003561Y008069D03*
D148*
X002630Y008069D03*
X002630Y008119D03*
D149*
X005392Y008076D03*
D150*
X004273Y008076D03*
D151*
X003887Y008076D03*
D152*
X004273Y008083D03*
D153*
X005388Y008090D03*
X003129Y008090D03*
D154*
X004747Y008090D03*
D155*
X004273Y008090D03*
D156*
X006206Y008097D03*
D157*
X005898Y008097D03*
X005388Y008097D03*
D158*
X004747Y008097D03*
D159*
X004273Y008097D03*
D160*
X003883Y008097D03*
D161*
X003129Y008097D03*
D162*
X006206Y008104D03*
D163*
X004747Y008104D03*
D164*
X003887Y008104D03*
D165*
X003883Y008111D03*
X004273Y008111D03*
D166*
X004273Y008119D03*
X003883Y008119D03*
X005894Y008119D03*
X006213Y008147D03*
D167*
X006220Y008196D03*
X005887Y008196D03*
X004747Y008119D03*
D168*
X004747Y008126D03*
X004747Y008140D03*
X005887Y008175D03*
X005887Y008189D03*
X006220Y008204D03*
D169*
X006227Y008253D03*
X005880Y008253D03*
X005880Y008239D03*
X004747Y008175D03*
X004747Y008161D03*
X004747Y008154D03*
X004273Y008126D03*
D170*
X005388Y008133D03*
D171*
X005887Y008182D03*
X006220Y008211D03*
X004747Y008133D03*
D172*
X003883Y008133D03*
X005802Y008409D03*
X005845Y008473D03*
X005880Y008423D03*
X005887Y008409D03*
X005880Y008373D03*
X005845Y008324D03*
X005937Y008409D03*
X005944Y008423D03*
X005979Y008473D03*
X006015Y008423D03*
X006022Y008409D03*
X006015Y008373D03*
X005979Y008324D03*
X006071Y008409D03*
X006079Y008423D03*
X006114Y008473D03*
X006149Y008423D03*
X006149Y008373D03*
X006114Y008324D03*
X006249Y008324D03*
X006284Y008373D03*
X006284Y008423D03*
X006249Y008473D03*
X006213Y008423D03*
D173*
X006118Y008458D03*
X005983Y008458D03*
X005848Y008458D03*
X003483Y008133D03*
D174*
X003133Y008133D03*
D175*
X004269Y008140D03*
X005848Y008480D03*
X005983Y008480D03*
X006118Y008480D03*
D176*
X005880Y008246D03*
X004747Y008168D03*
X004747Y008147D03*
D177*
X006217Y008168D03*
D178*
X006220Y008218D03*
D179*
X006249Y008317D03*
X006114Y008317D03*
D180*
X005979Y008317D03*
X005845Y008317D03*
D181*
X005845Y008338D03*
X005979Y008338D03*
X006114Y008338D03*
X006249Y008338D03*
D182*
X006249Y008345D03*
X006114Y008345D03*
X005979Y008345D03*
X005845Y008345D03*
D183*
X005873Y008366D03*
X005887Y008416D03*
X005845Y008466D03*
X005817Y008366D03*
X005951Y008366D03*
X006022Y008416D03*
X005979Y008466D03*
X006114Y008466D03*
X006142Y008366D03*
X006086Y008366D03*
X006220Y008366D03*
X006277Y008366D03*
X006291Y008416D03*
X006249Y008466D03*
D184*
X006156Y008416D03*
X006008Y008366D03*
D185*
X005948Y008373D03*
X006082Y008373D03*
X006217Y008373D03*
X006295Y008409D03*
X005813Y008373D03*
D186*
X005806Y008381D03*
X005877Y008430D03*
X005940Y008381D03*
X006011Y008430D03*
X006075Y008381D03*
X006146Y008430D03*
X006210Y008381D03*
X006280Y008430D03*
D187*
X006206Y008388D03*
X006156Y008388D03*
X006156Y008381D03*
D188*
X006156Y008409D03*
X006206Y008409D03*
X005809Y008423D03*
D189*
X005806Y008416D03*
X006210Y008416D03*
D190*
X006075Y008416D03*
X005940Y008416D03*
D191*
X005983Y008444D03*
X005983Y008451D03*
D192*
X006252Y008458D03*
M02*
